<svg width="546" height="272" viewBox="0 0 546 272" fill="none" xmlns="http://www.w3.org/2000/svg">
<rect width="459" height="272" rx="8" fill="url(#paint0_linear_2362_38584)"/>
<mask id="mask0_2362_38584" style="mask-type:alpha" maskUnits="userSpaceOnUse" x="0" y="0" width="459" height="272">
<rect width="459" height="272" rx="8" fill="url(#paint1_radial_2362_38584)"/>
</mask>
<g mask="url(#mask0_2362_38584)">
<mask id="mask1_2362_38584" style="mask-type:luminance" maskUnits="userSpaceOnUse" x="-23" y="-36" width="482" height="483">
<path d="M459 -36H-23V446.31H459V-36Z" fill="white"/>
</mask>
<g mask="url(#mask1_2362_38584)">
<path opacity="0.2" d="M215.844 218.448C215.844 285.532 161.503 339.91 94.4651 339.91C27.4275 339.91 -26.918 285.532 -26.918 218.448C-26.918 151.37 27.4275 96.991 94.4651 96.991C161.503 96.9919 215.844 151.371 215.844 218.448Z" fill="#7FD2FF"/>
<path opacity="0.2" d="M556.227 163.173C556.227 230.256 501.885 284.634 434.848 284.634C367.81 284.634 313.465 230.256 313.465 163.173C313.465 96.0955 367.81 41.7161 434.848 41.7161C501.885 41.7161 556.227 96.0945 556.227 163.173Z" fill="#7FD2FF"/>
<path opacity="0.1" d="M117.719 43.4574C117.719 110.54 63.3776 164.919 -3.65993 164.919C-70.6975 164.919 -125.043 110.541 -125.043 43.4574C-125.043 -23.6203 -70.6975 -77.9998 -3.65993 -77.9998C63.3776 -77.9998 117.719 -23.6203 117.719 43.4574Z" fill="#686DE0"/>
<path opacity="0.1" d="M477.586 52.4569C477.586 119.539 423.245 173.918 356.207 173.918C289.17 173.918 234.824 119.539 234.824 52.4569C234.824 -14.6208 289.17 -69.0002 356.207 -69.0002C423.245 -69.0002 477.586 -14.6208 477.586 52.4569Z" fill="#686DE0"/>
</g>
</g>
<g opacity="0.4">
<g opacity="0.5">
<path d="M188.385 94.0387C188.385 95.644 187.083 96.9465 185.476 96.9465C183.872 96.9465 182.57 95.644 182.57 94.0387C182.57 92.4328 183.872 91.1304 185.476 91.1304C187.083 91.1304 188.385 92.4328 188.385 94.0387Z" fill="#F3D591"/>
<path d="M179.014 1.9038C179.014 2.67698 178.387 3.30493 177.612 3.30493C176.836 3.30493 176.209 2.67698 176.209 1.9038C176.209 1.12893 176.836 0.500977 177.612 0.500977C178.386 0.50041 179.014 1.12893 179.014 1.9038Z" fill="#F3D591"/>
<path d="M156.905 24.8891C156.905 25.293 156.578 25.6186 156.176 25.6186C155.772 25.6186 155.445 25.293 155.445 24.8891C155.445 24.4863 155.772 24.1584 156.176 24.1584C156.578 24.1584 156.905 24.4858 156.905 24.8891Z" fill="#F3D591"/>
<path d="M167.411 40.7038C167.411 41.1066 167.085 41.4339 166.681 41.4339C166.278 41.4339 165.951 41.1066 165.951 40.7038C165.951 40.3 166.278 39.9727 166.681 39.9727C167.084 39.9727 167.411 40.3 167.411 40.7038Z" fill="#F3D591"/>
<path d="M238.521 43.6101C238.521 44.0129 238.193 44.3402 237.791 44.3402C237.386 44.3402 237.061 44.0129 237.061 43.6101C237.061 43.2068 237.386 42.8789 237.791 42.8789C238.193 42.8789 238.521 43.2068 238.521 43.6101Z" fill="#F3D591"/>
<path d="M231.153 19.3659C231.153 19.7686 230.825 20.0959 230.421 20.0959C230.019 20.0959 229.691 19.7686 229.691 19.3659C229.691 18.9631 230.019 18.6353 230.421 18.6353C230.825 18.6353 231.153 18.9631 231.153 19.3659Z" fill="#F3D591"/>
<path d="M129.319 127.878C129.319 128.28 128.993 128.608 128.589 128.608C128.186 128.608 127.859 128.28 127.859 127.878C127.859 127.475 128.186 127.147 128.589 127.147C128.993 127.147 129.319 127.474 129.319 127.878Z" fill="#F3D591"/>
<path d="M177.042 129.642C177.042 130.243 176.553 130.733 175.95 130.733C175.35 130.733 174.861 130.243 174.861 129.642C174.861 129.041 175.35 128.552 175.95 128.552C176.553 128.552 177.042 129.041 177.042 129.642Z" fill="#F3D591"/>
<path d="M186.614 33.4395C186.614 33.8434 186.288 34.1707 185.884 34.1707C185.48 34.1707 185.154 33.8434 185.154 33.4395C185.154 33.0368 185.48 32.7095 185.884 32.7095C186.288 32.7095 186.614 33.0362 186.614 33.4395Z" fill="#F3D591"/>
<path d="M227.696 108.071C227.696 108.474 227.371 108.802 226.966 108.802C226.563 108.802 226.236 108.474 226.236 108.071C226.236 107.669 226.563 107.341 226.966 107.341C227.371 107.341 227.696 107.669 227.696 108.071Z" fill="#F3D591"/>
<path d="M132.538 5.4375C132.538 5.84196 132.212 6.16926 131.808 6.16926C131.405 6.16926 131.078 5.84196 131.078 5.4375C131.078 5.03475 131.405 4.70801 131.808 4.70801C132.212 4.70801 132.538 5.03475 132.538 5.4375Z" fill="#F3D591"/>
<path d="M158.709 26.3495C158.709 26.603 158.504 26.8061 158.251 26.8061C157.998 26.8061 157.793 26.603 157.793 26.3495C157.793 26.0965 157.998 25.8911 158.251 25.8911C158.504 25.8917 158.709 26.097 158.709 26.3495Z" fill="#F3D591"/>
<path d="M182.524 64.0861C182.524 64.9075 181.858 65.5735 181.037 65.5735C180.213 65.5735 179.547 64.9075 179.547 64.0861C179.547 63.2619 180.213 62.5977 181.037 62.5977C181.858 62.5977 182.524 63.2625 182.524 64.0861Z" fill="#F3D591"/>
<path d="M235.196 48.4191C235.196 48.823 234.869 49.1492 234.464 49.1492C234.061 49.1492 233.734 48.823 233.734 48.4191C233.734 48.0164 234.061 47.6885 234.464 47.6885C234.868 47.6879 235.196 48.0158 235.196 48.4191Z" fill="#F3D591"/>
<path d="M186.201 67.0641C186.201 67.5797 185.782 67.9978 185.267 67.9978C184.752 67.9978 184.334 67.5797 184.334 67.0641C184.334 66.5473 184.751 66.1304 185.267 66.1304C185.783 66.1304 186.201 66.5479 186.201 67.0641Z" fill="#F3D591"/>
<path d="M126.058 110.312C126.058 110.715 125.731 111.042 125.328 111.042C124.924 111.042 124.598 110.715 124.598 110.312C124.598 109.908 124.924 109.582 125.328 109.582C125.731 109.582 126.058 109.908 126.058 110.312Z" fill="#F3D591"/>
<path d="M127.861 111.773C127.861 112.024 127.656 112.23 127.403 112.23C127.15 112.23 126.945 112.024 126.945 111.773C126.945 111.519 127.15 111.315 127.403 111.315C127.656 111.315 127.861 111.519 127.861 111.773Z" fill="#F3D591"/>
<path d="M225.162 127.148C225.162 127.551 224.836 127.878 224.432 127.878C224.029 127.878 223.703 127.551 223.703 127.148C223.703 126.745 224.029 126.418 224.432 126.418C224.836 126.418 225.162 126.745 225.162 127.148Z" fill="#F3D591"/>
<path d="M226.967 128.608C226.967 128.861 226.763 129.066 226.509 129.066C226.257 129.066 226.051 128.861 226.051 128.608C226.051 128.355 226.257 128.15 226.509 128.15C226.762 128.15 226.967 128.355 226.967 128.608Z" fill="#F3D591"/>
<path d="M131.535 9.89479C131.535 10.1478 131.331 10.3526 131.077 10.3526C130.824 10.3526 130.619 10.1478 130.619 9.89479C130.619 9.64179 130.824 9.43701 131.077 9.43701C131.331 9.43758 131.535 9.64179 131.535 9.89479Z" fill="#F3D591"/>
<path d="M117.296 85.6174C117.296 86.0922 116.668 86.4785 115.893 86.4785C115.119 86.4785 114.49 86.0922 114.49 85.6174C114.49 85.142 115.118 84.7568 115.893 84.7568C116.667 84.7568 117.296 85.142 117.296 85.6174Z" fill="#F3D591"/>
<path d="M123.531 27.801C123.531 28.2752 122.903 28.6621 122.128 28.6621C121.355 28.6621 120.727 28.2752 120.727 27.801C120.727 27.3256 121.355 26.9404 122.128 26.9404C122.903 26.9404 123.531 27.3262 123.531 27.801Z" fill="#F3D591"/>
<path d="M262.915 90.9406C262.915 91.4143 262.287 91.8017 261.512 91.8017C260.738 91.8017 260.109 91.4148 260.109 90.9406C260.109 90.4652 260.737 90.0801 261.512 90.0801C262.287 90.0801 262.915 90.4652 262.915 90.9406Z" fill="#F3D591"/>
<path d="M263.51 120.127C263.51 120.601 262.882 120.988 262.107 120.988C261.334 120.988 260.705 120.601 260.705 120.127C260.705 119.652 261.333 119.266 262.107 119.266C262.881 119.266 263.51 119.651 263.51 120.127Z" fill="#F3D591"/>
<path d="M270.657 23.0358C270.657 23.5095 270.029 23.8964 269.254 23.8964C268.48 23.8964 267.852 23.5095 267.852 23.0358C267.852 22.5605 268.48 22.1753 269.254 22.1753C270.029 22.1753 270.657 22.5605 270.657 23.0358Z" fill="#F3D591"/>
<path d="M101.561 28.4746C101.561 28.8774 101.235 29.2047 100.832 29.2047C100.428 29.2047 100.102 28.8774 100.102 28.4746C100.102 28.0719 100.428 27.7451 100.832 27.7451C101.234 27.7451 101.561 28.0713 101.561 28.4746Z" fill="#F3D591"/>
<path d="M103.364 29.9356C103.364 30.188 103.159 30.3933 102.906 30.3933C102.654 30.3933 102.447 30.188 102.447 29.9356C102.447 29.6826 102.653 29.4778 102.906 29.4778C103.159 29.4778 103.364 29.6826 103.364 29.9356Z" fill="#F3D591"/>
<path d="M156.957 1.07471C156.957 1.47746 156.631 1.80477 156.228 1.80477C155.825 1.80477 155.498 1.47746 155.498 1.07471C155.498 0.671388 155.825 0.345215 156.228 0.345215C156.631 0.345215 156.957 0.671388 156.957 1.07471Z" fill="#F3D591"/>
<path d="M158.758 2.53541C158.758 2.78784 158.554 2.99376 158.301 2.99376C158.048 2.99376 157.842 2.78841 157.842 2.53541C157.842 2.28242 158.048 2.07764 158.301 2.07764C158.553 2.0782 158.758 2.28298 158.758 2.53541Z" fill="#F3D591"/>
<path d="M218.309 4.05274C218.309 4.45549 217.983 4.78336 217.579 4.78336C217.175 4.78336 216.85 4.45549 216.85 4.05274C216.85 3.64998 217.175 3.32324 217.579 3.32324C217.983 3.32324 218.309 3.64998 218.309 4.05274Z" fill="#F3D591"/>
<path d="M220.112 5.51287C220.112 5.76587 219.906 5.97122 219.654 5.97122C219.402 5.97122 219.195 5.76644 219.195 5.51287C219.195 5.26044 219.401 5.05566 219.654 5.05566C219.906 5.05566 220.112 5.26044 220.112 5.51287Z" fill="#F3D591"/>
<path d="M228.18 86.0459C228.18 86.4487 227.854 86.776 227.45 86.776C227.047 86.776 226.721 86.4492 226.721 86.0459C226.721 85.6431 227.047 85.3164 227.45 85.3164C227.854 85.3158 228.18 85.6431 228.18 86.0459Z" fill="#F3D591"/>
<path d="M229.982 87.506C229.982 87.759 229.777 87.9644 229.524 87.9644C229.272 87.9644 229.066 87.759 229.066 87.506C229.066 87.2536 229.271 87.0488 229.524 87.0488C229.777 87.0488 229.982 87.2536 229.982 87.506Z" fill="#F3D591"/>
<path d="M230.49 68.5254C230.49 68.9281 230.165 69.2555 229.761 69.2555C229.358 69.2555 229.031 68.9281 229.031 68.5254C229.031 68.1221 229.358 67.7959 229.761 67.7959C230.165 67.7959 230.49 68.1226 230.49 68.5254Z" fill="#F3D591"/>
<path d="M232.294 69.9861C232.294 70.2385 232.089 70.4439 231.836 70.4439C231.583 70.4439 231.377 70.2385 231.377 69.9861C231.377 69.7331 231.583 69.5283 231.836 69.5283C232.089 69.5283 232.294 69.7331 232.294 69.9861Z" fill="#F3D591"/>
<path d="M94.9922 72.2822C94.9922 72.685 94.6666 73.0123 94.2621 73.0123C93.8599 73.0123 93.5332 72.685 93.5332 72.2822C93.5332 71.8795 93.8599 71.5527 94.2621 71.5527C94.666 71.5533 94.9922 71.8795 94.9922 72.2822Z" fill="#F3D591"/>
<path d="M96.7973 73.7439C96.7973 73.9963 96.5914 74.2017 96.3384 74.2017C96.0871 74.2017 95.8806 73.9963 95.8806 73.7439C95.8806 73.4909 96.0865 73.2861 96.3384 73.2861C96.5914 73.2861 96.7973 73.4903 96.7973 73.7439Z" fill="#F3D591"/>
<path d="M96.0461 108.479C96.0461 108.882 95.7205 109.209 95.316 109.209C94.9127 109.209 94.5859 108.881 94.5859 108.479C94.5859 108.076 94.9127 107.75 95.316 107.75C95.7205 107.75 96.0461 108.076 96.0461 108.479Z" fill="#F3D591"/>
<path d="M97.8492 109.941C97.8492 110.193 97.6444 110.398 97.3914 110.398C97.1389 110.398 96.9336 110.193 96.9336 109.941C96.9336 109.688 97.1384 109.483 97.3914 109.483C97.6438 109.483 97.8492 109.687 97.8492 109.941Z" fill="#F3D591"/>
<path d="M191.505 118.34C191.505 118.742 191.179 119.07 190.775 119.07C190.372 119.07 190.045 118.742 190.045 118.34C190.045 117.937 190.372 117.61 190.775 117.61C191.179 117.61 191.505 117.937 191.505 118.34Z" fill="#F3D591"/>
<path d="M193.308 119.8C193.308 120.052 193.103 120.258 192.85 120.258C192.598 120.258 192.393 120.052 192.393 119.8C192.393 119.547 192.597 119.342 192.85 119.342C193.103 119.343 193.308 119.548 193.308 119.8Z" fill="#F3D591"/>
<path d="M265.805 62.6152C265.805 63.018 265.479 63.3453 265.075 63.3453C264.671 63.3453 264.346 63.018 264.346 62.6152C264.346 62.2125 264.671 61.8857 265.075 61.8857C265.479 61.8852 265.805 62.2119 265.805 62.6152Z" fill="#F3D591"/>
<path d="M267.61 64.075C267.61 64.3274 267.404 64.5327 267.151 64.5327C266.9 64.5327 266.694 64.3274 266.694 64.075C266.694 63.822 266.9 63.6172 267.151 63.6172C267.404 63.6172 267.61 63.822 267.61 64.075Z" fill="#F3D591"/>
<path d="M89.4941 7.21948C89.4941 7.62224 89.1685 7.94954 88.7641 7.94954C88.3608 7.94954 88.0352 7.62224 88.0352 7.21948C88.0352 6.81673 88.3608 6.48999 88.7641 6.48999C89.1685 6.48999 89.4941 6.81673 89.4941 7.21948Z" fill="#F3D591"/>
<path d="M91.2975 8.67938C91.2975 8.93237 91.0928 9.13772 90.8386 9.13772C90.5873 9.13772 90.3809 8.93237 90.3809 8.67938C90.3809 8.42695 90.5868 8.22217 90.8386 8.22217C91.0928 8.22217 91.2975 8.42695 91.2975 8.67938Z" fill="#F3D591"/>
<path d="M263.425 3.04932C263.425 3.45207 263.099 3.77994 262.695 3.77994C262.292 3.77994 261.965 3.45264 261.965 3.04932C261.965 2.64656 262.292 2.31982 262.695 2.31982C263.099 2.31982 263.425 2.64656 263.425 3.04932Z" fill="#F3D591"/>
<path d="M265.228 4.51051C265.228 4.76294 265.023 4.96829 264.77 4.96829C264.518 4.96829 264.312 4.76294 264.312 4.51051C264.312 4.25751 264.517 4.05273 264.77 4.05273C265.023 4.05273 265.228 4.25751 265.228 4.51051Z" fill="#F3D591"/>
<path d="M250.109 43.1376C250.109 43.6124 249.481 43.9987 248.706 43.9987C247.932 43.9987 247.304 43.6124 247.304 43.1376C247.304 42.6623 247.931 42.2771 248.706 42.2771C249.48 42.2771 250.109 42.6617 250.109 43.1376Z" fill="#F3D591"/>
<path d="M177.142 79.4716C177.142 79.9464 176.514 80.3327 175.738 80.3327C174.964 80.3327 174.336 79.9464 174.336 79.4716C174.336 78.9968 174.964 78.6111 175.738 78.6111C176.514 78.6111 177.142 78.9963 177.142 79.4716Z" fill="#F3D591"/>
<path d="M199.773 8.88795C199.773 9.36218 199.145 9.74848 198.37 9.74848C197.597 9.74848 196.969 9.36218 196.969 8.88795C196.969 8.41259 197.597 8.02686 198.37 8.02686C199.145 8.02686 199.773 8.41202 199.773 8.88795Z" fill="#F3D591"/>
<path d="M259.935 24.3742C259.935 24.8484 259.309 25.2353 258.534 25.2353C257.759 25.2353 257.131 24.849 257.131 24.3742C257.131 23.8988 257.759 23.5137 258.534 23.5137C259.308 23.5137 259.935 23.8994 259.935 24.3742Z" fill="#F3D591"/>
<path d="M172.539 178.307C172.539 176.701 173.841 175.399 175.447 175.399C177.052 175.399 178.353 176.701 178.353 178.307C178.353 179.913 177.052 181.215 175.447 181.215C173.841 181.215 172.539 179.913 172.539 178.307Z" fill="#F3D591"/>
<path d="M181.912 270.442C181.912 269.668 182.539 269.041 183.314 269.041C184.089 269.041 184.717 269.668 184.717 270.442C184.717 271.217 184.09 271.845 183.314 271.845C182.54 271.844 181.912 271.217 181.912 270.442Z" fill="#F3D591"/>
<path d="M204.02 247.457C204.02 247.052 204.346 246.727 204.748 246.727C205.153 246.727 205.48 247.052 205.48 247.457C205.48 247.859 205.153 248.187 204.748 248.187C204.346 248.187 204.02 247.859 204.02 247.457Z" fill="#F3D591"/>
<path d="M193.511 231.641C193.511 231.238 193.838 230.911 194.242 230.911C194.645 230.911 194.972 231.238 194.972 231.641C194.972 232.045 194.645 232.372 194.242 232.372C193.838 232.372 193.511 232.045 193.511 231.641Z" fill="#F3D591"/>
<path d="M122.406 228.736C122.406 228.333 122.734 228.006 123.136 228.006C123.541 228.006 123.866 228.333 123.866 228.736C123.866 229.139 123.541 229.467 123.136 229.467C122.734 229.467 122.406 229.139 122.406 228.736Z" fill="#F3D591"/>
<path d="M129.771 252.979C129.771 252.575 130.099 252.249 130.503 252.249C130.905 252.249 131.233 252.575 131.233 252.979C131.233 253.381 130.905 253.709 130.503 253.709C130.099 253.709 129.771 253.381 129.771 252.979Z" fill="#F3D591"/>
<path d="M231.604 144.467C231.604 144.064 231.93 143.737 232.334 143.737C232.737 143.737 233.064 144.064 233.064 144.467C233.064 144.87 232.737 145.197 232.334 145.197C231.93 145.197 231.604 144.87 231.604 144.467Z" fill="#F3D591"/>
<path d="M183.883 142.703C183.883 142.102 184.371 141.612 184.974 141.612C185.575 141.612 186.063 142.101 186.063 142.703C186.063 143.304 185.575 143.793 184.974 143.793C184.371 143.793 183.883 143.304 183.883 142.703Z" fill="#F3D591"/>
<path d="M174.311 238.905C174.311 238.501 174.637 238.174 175.041 238.174C175.445 238.174 175.771 238.501 175.771 238.905C175.771 239.309 175.445 239.635 175.041 239.635C174.637 239.635 174.311 239.309 174.311 238.905Z" fill="#F3D591"/>
<path d="M133.227 164.274C133.227 163.871 133.552 163.543 133.957 163.543C134.36 163.543 134.687 163.871 134.687 164.274C134.687 164.676 134.36 165.004 133.957 165.004C133.552 165.005 133.227 164.676 133.227 164.274Z" fill="#F3D591"/>
<path d="M228.385 266.908C228.385 266.504 228.711 266.177 229.115 266.177C229.518 266.177 229.845 266.504 229.845 266.908C229.845 267.312 229.518 267.638 229.115 267.638C228.711 267.638 228.385 267.312 228.385 266.908Z" fill="#F3D591"/>
<path d="M202.215 245.996C202.215 245.743 202.42 245.539 202.673 245.539C202.925 245.539 203.13 245.742 203.13 245.996C203.13 246.249 202.926 246.454 202.673 246.454C202.42 246.454 202.215 246.249 202.215 245.996Z" fill="#F3D591"/>
<path d="M178.4 208.259C178.4 207.438 179.066 206.771 179.887 206.771C180.711 206.771 181.377 207.438 181.377 208.259C181.377 209.083 180.711 209.747 179.887 209.747C179.066 209.747 178.4 209.083 178.4 208.259Z" fill="#F3D591"/>
<path d="M125.727 223.927C125.727 223.523 126.053 223.197 126.458 223.197C126.861 223.197 127.188 223.523 127.188 223.927C127.188 224.33 126.861 224.657 126.458 224.657C126.053 224.657 125.727 224.329 125.727 223.927Z" fill="#F3D591"/>
<path d="M174.723 205.281C174.723 204.765 175.141 204.347 175.657 204.347C176.173 204.347 176.59 204.765 176.59 205.281C176.59 205.797 176.173 206.214 175.657 206.214C175.141 206.214 174.723 205.798 174.723 205.281Z" fill="#F3D591"/>
<path d="M234.867 162.033C234.867 161.63 235.194 161.304 235.597 161.304C236.001 161.304 236.327 161.63 236.327 162.033C236.327 162.437 236.001 162.763 235.597 162.763C235.194 162.763 234.867 162.437 234.867 162.033Z" fill="#F3D591"/>
<path d="M233.064 160.573C233.064 160.321 233.269 160.114 233.522 160.114C233.775 160.114 233.98 160.321 233.98 160.573C233.98 160.826 233.775 161.03 233.522 161.03C233.269 161.03 233.064 160.826 233.064 160.573Z" fill="#F3D591"/>
<path d="M135.76 145.197C135.76 144.795 136.085 144.467 136.49 144.467C136.893 144.467 137.219 144.795 137.219 145.197C137.219 145.6 136.893 145.927 136.49 145.927C136.085 145.927 135.76 145.601 135.76 145.197Z" fill="#F3D591"/>
<path d="M133.957 143.737C133.957 143.484 134.162 143.279 134.416 143.279C134.667 143.279 134.873 143.484 134.873 143.737C134.873 143.99 134.668 144.195 134.416 144.195C134.162 144.195 133.957 143.99 133.957 143.737Z" fill="#F3D591"/>
<path d="M229.387 262.45C229.387 262.198 229.59 261.992 229.844 261.992C230.097 261.992 230.302 262.197 230.302 262.45C230.302 262.703 230.097 262.908 229.844 262.908C229.59 262.907 229.387 262.703 229.387 262.45Z" fill="#F3D591"/>
<path d="M243.627 186.727C243.627 186.253 244.255 185.866 245.03 185.866C245.804 185.866 246.433 186.253 246.433 186.727C246.433 187.203 245.804 187.588 245.03 187.588C244.255 187.588 243.627 187.203 243.627 186.727Z" fill="#F3D591"/>
<path d="M237.391 244.544C237.391 244.069 238.019 243.683 238.793 243.683C239.567 243.683 240.195 244.069 240.195 244.544C240.195 245.019 239.567 245.405 238.793 245.405C238.019 245.405 237.391 245.019 237.391 244.544Z" fill="#F3D591"/>
<path d="M98.0078 181.406C98.0078 180.931 98.6358 180.544 99.4106 180.544C100.185 180.544 100.813 180.931 100.813 181.406C100.813 181.881 100.186 182.266 99.4106 182.266C98.6358 182.265 98.0078 181.881 98.0078 181.406Z" fill="#F3D591"/>
<path d="M97.4141 152.219C97.4141 151.744 98.042 151.357 98.8169 151.357C99.5901 151.357 100.219 151.744 100.219 152.219C100.219 152.693 99.5906 153.08 98.8169 153.08C98.0426 153.08 97.4141 152.693 97.4141 152.219Z" fill="#F3D591"/>
<path d="M90.2656 249.309C90.2656 248.835 90.8936 248.448 91.6684 248.448C92.4428 248.448 93.0713 248.835 93.0713 249.309C93.0713 249.784 92.4433 250.17 91.6684 250.17C90.8936 250.169 90.2656 249.784 90.2656 249.309Z" fill="#F3D591"/>
<path d="M259.363 243.871C259.363 243.468 259.689 243.141 260.092 243.141C260.496 243.141 260.822 243.468 260.822 243.871C260.822 244.274 260.496 244.6 260.092 244.6C259.689 244.6 259.363 244.274 259.363 243.871Z" fill="#F3D591"/>
<path d="M257.559 242.41C257.559 242.158 257.763 241.952 258.016 241.952C258.269 241.952 258.475 242.157 258.475 242.41C258.475 242.663 258.269 242.869 258.016 242.869C257.763 242.868 257.559 242.663 257.559 242.41Z" fill="#F3D591"/>
<path d="M203.967 271.271C203.967 270.868 204.292 270.541 204.696 270.541C205.099 270.541 205.426 270.868 205.426 271.271C205.426 271.673 205.099 272 204.696 272C204.292 272.001 203.967 271.674 203.967 271.271Z" fill="#F3D591"/>
<path d="M202.166 269.809C202.166 269.557 202.371 269.352 202.624 269.352C202.876 269.352 203.083 269.556 203.083 269.809C203.083 270.062 202.877 270.267 202.624 270.267C202.371 270.267 202.166 270.063 202.166 269.809Z" fill="#F3D591"/>
<path d="M142.617 268.293C142.617 267.89 142.943 267.562 143.347 267.562C143.751 267.562 144.076 267.89 144.076 268.293C144.076 268.695 143.751 269.022 143.347 269.022C142.943 269.023 142.617 268.696 142.617 268.293Z" fill="#F3D591"/>
<path d="M140.814 266.832C140.814 266.579 141.02 266.374 141.272 266.374C141.525 266.374 141.731 266.579 141.731 266.832C141.731 267.084 141.525 267.29 141.272 267.29C141.02 267.29 140.814 267.085 140.814 266.832Z" fill="#F3D591"/>
<path d="M132.744 186.299C132.744 185.896 133.07 185.569 133.474 185.569C133.876 185.569 134.203 185.896 134.203 186.299C134.203 186.702 133.876 187.028 133.474 187.028C133.07 187.029 132.744 186.702 132.744 186.299Z" fill="#F3D591"/>
<path d="M130.941 184.838C130.941 184.586 131.146 184.38 131.399 184.38C131.652 184.38 131.857 184.585 131.857 184.838C131.857 185.091 131.652 185.296 131.399 185.296C131.146 185.296 130.941 185.091 130.941 184.838Z" fill="#F3D591"/>
<path d="M130.434 203.82C130.434 203.418 130.759 203.09 131.163 203.09C131.566 203.09 131.893 203.418 131.893 203.82C131.893 204.223 131.566 204.55 131.163 204.55C130.759 204.55 130.434 204.223 130.434 203.82Z" fill="#F3D591"/>
<path d="M128.629 202.359C128.629 202.107 128.834 201.902 129.087 201.902C129.34 201.902 129.546 202.106 129.546 202.359C129.546 202.612 129.34 202.817 129.087 202.817C128.834 202.817 128.629 202.612 128.629 202.359Z" fill="#F3D591"/>
<path d="M265.932 200.062C265.932 199.659 266.257 199.332 266.662 199.332C267.064 199.332 267.391 199.659 267.391 200.062C267.391 200.465 267.064 200.791 266.662 200.791C266.258 200.791 265.932 200.465 265.932 200.062Z" fill="#F3D591"/>
<path d="M264.129 198.601C264.129 198.349 264.335 198.144 264.588 198.144C264.839 198.144 265.046 198.349 265.046 198.601C265.046 198.855 264.84 199.06 264.588 199.06C264.335 199.06 264.129 198.855 264.129 198.601Z" fill="#F3D591"/>
<path d="M264.877 163.866C264.877 163.464 265.203 163.136 265.607 163.136C266.01 163.136 266.337 163.464 266.337 163.866C266.337 164.27 266.01 164.595 265.607 164.595C265.203 164.595 264.877 164.27 264.877 163.866Z" fill="#F3D591"/>
<path d="M263.074 162.405C263.074 162.153 263.279 161.947 263.532 161.947C263.785 161.947 263.99 162.153 263.99 162.405C263.99 162.658 263.785 162.863 263.532 162.863C263.279 162.863 263.074 162.658 263.074 162.405Z" fill="#F3D591"/>
<path d="M169.42 154.005C169.42 153.603 169.746 153.275 170.15 153.275C170.553 153.275 170.88 153.603 170.88 154.005C170.88 154.408 170.553 154.735 170.15 154.735C169.746 154.735 169.42 154.408 169.42 154.005Z" fill="#F3D591"/>
<path d="M167.617 152.545C167.617 152.293 167.822 152.087 168.075 152.087C168.327 152.087 168.533 152.292 168.533 152.545C168.533 152.798 168.328 153.003 168.075 153.003C167.822 153.002 167.617 152.798 167.617 152.545Z" fill="#F3D591"/>
<path d="M95.1191 209.73C95.1191 209.328 95.4447 209.001 95.8492 209.001C96.2525 209.001 96.5781 209.328 96.5781 209.73C96.5781 210.134 96.2525 210.461 95.8492 210.461C95.4453 210.461 95.1191 210.134 95.1191 209.73Z" fill="#F3D591"/>
<path d="M93.3142 208.27C93.3142 208.018 93.5201 207.812 93.7731 207.812C94.0244 207.812 94.2309 208.017 94.2309 208.27C94.2309 208.523 94.025 208.728 93.7731 208.728C93.5201 208.728 93.3142 208.523 93.3142 208.27Z" fill="#F3D591"/>
<path d="M271.43 265.126C271.43 264.723 271.755 264.396 272.16 264.396C272.563 264.396 272.889 264.723 272.889 265.126C272.889 265.528 272.563 265.855 272.16 265.855C271.755 265.856 271.43 265.528 271.43 265.126Z" fill="#F3D591"/>
<path d="M269.625 263.665C269.625 263.413 269.83 263.208 270.084 263.208C270.335 263.208 270.542 263.412 270.542 263.665C270.542 263.918 270.336 264.123 270.084 264.123C269.83 264.123 269.625 263.918 269.625 263.665Z" fill="#F3D591"/>
<path d="M97.5 269.296C97.5 268.893 97.8256 268.566 98.2301 268.566C98.6334 268.566 98.9601 268.893 98.9601 269.296C98.9601 269.699 98.6334 270.025 98.2301 270.025C97.8256 270.025 97.5 269.699 97.5 269.296Z" fill="#F3D591"/>
<path d="M95.6953 267.834C95.6953 267.582 95.9001 267.376 96.1531 267.376C96.4055 267.376 96.6109 267.581 96.6109 267.834C96.6109 268.088 96.4061 268.293 96.1531 268.293C95.9001 268.292 95.6953 268.088 95.6953 267.834Z" fill="#F3D591"/>
<path d="M110.816 229.208C110.816 228.733 111.444 228.347 112.219 228.347C112.994 228.347 113.621 228.733 113.621 229.208C113.621 229.683 112.994 230.068 112.219 230.068C111.444 230.068 110.816 229.683 110.816 229.208Z" fill="#F3D591"/>
<path d="M183.781 192.873C183.781 192.398 184.409 192.012 185.185 192.012C185.958 192.012 186.587 192.398 186.587 192.873C186.587 193.348 185.959 193.733 185.185 193.733C184.409 193.733 183.781 193.348 183.781 192.873Z" fill="#F3D591"/>
<path d="M161.15 263.457C161.15 262.982 161.778 262.596 162.553 262.596C163.326 262.596 163.955 262.982 163.955 263.457C163.955 263.933 163.326 264.318 162.553 264.318C161.778 264.318 161.15 263.933 161.15 263.457Z" fill="#F3D591"/>
<path d="M100.99 247.97C100.99 247.496 101.617 247.109 102.392 247.109C103.166 247.109 103.795 247.496 103.795 247.97C103.795 248.445 103.167 248.831 102.392 248.831C101.617 248.831 100.99 248.445 100.99 247.97Z" fill="#F3D591"/>
<path d="M54.0646 137.969C55.6699 137.969 56.9729 139.271 56.9729 140.877C56.9729 142.482 55.6699 143.784 54.0646 143.784C52.4592 143.784 51.1562 142.482 51.1562 140.877C51.1562 139.271 52.4592 137.969 54.0646 137.969Z" fill="#F3D591"/>
<path d="M12.7312 174.909C13.5044 174.909 14.1329 175.536 14.1329 176.311C14.1329 177.086 13.5049 177.714 12.7312 177.714C11.9569 177.714 11.3284 177.086 11.3284 176.311C11.3284 175.537 11.9569 174.909 12.7312 174.909Z" fill="#F3D591"/>
<path d="M35.7156 197.017C36.1189 197.017 36.4445 197.344 36.4445 197.746C36.4445 198.15 36.1189 198.477 35.7156 198.477C35.3122 198.477 34.9844 198.15 34.9844 197.746C34.9838 197.344 35.3122 197.017 35.7156 197.017Z" fill="#F3D591"/>
<path d="M0.731195 158.944C1.13338 158.944 1.46126 159.27 1.46126 159.674C1.46126 160.076 1.13338 160.403 0.731195 160.403C0.326741 160.403 0 160.076 0 159.674C0 159.27 0.326741 158.944 0.731195 158.944Z" fill="#F3D591"/>
<path d="M3.63549 87.8345C4.03768 87.8345 4.36442 88.1623 4.36442 88.5645C4.36442 88.969 4.03768 89.2946 3.63549 89.2946C3.23217 89.2946 2.9043 88.969 2.9043 88.5645C2.9043 88.1629 3.23217 87.8345 3.63549 87.8345Z" fill="#F3D591"/>
<path d="M15.1752 34.924C15.1565 35.3268 14.8127 35.6376 14.4105 35.6189C14.0083 35.6002 13.6969 35.2581 13.7156 34.8554C13.7344 34.4532 14.077 34.1418 14.4792 34.1605C14.8814 34.1792 15.1939 34.5218 15.1752 34.924Z" fill="#F3D591"/>
<path d="M87.9058 197.033C88.308 197.033 88.6359 197.36 88.6359 197.763C88.6359 198.167 88.308 198.494 87.9058 198.494C87.5025 198.494 87.1758 198.167 87.1758 197.763C87.1758 197.361 87.5031 197.033 87.9058 197.033Z" fill="#F3D591"/>
<path d="M89.6692 149.312C90.2711 149.312 90.7606 149.799 90.7606 150.402C90.7606 151.004 90.2711 151.492 89.6692 151.492C89.0685 151.492 88.5801 151.004 88.5801 150.402C88.5801 149.8 89.0685 149.312 89.6692 149.312Z" fill="#F3D591"/>
<path d="M4.81209 139.74C5.21655 139.74 5.54329 140.067 5.54329 140.47C5.54329 140.874 5.21655 141.2 4.81209 141.2C4.40877 141.2 4.08203 140.874 4.08203 140.47C4.08203 140.068 4.40877 139.74 4.81209 139.74Z" fill="#F3D591"/>
<path d="M68.0986 98.6572C68.5019 98.6572 68.8287 98.9828 68.8287 99.3873C68.8287 99.79 68.5019 100.117 68.0986 100.117C67.6964 100.117 67.3674 99.79 67.3674 99.3873C67.3674 98.9828 67.6964 98.6572 68.0986 98.6572Z" fill="#F3D591"/>
<path d="M16.2621 221.382C16.6666 221.382 16.9933 221.709 16.9933 222.112C16.9933 222.516 16.6666 222.843 16.2621 222.843C15.8599 222.843 15.5332 222.516 15.5332 222.112C15.5326 221.709 15.8599 221.382 16.2621 221.382Z" fill="#F3D591"/>
<path d="M37.1757 195.214C37.4293 195.214 37.6323 195.419 37.6323 195.672C37.6323 195.925 37.4298 196.129 37.1757 196.129C36.9233 196.129 36.7168 195.925 36.7168 195.672C36.7168 195.419 36.9227 195.214 37.1757 195.214Z" fill="#F3D591"/>
<path d="M24.1141 143.83C24.9349 143.83 25.6008 144.496 25.6008 145.317C25.6008 146.141 24.9349 146.807 24.1141 146.807C23.2898 146.807 22.625 146.141 22.625 145.317C22.625 144.496 23.2898 143.83 24.1141 143.83Z" fill="#F3D591"/>
<path d="M8.44604 91.1597C8.84936 91.1597 9.1761 91.4864 9.1761 91.8903C9.1761 92.2936 8.84936 92.6209 8.44604 92.6209C8.04272 92.6209 7.71484 92.2936 7.71484 91.8903C7.71484 91.4864 8.04272 91.1597 8.44604 91.1597Z" fill="#F3D591"/>
<path d="M27.0919 140.153C27.607 140.153 28.025 140.571 28.025 141.087C28.025 141.602 27.6075 142.02 27.0919 142.02C26.5746 142.02 26.1582 141.603 26.1582 141.087C26.1582 140.571 26.5746 140.153 27.0919 140.153Z" fill="#F3D591"/>
<path d="M70.3375 200.296C70.7408 200.296 71.0675 200.623 71.0675 201.026C71.0675 201.43 70.7408 201.757 70.3375 201.757C69.933 201.757 69.6074 201.43 69.6074 201.026C69.6074 200.624 69.933 200.296 70.3375 200.296Z" fill="#F3D591"/>
<path d="M71.8007 198.494C72.0509 198.494 72.2585 198.699 72.2585 198.952C72.2585 199.204 72.0514 199.409 71.8007 199.409C71.5471 199.409 71.3418 199.205 71.3418 198.952C71.3418 198.699 71.5471 198.494 71.8007 198.494Z" fill="#F3D591"/>
<path d="M87.1742 101.19C87.5764 101.19 87.9043 101.516 87.9043 101.92C87.9043 102.323 87.5764 102.649 87.1742 102.649C86.7709 102.649 86.4453 102.323 86.4453 101.92C86.4453 101.517 86.7709 101.19 87.1742 101.19Z" fill="#F3D591"/>
<path d="M88.6355 99.3872C88.8879 99.3872 89.0944 99.592 89.0944 99.8456C89.0944 100.097 88.8885 100.303 88.6355 100.303C88.3825 100.303 88.1777 100.098 88.1777 99.8456C88.1777 99.592 88.3825 99.3872 88.6355 99.3872Z" fill="#F3D591"/>
<path d="M20.7234 222.385C20.977 222.385 21.1823 222.589 21.1823 222.843C21.1823 223.096 20.9775 223.3 20.7234 223.3C20.471 223.3 20.2656 223.096 20.2656 222.843C20.2656 222.589 20.471 222.385 20.7234 222.385Z" fill="#F3D591"/>
<path d="M45.6451 209.059C46.1205 209.059 46.5062 209.687 46.5062 210.461C46.5062 211.235 46.1205 211.864 45.6451 211.864C45.1698 211.864 44.7852 211.236 44.7852 210.461C44.7857 209.687 45.1703 209.059 45.6451 209.059Z" fill="#F3D591"/>
<path d="M38.6262 230.388C39.1004 230.388 39.4872 231.016 39.4872 231.792C39.4872 232.565 39.1004 233.193 38.6262 233.193C38.1508 233.193 37.7656 232.565 37.7656 231.792C37.7656 231.017 38.1508 230.388 38.6262 230.388Z" fill="#F3D591"/>
<path d="M50.9654 63.4395C51.4397 63.4395 51.8265 64.0668 51.8265 64.8423C51.8265 65.6166 51.4397 66.2451 50.9654 66.2451C50.4901 66.2451 50.1055 65.6172 50.1055 64.8423C50.106 64.0668 50.4901 63.4395 50.9654 63.4395Z" fill="#F3D591"/>
<path d="M80.1541 62.8433C80.6283 62.8433 81.0152 63.4712 81.0152 64.2461C81.0152 65.0198 80.6283 65.6483 80.1541 65.6483C79.6787 65.6483 79.293 65.0204 79.293 64.2461C79.2935 63.4712 79.6793 62.8433 80.1541 62.8433Z" fill="#F3D591"/>
<path d="M54.4625 40.4483C54.4403 40.922 53.7954 41.2788 53.0211 41.2425C52.249 41.2062 51.6381 40.7904 51.6608 40.3167C51.6829 39.8419 52.3301 39.4863 53.1022 39.5226C53.8765 39.5589 54.4857 39.9735 54.4625 40.4483Z" fill="#F3D591"/>
<path d="M39.3023 252.361C39.7045 252.361 40.0313 252.687 40.0313 253.09C40.0313 253.494 39.7045 253.82 39.3023 253.82C38.899 253.82 38.5723 253.494 38.5723 253.09C38.5723 252.687 38.899 252.361 39.3023 252.361Z" fill="#F3D591"/>
<path d="M1.30934 222.989C1.56177 222.989 1.76712 223.195 1.76712 223.448C1.76712 223.701 1.56234 223.906 1.30934 223.906C1.05634 223.906 0.851562 223.701 0.851562 223.448C0.851562 223.195 1.05691 222.989 1.30934 222.989Z" fill="#F3D591"/>
<path d="M11.9019 196.965C12.3041 196.965 12.632 197.291 12.632 197.695C12.632 198.098 12.3041 198.424 11.9019 198.424C11.4986 198.424 11.1719 198.098 11.1719 197.695C11.1719 197.291 11.4986 196.965 11.9019 196.965Z" fill="#F3D591"/>
<path d="M13.3621 195.162C13.6145 195.162 13.821 195.367 13.821 195.62C13.821 195.872 13.6151 196.078 13.3621 196.078C13.1096 196.078 12.9043 195.872 12.9043 195.62C12.9049 195.367 13.1096 195.162 13.3621 195.162Z" fill="#F3D591"/>
<path d="M3.06664 19.0235C3.04793 19.4251 2.70644 19.7371 2.30312 19.7184C1.8998 19.6997 1.58951 19.3565 1.60823 18.9549C1.62695 18.5521 1.96843 18.2419 2.37175 18.2606C2.77507 18.2793 3.08536 18.6208 3.06664 19.0235Z" fill="#F3D591"/>
<path d="M4.79879 20.5672C4.78688 20.8196 4.57189 21.0153 4.32003 21.0034C4.0676 20.9915 3.87246 20.7771 3.88324 20.5241C3.89515 20.2716 4.11014 20.0765 4.36314 20.0884C4.61443 20.1003 4.8107 20.3147 4.79879 20.5672Z" fill="#F3D591"/>
<path d="M46.0719 98.1738C46.4752 98.1738 46.8019 98.4994 46.8019 98.9039C46.8019 99.3066 46.4752 99.6334 46.0719 99.6334C45.6685 99.6334 45.3418 99.3066 45.3418 98.9039C45.3418 98.4994 45.6685 98.1738 46.0719 98.1738Z" fill="#F3D591"/>
<path d="M47.532 96.3711C47.7856 96.3711 47.9909 96.5759 47.9909 96.8289C47.9909 97.0807 47.7861 97.2866 47.532 97.2866C47.2796 97.2866 47.0742 97.0813 47.0742 96.8289C47.0742 96.5764 47.279 96.3711 47.532 96.3711Z" fill="#F3D591"/>
<path d="M28.5531 95.8633C28.9553 95.8633 29.2832 96.1889 29.2832 96.5928C29.2832 96.9961 28.9553 97.3228 28.5531 97.3228C28.1498 97.3228 27.8242 96.9961 27.8242 96.5928C27.8237 96.1889 28.1498 95.8633 28.5531 95.8633Z" fill="#F3D591"/>
<path d="M30.0103 94.0593C30.2627 94.0593 30.4692 94.2647 30.4692 94.5177C30.4692 94.7695 30.2633 94.976 30.0103 94.976C29.7578 94.976 29.5525 94.7701 29.5525 94.5177C29.5525 94.2647 29.7578 94.0593 30.0103 94.0593Z" fill="#F3D591"/>
<path d="M32.3101 231.362C32.7123 231.362 33.0402 231.687 33.0402 232.092C33.0402 232.494 32.7123 232.821 32.3101 232.821C31.9068 232.821 31.5801 232.494 31.5801 232.092C31.5801 231.687 31.9068 231.362 32.3101 231.362Z" fill="#F3D591"/>
<path d="M33.7703 229.558C34.0227 229.558 34.2281 229.763 34.2281 230.016C34.2281 230.268 34.0233 230.474 33.7703 230.474C33.5179 230.474 33.3125 230.268 33.3125 230.016C33.3125 229.764 33.5179 229.558 33.7703 229.558Z" fill="#F3D591"/>
<path d="M68.5063 230.308C68.9096 230.308 69.2363 230.634 69.2363 231.038C69.2363 231.441 68.9096 231.768 68.5063 231.768C68.1041 231.768 67.7773 231.441 67.7773 231.038C67.7773 230.634 68.1041 230.308 68.5063 230.308Z" fill="#F3D591"/>
<path d="M69.9675 228.505C70.22 228.505 70.4253 228.71 70.4253 228.963C70.4253 229.215 70.2205 229.421 69.9675 229.421C69.714 229.421 69.5098 229.216 69.5098 228.963C69.5103 228.71 69.714 228.505 69.9675 228.505Z" fill="#F3D591"/>
<path d="M78.3676 134.849C78.7698 134.849 79.0977 135.175 79.0977 135.579C79.0977 135.983 78.7698 136.309 78.3676 136.309C77.9643 136.309 77.6387 135.983 77.6387 135.579C77.6387 135.175 77.9643 134.849 78.3676 134.849Z" fill="#F3D591"/>
<path d="M79.8289 133.047C80.0813 133.047 80.2878 133.252 80.2878 133.505C80.2878 133.758 80.0819 133.963 79.8289 133.963C79.5764 133.963 79.3711 133.758 79.3711 133.505C79.3711 133.252 79.5764 133.047 79.8289 133.047Z" fill="#F3D591"/>
<path d="M22.641 60.5488C23.0444 60.5488 23.3711 60.8744 23.3711 61.2789C23.3711 61.6816 23.0444 62.0078 22.641 62.0078C22.2377 62.0078 21.9121 61.6816 21.9121 61.2789C21.9121 60.8744 22.2377 60.5488 22.641 60.5488Z" fill="#F3D591"/>
<path d="M24.1023 58.7446C24.3547 58.7446 24.5612 58.95 24.5612 59.203C24.5612 59.4548 24.3553 59.6608 24.1023 59.6608C23.8499 59.6608 23.6445 59.4554 23.6445 59.203C23.6445 58.9505 23.8499 58.7446 24.1023 58.7446Z" fill="#F3D591"/>
<path d="M18.0445 264.427C18.4467 264.427 18.7746 264.753 18.7746 265.157C18.7746 265.56 18.4467 265.886 18.0445 265.886C17.6412 265.886 17.3145 265.56 17.3145 265.157C17.3145 264.753 17.6412 264.427 18.0445 264.427Z" fill="#F3D591"/>
<path d="M19.5066 262.624C19.759 262.624 19.9655 262.828 19.9655 263.082C19.9655 263.334 19.7596 263.54 19.5066 263.54C19.2542 263.54 19.0488 263.334 19.0488 263.082C19.0494 262.829 19.2542 262.624 19.5066 262.624Z" fill="#F3D591"/>
<path d="M48.1777 20.1433C48.159 20.5466 47.8175 20.8581 47.4142 20.8393C47.0109 20.8201 46.7006 20.478 46.7193 20.0747C46.738 19.6731 47.0795 19.3622 47.4828 19.3809C47.8867 19.4002 48.1964 19.7417 48.1777 20.1433Z" fill="#F3D591"/>
<path d="M49.909 21.6883C49.8976 21.9407 49.6832 22.1353 49.4302 22.1239C49.1789 22.112 48.9838 21.8976 48.9946 21.6452C49.0065 21.3922 49.2203 21.1976 49.4733 21.2095C49.7263 21.2214 49.9209 21.4353 49.909 21.6883Z" fill="#F3D591"/>
<path d="M3.16578 76.2471C3.64001 76.2471 4.02688 76.8745 4.02688 77.6499C4.02688 78.4242 3.64001 79.0516 3.16578 79.0516C2.68929 79.0516 2.30469 78.4248 2.30469 77.6499C2.30469 76.8745 2.68929 76.2471 3.16578 76.2471Z" fill="#F3D591"/>
<path d="M39.4984 149.214C39.9738 149.214 40.3606 149.842 40.3606 150.617C40.3606 151.391 39.9738 152.019 39.4984 152.019C39.0242 152.019 38.6384 151.391 38.6384 150.617C38.639 149.842 39.0247 149.214 39.4984 149.214Z" fill="#F3D591"/>
<path d="M19.7146 154.146C20.1888 154.146 20.5757 154.774 20.5757 155.549C20.5757 156.323 20.1888 156.952 19.7146 156.952C19.2393 156.952 18.8535 156.324 18.8535 155.549C18.8535 154.774 19.2393 154.146 19.7146 154.146Z" fill="#F3D591"/>
<path d="M43.691 41.2813C43.6688 41.755 43.0227 42.1118 42.2496 42.0755C41.4764 42.0392 40.8666 41.6234 40.8893 41.1497C40.9114 40.6749 41.5575 40.3193 42.3307 40.3556C43.1039 40.3919 43.7131 40.8065 43.691 41.2813Z" fill="#F3D591"/>
</g>
<g opacity="0.5">
<path d="M461.385 94.0387C461.385 95.644 460.083 96.9465 458.476 96.9465C456.872 96.9465 455.57 95.644 455.57 94.0387C455.57 92.4328 456.872 91.1304 458.476 91.1304C460.083 91.1304 461.385 92.4328 461.385 94.0387Z" fill="#F3D591"/>
<path d="M452.014 1.9038C452.014 2.67698 451.387 3.30493 450.612 3.30493C449.836 3.30493 449.209 2.67698 449.209 1.9038C449.209 1.12893 449.836 0.500977 450.612 0.500977C451.386 0.50041 452.014 1.12893 452.014 1.9038Z" fill="#F3D591"/>
<path d="M429.905 24.8891C429.905 25.293 429.578 25.6186 429.176 25.6186C428.772 25.6186 428.445 25.293 428.445 24.8891C428.445 24.4863 428.772 24.1584 429.176 24.1584C429.578 24.1584 429.905 24.4858 429.905 24.8891Z" fill="#F3D591"/>
<path d="M440.411 40.7038C440.411 41.1066 440.085 41.4339 439.681 41.4339C439.278 41.4339 438.951 41.1066 438.951 40.7038C438.951 40.3 439.278 39.9727 439.681 39.9727C440.084 39.9727 440.411 40.3 440.411 40.7038Z" fill="#F3D591"/>
<path d="M511.521 43.6101C511.521 44.0129 511.193 44.3402 510.791 44.3402C510.386 44.3402 510.061 44.0129 510.061 43.6101C510.061 43.2068 510.386 42.8789 510.791 42.8789C511.193 42.8789 511.521 43.2068 511.521 43.6101Z" fill="#F3D591"/>
<path d="M504.153 19.3659C504.153 19.7686 503.825 20.0959 503.421 20.0959C503.019 20.0959 502.691 19.7686 502.691 19.3659C502.691 18.9631 503.019 18.6353 503.421 18.6353C503.825 18.6353 504.153 18.9631 504.153 19.3659Z" fill="#F3D591"/>
<path d="M402.319 127.878C402.319 128.28 401.993 128.608 401.589 128.608C401.186 128.608 400.859 128.28 400.859 127.878C400.859 127.475 401.186 127.147 401.589 127.147C401.993 127.147 402.319 127.474 402.319 127.878Z" fill="#F3D591"/>
<path d="M450.042 129.642C450.042 130.243 449.553 130.733 448.95 130.733C448.35 130.733 447.861 130.243 447.861 129.642C447.861 129.041 448.35 128.552 448.95 128.552C449.553 128.552 450.042 129.041 450.042 129.642Z" fill="#F3D591"/>
<path d="M459.614 33.4395C459.614 33.8434 459.288 34.1707 458.884 34.1707C458.48 34.1707 458.154 33.8434 458.154 33.4395C458.154 33.0368 458.48 32.7095 458.884 32.7095C459.288 32.7095 459.614 33.0362 459.614 33.4395Z" fill="#F3D591"/>
<path d="M500.696 108.071C500.696 108.474 500.371 108.802 499.966 108.802C499.563 108.802 499.236 108.474 499.236 108.071C499.236 107.669 499.563 107.341 499.966 107.341C500.371 107.341 500.696 107.669 500.696 108.071Z" fill="#F3D591"/>
<path d="M405.538 5.4375C405.538 5.84196 405.212 6.16926 404.808 6.16926C404.405 6.16926 404.078 5.84196 404.078 5.4375C404.078 5.03475 404.405 4.70801 404.808 4.70801C405.212 4.70801 405.538 5.03475 405.538 5.4375Z" fill="#F3D591"/>
<path d="M431.709 26.3495C431.709 26.603 431.504 26.8061 431.251 26.8061C430.998 26.8061 430.793 26.603 430.793 26.3495C430.793 26.0965 430.998 25.8911 431.251 25.8911C431.504 25.8917 431.709 26.097 431.709 26.3495Z" fill="#F3D591"/>
<path d="M455.524 64.0861C455.524 64.9075 454.858 65.5735 454.037 65.5735C453.213 65.5735 452.547 64.9075 452.547 64.0861C452.547 63.2619 453.213 62.5977 454.037 62.5977C454.858 62.5977 455.524 63.2625 455.524 64.0861Z" fill="#F3D591"/>
<path d="M508.196 48.4191C508.196 48.823 507.869 49.1492 507.464 49.1492C507.061 49.1492 506.734 48.823 506.734 48.4191C506.734 48.0164 507.061 47.6885 507.464 47.6885C507.868 47.6879 508.196 48.0158 508.196 48.4191Z" fill="#F3D591"/>
<path d="M459.201 67.0641C459.201 67.5797 458.782 67.9978 458.267 67.9978C457.752 67.9978 457.334 67.5797 457.334 67.0641C457.334 66.5473 457.751 66.1304 458.267 66.1304C458.783 66.1304 459.201 66.5479 459.201 67.0641Z" fill="#F3D591"/>
<path d="M399.058 110.312C399.058 110.715 398.731 111.042 398.328 111.042C397.924 111.042 397.598 110.715 397.598 110.312C397.598 109.908 397.924 109.582 398.328 109.582C398.731 109.582 399.058 109.908 399.058 110.312Z" fill="#F3D591"/>
<path d="M400.861 111.773C400.861 112.024 400.656 112.23 400.403 112.23C400.15 112.23 399.945 112.024 399.945 111.773C399.945 111.519 400.15 111.315 400.403 111.315C400.656 111.315 400.861 111.519 400.861 111.773Z" fill="#F3D591"/>
<path d="M498.162 127.148C498.162 127.551 497.836 127.878 497.432 127.878C497.029 127.878 496.703 127.551 496.703 127.148C496.703 126.745 497.029 126.418 497.432 126.418C497.836 126.418 498.162 126.745 498.162 127.148Z" fill="#F3D591"/>
<path d="M499.967 128.608C499.967 128.861 499.763 129.066 499.509 129.066C499.257 129.066 499.051 128.861 499.051 128.608C499.051 128.355 499.257 128.15 499.509 128.15C499.762 128.15 499.967 128.355 499.967 128.608Z" fill="#F3D591"/>
<path d="M404.535 9.89479C404.535 10.1478 404.331 10.3526 404.077 10.3526C403.824 10.3526 403.619 10.1478 403.619 9.89479C403.619 9.64179 403.824 9.43701 404.077 9.43701C404.331 9.43758 404.535 9.64179 404.535 9.89479Z" fill="#F3D591"/>
<path d="M390.296 85.6174C390.296 86.0922 389.668 86.4785 388.893 86.4785C388.119 86.4785 387.49 86.0922 387.49 85.6174C387.49 85.142 388.118 84.7568 388.893 84.7568C389.667 84.7568 390.296 85.142 390.296 85.6174Z" fill="#F3D591"/>
<path d="M396.531 27.801C396.531 28.2752 395.903 28.6621 395.128 28.6621C394.355 28.6621 393.727 28.2752 393.727 27.801C393.727 27.3256 394.355 26.9404 395.128 26.9404C395.903 26.9404 396.531 27.3262 396.531 27.801Z" fill="#F3D591"/>
<path d="M535.915 90.9406C535.915 91.4143 535.287 91.8017 534.512 91.8017C533.738 91.8017 533.109 91.4148 533.109 90.9406C533.109 90.4652 533.737 90.0801 534.512 90.0801C535.287 90.0801 535.915 90.4652 535.915 90.9406Z" fill="#F3D591"/>
<path d="M536.51 120.127C536.51 120.601 535.882 120.988 535.107 120.988C534.334 120.988 533.705 120.601 533.705 120.127C533.705 119.652 534.333 119.266 535.107 119.266C535.881 119.266 536.51 119.651 536.51 120.127Z" fill="#F3D591"/>
<path d="M543.657 23.0358C543.657 23.5095 543.029 23.8964 542.254 23.8964C541.48 23.8964 540.852 23.5095 540.852 23.0358C540.852 22.5605 541.48 22.1753 542.254 22.1753C543.029 22.1753 543.657 22.5605 543.657 23.0358Z" fill="#F3D591"/>
<path d="M374.561 28.4746C374.561 28.8774 374.235 29.2047 373.832 29.2047C373.428 29.2047 373.102 28.8774 373.102 28.4746C373.102 28.0719 373.428 27.7451 373.832 27.7451C374.234 27.7451 374.561 28.0713 374.561 28.4746Z" fill="#F3D591"/>
<path d="M376.364 29.9356C376.364 30.188 376.159 30.3933 375.906 30.3933C375.654 30.3933 375.447 30.188 375.447 29.9356C375.447 29.6826 375.653 29.4778 375.906 29.4778C376.159 29.4778 376.364 29.6826 376.364 29.9356Z" fill="#F3D591"/>
<path d="M429.957 1.07471C429.957 1.47746 429.631 1.80477 429.228 1.80477C428.825 1.80477 428.498 1.47746 428.498 1.07471C428.498 0.671388 428.825 0.345215 429.228 0.345215C429.631 0.345215 429.957 0.671388 429.957 1.07471Z" fill="#F3D591"/>
<path d="M431.758 2.53541C431.758 2.78784 431.554 2.99376 431.301 2.99376C431.048 2.99376 430.842 2.78841 430.842 2.53541C430.842 2.28242 431.048 2.07764 431.301 2.07764C431.553 2.0782 431.758 2.28298 431.758 2.53541Z" fill="#F3D591"/>
<path d="M491.309 4.05274C491.309 4.45549 490.983 4.78336 490.579 4.78336C490.175 4.78336 489.85 4.45549 489.85 4.05274C489.85 3.64998 490.175 3.32324 490.579 3.32324C490.983 3.32324 491.309 3.64998 491.309 4.05274Z" fill="#F3D591"/>
<path d="M493.112 5.51287C493.112 5.76587 492.906 5.97122 492.654 5.97122C492.402 5.97122 492.195 5.76644 492.195 5.51287C492.195 5.26044 492.401 5.05566 492.654 5.05566C492.906 5.05566 493.112 5.26044 493.112 5.51287Z" fill="#F3D591"/>
<path d="M501.18 86.0459C501.18 86.4487 500.854 86.776 500.45 86.776C500.047 86.776 499.721 86.4492 499.721 86.0459C499.721 85.6431 500.047 85.3164 500.45 85.3164C500.854 85.3158 501.18 85.6431 501.18 86.0459Z" fill="#F3D591"/>
<path d="M502.982 87.506C502.982 87.759 502.777 87.9644 502.524 87.9644C502.272 87.9644 502.066 87.759 502.066 87.506C502.066 87.2536 502.271 87.0488 502.524 87.0488C502.777 87.0488 502.982 87.2536 502.982 87.506Z" fill="#F3D591"/>
<path d="M503.49 68.5254C503.49 68.9281 503.165 69.2555 502.761 69.2555C502.358 69.2555 502.031 68.9281 502.031 68.5254C502.031 68.1221 502.358 67.7959 502.761 67.7959C503.165 67.7959 503.49 68.1226 503.49 68.5254Z" fill="#F3D591"/>
<path d="M505.294 69.9861C505.294 70.2385 505.089 70.4439 504.836 70.4439C504.583 70.4439 504.377 70.2385 504.377 69.9861C504.377 69.7331 504.583 69.5283 504.836 69.5283C505.089 69.5283 505.294 69.7331 505.294 69.9861Z" fill="#F3D591"/>
<path d="M367.992 72.2822C367.992 72.685 367.667 73.0123 367.262 73.0123C366.86 73.0123 366.533 72.685 366.533 72.2822C366.533 71.8795 366.86 71.5527 367.262 71.5527C367.666 71.5533 367.992 71.8795 367.992 72.2822Z" fill="#F3D591"/>
<path d="M369.797 73.7439C369.797 73.9963 369.591 74.2017 369.338 74.2017C369.087 74.2017 368.881 73.9963 368.881 73.7439C368.881 73.4909 369.087 73.2861 369.338 73.2861C369.591 73.2861 369.797 73.4903 369.797 73.7439Z" fill="#F3D591"/>
<path d="M369.046 108.479C369.046 108.882 368.72 109.209 368.316 109.209C367.913 109.209 367.586 108.881 367.586 108.479C367.586 108.076 367.913 107.75 368.316 107.75C368.72 107.75 369.046 108.076 369.046 108.479Z" fill="#F3D591"/>
<path d="M370.849 109.941C370.849 110.193 370.644 110.398 370.391 110.398C370.139 110.398 369.934 110.193 369.934 109.941C369.934 109.688 370.138 109.483 370.391 109.483C370.644 109.483 370.849 109.687 370.849 109.941Z" fill="#F3D591"/>
<path d="M464.505 118.34C464.505 118.742 464.179 119.07 463.775 119.07C463.372 119.07 463.045 118.742 463.045 118.34C463.045 117.937 463.372 117.61 463.775 117.61C464.179 117.61 464.505 117.937 464.505 118.34Z" fill="#F3D591"/>
<path d="M466.308 119.8C466.308 120.052 466.103 120.258 465.85 120.258C465.598 120.258 465.393 120.052 465.393 119.8C465.393 119.547 465.597 119.342 465.85 119.342C466.103 119.343 466.308 119.548 466.308 119.8Z" fill="#F3D591"/>
<path d="M538.805 62.6152C538.805 63.018 538.479 63.3453 538.075 63.3453C537.671 63.3453 537.346 63.018 537.346 62.6152C537.346 62.2125 537.671 61.8857 538.075 61.8857C538.479 61.8852 538.805 62.2119 538.805 62.6152Z" fill="#F3D591"/>
<path d="M540.61 64.075C540.61 64.3274 540.404 64.5327 540.151 64.5327C539.9 64.5327 539.694 64.3274 539.694 64.075C539.694 63.822 539.9 63.6172 540.151 63.6172C540.404 63.6172 540.61 63.822 540.61 64.075Z" fill="#F3D591"/>
<path d="M362.494 7.21948C362.494 7.62224 362.169 7.94954 361.764 7.94954C361.361 7.94954 361.035 7.62224 361.035 7.21948C361.035 6.81673 361.361 6.48999 361.764 6.48999C362.169 6.48999 362.494 6.81673 362.494 7.21948Z" fill="#F3D591"/>
<path d="M364.298 8.67938C364.298 8.93237 364.093 9.13772 363.839 9.13772C363.587 9.13772 363.381 8.93237 363.381 8.67938C363.381 8.42695 363.587 8.22217 363.839 8.22217C364.093 8.22217 364.298 8.42695 364.298 8.67938Z" fill="#F3D591"/>
<path d="M536.425 3.04932C536.425 3.45207 536.099 3.77994 535.695 3.77994C535.292 3.77994 534.965 3.45264 534.965 3.04932C534.965 2.64656 535.292 2.31982 535.695 2.31982C536.099 2.31982 536.425 2.64656 536.425 3.04932Z" fill="#F3D591"/>
<path d="M538.228 4.51051C538.228 4.76294 538.023 4.96829 537.77 4.96829C537.518 4.96829 537.312 4.76294 537.312 4.51051C537.312 4.25751 537.517 4.05273 537.77 4.05273C538.023 4.05273 538.228 4.25751 538.228 4.51051Z" fill="#F3D591"/>
<path d="M523.109 43.1376C523.109 43.6124 522.481 43.9987 521.706 43.9987C520.932 43.9987 520.304 43.6124 520.304 43.1376C520.304 42.6623 520.931 42.2771 521.706 42.2771C522.48 42.2771 523.109 42.6617 523.109 43.1376Z" fill="#F3D591"/>
<path d="M450.142 79.4716C450.142 79.9464 449.514 80.3327 448.738 80.3327C447.964 80.3327 447.336 79.9464 447.336 79.4716C447.336 78.9968 447.964 78.6111 448.738 78.6111C449.514 78.6111 450.142 78.9963 450.142 79.4716Z" fill="#F3D591"/>
<path d="M472.773 8.88795C472.773 9.36218 472.145 9.74848 471.37 9.74848C470.597 9.74848 469.969 9.36218 469.969 8.88795C469.969 8.41259 470.597 8.02686 471.37 8.02686C472.145 8.02686 472.773 8.41202 472.773 8.88795Z" fill="#F3D591"/>
<path d="M532.935 24.3742C532.935 24.8484 532.309 25.2353 531.534 25.2353C530.759 25.2353 530.131 24.849 530.131 24.3742C530.131 23.8988 530.759 23.5137 531.534 23.5137C532.308 23.5137 532.935 23.8994 532.935 24.3742Z" fill="#F3D591"/>
<path d="M445.539 178.307C445.539 176.701 446.841 175.399 448.447 175.399C450.052 175.399 451.353 176.701 451.353 178.307C451.353 179.913 450.052 181.215 448.447 181.215C446.841 181.215 445.539 179.913 445.539 178.307Z" fill="#F3D591"/>
<path d="M454.912 270.442C454.912 269.668 455.539 269.041 456.314 269.041C457.089 269.041 457.717 269.668 457.717 270.442C457.717 271.217 457.09 271.845 456.314 271.845C455.54 271.844 454.912 271.217 454.912 270.442Z" fill="#F3D591"/>
<path d="M477.02 247.457C477.02 247.052 477.346 246.727 477.748 246.727C478.153 246.727 478.48 247.052 478.48 247.457C478.48 247.859 478.153 248.187 477.748 248.187C477.346 248.187 477.02 247.859 477.02 247.457Z" fill="#F3D591"/>
<path d="M466.511 231.641C466.511 231.238 466.838 230.911 467.242 230.911C467.645 230.911 467.972 231.238 467.972 231.641C467.972 232.045 467.645 232.372 467.242 232.372C466.838 232.372 466.511 232.045 466.511 231.641Z" fill="#F3D591"/>
<path d="M395.406 228.736C395.406 228.333 395.734 228.006 396.136 228.006C396.541 228.006 396.866 228.333 396.866 228.736C396.866 229.139 396.541 229.467 396.136 229.467C395.734 229.467 395.406 229.139 395.406 228.736Z" fill="#F3D591"/>
<path d="M402.771 252.979C402.771 252.575 403.099 252.249 403.503 252.249C403.905 252.249 404.233 252.575 404.233 252.979C404.233 253.381 403.905 253.709 403.503 253.709C403.099 253.709 402.771 253.381 402.771 252.979Z" fill="#F3D591"/>
<path d="M504.604 144.467C504.604 144.064 504.93 143.737 505.334 143.737C505.737 143.737 506.064 144.064 506.064 144.467C506.064 144.87 505.737 145.197 505.334 145.197C504.93 145.197 504.604 144.87 504.604 144.467Z" fill="#F3D591"/>
<path d="M456.883 142.703C456.883 142.102 457.371 141.612 457.974 141.612C458.575 141.612 459.063 142.101 459.063 142.703C459.063 143.304 458.575 143.793 457.974 143.793C457.371 143.793 456.883 143.304 456.883 142.703Z" fill="#F3D591"/>
<path d="M447.311 238.905C447.311 238.501 447.637 238.174 448.041 238.174C448.445 238.174 448.771 238.501 448.771 238.905C448.771 239.309 448.445 239.635 448.041 239.635C447.637 239.635 447.311 239.309 447.311 238.905Z" fill="#F3D591"/>
<path d="M406.227 164.274C406.227 163.871 406.552 163.543 406.957 163.543C407.36 163.543 407.687 163.871 407.687 164.274C407.687 164.676 407.36 165.004 406.957 165.004C406.552 165.005 406.227 164.676 406.227 164.274Z" fill="#F3D591"/>
<path d="M501.385 266.908C501.385 266.504 501.711 266.177 502.115 266.177C502.518 266.177 502.845 266.504 502.845 266.908C502.845 267.312 502.518 267.638 502.115 267.638C501.711 267.638 501.385 267.312 501.385 266.908Z" fill="#F3D591"/>
<path d="M475.215 245.996C475.215 245.743 475.42 245.539 475.673 245.539C475.925 245.539 476.13 245.742 476.13 245.996C476.13 246.249 475.926 246.454 475.673 246.454C475.42 246.454 475.215 246.249 475.215 245.996Z" fill="#F3D591"/>
<path d="M451.4 208.259C451.4 207.438 452.066 206.771 452.887 206.771C453.711 206.771 454.377 207.438 454.377 208.259C454.377 209.083 453.711 209.747 452.887 209.747C452.066 209.747 451.4 209.083 451.4 208.259Z" fill="#F3D591"/>
<path d="M398.727 223.927C398.727 223.523 399.053 223.197 399.458 223.197C399.861 223.197 400.188 223.523 400.188 223.927C400.188 224.33 399.861 224.657 399.458 224.657C399.053 224.657 398.727 224.329 398.727 223.927Z" fill="#F3D591"/>
<path d="M447.723 205.281C447.723 204.765 448.141 204.347 448.657 204.347C449.173 204.347 449.59 204.765 449.59 205.281C449.59 205.797 449.173 206.214 448.657 206.214C448.141 206.214 447.723 205.798 447.723 205.281Z" fill="#F3D591"/>
<path d="M507.867 162.033C507.867 161.63 508.194 161.304 508.597 161.304C509.001 161.304 509.327 161.63 509.327 162.033C509.327 162.437 509.001 162.763 508.597 162.763C508.194 162.763 507.867 162.437 507.867 162.033Z" fill="#F3D591"/>
<path d="M506.064 160.573C506.064 160.321 506.269 160.114 506.522 160.114C506.775 160.114 506.98 160.321 506.98 160.573C506.98 160.826 506.775 161.03 506.522 161.03C506.269 161.03 506.064 160.826 506.064 160.573Z" fill="#F3D591"/>
<path d="M408.76 145.197C408.76 144.795 409.085 144.467 409.49 144.467C409.893 144.467 410.219 144.795 410.219 145.197C410.219 145.6 409.893 145.927 409.49 145.927C409.085 145.927 408.76 145.601 408.76 145.197Z" fill="#F3D591"/>
<path d="M406.957 143.737C406.957 143.484 407.162 143.279 407.416 143.279C407.667 143.279 407.873 143.484 407.873 143.737C407.873 143.99 407.668 144.195 407.416 144.195C407.162 144.195 406.957 143.99 406.957 143.737Z" fill="#F3D591"/>
<path d="M502.387 262.45C502.387 262.198 502.59 261.992 502.844 261.992C503.097 261.992 503.302 262.197 503.302 262.45C503.302 262.703 503.097 262.908 502.844 262.908C502.59 262.907 502.387 262.703 502.387 262.45Z" fill="#F3D591"/>
<path d="M516.627 186.727C516.627 186.253 517.255 185.866 518.03 185.866C518.804 185.866 519.433 186.253 519.433 186.727C519.433 187.203 518.804 187.588 518.03 187.588C517.255 187.588 516.627 187.203 516.627 186.727Z" fill="#F3D591"/>
<path d="M510.391 244.544C510.391 244.069 511.019 243.683 511.793 243.683C512.567 243.683 513.195 244.069 513.195 244.544C513.195 245.019 512.567 245.405 511.793 245.405C511.019 245.405 510.391 245.019 510.391 244.544Z" fill="#F3D591"/>
<path d="M371.008 181.406C371.008 180.931 371.636 180.544 372.411 180.544C373.185 180.544 373.813 180.931 373.813 181.406C373.813 181.881 373.186 182.266 372.411 182.266C371.636 182.265 371.008 181.881 371.008 181.406Z" fill="#F3D591"/>
<path d="M370.414 152.219C370.414 151.744 371.042 151.357 371.817 151.357C372.59 151.357 373.219 151.744 373.219 152.219C373.219 152.693 372.591 153.08 371.817 153.08C371.043 153.08 370.414 152.693 370.414 152.219Z" fill="#F3D591"/>
<path d="M363.266 249.309C363.266 248.835 363.894 248.448 364.668 248.448C365.443 248.448 366.071 248.835 366.071 249.309C366.071 249.784 365.443 250.17 364.668 250.17C363.894 250.169 363.266 249.784 363.266 249.309Z" fill="#F3D591"/>
<path d="M532.363 243.871C532.363 243.468 532.689 243.141 533.092 243.141C533.496 243.141 533.822 243.468 533.822 243.871C533.822 244.274 533.496 244.6 533.092 244.6C532.689 244.6 532.363 244.274 532.363 243.871Z" fill="#F3D591"/>
<path d="M530.559 242.41C530.559 242.158 530.763 241.952 531.016 241.952C531.269 241.952 531.475 242.157 531.475 242.41C531.475 242.663 531.269 242.869 531.016 242.869C530.763 242.868 530.559 242.663 530.559 242.41Z" fill="#F3D591"/>
<path d="M476.967 271.271C476.967 270.868 477.292 270.541 477.696 270.541C478.099 270.541 478.426 270.868 478.426 271.271C478.426 271.673 478.099 272 477.696 272C477.292 272.001 476.967 271.674 476.967 271.271Z" fill="#F3D591"/>
<path d="M475.166 269.809C475.166 269.557 475.371 269.352 475.624 269.352C475.876 269.352 476.083 269.556 476.083 269.809C476.083 270.062 475.877 270.267 475.624 270.267C475.371 270.267 475.166 270.063 475.166 269.809Z" fill="#F3D591"/>
<path d="M415.617 268.293C415.617 267.89 415.943 267.562 416.347 267.562C416.751 267.562 417.076 267.89 417.076 268.293C417.076 268.695 416.751 269.022 416.347 269.022C415.943 269.023 415.617 268.696 415.617 268.293Z" fill="#F3D591"/>
<path d="M413.814 266.832C413.814 266.579 414.02 266.374 414.272 266.374C414.525 266.374 414.731 266.579 414.731 266.832C414.731 267.084 414.525 267.29 414.272 267.29C414.02 267.29 413.814 267.085 413.814 266.832Z" fill="#F3D591"/>
<path d="M405.744 186.299C405.744 185.896 406.07 185.569 406.474 185.569C406.876 185.569 407.203 185.896 407.203 186.299C407.203 186.702 406.876 187.028 406.474 187.028C406.07 187.029 405.744 186.702 405.744 186.299Z" fill="#F3D591"/>
<path d="M403.941 184.838C403.941 184.586 404.146 184.38 404.399 184.38C404.652 184.38 404.857 184.585 404.857 184.838C404.857 185.091 404.652 185.296 404.399 185.296C404.146 185.296 403.941 185.091 403.941 184.838Z" fill="#F3D591"/>
<path d="M403.434 203.82C403.434 203.418 403.759 203.09 404.163 203.09C404.566 203.09 404.893 203.418 404.893 203.82C404.893 204.223 404.566 204.55 404.163 204.55C403.759 204.55 403.434 204.223 403.434 203.82Z" fill="#F3D591"/>
<path d="M401.629 202.359C401.629 202.107 401.834 201.902 402.087 201.902C402.34 201.902 402.546 202.106 402.546 202.359C402.546 202.612 402.34 202.817 402.087 202.817C401.834 202.817 401.629 202.612 401.629 202.359Z" fill="#F3D591"/>
<path d="M538.932 200.062C538.932 199.659 539.257 199.332 539.662 199.332C540.064 199.332 540.391 199.659 540.391 200.062C540.391 200.465 540.064 200.791 539.662 200.791C539.258 200.791 538.932 200.465 538.932 200.062Z" fill="#F3D591"/>
<path d="M537.129 198.601C537.129 198.349 537.335 198.144 537.588 198.144C537.839 198.144 538.046 198.349 538.046 198.601C538.046 198.855 537.84 199.06 537.588 199.06C537.335 199.06 537.129 198.855 537.129 198.601Z" fill="#F3D591"/>
<path d="M537.877 163.866C537.877 163.464 538.203 163.136 538.607 163.136C539.01 163.136 539.337 163.464 539.337 163.866C539.337 164.27 539.01 164.595 538.607 164.595C538.203 164.595 537.877 164.27 537.877 163.866Z" fill="#F3D591"/>
<path d="M536.074 162.405C536.074 162.153 536.279 161.947 536.532 161.947C536.785 161.947 536.99 162.153 536.99 162.405C536.99 162.658 536.785 162.863 536.532 162.863C536.279 162.863 536.074 162.658 536.074 162.405Z" fill="#F3D591"/>
<path d="M442.42 154.005C442.42 153.603 442.746 153.275 443.15 153.275C443.553 153.275 443.88 153.603 443.88 154.005C443.88 154.408 443.553 154.735 443.15 154.735C442.746 154.735 442.42 154.408 442.42 154.005Z" fill="#F3D591"/>
<path d="M440.617 152.545C440.617 152.293 440.822 152.087 441.075 152.087C441.327 152.087 441.533 152.292 441.533 152.545C441.533 152.798 441.328 153.003 441.075 153.003C440.822 153.002 440.617 152.798 440.617 152.545Z" fill="#F3D591"/>
<path d="M368.119 209.73C368.119 209.328 368.445 209.001 368.849 209.001C369.253 209.001 369.578 209.328 369.578 209.73C369.578 210.134 369.253 210.461 368.849 210.461C368.445 210.461 368.119 210.134 368.119 209.73Z" fill="#F3D591"/>
<path d="M366.314 208.27C366.314 208.018 366.52 207.812 366.773 207.812C367.024 207.812 367.231 208.017 367.231 208.27C367.231 208.523 367.025 208.728 366.773 208.728C366.52 208.728 366.314 208.523 366.314 208.27Z" fill="#F3D591"/>
<path d="M544.43 265.126C544.43 264.723 544.755 264.396 545.16 264.396C545.563 264.396 545.889 264.723 545.889 265.126C545.889 265.528 545.563 265.855 545.16 265.855C544.755 265.856 544.43 265.528 544.43 265.126Z" fill="#F3D591"/>
<path d="M542.625 263.665C542.625 263.413 542.83 263.208 543.084 263.208C543.335 263.208 543.542 263.412 543.542 263.665C543.542 263.918 543.336 264.123 543.084 264.123C542.83 264.123 542.625 263.918 542.625 263.665Z" fill="#F3D591"/>
<path d="M370.5 269.296C370.5 268.893 370.826 268.566 371.23 268.566C371.633 268.566 371.96 268.893 371.96 269.296C371.96 269.699 371.633 270.025 371.23 270.025C370.826 270.025 370.5 269.699 370.5 269.296Z" fill="#F3D591"/>
<path d="M368.695 267.834C368.695 267.582 368.9 267.376 369.153 267.376C369.406 267.376 369.611 267.581 369.611 267.834C369.611 268.088 369.406 268.293 369.153 268.293C368.9 268.292 368.695 268.088 368.695 267.834Z" fill="#F3D591"/>
<path d="M383.816 229.208C383.816 228.733 384.444 228.347 385.219 228.347C385.994 228.347 386.621 228.733 386.621 229.208C386.621 229.683 385.994 230.068 385.219 230.068C384.444 230.068 383.816 229.683 383.816 229.208Z" fill="#F3D591"/>
<path d="M456.781 192.873C456.781 192.398 457.409 192.012 458.185 192.012C458.958 192.012 459.587 192.398 459.587 192.873C459.587 193.348 458.959 193.733 458.185 193.733C457.409 193.733 456.781 193.348 456.781 192.873Z" fill="#F3D591"/>
<path d="M434.15 263.457C434.15 262.982 434.778 262.596 435.553 262.596C436.326 262.596 436.955 262.982 436.955 263.457C436.955 263.933 436.326 264.318 435.553 264.318C434.778 264.318 434.15 263.933 434.15 263.457Z" fill="#F3D591"/>
<path d="M373.99 247.97C373.99 247.496 374.617 247.109 375.392 247.109C376.166 247.109 376.795 247.496 376.795 247.97C376.795 248.445 376.167 248.831 375.392 248.831C374.617 248.831 373.99 248.445 373.99 247.97Z" fill="#F3D591"/>
<path d="M327.065 137.969C328.67 137.969 329.973 139.271 329.973 140.877C329.973 142.482 328.67 143.784 327.065 143.784C325.459 143.784 324.156 142.482 324.156 140.877C324.156 139.271 325.459 137.969 327.065 137.969Z" fill="#F3D591"/>
<path d="M285.731 174.909C286.504 174.909 287.133 175.536 287.133 176.311C287.133 177.086 286.505 177.714 285.731 177.714C284.957 177.714 284.328 177.086 284.328 176.311C284.328 175.537 284.957 174.909 285.731 174.909Z" fill="#F3D591"/>
<path d="M308.716 197.017C309.119 197.017 309.444 197.344 309.444 197.746C309.444 198.15 309.119 198.477 308.716 198.477C308.312 198.477 307.984 198.15 307.984 197.746C307.984 197.344 308.312 197.017 308.716 197.017Z" fill="#F3D591"/>
<path d="M273.731 158.944C274.133 158.944 274.461 159.27 274.461 159.674C274.461 160.076 274.133 160.403 273.731 160.403C273.327 160.403 273 160.076 273 159.674C273 159.27 273.327 158.944 273.731 158.944Z" fill="#F3D591"/>
<path d="M276.635 87.8345C277.038 87.8345 277.364 88.1623 277.364 88.5645C277.364 88.969 277.038 89.2946 276.635 89.2946C276.232 89.2946 275.904 88.969 275.904 88.5645C275.904 88.1629 276.232 87.8345 276.635 87.8345Z" fill="#F3D591"/>
<path d="M288.175 34.924C288.156 35.3268 287.813 35.6376 287.411 35.6189C287.008 35.6002 286.697 35.2581 286.716 34.8554C286.734 34.4532 287.077 34.1418 287.479 34.1605C287.881 34.1792 288.194 34.5218 288.175 34.924Z" fill="#F3D591"/>
<path d="M360.906 197.033C361.308 197.033 361.636 197.36 361.636 197.763C361.636 198.167 361.308 198.494 360.906 198.494C360.503 198.494 360.176 198.167 360.176 197.763C360.176 197.361 360.503 197.033 360.906 197.033Z" fill="#F3D591"/>
<path d="M362.669 149.312C363.271 149.312 363.761 149.799 363.761 150.402C363.761 151.004 363.271 151.492 362.669 151.492C362.068 151.492 361.58 151.004 361.58 150.402C361.58 149.8 362.068 149.312 362.669 149.312Z" fill="#F3D591"/>
<path d="M277.812 139.74C278.217 139.74 278.543 140.067 278.543 140.47C278.543 140.874 278.217 141.2 277.812 141.2C277.409 141.2 277.082 140.874 277.082 140.47C277.082 140.068 277.409 139.74 277.812 139.74Z" fill="#F3D591"/>
<path d="M341.099 98.6572C341.502 98.6572 341.829 98.9828 341.829 99.3873C341.829 99.79 341.502 100.117 341.099 100.117C340.696 100.117 340.367 99.79 340.367 99.3873C340.367 98.9828 340.696 98.6572 341.099 98.6572Z" fill="#F3D591"/>
<path d="M289.262 221.382C289.667 221.382 289.993 221.709 289.993 222.112C289.993 222.516 289.667 222.843 289.262 222.843C288.86 222.843 288.533 222.516 288.533 222.112C288.533 221.709 288.86 221.382 289.262 221.382Z" fill="#F3D591"/>
<path d="M310.176 195.214C310.429 195.214 310.632 195.419 310.632 195.672C310.632 195.925 310.43 196.129 310.176 196.129C309.923 196.129 309.717 195.925 309.717 195.672C309.717 195.419 309.923 195.214 310.176 195.214Z" fill="#F3D591"/>
<path d="M297.114 143.83C297.935 143.83 298.601 144.496 298.601 145.317C298.601 146.141 297.935 146.807 297.114 146.807C296.29 146.807 295.625 146.141 295.625 145.317C295.625 144.496 296.29 143.83 297.114 143.83Z" fill="#F3D591"/>
<path d="M281.446 91.1597C281.849 91.1597 282.176 91.4864 282.176 91.8903C282.176 92.2936 281.849 92.6209 281.446 92.6209C281.043 92.6209 280.715 92.2936 280.715 91.8903C280.715 91.4864 281.043 91.1597 281.446 91.1597Z" fill="#F3D591"/>
<path d="M300.092 140.153C300.607 140.153 301.025 140.571 301.025 141.087C301.025 141.602 300.608 142.02 300.092 142.02C299.575 142.02 299.158 141.603 299.158 141.087C299.158 140.571 299.575 140.153 300.092 140.153Z" fill="#F3D591"/>
<path d="M343.337 200.296C343.741 200.296 344.068 200.623 344.068 201.026C344.068 201.43 343.741 201.757 343.337 201.757C342.933 201.757 342.607 201.43 342.607 201.026C342.607 200.624 342.933 200.296 343.337 200.296Z" fill="#F3D591"/>
<path d="M344.801 198.494C345.051 198.494 345.258 198.699 345.258 198.952C345.258 199.204 345.051 199.409 344.801 199.409C344.547 199.409 344.342 199.205 344.342 198.952C344.342 198.699 344.547 198.494 344.801 198.494Z" fill="#F3D591"/>
<path d="M360.174 101.19C360.576 101.19 360.904 101.516 360.904 101.92C360.904 102.323 360.576 102.649 360.174 102.649C359.771 102.649 359.445 102.323 359.445 101.92C359.445 101.517 359.771 101.19 360.174 101.19Z" fill="#F3D591"/>
<path d="M361.636 99.3872C361.888 99.3872 362.094 99.592 362.094 99.8456C362.094 100.097 361.889 100.303 361.636 100.303C361.383 100.303 361.178 100.098 361.178 99.8456C361.178 99.592 361.383 99.3872 361.636 99.3872Z" fill="#F3D591"/>
<path d="M293.723 222.385C293.977 222.385 294.182 222.589 294.182 222.843C294.182 223.096 293.978 223.3 293.723 223.3C293.471 223.3 293.266 223.096 293.266 222.843C293.266 222.589 293.471 222.385 293.723 222.385Z" fill="#F3D591"/>
<path d="M318.645 209.059C319.12 209.059 319.506 209.687 319.506 210.461C319.506 211.235 319.12 211.864 318.645 211.864C318.17 211.864 317.785 211.236 317.785 210.461C317.786 209.687 318.17 209.059 318.645 209.059Z" fill="#F3D591"/>
<path d="M311.626 230.388C312.1 230.388 312.487 231.016 312.487 231.792C312.487 232.565 312.1 233.193 311.626 233.193C311.151 233.193 310.766 232.565 310.766 231.792C310.766 231.017 311.151 230.388 311.626 230.388Z" fill="#F3D591"/>
<path d="M323.965 63.4395C324.44 63.4395 324.827 64.0668 324.827 64.8423C324.827 65.6166 324.44 66.2451 323.965 66.2451C323.49 66.2451 323.105 65.6172 323.105 64.8423C323.106 64.0668 323.49 63.4395 323.965 63.4395Z" fill="#F3D591"/>
<path d="M353.154 62.8433C353.628 62.8433 354.015 63.4712 354.015 64.2461C354.015 65.0198 353.628 65.6483 353.154 65.6483C352.679 65.6483 352.293 65.0204 352.293 64.2461C352.294 63.4712 352.679 62.8433 353.154 62.8433Z" fill="#F3D591"/>
<path d="M327.462 40.4483C327.44 40.922 326.795 41.2788 326.021 41.2425C325.249 41.2062 324.638 40.7904 324.661 40.3167C324.683 39.8419 325.33 39.4863 326.102 39.5226C326.876 39.5589 327.486 39.9735 327.462 40.4483Z" fill="#F3D591"/>
<path d="M312.302 252.361C312.705 252.361 313.031 252.687 313.031 253.09C313.031 253.494 312.705 253.82 312.302 253.82C311.899 253.82 311.572 253.494 311.572 253.09C311.572 252.687 311.899 252.361 312.302 252.361Z" fill="#F3D591"/>
<path d="M274.309 222.989C274.562 222.989 274.767 223.195 274.767 223.448C274.767 223.701 274.562 223.906 274.309 223.906C274.056 223.906 273.852 223.701 273.852 223.448C273.852 223.195 274.057 222.989 274.309 222.989Z" fill="#F3D591"/>
<path d="M284.902 196.965C285.304 196.965 285.632 197.291 285.632 197.695C285.632 198.098 285.304 198.424 284.902 198.424C284.499 198.424 284.172 198.098 284.172 197.695C284.172 197.291 284.499 196.965 284.902 196.965Z" fill="#F3D591"/>
<path d="M286.362 195.162C286.615 195.162 286.821 195.367 286.821 195.62C286.821 195.872 286.615 196.078 286.362 196.078C286.11 196.078 285.904 195.872 285.904 195.62C285.905 195.367 286.11 195.162 286.362 195.162Z" fill="#F3D591"/>
<path d="M276.067 19.0235C276.048 19.4251 275.706 19.7371 275.303 19.7184C274.9 19.6997 274.59 19.3565 274.608 18.9549C274.627 18.5521 274.968 18.2419 275.372 18.2606C275.775 18.2793 276.085 18.6208 276.067 19.0235Z" fill="#F3D591"/>
<path d="M277.799 20.5672C277.787 20.8196 277.572 21.0153 277.32 21.0034C277.068 20.9915 276.872 20.7771 276.883 20.5241C276.895 20.2716 277.11 20.0765 277.363 20.0884C277.614 20.1003 277.811 20.3147 277.799 20.5672Z" fill="#F3D591"/>
<path d="M319.072 98.1738C319.475 98.1738 319.802 98.4994 319.802 98.9039C319.802 99.3066 319.475 99.6334 319.072 99.6334C318.669 99.6334 318.342 99.3066 318.342 98.9039C318.342 98.4994 318.669 98.1738 319.072 98.1738Z" fill="#F3D591"/>
<path d="M320.532 96.3711C320.786 96.3711 320.991 96.5759 320.991 96.8289C320.991 97.0807 320.786 97.2866 320.532 97.2866C320.28 97.2866 320.074 97.0813 320.074 96.8289C320.074 96.5764 320.279 96.3711 320.532 96.3711Z" fill="#F3D591"/>
<path d="M301.553 95.8633C301.955 95.8633 302.283 96.1889 302.283 96.5928C302.283 96.9961 301.955 97.3228 301.553 97.3228C301.15 97.3228 300.824 96.9961 300.824 96.5928C300.824 96.1889 301.15 95.8633 301.553 95.8633Z" fill="#F3D591"/>
<path d="M303.01 94.0593C303.263 94.0593 303.469 94.2647 303.469 94.5177C303.469 94.7695 303.263 94.976 303.01 94.976C302.758 94.976 302.552 94.7701 302.552 94.5177C302.552 94.2647 302.758 94.0593 303.01 94.0593Z" fill="#F3D591"/>
<path d="M305.31 231.362C305.712 231.362 306.04 231.687 306.04 232.092C306.04 232.494 305.712 232.821 305.31 232.821C304.907 232.821 304.58 232.494 304.58 232.092C304.58 231.687 304.907 231.362 305.31 231.362Z" fill="#F3D591"/>
<path d="M306.77 229.558C307.023 229.558 307.228 229.763 307.228 230.016C307.228 230.268 307.023 230.474 306.77 230.474C306.518 230.474 306.312 230.268 306.312 230.016C306.312 229.764 306.518 229.558 306.77 229.558Z" fill="#F3D591"/>
<path d="M341.506 230.308C341.91 230.308 342.236 230.634 342.236 231.038C342.236 231.441 341.91 231.768 341.506 231.768C341.104 231.768 340.777 231.441 340.777 231.038C340.777 230.634 341.104 230.308 341.506 230.308Z" fill="#F3D591"/>
<path d="M342.968 228.505C343.22 228.505 343.425 228.71 343.425 228.963C343.425 229.215 343.221 229.421 342.968 229.421C342.714 229.421 342.51 229.216 342.51 228.963C342.51 228.71 342.714 228.505 342.968 228.505Z" fill="#F3D591"/>
<path d="M351.368 134.849C351.77 134.849 352.098 135.175 352.098 135.579C352.098 135.983 351.77 136.309 351.368 136.309C350.964 136.309 350.639 135.983 350.639 135.579C350.639 135.175 350.964 134.849 351.368 134.849Z" fill="#F3D591"/>
<path d="M352.829 133.047C353.081 133.047 353.288 133.252 353.288 133.505C353.288 133.758 353.082 133.963 352.829 133.963C352.576 133.963 352.371 133.758 352.371 133.505C352.371 133.252 352.576 133.047 352.829 133.047Z" fill="#F3D591"/>
<path d="M295.641 60.5488C296.044 60.5488 296.371 60.8744 296.371 61.2789C296.371 61.6816 296.044 62.0078 295.641 62.0078C295.238 62.0078 294.912 61.6816 294.912 61.2789C294.912 60.8744 295.238 60.5488 295.641 60.5488Z" fill="#F3D591"/>
<path d="M297.102 58.7446C297.355 58.7446 297.561 58.95 297.561 59.203C297.561 59.4548 297.355 59.6608 297.102 59.6608C296.85 59.6608 296.645 59.4554 296.645 59.203C296.645 58.9505 296.85 58.7446 297.102 58.7446Z" fill="#F3D591"/>
<path d="M291.045 264.427C291.447 264.427 291.775 264.753 291.775 265.157C291.775 265.56 291.447 265.886 291.045 265.886C290.641 265.886 290.314 265.56 290.314 265.157C290.314 264.753 290.641 264.427 291.045 264.427Z" fill="#F3D591"/>
<path d="M292.507 262.624C292.759 262.624 292.966 262.828 292.966 263.082C292.966 263.334 292.76 263.54 292.507 263.54C292.254 263.54 292.049 263.334 292.049 263.082C292.049 262.829 292.254 262.624 292.507 262.624Z" fill="#F3D591"/>
<path d="M321.178 20.1433C321.159 20.5466 320.818 20.8581 320.414 20.8393C320.011 20.8201 319.701 20.478 319.719 20.0747C319.738 19.6731 320.08 19.3622 320.483 19.3809C320.887 19.4002 321.196 19.7417 321.178 20.1433Z" fill="#F3D591"/>
<path d="M322.909 21.6883C322.898 21.9407 322.683 22.1353 322.43 22.1239C322.179 22.112 321.984 21.8976 321.995 21.6452C322.006 21.3922 322.22 21.1976 322.473 21.2095C322.726 21.2214 322.921 21.4353 322.909 21.6883Z" fill="#F3D591"/>
<path d="M276.166 76.2471C276.64 76.2471 277.027 76.8745 277.027 77.6499C277.027 78.4242 276.64 79.0516 276.166 79.0516C275.689 79.0516 275.305 78.4248 275.305 77.6499C275.305 76.8745 275.689 76.2471 276.166 76.2471Z" fill="#F3D591"/>
<path d="M312.498 149.214C312.974 149.214 313.361 149.842 313.361 150.617C313.361 151.391 312.974 152.019 312.498 152.019C312.024 152.019 311.638 151.391 311.638 150.617C311.639 149.842 312.025 149.214 312.498 149.214Z" fill="#F3D591"/>
<path d="M292.715 154.146C293.189 154.146 293.576 154.774 293.576 155.549C293.576 156.323 293.189 156.952 292.715 156.952C292.239 156.952 291.854 156.324 291.854 155.549C291.854 154.774 292.239 154.146 292.715 154.146Z" fill="#F3D591"/>
<path d="M316.691 41.2813C316.669 41.755 316.023 42.1118 315.25 42.0755C314.476 42.0392 313.867 41.6234 313.889 41.1497C313.911 40.6749 314.558 40.3193 315.331 40.3556C316.104 40.3919 316.713 40.8065 316.691 41.2813Z" fill="#F3D591"/>
</g>
</g>
<path d="M70.2115 47.2221C68.7811 43.5038 66.303 40.3887 63.1958 38.1593C62.6815 37.7902 62.1492 37.4447 61.6034 37.1273C59.5912 35.9547 57.3686 35.1264 55.0345 34.71C52.7263 34.297 50.3068 34.2857 47.8636 34.7393C38.3586 36.5016 31.6738 44.7046 31.4813 54.0048C31.4678 54.6305 31.4825 55.2641 31.5331 55.8988C31.586 56.6258 31.6805 57.3584 31.8167 58.0933C32.4098 61.3018 33.74 64.1884 35.5969 66.6136C35.6993 66.7453 35.8017 66.8769 35.9041 67.0052C37.4447 68.9184 39.3241 70.5254 41.4297 71.7521C45.4316 74.0873 50.2573 75.0517 55.1696 74.1424C64.6757 72.3801 71.3605 64.176 71.5518 54.8736C71.5799 53.5287 71.473 52.1614 71.2176 50.7884C70.988 49.5482 70.6492 48.3553 70.2115 47.2221Z" fill="#B55926"/>
<path d="M52.05 64.3853C57.8187 62.1131 61.8375 56.897 62.2527 50.803C62.7513 44.4885 60.1753 38.2122 55.0345 34.71C52.7263 34.297 50.3068 34.2857 47.8636 34.7393C38.3586 36.5016 31.6738 44.7046 31.4813 54.0048C31.4678 54.6305 31.4825 55.2641 31.5331 55.8988C31.586 56.6258 31.6805 57.3584 31.8167 58.0933C32.4098 61.3017 33.74 64.1884 35.5969 66.6136C35.6993 66.7452 35.8017 66.8769 35.9041 67.0052C36.72 67.1954 37.5742 67.2843 38.4823 67.246C43.2596 67.0468 47.5507 66.0801 52.05 64.3853Z" fill="#8942AF"/>
<path d="M70.2105 47.2227C68.7802 43.5045 66.3021 40.3894 63.1949 38.16C62.6806 37.7909 62.1483 37.4454 61.6025 37.128C59.5903 35.9554 57.3676 35.1271 55.0336 34.7107C60.1744 38.2129 62.7504 44.4892 62.2518 50.8037C61.8366 56.8977 57.8167 62.1138 52.0491 64.386C47.5498 66.0797 43.2587 67.0475 38.4826 67.2456C37.5744 67.2838 36.7202 67.195 35.9043 67.0048C37.4449 68.9179 39.3243 70.525 41.4299 71.7516C45.4318 74.0868 50.2575 75.0513 55.1698 74.1419C64.6759 72.3796 71.3607 64.1755 71.552 54.8731C71.5801 53.5283 71.4732 52.1609 71.2178 50.788C70.9871 49.5489 70.6483 48.356 70.2105 47.2227Z" fill="#624C70"/>
<path d="M83.0252 36.788C82.5199 35.8866 81.6624 35.2193 80.5066 34.7759L80.5044 34.7747C76.7433 33.3297 69.829 34.2391 61.6024 37.1302C62.1482 37.4487 62.6805 37.793 63.1948 38.1621C69.1492 36.4471 73.5214 36.4178 74.6715 38.4728C75.7125 40.3296 73.931 43.5359 70.2105 47.2238C66.4742 50.9251 60.7764 55.1116 54.0128 58.9008C53.0675 59.4308 52.1244 59.9395 51.1892 60.4256C45.4464 63.409 39.9916 65.5372 35.5959 66.6164C30.5091 67.8667 26.846 67.7114 25.8039 65.8545C24.6515 63.7996 26.9597 60.0869 31.5321 55.9016C31.4815 55.2669 31.4668 54.6333 31.4803 54.0076C25.0263 59.2676 20.7374 64.4478 19.7279 68.3517C19.7279 68.3517 19.7279 68.354 19.7279 68.3574C19.3532 69.7979 19.4297 71.065 20.0082 72.0982C22.1531 75.9278 30.6701 75.5339 41.4299 71.7549C46.3399 70.0308 51.7204 67.5988 57.174 64.5434C62.6321 61.4869 67.5152 58.1636 71.5508 54.8764C72.2834 54.2799 72.9879 53.6835 73.6609 53.0915C81.1324 46.5249 84.9924 40.2993 83.0252 36.788Z" fill="#E39F30"/>
<path d="M44.5449 68.4136C18.1895 78.7717 19.6829 68.6263 19.7279 68.3551C19.3532 69.7967 19.4297 71.0628 20.0082 72.0959C22.1531 75.9256 30.6701 75.5328 41.4299 71.7527C46.3399 70.0286 51.7204 67.5977 57.174 64.5423C62.6321 61.4835 67.5152 58.1625 71.5508 54.8741C72.2834 54.2765 72.9879 53.6823 73.6609 53.0881C72.2778 53.6508 70.9071 54.2011 69.542 54.7368C63.2342 59.5749 54.7241 64.414 44.5449 68.4136Z" fill="#EDBB34"/>
<path d="M83.0251 36.7868C82.5198 35.8853 81.6622 35.218 80.5065 34.7734C84.2169 39.0263 79.7874 46.8792 69.543 54.7366C70.9081 54.201 72.2799 53.6495 73.6619 53.088C81.1322 46.5247 84.9923 40.2991 83.0251 36.7868Z" fill="#EDBB34"/>
<path d="M24.0657 66.1382C22.3979 73.2101 39.3361 69.0361 49.0234 63.3428C37.9676 69.4041 22.713 71.2025 24.0657 66.1382Z" fill="#EDBB34"/>
<path d="M438.519 51.3827C431.736 62.3845 417.319 65.8113 406.314 59.0263C395.313 52.2504 391.884 37.8286 398.664 26.8234C405.445 15.8183 419.864 12.4005 430.867 19.1809C441.872 25.9603 445.299 40.3764 438.519 51.3827Z" fill="#EDBB34"/>
<path d="M409.32 17.6323L441.938 37.7305C441.754 34.6087 440.938 31.5533 439.549 28.7455L418.418 15.7236C415.288 15.7506 412.189 16.3899 409.32 17.6323Z" fill="#DF8D3C"/>
<path d="M398.664 26.823C397.857 28.1352 397.207 29.4958 396.686 30.8767L435.784 54.9712C436.789 53.8818 437.707 52.6912 438.518 51.3835C438.855 50.8331 439.15 50.2671 439.437 49.7033L399.751 25.2498C399.377 25.7607 399.002 26.2761 398.664 26.823Z" fill="#D0CA94"/>
<path d="M399.771 25.2213L439.455 49.6759C441.385 45.8732 442.181 41.7532 441.939 37.7311L409.32 17.6328C405.616 19.2241 402.299 21.7877 399.771 25.2213Z" fill="#E3AC29"/>
<path d="M396.687 30.876C395.32 34.5042 394.914 38.3317 395.382 42.0342L426.413 61.1533C429.93 59.9098 433.17 57.82 435.785 54.9705L396.687 30.876Z" fill="#DF8D3C"/>
<path d="M58.4776 229.743C64.3025 240.219 60.5269 253.441 50.0462 259.263C39.5632 265.087 26.3433 261.312 20.5205 250.836C14.6933 240.35 18.4679 227.13 28.9519 221.305C39.4327 215.478 52.6514 219.257 58.4776 229.743Z" fill="#A13472"/>
<path d="M17.9121 238.034L48.9851 220.77C46.3787 219.509 43.5338 218.775 40.6348 218.621L20.5005 229.809C19.1005 232.353 18.2216 235.153 17.9121 238.034Z" fill="#CD71A2"/>
<path d="M20.5199 250.836C21.2075 252.076 22.0122 253.218 22.8956 254.271L60.1391 233.576C59.7148 232.268 59.1679 230.982 58.4769 229.743C58.1865 229.218 57.8636 228.724 57.5338 228.23L19.7344 249.237C19.9786 249.778 20.2295 250.311 20.5199 250.836Z" fill="#D17CA6"/>
<path d="M19.7196 249.202L57.518 228.198C55.3201 224.917 52.3513 222.402 48.9853 220.77L17.9123 238.034C17.5251 241.753 18.0878 245.606 19.7196 249.202Z" fill="#A5467A"/>
<path d="M22.8965 254.273C25.2092 257.023 28.1228 259.09 31.329 260.391L60.8861 243.965C61.4725 240.554 61.2586 236.991 60.14 233.577L22.8965 254.272V254.273Z" fill="#C88CA0"/>
<path d="M283.793 37.4987C277.481 41.5096 274.18 36.5962 279.745 31.6028C285.31 26.6106 297.087 18.6947 299.16 17.2823C294.45 21.8052 294.233 22.3702 294.233 22.3702L311.031 10.593L291.873 28.9391L298.501 25.4785C298.501 25.4785 288.302 34.6324 283.793 37.4987Z" fill="#F8E7B1"/>
<path d="M275.657 76.6034C269.347 80.6143 266.044 75.7009 271.611 70.7086C277.175 65.7164 288.952 57.8005 291.024 56.3881C286.313 60.9099 286.1 61.476 286.1 61.476L302.896 49.7L283.738 68.046L290.367 64.5854C290.367 64.5854 280.169 73.7382 275.657 76.6034Z" fill="#F8E7B1"/>
<path d="M213.879 62.4146C207.567 66.4244 204.266 61.512 209.831 56.5187C215.396 51.5254 227.173 43.6117 229.246 42.1993C224.536 46.7211 224.319 47.2872 224.319 47.2872L241.116 35.51L221.959 53.8549L228.587 50.3944C228.587 50.3944 218.388 59.5482 213.879 62.4146Z" fill="#F8E7B1"/>
<path d="M210.275 156.849C203.965 160.859 200.661 155.946 206.228 150.953C211.793 145.96 223.57 138.045 225.642 136.632C220.931 141.155 220.717 141.72 220.717 141.72L237.512 129.943L218.356 148.289L224.984 144.828C224.984 144.828 214.785 153.982 210.275 156.849Z" fill="#F8E7B1"/>
<path d="M340.528 224.758C330.294 238.675 363.117 241.161 363.117 241.161C363.117 241.161 350.765 210.839 340.528 224.758Z" fill="#F0EA57"/>
<path d="M343.285 226.246C335.615 236.672 360.205 238.535 360.205 238.535C360.205 238.535 350.951 215.818 343.285 226.246Z" fill="#E3AC29"/>
<path d="M271.051 176.836C271.016 176.864 270.985 176.896 270.961 176.93C270.126 178.093 275.866 189.787 284.969 201.196L290.15 193.975L298.945 181.72C285.543 177.178 272.587 175.585 271.051 176.836Z" fill="#DF8D3C"/>
<path d="M358.374 196.87C358.372 196.816 358.368 196.766 358.352 196.72C357.828 195.107 334.961 181.268 316.996 190.112L327.514 200.873L333.02 217.823C347.351 209.401 358.469 199.163 358.374 196.87Z" fill="#72C8AC"/>
<path d="M312.771 251.776C312.716 251.779 312.666 251.777 312.62 251.767C310.966 251.396 295.08 229.897 302.233 211.196L313.916 220.677L331.302 224.599C324.235 239.646 315.065 251.658 312.771 251.776Z" fill="#72C8AC"/>
<path d="M318.872 191.358C313.611 187.629 305.463 184.044 298.945 181.721L290.15 193.975L284.969 201.197C289.408 206.7 295.296 212.89 300.68 216.706C311.346 224.264 322.151 228.086 330.754 230.795L336.326 223.032L342.248 214.78C336.869 207.581 329.539 198.915 318.872 191.358Z" fill="white"/>
<path d="M308.21 192.711C312.192 195.532 313.133 201.006 310.314 204.935C307.494 208.861 301.98 209.759 298 206.937C294.017 204.115 293.075 198.642 295.894 194.714C298.714 190.787 304.227 189.889 308.21 192.711Z" fill="#72C8AC"/>
<path d="M300.567 194.202C299.201 194.848 298.067 195.979 297.449 197.46C297.408 197.559 297.368 197.658 297.333 197.759C296.164 201.016 297.87 204.588 301.141 205.74C301.461 205.854 301.791 205.942 302.117 206.001C303.081 206.174 304.053 206.119 304.958 205.86C306.851 205.323 308.463 203.919 309.176 201.935C310.345 198.678 308.639 195.105 305.371 193.951C303.736 193.377 302.022 193.516 300.567 194.202Z" fill="white"/>
<path d="M345.625 214.472L332.551 233.834L328.484 231.123L341.556 211.76L345.625 214.472Z" fill="#DF8D3C"/>
<path d="M331.378 214.416C340.349 219.801 346.834 225.466 345.872 227.07C344.908 228.675 336.858 225.611 327.893 220.227C318.925 214.843 312.437 209.179 313.399 207.574C314.36 205.969 322.413 209.034 331.378 214.416Z" fill="#72C8AC"/>
<defs>
<linearGradient id="paint0_linear_2362_38584" x1="229.5" y1="0" x2="229.5" y2="272" gradientUnits="userSpaceOnUse">
<stop stop-color="#0B1E44"/>
<stop offset="0.5" stop-color="#1A2A6C"/>
<stop offset="1" stop-color="#1B4965"/>
</linearGradient>
<radialGradient id="paint1_radial_2362_38584" cx="0" cy="0" r="1" gradientUnits="userSpaceOnUse" gradientTransform="translate(257.442 181.216) rotate(-134.254) scale(198.936 459.281)">
<stop stop-color="#433C62"/>
<stop offset="0.3745" stop-color="#40395C"/>
<stop offset="0.8624" stop-color="#362F4C"/>
<stop offset="1" stop-color="#322C46"/>
</radialGradient>
</defs>
</svg>
