<svg width="131" height="152" viewBox="0 0 131 152" fill="none" xmlns="http://www.w3.org/2000/svg">
<g opacity="0.4">
<path d="M63.4631 62.8899C63.0866 64.206 62.6624 65.5095 62.2041 66.7769C61.7217 68.0988 61.2043 69.3915 60.6333 70.6533C59.0553 74.1868 57.1496 77.4954 54.9476 80.5526C53.8801 82.0568 52.741 83.5047 51.5347 84.8812C49.2054 87.5618 46.6387 89.9999 43.8741 92.1811C39.5166 95.6284 34.6768 98.4392 29.5173 100.504C18.0795 105.091 5.08981 106.063 -7.68072 102.413C-21.2437 98.5385 -32.2728 90.1098 -39.5789 79.2583C-41.8069 75.957 -43.683 72.4324 -45.1815 68.7454C-46.5047 65.5192 -47.531 62.1673 -48.2444 58.7315C-48.533 57.3552 -48.7642 55.9617 -48.9388 54.5577C-49.5009 50.3786 -49.5904 46.1068 -49.1821 41.8014C-48.8761 38.4995 -48.2781 35.1833 -47.3689 31.879C-47.3191 31.6744 -47.2609 31.4732 -47.2038 31.2714C-45.3573 24.8096 -42.478 18.9218 -38.7946 13.736C-35.637 9.29126 -31.8855 5.36475 -27.6904 2.02871C-22.9111 -1.7606 -17.5506 -4.77299 -11.833 -6.89569C-11.3745 -7.06189 -10.9171 -7.22876 -10.4529 -7.38424C-4.65238 -9.36993 1.51052 -10.4494 7.78988 -10.4721C12.1232 -10.5008 16.5154 -10.0319 20.904 -9.0317C21.2423 -8.96124 21.5778 -8.88343 21.9201 -8.79428C22.5979 -8.62733 23.27 -8.44288 23.9411 -8.25154C32.1555 -5.90431 39.4393 -1.88333 45.5258 3.32326C47.5698 5.0695 49.4867 6.95341 51.2459 8.95872C51.623 9.38147 51.9899 9.80882 52.3467 10.2436C56.4635 15.1942 59.7332 20.8117 61.9991 26.8244C64.623 33.7869 65.9142 41.2845 65.6574 48.9435C65.5074 53.5659 64.7906 58.2459 63.4631 62.8899Z" fill="#F2D4B0"/>
<path d="M61.9992 26.8244C58.7549 26.0375 55.0163 24.5061 52.6444 26.7818C52.0396 27.3687 51.5809 28.1812 50.7748 28.432C50.2264 28.6072 49.6274 28.471 49.0703 28.3113C44.8077 27.0851 41.1239 24.3802 37.0259 22.6681C30.5279 19.9373 23.2934 19.7844 16.2653 19.2173C9.24619 18.6449 1.91362 17.4933 -3.68866 13.2187C-6.30842 11.2292 -8.4685 8.6031 -11.382 7.08891C-14.9726 5.22389 -19.2154 5.27074 -23.1388 4.26267C-24.733 3.85046 -26.3831 3.08206 -27.6896 2.02754C-22.9104 -1.76177 -17.5498 -4.77416 -11.8323 -6.89686C-11.3737 -7.06306 -10.9163 -7.22993 -10.4521 -7.38541C-4.65162 -9.3711 1.51128 -10.4506 7.79064 -10.4732C8.05037 -10.3723 8.30737 -10.2641 8.5707 -10.1462C13.0801 -8.13267 17.239 -5.38084 21.7378 -3.32582C29.2308 0.108713 37.4489 1.5308 45.526 3.32322C47.5699 5.06945 49.4869 6.95337 51.246 8.95868C51.6231 9.38143 51.99 9.80877 52.3468 10.2436C56.4625 15.1935 59.7334 20.8117 61.9992 26.8244Z" fill="#E6A77C"/>
<path d="M51.2459 8.95874C50.7543 8.96613 50.2583 8.92946 49.765 8.84969C46.586 8.38732 43.7524 6.68592 40.7767 5.4776C35.4398 3.3325 29.401 2.7867 23.9914 3.98466C21.6991 4.483 19.5032 5.28809 17.1284 5.52779C14.7575 5.75044 12.0522 5.28362 10.344 3.67631C8.84629 2.25286 8.37204 0.212248 6.9284 -1.24831C2.36644 -5.86295 -5.62751 -2.8345 -10.4522 -7.38534C-4.65171 -9.37104 1.5112 -10.4505 7.79056 -10.4732C12.1239 -10.5019 16.5161 -10.033 20.9047 -9.0328C21.2429 -8.96234 21.5784 -8.88453 21.9207 -8.79538C22.5985 -8.62843 23.2707 -8.44398 23.9418 -8.25264C32.1562 -5.90541 39.4399 -1.88439 45.5265 3.3222C47.5687 5.06891 49.4857 6.95279 51.2459 8.95874Z" fill="#FFEACF"/>
<path d="M63.4629 62.8899C63.0864 64.206 62.6623 65.5095 62.2039 66.7769C61.2298 67.1283 60.1858 67.328 59.1337 67.4027C57.7294 67.5161 56.287 67.4278 54.91 67.2004C51.2952 66.6127 47.8823 65.2531 44.6058 63.6007C43.0156 62.8059 41.4624 61.9418 39.9299 61.0674C26.8136 53.5542 13.8674 44.5521 -1.12231 42.5846C-6.70669 41.8539 -12.3791 42.1378 -17.9748 41.5091C-28.2708 40.3583 -37.917 36.1696 -47.3673 31.8785C-47.3175 31.6739 -47.2593 31.4727 -47.2022 31.2709C-45.3557 24.8091 -42.4764 18.9213 -38.793 13.7355C-36.9297 13.6997 -34.7439 14.2455 -31.9572 15.5572C-28.0976 17.368 -24.9225 20.3543 -21.3148 22.617C-11.6122 28.7181 0.469121 29.2783 11.3617 32.8627C19.707 35.6139 27.4698 40.1819 36.1049 41.7928C41.7348 42.8514 47.5636 42.6028 53.1354 43.8983C57.528 44.9173 61.638 46.8607 65.6555 48.944C65.5072 53.5659 64.7904 58.2459 63.4629 62.8899Z" fill="#FFEACF"/>
<path d="M29.5189 100.503C18.0811 105.09 5.09144 106.062 -7.67909 102.413C-21.2421 98.5379 -32.2711 90.1092 -39.5773 79.2577C-37.0014 78.0108 -33.2747 78.1757 -30.5357 78.9576C-18.2147 82.4691 -6.51031 88.1374 3.89866 95.6197C6.00637 97.1397 8.37479 98.8206 10.9462 98.4463C12.6135 98.2068 14.04 97.1284 15.6689 96.6853C17.6423 96.1396 19.7374 96.5721 21.7381 97.0035C24.5375 97.6034 27.6788 98.5016 29.5189 100.503Z" fill="#E6A77C"/>
<path d="M54.9474 80.5526C53.8798 82.0567 52.7407 83.5047 51.5344 84.8811C49.2051 87.5618 46.6384 89.9998 43.8738 92.181C40.6105 91.1261 37.3245 89.0165 34.1401 87.6267C26.783 84.4148 18.3857 85.1255 10.4707 83.7729C-2.26353 81.5845 -13.606 74.0359 -26.3501 71.9161C-30.0041 71.3087 -33.7279 71.1619 -37.3842 70.5637C-39.8209 70.1643 -42.5501 69.5946 -45.1824 68.7465C-46.5057 65.5203 -47.5319 62.1683 -48.2453 58.7325C-48.534 57.3563 -48.7651 55.9627 -48.9397 54.5587C-37.0941 56.616 -24.8746 61.1552 -14.0467 65.1837C-1.65863 69.8068 10.6791 75.4901 23.8853 76.2407C27.7187 76.4627 31.5711 76.2529 35.4048 76.4127C42.0879 76.6945 48.7254 78.1105 54.9474 80.5526Z" fill="#FFF2E1"/>
<path d="M60.6333 70.6533C59.0554 74.1868 57.1497 77.4954 54.9477 80.5527C53.8802 82.0568 52.741 83.5047 51.5347 84.8812C50.5311 84.5425 49.5381 84.1623 48.5425 83.8252C40.509 81.0847 31.7612 81.0924 23.6426 78.5895C20.4686 77.6218 17.4124 76.2674 14.2293 75.2974C3.67387 72.089 -7.85872 73.2498 -18.3319 69.7857C-25.5568 67.3975 -31.9792 62.9065 -39.3097 60.8556C-42.2621 60.0292 -45.3152 59.6113 -48.2443 58.7315C-48.533 57.3553 -48.7641 55.9617 -48.9387 54.5577C-49.5008 50.3786 -49.5903 46.1068 -49.182 41.8015C-43.5286 42.0445 -37.2516 45.673 -32.7242 47.1947C-28.9622 48.4617 -25.0112 49.0667 -21.1203 49.8197C-7.06212 52.5437 6.51667 57.2792 19.868 62.4139C23.2453 63.7115 26.6892 65.0534 30.3006 65.1324C32.8593 65.1995 35.3741 64.6246 37.9019 64.2459C40.121 63.9104 42.3591 63.7195 44.6043 63.6012C46.4344 63.4942 48.2669 63.4422 50.0909 63.3868C51.7051 63.3321 53.3498 63.2965 54.8802 63.8115C56.7508 64.4502 58.1159 65.7584 59.1311 67.4025C59.743 68.3888 60.2305 69.498 60.6333 70.6533Z" fill="#E8D3BC"/>
<path d="M60.6668 61.023C91.0448 72.4753 110.6 83.2364 109.036 88.7125C106.698 96.8941 58.1126 90.1859 0.51641 73.73C-57.0792 57.273 -101.875 37.3005 -99.5377 29.1189C-97.9991 23.7335 -75.6385 25.0232 -44.6456 31.0738" stroke="#FFEACF" stroke-width="7.8339" stroke-miterlimit="10"/>
<path d="M64.671 65.3989C88.6962 73.6218 88.2702 76.0326 87.5039 78.7137C86.3594 82.7189 48.8359 75.51 3.69343 62.6112C-41.449 49.7123 -77.1167 36.01 -75.9723 32.0048C-75.2185 29.3685 -74.2453 27.1501 -50.1711 32.6552" stroke="#FFEACF" stroke-width="3.6117" stroke-miterlimit="10"/>
</g>
</svg>
