<svg width="99" height="92" viewBox="0 0 99 92" fill="none" xmlns="http://www.w3.org/2000/svg">
<g opacity="0.3">
<path d="M48.3902 64.5262L62.4724 53.8571C62.4724 53.8571 71.7312 58.7779 72.0845 66.5441L71.7577 66.1977C71.5448 65.9723 71.2713 65.8134 70.9676 65.7513C70.0371 65.5614 67.7255 65.0027 66.7372 66.6228C66.7372 66.6228 75.1886 76.5583 75.0312 84.3864C75.0118 85.3372 74.2415 84.9844 74.2415 84.9844C74.2415 84.9844 65.7591 81.7923 59.5448 72.0725C59.5448 72.0725 56.1529 73.9438 57.8502 76.7356L58.003 77.2134C58.003 77.2134 50.2487 73.0506 48.3902 64.5262Z" fill="#FF5D00"/>
<path d="M61.5963 48.9049L43.7881 62.3972L45.9903 65.3039L63.7985 51.8116L61.5963 48.9049Z" fill="#FFEDD5"/>
<path d="M48.5726 37.5233L42.2868 15.5982C42.2868 15.5982 67.2095 16.4137 78.5874 33.528C78.5874 33.528 81.9369 40.0451 75.5198 38.0758C69.1039 36.1068 55.9003 34.1957 48.5726 37.5233Z" fill="#7DC9C9"/>
<path d="M49.3788 38.5861L43.0931 16.6603C43.0931 16.6603 68.0158 17.4758 79.3937 34.5901C79.3937 34.5901 82.7432 41.1072 76.3261 39.1379C69.9094 37.1694 56.7065 35.2585 49.3788 38.5861Z" fill="#99DDDC"/>
<path d="M50.1834 39.6486L43.8976 17.7235C43.8976 17.7235 68.8203 18.5389 80.1982 35.6532C80.1982 35.6532 83.5477 42.1703 77.1306 40.201C70.7141 38.2319 57.5112 36.3209 50.1834 39.6486Z" fill="#7DC9C9"/>
<path d="M35.603 47.3497L16.1972 35.3646C16.1972 35.3646 10.2372 59.5783 23.6338 75.1629C23.6338 75.1629 29.0012 80.1508 28.8424 73.4409C28.6829 66.7309 30.4162 53.5031 35.603 47.3497Z" fill="#7DC9C9"/>
<path d="M36.4091 48.4124L17.0033 36.4273C17.0033 36.4273 11.0433 60.6411 24.4399 76.2257C24.4399 76.2257 29.8073 81.2136 29.6485 74.5037C29.4884 67.7934 31.2224 54.5659 36.4091 48.4124Z" fill="#99DDDC"/>
<path d="M37.2138 49.4749L17.808 37.4898C17.808 37.4898 11.848 61.7036 25.2446 77.2882C25.2446 77.2882 30.612 82.2761 30.4532 75.5662C30.2931 68.8559 32.027 55.6284 37.2138 49.4749Z" fill="#7DC9C9"/>
<path d="M31.9674 28.3164C25.4526 33.3189 20.1048 38.2827 16.1654 42.2794C16.1789 42.2858 16.187 42.2969 16.1946 42.3072L16.1998 42.3031L16.2039 42.3084C16.4799 42.6177 16.7578 42.9178 17.0443 43.2189C17.4048 43.6068 17.7749 43.9951 18.1396 44.3883C18.1531 44.3946 18.1572 44.3999 18.1653 44.411C18.5517 44.821 18.9466 45.2326 19.3475 45.6402C20.993 47.3373 22.727 49.0519 24.5502 50.7738C30.8489 56.758 35.7371 59.0265 43.7901 62.4018L61.5865 48.9187C60.5161 40.2529 59.6505 34.9369 55.6045 27.2455C54.4164 24.9925 53.215 22.8333 52.0075 20.7532C51.7078 20.236 51.4081 19.7188 51.1066 19.2108L51.0943 19.195C51.0902 19.1898 51.0902 19.1898 51.086 19.1845C50.8227 18.7482 50.5539 18.3165 50.2946 17.8854C50.082 17.5275 49.8648 17.1739 49.6468 16.8208C49.6385 16.8103 49.627 16.7941 49.624 16.7795C43.3749 20.1669 37.7023 23.9629 32.6968 27.7554C32.4525 27.9405 32.2134 28.1221 31.9674 28.3164Z" fill="#202228"/>
<path d="M42.6142 6.42361C43.6529 7.82764 44.6993 9.2855 45.7317 10.8031C45.807 10.9137 45.8824 11.0236 45.9612 11.1393L46.5066 11.9474L46.7081 12.2464C46.8413 12.4553 46.9755 12.6548 47.1129 12.8684C47.1398 12.9149 47.1719 12.9573 47.1988 13.0039C40.8419 16.4819 35.0928 20.3526 30.0076 24.2051L29.2741 24.7609C22.6744 29.8276 17.2585 34.8346 13.1919 38.9277C13.1504 38.8841 13.1185 38.841 13.0763 38.7973C12.8778 38.5799 12.69 38.3535 12.5009 38.1372L12.477 38.1053C12.1886 37.7802 11.9057 37.4504 11.6337 37.1132C11.5759 37.048 11.5199 36.9736 11.4622 36.9085L11.4539 36.898C10.2674 35.4971 9.15058 34.1012 8.07994 32.721C7.40217 31.8375 6.74593 30.9714 6.11254 30.1129L6.08455 30.0757C10.297 25.7553 15.7802 20.6386 22.3386 15.5947C22.3439 15.5906 22.3438 15.5906 22.3491 15.5865C22.6428 15.356 22.9563 15.1183 23.2593 14.8889C28.4219 10.9612 34.2248 7.11661 40.5509 3.72008L40.5789 3.75726C41.2545 4.61812 41.9311 5.51103 42.6142 6.42361Z" fill="#FFEDD5"/>
<path d="M13.2198 38.9656C14.0975 39.9841 15.0147 41.0222 15.9633 42.0515L13.1918 38.9284L13.2198 38.9656Z" fill="#F7CB14"/>
<path d="M45.9611 11.1394L46.5066 11.9474L46.7081 12.2465C40.2664 15.5126 34.142 19.3414 28.4082 23.6856C22.8926 27.8645 17.7348 32.5162 12.9982 37.6025L12.5007 38.1379L12.4768 38.106C12.1884 37.781 11.9055 37.4511 11.6335 37.1139L12.0246 36.6921C16.8118 31.5511 22.0236 26.8497 27.6033 22.6223C33.3579 18.2624 39.4944 14.4168 45.9611 11.1394Z" fill="#9D9690"/>
<path d="M49.1897 16.0961C48.5389 15.05 47.8888 14.0372 47.2267 13.0412L47.1987 13.004L49.452 16.508L49.1897 16.0961Z" fill="#F7CB14"/>
<path d="M15.9634 42.0513L16.1659 42.2795L16.0428 42.1389C16.0155 42.1095 15.9896 42.0798 15.9634 42.0513Z" fill="#F7CB14"/>
<path d="M29.274 24.7617C22.6744 29.8284 17.2585 34.8354 13.1918 38.9285L15.9634 42.0516C15.99 42.0808 16.0154 42.1097 16.0421 42.1389L16.1652 42.2796C20.1046 38.2829 25.4522 33.3197 31.9672 28.3166C32.2132 28.1223 32.4522 27.9413 32.6966 27.7556C37.7021 23.9631 43.3746 20.1671 49.6238 16.7796L49.4514 16.5085L47.1981 13.0045C40.8412 16.4825 35.0921 20.3532 30.0069 24.2058L29.274 24.7617Z" fill="#3A3E4A"/>
<path d="M1.06179 -12.5054C1.35546 -12.7359 1.65785 -12.9655 1.97138 -13.2031C5.51496 -15.8875 9.31797 -18.5638 13.3831 -21.1596C13.3014 -21.2153 13.219 -21.2636 13.1324 -21.3164C-1.56763 -30.1613 -12.4012 -30.2508 -12.4012 -30.2508C-12.4012 -30.2508 -15.266 -19.724 -10.6692 -3.09949C-10.6386 -2.99742 -10.6152 -2.8966 -10.5853 -2.7947C-7.10744 -5.93431 -3.22993 -9.21323 1.05066 -12.4973C1.05654 -12.5013 1.05654 -12.5013 1.06179 -12.5054Z" fill="#DD4737"/>
<path d="M40.5506 3.72218C34.2245 7.11872 28.4217 10.9626 23.259 14.8911C22.9559 15.1204 22.6424 15.3581 22.3487 15.5886C22.3435 15.5927 22.3435 15.5927 22.3383 15.5968C15.7799 20.6407 10.2967 25.7574 6.0842 30.0778C5.79582 29.6858 5.51486 29.3048 5.23584 28.9139C3.64942 26.7205 2.19587 24.5593 0.871246 22.4347C-4.99016 13.1084 -8.51637 4.57959 -10.5815 -2.77155C-10.5804 -2.78091 -10.5845 -2.78616 -10.5828 -2.79535C-7.10434 -5.93204 -3.23123 -9.21006 1.05314 -12.498C1.05839 -12.5021 1.0584 -12.5021 1.06365 -12.5062C1.35732 -12.7367 1.6597 -12.9663 1.97387 -13.2038C5.51844 -15.8893 9.32269 -18.5625 13.3833 -21.1622C13.3874 -21.1569 13.3915 -21.1517 13.4007 -21.1499C19.9445 -17.1831 27.2373 -11.4756 34.6682 -3.27966C36.3507 -1.43463 38.0299 0.538586 39.7134 2.6503C39.9978 3.00327 40.2728 3.3551 40.5506 3.72218Z" fill="#FFEDD5"/>
<path d="M51.086 19.184C51.0902 19.1892 51.0902 19.1892 51.0943 19.1945L51.1066 19.2102C51.4081 19.7182 51.7078 20.2354 52.0075 20.7526C53.2151 22.8321 54.4164 24.992 55.6045 27.245C59.6498 34.9362 60.5161 40.2523 61.5865 48.9182L43.7901 62.4013C35.7371 59.026 30.8489 56.7575 24.5502 50.7733C22.727 49.0514 20.9937 47.337 19.3475 45.6397C18.9466 45.2321 18.5515 44.8211 18.1653 44.4105C18.1571 44.4 18.1529 44.3948 18.1396 44.3877C22.6406 40.1163 27.9103 35.5133 33.9133 30.9065L33.9185 30.9024C34.2384 30.6513 34.5578 30.4097 34.8816 30.1645C39.8022 26.4369 45.1975 22.7171 51.086 19.184Z" fill="#DD4737"/>
<path d="M51.086 19.184C51.0902 19.1892 51.0902 19.1892 51.0943 19.1945L51.1066 19.2102C51.4081 19.7182 51.7078 20.2354 52.0075 20.7526C53.2151 22.8321 54.4164 24.992 55.6045 27.245C59.6498 34.9362 60.5161 40.2523 61.5865 48.9182L43.7901 62.4013C35.7371 59.026 30.8489 56.7575 24.5502 50.7733C22.727 49.0514 20.9937 47.337 19.3475 45.6397C18.9466 45.2321 18.5515 44.8211 18.1653 44.4105C18.1571 44.4 18.1529 44.3948 18.1396 44.3877C19.667 42.9376 21.2811 41.4472 22.9886 39.9356C23.1187 40.1299 23.2636 40.3206 23.409 40.512C31.155 50.7361 42.6059 55.1081 48.983 50.2772C55.3594 45.4461 54.2495 33.2393 46.5035 23.0153C46.3343 22.7919 46.1696 22.5745 45.9939 22.3645C47.6458 21.2894 49.3428 20.2291 51.086 19.184Z" fill="#B53228"/>
<path d="M61.6396 68.0895C60.0659 69.2822 59.1179 68.552 58.0688 67.4571L38.2648 47.7779C36.4695 45.9055 35.2351 43.5835 34.6429 40.9663L32.8086 32.8515C32.4586 31.3035 34.617 29.7084 35.9746 30.5125L43.2004 34.7933C45.3232 36.0509 47.0423 37.7622 48.2606 39.83L61.9976 64.4812C62.7671 65.7875 63.2137 66.8976 61.6396 68.0895Z" fill="#7DC9C9"/>
<path d="M29.057 6.4258C30.2215 -2.01667 24.3216 -9.80469 15.8791 -10.9692C7.43662 -12.1338 -0.351407 -6.23382 -1.51594 2.20866C-2.68047 10.6511 3.21947 18.4392 11.6619 19.6037C20.1044 20.7682 27.8925 14.8683 29.057 6.4258Z" fill="#202228"/>
<path d="M28.3845 6.65366C29.6871 -1.40626 24.2092 -8.99608 16.1493 -10.2987C8.08941 -11.6013 0.499575 -6.12342 -0.803036 1.9365C-2.10565 9.99642 3.37224 17.5862 11.4322 18.8889C19.4921 20.1915 27.0819 14.7136 28.3845 6.65366Z" fill="#3A3E4A"/>
<path d="M23.1467 -2.79603C23.3975 -2.46449 23.6287 -2.12989 23.8382 -1.77835C26.9236 3.31104 25.7233 10.0032 20.8753 13.6764C20.0396 14.3097 19.1435 14.8178 18.2146 15.1935C17.5112 15.4772 16.7982 15.6885 16.0685 15.8332C11.796 16.6893 7.21301 15.1155 4.40268 11.4057C0.483801 6.23305 1.50164 -1.14854 6.6741 -5.06678C10.9894 -8.33607 16.8377 -8.17494 20.925 -5.02434C21.7493 -4.40177 22.4971 -3.65338 23.1467 -2.79603Z" fill="#14A8CC"/>
<path d="M23.1464 -2.79598C23.3971 -2.46444 23.6284 -2.12984 23.8379 -1.7783C26.9232 3.31109 25.723 10.0033 20.875 13.6765C20.0393 14.3098 19.1432 14.8179 18.2143 15.1936C17.5109 15.4772 16.7979 15.6885 16.0682 15.8333C15.4408 15.0502 14.9071 14.1956 14.4688 13.2582C11.3915 6.71189 14.1942 -1.17221 20.7281 -5.04522C20.7913 -5.03656 20.8565 -5.04048 20.9255 -5.02476C21.749 -4.40172 22.4968 -3.65333 23.1464 -2.79598Z" fill="#82C9DD"/>
<path d="M22.2837 14.4812C22.6187 14.923 22.5315 15.5526 22.0897 15.8877C21.6479 16.2228 21.0184 16.1355 20.6833 15.6937C20.3482 15.2519 20.4354 14.6224 20.8772 14.2873C21.3188 13.9529 21.9486 14.0395 22.2837 14.4812Z" fill="#349492"/>
<path d="M1.59156 1.98289C1.92665 2.42468 1.83941 3.05424 1.39762 3.38932C0.955835 3.72441 0.326278 3.63716 -0.0088067 3.19537C-0.343248 2.75376 -0.256657 2.12403 0.185131 1.78895C0.626919 1.45386 1.25665 1.54046 1.59156 1.98289Z" fill="#349492"/>
<path d="M13.0014 17.0428C13.3359 17.4844 13.2493 18.1141 12.8075 18.4492C12.3657 18.7843 11.7361 18.697 11.401 18.2552C11.066 17.8134 11.1532 17.1839 11.595 16.8488C12.0368 16.5137 12.6665 16.6003 13.0014 17.0428Z" fill="#349492"/>
<path d="M27.4863 6.43876C27.8214 6.88054 27.7341 7.5101 27.2923 7.84518C26.8506 8.18027 26.221 8.09302 25.8859 7.65123C25.5508 7.20945 25.6381 6.5799 26.0799 6.24481C26.5217 5.90973 27.1514 5.99632 27.4863 6.43876Z" fill="#349492"/>
<path d="M4.07076 11.6599C4.4052 12.1016 4.31861 12.7313 3.87682 13.0664C3.43504 13.4015 2.80548 13.3142 2.47039 12.8724C2.13531 12.4306 2.22254 11.8011 2.66433 11.466C3.10676 11.1311 3.73632 11.2183 4.07076 11.6599Z" fill="#349492"/>
<path d="M9.20391 1.76629C10.2134 3.099 9.95164 4.998 8.61876 6.00814C7.28587 7.01828 5.38705 6.75589 4.37691 5.42301C3.36741 4.0903 3.62915 2.19129 4.96203 1.18115C6.29539 0.171827 8.19441 0.433573 9.20391 1.76629Z" fill="#82C9DD"/>
<path d="M9.5736 8.7503C9.9922 9.30281 9.88338 10.0902 9.33087 10.5088C8.77835 10.9274 7.99101 10.8186 7.5724 10.266C7.15379 9.71353 7.26259 8.92618 7.81511 8.50757C8.36762 8.08896 9.15499 8.19778 9.5736 8.7503Z" fill="#82C9DD"/>
<path d="M31.5957 25.7847C31.9307 26.2265 31.8435 26.856 31.4017 27.1911C30.9599 27.5262 30.3304 27.439 29.9953 26.9972C29.6602 26.5554 29.7474 25.9258 30.1892 25.5908C30.631 25.2557 31.2606 25.3429 31.5957 25.7847Z" fill="#9C958F"/>
<path d="M23.5585 32.4255C23.8936 32.8673 23.8063 33.4969 23.3646 33.832C22.9229 34.1664 22.2932 34.0798 21.9581 33.638C21.623 33.1962 21.7103 32.5667 22.1521 32.2316C22.5943 31.8973 23.224 31.9839 23.5585 32.4255Z" fill="#9C958F"/>
<path d="M17.4228 38.3337C17.7572 38.7753 17.6706 39.4051 17.2288 39.7402C16.7872 40.0746 16.1575 39.988 15.8224 39.5462C15.4873 39.1044 15.5745 38.4749 16.0163 38.1398C16.4586 37.8055 17.0883 37.8921 17.4228 38.3337Z" fill="#9C958F"/>
<path d="M39.4008 20.4233C39.7359 20.8651 39.6486 21.4947 39.2068 21.8298C38.7652 22.1642 38.1355 22.0776 37.8004 21.6358C37.4653 21.194 37.5526 20.5645 37.9944 20.2294C38.436 19.8949 39.0657 19.9815 39.4008 20.4233Z" fill="#9C958F"/>
<path d="M47.2802 15.7124C47.6147 16.1541 47.5281 16.7838 47.0863 17.1189C46.6445 17.454 46.015 17.3667 45.6799 16.9249C45.3448 16.4831 45.432 15.8536 45.8738 15.5185C46.3161 15.1842 46.9458 15.2708 47.2802 15.7124Z" fill="#9C958F"/>
</g>
</svg>
