<svg width="84" height="85" viewBox="0 0 84 85" fill="none" xmlns="http://www.w3.org/2000/svg">
<path d="M35.3883 3.57671C38.937 -0.315422 45.0632 -0.315426 48.6118 3.57671L56.3859 12.1034C57.6333 13.4716 59.2744 14.4191 61.083 14.8153L72.3544 17.2845C77.4994 18.4116 80.5625 23.7171 78.9661 28.7364L75.4688 39.7323C74.9077 41.4967 74.9077 43.3916 75.4688 45.156L78.9661 56.152C80.5625 61.1712 77.4994 66.4767 72.3544 67.6038L61.083 70.0731C59.2744 70.4693 57.6333 71.4167 56.3859 72.7849L48.6118 81.3116C45.0632 85.2037 38.937 85.2037 35.3883 81.3116L27.6142 72.7849C26.3668 71.4167 24.7257 70.4693 22.9172 70.0731L11.6457 67.6038C6.50074 66.4767 3.43763 61.1712 5.03401 56.152L8.53129 45.156C9.09244 43.3916 9.09244 41.4967 8.53129 39.7323L5.03401 28.7364C3.43763 23.7171 6.50073 18.4116 11.6457 17.2845L22.9172 14.8153C24.7257 14.4191 26.3668 13.4716 27.6142 12.1034L35.3883 3.57671Z" fill="white" fill-opacity="0.55"/>
<path d="M16.8404 13.6456C17.9675 8.50061 23.2729 5.4375 28.2922 7.03388L39.2882 10.5312C41.0525 11.0923 42.9475 11.0923 44.7118 10.5312L55.7078 7.03389C60.7271 5.43751 66.0325 8.50061 67.1596 13.6456L69.6289 24.917C70.0251 26.7256 70.9726 28.3667 72.3407 29.6141L80.8674 37.3882C84.7596 40.9368 84.7596 47.063 80.8675 50.6117L72.3407 58.3858C70.9726 59.6332 70.0251 61.2743 69.6289 63.0828L67.1596 74.3543C66.0325 79.4993 60.7271 82.5624 55.7078 80.966L44.7118 77.4687C42.9475 76.9076 41.0525 76.9076 39.2882 77.4687L28.2922 80.966C23.2729 82.5624 17.9675 79.4993 16.8404 74.3543L14.3711 63.0828C13.9749 61.2743 13.0274 59.6332 11.6593 58.3858L3.13256 50.6117C-0.759572 47.063 -0.759576 40.9368 3.13256 37.3882L11.6593 29.6141C13.0274 28.3667 13.9749 26.7256 14.3711 24.917L16.8404 13.6456Z" fill="white" fill-opacity="0.35"/>
</svg>
