<svg width="60" height="53" viewBox="0 0 60 53" fill="none" xmlns="http://www.w3.org/2000/svg">
<path d="M35.9134 29.4776C35.6861 28.6256 35.0453 27.8448 34.4683 27.1943L34.4714 27.1437L29.7167 21.8119L31.4274 14.8142C31.534 14.303 31.6311 13.791 31.7147 13.2756C31.8113 12.6696 31.8579 11.6638 30.9784 11.6433C30.0969 11.6242 29.1673 12.0205 28.3829 12.3929L28.34 12.3776L21.8661 15.2239L15.8559 11.5076L15.7935 11.5231C15.0535 11.0687 14.1733 10.573 13.2944 10.4967C12.4187 10.4199 12.3558 11.4259 12.3865 12.039C12.4175 12.669 12.4709 13.2949 12.5365 13.9227C12.5531 14.0759 12.5642 14.2287 12.5875 14.3808L12.544 14.393L13.1724 20.6546L7.90159 25.1197L7.90125 25.1243C7.8628 25.1552 7.82423 25.1871 7.78566 25.2191L7.34703 25.5906C6.81331 26.0628 6.30172 26.6056 6.01812 27.2285C5.63746 28.0648 6.60644 28.4779 7.22106 28.6612C7.85283 28.8498 8.48826 29.0158 9.13049 29.1703C9.28604 29.2074 9.44106 29.2504 9.59832 29.2801L9.59803 29.2838L15.6526 30.6009L17.9995 36.3323L18.0023 36.3319C18.0586 36.4821 18.127 36.6262 18.191 36.7736C18.4547 37.3793 18.7279 37.9754 19.0239 38.5652C19.3115 39.1387 19.8861 40.021 20.6435 39.5012C21.404 38.9797 21.9498 38.0764 22.3888 37.2814L22.3974 37.279L25.8779 31.3162L33.7211 30.731C33.9991 30.7046 34.2749 30.6739 34.5527 30.6396C35.1615 30.5635 36.1409 30.3264 35.9134 29.4776Z" fill="#ED9335"/>
<path d="M35.9893 29.0765C35.7621 28.2241 34.5483 26.7429 34.5483 26.7429L29.793 21.4116L31.5033 14.4137C31.6105 13.9026 31.7082 13.3914 31.7909 12.8748C31.8875 12.2688 31.9339 11.2623 31.0548 11.2431C30.1734 11.2236 28.4163 11.9771 28.4163 11.9771L21.9416 14.8233L15.9326 11.1072C15.9326 11.1072 14.2497 10.1723 13.3706 10.0964C12.4947 10.0202 12.4318 11.0257 12.463 11.6387C12.494 12.2686 12.547 12.895 12.6129 13.5228C12.6288 13.6745 12.6401 13.8288 12.6633 13.9801L12.6211 13.993L13.2492 20.2547L7.97805 24.7195L7.97757 24.7238C7.94006 24.7552 7.42309 25.1902 7.42309 25.1902C6.88929 25.662 6.37751 26.2047 6.09424 26.8279C5.71385 27.6641 6.68269 28.0769 7.29705 28.2604C7.92969 28.4497 8.56539 28.6156 9.20675 28.77C9.36163 28.8071 9.51705 28.8495 9.67485 28.8796L9.67483 28.8838L15.7286 30.2001L18.0751 35.9314L18.0781 35.9312C18.1343 36.0809 18.2035 36.2265 18.2676 36.3736C18.5303 36.9781 18.8039 37.5747 19.0998 38.1651C19.3872 38.738 19.9621 39.6208 20.7195 39.101C21.4792 38.5793 22.0254 37.6755 22.4648 36.8807L22.4733 36.8782L25.9528 30.9153L33.7966 30.3305C34.0734 30.3034 34.3512 30.274 34.6278 30.2387C35.237 30.162 36.2165 29.9261 35.9893 29.0765Z" fill="#F8CB36"/>
<path d="M33.9828 27.8706C33.7864 27.1324 33.2304 26.4556 32.7307 25.8927L32.7341 25.8483L28.6142 21.2299L30.0967 15.1657C30.1891 14.7227 30.2735 14.2795 30.3449 13.8324C30.4287 13.3068 30.4691 12.4355 29.7081 12.4184C28.9432 12.4009 28.1392 12.7458 27.4587 13.0684L27.4214 13.0548L21.8106 15.5204L16.6037 12.3001L16.5503 12.3147C15.9092 11.9207 15.1466 11.4908 14.3845 11.4246C13.6262 11.3588 13.5714 12.2294 13.5975 12.7606C13.6254 13.3077 13.6716 13.85 13.7285 14.3942C13.7412 14.5256 13.752 14.6592 13.7718 14.79L13.735 14.8011L14.28 20.2275L9.71272 24.0953L9.71204 24.0995C9.67901 24.1259 9.64532 24.1537 9.6115 24.1812L9.23097 24.5026C8.76833 24.9118 8.32551 25.383 8.08032 25.9224C7.75053 26.6474 8.58975 27.0045 9.12283 27.1637C9.66984 27.3271 10.2206 27.4712 10.7767 27.6043C10.9114 27.6372 11.0457 27.6744 11.1829 27.7001L11.1821 27.7034L16.4282 28.8444L18.4613 33.8103L18.4638 33.8098C18.5125 33.9403 18.5722 34.0659 18.6277 34.1927C18.8557 34.7172 19.0931 35.2345 19.3496 35.7455C19.5982 36.2422 20.0957 37.0071 20.7529 36.5567C21.4113 36.1046 21.8843 35.3209 22.2648 34.6331L22.2721 34.6306L25.2871 29.4641L32.0834 28.9567C32.324 28.9342 32.5641 28.9078 32.8045 28.8777C33.3317 28.8109 34.18 28.6063 33.9828 27.8706Z" fill="#FFF060"/>
<path d="M28.7131 12.5582L21.8088 15.5206C21.8088 15.5206 15.859 11.7233 14.8471 11.4686L21.1684 16.1048C21.1684 16.1048 21.5559 16.6159 22.29 16.2286C23.0231 15.8412 28.7131 12.5582 28.7131 12.5582Z" fill="white"/>
<path d="M15.0413 28.5631L16.428 28.844L19.0589 35.1934L16.8132 28.9088C16.8132 28.9088 16.8498 28.633 16.3769 28.5985C15.9042 28.5636 15.0413 28.5631 15.0413 28.5631Z" fill="white"/>
<path d="M51.7715 21.1693C51.6337 20.6525 51.245 20.1789 50.895 19.7843L50.8969 19.7536L48.0128 16.5195L49.0504 12.2748C49.1151 11.9648 49.174 11.6542 49.2247 11.3416C49.2833 10.974 49.3116 10.3639 48.7781 10.3515C48.2434 10.3399 47.6795 10.5803 47.2037 10.8062L47.1777 10.7969L43.2508 12.5234L39.6052 10.2692L39.5674 10.2786C39.1185 10.0029 38.5846 9.70228 38.0514 9.65601C37.5203 9.60943 37.4821 10.2196 37.5007 10.5915C37.5196 10.9736 37.5519 11.3533 37.5917 11.7341C37.6018 11.827 37.6085 11.9197 37.6227 12.012L37.5963 12.0194L37.9775 15.8175L34.7803 18.5259L34.7801 18.5287C34.7568 18.5474 34.7334 18.5668 34.71 18.5862L34.4439 18.8115C34.1202 19.098 33.8099 19.4272 33.6379 19.805C33.407 20.3123 33.9947 20.5629 34.3675 20.6741C34.7508 20.7885 35.1362 20.8892 35.5257 20.9829C35.6201 21.0054 35.7141 21.0315 35.8095 21.0495L35.8093 21.0517L39.4819 21.8506L40.9055 25.3272L40.9072 25.3269C40.9413 25.418 40.9828 25.5054 41.0216 25.5948C41.1815 25.9622 41.3473 26.3238 41.5268 26.6816C41.7013 27.0294 42.0498 27.5646 42.5092 27.2493C42.9705 26.933 43.3016 26.3851 43.5679 25.9028L43.5731 25.9014L45.6842 22.2845L50.4417 21.9296C50.6104 21.9135 50.7776 21.8949 50.9462 21.8741C51.3154 21.8279 51.9095 21.6841 51.7715 21.1693Z" fill="#ED9335"/>
<path d="M51.8177 20.9261C51.6799 20.409 50.9437 19.5106 50.9437 19.5106L48.0592 16.2767L49.0966 12.032C49.1617 11.722 49.221 11.412 49.2711 11.0986C49.3297 10.731 49.3579 10.1205 48.8246 10.1088C48.29 10.097 47.2242 10.554 47.2242 10.554L43.2968 12.2805L39.6519 10.0264C39.6519 10.0264 38.6311 9.45932 38.0979 9.41329C37.5666 9.36708 37.5284 9.97697 37.5473 10.3488C37.5662 10.7308 37.5983 11.1108 37.6382 11.4917C37.6479 11.5837 37.6548 11.6772 37.6688 11.769L37.6432 11.7768L38.0242 15.575L34.8269 18.2832L34.8266 18.2858C34.8038 18.3049 34.4903 18.5688 34.4903 18.5688C34.1665 18.8549 33.856 19.1841 33.6842 19.5621C33.4535 20.0693 34.0412 20.3198 34.4138 20.4311C34.7976 20.5459 35.1832 20.6465 35.5722 20.7402C35.6661 20.7627 35.7604 20.7884 35.8561 20.8067L35.8561 20.8092L39.5282 21.6076L40.9515 25.0841L40.9533 25.084C40.9874 25.1748 41.0294 25.263 41.0683 25.3523C41.2276 25.719 41.3935 26.0809 41.5731 26.439C41.7474 26.7865 42.0961 27.322 42.5555 27.0067C43.0163 26.6902 43.3476 26.142 43.6141 25.6599L43.6193 25.6584L45.7299 22.0414L50.4877 21.6867C50.6556 21.6703 50.8241 21.6525 50.9919 21.631C51.3614 21.5845 51.9556 21.4414 51.8177 20.9261Z" fill="#F8CB36"/>
<path d="M50.6006 20.1947C50.4815 19.7469 50.1442 19.3363 49.8412 18.9949L49.8432 18.968L47.3442 16.1666L48.2435 12.4882C48.2995 12.2195 48.3507 11.9507 48.394 11.6795C48.4448 11.3607 48.4693 10.8321 48.0077 10.8218C47.5437 10.8112 47.0561 11.0203 46.6433 11.2161L46.6207 11.2078L43.2173 12.7034L40.0589 10.75L40.0266 10.7589C39.6377 10.5199 39.1751 10.2591 38.7128 10.219C38.2529 10.1791 38.2197 10.7071 38.2355 11.0293C38.2524 11.3612 38.2804 11.6901 38.315 12.0202C38.3226 12.0999 38.3292 12.181 38.3412 12.2603L38.3189 12.267L38.6495 15.5585L35.8791 17.9046L35.8787 17.9072C35.8586 17.9232 35.8382 17.9401 35.8177 17.9567L35.5869 18.1517C35.3062 18.3999 35.0376 18.6857 34.8889 19.013C34.6889 19.4527 35.1979 19.6693 35.5213 19.7659C35.8531 19.865 36.1871 19.9524 36.5244 20.0331C36.6062 20.0531 36.6876 20.0756 36.7709 20.0913L36.7704 20.0933L39.9525 20.7853L41.1857 23.7975L41.1873 23.7972C41.2168 23.8764 41.253 23.9526 41.2867 24.0295C41.425 24.3476 41.569 24.6614 41.7245 24.9713C41.8753 25.2727 42.1771 25.7366 42.5757 25.4634C42.9751 25.1892 43.262 24.7138 43.4928 24.2966L43.4972 24.2951L45.326 21.1612L49.4485 20.8534C49.5944 20.8398 49.7401 20.8238 49.8859 20.8055C50.2057 20.765 50.7202 20.6409 50.6006 20.1947Z" fill="#FFF060"/>
<path d="M47.4044 10.9064L43.2165 12.7033C43.2165 12.7033 39.6075 10.4 38.9937 10.2455L42.828 13.0577C42.828 13.0577 43.0631 13.3677 43.5083 13.1328C43.953 12.8978 47.4044 10.9064 47.4044 10.9064Z" fill="white"/>
<path d="M39.1112 20.6145L39.9523 20.7849L41.5482 24.6363L40.186 20.8242C40.186 20.8242 40.2082 20.6569 39.9213 20.636C39.6346 20.6148 39.1112 20.6145 39.1112 20.6145Z" fill="white"/>
<path d="M19.5099 44.56C19.2987 44.2158 18.9154 43.9569 18.5771 43.7469L18.5719 43.7243L15.788 42.006L15.6239 38.7112C15.6038 38.4729 15.5795 38.2356 15.5488 37.9984C15.512 37.7198 15.4009 37.2723 15.0123 37.3783C14.6229 37.4852 14.2667 37.7807 13.9712 38.0466L13.9503 38.0455L11.4813 40.1411L8.35768 39.296L8.33236 39.3109C7.94815 39.2082 7.49708 39.1058 7.10135 39.1872C6.707 39.268 6.81093 39.7177 6.90455 39.9828C7.00054 40.2552 7.1058 40.5229 7.21668 40.7899C7.24398 40.8549 7.26885 40.9206 7.29897 40.9843L7.28145 40.9953L8.37593 43.6612L6.64651 46.3099L6.64696 46.312C6.63412 46.3305 6.62137 46.3496 6.60862 46.3687L6.4647 46.5891C6.2922 46.8661 6.13865 47.1712 6.09562 47.4816C6.0379 47.8984 6.51718 47.9531 6.81088 47.9532C7.1128 47.9533 7.41338 47.9431 7.71543 47.9269C7.78856 47.9229 7.86221 47.9215 7.93511 47.9139L7.93546 47.9156L10.7648 47.702L12.5442 49.9105L12.5454 49.91C12.5897 49.9686 12.6386 50.0229 12.686 50.0792C12.8808 50.3105 13.0787 50.5364 13.2857 50.7566C13.4869 50.9706 13.8545 51.2827 14.1189 50.9556C14.3845 50.6273 14.5059 50.1595 14.5946 49.7532L14.5981 49.751L15.3459 46.6791L18.7116 45.3968C18.8301 45.3488 18.9472 45.2993 19.0646 45.2479C19.3218 45.1349 19.7207 44.9028 19.5099 44.56Z" fill="#ED9335"/>
<path d="M19.4906 44.3743C19.2795 44.0299 18.5531 43.5386 18.5531 43.5386L15.7691 41.8206L15.6047 38.5258C15.585 38.2874 15.561 38.0503 15.5298 37.8128C15.4929 37.5342 15.3817 37.0864 14.9934 37.1929C14.604 37.2996 13.9314 37.86 13.9314 37.86L11.462 39.9557L8.33891 39.1105C8.33891 39.1105 7.47812 38.9202 7.08239 39.0018C6.68803 39.0829 6.79187 39.5324 6.88569 39.7974C6.98168 40.0697 7.08684 40.3377 7.19782 40.6046C7.22464 40.6691 7.24978 40.7353 7.27972 40.7987L7.26288 40.8099L8.35726 43.4759L6.62765 46.1245L6.628 46.1265C6.61564 46.1451 6.44564 46.4037 6.44564 46.4037C6.27305 46.6805 6.1194 46.9856 6.07657 47.2961C6.01895 47.7128 6.49813 47.7674 6.79173 47.7675C7.09413 47.7679 7.39481 47.7576 7.69647 47.7415C7.7693 47.7376 7.84305 47.7359 7.91624 47.7284L7.91679 47.7303L10.7457 47.5164L12.5249 49.7249L12.5261 49.7245C12.5704 49.7828 12.6198 49.8376 12.6672 49.8939C12.8615 50.1248 13.0596 50.3509 13.2666 50.5713C13.4677 50.7851 13.8354 51.0974 14.0998 50.7703C14.365 50.442 14.4866 49.9739 14.5755 49.5677L14.5789 49.5654L15.3263 46.4935L18.6923 45.2113C18.8102 45.1633 18.9283 45.1141 19.0451 45.0624C19.3024 44.9491 19.7014 44.7175 19.4906 44.3743Z" fill="#F8CB36"/>
<path d="M18.4523 44.1075C18.2695 43.8092 17.9371 43.5848 17.6442 43.4031L17.6398 43.3832L15.2279 41.895L15.0857 39.0398C15.0683 38.8332 15.0474 38.6277 15.0203 38.4222C14.9883 38.1806 14.8921 37.7928 14.5559 37.8849C14.2179 37.9772 13.9102 38.2336 13.6537 38.4642L13.6356 38.4631L11.4955 40.2788L8.78931 39.5463L8.76778 39.5597C8.4349 39.4706 8.04404 39.3816 7.7009 39.4522C7.3595 39.5225 7.44928 39.9117 7.53019 40.1414C7.61395 40.3779 7.70514 40.6098 7.80128 40.8412C7.82402 40.8972 7.84625 40.9545 7.87202 41.0093L7.85733 41.019L8.80599 43.3292L7.30723 45.6238L7.30748 45.6257C7.29644 45.6417 7.28529 45.6582 7.27404 45.6747L7.14906 45.8656C6.99952 46.1056 6.86679 46.3703 6.82971 46.6391C6.77977 47.0004 7.19476 47.0474 7.44953 47.0476C7.71096 47.0478 7.97152 47.039 8.23295 47.0247C8.29639 47.0215 8.36018 47.0203 8.42379 47.0137L8.42386 47.0152L10.8754 46.83L12.4169 48.7436L12.418 48.7431C12.4564 48.794 12.499 48.8413 12.54 48.8897C12.7086 49.09 12.8804 49.286 13.0598 49.4768C13.2338 49.6623 13.5522 49.9329 13.7817 49.6493C14.0116 49.3648 14.1167 48.959 14.1938 48.6074L14.1966 48.6054L14.8443 45.9438L17.7607 44.8325C17.8633 44.7911 17.9652 44.7482 18.0668 44.7035C18.2894 44.6053 18.635 44.4046 18.4523 44.1075Z" fill="#FFF060"/>
<path d="M14.1381 38.0761L11.4953 40.2789C11.4953 40.2789 8.38763 39.3903 7.91023 39.4108L11.2906 40.619C11.2906 40.619 11.5275 40.7927 11.799 40.5267C12.0701 40.2608 14.1381 38.0761 14.1381 38.0761Z" fill="white"/>
<path d="M10.2302 46.8876L10.8755 46.8296L12.8603 49.2722L11.053 46.8077C11.053 46.8077 11.0331 46.6818 10.821 46.7285C10.609 46.775 10.2302 46.8876 10.2302 46.8876Z" fill="white"/>
</svg>
