<svg version="1.2" xmlns="http://www.w3.org/2000/svg" viewBox="0 0 410 183" width="410" height="183"><defs><linearGradient id="P" gradientUnits="userSpaceOnUse"/><linearGradient id="g1" x2="1" href="#P" gradientTransform="matrix(0,167,-410,0,205,0)"><stop stop-color="#0b1e44"/><stop offset=".5" stop-color="#1a2a6c"/><stop offset="1" stop-color="#1b4965"/></linearGradient><clipPath clipPathUnits="userSpaceOnUse" id="cp1"><path d="m0-77h410v260h-410z"/></clipPath><clipPath clipPathUnits="userSpaceOnUse" id="cp2"><path d="m409.88-187.01l-409.88 0.13 0.12 409.87 409.88-0.12z"/></clipPath><clipPath clipPathUnits="userSpaceOnUse" id="cp3"><path d="m409.88-187.01l-409.88 0.13 0.12 409.87 409.88-0.12z"/></clipPath><clipPath clipPathUnits="userSpaceOnUse" id="cp4"><path d="m409.88-187.01l-409.88 0.13 0.12 409.87 409.88-0.12z"/></clipPath><clipPath clipPathUnits="userSpaceOnUse" id="cp5"><path d="m409.93 0.21l-409.87 0.12 0.05 182.79 409.88-0.13z"/></clipPath><clipPath clipPathUnits="userSpaceOnUse" id="cp6"><path d="m409.93 0.23l-409.87 0.12 0.05 183.2 409.88-0.13z"/></clipPath><clipPath clipPathUnits="userSpaceOnUse" id="cp7"><path d="m409.93-0.01l-409.87 0.13 0.05 183.02 409.88-0.12z"/></clipPath></defs><style>.a{fill:url(#g1)}.b{fill:#219ebc}.c{fill:#fff}</style><path class="a" d="m0 16c0-8.8 7.2-16 16-16h378c8.8 0 16 7.2 16 16v151h-410z"/><g clip-path="url(#cp1)"><g clip-path="url(#cp2)"><path class="b" d="m-36.5 137.8c-4.8 14.6 3.6 30 17.6 34.6 0.3 0.1 0.6 0.1 0.9 0.2-0.9 12.2 6.3 23.8 18 27.6 9.2 3 19.3 2.9 26.2-3.2 1.7 13.7 10.3 23.3 23.9 27.8 18.1 5.9 39 0.1 46.3-18 3.1 6.1 7.9 9 13.4 10.8 13.9 4.7 29.7-5.1 34.4-19.6 4.8-14.6-2.7-30.1-16.7-34.6q-2.7-0.9-5.5-1.2c4.2-18.6-5.8-37.6-23.7-43.5-14.7-4.8-30.5 0.8-39.8 12.9-0.7-14.9-10.1-28.4-24.6-33.1-17.5-5.7-36.3 3.1-44.2 20-11.1 0.3-22.5 7.7-26.2 19.3z"/></g><g clip-path="url(#cp3)"><path class="b" d="m106.4 169.6c0-15.3 12.8-27.4 27.5-27.4 0.3 0 0.6 0 0.9 0.1 3-11.9 13.3-20.7 25.7-20.7 9.6 0 19.2 3.2 23.9 11.2 5.8-12.6 17-19 31.3-19 19.1 0 37.1 11.9 38.5 31.4 4.8-4.8 10.3-6.1 16.1-6.1 14.7-0.2 26.6 14 26.6 29.3 0 15.3-11.9 27.7-26.6 27.7q-2.9 0-5.6-0.6c-1.7 19.1-17.2 34-36 34-15.5 0-28.8-10.2-33.9-24.5-5.3 14-18.3 23.8-33.6 23.8-18.4 0-33.5-14.2-35.9-32.7-10.4-3.7-18.9-14.3-18.9-26.5z"/></g><g clip-path="url(#cp4)"><path class="b" d="m453 138.9c4 14.7-5.2 29.8-19.4 33.6-0.3 0.1-0.6 0.1-0.8 0.2 0.2 12.2-7.5 23.4-19.5 26.6-9.3 2.5-19.3 2-25.9-4.5-2.4 13.6-11.5 22.8-25.3 26.5-18.4 5-39-1.8-45.4-20.3-3.4 6-8.3 8.6-13.9 10.1-14.2 4-29.4-6.6-33.4-21.4-4-14.7 4.3-29.8 18.4-33.6q2.8-0.8 5.6-0.9c-3.3-18.9 7.7-37.3 25.9-42.2 15-4.1 30.4 2.3 39.1 14.8 1.5-14.9 11.5-27.8 26.3-31.8 17.7-4.8 36 5 43.1 22.2 11.1 0.9 22 8.9 25.2 20.7z"/></g><path class="b" d="m110 222l-47.9-0.4 12.1-95.1 2.5-18.5 8.2-62.3 1.9-0.4q0 0 0 0l1.5-0.3 0.1 0.2 0.2 2.2 19.7 160.3z"/><path class="c" d="m105.3 221.9l-38.4 0.1 7.8-61.4 2.4-17.7 7.9-59.6 1.7-0.3q0 0 0 0h0.1l1.4-0.3v0.2l0.3 2.1z"/><g clip-path="url(#cp5)"><path class="c" d="m-36 166c-4.7 14.5 3.7 30 17.6 34.5 0.3 0.1 0.6 0.2 0.9 0.3-0.8 12.2 6.3 23.7 18.1 27.5 9.1 3 19.2 3 26.1-3.2 1.7 13.8 10.4 23.4 24 27.8 18.1 5.9 38.9 0.1 46.3-17.9 3 6.1 7.9 8.9 13.4 10.8 13.9 4.6 29.7-5.2 34.4-19.7 4.7-14.5-2.7-30-16.7-34.6q-2.8-0.9-5.6-1.1c4.3-18.7-5.7-37.7-23.6-43.5-14.8-4.8-30.6 0.8-39.9 12.8-0.7-14.9-10-28.3-24.5-33.1-17.5-5.7-36.3 3.2-44.3 20-11.1 0.3-22.4 7.8-26.2 19.4z"/></g><g clip-path="url(#cp6)"><path class="c" d="m107 197.8c0-15.3 12.8-27.4 27.4-27.4 0.3 0 0.6 0 0.9 0 3-11.9 13.4-20.6 25.7-20.6 9.7-0.1 19.3 3.1 23.9 11.1 5.9-12.5 17.1-19 31.4-19 19.1 0 37.1 12 38.5 31.5 4.8-4.9 10.2-6.1 16.1-6.2 14.6-0.1 26.6 14.1 26.6 29.4 0 15.3-11.9 27.7-26.6 27.7q-2.9 0-5.6-0.6c-1.8 19-17.2 34-36 34-15.6 0-28.8-10.2-33.9-24.6-5.3 14-18.4 23.9-33.6 23.9-18.4 0-33.6-14.3-35.9-32.7-10.5-3.7-18.9-14.4-18.9-26.5z"/></g><g clip-path="url(#cp7)"><path class="c" d="m453.6 167c4 14.8-5.2 29.8-19.4 33.6-0.3 0.1-0.6 0.2-0.9 0.2 0.2 12.3-7.5 23.4-19.4 26.7-9.3 2.5-19.4 1.9-26-4.6-2.4 13.7-11.5 22.8-25.3 26.6-18.4 4.9-38.9-1.9-45.3-20.3-3.4 5.9-8.4 8.5-14 10.1-14.1 3.9-29.3-6.6-33.3-21.4-4-14.8 4.2-29.9 18.4-33.7q2.8-0.7 5.6-0.9c-3.3-18.8 7.7-37.3 25.8-42.2 15-4.1 30.5 2.3 39.2 14.8 1.4-14.8 11.5-27.8 26.2-31.8 17.7-4.8 36.1 5.1 43.2 22.3 11.1 0.8 22 8.9 25.2 20.6z"/></g></g></svg>