<svg width="72" height="183" viewBox="0 0 72 183" fill="none" xmlns="http://www.w3.org/2000/svg">
<path d="M32.5529 182.981C35.6003 176.487 31.3675 170.074 28.187 165.163C26.3605 162.342 24.4203 159.494 23.7794 155.881C23.4652 154.111 23.4768 152.288 23.8193 150.521C23.9294 149.953 24.8275 146.164 25.7214 146.181C23.5694 146.14 22.3877 151.883 22.0503 153.966C21.685 156.221 21.4629 160.582 22.5557 162.645C20.6532 161.443 18.9975 157.127 18.1476 154.9C16.8355 151.462 15.3189 146.683 14.9227 142.869C14.034 134.315 17.8834 126.202 23.9408 121.998C36.0646 113.583 53.6055 123.304 52.8411 141.467C52.637 146.318 51.0164 150.773 48.3368 154.368C45.8005 157.77 41.3446 161.72 43.2537 167.02C40.6316 165.474 39.3143 158.262 39.9243 154.634C40.2001 152.994 40.6547 151.234 41.4292 149.853C42.2115 148.459 42.8804 147.523 43.6238 146.478C42.3253 147.247 42.9125 146.795 41.6068 147.94C40.6129 148.811 39.5087 150.79 38.7086 152.363C37.3144 155.105 36.5868 161.573 36.9635 164.681C37.7971 171.557 38.1473 178.826 32.5529 182.981Z" fill="#FB8500"/>
<path d="M34.4523 163.59C32.4546 159.34 35.2233 155.14 37.3036 151.923C38.4983 150.076 39.7675 148.21 40.1857 145.845C40.3906 144.685 40.3823 143.492 40.1574 142.335C40.0851 141.963 39.4956 139.483 38.9103 139.495C40.3192 139.467 41.0952 143.227 41.3169 144.59C41.5569 146.066 41.704 148.921 40.9894 150.273C42.2345 149.485 43.3168 146.658 43.8724 145.2C44.73 142.948 45.721 139.819 45.979 137.322C46.5574 131.721 44.034 126.411 40.0666 123.661C32.1259 118.157 20.6457 124.528 21.1533 136.419C21.2889 139.595 22.3516 142.511 24.1074 144.863C25.7692 147.09 28.6881 149.674 27.4402 153.144C29.1563 152.132 30.0159 147.41 29.6151 145.034C29.4338 143.961 29.1355 142.809 28.6279 141.905C28.1153 140.992 27.6769 140.38 27.1898 139.696C28.0402 140.199 27.6556 139.903 28.5109 140.652C29.162 141.222 29.8856 142.518 30.4101 143.547C31.324 145.342 31.8029 149.576 31.5574 151.611C31.0144 156.113 30.7881 160.872 34.4523 163.59Z" fill="#FFB703"/>
<path d="M31.9832 48.7957C32.7377 48.0407 32.9953 47.0748 32.5586 46.6382C32.1218 46.2017 31.156 46.4599 30.4014 47.2149C29.6468 47.97 29.3892 48.9359 29.826 49.3724C30.2628 49.8089 31.2286 49.5508 31.9832 48.7957Z" fill="white"/>
<path d="M50.4397 83.3371C50.4397 83.3371 59.2818 90.0305 63.9325 98.3434C69.8352 108.891 72.3669 128.933 70.3683 130.106C68.3696 131.279 65.4306 123.429 61.0155 118.979C53.7135 111.617 47.8173 112.414 47.8173 112.414L50.4397 83.3371Z" fill="#FB8500"/>
<path d="M48.1539 121.37L20.1719 120.83L20.0805 125.561L48.0626 126.102L48.1539 121.37Z" fill="#FFB703"/>
<path d="M19.0383 82.4787C19.0383 82.4787 10.45 89.4948 6.11013 97.974C0.601729 108.733 -1.18656 128.855 0.854144 129.953C2.89485 131.051 5.54137 123.098 9.78879 118.487C16.8133 110.86 22.735 111.438 22.735 111.438L19.0383 82.4787Z" fill="#FB8500"/>
<path d="M10.4804 61.8197C9.81316 96.4348 17.4705 117.143 18.593 121.121L49.9526 121.725C51.2285 117.793 59.6777 97.396 60.3449 62.7809C60.639 47.5251 56.5032 33.0733 51.1765 21.6581L21.2263 21.0807C15.4637 32.2822 10.7745 46.5638 10.4804 61.8197Z" fill="white" stroke="#FB8500" stroke-width="2.60845" stroke-miterlimit="10"/>
<path d="M33.137 3.47438C29.3398 7.57684 25.0461 13.6508 21.2245 21.0802L25.0889 22.0981C32.122 23.9507 39.4912 24.131 46.6066 22.6246L51.1746 21.6575C47.6422 14.0862 43.5857 7.85134 39.9494 3.60565C38.1745 1.5332 34.9905 1.47184 33.137 3.47438Z" fill="#FB8500" stroke="#FB8500" stroke-width="2.60845" stroke-miterlimit="10"/>
<path d="M34.8114 96.8629L34.8032 96.8627L34.7955 96.8626C32.6803 96.8218 31.2112 99.8399 31.1325 103.924C31.0538 108.008 31.0552 132.304 34.1112 132.363C34.1137 132.363 34.1163 132.363 34.119 132.363C34.1216 132.363 34.1242 132.363 34.1272 132.363C37.181 132.422 38.1195 108.144 38.1983 104.06C38.2769 99.9761 36.9262 96.9036 34.8114 96.8629Z" fill="#FB8500"/>
<path d="M35.8122 41.5066C29.8812 41.3923 24.979 46.109 24.8646 52.0405C24.7503 57.9711 29.4672 62.8734 35.3982 62.9877C41.33 63.102 46.2324 58.3852 46.3466 52.4546C46.461 46.5231 41.7441 41.621 35.8122 41.5066Z" fill="#459EBD" stroke="#023047" stroke-width="2.60845" stroke-miterlimit="10"/>
</svg>
