<svg version="1.2" xmlns="http://www.w3.org/2000/svg" viewBox="0 0 1440 558" width="1440" height="558"><defs><clipPath clipPathUnits="userSpaceOnUse" id="cp1"><path d="m0 0h1440v558h-1440z"/></clipPath></defs><style>.a{fill:#44a0f7}.b{fill:#3378b9}.c{opacity:.2;fill:#010f24}.d{fill:#fff}.e{fill:#02183a}.f{fill:#021e49}.g{fill:#032457}.h{display:none;fill:#fff}</style><g clip-path="url(#cp1)"><path class="a" d="m720 332c-194.2 0-351.5 157.4-351.5 351.5 0 67.7 19.1 130.9 52.2 184.5h598.6c33.1-53.6 52.2-116.8 52.2-184.5 0-194.1-157.4-351.5-351.5-351.5z"/><path class="b" d="m474.6 498.4c12.8 0 19.3 0.8 28.8 8.2 3.7 2.9 7.1 6.6 10.6 10.5 5.8 6.5 12.4 13.8 22 18.5 8.3 4 16.5 4.6 23.8 5.2 6.2 0.4 11.6 0.8 16.3 3.1 4.6 2.2 7.9 6.2 11.7 10.9 3.3 4.1 7.2 8.7 12.4 12.7 19.4 14.6 40.5 13.6 61 12.7 10.2-0.5 19.8-0.9 29.1 0.6 1.5 0.2 3.4 1.1 5.4 2 3.1 1.3 6.5 2.9 10.7 3.5 7.1 1 10.4 0.6 15.2-2 1-0.5 2-1.1 3.8-1.7 11.5-4.2 21.4-3.8 29.4 1.1 4.9 3.1 9.6 6.5 14 9.7 13.8 10 28 20.4 50.9 20.4 13.5 0 26.5 4.8 40.3 9.9 16.6 6.2 33.8 12.5 54 11.6 19.8-0.9 35.7 0.8 58.5 6.3 22.2 5.3 44.5 8.2 72.5 9.2 1.6 0.1 3.4 0.2 5.3 0.3 3.4 0.3 7 0.5 10.7 0.5 3 0 6-0.2 9-0.7q-0.9-9.6-2.3-19.1c-4.4 0.9-10.6 0.5-16.2 0.2q-3-0.2-5.8-0.4c-26.6-1-47.8-3.7-68.7-8.7-24.4-5.9-42.4-7.8-63.9-6.8-16.3 0.8-30.9-4.7-46.4-10.4-14.8-5.5-30.1-11.1-47-11.1-16.7 0-26.8-7.4-39.6-16.7-4.7-3.5-9.7-7-15.3-10.5-13-8-28.9-9-45.9-2.9-3.1 1.1-5 2.2-6.3 2.8q-0.2 0.2-0.4 0.3c-0.4 0-1.3-0.1-3.1-0.3-1.5-0.2-3.5-1.1-5.6-2.1-2.9-1.3-6.2-2.7-10.2-3.4-11.2-1.8-22.3-1.3-33-0.8-18.6 0.9-34.7 1.6-48.5-8.8-3.4-2.6-6.2-6-9.1-9.6-4.6-5.6-9.8-12-18.4-16.1-7.9-3.7-16-4.4-23.1-4.9-6.3-0.5-11.8-0.9-16.7-3.3-6.3-3-11.1-8.4-16.3-14.1-3.9-4.3-7.9-8.8-13-12.7-14.5-11.4-26-12.3-40.6-12.3-11.7 0-15.8-0.7-24.7-5.7-1.8-1.1-4.7-2.7-8.4-4.5q-5.9 7.7-11.5 15.8c3.7 1.7 7.2 3.5 10.4 5.3 12.5 7.2 20.3 8.3 34.2 8.3z"/><path class="b" d="m456.1 451.4c13.5 8.4 29.6 10.7 50.6 11.4 16.2 0.5 32.7-1 47.2 5.6 14.1 6.4 24.6 15.6 33.7 27.5 14.6 19.3 23.5 29.1 50.1 33.5 21.4 3.6 43.8 0.1 65.5 1.2 18.8 0.9 37.6 2.5 56.5 3.4 16.5 0.8 33.1 3 46.8 11.3 13.9 8.4 20.6 21.7 34.5 29.4 16.2 9.1 28.2 7.2 45.7 8 14 0.6 27 5.3 41.5 4.5 12.7-0.7 22.1-6.8 33.7-10.4 11-3.5 26.6-3.2 38.7-2 12.9 1.1 26.2 5.5 38.5 6.8 3.7 0.4 10.6 0.7 17.6 0.6-8.3-27.6-20-53.9-34.4-78.2-3.4 1-6.9 2.4-11.3 4.3-11 4.5-23.2 4.2-34.4 6.5-7.1 1.5-13.3 4.2-21.2 4.6-10.7 0.5-23.9 1.4-33.9-2-11.8-4.2-19.1-16.8-30.7-20.7-12.7-4.3-28.5 0.1-41.8-1.1-18.5-1.7-21-10.2-33.4-20.7-11.9-9.9-29-12.2-43.6-13.5-18.7-1.6-25-7-35.8-21.5-9.6-13-21.1-13.8-36.8-14.4-17.8-0.8-25.3-9.6-27.9-27.4-2.2-15.1-7.4-16.2-22.5-22.4-10.4-4.3-16.3-7.9-24.4-17-3.4-3.8-6.9-7.3-10.6-10.4-61.7 19.5-116.1 55.6-157.9 103.1z"/><path class="b" d="m1068.1 711.7c-4.2 2.5-8.1 4.8-12.4 5.4-9 1.3-19.4-2.9-28.4-6.5q-1.9-0.7-3.7-1.5c-11.2-4.3-22.5-10.1-33.4-15.7-17.2-8.8-35-18-54-22.5-10.6-2.5-19.4 0.8-28 3.9-3 1.1-5.7 2.1-8.6 2.9-11.3 3.1-22.1 2.6-33.9-1.7-6.9-2.5-14-7.2-20.8-11.7-8.7-5.9-17.7-11.9-27.4-14-9.6-2.1-18.8-1.7-27.6-1.3-13.7 0.7-25.5 1.2-37.8-7-4.9-3.3-9.1-7.3-13.5-11.5-4.8-4.6-9.8-9.3-15.9-13.2-13.8-8.7-29-16.4-46.9-14.5l-3 0.3c-9.9 1.1-18.5 2.1-29.2-1.3-23.5-7.4-42.7-10.7-66-4.5-7.4 1.9-25.7 5.7-36.8-1.4-4.9-3.1-8.3-7.9-12-13-4.3-5.9-8.7-12-15.8-16-14.7-8.2-18.4-11.9-27.6-28.2-7.4-13.3-12.7-15.1-27.2-17.3-7.2-1.1-10.8-4.5-15.7-9.2-2.8-2.7-5.9-5.7-10-8.5-3.7-2.4-7.4-4.2-11.3-5.4q-2.6 4.2-5.1 8.4c3.9 1.1 7.5 2.6 11 5 3.4 2.3 6.1 4.9 8.8 7.4 5.2 5 10.7 10.2 20.9 11.8 12.4 1.8 14.6 2.4 20.3 12.5 10.1 18 14.8 22.7 31.3 31.9 5.2 2.9 8.8 7.9 12.6 13.2 4.1 5.6 8.2 11.4 14.7 15.5 13.7 8.8 33.7 5.4 44.3 2.6 21.1-5.6 38.9-2.5 60.7 4.4 12.7 4 22.6 2.8 33.1 1.7l3-0.4c15-1.6 28.5 5.4 40.8 13.1 5.3 3.4 9.7 7.6 14.4 12.1 4.5 4.3 9.2 8.7 14.8 12.5 14.9 10 29.4 9.3 43.5 8.6 8.3-0.4 16.8-0.8 25.2 1.1 7.9 1.7 15.7 7 24.1 12.5 7.3 4.9 14.8 9.9 22.8 12.8 13.8 5 26.4 5.6 39.8 1.9 3.2-0.9 6.3-2 9.3-3.1 7.6-2.8 14.7-5.4 22.4-3.5 17.9 4.2 35.2 13.1 52 21.7 11.1 5.7 22.6 11.6 34.2 16.1q1.8 0.7 3.6 1.4c8.8 3.5 18.5 7.4 28.5 7.4q2.4 0 4.9-0.3c4.6-0.7 8.6-2.5 12.4-4.6q0.6-5.9 1-11.8-1.2 0.8-2.4 1.5z"/><path class="b" d="m420.7 868h598.6q3-4.9 5.9-9.9c-4.4-18.6-14-36-24.7-51.4-9.3-13.3-19-33.4-32.8-42.7-26.1-17.3-67.4-2-92.3-21.5-9-7.1-16.5-20.9-27.4-24.2-3.4-0.9-12.5 1.2-16 1.2-19.4 0.3-38.9-0.1-58.3 0-27.8 0.1-50.8-25.1-75-37.5-20.3-10.3-42.8-11.4-64.5-16.8-6.8-1.7-13.3-2.8-19.2-6.5-5.2-3.3-8.1-10-13.3-13-13.6-7.8-41-7.8-56.9-9.6-11-1.3-21.3-0.8-31.7-5.9-18.2-9-21.1-24.6-30.4-39.4-9.8-15.4-34.5-16-49.2-27.3-8.3-6.4-15.1-15-24-20.7-2.5-1.5-5.9-2.9-9.9-4-20 44.1-31.1 93.1-31.1 144.7 0 67.7 19.1 130.9 52.2 184.5z"/><path class="c" d="m920.3 769.6c-204.1 0-369.6-165.5-369.6-369.6q0-12.6 0.9-25.1c-109.1 59.7-183.1 175.5-183.1 308.6 0 67.7 19.1 130.9 52.2 184.5h598.6c23.8-38.6 40.4-82.2 47.9-128.8-45.1 19.5-94.7 30.4-146.9 30.4z"/><g style="opacity:.2"><path class="d" d="m919.7 428.3c-5.7 16.6-50.8 16-100.7-1.2-50-17.1-85.8-44.5-80.1-61 5.7-16.6 50.8-16 100.7 1.2 49.9 17.1 85.7 44.5 80.1 61z"/><path class="d" d="m954.1 451.6c0 6.2-5.1 11.2-11.2 11.2-6.2 0-11.3-5-11.3-11.2 0-6.2 5.1-11.2 11.3-11.2 6.1 0 11.2 5 11.2 11.2z"/><path class="d" d="m920.3 458.9c0 4-3.3 7.3-7.4 7.3-4 0-7.3-3.3-7.3-7.3 0-4 3.3-7.3 7.3-7.3 4.1 0 7.4 3.3 7.4 7.3z"/></g><path class="e" d="m1440 284.5l-21.5 15.9-38.4-30.5h-8.8l-9.6-14.1-8 9.4-9.6-12.3-6.4 6.4-13.6-0.6-8.8-14.3-8.8 16.7-8-7.7v-4.6l-12.8-11.2h-10.4v6.8l-8.8-6.8-10.5 8.3-20.2-16.4-10.5 7.9-5-7.9-23.5 4.8-14.4-10.6-15.9 20.9-10.9-13-13 13.3-10.4-5.9-34.7 14.1-8.7-4.5-6.5 4.2-4-6.1-17.3-0.3-6.5 7.2-10.8-4.5-4.7 7.7-10.1-2.4-18.1 19.3-17.3-5.8-23.1 27-6.9-4.8-8.3 10.3-26.7-31.4v-8.8l-9.8-1.3-7.9-10.9-8.3-0.8v10.1l-4.4 0.3v-14.6l-6.1-6.9-10.1 5.6v5.3l-9 0.2v5.9l-4.4 1.3-1.8-5-6.8 0.7-8.3 7.2-6.5 9.3-11.2 20.9-13 12.9-13.4 8.5-11.6-1.5-3.6-7.5-6.8-1.8v-4.8l-11.2-2.1-1.5-9.5-7.6-0.8v-8c0 0-11.5-6.9-12.6-7.7-1.1-0.7-10.8 1.1-10.8 1.1l-9.1 9.8-4.6 10.3-17.7 16.2-11.2 1.3-16.3 10.6-14.4 6.4-10.9-6.7-31 1.9-14.1 8.7-7.6-2.9-32.5-61.4-7.6-0.3-5.4-13.5-13-2.3-3.6-3.8-8.3-0.5-7.6 8.7-5.8-0.8-10.8 13.3v10.8l-9.8 2.2-10.4 15.6-15.2 0.2-15.5 4.3-24.6-24.1-11.9 0.5-28.9-25.7-9.4-15.6-8.7-0.3-4.6-5.5-9.4-3.2-3.3-5h-9.4v-8h-6.8l-26 22v9.3l-8.3 0.5-7.6 7.9-8.3-1.3-3.3 3.7-1.4 29.9-7.2 6.9h-5.1l-8 10.6-2.1 11.9h-6.9l-11.2 23.1-19.8 11.9-2.6 8.5-29.9 3.4-15.6 13.8-35.4 3.2-36.4-6.6-22.4 3.7-19.9 9-16.2-8-5.8-4-7.2-14.8-17-4.8-6.9 11.7-11.9-5v110.1h1440z"/><path class="f" d="m0 356.6l19.6-4.4 19.5 9.9 29.5-5.2 7.1 9.8 13-0.5 30.7 5.2 12.4 8.2 20.6-6.2 25.4 6.2 20.7 2.6 30.7-11.4c0 0 36.6-23.7 39.5-24.8 3-1 34.9 5.7 34.9 5.7l22.4 4.2 26.6-15.5c0 0 28.9-9.3 31.8-8 3 1.2 14.8 10.4 14.8 10.4l24.8 7.9 36.6 8.8c0 0 32.5-1.6 36-4.7 3.6-3.1 54.9-6.2 67.9-12.4 13-6.2 41.3 9.3 41.3 9.3l64.4 0.5c0 0 100.3-5.1 109.8-10.8 9.4-5.7 66.7-4.1 66.7-4.1l57.3 22.2 124.5-28.4 20.1-4.7 30.7 9.8 8.3 1.1 21.8-8.3c0 0 36.6-6.7 38.4-7.2 1.8-0.6 33.6 7.2 33.6 7.2l32.5 23.8h17.1l19.5-10.9 12.4-6.2 46.6 3.6 17.2 13.5h11.8l9.4-6.8 30.1-21.1 23.1-7.8 8.8 5.2 30.1-17.1v159.2h-1440z"/><path class="g" d="m1440 448.4c-5.3-1.2-11.1-2-18-2.3-43.5-1.5-85.6 1.5-127.8-5.3-41.4-6.6-85.8-14.9-129.2-19.9-60.5-6.9-125.3-3.3-186.5-2.9-83.7 0.7-168.6 0.6-252.4 3.3-64.2 2-129.4 1.1-192.7 8.2-31.3 3.5-55.3 11.5-87 10.4-25.5-0.9-49-2.9-74.3-5.7-32.5-3.7-58.1 2.3-89.3 5.4-28.9 2.8-58.3 1.5-87.3 3.6-65 4.6-130.1 6.5-195.5 7.4v107.4h1440z"/><path class="h" d="m481 432v-19.3h-6.9v-3.1h17.2v3.1h-6.9v19.3zm13.6 0v-22.4h3.3v8.9h0.5q0.3-0.6 0.9-1.2 0.6-0.6 1.6-0.9 1-0.4 2.5-0.4 1.8 0 3.1 0.8 1.4 0.8 2.2 2.2 0.8 1.5 0.8 3.5v9.5h-3.3v-9.2q0-2.1-1-3-1-1-2.8-1-2 0-3.3 1.3-1.2 1.4-1.2 3.9v8zm26.9 0.4q-2.4 0-4.2-0.9-1.8-1.1-2.8-2.9-1-1.8-1-4.3v-0.4q0-2.4 1-4.3 1-1.8 2.8-2.8 1.7-1 4.1-1 2.3 0 4 1 1.7 1 2.6 2.8 1 1.8 1 4.2v1.2h-12.1q0 2.1 1.3 3.4 1.4 1.2 3.4 1.2 1.8 0 2.8-0.9 0.9-0.8 1.4-1.9l2.8 1.4q-0.5 0.9-1.4 1.9-0.8 1-2.2 1.7-1.3 0.6-3.5 0.6zm-4.6-9.9h8.7q-0.1-1.8-1.2-2.8-1.2-1-3-1-1.9 0-3.1 1-1.1 1-1.4 2.8zm24.2 9.5v-15.8h3.3v1.9h0.5q0.4-0.9 1.4-1.5 1-0.6 2.7-0.6 1.8 0 2.8 0.7 1.1 0.7 1.6 1.8h0.6q0.5-1.1 1.5-1.8 1.1-0.7 3-0.7 1.5 0 2.7 0.6 1.2 0.6 1.9 1.9 0.7 1.2 0.7 3v10.5h-3.3v-10.2q0-1.5-0.8-2.2-0.8-0.8-2.2-0.8-1.5 0-2.5 0.9-0.9 1-0.9 2.9v9.4h-3.3v-10.2q0-1.5-0.8-2.2-0.7-0.8-2.2-0.8-1.5 0-2.5 0.9-0.9 1-0.9 2.9v9.4zm34.9 0.4q-2.4 0-4.3-0.9-1.8-1-2.9-2.8-1-1.9-1-4.3v-0.5q0-2.5 1-4.3 1.1-1.8 2.9-2.8 1.9-1 4.3-1 2.3 0 4.2 1 1.8 1 2.9 2.8 1 1.8 1 4.3v0.5q0 2.4-1 4.3-1.1 1.8-2.9 2.8-1.9 0.9-4.2 0.9zm0-2.9q2.1 0 3.5-1.4 1.3-1.4 1.3-3.8v-0.3q0-2.5-1.3-3.9-1.3-1.4-3.5-1.4-2.2 0-3.6 1.4-1.3 1.4-1.3 3.9v0.3q0 2.4 1.3 3.8 1.4 1.4 3.6 1.4zm12.2 2.5v-15.8h3.3v1.9h0.5q0.4-1 1.2-1.5 0.9-0.4 2.1-0.4h1.9v2.9h-2q-1.6 0-2.6 0.9-1.1 0.9-1.1 2.7v9.3zm19.1 0.4q-2.4 0-4.2-0.9-1.8-1.1-2.8-2.9-1-1.8-1-4.3v-0.4q0-2.4 1-4.3 1-1.8 2.7-2.8 1.8-1 4.2-1 2.2 0 3.9 1 1.8 1 2.7 2.8 1 1.8 1 4.2v1.2h-12.2q0.1 2.1 1.4 3.4 1.4 1.2 3.4 1.2 1.8 0 2.7-0.9 1-0.8 1.5-1.9l2.7 1.4q-0.4 0.9-1.3 1.9-0.8 1-2.2 1.7-1.4 0.6-3.5 0.6zm-4.6-9.9h8.7q-0.1-1.8-1.3-2.8-1.1-1-3-1-1.8 0-3 1-1.2 1-1.4 2.8zm26 15.9v-2.9h8.8q0.9 0 0.9-0.9v-4.9h-0.5q-0.3 0.6-0.9 1.2-0.6 0.6-1.6 1-0.9 0.4-2.5 0.4-1.7 0-3.2-0.8-1.4-0.8-2.2-2.3-0.8-1.5-0.8-3.5v-9.5h3.3v9.3q0 2 1.1 3 1 1 2.8 1 2 0 3.2-1.4 1.3-1.3 1.3-3.9v-8h3.3v19q0 1.5-0.9 2.3-0.8 0.9-2.3 0.9zm25.2-6q-2.3 0-4.2-0.9-1.8-1-2.9-2.8-1-1.9-1-4.3v-0.5q0-2.5 1-4.3 1.1-1.8 2.9-2.8 1.9-1 4.2-1 2.4 0 4.3 1 1.8 1 2.9 2.8 1 1.8 1 4.3v0.5q0 2.4-1 4.3-1.1 1.8-2.9 2.8-1.9 0.9-4.3 0.9zm0-2.9q2.2 0 3.6-1.4 1.3-1.4 1.3-3.8v-0.3q0-2.5-1.3-3.9-1.4-1.4-3.6-1.4-2.1 0-3.5 1.4-1.3 1.4-1.3 3.9v0.3q0 2.4 1.3 3.8 1.4 1.4 3.5 1.4zm18.4 2.8q-1.8 0-3.2-0.8-1.4-0.8-2.2-2.3-0.8-1.5-0.8-3.5v-9.5h3.3v9.3q0 2 1 3 1 1 2.8 1 2.1 0 3.3-1.4 1.2-1.3 1.2-3.9v-8h3.3v15.8h-3.2v-2.4h-0.5q-0.5 1-1.6 1.9-1.2 0.8-3.4 0.8zm21.7-0.3v-15.8h3.3v1.9h0.5q0.4-1 1.2-1.5 0.9-0.4 2.1-0.4h1.9v2.9h-2q-1.6 0-2.6 0.9-1.1 0.9-1.1 2.7v9.3zm19.1 0.4q-2.4 0-4.2-0.9-1.8-1.1-2.8-2.9-1-1.8-1-4.3v-0.4q0-2.4 1-4.3 1-1.8 2.7-2.8 1.8-1 4.2-1 2.2 0 3.9 1 1.8 1 2.7 2.8 1 1.8 1 4.2v1.2h-12.2q0.1 2.1 1.4 3.4 1.4 1.2 3.4 1.2 1.8 0 2.7-0.9 1-0.8 1.5-1.9l2.7 1.4q-0.4 0.9-1.3 1.9-0.8 1-2.2 1.7-1.4 0.6-3.5 0.6zm-4.6-9.9h8.7q-0.1-1.8-1.3-2.8-1.1-1-3-1-1.8 0-3 1-1.2 1-1.4 2.8zm18.3 9.5v-13h-4.4v-2.8h4.4v-3.4q0-1.5 0.9-2.3 0.8-0.9 2.3-0.9h4v2.8h-3q-0.9 0-0.9 0.9v2.9h4.5v2.8h-4.5v13zm17.8 0.4q-2.4 0-4.2-0.9-1.8-1.1-2.8-2.9-1-1.8-1-4.3v-0.4q0-2.4 1-4.3 1-1.8 2.7-2.8 1.8-1 4.2-1 2.2 0 3.9 1 1.8 1 2.7 2.8 1 1.8 1 4.2v1.2h-12.2q0.1 2.1 1.4 3.4 1.4 1.2 3.3 1.2 1.9 0 2.8-0.9 1-0.8 1.5-1.9l2.7 1.4q-0.4 0.9-1.3 1.9-0.8 1-2.2 1.7-1.4 0.6-3.5 0.6zm-4.6-9.9h8.7q-0.1-1.8-1.3-2.8-1.1-1-3-1-1.8 0-3 1-1.2 1-1.4 2.8zm16 9.5v-15.8h3.3v1.9h0.5q0.4-1 1.2-1.5 0.9-0.4 2.1-0.4h1.9v2.9h-2q-1.6 0-2.6 0.9-1.1 0.9-1.1 2.7v9.3zm10.2 4.4v-1.9h1q1.4 0 1.4-1.3v-1.1h-0.5q-1.1 0-1.9-0.6-0.7-0.7-0.7-1.7 0-1.2 0.7-1.8 0.8-0.7 1.9-0.7 1.1 0 1.8 0.7 0.7 0.7 0.7 1.9v3.3q0 3.2-3.1 3.2zm21.8-4.4q-1.5 0-2.3-0.9-0.9-0.8-0.9-2.3v-9.8h-4.3v-2.8h4.3v-5.2h3.3v5.2h4.7v2.8h-4.7v9.3q0 0.9 0.9 0.9h3.3v2.8zm8.8 0v-22.4h3.3v8.9h0.5q0.3-0.6 0.9-1.2 0.6-0.6 1.5-0.9 1-0.4 2.5-0.4 1.8 0 3.2 0.8 1.4 0.8 2.2 2.2 0.8 1.5 0.8 3.5v9.5h-3.3v-9.2q0-2.1-1-3-1-1-2.8-1-2.1 0-3.3 1.3-1.2 1.4-1.2 3.9v8zm26.9 0.4q-2.4 0-4.2-0.9-1.8-1.1-2.8-2.9-1-1.8-1-4.3v-0.4q0-2.4 1-4.3 1-1.8 2.7-2.8 1.8-1 4.1-1 2.3 0 4 1 1.7 1 2.7 2.8 1 1.8 1 4.2v1.2h-12.2q0.1 2.1 1.4 3.4 1.3 1.2 3.3 1.2 1.9 0 2.8-0.9 1-0.8 1.5-1.9l2.7 1.4q-0.4 0.9-1.3 1.9-0.8 1-2.2 1.7-1.4 0.6-3.5 0.6zm-4.6-9.9h8.7q-0.1-1.8-1.3-2.8-1.1-1-3-1-1.8 0-3 1-1.2 1-1.4 2.8zm33.3 9.9q-2.3 0-3.5-0.8-1.3-0.8-1.9-1.8h-0.5v2.2h-3.2v-22.4h3.3v8.8h0.5q0.4-0.7 1-1.2 0.7-0.7 1.7-1 1.1-0.4 2.6-0.4 2 0 3.7 0.9 1.6 1 2.6 2.8 1 1.8 1 4.4v0.5q0 2.5-1 4.3-1 1.8-2.7 2.8-1.6 0.9-3.6 0.9zm-1-2.8q2.2 0 3.6-1.4 1.4-1.4 1.4-3.9v-0.3q0-2.6-1.4-3.9-1.4-1.4-3.6-1.4-2.1 0-3.5 1.4-1.4 1.3-1.4 3.9v0.3q0 2.5 1.4 3.9 1.4 1.4 3.5 1.4zm12.4 2.4v-15.8h3.2v1.9h0.5q0.4-1 1.2-1.5 0.9-0.4 2.2-0.4h1.8v2.9h-2q-1.6 0-2.6 0.9-1 0.9-1 2.7v9.3zm12.4 0v-15.8h3.2v15.8zm1.7-17.9q-0.9 0-1.6-0.6-0.7-0.7-0.7-1.7 0-1 0.7-1.6 0.7-0.6 1.6-0.6 1 0 1.6 0.6 0.7 0.6 0.7 1.6 0 1-0.7 1.7-0.6 0.6-1.6 0.6zm5.8 10.1v-0.5q0-2.5 1-4.2 1-1.8 2.6-2.8 1.7-0.9 3.7-0.9 2.3 0 3.5 0.8 1.3 0.9 1.8 1.9h0.6v-2.3h3.2v19q0 1.5-0.9 2.3-0.8 0.9-2.3 0.9h-10.6v-2.9h9.6q0.9 0 0.9-0.9v-5.1h-0.5q-0.4 0.6-1 1.2-0.7 0.6-1.7 1-1 0.4-2.6 0.4-2 0-3.7-0.9-1.6-1-2.6-2.8-1-1.7-1-4.2zm8.2 5q2.1 0 3.5-1.3 1.4-1.4 1.4-3.8v-0.3q0-2.5-1.4-3.8-1.3-1.3-3.5-1.3-2.1 0-3.5 1.3-1.4 1.3-1.4 3.8v0.3q0 2.4 1.4 3.8 1.4 1.3 3.5 1.3zm13 2.8v-22.4h3.3v8.9h0.5q0.3-0.6 0.9-1.2 0.6-0.6 1.6-0.9 1-0.4 2.5-0.4 1.8 0 3.1 0.8 1.4 0.8 2.2 2.2 0.8 1.5 0.8 3.5v9.5h-3.2v-9.2q0-2.1-1.1-3-1-1-2.8-1-2 0-3.3 1.3-1.2 1.4-1.2 3.9v8zm25.2 0q-1.5 0-2.3-0.9-0.9-0.8-0.9-2.3v-9.8h-4.3v-2.8h4.3v-5.2h3.3v5.2h4.7v2.8h-4.7v9.3q0 0.9 0.9 0.9h3.3v2.8zm15.4 0.4q-2.4 0-4.2-0.9-1.8-1.1-2.8-2.9-1-1.8-1-4.3v-0.4q0-2.4 1-4.3 1-1.8 2.8-2.8 1.8-1 4.1-1 2.3 0 4 1 1.7 1 2.7 2.8 0.9 1.8 0.9 4.2v1.2h-12.1q0.1 2.1 1.4 3.4 1.3 1.2 3.3 1.2 1.8 0 2.8-0.9 0.9-0.8 1.4-1.9l2.8 1.4q-0.5 0.9-1.3 1.9-0.9 1-2.3 1.7-1.3 0.6-3.5 0.6zm-4.6-9.9h8.8q-0.2-1.8-1.3-2.8-1.2-1-3-1-1.9 0-3.1 1-1.1 1-1.4 2.8zm16.1 9.5v-15.8h3.2v1.9h0.5q0.4-1 1.2-1.5 0.9-0.4 2.2-0.4h1.8v2.9h-2q-1.6 0-2.6 0.9-1 0.9-1 2.7v9.3zm-383.9 47.4v-2.9h8.8q0.9 0 0.9-0.9v-4.9h-0.5q-0.3 0.6-0.9 1.2-0.6 0.6-1.6 1-1 0.4-2.5 0.4-1.8 0-3.2-0.8-1.4-0.8-2.2-2.3-0.8-1.5-0.8-3.5v-9.5h3.3v9.3q0 2 1.1 3 1 1 2.8 1 2 0 3.2-1.4 1.3-1.3 1.3-3.9v-8h3.3v19q0 1.5-0.9 2.3-0.8 0.9-2.3 0.9zm25.2-6q-2.3 0-4.2-0.9-1.8-1-2.9-2.8-1-1.9-1-4.3v-0.5q0-2.5 1-4.3 1.1-1.8 2.9-2.8 1.9-1 4.2-1 2.4 0 4.3 1 1.8 1 2.9 2.8 1 1.8 1 4.3v0.5q0 2.4-1 4.3-1.1 1.8-2.9 2.8-1.9 0.9-4.3 0.9zm0-2.9q2.2 0 3.6-1.4 1.3-1.4 1.3-3.8v-0.3q0-2.5-1.3-3.9-1.4-1.4-3.6-1.4-2.1 0-3.5 1.4-1.3 1.4-1.3 3.9v0.3q0 2.4 1.3 3.8 1.4 1.4 3.5 1.4zm18.4 2.8q-1.8 0-3.2-0.8-1.4-0.8-2.2-2.3-0.8-1.5-0.8-3.5v-9.5h3.3v9.3q0 2 1 3 1 1 2.8 1 2.1 0 3.3-1.4 1.2-1.3 1.2-3.9v-8h3.3v15.8h-3.2v-2.4h-0.5q-0.5 1-1.6 1.9-1.2 0.8-3.4 0.8zm13.6-0.3v-15.8h3.2v1.9h0.5q0.4-1 1.2-1.5 0.9-0.4 2.2-0.4h1.8v2.9h-2q-1.6 0-2.6 0.9-1 0.9-1 2.7v9.3zm20.5 0v-15.8h3.2v1.9h0.6q0.3-1 1.2-1.5 0.8-0.4 2.1-0.4h1.9v2.9h-2q-1.6 0-2.7 0.9-1 0.9-1 2.7v9.3zm19.1 0.4q-2.4 0-4.2-0.9-1.8-1.1-2.9-2.9-0.9-1.8-0.9-4.3v-0.4q0-2.4 0.9-4.3 1-1.8 2.8-2.8 1.8-1 4.1-1 2.3 0 4 1 1.7 1 2.7 2.8 0.9 1.8 0.9 4.2v1.2h-12.1q0.1 2.1 1.4 3.4 1.3 1.2 3.3 1.2 1.9 0 2.8-0.9 1-0.8 1.5-1.9l2.7 1.4q-0.5 0.9-1.3 1.9-0.9 1-2.2 1.7-1.4 0.6-3.5 0.6zm-4.7-9.9h8.8q-0.1-1.8-1.3-2.8-1.2-1-3-1-1.9 0-3 1-1.2 1-1.5 2.8zm17.6 9.5l-2.6-15.8h3.3l1.9 13.6h0.6l2.7-13.6h5.3l2.8 13.6h0.5l2-13.6h3.3l-2.7 15.8h-5.6l-2.7-13.5h-0.5l-2.7 13.5zm28.4 0.4q-1.7 0-3.1-0.5-1.3-0.6-2.1-1.7-0.7-1.1-0.7-2.7 0-1.7 0.7-2.7 0.8-1.1 2.2-1.7 1.3-0.5 3.1-0.5h4.8v-1q0-1.4-0.9-2.2-0.8-0.9-2.5-0.9-1.7 0-2.6 0.8-0.9 0.8-1.2 2.1l-3.1-1q0.4-1.3 1.2-2.3 0.9-1 2.3-1.7 1.4-0.6 3.4-0.6 3.1 0 4.8 1.5 1.8 1.6 1.8 4.5v6.5q0 0.9 0.9 0.9h1.3v2.8h-2.4q-1.1 0-1.8-0.6-0.8-0.6-0.8-1.5v-0.1h-0.4q-0.3 0.4-0.8 1.1-0.5 0.6-1.5 1.1-1 0.4-2.6 0.4zm0.5-2.7q1.9 0 3.2-1.1 1.2-1.1 1.2-3.1v-0.3h-4.6q-1.4 0-2.2 0.5-0.8 0.6-0.8 1.7 0 1 0.9 1.7 0.8 0.6 2.3 0.6zm13 2.3v-15.8h3.3v1.9h0.5q0.4-1 1.2-1.5 0.9-0.4 2.1-0.4h1.9v2.9h-2q-1.6 0-2.6 0.9-1.1 0.9-1.1 2.7v9.3zm18.4 0.4q-2 0-3.6-0.9-1.7-1-2.7-2.8-1-1.8-1-4.3v-0.5q0-2.6 1-4.4 1-1.8 2.6-2.8 1.7-0.9 3.7-0.9 1.5 0 2.5 0.4 1.1 0.3 1.8 1 0.6 0.5 1 1.2h0.5v-8.8h3.3v22.4h-3.2v-2.2h-0.5q-0.7 1-1.9 1.8-1.2 0.8-3.5 0.8zm0.9-2.8q2.2 0 3.5-1.4 1.4-1.4 1.4-3.9v-0.3q0-2.6-1.3-3.9-1.4-1.4-3.6-1.4-2.1 0-3.5 1.4-1.4 1.3-1.4 3.9v0.3q0 2.5 1.4 3.9 1.4 1.4 3.5 1.4zm19.5 2.8q-3 0-5-1.3-2-1.3-2.4-4.1l3.1-0.7q0.2 1.3 0.8 2.1 0.6 0.8 1.5 1.1 1 0.3 2 0.3 1.6 0 2.4-0.6 0.9-0.6 0.9-1.6 0-0.9-0.8-1.4-0.8-0.4-2.4-0.7l-1.1-0.2q-1.6-0.3-2.9-0.9-1.3-0.5-2.1-1.5-0.7-0.9-0.7-2.4 0-2.3 1.6-3.5 1.7-1.2 4.4-1.2 2.7 0 4.4 1.2 1.7 1.2 2.2 3.2l-3 0.9q-0.3-1.5-1.3-2-0.9-0.6-2.3-0.6-1.3 0-2.1 0.5-0.7 0.5-0.7 1.4 0 0.9 0.7 1.4 0.8 0.4 2 0.6l1.2 0.2q1.7 0.3 3.1 0.8 1.4 0.5 2.2 1.5 0.8 1 0.8 2.6 0 2.3-1.7 3.6-1.8 1.3-4.8 1.3zm25 0q-3 0-5-1.3-2-1.3-2.4-4.1l3-0.7q0.3 1.3 0.9 2.1 0.6 0.8 1.5 1.1 0.9 0.3 2 0.3 1.6 0 2.4-0.6 0.8-0.6 0.8-1.6 0-0.9-0.8-1.4-0.8-0.4-2.3-0.7l-1.1-0.2q-1.6-0.3-2.9-0.9-1.3-0.5-2.1-1.5-0.8-0.9-0.8-2.4 0-2.3 1.7-3.5 1.7-1.2 4.4-1.2 2.7 0 4.4 1.2 1.7 1.2 2.2 3.2l-3.1 0.9q-0.3-1.5-1.2-2-0.9-0.6-2.3-0.6-1.3 0-2.1 0.5-0.8 0.5-0.8 1.4 0 0.9 0.8 1.4 0.7 0.4 2 0.6l1.1 0.2q1.7 0.3 3.1 0.8 1.4 0.5 2.2 1.5 0.9 1 0.9 2.6 0 2.3-1.8 3.6-1.7 1.3-4.7 1.3zm10.3-0.4v-22.4h3.3v8.9h0.5q0.4-0.6 0.9-1.2 0.6-0.6 1.6-0.9 1-0.4 2.5-0.4 1.8 0 3.2 0.8 1.4 0.8 2.2 2.2 0.8 1.5 0.8 3.5v9.5h-3.3v-9.2q0-2.1-1-3-1.1-1-2.9-1-2 0-3.3 1.3-1.2 1.4-1.2 3.9v8zm19.7 0v-15.8h3.3v15.8zm1.7-17.9q-1 0-1.7-0.6-0.6-0.7-0.6-1.7 0-1 0.6-1.6 0.7-0.6 1.7-0.6 1 0 1.6 0.6 0.6 0.6 0.6 1.6 0 1-0.6 1.7-0.6 0.6-1.6 0.6zm6.5 17.9v-15.8h3.2v2.4h0.5q0.5-1 1.6-1.8 1.2-0.8 3.5-0.8 1.8 0 3.1 0.8 1.4 0.8 2.2 2.2 0.8 1.5 0.8 3.5v9.5h-3.3v-9.2q0-2.1-1-3-1-1-2.8-1-2 0-3.3 1.3-1.2 1.4-1.2 3.9v8zm26.9 0.4q-2.4 0-4.2-0.9-1.8-1.1-2.8-2.9-1-1.8-1-4.3v-0.4q0-2.4 1-4.3 1-1.8 2.8-2.8 1.8-1 4.1-1 2.3 0 4 1 1.7 1 2.6 2.8 1 1.8 1 4.2v1.2h-12.1q0 2.1 1.4 3.4 1.3 1.2 3.3 1.2 1.8 0 2.8-0.9 0.9-0.8 1.4-1.9l2.8 1.4q-0.5 0.9-1.4 1.9-0.8 1-2.2 1.7-1.3 0.6-3.5 0.6zm-4.6-9.9h8.7q-0.1-1.8-1.2-2.8-1.2-1-3-1-1.9 0-3.1 1-1.1 1-1.4 2.8zm16.4 2.8v-15.7h3.3v15.7zm1.7 7.1q-1.1 0-1.9-0.7-0.7-0.7-0.7-1.9 0-1.1 0.7-1.8 0.8-0.8 1.9-0.8 1.1 0 1.9 0.8 0.7 0.7 0.7 1.8 0 1.2-0.7 1.9-0.8 0.7-1.9 0.7z"/></g></svg>