<svg width="202" height="188" viewBox="0 0 202 188" fill="none" xmlns="http://www.w3.org/2000/svg">
<path d="M90.2356 72.2796L85.357 68.2539L84.332 74.3607L88.1685 75.5531L90.2356 72.2796Z" fill="#FBB150"/>
<path d="M107.15 75.3041L106.547 69.0098L101.504 72.6028L103.373 76.1586L107.15 75.3041Z" fill="#FBB150"/>
<path d="M116.969 89.3997L120.995 84.5226L114.888 83.4961L113.695 87.3326L116.969 89.3997Z" fill="#FBB150"/>
<path d="M113.951 106.316L120.246 105.714L116.653 100.67L113.098 102.54L113.951 106.316Z" fill="#FBB150"/>
<path d="M99.8555 116.135L104.732 120.161L105.758 114.054L101.923 112.861L99.8555 116.135Z" fill="#FBB150"/>
<path d="M82.9414 113.115L83.5431 119.411L88.586 115.818L86.7174 112.262L82.9414 113.115Z" fill="#FBB150"/>
<path d="M73.1038 99.0156L69.0781 103.893L75.1849 104.919L76.3774 101.083L73.1038 99.0156Z" fill="#FBB150"/>
<path d="M76.124 82.1016L69.8281 82.7048L73.4211 87.7477L76.9769 85.8791L76.124 82.1016Z" fill="#FBB150"/>
<path d="M89.0023 75.8128C93.4203 74.3659 98.2306 74.5567 102.521 76.3478L103.373 76.1555L101.504 72.5997L96.2922 62.6875L90.2351 72.2802L88.168 75.5538L89.0023 75.8128Z" fill="#FBA12B"/>
<path d="M102.523 76.3492C105.012 77.3897 107.329 78.9498 109.278 81.0603C109.513 81.313 109.74 81.572 109.954 81.8388C111.243 83.3879 112.239 85.0906 112.969 86.8724L113.699 87.333L114.892 83.4965L118.217 72.8027L107.151 75.3025L103.375 76.1554L102.523 76.3492Z" fill="#FBA12B"/>
<path d="M116.971 89.3988L113.698 87.3317L112.967 86.8711C114.915 91.6271 114.872 96.9709 112.902 101.684L113.095 102.535L116.65 100.666L126.563 95.4543L116.971 89.3988Z" fill="#FBA12B"/>
<path d="M112.902 101.686C111.894 104.097 110.397 106.347 108.384 108.257C108.321 108.321 108.256 108.382 108.191 108.442C106.441 110.058 104.467 111.267 102.386 112.12L101.918 112.863L105.754 114.056L116.448 117.38L113.948 106.314L113.096 102.538L112.902 101.686Z" fill="#FBA12B"/>
<path d="M102.384 112.12C97.6249 114.069 92.2796 114.038 87.5623 112.068L86.7109 112.261L88.5796 115.816L93.7915 125.729L99.8486 116.136L101.916 112.862L102.384 112.12Z" fill="#FBA12B"/>
<path d="M87.5604 112.07C85.0715 111.029 82.7548 109.469 80.8055 107.359C79.1897 105.609 77.9801 103.635 77.1272 101.554L76.3844 101.086L75.1919 104.922L71.8672 115.616L82.9331 113.116L86.7091 112.263L87.5604 112.07Z" fill="#FBA12B"/>
<path d="M77.1286 101.554C75.1794 96.7949 75.2104 91.4495 77.1798 86.7322L76.9875 85.8809L73.4317 87.7495L63.5195 92.9599L73.1123 99.017L76.3858 101.084L77.1286 101.554Z" fill="#FBA12B"/>
<path d="M77.1871 86.7323C78.2276 84.2434 79.7877 81.9267 81.8982 79.9774C84.0087 78.0266 86.4418 76.6542 89.0051 75.8153L88.1709 75.5563L84.3344 74.3638L73.6406 71.0391L76.1404 82.105L76.9933 85.881L77.1871 86.7323Z" fill="#FBA12B"/>
<path d="M49.123 99.7227C49.0129 100.982 48.957 102.255 48.957 103.509C48.9586 103.877 48.9632 104.248 48.9725 104.617L50.7729 104.57C50.7636 104.217 50.759 103.86 50.7574 103.508C50.7574 102.309 50.8101 101.087 50.9156 99.8777L49.123 99.7227Z" fill="#FAFAFA"/>
<path d="M50.3203 92.4824C49.928 94.0812 49.6163 95.7002 49.3945 97.2881L51.1794 97.5362C51.3934 96.0103 51.6927 94.4518 52.0711 92.9089L50.3203 92.4824Z" fill="#FAFAFA"/>
<path d="M61.2227 70.8597L62.623 71.9901C63.6061 70.7728 64.6559 69.5772 65.7384 68.4328L64.4326 67.1953C63.3146 68.3723 62.2353 69.6051 61.2227 70.8597Z" fill="#FAFAFA"/>
<path d="M72.7542 62.092C73.9932 61.1398 75.2927 60.2187 76.6154 59.3581L75.6323 57.8477C74.2692 58.7362 72.9325 59.6837 71.6562 60.6669L72.7542 62.092Z" fill="#FAFAFA"/>
<path d="M130.277 58.5174C129.085 57.3916 127.798 56.3464 126.455 55.4082L125.422 56.886C126.695 57.7731 127.912 58.764 129.041 59.8278L130.277 58.5174Z" fill="#FAFAFA"/>
<path d="M54.2485 86.1832L52.5768 85.5117C51.969 87.0283 51.4262 88.579 50.9688 90.1204L52.6947 90.6368C53.1367 89.1466 53.6608 87.6486 54.2485 86.1832Z" fill="#FAFAFA"/>
<path d="M131.113 114.585L129.643 113.545C128.739 114.821 127.767 116.08 126.754 117.288L128.136 118.447C129.179 117.202 130.179 115.902 131.113 114.585Z" fill="#FAFAFA"/>
<path d="M53.168 121.167C53.9387 122.619 54.8195 124.024 55.7871 125.342L57.2386 124.277C56.3237 123.028 55.4894 121.699 54.7606 120.322L53.168 121.167Z" fill="#FAFAFA"/>
<path d="M67.7104 133.414C66.338 132.667 65.0152 131.817 63.784 130.893L62.7031 132.333C64.0042 133.309 65.3983 134.205 66.8497 134.996L67.7104 133.414Z" fill="#FAFAFA"/>
<path d="M95.1131 136.742C93.5531 137.071 91.9884 137.319 90.4609 137.483L90.6532 139.275C92.2396 139.104 93.8648 138.845 95.4837 138.505L95.1131 136.742Z" fill="#FAFAFA"/>
<path d="M60.7838 130.779L61.9686 129.424C61.1048 128.67 60.2783 127.867 59.5107 127.034C59.2284 126.727 58.9524 126.417 58.6841 126.104L57.3164 127.276C57.5986 127.605 57.8886 127.932 58.1848 128.254C58.9974 129.135 59.872 129.986 60.7838 130.779Z" fill="#FAFAFA"/>
<path d="M61.1807 73.8578L59.7339 72.7832C58.7647 74.092 57.8404 75.4473 56.9922 76.8151L58.5212 77.7672C59.3446 76.4429 60.2394 75.1263 61.1807 73.8578Z" fill="#FAFAFA"/>
<path d="M82.7989 55.869L82.0111 54.25C80.5473 54.9633 79.1035 55.7418 77.7188 56.5622L78.6383 58.1098C79.9797 57.3158 81.38 56.5606 82.7989 55.869Z" fill="#FAFAFA"/>
<path d="M55.7387 78.916C54.9369 80.3396 54.1926 81.8035 53.5273 83.2674L55.1665 84.0133C55.81 82.5974 56.5295 81.1801 57.308 79.8031L55.7387 78.916Z" fill="#FAFAFA"/>
<path d="M53.7389 118.22C53.1186 116.818 52.5867 115.337 52.1556 113.822L50.4219 114.315C50.8762 115.911 51.4376 117.468 52.0889 118.947L53.7389 118.22Z" fill="#FAFAFA"/>
<path d="M67.3867 64.278C66.9664 64.6672 66.5524 65.061 66.1445 65.458L67.4022 66.7482C67.7991 66.3605 68.2023 65.9806 68.6102 65.6007C69.3669 64.9013 70.1361 64.2283 70.9161 63.5739L69.7593 62.1953C68.9575 62.8637 68.1667 63.5569 67.3867 64.278Z" fill="#FAFAFA"/>
<path d="M133.472 65.0384L134.96 64.0211C134.034 62.6673 133.001 61.3694 131.889 60.166L130.566 61.3895C131.619 62.5262 132.596 63.7544 133.472 65.0384Z" fill="#FAFAFA"/>
<path d="M124.371 54.0746C122.979 53.245 121.498 52.5006 119.972 51.8633L119.277 53.5241C120.726 54.132 122.129 54.8375 123.449 55.6238L124.371 54.0746Z" fill="#FAFAFA"/>
<path d="M105.566 50.6832C107.147 50.7235 108.724 50.8554 110.25 51.0678L110.501 49.286C108.907 49.0612 107.261 48.9247 105.613 48.8828L105.566 50.6832Z" fill="#FAFAFA"/>
<path d="M112.57 51.4702C114.113 51.785 115.636 52.1944 117.094 52.6922L117.675 50.9895C116.145 50.4669 114.547 50.0342 112.93 49.707L112.57 51.4702Z" fill="#FAFAFA"/>
<path d="M140.481 77.62C140.185 75.9964 139.782 74.393 139.284 72.8516L137.57 73.4052C138.045 74.8706 138.428 76.398 138.709 77.9426L140.481 77.62Z" fill="#FAFAFA"/>
<path d="M134.719 67.0131C135.494 68.3498 136.183 69.7625 136.764 71.2093L138.436 70.5379C137.822 69.012 137.096 67.5201 136.279 66.1074L134.719 67.0131Z" fill="#FAFAFA"/>
<path d="M69.0469 136.097C69.0516 136.098 69.0578 136.101 69.0625 136.103C69.0625 136.09 69.0594 136.079 69.0594 136.068L69.0469 136.097Z" fill="#FAFAFA"/>
<path d="M88.2182 139.477L88.1143 137.68C86.5435 137.768 84.9819 137.77 83.4467 137.695C83.4343 137.743 83.4188 137.793 83.4048 137.841L83.3164 139.491C84.0732 139.533 84.8377 139.551 85.6068 139.551C86.4721 139.551 87.3421 139.528 88.2182 139.477Z" fill="#FAFAFA"/>
<path d="M84.2227 53.2356L84.9375 54.8871C86.3906 54.2591 87.8746 53.6915 89.3478 53.2015L88.7802 51.4941C87.2559 51.9997 85.7222 52.5858 84.2227 53.2356Z" fill="#FAFAFA"/>
<path d="M140.048 94.6697L138.289 94.2852C137.959 95.8049 137.546 97.337 137.062 98.8365L138.776 99.3901C139.277 97.8347 139.705 96.2468 140.048 94.6697Z" fill="#FAFAFA"/>
<path d="M137.977 101.701L136.291 101.068C135.742 102.534 135.121 103.996 134.441 105.412L136.063 106.19C136.767 104.723 137.411 103.215 137.977 101.701Z" fill="#FAFAFA"/>
<path d="M141.058 87.3992L139.259 87.2969C139.171 88.8429 138.997 90.4154 138.738 91.9708L140.515 92.2654C140.784 90.6449 140.965 89.0089 141.058 87.3992Z" fill="#FAFAFA"/>
<path d="M91.1172 50.7759L91.6072 52.5065C93.1285 52.077 94.673 51.7157 96.202 51.4365L95.8763 49.6641C94.2931 49.954 92.6927 50.3293 91.1172 50.7759Z" fill="#FAFAFA"/>
<path d="M98.5302 51.0705C100.09 50.8612 101.669 50.7324 103.224 50.689L103.17 48.8887C101.554 48.9383 99.9119 49.0716 98.293 49.2856L98.5302 51.0705Z" fill="#FAFAFA"/>
<path d="M134.959 108.369L133.371 107.52C132.637 108.893 131.828 110.261 130.969 111.589L132.479 112.569C133.368 111.199 134.202 109.788 134.959 108.369Z" fill="#FAFAFA"/>
<path d="M140.836 80.0566L139.047 80.2675C139.227 81.7779 139.318 83.3426 139.318 84.9538H140.219L141.12 84.9135C141.119 83.2697 141.022 81.6353 140.836 80.0566Z" fill="#FAFAFA"/>
<path d="M51.5905 111.547C51.268 110.039 51.0369 108.479 50.9036 106.91L49.1094 107.065C49.2489 108.709 49.4924 110.343 49.8289 111.922L51.5905 111.547Z" fill="#FAFAFA"/>
<path d="M108.418 131.988C106.999 132.717 105.556 133.381 104.129 133.962L104.81 135.632C106.286 135.029 107.776 134.342 109.242 133.592L108.418 131.988Z" fill="#FAFAFA"/>
<path d="M114.515 128.357C113.209 129.246 111.857 130.088 110.5 130.86L111.389 132.426C112.79 131.631 114.181 130.764 115.527 129.849L114.515 128.357Z" fill="#FAFAFA"/>
<path d="M120.133 124.031C118.931 125.078 117.691 126.074 116.445 126.993L117.515 128.443C118.798 127.496 120.077 126.469 121.315 125.391L120.133 124.031Z" fill="#FAFAFA"/>
<path d="M125.188 119.068C124.14 120.222 123.023 121.357 121.871 122.441L123.105 123.755C124.292 122.638 125.441 121.47 126.522 120.279L125.188 119.068Z" fill="#FAFAFA"/>
<path d="M101.921 134.814C100.428 135.349 98.9097 135.818 97.4102 136.207L97.863 137.952C99.4152 137.548 100.985 137.063 102.529 136.506L101.921 134.814Z" fill="#FAFAFA"/>
<path d="M26.5078 91.8796L28.257 92.3014C28.6245 90.7817 29.0494 89.2434 29.5193 87.7284L27.798 87.1934C27.3204 88.7472 26.8846 90.3227 26.5078 91.8796Z" fill="#FAFAFA"/>
<path d="M28.5742 84.8854L30.2769 85.4716C30.7871 83.9845 31.3469 82.502 31.9532 81.0272L30.2878 80.3418C29.6675 81.8506 29.0953 83.3657 28.5742 84.8854Z" fill="#FAFAFA"/>
<path d="M25.1523 99.0378L26.9372 99.2859C27.1543 97.7306 27.4288 96.1597 27.7513 94.6121L25.9882 94.2461C25.6563 95.8325 25.3756 97.4437 25.1523 99.0378Z" fill="#FAFAFA"/>
<path d="M24.6829 113.607L26.4786 113.466C26.3561 111.92 26.291 110.329 26.2848 108.734L24.4844 108.739C24.4906 110.38 24.5573 112.017 24.6829 113.607Z" fill="#FAFAFA"/>
<path d="M151.011 41.5254L149.707 42.7691L150.177 43.2684C151.242 44.4252 152.261 45.6394 153.209 46.8831L154.641 45.7899C153.661 44.5028 152.605 43.2436 151.498 42.0449L151.011 41.5254Z" fill="#FAFAFA"/>
<path d="M24.5156 106.308L26.316 106.369C26.3687 104.812 26.4788 103.221 26.6448 101.641L24.8537 101.453C24.6831 103.077 24.5699 104.711 24.5156 106.308Z" fill="#FAFAFA"/>
<path d="M126.099 148.921L125.091 147.43C123.768 148.323 122.431 149.177 121.082 149.988L122.011 151.531C123.388 150.702 124.751 149.835 126.099 148.921Z" fill="#FAFAFA"/>
<path d="M27.4565 120.487C27.1464 118.962 26.8936 117.393 26.7075 115.822L24.918 116.033C25.1118 117.654 25.3708 119.274 25.6902 120.848L27.4565 120.487Z" fill="#FAFAFA"/>
<path d="M119.926 152.756L119.039 151.189C117.65 151.973 116.249 152.715 114.84 153.415L115.64 155.027C117.078 154.314 118.509 153.557 119.926 152.756Z" fill="#FAFAFA"/>
<path d="M161.41 103.868L159.711 103.277C159.194 104.761 158.628 106.239 158.016 107.712L159.678 108.407C160.304 106.901 160.881 105.386 161.41 103.868Z" fill="#FAFAFA"/>
<path d="M161.76 58.5567C161.176 57.0385 160.514 55.5359 159.794 54.0859L158.18 54.8877C158.874 56.288 159.515 57.7395 160.081 59.2033L161.76 58.5567Z" fill="#FAFAFA"/>
<path d="M148.04 41.0978L149.285 39.7936C148.102 38.6647 146.863 37.587 145.601 36.5898L144.484 38.0041C145.703 38.9655 146.899 40.0076 148.04 41.0978Z" fill="#FAFAFA"/>
<path d="M73.2656 163.236C74.8722 163.41 76.5066 163.528 78.1225 163.584L78.1861 161.783C76.6121 161.729 75.0226 161.614 73.461 161.445L73.2656 163.236Z" fill="#FAFAFA"/>
<path d="M34.9305 74.5633L33.3317 73.7383C32.5842 75.1836 31.8833 76.6443 31.2305 78.1129L32.8742 78.8448C33.5147 77.4073 34.2001 75.9791 34.9305 74.5633Z" fill="#FAFAFA"/>
<path d="M80.5539 163.624C82.1682 163.621 83.8026 163.563 85.4138 163.45L85.2867 161.654C83.7173 161.764 82.1248 161.82 80.5508 161.823L80.5539 163.624Z" fill="#FAFAFA"/>
<path d="M49.1006 54.0301C48.7548 53.7029 48.426 53.3633 48.1283 53.002C47.8305 53.3167 47.5142 53.6207 47.2227 53.9386L48.5501 55.1575C48.8199 54.8628 49.1145 54.5806 49.3906 54.2891C49.3782 54.2782 49.3657 54.2658 49.3533 54.255C49.2665 54.1805 49.1812 54.1077 49.1006 54.0301Z" fill="#FAFAFA"/>
<path d="M154.602 48.7911C155.487 50.0782 156.323 51.4242 157.086 52.7966L158.66 51.9189C157.869 50.4968 157.002 49.1027 156.084 47.7676L154.602 48.7911Z" fill="#FAFAFA"/>
<path d="M66.1055 38.1403C66.4931 38.6071 66.8297 39.1049 67.1351 39.6182C67.6593 39.2847 68.1757 38.9296 68.7029 38.6086L67.7678 37.0703C67.208 37.4099 66.6606 37.7867 66.1055 38.1403Z" fill="#FAFAFA"/>
<path d="M57.4651 157.385C56.0167 156.777 54.5823 156.099 53.1975 155.367L52.3555 156.957C53.7868 157.717 55.2724 158.417 56.7688 159.044L57.4651 157.385Z" fill="#FAFAFA"/>
<path d="M51.1362 154.21C49.7856 153.413 48.4597 152.545 47.1943 151.625L46.1367 153.084C47.4471 154.033 48.8226 154.937 50.2229 155.762L51.1362 154.21Z" fill="#FAFAFA"/>
<path d="M106.713 158.852L106.095 157.158C104.597 157.704 103.093 158.199 101.586 158.65L102.102 160.376C103.642 159.917 105.179 159.408 106.713 158.852Z" fill="#FAFAFA"/>
<path d="M131.968 144.624L130.847 143.213C129.597 144.207 128.332 145.162 127.051 146.079L128.096 147.543C129.403 146.611 130.695 145.637 131.968 144.624Z" fill="#FAFAFA"/>
<path d="M38.8267 146.638L39.9013 145.15C38.9042 144.07 37.9552 142.948 37.0806 141.812L35.6523 142.91C36.5595 144.091 37.5442 145.255 38.6638 146.466L38.8267 146.638Z" fill="#FAFAFA"/>
<path d="M160.887 61.4257C161.383 62.9051 161.823 64.4325 162.191 65.9631L163.943 65.5413C163.56 63.958 163.107 62.3825 162.594 60.8535L160.887 61.4257Z" fill="#FAFAFA"/>
<path d="M69.8516 35.8408L70.7448 37.4024C72.1311 36.6115 73.5283 35.8641 74.9348 35.1585L74.1284 33.5488C72.6909 34.2684 71.2658 35.0314 69.8516 35.8408Z" fill="#FAFAFA"/>
<path d="M76.3125 32.4892L77.0739 34.1221C78.5192 33.446 79.9738 32.8164 81.4345 32.2287L80.7631 30.5586C79.2728 31.1541 77.7888 31.7992 76.3125 32.4892Z" fill="#FAFAFA"/>
<path d="M64.1548 159.693C62.632 159.276 61.1185 158.79 59.6531 158.254L59.0312 159.943C60.5432 160.501 62.1063 161 63.6788 161.43L64.1548 159.693Z" fill="#FAFAFA"/>
<path d="M99.7739 161.035L99.3102 159.295C97.7703 159.706 96.2289 160.067 94.6875 160.379L95.0442 162.142C96.6197 161.826 98.1968 161.455 99.7739 161.035Z" fill="#FAFAFA"/>
<path d="M164.879 89.7301L163.098 89.4727C162.874 91.0141 162.594 92.5849 162.262 94.1418L164.023 94.5171C164.361 92.9214 164.65 91.3102 164.879 89.7301Z" fill="#FAFAFA"/>
<path d="M165.202 72.7388C165.019 71.1136 164.768 69.4947 164.458 67.9238L162.691 68.2712C162.991 69.7955 163.234 71.3648 163.412 72.9404L165.202 72.7388Z" fill="#FAFAFA"/>
<path d="M163.489 96.8842L161.739 96.4531C161.363 97.9775 160.932 99.5158 160.457 101.025L162.177 101.564C162.661 100.02 163.103 98.4458 163.489 96.8842Z" fill="#FAFAFA"/>
<path d="M165.555 82.4702L163.756 82.4004C163.694 83.9604 163.574 85.5499 163.402 87.1255L165.192 87.3224C165.372 85.7065 165.493 84.0721 165.555 82.4702Z" fill="#FAFAFA"/>
<path d="M71.1085 161.143C69.55 160.911 67.9853 160.616 66.4579 160.266L66.0547 162.019C67.6287 162.381 69.2399 162.686 70.8433 162.925L71.1085 161.143Z" fill="#FAFAFA"/>
<path d="M165.434 75.1699L163.637 75.3018C163.747 76.8044 163.803 78.3442 163.804 80.0345H164.705L165.606 79.8795C165.605 78.2993 165.547 76.716 165.434 75.1699Z" fill="#FAFAFA"/>
<path d="M83.0352 29.6894L83.657 31.3782C85.1534 30.8292 86.6561 30.3252 88.1603 29.8678L87.6377 28.1465C86.0994 28.6133 84.5642 29.1265 83.0352 29.6894Z" fill="#FAFAFA"/>
<path d="M92.6534 162.586L92.3526 160.809C90.8003 161.074 89.2201 161.289 87.6523 161.451L87.8369 163.242C89.445 163.077 91.067 162.854 92.6534 162.586Z" fill="#FAFAFA"/>
<path d="M42.4866 62.4828L41.0413 61.4082C40.069 62.7124 39.1386 64.0367 38.25 65.3765L39.7511 66.3705C40.6226 65.0601 41.5344 63.7637 42.4866 62.4828Z" fill="#FAFAFA"/>
<path d="M132.986 29.2461L132.301 30.9116C133.752 31.5101 135.193 32.1785 136.581 32.9027L137.414 31.3039C135.978 30.5533 134.487 29.8617 132.986 29.2461Z" fill="#FAFAFA"/>
<path d="M45.6109 55.7461C44.5393 56.9712 43.5065 58.2179 42.5156 59.4802L43.933 60.5921C44.9053 59.3546 45.9164 58.1342 46.9662 56.9339L45.6109 55.7461Z" fill="#FAFAFA"/>
<path d="M130.712 28.3577C129.197 27.8118 127.631 27.3202 126.054 26.8984L125.59 28.6384C127.116 29.0462 128.634 29.5207 130.099 30.0495L130.712 28.3577Z" fill="#FAFAFA"/>
<path d="M111.559 26.6285C113.143 26.6735 114.733 26.7789 116.285 26.9402L116.47 25.1491C114.874 24.9832 113.24 24.8746 111.61 24.8281L111.559 26.6285Z" fill="#FAFAFA"/>
<path d="M123.687 26.3164C122.099 25.9644 120.486 25.6713 118.893 25.4434L118.641 27.2252C120.187 27.4454 121.754 27.7322 123.299 28.0734L123.687 26.3164Z" fill="#FAFAFA"/>
<path d="M45.3199 150.199C44.0994 149.224 42.91 148.172 41.7858 147.082L40.5312 148.377C41.6974 149.507 42.9287 150.593 44.194 151.605L45.3199 150.199Z" fill="#FAFAFA"/>
<path d="M35.6776 139.907C34.7859 138.631 33.9408 137.289 33.1639 135.92L31.5977 136.807C32.4025 138.229 33.2786 139.617 34.2013 140.94L35.6776 139.907Z" fill="#FAFAFA"/>
<path d="M32.0492 133.838C31.3452 132.446 30.697 130.999 30.1216 129.535L28.4453 130.197C29.0423 131.712 29.7138 133.21 30.4442 134.651L32.0492 133.838Z" fill="#FAFAFA"/>
<path d="M136.129 138.682C135 139.725 133.853 140.733 132.691 141.707L133.847 143.086C135.033 142.093 136.201 141.067 137.385 139.972L136.874 139.218L136.129 138.682Z" fill="#FAFAFA"/>
<path d="M38.4611 68.3689L36.9336 67.4121C36.0699 68.7907 35.248 70.1864 34.4727 71.596L36.0513 72.4644C36.8111 71.0874 37.6129 69.7196 38.4611 68.3689Z" fill="#FAFAFA"/>
<path d="M29.3117 127.321C28.8078 125.851 28.3581 124.327 27.9797 122.793L26.2305 123.224C26.6228 124.809 27.0865 126.386 27.6091 127.907L29.3117 127.321Z" fill="#FAFAFA"/>
<path d="M147.35 129.214L145.939 128.098C144.961 129.334 143.947 130.548 142.891 131.746L144.244 132.937C145.316 131.717 146.353 130.473 147.35 129.214Z" fill="#FAFAFA"/>
<path d="M151.438 120.345L152.962 121.307C153.83 119.928 154.657 118.537 155.438 117.135L153.864 116.258C153.098 117.632 152.289 118.995 151.438 120.345Z" fill="#FAFAFA"/>
<path d="M158.705 110.636L157.063 109.895C156.416 111.33 155.725 112.754 154.988 114.168L156.586 115.003C157.339 113.554 158.045 112.098 158.705 110.636Z" fill="#FAFAFA"/>
<path d="M137.977 136.924L139.231 138.214C140.397 137.082 141.526 135.922 142.616 134.745L141.295 133.521C140.227 134.675 139.119 135.81 137.977 136.924Z" fill="#FAFAFA"/>
<path d="M143.653 35.1264C142.343 34.1882 140.963 33.2965 139.55 32.4746L138.645 34.0316C140.008 34.824 141.34 35.6846 142.605 36.5902L143.653 35.1264Z" fill="#FAFAFA"/>
<path d="M104.312 24.986L104.446 26.7817C106.038 26.6623 107.633 26.5987 109.183 26.5894L109.172 24.7891C107.58 24.7984 105.945 24.865 104.312 24.986Z" fill="#FAFAFA"/>
<path d="M97.0742 25.8933L97.3844 27.6657C98.9583 27.3913 100.539 27.1679 102.081 27.002L101.886 25.2109C100.304 25.3831 98.687 25.6126 97.0742 25.8933Z" fill="#FAFAFA"/>
<path d="M113.449 156.08L112.691 154.447C111.243 155.119 109.788 155.742 108.324 156.321L108.988 157.995C110.483 157.403 111.97 156.764 113.449 156.08Z" fill="#FAFAFA"/>
<path d="M90.4386 29.2149C91.9769 28.7978 93.5168 28.4272 95.0567 28.1108L94.6938 26.3477C93.1183 26.6718 91.5412 27.0486 89.9688 27.475L90.4386 29.2149Z" fill="#FAFAFA"/>
<path d="M150.136 122.342C149.26 123.651 148.344 124.942 147.387 126.22L148.827 127.299C149.806 125.998 150.741 124.677 151.634 123.345L150.136 122.342Z" fill="#FAFAFA"/>
<path d="M8.34534 145.195L6.70312 145.937C7.36683 147.407 8.09102 148.875 8.85552 150.299L10.4435 149.444C9.69756 148.06 8.99198 146.628 8.34534 145.195Z" fill="#FAFAFA"/>
<path d="M131.699 4.17917C133.256 4.49552 134.799 4.85684 136.322 5.26313L136.786 3.52321C135.227 3.10762 133.65 2.73701 132.056 2.41602L131.699 4.17917Z" fill="#FAFAFA"/>
<path d="M3.82027 131.734L2.06641 132.142C2.43082 133.721 2.84952 135.301 3.30853 136.835L5.03448 136.318C4.58632 134.82 4.17848 133.277 3.82027 131.734Z" fill="#FAFAFA"/>
<path d="M5.7464 138.578L4.03906 139.15C4.55545 140.693 5.12766 142.225 5.73555 143.705L7.40102 143.019C6.80709 141.579 6.25194 140.084 5.7464 138.578Z" fill="#FAFAFA"/>
<path d="M2.54269 124.736L0.757812 124.98C0.976464 126.589 1.24164 128.185 1.55488 129.768L3.32115 129.416C3.01566 127.872 2.75669 126.312 2.54269 124.736Z" fill="#FAFAFA"/>
<path d="M129.659 1.96938C128.072 1.6949 126.469 1.46538 124.853 1.2793L124.648 3.07037C126.229 3.25181 127.8 3.47668 129.353 3.74186L129.659 1.96938Z" fill="#FAFAFA"/>
<path d="M11.5983 151.512L10.043 152.417C10.854 153.808 11.7286 155.195 12.642 156.531L14.1291 155.519C13.2405 154.213 12.3892 152.865 11.5983 151.512Z" fill="#FAFAFA"/>
<path d="M28.4219 42.504L29.7803 43.6856C30.8208 42.4947 31.8893 41.3146 32.9825 40.1484L31.6691 38.9141C30.5588 40.1004 29.4764 41.2944 28.4219 42.504Z" fill="#FAFAFA"/>
<path d="M1.89649 117.646L0.0976562 117.732C0.173641 119.355 0.296149 120.968 0.465177 122.567L2.25781 122.379C2.09033 120.813 1.96937 119.238 1.89649 117.646Z" fill="#FAFAFA"/>
<path d="M53.7495 20.1895C52.4159 21.0827 51.0932 22.0022 49.7812 22.9544L50.8388 24.4136C52.1321 23.4754 53.4363 22.5651 54.7513 21.6859L53.7495 20.1895Z" fill="#FAFAFA"/>
<path d="M59.9007 16.334C58.5175 17.145 57.142 17.9902 55.7773 18.8648L56.7481 20.3798C58.0926 19.5192 59.4479 18.6895 60.8125 17.8863L59.9007 16.334Z" fill="#FAFAFA"/>
<path d="M66.2637 12.8457C64.8339 13.573 63.4103 14.3344 61.9961 15.1283L62.8785 16.6992C64.271 15.9161 65.6728 15.1671 67.0809 14.4507L66.2637 12.8457Z" fill="#FAFAFA"/>
<path d="M42.1795 28.9277C40.9575 29.9667 39.7479 31.032 38.5508 32.1268L39.765 33.4542C40.9451 32.378 42.1391 31.3267 43.3441 30.3016L42.1795 28.9277Z" fill="#FAFAFA"/>
<path d="M38.0285 35.0795L36.7879 33.7754C35.6125 34.8919 34.4649 36.0224 33.3438 37.1715L34.6339 38.4291C35.7381 37.2986 36.8701 36.1821 38.0285 35.0795Z" fill="#FAFAFA"/>
<path d="M3.46494 96.3576L1.69712 96.0195C1.39163 97.6137 1.128 99.2093 0.90625 100.802L2.69113 101.05C2.90823 99.4916 3.16565 97.9238 3.46494 96.3576Z" fill="#FAFAFA"/>
<path d="M139.127 4.18945L138.609 5.91541C140.131 6.36977 141.632 6.87372 143.111 7.42112L143.734 5.73241C142.216 5.1726 140.667 4.65157 139.127 4.18945Z" fill="#FAFAFA"/>
<path d="M88.8125 4.18355L89.2746 5.92347C90.8176 5.51564 92.3605 5.1419 93.9035 4.80539L93.5189 3.04688C91.9496 3.38958 90.3818 3.76641 88.8125 4.18355Z" fill="#FAFAFA"/>
<path d="M45.171 28.7745C46.4085 27.7665 47.6584 26.7834 48.9207 25.8312L47.8352 24.3906C46.5558 25.3567 45.2873 26.3538 44.0312 27.3804L45.171 28.7745Z" fill="#FAFAFA"/>
<path d="M103.283 3.21414C104.866 3.02185 106.445 2.8699 108.017 2.7567L107.89 0.960938C106.285 1.07414 104.677 1.2308 103.062 1.42774L103.283 3.21414Z" fill="#FAFAFA"/>
<path d="M100.929 3.52204L100.668 1.74023C99.0789 1.97284 97.4863 2.24268 95.8906 2.55128L96.2349 4.31907C97.8027 4.01513 99.3673 3.74999 100.929 3.52204Z" fill="#FAFAFA"/>
<path d="M68.4336 11.7699L69.2198 13.3935C70.6558 12.6972 72.0995 12.0335 73.5479 11.4101L72.8345 9.75391C71.3598 10.3913 69.8928 11.0643 68.4336 11.7699Z" fill="#FAFAFA"/>
<path d="M81.8594 6.27492L82.4331 7.98228C83.9466 7.47364 85.4617 6.99758 86.9798 6.55872L86.4774 4.82812C84.9376 5.27628 83.3961 5.75698 81.8594 6.27492Z" fill="#FAFAFA"/>
<path d="M75.737 10.4796C77.2148 9.87484 78.6973 9.30417 80.1845 8.76762L79.5719 7.07422C78.0615 7.62007 76.5558 8.20005 75.0547 8.81414L75.737 10.4796Z" fill="#FAFAFA"/>
<path d="M110.398 2.61795C111.837 2.54972 113.27 2.51715 114.696 2.51715H115.158V0.716797H114.696C113.242 0.716797 111.779 0.749366 110.312 0.817597L110.398 2.61795Z" fill="#FAFAFA"/>
<path d="M19.6862 56.969L18.1805 55.9844C17.2919 57.3397 16.4344 58.7043 15.6094 60.0798L17.1523 61.0087C17.9665 59.6518 18.8116 58.3058 19.6862 56.969Z" fill="#FAFAFA"/>
<path d="M1.80038 113.582C1.80038 112.565 1.81744 111.544 1.85466 110.519L0.0542749 110.459C0.0186084 111.503 0 112.546 0 113.582C0 114.162 0.00620237 114.736 0.0170574 115.311L1.81744 115.274C1.80659 114.713 1.80038 114.147 1.80038 113.582Z" fill="#FAFAFA"/>
<path d="M0.171875 108.031L1.97071 108.144C2.0684 106.569 2.20797 104.99 2.3863 103.407L0.596772 103.205C0.412237 104.816 0.271121 106.427 0.171875 108.031Z" fill="#FAFAFA"/>
<path d="M15.9479 63.0623L14.3863 62.166C13.5799 63.5725 12.8061 64.9868 12.0664 66.4135L13.6652 67.2431C14.394 65.8412 15.1554 64.4456 15.9479 63.0623Z" fill="#FAFAFA"/>
<path d="M117.547 2.56368C119.141 2.61485 120.724 2.70634 122.295 2.8428L122.45 1.04552C120.847 0.909059 119.231 0.812892 117.606 0.761719L117.547 2.56368Z" fill="#FAFAFA"/>
<path d="M12.594 69.3733L10.9782 68.5762C10.2602 70.0307 9.57789 71.4931 8.92969 72.9616L10.5781 73.6889C11.2139 72.2437 11.8869 70.8046 12.594 69.3733Z" fill="#FAFAFA"/>
<path d="M7.11975 82.5554L5.41551 81.9785C4.89292 83.5153 4.40754 85.0536 3.96094 86.5965L5.68999 87.099C6.12884 85.5824 6.60801 84.0673 7.11975 82.5554Z" fill="#FAFAFA"/>
<path d="M9.64274 75.8744L7.98037 75.1797C7.35698 76.6777 6.76925 78.1819 6.21875 79.6892L7.90903 80.3079C8.45178 78.8254 9.02865 77.346 9.64274 75.8744Z" fill="#FAFAFA"/>
<path d="M5.05862 89.3933L3.31872 88.9297C2.90002 90.4959 2.5232 92.0668 2.18359 93.6392L3.94521 94.0191C4.27551 92.4746 4.64613 90.9316 5.05862 89.3933Z" fill="#FAFAFA"/>
<path d="M105.789 181.049L106.335 182.766C107.867 182.277 109.394 181.758 110.917 181.201L110.299 179.508C108.799 180.058 107.298 180.57 105.789 181.049Z" fill="#FAFAFA"/>
<path d="M178.699 116.523L180.334 117.279C181.014 115.809 181.66 114.328 182.271 112.844L180.605 112.158C180.003 113.619 179.368 115.075 178.699 116.523Z" fill="#FAFAFA"/>
<path d="M98.8984 182.981L99.328 184.73C100.886 184.349 102.446 183.926 104.003 183.468L103.496 181.742C101.964 182.19 100.431 182.603 98.8984 182.981Z" fill="#FAFAFA"/>
<path d="M181.484 109.939L183.164 110.592C183.617 109.424 184.024 108.252 184.431 107.078C183.843 106.962 183.262 106.802 182.685 106.611C182.299 107.723 181.911 108.835 181.484 109.939Z" fill="#FAFAFA"/>
<path d="M174.332 30.6258C175.267 31.8834 176.174 33.1969 177.026 34.5243L178.542 33.5536C177.668 32.1889 176.737 30.8429 175.776 29.5527L174.332 30.6258Z" fill="#FAFAFA"/>
<path d="M112.512 178.671L113.166 180.35C114.663 179.766 116.154 179.15 117.64 178.497L116.916 176.846C115.453 177.489 113.985 178.097 112.512 178.671Z" fill="#FAFAFA"/>
<path d="M119.094 175.866L119.85 177.499C121.307 176.823 122.757 176.117 124.199 175.379L123.378 173.775C121.958 174.503 120.53 175.199 119.094 175.866Z" fill="#FAFAFA"/>
<path d="M77.7227 185.871L77.7676 187.671C79.3757 187.631 80.99 187.547 82.6105 187.425L82.4741 185.629C80.8846 185.75 79.2997 185.831 77.7227 185.871Z" fill="#FAFAFA"/>
<path d="M70.4883 187.569C72.0948 187.658 73.7122 187.701 75.3389 187.701V185.901C73.7448 185.901 72.16 185.859 70.586 185.773L70.4883 187.569Z" fill="#FAFAFA"/>
<path d="M91.9102 184.449L92.2172 186.221C93.8005 185.947 95.3853 185.632 96.9701 185.28L96.5794 183.521C95.0224 183.869 93.4655 184.179 91.9102 184.449Z" fill="#FAFAFA"/>
<path d="M56.0781 185.576C57.6506 185.937 59.24 186.249 60.8435 186.519L61.1412 184.742C59.5719 184.481 58.0181 184.174 56.4813 183.822L56.0781 185.576Z" fill="#FAFAFA"/>
<path d="M63.2422 186.881C64.8379 187.102 66.4475 187.277 68.068 187.409L68.2138 185.613C66.6259 185.486 65.0519 185.315 63.4888 185.1L63.2422 186.881Z" fill="#FAFAFA"/>
<path d="M125.477 172.665L126.329 174.249C127.741 173.49 129.146 172.694 130.541 171.871L129.625 170.318C128.252 171.132 126.868 171.914 125.477 172.665Z" fill="#FAFAFA"/>
<path d="M89.5657 184.836C87.9871 185.073 86.4131 185.272 84.8438 185.43L85.0236 187.221C86.6224 187.06 88.2259 186.86 89.8324 186.618L89.5657 184.836Z" fill="#FAFAFA"/>
<path d="M190.039 77.5363L188.239 77.4805C188.234 77.6417 188.217 77.8046 188.211 77.9658C188.81 78.003 189.408 78.0697 190.004 78.1814C190.011 77.9658 190.033 77.7488 190.039 77.5363Z" fill="#FAFAFA"/>
<path d="M159.004 146.203L160.344 147.408C161.429 146.203 162.484 144.983 163.51 143.751L162.127 142.598C161.114 143.815 160.072 145.015 159.004 146.203Z" fill="#FAFAFA"/>
<path d="M150.77 154.545C150.134 155.131 149.494 155.711 148.852 156.283L150.05 157.629C150.702 157.048 151.35 156.463 151.995 155.866C152.536 155.362 153.074 154.858 153.605 154.351L152.361 153.047C151.835 153.548 151.305 154.047 150.77 154.545Z" fill="#FAFAFA"/>
<path d="M175.488 122.912L177.073 123.77C177.845 122.341 178.582 120.905 179.288 119.466L177.669 118.674C176.975 120.094 176.248 121.507 175.488 122.912Z" fill="#FAFAFA"/>
<path d="M171.898 129.089L173.427 130.041C174.285 128.667 175.11 127.278 175.902 125.884L174.336 124.992C173.556 126.368 172.745 127.734 171.898 129.089Z" fill="#FAFAFA"/>
<path d="M154.074 151.385L155.343 152.662C156.493 151.519 157.616 150.363 158.711 149.191L157.396 147.963C156.315 149.115 155.208 150.258 154.074 151.385Z" fill="#FAFAFA"/>
<path d="M131.676 169.09L132.623 170.619C133.989 169.775 135.343 168.899 136.688 167.996L135.681 166.5C134.355 167.393 133.02 168.254 131.676 169.09Z" fill="#FAFAFA"/>
<path d="M174.281 27.6179C173.269 26.3541 172.2 25.1135 171.105 23.9303C170.747 23.5411 170.386 23.1596 170.023 22.7812L168.727 24.0343C169.083 24.4018 169.435 24.7755 169.783 25.1523C170.848 26.3045 171.888 27.514 172.876 28.7422L174.281 27.6179Z" fill="#FAFAFA"/>
<path d="M49.0508 183.628C50.5844 184.131 52.1398 184.59 53.7122 185.001L54.1666 183.256C52.6298 182.855 51.1101 182.41 49.6106 181.918L49.0508 183.628Z" fill="#FAFAFA"/>
<path d="M163.637 140.755L165.043 141.881C166.056 140.613 167.041 139.335 167.994 138.045L166.544 136.975C165.606 138.246 164.635 139.505 163.637 140.755Z" fill="#FAFAFA"/>
<path d="M143.375 160.867L144.492 162.283C145.749 161.289 146.996 160.264 148.229 159.211L147.058 157.842C145.844 158.881 144.617 159.892 143.375 160.867Z" fill="#FAFAFA"/>
<path d="M137.637 165.149L138.671 166.622C139.986 165.702 141.287 164.75 142.577 163.77L141.487 162.334C140.216 163.302 138.932 164.24 137.637 165.149Z" fill="#FAFAFA"/>
<path d="M157.863 14.9417C159.164 15.8148 160.456 16.7483 161.7 17.716L162.807 16.294C161.529 15.3 160.203 14.3401 158.867 13.4453L157.863 14.9417Z" fill="#FAFAFA"/>
<path d="M168.312 21.0679C167.141 19.9421 165.924 18.8488 164.696 17.8223L163.539 19.2009C164.736 20.2042 165.923 21.2695 167.062 22.3674L168.312 21.0679Z" fill="#FAFAFA"/>
<path d="M151.766 11.2965C153.163 12.0378 154.546 12.8333 155.875 13.6583L156.826 12.1293C155.463 11.2826 154.045 10.4669 152.611 9.70703L151.766 11.2965Z" fill="#FAFAFA"/>
<path d="M167.941 135.047L169.411 136.089C170.348 134.766 171.255 133.431 172.131 132.088L170.621 131.104C169.759 132.426 168.866 133.743 167.941 135.047Z" fill="#FAFAFA"/>
<path d="M145.316 8.2873C146.773 8.88123 148.229 9.53101 149.644 10.2226L150.435 8.60367C148.984 7.89499 147.491 7.22662 145.997 6.61719L145.316 8.2873Z" fill="#FAFAFA"/>
<path d="M190.082 75.1069V74.8355C190.084 73.2988 190.044 71.7729 189.963 70.2578L188.164 70.3509C188.243 71.838 188.282 73.3313 188.282 74.8355V75.1069H190.082Z" fill="#FAFAFA"/>
<path d="M184.203 49.4468C184.71 50.9308 185.177 52.4552 185.589 53.9795L187.328 53.5112C186.906 51.9496 186.428 50.388 185.909 48.8652L184.203 49.4468Z" fill="#FAFAFA"/>
<path d="M181.574 42.8385C182.229 44.2636 182.844 45.7352 183.404 47.2099L185.088 46.5726C184.514 45.0606 183.883 43.5518 183.212 42.0879L181.574 42.8385Z" fill="#FAFAFA"/>
<path d="M23.8789 169.293C25.0885 170.364 26.3492 171.406 27.627 172.388L28.7249 170.957C27.4812 170.003 26.2515 168.989 25.073 167.945L23.8789 169.293Z" fill="#FAFAFA"/>
<path d="M187.48 63.2684C187.699 64.8285 187.874 66.4008 188.005 67.9826L189.799 67.8368C189.667 66.2179 189.489 64.6113 189.262 63.0156L187.48 63.2684Z" fill="#FAFAFA"/>
<path d="M29.5742 173.832C30.8954 174.775 32.2601 175.677 33.6293 176.515L34.5691 174.981C33.2355 174.162 31.9065 173.283 30.6194 172.363L29.5742 173.832Z" fill="#FAFAFA"/>
<path d="M42.2461 181.025C43.7115 181.667 45.2281 182.278 46.7556 182.833L47.3728 181.139C45.881 180.598 44.4 180.003 42.9703 179.373L42.2461 181.025Z" fill="#FAFAFA"/>
<path d="M35.7188 177.751C37.1206 178.544 38.569 179.302 40.0266 180.003L40.8082 178.379C39.3878 177.694 37.9735 176.956 36.6058 176.184L35.7188 177.751Z" fill="#FAFAFA"/>
<path d="M186.164 56.2793C186.527 57.816 186.843 59.3652 187.112 60.9299L188.887 60.6244C188.614 59.0349 188.287 57.433 187.916 55.8652L186.164 56.2793Z" fill="#FAFAFA"/>
<path d="M28.2157 45.4982L26.8371 44.3398C25.795 45.5804 24.7824 46.8381 23.8008 48.1066L25.2243 49.2091C26.192 47.9592 27.1891 46.7202 28.2157 45.4982Z" fill="#FAFAFA"/>
<path d="M178.27 36.5446C179.074 37.903 179.837 39.3033 180.538 40.702L182.149 39.8957C181.428 38.4582 180.645 37.0206 179.819 35.625L178.27 36.5446Z" fill="#FAFAFA"/>
<path d="M20.0117 162.959L18.6719 164.164L18.965 164.483C19.976 165.578 21.0135 166.631 22.0788 167.647L23.3225 166.343C22.285 165.355 21.2724 164.33 20.2862 163.258L20.0117 162.959Z" fill="#FAFAFA"/>
<path d="M14.0469 158.525C15.0083 159.83 16.024 161.115 17.0661 162.342L18.4385 161.174C17.4228 159.98 16.4334 158.73 15.4983 157.457L14.0469 158.525Z" fill="#FAFAFA"/>
<path d="M19.5234 53.9705L21.0106 54.9878C21.9038 53.6836 22.8265 52.3887 23.7802 51.1094L22.3349 50.0332C21.3672 51.3343 20.4291 52.6477 19.5234 53.9705Z" fill="#FAFAFA"/>
<path d="M177.061 103.218C176.943 103.105 176.828 102.987 176.715 102.871C176.83 102.989 176.943 103.105 177.061 103.218Z" fill="#0593A1"/>
<path d="M172.75 90.3556C172.783 90.1435 172.82 89.9329 172.862 89.7207C172.818 89.9329 172.783 90.145 172.75 90.3556Z" fill="#0593A1"/>
<path d="M172.602 91.6588C172.615 91.4498 172.637 91.2423 172.66 91.0332C172.639 91.2407 172.615 91.4498 172.602 91.6588Z" fill="#0593A1"/>
<path d="M174.35 99.6645C174.298 99.5668 174.253 99.4645 174.203 99.3652C174.253 99.4629 174.298 99.5653 174.35 99.6645Z" fill="#0593A1"/>
<path d="M179.506 97.5089C186.304 101.967 195.429 100.069 199.887 93.2724C200.673 92.0737 201.256 90.8021 201.656 89.4964C200.863 85.8677 198.709 82.5321 195.356 80.3348C193.68 79.2353 191.861 78.5266 190.006 78.1777C189.41 78.066 188.813 77.9994 188.213 77.9622C183.108 77.6443 177.98 79.9874 174.975 84.5713C174.186 85.7747 173.606 87.0524 173.207 88.3643C174.003 91.9868 176.16 95.3147 179.506 97.5089Z" fill="#0593A1"/>
<path d="M173.32 97.2703C173.263 97.0953 173.207 96.9187 173.156 96.7422C173.209 96.9203 173.263 97.0953 173.32 97.2703Z" fill="#0593A1"/>
<path d="M179.208 104.95C180.314 105.676 181.483 106.216 182.681 106.61C181.484 106.214 180.314 105.675 179.208 104.95Z" fill="#151E36"/>
<path opacity="0.15" d="M179.208 104.95C180.314 105.676 181.483 106.216 182.681 106.61C181.484 106.214 180.314 105.675 179.208 104.95Z" fill="#1D1D1B"/>
<path d="M174.191 99.3664C174.043 99.078 173.902 98.788 173.773 98.4902C173.901 98.7864 174.042 99.078 174.191 99.3664Z" fill="#151E36"/>
<path opacity="0.15" d="M174.191 99.3664C174.043 99.078 173.902 98.788 173.773 98.4902C173.901 98.7864 174.042 99.078 174.191 99.3664Z" fill="#1D1D1B"/>
<path d="M173.582 98.0099C173.486 97.7634 173.395 97.5168 173.312 97.2656C173.396 97.5168 173.486 97.7634 173.582 98.0099Z" fill="#151E36"/>
<path opacity="0.15" d="M173.582 98.0099C173.486 97.7634 173.395 97.5168 173.312 97.2656C173.396 97.5168 173.486 97.7634 173.582 98.0099Z" fill="#1D1D1B"/>
<path d="M173.198 88.3555C173.188 88.3836 173.184 88.4117 173.176 88.4413C173.184 88.4163 173.193 88.3914 173.201 88.3664C173.201 88.3617 173.199 88.3586 173.198 88.3555Z" fill="#151E36"/>
<path opacity="0.15" d="M173.198 88.3555C173.188 88.3836 173.184 88.4117 173.176 88.4413C173.184 88.4163 173.193 88.3914 173.201 88.3664C173.201 88.3617 173.199 88.3586 173.198 88.3555Z" fill="#1D1D1B"/>
<path d="M173.159 96.7405C173.09 96.497 173.028 96.2505 172.969 96.0039C173.026 96.252 173.088 96.497 173.159 96.7405Z" fill="#151E36"/>
<path opacity="0.15" d="M173.159 96.7405C173.09 96.497 173.028 96.2505 172.969 96.0039C173.026 96.252 173.088 96.497 173.159 96.7405Z" fill="#1D1D1B"/>
<path d="M175.014 100.776C174.773 100.413 174.55 100.042 174.344 99.6621C174.548 100.04 174.773 100.413 175.014 100.776Z" fill="#151E36"/>
<path opacity="0.15" d="M175.014 100.776C174.773 100.413 174.55 100.042 174.344 99.6621C174.548 100.04 174.773 100.413 175.014 100.776Z" fill="#1D1D1B"/>
<path d="M172.654 94.1747C172.611 93.7684 172.587 93.3606 172.578 92.9512C172.587 93.3606 172.612 93.7684 172.654 94.1747Z" fill="#151E36"/>
<path opacity="0.15" d="M172.654 94.1747C172.611 93.7684 172.587 93.3606 172.578 92.9512C172.587 93.3606 172.612 93.7684 172.654 94.1747Z" fill="#1D1D1B"/>
<path d="M172.582 92.3769C172.587 92.1366 172.591 91.8947 172.607 91.6543C172.591 91.8947 172.587 92.135 172.582 92.3769Z" fill="#151E36"/>
<path opacity="0.15" d="M172.582 92.3769C172.587 92.1366 172.591 91.8947 172.607 91.6543C172.591 91.8947 172.587 92.135 172.582 92.3769Z" fill="#1D1D1B"/>
<path d="M175.806 101.851C175.607 101.603 175.42 101.347 175.238 101.088C175.421 101.348 175.607 101.603 175.806 101.851Z" fill="#151E36"/>
<path opacity="0.15" d="M175.806 101.851C175.607 101.603 175.42 101.347 175.238 101.088C175.421 101.348 175.607 101.603 175.806 101.851Z" fill="#1D1D1B"/>
<path d="M177.766 103.859C177.522 103.653 177.285 103.443 177.059 103.225C177.287 103.443 177.522 103.653 177.766 103.859Z" fill="#151E36"/>
<path opacity="0.15" d="M177.766 103.859C177.522 103.653 177.285 103.443 177.059 103.225C177.287 103.443 177.522 103.653 177.766 103.859Z" fill="#1D1D1B"/>
<path d="M198.597 102.058C198.951 101.634 199.288 101.19 199.598 100.717C199.878 100.289 200.134 99.8503 200.365 99.4052C200.424 99.292 200.468 99.1741 200.523 99.0609C200.686 98.726 200.849 98.391 200.984 98.0483C201.035 97.9181 201.071 97.7847 201.119 97.6529C201.238 97.321 201.361 96.9907 201.455 96.6542C201.491 96.5271 201.513 96.3999 201.544 96.2727C201.632 95.9285 201.719 95.5827 201.781 95.2353C201.803 95.1175 201.811 94.9981 201.828 94.8787C201.882 94.5204 201.935 94.1622 201.963 93.8025C201.97 93.6924 201.967 93.5822 201.973 93.4721C201.993 93.1031 202.011 92.734 202.003 92.3665C202.001 92.2611 201.987 92.1556 201.983 92.0501C201.967 91.6795 201.947 91.3089 201.904 90.9414C201.891 90.8313 201.868 90.7243 201.852 90.6142C201.801 90.2529 201.747 89.8916 201.669 89.5349C201.666 89.5225 201.663 89.5116 201.66 89.4992C201.262 90.8034 200.677 92.0765 199.891 93.2752C195.432 100.074 186.308 101.97 179.51 97.5118C176.163 95.3175 174.006 91.9897 173.209 88.3672C173.201 88.392 173.192 88.4153 173.184 88.4416C173.124 88.6448 173.076 88.8495 173.025 89.0541C172.969 89.2774 172.913 89.5008 172.868 89.7241C172.825 89.935 172.789 90.1474 172.756 90.3599C172.721 90.5832 172.691 90.808 172.668 91.0329C172.645 91.2407 172.623 91.45 172.609 91.6594C172.593 91.8997 172.589 92.1417 172.584 92.382C172.581 92.5728 172.572 92.765 172.575 92.9558C172.584 93.3652 172.607 93.773 172.651 94.1793C172.668 94.3375 172.697 94.4941 172.719 94.6523C172.756 94.9252 172.795 95.1966 172.848 95.4679C172.883 95.6494 172.927 95.8277 172.969 96.0076C173.026 96.2541 173.088 96.5007 173.159 96.7442C173.211 96.921 173.265 97.0977 173.324 97.273C173.406 97.5226 173.498 97.7707 173.594 98.0173C173.656 98.177 173.716 98.3368 173.783 98.4934C173.912 98.7896 174.053 99.0811 174.2 99.3695C174.251 99.4688 174.295 99.5711 174.347 99.6688C174.552 100.049 174.777 100.419 175.017 100.782C175.087 100.889 175.168 100.99 175.241 101.095C175.422 101.354 175.608 101.61 175.808 101.858C175.907 101.983 176.013 102.103 176.118 102.226C176.309 102.449 176.507 102.668 176.714 102.88C176.827 102.998 176.942 103.115 177.06 103.228C177.286 103.446 177.523 103.657 177.767 103.862C177.875 103.953 177.979 104.048 178.089 104.136C178.449 104.425 178.823 104.701 179.215 104.96C180.321 105.684 181.491 106.225 182.689 106.619C183.265 106.81 183.847 106.97 184.435 107.086C187.79 107.748 191.273 107.219 194.263 105.616C194.956 105.244 195.612 104.802 196.245 104.316C197.098 103.656 197.89 102.91 198.597 102.058Z" fill="#0593A1"/>
<path opacity="0.15" d="M198.597 102.058C198.951 101.634 199.288 101.19 199.598 100.717C199.878 100.289 200.134 99.8503 200.365 99.4052C200.424 99.292 200.468 99.1741 200.523 99.0609C200.686 98.726 200.849 98.391 200.984 98.0483C201.035 97.9181 201.071 97.7847 201.119 97.6529C201.238 97.321 201.361 96.9907 201.455 96.6542C201.491 96.5271 201.513 96.3999 201.544 96.2727C201.632 95.9285 201.719 95.5827 201.781 95.2353C201.803 95.1175 201.811 94.9981 201.828 94.8787C201.882 94.5204 201.935 94.1622 201.963 93.8025C201.97 93.6924 201.967 93.5822 201.973 93.4721C201.993 93.1031 202.011 92.734 202.003 92.3665C202.001 92.2611 201.987 92.1556 201.983 92.0501C201.967 91.6795 201.947 91.3089 201.904 90.9414C201.891 90.8313 201.868 90.7243 201.852 90.6142C201.801 90.2529 201.747 89.8916 201.669 89.5349C201.666 89.5225 201.663 89.5116 201.66 89.4992C201.262 90.8034 200.677 92.0765 199.891 93.2752C195.432 100.074 186.308 101.97 179.51 97.5118C176.163 95.3175 174.006 91.9897 173.209 88.3672C173.201 88.392 173.192 88.4153 173.184 88.4416C173.124 88.6448 173.076 88.8495 173.025 89.0541C172.969 89.2774 172.913 89.5008 172.868 89.7241C172.825 89.935 172.789 90.1474 172.756 90.3599C172.721 90.5832 172.691 90.808 172.668 91.0329C172.645 91.2407 172.623 91.45 172.609 91.6594C172.593 91.8997 172.589 92.1417 172.584 92.382C172.581 92.5728 172.572 92.765 172.575 92.9558C172.584 93.3652 172.607 93.773 172.651 94.1793C172.668 94.3375 172.697 94.4941 172.719 94.6523C172.756 94.9252 172.795 95.1966 172.848 95.4679C172.883 95.6494 172.927 95.8277 172.969 96.0076C173.026 96.2541 173.088 96.5007 173.159 96.7442C173.211 96.921 173.265 97.0977 173.324 97.273C173.406 97.5226 173.498 97.7707 173.594 98.0173C173.656 98.177 173.716 98.3368 173.783 98.4934C173.912 98.7896 174.053 99.0811 174.2 99.3695C174.251 99.4688 174.295 99.5711 174.347 99.6688C174.552 100.049 174.777 100.419 175.017 100.782C175.087 100.889 175.168 100.99 175.241 101.095C175.422 101.354 175.608 101.61 175.808 101.858C175.907 101.983 176.013 102.103 176.118 102.226C176.309 102.449 176.507 102.668 176.714 102.88C176.827 102.998 176.942 103.115 177.06 103.228C177.286 103.446 177.523 103.657 177.767 103.862C177.875 103.953 177.979 104.048 178.089 104.136C178.449 104.425 178.823 104.701 179.215 104.96C180.321 105.684 181.491 106.225 182.689 106.619C183.265 106.81 183.847 106.97 184.435 107.086C187.79 107.748 191.273 107.219 194.263 105.616C194.956 105.244 195.612 104.802 196.245 104.316C197.098 103.656 197.89 102.91 198.597 102.058Z" fill="#1D1D1B"/>
<path d="M63.5159 35.8345C58.1318 32.3035 50.9039 33.8061 47.373 39.1902C46.748 40.1439 46.289 41.1565 45.9727 42.1939C46.6038 45.0628 48.3111 47.699 50.9629 49.4374C56.347 52.9684 63.5749 51.4657 67.1058 46.0816C67.7292 45.1326 68.1913 44.1246 68.5061 43.0918C68.2394 41.873 67.7711 40.7022 67.126 39.6182C66.8205 39.105 66.484 38.6072 66.0963 38.1404C65.3737 37.2689 64.513 36.4889 63.5159 35.8345Z" fill="#E96B57"/>
<path d="M68.7889 45.3652C68.7951 45.6521 68.7811 45.9406 68.7656 46.2274C68.7811 45.939 68.7951 45.6521 68.7889 45.3652Z" fill="#E96B57"/>
<path d="M64.6172 54.5158C65.4685 53.8009 66.233 52.9573 66.8735 51.9804C66.233 52.9558 65.467 53.8009 64.6172 54.5158Z" fill="#E96B57"/>
<path d="M68.5978 47.6367C68.5482 47.9127 68.4799 48.1857 68.4102 48.4602C68.4799 48.1872 68.5482 47.9127 68.5978 47.6367Z" fill="#E96B57"/>
<path d="M62.9795 55.6582C62.8694 55.7218 62.764 55.7947 62.6523 55.8552C62.7655 55.7947 62.8694 55.7218 62.9795 55.6582Z" fill="#E96B57"/>
<path d="M46.0976 49.3466C45.9223 48.8302 45.7781 48.3045 45.6758 47.7695C45.7797 48.3045 45.9223 48.8302 46.0976 49.3466Z" fill="#E96B57"/>
<path d="M68.3479 48.7617C68.272 49.03 68.1758 49.2951 68.0781 49.5603C68.1743 49.2967 68.272 49.0315 68.3479 48.7617Z" fill="#E96B57"/>
<path d="M47.8105 52.5722C47.4864 52.1395 47.1871 51.6929 46.9297 51.2246C47.1887 51.6929 47.4864 52.1395 47.8105 52.5722Z" fill="#E96B57"/>
<path d="M49.0962 54.0267C48.6931 53.6453 48.3224 53.2405 47.9844 52.8125C48.0324 52.873 48.0743 52.9381 48.1239 52.9986C48.4217 53.3599 48.7504 53.6995 49.0962 54.0267Z" fill="#E96B57"/>
<path d="M49.3516 54.2559C49.364 54.2667 49.3764 54.2791 49.3888 54.29C49.8075 54.6606 50.2463 55.0157 50.727 55.3321C50.2324 55.0049 49.7796 54.6389 49.3516 54.2559Z" fill="#E96B57"/>
<path d="M47.9939 52.8157C47.9304 52.7367 47.873 52.6529 47.8125 52.5723C47.873 52.6529 47.9304 52.7351 47.9939 52.8157Z" fill="#151E36"/>
<path opacity="0.15" d="M47.9939 52.8157C47.9304 52.7367 47.873 52.6529 47.8125 52.5723C47.873 52.6529 47.9304 52.7351 47.9939 52.8157Z" fill="#1D1D1B"/>
<path d="M46.9242 51.2253C46.9101 51.2004 46.893 51.1769 46.8789 51.1504C46.893 51.1754 46.9101 51.2004 46.9242 51.2253Z" fill="#151E36"/>
<path opacity="0.15" d="M46.9242 51.2253C46.9101 51.2004 46.893 51.1769 46.8789 51.1504C46.893 51.1754 46.9101 51.2004 46.9242 51.2253Z" fill="#1D1D1B"/>
<path d="M45.982 42.1875C45.9774 42.2016 45.9774 42.2173 45.9727 42.2313C45.9758 42.2188 45.9805 42.2078 45.9852 42.1953C45.9852 42.1953 45.982 42.1906 45.982 42.1875Z" fill="#151E36"/>
<path opacity="0.15" d="M45.982 42.1875C45.9774 42.2016 45.9774 42.2173 45.9727 42.2313C45.9758 42.2188 45.9805 42.2078 45.9852 42.1953C45.9852 42.1953 45.982 42.1906 45.982 42.1875Z" fill="#1D1D1B"/>
<path d="M50.7312 55.3332C50.7297 55.3316 50.7281 55.3301 50.7266 55.3301C50.7266 55.3301 50.7281 55.3316 50.7312 55.3332Z" fill="#151E36"/>
<path opacity="0.15" d="M50.7312 55.3332C50.7297 55.3316 50.7281 55.3301 50.7266 55.3301C50.7266 55.3301 50.7281 55.3316 50.7312 55.3332Z" fill="#1D1D1B"/>
<path d="M45.4867 45.9462C45.4851 45.9121 45.4805 45.8779 45.4805 45.8438C45.482 45.8779 45.4867 45.9121 45.4867 45.9462Z" fill="#151E36"/>
<path opacity="0.15" d="M45.4867 45.9462C45.4851 45.9121 45.4805 45.8779 45.4805 45.8438C45.482 45.8779 45.4867 45.9121 45.4867 45.9462Z" fill="#1D1D1B"/>
<path d="M68.5172 43.0898L68.5156 43.0945C68.5172 43.1039 68.5219 43.1133 68.5235 43.1243C68.5203 43.1133 68.5188 43.1024 68.5172 43.0898Z" fill="#151E36"/>
<path opacity="0.15" d="M68.5172 43.0898L68.5156 43.0945C68.5172 43.1039 68.5219 43.1133 68.5235 43.1243C68.5203 43.1133 68.5188 43.1024 68.5172 43.0898Z" fill="#1D1D1B"/>
<path d="M68.6466 47.3535C68.6326 47.4481 68.6249 47.5443 68.6094 47.6404C68.6249 47.5443 68.6311 47.4481 68.6466 47.3535Z" fill="#151E36"/>
<path opacity="0.15" d="M68.6466 47.3535C68.6326 47.4481 68.6249 47.5443 68.6094 47.6404C68.6249 47.5443 68.6311 47.4481 68.6466 47.3535Z" fill="#1D1D1B"/>
<path d="M68.0766 49.5625C68.0393 49.6633 68.013 49.7672 67.9727 49.868C68.013 49.7657 68.0393 49.6633 68.0766 49.5625Z" fill="#151E36"/>
<path opacity="0.15" d="M68.0766 49.5625C68.0393 49.6633 68.013 49.7672 67.9727 49.868C68.013 49.7657 68.0393 49.6633 68.0766 49.5625Z" fill="#1D1D1B"/>
<path d="M64.6211 54.5137C64.1047 54.9463 63.5542 55.3231 62.9805 55.6566C63.5527 55.3231 64.1047 54.9463 64.6211 54.5137Z" fill="#151E36"/>
<path opacity="0.15" d="M64.6211 54.5137C64.1047 54.9463 63.5542 55.3231 62.9805 55.6566C63.5527 55.3231 64.1047 54.9463 64.6211 54.5137Z" fill="#1D1D1B"/>
<path d="M49.3528 54.2537C49.269 54.1793 49.1822 54.1049 49.1016 54.0273C49.1822 54.1049 49.2675 54.1778 49.3528 54.2537Z" fill="#FAFAFA"/>
<path opacity="0.15" d="M49.3528 54.2537C49.269 54.1793 49.1822 54.1049 49.1016 54.0273C49.1822 54.1049 49.2675 54.1778 49.3528 54.2537Z" fill="#1D1D1B"/>
<path d="M50.9599 49.4407C48.3082 47.7023 46.6009 45.0661 45.9697 42.1973C45.9666 42.2097 45.962 42.2205 45.9573 42.2329C45.7929 42.7804 45.6766 43.3355 45.5944 43.8937C45.582 43.9821 45.5696 44.0721 45.5588 44.1605C45.4905 44.7203 45.4549 45.2832 45.4673 45.843C45.4688 45.8771 45.4719 45.9112 45.4735 45.9453C45.4905 46.4881 45.5495 47.0278 45.6425 47.5612C45.6549 47.6326 45.6627 47.7023 45.6766 47.7737C45.779 48.3087 45.9216 48.8343 46.0984 49.3507C46.131 49.4469 46.1667 49.5399 46.2023 49.6345C46.3946 50.1524 46.6133 50.6626 46.8784 51.1511C46.8924 51.1759 46.9094 51.1992 46.9234 51.2255C47.1808 51.6938 47.4801 52.1405 47.8042 52.5731C47.8647 52.6538 47.9221 52.7359 47.9856 52.8166C48.3237 53.243 48.6959 53.6478 49.0975 54.0308C49.1781 54.1083 49.265 54.1812 49.3487 54.2572C49.7783 54.6418 50.2295 55.0078 50.7258 55.3334L50.7304 55.3365C54.432 57.7634 59.005 57.813 62.6492 55.856C62.7609 55.7955 62.8663 55.7226 62.9764 55.659C63.5502 55.3256 64.1023 54.9488 64.6171 54.5162C65.4684 53.8013 66.2329 52.9577 66.8734 51.9807C67.0967 51.6411 67.2983 51.2938 67.4813 50.9418C67.5262 50.8549 67.5604 50.765 67.6022 50.6766C67.7325 50.4083 67.8627 50.1401 67.9713 49.8656C68.0116 49.7648 68.038 49.6624 68.0752 49.5601C68.1713 49.2949 68.269 49.0297 68.345 48.7615C68.3729 48.6622 68.39 48.5599 68.4148 48.4606C68.4846 48.1877 68.5528 47.9132 68.6024 47.6372C68.6195 47.5426 68.6257 47.4464 68.6397 47.3503C68.6831 47.0681 68.7249 46.7858 68.7467 46.5021C68.7544 46.4106 68.7513 46.3191 68.756 46.2276C68.7715 45.9407 68.7839 45.6523 68.7792 45.3654C68.7777 45.277 68.7668 45.1901 68.7637 45.1017C68.7513 44.8118 68.7358 44.5233 68.7017 44.2365C68.6908 44.1481 68.6722 44.0612 68.6598 43.9728C68.6195 43.6875 68.5776 43.4037 68.5156 43.1231C68.514 43.1138 68.5094 43.1044 68.5078 43.0936C68.1915 44.1279 67.7294 45.1343 67.1075 46.0834C63.5719 51.469 56.3456 52.9716 50.9599 49.4407Z" fill="#E96B57"/>
<path opacity="0.15" d="M50.9599 49.4407C48.3082 47.7023 46.6009 45.0661 45.9697 42.1973C45.9666 42.2097 45.962 42.2205 45.9573 42.2329C45.7929 42.7804 45.6766 43.3355 45.5944 43.8937C45.582 43.9821 45.5696 44.0721 45.5588 44.1605C45.4905 44.7203 45.4549 45.2832 45.4673 45.843C45.4688 45.8771 45.4719 45.9112 45.4735 45.9453C45.4905 46.4881 45.5495 47.0278 45.6425 47.5612C45.6549 47.6326 45.6627 47.7023 45.6766 47.7737C45.779 48.3087 45.9216 48.8343 46.0984 49.3507C46.131 49.4469 46.1667 49.5399 46.2023 49.6345C46.3946 50.1524 46.6133 50.6626 46.8784 51.1511C46.8924 51.1759 46.9094 51.1992 46.9234 51.2255C47.1808 51.6938 47.4801 52.1405 47.8042 52.5731C47.8647 52.6538 47.9221 52.7359 47.9856 52.8166C48.3237 53.243 48.6959 53.6478 49.0975 54.0308C49.1781 54.1083 49.265 54.1812 49.3487 54.2572C49.7783 54.6418 50.2295 55.0078 50.7258 55.3334L50.7304 55.3365C54.432 57.7634 59.005 57.813 62.6492 55.856C62.7609 55.7955 62.8663 55.7226 62.9764 55.659C63.5502 55.3256 64.1023 54.9488 64.6171 54.5162C65.4684 53.8013 66.2329 52.9577 66.8734 51.9807C67.0967 51.6411 67.2983 51.2938 67.4813 50.9418C67.5262 50.8549 67.5604 50.765 67.6022 50.6766C67.7325 50.4083 67.8627 50.1401 67.9713 49.8656C68.0116 49.7648 68.038 49.6624 68.0752 49.5601C68.1713 49.2949 68.269 49.0297 68.345 48.7615C68.3729 48.6622 68.39 48.5599 68.4148 48.4606C68.4846 48.1877 68.5528 47.9132 68.6024 47.6372C68.6195 47.5426 68.6257 47.4464 68.6397 47.3503C68.6831 47.0681 68.7249 46.7858 68.7467 46.5021C68.7544 46.4106 68.7513 46.3191 68.756 46.2276C68.7715 45.9407 68.7839 45.6523 68.7792 45.3654C68.7777 45.277 68.7668 45.1901 68.7637 45.1017C68.7513 44.8118 68.7358 44.5233 68.7017 44.2365C68.6908 44.1481 68.6722 44.0612 68.6598 43.9728C68.6195 43.6875 68.5776 43.4037 68.5156 43.1231C68.514 43.1138 68.5094 43.1044 68.5078 43.0936C68.1915 44.1279 67.7294 45.1343 67.1075 46.0834C63.5719 51.469 56.3456 52.9716 50.9599 49.4407Z" fill="#1D1D1B"/>
<path d="M69.2905 137.605C69.2595 137.48 69.2146 137.357 69.1914 137.23C69.2146 137.357 69.258 137.478 69.2905 137.605Z" fill="#F89F26"/>
<path d="M69.76 138.914C69.6934 138.77 69.6237 138.628 69.5664 138.48C69.6253 138.629 69.6934 138.77 69.76 138.914Z" fill="#F89F26"/>
<path d="M70.4289 140.068C70.3344 139.937 70.2492 139.8 70.1641 139.664C70.2508 139.8 70.336 139.935 70.4289 140.068Z" fill="#F89F26"/>
<path d="M83.7229 135.684C83.7291 136.012 83.6857 136.341 83.6484 136.67C83.6857 136.343 83.7291 136.012 83.7229 135.684Z" fill="#F89F26"/>
<path d="M81.5898 140.994C81.9326 140.649 82.2473 140.264 82.5249 139.841C82.8056 139.414 83.0336 138.968 83.2134 138.512C83.032 138.969 82.8056 139.414 82.5249 139.841C82.2489 140.264 81.9326 140.649 81.5898 140.994Z" fill="#F89F26"/>
<path d="M83.5547 134.281C83.6214 134.593 83.6415 134.912 83.6679 135.23C83.6431 134.911 83.6214 134.593 83.5547 134.281Z" fill="#F89F26"/>
<path d="M83.6002 137.111C83.5397 137.451 83.4265 137.784 83.3164 138.118C83.3474 138.025 83.3691 137.932 83.397 137.839C83.411 137.791 83.4265 137.742 83.4389 137.693C83.4901 137.499 83.5645 137.308 83.6002 137.111Z" fill="#F89F26"/>
<path d="M72.5099 138.243C75.8982 140.465 80.4449 139.519 82.6671 136.131C83.0579 135.535 83.3478 134.903 83.5463 134.254C83.1509 132.443 82.0809 130.779 80.4092 129.683C77.0209 127.461 72.4742 128.407 70.252 131.795C69.8488 132.409 69.5868 133.067 69.3867 133.735C69.793 135.52 70.8583 137.159 72.5099 138.243Z" fill="#F89F26"/>
<path d="M83.3201 138.117C83.2767 138.247 83.2581 138.382 83.207 138.509C83.2581 138.38 83.2767 138.246 83.3201 138.117Z" fill="#151E36"/>
<path opacity="0.15" d="M83.3201 138.117C83.2767 138.247 83.2581 138.382 83.207 138.509C83.2581 138.38 83.2767 138.246 83.3201 138.117Z" fill="#1D1D1B"/>
<path d="M69.0781 135.643C69.0859 135.317 69.1076 134.99 69.1603 134.666C69.1091 134.992 69.0859 135.317 69.0781 135.643Z" fill="#151E36"/>
<path opacity="0.15" d="M69.0781 135.643C69.0859 135.317 69.1076 134.99 69.1603 134.666C69.1091 134.992 69.0859 135.317 69.0781 135.643Z" fill="#1D1D1B"/>
<path d="M69.0586 135.957C69.0586 135.994 69.0633 136.032 69.0648 136.069L69.0695 136.058C69.0679 136.024 69.0601 135.991 69.0586 135.957Z" fill="#151E36"/>
<path opacity="0.15" d="M69.0586 135.957C69.0586 135.994 69.0633 136.032 69.0648 136.069L69.0695 136.058C69.0679 136.024 69.0601 135.991 69.0586 135.957Z" fill="#1D1D1B"/>
<path d="M83.55 134.246C83.5484 134.249 83.5469 134.252 83.5469 134.256C83.5484 134.263 83.5516 134.271 83.5547 134.279C83.5516 134.266 83.5516 134.255 83.55 134.246Z" fill="#151E36"/>
<path opacity="0.15" d="M83.55 134.246C83.5484 134.249 83.5469 134.252 83.5469 134.256C83.5484 134.263 83.5516 134.271 83.5547 134.279C83.5516 134.266 83.5516 134.255 83.55 134.246Z" fill="#1D1D1B"/>
<path d="M69.5643 138.482C69.4527 138.197 69.3674 137.904 69.293 137.607C69.369 137.905 69.4542 138.197 69.5643 138.482Z" fill="#151E36"/>
<path opacity="0.15" d="M69.5643 138.482C69.4527 138.197 69.3674 137.904 69.293 137.607C69.369 137.905 69.4542 138.197 69.5643 138.482Z" fill="#1D1D1B"/>
<path d="M83.6719 135.229C83.6843 135.382 83.7199 135.534 83.723 135.688C83.7199 135.534 83.6858 135.383 83.6719 135.229Z" fill="#151E36"/>
<path opacity="0.15" d="M83.6719 135.229C83.6843 135.382 83.7199 135.534 83.723 135.688C83.7199 135.534 83.6858 135.383 83.6719 135.229Z" fill="#1D1D1B"/>
<path d="M69.0664 136.105C69.0819 136.484 69.1238 136.859 69.1967 137.231C69.1238 136.862 69.0881 136.485 69.0726 136.109C69.0726 136.109 69.0695 136.107 69.0664 136.105Z" fill="#151E36"/>
<path opacity="0.15" d="M69.0664 136.105C69.0819 136.484 69.1238 136.859 69.1967 137.231C69.1238 136.862 69.0881 136.485 69.0726 136.109C69.0726 136.109 69.0695 136.107 69.0664 136.105Z" fill="#1D1D1B"/>
<path d="M69.374 133.678C69.3245 133.842 69.3028 134.009 69.2656 134.175C69.2997 134.026 69.3492 133.881 69.3926 133.733C69.388 133.715 69.3787 133.696 69.374 133.678Z" fill="#151E36"/>
<path opacity="0.15" d="M69.374 133.678C69.3245 133.842 69.3028 134.009 69.2656 134.175C69.2997 134.026 69.3492 133.881 69.3926 133.733C69.388 133.715 69.3787 133.696 69.374 133.678Z" fill="#1D1D1B"/>
<path d="M69.0711 136.062L69.0664 136.074C69.0664 136.085 69.0696 136.097 69.0696 136.108C69.0696 136.108 69.0743 136.11 69.0774 136.111C69.0759 136.094 69.0727 136.078 69.0711 136.062Z" fill="#FAFAFA"/>
<path opacity="0.15" d="M69.0711 136.062L69.0664 136.074C69.0664 136.085 69.0696 136.097 69.0696 136.108C69.0696 136.108 69.0743 136.11 69.0774 136.111C69.0759 136.094 69.0727 136.078 69.0711 136.062Z" fill="#1D1D1B"/>
<path d="M83.6109 137.11C83.6373 136.965 83.6295 136.817 83.6481 136.671C83.6869 136.343 83.7288 136.014 83.7226 135.685C83.7195 135.53 83.6853 135.378 83.6714 135.225C83.645 134.907 83.6249 134.587 83.5582 134.276C83.5566 134.268 83.5535 134.26 83.5504 134.252C83.3519 134.9 83.062 135.533 82.6712 136.129C80.449 139.517 75.9023 140.461 72.514 138.241C70.8625 137.157 69.7971 135.519 69.3908 133.734C69.3474 133.882 69.2978 134.027 69.2637 134.176C69.2264 134.338 69.183 134.497 69.1582 134.66C69.107 134.984 69.0838 135.311 69.076 135.637C69.0729 135.744 69.0559 135.851 69.059 135.958C69.059 135.992 69.0683 136.025 69.0698 136.057C69.0698 136.073 69.0745 136.09 69.0745 136.105C69.09 136.482 69.1256 136.859 69.1985 137.228C69.2233 137.355 69.2668 137.478 69.2978 137.603C69.3722 137.9 69.4575 138.193 69.5692 138.478C69.6265 138.625 69.6948 138.768 69.763 138.912C69.8824 139.17 70.0158 139.419 70.1662 139.663C70.2499 139.799 70.3368 139.936 70.4314 140.067C70.6066 140.314 70.8051 140.547 71.0129 140.772C71.109 140.877 71.1974 140.987 71.3013 141.086C71.627 141.4 71.9774 141.694 72.3682 141.952C75.3332 143.896 79.1852 143.416 81.5903 140.995C81.933 140.649 82.2478 140.264 82.5254 139.841C82.8061 139.415 83.034 138.968 83.2155 138.512C83.2667 138.383 83.2853 138.25 83.3287 138.12C83.4372 137.785 83.5504 137.451 83.6109 137.11Z" fill="#F89F26"/>
<path opacity="0.15" d="M83.6109 137.11C83.6373 136.965 83.6295 136.817 83.6481 136.671C83.6869 136.343 83.7288 136.014 83.7226 135.685C83.7195 135.53 83.6853 135.378 83.6714 135.225C83.645 134.907 83.6249 134.587 83.5582 134.276C83.5566 134.268 83.5535 134.26 83.5504 134.252C83.3519 134.9 83.062 135.533 82.6712 136.129C80.449 139.517 75.9023 140.461 72.514 138.241C70.8625 137.157 69.7971 135.519 69.3908 133.734C69.3474 133.882 69.2978 134.027 69.2637 134.176C69.2264 134.338 69.183 134.497 69.1582 134.66C69.107 134.984 69.0838 135.311 69.076 135.637C69.0729 135.744 69.0559 135.851 69.059 135.958C69.059 135.992 69.0683 136.025 69.0698 136.057C69.0698 136.073 69.0745 136.09 69.0745 136.105C69.09 136.482 69.1256 136.859 69.1985 137.228C69.2233 137.355 69.2668 137.478 69.2978 137.603C69.3722 137.9 69.4575 138.193 69.5692 138.478C69.6265 138.625 69.6948 138.768 69.763 138.912C69.8824 139.17 70.0158 139.419 70.1662 139.663C70.2499 139.799 70.3368 139.936 70.4314 140.067C70.6066 140.314 70.8051 140.547 71.0129 140.772C71.109 140.877 71.1974 140.987 71.3013 141.086C71.627 141.4 71.9774 141.694 72.3682 141.952C75.3332 143.896 79.1852 143.416 81.5903 140.995C81.933 140.649 82.2478 140.264 82.5254 139.841C82.8061 139.415 83.034 138.968 83.2155 138.512C83.2667 138.383 83.2853 138.25 83.3287 138.12C83.4372 137.785 83.5504 137.451 83.6109 137.11Z" fill="#1D1D1B"/>
<path d="M109.952 81.8392C109.738 81.5725 109.51 81.3135 109.276 81.0607C107.327 78.9502 105.01 77.3902 102.521 76.3497C98.2302 74.557 93.4215 74.3663 89.0019 75.8147C86.4386 76.6552 84.0055 78.0276 81.895 79.9768C79.7845 81.9261 78.2229 84.2428 77.1839 86.7317C75.2129 91.449 75.1819 96.7944 77.1327 101.554C77.9856 103.635 79.1952 105.609 80.811 107.358C82.7603 109.468 85.0771 111.03 87.566 112.069C92.2833 114.04 97.6286 114.071 102.388 112.12C104.469 111.267 106.443 110.058 108.192 108.442C108.257 108.381 108.322 108.321 108.386 108.257C110.4 106.347 111.895 104.098 112.903 101.685C114.873 96.9727 114.914 91.6289 112.968 86.8729C112.236 85.0895 111.241 83.3884 109.952 81.8392Z" fill="#FFBE3B"/>
</svg>
