<svg width="704" height="536" viewBox="0 0 704 536" fill="none" xmlns="http://www.w3.org/2000/svg">
<g clip-path="url(#clip0_1773_31457)">
<path d="M351.537 0C157.388 0 0 157.39 0 351.541C0 419.194 19.129 482.375 52.249 535.997H650.829C683.949 482.373 703.078 419.194 703.078 351.541C703.078 157.39 545.685 0 351.537 0Z" fill="#44A0F7"/>
<path d="M106.189 166.407C118.909 166.407 125.472 167.181 134.937 174.601C138.666 177.524 141.997 181.208 145.524 185.111C151.363 191.57 157.979 198.895 167.581 203.578C175.804 207.593 184.06 208.211 191.345 208.758C197.547 209.225 202.903 209.626 207.598 211.869C212.238 214.084 215.522 218.105 219.323 222.761C222.685 226.877 226.491 231.539 231.763 235.506C251.159 250.092 272.275 249.13 292.694 248.207C302.918 247.742 312.574 247.304 321.838 248.792C323.322 249.032 325.232 249.881 327.252 250.783C330.293 252.141 333.744 253.68 337.925 254.274C345.074 255.289 348.351 254.865 353.184 252.3C354.163 251.78 355.175 251.244 356.972 250.593C368.454 246.432 378.324 246.822 386.292 251.747C391.28 254.827 395.892 258.181 400.354 261.422C414.117 271.423 428.344 281.764 451.215 281.764C464.711 281.764 477.736 286.595 491.527 291.708C508.139 297.867 525.329 304.225 545.497 303.303C565.361 302.383 581.222 304.086 604.057 309.581C626.223 314.913 648.566 317.766 676.497 318.826C678.173 318.889 679.97 319.009 681.825 319.13C685.248 319.352 688.856 319.588 692.49 319.588C695.528 319.588 698.58 319.414 701.554 318.939C700.961 312.523 700.209 306.156 699.277 299.845C694.823 300.728 688.639 300.333 683.074 299.97C681.034 299.837 679.066 299.709 677.224 299.64C650.615 298.63 629.433 295.936 608.546 290.913C584.096 285.03 566.156 283.13 544.612 284.122C528.296 284.896 513.692 279.449 498.201 273.706C483.431 268.23 468.153 262.564 451.213 262.564C434.582 262.564 424.456 255.207 411.644 245.891C406.892 242.439 401.981 238.87 396.378 235.41C383.355 227.369 367.472 226.374 350.436 232.541C347.368 233.649 345.452 234.665 344.185 235.339C344.02 235.427 343.866 235.512 343.72 235.59C343.292 235.579 342.393 235.517 340.627 235.266C339.108 235.051 337.146 234.175 335.072 233.248C332.154 231.948 328.852 230.473 324.883 229.836C313.674 228.035 302.567 228.54 291.819 229.026C273.233 229.869 257.176 230.596 243.3 220.161C239.89 217.596 237.122 214.205 234.192 210.617C229.595 204.989 224.39 198.613 215.869 194.544C207.924 190.751 199.879 190.146 192.779 189.614C186.412 189.136 180.914 188.723 175.998 186.325C169.731 183.266 164.891 177.91 159.765 172.238C155.854 167.908 151.806 163.431 146.778 159.489C132.232 148.088 120.779 147.209 106.187 147.209C94.4751 147.209 90.3471 146.533 81.4709 141.466C79.6316 140.416 76.7113 138.813 73.0556 137.006C69.0812 142.157 65.2469 147.42 61.5586 152.792C65.2008 154.486 68.724 156.298 71.9535 158.141C84.4239 165.257 92.2614 166.407 106.189 166.407Z" fill="#3378B9"/>
<path d="M87.6172 119.352C101.153 127.821 117.226 130.145 138.207 130.819C154.429 131.341 170.891 129.784 185.432 136.423C199.49 142.844 210.073 151.981 219.103 163.869C233.758 183.164 242.625 192.954 269.199 197.435C290.623 201.048 313.075 197.541 334.708 198.595C353.522 199.51 372.355 201.075 391.235 202.02C407.727 202.846 424.335 204.954 438.015 213.279C451.92 221.74 458.611 234.969 472.489 242.709C488.742 251.775 500.738 249.911 518.227 250.675C532.249 251.287 545.225 256.018 559.709 255.194C572.452 254.469 581.797 248.38 593.407 244.771C604.466 241.332 620.032 241.633 632.174 242.757C645.028 243.947 658.389 248.278 670.652 249.565C674.358 249.953 681.268 250.327 688.24 250.245C679.922 222.562 668.289 196.321 653.795 171.976C650.483 173.038 646.969 174.445 642.503 176.282C631.554 180.789 619.381 180.485 608.183 182.82C601.035 184.31 594.874 187.021 586.913 187.399C576.275 187.906 562.992 188.845 553.01 185.352C541.239 181.234 533.935 168.604 522.38 164.722C509.664 160.446 493.82 164.81 480.545 163.591C462.021 161.89 459.564 153.404 447.091 142.92C435.276 132.988 418.134 130.677 403.498 129.411C384.872 127.8 378.495 122.361 367.753 107.869C358.168 94.9453 346.681 94.1082 330.973 93.4688C313.183 92.7431 305.651 83.8515 303.07 66.0819C300.879 51.0099 295.642 49.8714 280.514 43.6813C270.154 39.4438 264.238 35.7977 256.109 26.6854C252.764 22.9376 249.268 19.4355 245.576 16.2617C183.803 35.7728 129.414 71.8784 87.6172 119.352Z" fill="#3378B9"/>
<path d="M699.596 379.683C695.434 382.152 691.5 384.485 687.251 385.084C678.19 386.351 667.889 382.241 658.8 378.604C657.548 378.105 656.321 377.613 655.125 377.149C643.959 372.796 632.681 367.011 621.777 361.418C604.528 352.569 586.693 343.416 567.69 338.918C557.15 336.424 548.298 339.655 539.737 342.779C536.782 343.856 533.996 344.874 531.145 345.659C519.817 348.785 509.034 348.258 497.234 344.011C490.301 341.512 483.27 336.806 476.467 332.255C467.745 326.419 458.723 320.382 449.059 318.283C439.396 316.185 430.261 316.617 421.429 317.034C407.745 317.677 395.933 318.235 383.67 309.995C378.747 306.685 374.584 302.722 370.178 298.523C365.347 293.922 360.353 289.165 354.255 285.321C340.47 276.633 325.246 268.851 307.332 270.792L304.299 271.128C294.399 272.242 285.853 273.2 275.103 269.819C251.652 262.446 232.437 259.117 209.128 265.295C201.765 267.25 183.444 271.019 172.378 263.909C167.48 260.762 164.02 255.974 160.358 250.907C156.079 244.982 151.655 238.857 144.58 234.925C129.796 226.703 126.184 223.003 116.978 206.651C109.503 193.382 104.206 191.563 89.756 189.388C82.531 188.301 78.9656 184.882 74.0293 180.153C71.2683 177.509 68.1387 174.512 64.0222 171.726C60.3761 169.259 56.611 167.51 52.7691 166.252C51.0257 169.057 49.315 171.885 47.6484 174.742C51.4923 175.775 55.171 177.327 58.6443 179.675C62.0869 182.004 64.7825 184.588 67.3899 187.084C72.6507 192.124 78.092 197.337 88.3294 198.877C100.754 200.749 102.973 201.342 108.612 211.359C118.752 229.368 123.433 234.145 139.916 243.311C145.123 246.207 148.744 251.22 152.578 256.527C156.603 262.097 160.763 267.857 167.19 271.986C180.954 280.826 200.911 277.403 211.588 274.577C232.66 268.987 250.412 272.119 272.223 278.977C284.911 282.967 294.849 281.849 305.368 280.669L308.362 280.337C323.359 278.722 336.82 285.68 349.139 293.444C354.426 296.777 358.861 301.003 363.558 305.477C368.062 309.764 372.716 314.2 378.319 317.965C393.218 327.976 407.787 327.29 421.882 326.624C430.101 326.238 438.591 325.835 447.026 327.668C454.906 329.379 462.787 334.653 471.132 340.237C478.414 345.11 485.944 350.15 493.987 353.047C507.742 358.001 520.364 358.6 533.704 354.919C536.926 354.03 540.031 352.897 543.03 351.803C550.597 349.038 557.752 346.434 565.48 348.264C583.35 352.494 600.659 361.376 617.399 369.964C628.518 375.67 640.015 381.569 651.644 386.098C652.814 386.555 654.014 387.033 655.237 387.523C664.002 391.027 673.765 394.93 683.687 394.93C685.319 394.93 686.957 394.824 688.593 394.594C693.266 393.935 697.248 392.081 700.99 389.984C701.415 386.09 701.774 382.177 702.065 378.245C701.232 378.719 700.407 379.203 699.596 379.683Z" fill="#3378B9"/>
<path d="M52.249 535.996H650.829C652.85 532.723 654.818 529.411 656.734 526.066C652.328 507.544 642.776 490.15 632.034 474.714C622.779 461.418 613.081 441.273 599.209 432.028C573.176 414.677 531.796 430.026 506.947 410.472C497.966 403.405 490.399 389.562 479.493 386.344C476.153 385.357 467.054 387.473 463.532 387.515C444.104 387.755 424.664 387.434 405.235 387.519C377.426 387.64 354.457 362.359 330.217 350.038C309.936 339.728 287.474 338.566 265.701 333.208C258.916 331.537 252.394 330.416 246.492 326.691C241.325 323.431 238.485 316.678 233.226 313.675C219.604 305.894 192.24 305.922 176.366 304.058C165.358 302.766 155.032 303.288 144.653 298.175C126.465 289.213 123.571 273.634 114.225 258.844C104.437 243.357 79.6916 242.806 65.0055 231.509C56.7322 225.144 49.9047 216.531 40.992 210.817C38.5479 209.25 35.1015 207.891 31.0925 206.783C11.1206 250.93 0 299.938 0 351.542C0 419.193 19.129 482.372 52.249 535.996Z" fill="#3378B9"/>
<path opacity="0.2" d="M551.791 437.572C347.693 437.572 182.239 272.12 182.239 68.022C182.239 59.5816 182.548 51.2143 183.105 42.916C74.0027 102.588 0.00390625 218.418 0.00390625 351.539C0.00390625 419.192 19.1329 482.374 52.2529 535.995H650.832C674.679 497.384 691.273 453.815 698.694 407.192C653.662 426.724 603.998 437.572 551.791 437.572Z" fill="#010F24"/>
<g opacity="0.2">
<path d="M551.194 96.3175C545.501 112.854 500.42 112.328 450.5 95.1424C400.58 77.9565 364.73 50.6195 370.422 34.0825C376.115 17.5475 421.197 18.0735 471.117 35.2595C521.033 52.4454 556.887 79.7824 551.194 96.3175Z" fill="white"/>
<path d="M585.598 119.59C585.598 125.78 580.581 130.797 574.393 130.797C568.204 130.797 563.188 125.78 563.188 119.59C563.188 113.402 568.204 108.385 574.393 108.385C580.581 108.385 585.598 113.402 585.598 119.59Z" fill="white"/>
<path d="M551.791 126.897C551.791 130.935 548.521 134.205 544.485 134.205C540.449 134.205 537.176 130.935 537.176 126.897C537.176 122.862 540.449 119.592 544.485 119.592C548.521 119.592 551.791 122.862 551.791 126.897Z" fill="white"/>
</g>
</g>
<defs>
<clipPath id="clip0_1773_31457">
<rect width="703.078" height="535.997" fill="white"/>
</clipPath>
</defs>
</svg>
