<svg version="1.2" xmlns="http://www.w3.org/2000/svg" viewBox="0 0 865 246" width="865" height="246"><defs><clipPath clipPathUnits="userSpaceOnUse" id="cp1"><path d="m0.99 0.01h864v232.2c0 7.95-6.45 14.4-14.4 14.4h-835.2c-7.95 0-14.4-6.45-14.4-14.4z"/></clipPath><linearGradient id="P" gradientUnits="userSpaceOnUse"/><radialGradient id="g1" cx="0" cy="0" r="1" href="#P" gradientTransform="matrix(454.999,0,0,454.999,494.52,157.242)"><stop stop-color="#5b73d7"/><stop offset=".43" stop-color="#2840a4"/><stop offset="1" stop-color="#1a2a6c"/></radialGradient><linearGradient id="g2" x2="1" href="#P" gradientTransform="matrix(341.232,0,0,49.842,.538,222.073)"><stop stop-color="#ff7d3e"/><stop offset="1" stop-color="#a33c00"/></linearGradient><linearGradient id="g3" x2="1" href="#P" gradientTransform="matrix(328.251,0,0,19.269,536.738,220.898)"><stop stop-color="#ff7d3e"/><stop offset="1" stop-color="#a33c00"/></linearGradient><linearGradient id="g4" x2="1" href="#P" gradientTransform="matrix(790.698,0,0,80.532,43.135,206.726)"><stop stop-color="#ff7d3e"/><stop offset="1" stop-color="#a33c00"/></linearGradient><linearGradient id="g5" x2="1" href="#P" gradientTransform="matrix(493.08,0,0,76.923,.538,208.532)"><stop stop-color="#ff7d3e"/><stop offset="1" stop-color="#a33c00"/></linearGradient><linearGradient id="g6" x2="1" href="#P" gradientTransform="matrix(0,-246.576,350.226,0,694.328,241.372)"><stop stop-color="#310333"/><stop offset="1" stop-color="#5e1818"/></linearGradient><linearGradient id="g7" x2="1" href="#P" gradientTransform="matrix(-19.059,-85.378,217.831,-48.628,672.432,240.273)"><stop stop-color="#ff7d3e"/><stop offset="1" stop-color="#a33c00"/></linearGradient><radialGradient id="g8" cx="0" cy="0" r="1" href="#P" gradientTransform="matrix(21.919,0,0,21.919,779.526,127.389)"><stop stop-color="#5b73d7"/><stop offset=".43" stop-color="#2840a4"/><stop offset="1" stop-color="#1a2a6c"/></radialGradient><linearGradient id="g9" x2="1" href="#P" gradientTransform="matrix(-77.872,-348.831,224.243,-50.059,861.321,218.296)"><stop stop-color="#9d92d2"/><stop offset="1" stop-color="#4b33c0"/></linearGradient><linearGradient id="g10" x2="1" href="#P" gradientTransform="matrix(-57.002,-255.344,233.798,-52.192,852.731,295.214)"><stop stop-color="#ff7d3e"/><stop offset="1" stop-color="#a33c00"/></linearGradient><linearGradient id="g11" x2="1" href="#P" gradientTransform="matrix(76.408,0,0,97.486,788.581,187.124)"><stop stop-color="#ff7d3e"/><stop offset="1" stop-color="#a33c00"/></linearGradient><radialGradient id="g12" cx="0" cy="0" r="1" href="#P" gradientTransform="matrix(27.224,0,0,27.224,683.631,186.259)"><stop stop-color="#5b73d7"/><stop offset=".43" stop-color="#2840a4"/><stop offset="1" stop-color="#1a2a6c"/></radialGradient><linearGradient id="g13" x2="1" href="#P" gradientTransform="matrix(38.786,0,0,102.083,709.782,172.176)"><stop stop-color="#ff7d3e"/><stop offset="1" stop-color="#a33c00"/></linearGradient><linearGradient id="g14" x2="1" href="#P" gradientTransform="matrix(-67.921,-56.313,146.373,-176.546,732.069,192.787)"><stop stop-color="#993702"/><stop offset="1" stop-color="#730000"/></linearGradient><radialGradient id="g15" cx="0" cy="0" r="1" href="#P" gradientTransform="matrix(12.88,0,0,12.88,723.767,116.815)"><stop stop-color="#5b73d7"/><stop offset=".43" stop-color="#2840a4"/><stop offset="1" stop-color="#1a2a6c"/></radialGradient><linearGradient id="g16" x2="1" href="#P" gradientTransform="matrix(-67.921,-56.313,167.373,-201.875,769.787,147.294)"><stop stop-color="#993702"/><stop offset="1" stop-color="#730000"/></linearGradient><linearGradient id="g17" x2="1" href="#P" gradientTransform="matrix(-67.921,-56.313,119.538,-144.179,759.862,159.265)"><stop stop-color="#993702"/><stop offset="1" stop-color="#730000"/></linearGradient><radialGradient id="g18" cx="0" cy="0" r="1" href="#P" gradientTransform="matrix(12.633,0,0,12.633,746.667,104.223)"><stop stop-color="#5b73d7"/><stop offset=".43" stop-color="#2840a4"/><stop offset="1" stop-color="#1a2a6c"/></radialGradient><linearGradient id="g19" x2="1" href="#P" gradientTransform="matrix(-22.233,-99.592,63.413,-14.156,778.011,218.773)"><stop stop-color="#993702"/><stop offset="1" stop-color="#730000"/></linearGradient><radialGradient id="g20" cx="0" cy="0" r="1" href="#P" gradientTransform="matrix(20.715,0,0,20.715,778.219,51.718)"><stop stop-color="#5b73d7"/><stop offset=".43" stop-color="#2840a4"/><stop offset="1" stop-color="#1a2a6c"/></radialGradient><radialGradient id="g21" cx="0" cy="0" r="1" href="#P" gradientTransform="matrix(12.693,0,0,12.693,820.067,73.044)"><stop stop-color="#5b73d7"/><stop offset=".43" stop-color="#2840a4"/><stop offset="1" stop-color="#1a2a6c"/></radialGradient><radialGradient id="g22" cx="0" cy="0" r="1" href="#P" gradientTransform="matrix(36.798,0,0,36.798,835.027,-8.592)"><stop stop-color="#5b73d7"/><stop offset=".43" stop-color="#2840a4"/><stop offset="1" stop-color="#1a2a6c"/></radialGradient><radialGradient id="g23" cx="0" cy="0" r="1" href="#P" gradientTransform="matrix(26.608,0,0,26.608,817.476,161.518)"><stop stop-color="#5b73d7"/><stop offset=".43" stop-color="#2840a4"/><stop offset="1" stop-color="#1a2a6c"/></radialGradient><radialGradient id="g24" cx="0" cy="0" r="1" href="#P" gradientTransform="matrix(19.934,0,0,19.934,839.785,115.476)"><stop stop-color="#5b73d7"/><stop offset=".43" stop-color="#2840a4"/><stop offset="1" stop-color="#1a2a6c"/></radialGradient><linearGradient id="g25" x2="1" href="#P" gradientTransform="matrix(-46.777,-9.538,47.019,-230.589,857.369,149.182)"><stop stop-color="#993702"/><stop offset="1" stop-color="#730000"/></linearGradient><radialGradient id="g26" cx="0" cy="0" r="1" href="#P" gradientTransform="matrix(32.809,0,0,32.809,838.275,212.504)"><stop stop-color="#5b73d7"/><stop offset=".43" stop-color="#2840a4"/><stop offset="1" stop-color="#1a2a6c"/></radialGradient><linearGradient id="g27" x2="1" href="#P" gradientTransform="matrix(9.139,26.922,-33.009,11.205,654.986,208.315)"><stop stop-color="#993702"/><stop offset="1" stop-color="#730000"/></linearGradient><linearGradient id="g28" x2="1" href="#P" gradientTransform="matrix(66.686,0,0,13.838,656.319,215.397)"><stop stop-color="#993702"/><stop offset="1" stop-color="#730000"/></linearGradient><linearGradient id="g29" x2="1" href="#P" gradientTransform="matrix(-25.312,-113.385,74.638,-16.662,768.328,192.347)"><stop stop-color="#993702"/><stop offset="1" stop-color="#730000"/></linearGradient><linearGradient id="g30" x2="1" href="#P" gradientTransform="matrix(-23.215,-103.992,64.43,-14.383,819.957,202.367)"><stop stop-color="#ff7d3e"/><stop offset="1" stop-color="#a33c00"/></linearGradient><linearGradient id="g31" x2="1" href="#P" gradientTransform="matrix(-13.516,-60.548,147.295,-32.881,766.023,255.37)"><stop stop-color="#ff7d3e"/><stop offset="1" stop-color="#a33c00"/></linearGradient><linearGradient id="g32" x2="1" href="#P" gradientTransform="matrix(-0.223,-0.046,.118,-0.572,759.45,204.272)"><stop stop-color="#993702"/><stop offset="1" stop-color="#730000"/></linearGradient><linearGradient id="g33" x2="1" href="#P" gradientTransform="matrix(-29.026,-157.808,119.812,-22.037,863.001,246.885)"><stop stop-color="#9d92d2"/><stop offset="1" stop-color="#4b33c0"/></linearGradient><linearGradient id="g34" x2="1" href="#P" gradientTransform="matrix(432.6,0,0,112.396,.542,183.899)"><stop stop-color="#310333"/><stop offset="1" stop-color="#5e1818"/></linearGradient><linearGradient id="g35" x2="1" href="#P" gradientTransform="matrix(7.624,-13.235,100.942,58.144,80.91,201.704)"><stop stop-color="#ff7d3e"/><stop offset="1" stop-color="#a33c00"/></linearGradient><linearGradient id="g36" x2="1" href="#P" gradientTransform="matrix(223.792,-388.529,1128.525,650.029,6.772,336.488)"><stop stop-color="#ff7d3e"/><stop offset="1" stop-color="#a33c00"/></linearGradient><linearGradient id="g37" x2="1" href="#P" gradientTransform="matrix(0,-437.63,785.569,0,111.136,210.579)"><stop stop-color="#ff7d3e"/><stop offset="1" stop-color="#a33c00"/></linearGradient><linearGradient id="g38" x2="1" href="#P" gradientTransform="matrix(0,-147.563,458.028,0,306.702,216.64)"><stop stop-color="#ff7d3e"/><stop offset="1" stop-color="#a33c00"/></linearGradient><linearGradient id="g39" x2="1" href="#P" gradientTransform="matrix(0,-185.951,642.329,0,172.896,195.585)"><stop stop-color="#ff7d3e"/><stop offset="1" stop-color="#a33c00"/></linearGradient><linearGradient id="g40" x2="1" href="#P" gradientTransform="matrix(60.657,0,0,27.989,162.743,181.064)"><stop stop-color="#ff7d3e"/><stop offset="1" stop-color="#a33c00"/></linearGradient><linearGradient id="g41" x2="1" href="#P" gradientTransform="matrix(0,-208.507,298.95,0,43.113,191.87)"><stop stop-color="#314ec7"/><stop offset="1" stop-color="#1a2a6c"/></linearGradient><radialGradient id="g42" cx="0" cy="0" r="1" href="#P" gradientTransform="matrix(43.482,0,0,43.482,104.231,136.988)"><stop stop-color="#5b73d7"/><stop offset=".43" stop-color="#2840a4"/><stop offset="1" stop-color="#1a2a6c"/></radialGradient><linearGradient id="g43" x2="1" href="#P" gradientTransform="matrix(0,-82.182,173.501,0,151.148,197.385)"><stop stop-color="#993702"/><stop offset="1" stop-color="#730000"/></linearGradient><radialGradient id="g44" cx="0" cy="0" r="1" href="#P" gradientTransform="matrix(49.749,0,0,49.749,240.122,159.664)"><stop stop-color="#5b73d7"/><stop offset=".43" stop-color="#2840a4"/><stop offset="1" stop-color="#1a2a6c"/></radialGradient><linearGradient id="g45" x2="1" href="#P" gradientTransform="matrix(0,-230.425,589.799,0,196.046,198.949)"><stop stop-color="#993702"/><stop offset="1" stop-color="#730000"/></linearGradient><linearGradient id="g46" x2="1" href="#P" gradientTransform="matrix(38.828,0,0,13.96,280.638,191.441)"><stop stop-color="#ff7d3e"/><stop offset="1" stop-color="#a33c00"/></linearGradient><radialGradient id="g47" cx="0" cy="0" r="1" href="#P" gradientTransform="matrix(25.467,0,0,25.467,295.632,167.031)"><stop stop-color="#5b73d7"/><stop offset=".43" stop-color="#2840a4"/><stop offset="1" stop-color="#1a2a6c"/></radialGradient><linearGradient id="g48" x2="1" href="#P" gradientTransform="matrix(0,-47.516,229.387,0,305.719,211.662)"><stop stop-color="#993702"/><stop offset="1" stop-color="#730000"/></linearGradient><linearGradient id="g49" x2="1" href="#P" gradientTransform="matrix(0,-158.637,637.666,0,276.26,229.609)"><stop stop-color="#993702"/><stop offset="1" stop-color="#730000"/></linearGradient><linearGradient id="g50" x2="1" href="#P" gradientTransform="matrix(0,-53.609,434.286,0,300.252,215.069)"><stop stop-color="#993702"/><stop offset="1" stop-color="#730000"/></linearGradient><linearGradient id="g51" x2="1" href="#P" gradientTransform="matrix(0,-19.761,47.874,0,68.661,192.17)"><stop stop-color="#993702"/><stop offset="1" stop-color="#730000"/></linearGradient><linearGradient id="g52" x2="1" href="#P" gradientTransform="matrix(193.75,0,0,16.523,551.755,238.731)"><stop stop-color="#ff7d3e"/><stop offset="1" stop-color="#a33c00"/></linearGradient><linearGradient id="g53" x2="1" href="#P" gradientTransform="matrix(0,27.068,-557.337,0,581.992,230.609)"><stop stop-color="#8c2a15"/><stop offset="1" stop-color="#ad2500"/></linearGradient><linearGradient id="g54" x2="1" href="#P" gradientTransform="matrix(124.739,0,0,24.678,114.653,234.655)"><stop stop-color="#ff7d3e"/><stop offset="1" stop-color="#a33c00"/></linearGradient><linearGradient id="g55" x2="1" href="#P" gradientTransform="matrix(0,-31.955,222.114,0,327.759,246.951)"><stop stop-color="#686de0"/><stop offset="1" stop-color="#1a2a6c"/></linearGradient><radialGradient id="g56" cx="0" cy="0" r="1" href="#P" gradientTransform="matrix(44.076,0,0,44.076,174.833,218.248)"><stop stop-color="#5b73d7"/><stop offset=".43" stop-color="#2840a4"/><stop offset="1" stop-color="#1a2a6c"/></radialGradient><linearGradient id="g57" x2="1" href="#P" gradientTransform="matrix(0,-31.802,123.302,0,188.147,246.951)"><stop stop-color="#8c2a15"/><stop offset="1" stop-color="#ad2500"/></linearGradient><linearGradient id="g58" x2="1" href="#P" gradientTransform="matrix(0,-31.802,261.407,0,98.796,246.951)"><stop stop-color="#8c2a15"/><stop offset="1" stop-color="#ad2500"/></linearGradient><linearGradient id="g59" x2="1" href="#P" gradientTransform="matrix(0,-16.647,27.6,0,226.566,246.971)"><stop stop-color="#ff7d3e"/><stop offset="1" stop-color="#a33c00"/></linearGradient></defs><style>.a{fill:#cf6d26}.b{fill:url(#g1)}.c{opacity:.54;fill:url(#g2)}.d{opacity:.54;fill:url(#g3)}.e{opacity:.54;fill:url(#g4)}.f{opacity:.54;fill:url(#g5)}.g{opacity:.34;fill:#db9844}.h{fill:url(#g6)}.i{opacity:.35;fill:#1a2a6c}.j{opacity:.5;fill:url(#g7)}.k{opacity:.5;fill:url(#g8)}.l{opacity:.5;fill:url(#g9)}.m{opacity:.5;fill:url(#g10)}.n{opacity:.5;fill:url(#g11)}.o{fill:url(#g12)}.p{opacity:.5;fill:url(#g13)}.q{fill:url(#g14)}.r{fill:url(#g15)}.s{fill:url(#g16)}.t{fill:url(#g17)}.u{fill:url(#g18)}.v{fill:url(#g19)}.w{fill:url(#g20)}.x{fill:url(#g21)}.y{fill:url(#g22)}.z{fill:url(#g23)}.A{fill:url(#g24)}.B{fill:url(#g25)}.C{fill:url(#g26)}.D{fill:url(#g27)}.E{fill:url(#g28)}.F{fill:url(#g29)}.G{fill:#261800}.H{opacity:.5;fill:url(#g30)}.I{opacity:.5;fill:url(#g31)}.J{fill:url(#g32)}.K{opacity:.5;fill:url(#g33)}.L{opacity:.26;fill:#e5e400}.M{opacity:.54;fill:#9e5e11}.N{fill:url(#g34)}.O{opacity:.5;fill:url(#g35)}.P{opacity:.5;fill:url(#g36)}.Q{opacity:.5;fill:url(#g37)}.R{opacity:.5;fill:url(#g38)}.S{opacity:.5;fill:url(#g39)}.T{opacity:.5;fill:url(#g40)}.U{fill:url(#g41)}.V{fill:url(#g42)}.W{fill:url(#g43)}.X{fill:url(#g44)}.Y{fill:url(#g45)}.Z{opacity:.5;fill:url(#g46)}.a0{fill:url(#g47)}.a1{fill:url(#g48)}.a2{fill:url(#g49)}.a3{fill:url(#g50)}.a4{opacity:.22;fill:#e5e400}.a5{opacity:.54;fill:#523216}.a6{fill:url(#g51)}.a7{fill:#261200}.a8{opacity:.5;fill:url(#g52)}.a9{fill:url(#g53)}.aa{fill:#ff8000}.ab{opacity:.5;fill:url(#g54)}.ac{fill:url(#g55)}.ad{fill:url(#g56)}.ae{fill:url(#g57)}.af{fill:url(#g58)}.ag{opacity:.18;fill:#523216}.ah{opacity:.18;fill:#1a2a6c}.ai{opacity:.5;fill:url(#g59)}</style><g clip-path="url(#cp1)"><path class="a" d="m0.8 123c0 0 37.8 4.9 49.7 7.9l4.6 9.1 1.9-1.1c0 0 28.9 6.5 43.9 9.7 0 0 17.5 10.8 25.3 16.7 0 0 20.9 1.2 34.9 1.5 0 0 5.5-0.7 8.5-0.8 3-0.2 7.3 0.8 7.3 0.8 0 0 8.9-7.3 11.3-7.9 2.3-0.7 19.9 0.9 48.5 7.9 7.2 1.8 24.6 7.3 24.6 7.3l7-6.9c0 0 24.3 6 38.4 10.7 2.8 0.9 8.8 4.5 10 6.1l3.2 8.4 203.8 21 53.8-7.9c0 0 26.8 3.8 35.4 3.6 8.7-0.2 23.7-1.1 27.1-1.9 0 0-0.7-4.1-0.2-4.6 1.7-1.5 5.1-2.9 8.4-3.4 0 0 4.7-7.6 5.9-9 0 0 9.3-3.6 11.1-3.6 1.8-0.1 33.4-0.3 41.3 0.2l3.1 19.8c0 0 4.2-41.7 6.2-47.9 2-6.3 6-23.3 13.4-35.5l5-3c0 0 3.4-4.8 4.5-6.1 1.1-1.4 6.9-6 8.1-6.3 1.3-0.4 5.1 0 5.1 0l4.5 1.8c0 0 0 18.1 1.6 22.6 0 0 4.2-10.1 5.8-11.5l4.7 7 1.9 2.3c0 0 4.7-24.7 8.6-36.9 3.9-12.3 8.7-33.2 8.7-33.2 0 0 7.9 3.4 8.2 3.9 0.2 0.5 1.7 11.7 1.7 11.7 0 0 0.5-29 4-38 3.5-8.9 10-22.9 18.3-37.5h17.8v239.6h-837.2z"/><path class="b" d="m523.7 211.9c-56.8-5-178.9-14.9-241-23.7l-282.2-25.4v84.2h864.5v-32.2c0 0-251-6.9-294-3.6-42.9 3.3-47.3 0.7-47.3 0.7z"/><path class="c" d="m0.5 197.2c82.4 32.3 341.3 49.8 341.3 49.8h-87.4c-151.6-22.4-253.9-24.7-253.9-24.7z"/><path class="d" d="m536.7 212.7c156.2 19.8 328.3 17.8 328.3 17.8v-15.7c0 0-248.4-3.9-275.8-3.5-27.5 0.4-52.5 1.4-52.5 1.4z"/><path class="e" d="m143.1 174.8c265.2 36.2 690.7 72.2 690.7 72.2h-78.4c0 0-612.1-75.4-712.3-80.5z"/><path class="f" d="m0.5 170.1c176.5 57.8 493.1 76.9 493.1 76.9h-42.5c0 0-256.4-6-450.6-64.9v-12z"/><path class="g" d="m465.8 235.1c22.9 3.7 86.7 1.3 81.5-3-5.2-4.2-105.6-15.3-107.5-8.6-1.8 6.6 12.3 9.4 26 11.6z"/><path class="h" d="m523.7 211.9l55.8-4.2c0 0 46.9 4.9 61.3 0.4v-4.1l7.6-3.8 5.7-9 10.8-3.5c0 0 25.4 2 40.9 0l4 21.9c0 0 5.1-45.6 7.4-51.4 9.9-25.2 17-35.6 17-35.6 0 0 18.3-12.9 22.7-12.9 0 0 0.2 10.5 0.8 16.9l1.3 6.6 5.6-8.1c0 0 4.7 2.5 6.7 4.5 0 0 10.1-32.6 17.3-66 0 0 3.3 1.2 6.5 1.1 0 0 3.1 9.9 3.5 8.1 2-7.7 11.5-55.8 22.3-72.8h44.1v239.1c0 0-46.4-4.5-72.9-3.2 0 0 17.8 4.5 11.2 3.2-1.2-0.3-11.4 1.2-11.4 1.2 0 0-28.9-8.4-23.5-6.9 0 0-27.6-4.9-45.4-4.7l6.4-2.2c0 0-6.6-1-5.4-1 1.2 0 17.3-2 19.3-1.7 1.9 0.2-16.3-3.5-16.3-3.5 0 0-8.2-1.2-20.1 0.8l9.7 0.5c0 0-48.2 5.2-58.1 5.2-9.8 0-18.2-3.5-18.2-3.5h10.1c0 0-12.8-8.6-28.9-9.2l10.7-1.5c0 0-14.7-2.5-32.5-1.2 0 0 1.7 1 1.2 1-0.5 0-8.9 0.5-35.6 4.1z"/><path class="i" d="m834.8 91.8l-1-84.7-35.5 67.9-3.2-10.3-10.2 81.8c-0.7 0.6-5.5-10.8-5.5-10.8-6.8 12.4-22 53.6-22 53.6l-8.8-16.3 10.4-39.8-1.3-6.6-0.7-16.9-22.7 12.9-24.7 85.9 13.4 3.8 1.9 7.8 17 3.1c0 0 23.9 3.1 24.9 3.3 1.4 0.3-10.7 2-13.4 1.9-5.3-0.4-22.7-3.6-16.8-4.2l-12.6 1.3 5.4 1-6.4 2.2 17.4 0.7c14.8 0.9 26.5 3.8 26.5 3.8l25 7.1 11.3-1.2-11.1-3.2c0 0-9.7-1.1-22.5-4.8 0 0 10.4-2.9 20.1-2.2l-1.1-3.2 4.1-12.1c0 0-7 5.1-25.4 6.4 0 0 11.4-21 24.2-34.8l13.5 2.5 13-22.2 1.1 3 4.3-9.9 4.5-5.8 24.8-31.7 0.7 4 1-6.2 10.6-13.5zm-49.9 91.6c0 0 3.4-12.3 8.4-24.9 4.2-10.8 9.4-17.1 9.4-17.1 0 0 0 7.7 0 14.1l-1 24.5c-5.1 1.7-11.3 3.3-16.8 3.4z"/><path class="j" d="m705.8 187.7l3.8 20.8 0.2 5-53.5 8.8-2.2 4.2c0 0-7.7-0.9-13.8-3.2h10.1c0 0-4.2-2.8-11.6-5.6-7.7-3-17.3-3.6-17.3-3.6l10.7-1.5 5.6-3 3-1.5c0 0 12.8 8.3 23.6 9.7l5.1-4.3-21.1-13.3 5.7-9z"/><path class="k" d="m755.7 209.6c2.2 5.1 9.4 13.6 9.4 13.6 0 0 13.5-22.9 26.4-38.1l-6.6-1.7c3.7-16 12.5-33.8 12.5-33.8-8.8-1.1-12.5-3.1-12.5-3.1l-5.3-13.1z"/><path class="l" d="m795.1 129.5c6.2 8.1 32.8 23.3 32.8 23.3l24.8-31.7 0.7 3.8 1-6 10.6-13.5v-78.6l-31.2-19.7z"/><path class="m" d="m788.8 225.6l3.6 10.3c0 0 35.7-1.2 51.5 1.5 15.8 2.6 21.1 1.7 21.1 1.7v-105.7l-45.6 35-1.2-2.9z"/><path class="n" d="m802.7 225.6l1.2 10.1-11.8 0.2-3.5-10.3 26.1-34.5 26 11.5 24.3-64.2v80.3z"/><path class="o" d="m654.1 191.2c6.8 10.5 17.6 18.4 17.6 18.4l13.9-13.3-9.9 13.3c0 0 9.5-3 18.6-6.9 9.1-4 11.5-15 11.5-15h-40.9z"/><path class="p" d="m734.2 185.1l14.4 12.2-6.7 25.9-17-3.1-1.9-7.8-13.2-2.7 13.2-56.2 11.3-30.8 2.5-1.5z"/><path class="q" d="m731.3 164.6c0 8.1 0.1 17.4 0.1 20.7-2.6 6.3-7.6 16.4-15.6 21.6 0.1-1.5 0.8-4.2 3.1-8.8 4.2-8.3 7.2-15.3 7.3-16.5 0.1-1.3 1.9-9.4 4-14.4q0.7-1.6 1.1-2.6z"/><path class="r" d="m731.3 160.6c-0.1 0.2-5.1 17.2-8.3 25.2-3.2 7.9-9.1 22-9.2 22.3q-1.9 0.9-4 1.5l5.6-47.6c1.4-6.2 10.2-25.9 18.9-39.4-0.3 2.1-2.9 22.3-3 28.5 0 0.9 0 4.7 0 9.5z"/><path class="s" d="m734 140.1c0.7-8.5 1.9-16.7 3.9-22.9 2.7-3.6 5.3-6.4 7.5-7.5 1-0.6 3.3-0.7 5.6-0.6 0.1 4.3-8.1 19.4-8.9 20-0.9 0.5-8 10.8-8.1 11z"/><path class="t" d="m757 109.7c-0.8 18.7-22.8 75.4-22.8 75.4l-0.8-5.4c-0.4-4.4-0.8-20 0.2-35.6 0 0 2-6.5 6-10.7 3.9-4.2 5.4-5.9 5.4-5.9 0 0 5.1-14.3 6.5-16.3q0.8-1.2 1.2-1.9c2.3 0.1 4.3 0.4 4.3 0.4z"/><path class="u" d="m757 109.7c-0.8 18.7-22.8 75.4-22.8 75.4l-0.8-5.4c-0.4-4.4-0.8-20 0.2-35.6 0 0 2-6.5 6-10.7 3.9-4.2 5.4-5.9 5.4-5.9 0 0 5.1-14.3 6.5-16.3q0.8-1.2 1.2-1.9c2.3 0.1 4.3 0.4 4.3 0.4z"/><path class="v" d="m771.8 168.1c1.8-5.8 4.5-9 5.5-11.2-0.6 4.7-1.3 9.6-2.1 14.2 0 0-4.3 14.8-14.1 30.6 0.1-0.5 6.6-20.3 10.7-33.6z"/><path class="w" d="m795.1 64.7l-10.2 81.8c0 0-3.5-3.1-5.5-10.8 0 0-0.5 7.3-1.5 16.5-5.7 6.9-18.3 51.5-18.5 52.2q-1.7 2.6-3.7 5.2c0 0 1.3-23.2 5.2-47.2 0 0 7.6-20 10.4-32.9 2.7-12.8 7.1-32.3 16.8-68z"/><path class="x" d="m830.4 76c-1.4 17.9-2.7 24.7-2.7 24.7-8.6 8.3-15.8 14.8-21.2 19.5 0 0-1.1-13 1.7-22.1 2.7-9.2 3.7-9.1 3.7-9.1 0 0 10-9.3 15.3-12.5 1.8-1 2.4-0.1 3.2-0.5z"/><path class="y" d="m865 0v36c0 0-2.5 15.2-7.8 27.4-0.6 1.3-22.4 28.4-22.4 28.4 0.5-39.8-1-84.7-1-84.7-0.9 29.7-2 51-3.2 65.7l-20.8 17-9.2 35.3c-3.6 2.9-5.5 4.4-5.5 4.4 0 0 2.1-37.5 3.6-60.7 2.5-37.5 22.2-68.8 22.2-68.8h44.1z"/><path class="z" d="m830 202.4c0.8 0.1 9.1 3.8 9.1 3.8-22.2 9.3-50.5 19.4-50.5 19.4 6.5-24.5 29.4-60.1 29.4-60.1-2.5 7-3.3 25.6-3.3 25.6 0 0 11.3 10.7 15.3 11.3z"/><path class="A" d="m840.2 177l5.2 18.6-4.5 9.9c-0.2-0.1-9.9-5-13.7-7.4-0.9-0.6-9.1-23.2-9.1-23.8 1.4-9.4 4.6-14.8 5.3-15.7q0 0 0-0.1h0.1q0-0.1 0-0.1l29.2-37.3 3.3 19c0 0-4.7 18.1-5.7 19.8-1 1.8-10.1 17.1-10.1 17.1z"/><path class="B" d="m865 105.4v47.4l-18.2 39.6-5.3-14.9c0 0 7.7-13 7.6-13.4-0.1-0.3 1.2-2.7 4.7-11.3 3.4-8.7 4.2-9.9 4.2-9.9 0 0-1.2-3.7-2.6-11.9-1.1-6.3-1.1-10.5-1-12.1z"/><path class="C" d="m802.7 225.6c0 0 38.6-10.1 62.3-12.1v12.1c0 0-24.2 3.7-25.9 3.6-14.7-1.2-36.4-3.6-36.4-3.6z"/><path class="D" d="m648.4 200.2c6.2-0.6 21.1 13.3 21.1 13.3 0 0-27.1-8.6-28.7-9.5 0 0 2.7-3.3 7.6-3.8z"/><path class="E" d="m703.2 208.5c-11.8 0.1-46.9 13.8-46.9 13.8 0 0 12.7 0.3 30.2-2.8 17.4-3.1 36.5-7.2 36.5-7.2 0 0-8.3-3.9-19.8-3.8z"/><path class="F" d="m759 133.2c-3.8 6.2-10.4 39.8-10.4 39.8 0 0 15.5-30.9 20.8-45l-4.3-5.6z"/><path class="G" d="m799.8 58.6c0 0 11.8-14.8 17.4-24.4 5.6-9.5 9.6-34.2 9.6-34.2h1.4c0 0-2.8 11.2-5.4 22.7-2.7 11.5-23.4 38.8-23.4 38.8z"/><path class="H" d="m802.7 141.4l20.8 17c-2.6 3.2-4.4 10-4.4 10l-1.1-2.9-10.6 17.9-5.8-3.4z"/><path class="I" d="m766.8 226.5c0.3 0.4 1.5 4.1 1.5 4.1l0.5 2 0.8-1.5c0 0 14.8 3.8 22.5 4.8l-1.3 1.3-19.3-2.9c0 0-4.2-1.1-4.6-1.1-0.3-0.1-19.7-3.5-27.1-3.8l-10.2-0.5 5.9-4.4c0 0-1.4 0.4 3.7 1.6 5 1.1 12.6 2.1 14.2 2.3 1.7 0.2 13.4-1.9 13.4-1.9z"/><path class="J" d="m759.5 204.2l-0.1 0.2q0 0 0 0 0.1-0.1 0.1-0.2z"/><path class="K" d="m827.2 198.1l5.1 5.2 6.8 2.9-1.5 11.5 27.4-4.2v-60.7l-24.1 52.7z"/><path class="L" d="m822.2 166.1c0 2.2 2.2 9.9 2.2 11.1 0 1.1 14.7-13.5 14.7-16.3 0.1-2.8-0.9-16-0.9-16 0 0-16.1 18.3-16 21.2z"/><path class="M" d="m825.5 186.3c0.9 4.9 4 7 6.1 7.5 2.2 0.5 7.4-3.8 5.5-8.7-2-4.8-2.7-10.7-5.6-10.3-2.8 0.5-6.4 9-6 11.5z"/><path class="M" d="m833.8 170.6c-1.2 2.3 0 3.2 1.5 4.2 1.4 1 3.9-3.4 3.8-5.7 0-2.3-3.5-2-5.3 1.5z"/><path class="L" d="m802.4 63.4c0.9 4.4 1.9 17.9 3.9 18.3 1.9 0.3 11.9-10.5 12-14 0.2-3.5-3.5-12.6-6.1-12.8-2.6-0.3-10.5 4.8-9.8 8.5z"/><path class="L" d="m814.9 49.5c0.8 2.1 1.6 8.3 2.9 8.6 1.4 0.2 4.7-2.6 5.4-4.3 0.6-1.7 0-6.5-1.9-7.1-1.9-0.6-7.3 0.7-6.4 2.8z"/><path class="M" d="m819.9 65.5c0.7 3 4.1 5.8 5.5 5.4 1.3-0.4 3.7-2.8 2.8-4.7-1-1.8-8.7-2.6-8.3-0.7z"/><path class="L" d="m837.1 79.4c-0.9 4.9 4.7 0 10.2-5.6 0.8-0.9 7.4-8.8 8.7-11.2 1.3-2.5 3.7-13.9 1.6-15.2-2.1-1.2-21.6 3.1-21.5 6.1 0.1 3 1.4 23.1 1 25.9z"/><path class="M" d="m849.5 43c-0.3 2 5.8 1.9 6.8 1.6 0.9-0.2 2.4-3.6 2.9-6.2 0.5-2.6-9.2 1-9.7 4.6z"/><path class="L" d="m839.1 7.1c0.1 5.1-2.4 30.6-0.9 31.1 1.5 0.5 9.9-6.6 13.5-9 3.6-2.5 6.2-23.1 5.9-24.9-0.2-1.7-18.6-1.7-18.5 2.8z"/><path class="M" d="m814.8 91.5c-0.2 2.7-2.5 9.4-1 9.9 1.5 0.5 5.7 0.8 6.8-1.5 1.1-2.2 4.1-9.1 2.8-12.1-1.4-2.9-8.5 1.4-8.6 3.7z"/><path class="M" d="m824.2 80.9c-0.3 3 0.3 3.6 1.2 4 0.8 0.3 4.4-7 3-7-1.4 0-4.1 1.4-4.2 3z"/><path class="N" d="m432.8 230.3c-7.4 0-130.7-14.8-149.6-14.8l81.5 24.6c-1.2-0.2-72.2-9.5-102.2-18.7-36.3-11.1-49-13.9-49-13.9 0 0 9-1.8 12.6-3.3l12.8 0.4 6.7 1.7c0 0 33 0.8 49.4 1.2 0 0-48.5-5.4-57.4-8-4.2-1.2-9.7-3-14.2-4.4-4.9-1.7-8.8-3-8.8-3l-44.4-8.2c0 0-17.3-2.8-28.9-6.2l0.4 0.2 31.2 19.1-2.8 3 1.2 1 10 7.8 11.1 8.5q0 0-0.2 0 0 0-0.2 0-0.1 0-0.4-0.1c-6.2-0.9-49-7-70.1-11.7q0 0 0-0.1-1.7-0.3-3.2-0.7c-20.5-5-49.6-14.6-51.4-15.1q0-0.1-0.1-0.1c0.5 0.2 31.6 13 43.3 18-0.4-0.1-26.1-5.5-51.3-13.4-13.5-4.3-30.5-10.7-42.6-15.5-9-3.5-15.7-6.1-15.7-6.1v-1.4-11.2-15.5-16.7c0 0 31.5 8.7 53.7 13.8q0.2 0.1 0.5 0.2c0.2 0 1.2-0.7 1.9-1q0.3-0.2 0.4-0.2c5.7 1.3 20.2 4.8 23.5 5.5 16.3 3.4 19.9 3.4 19.9 3.4 0 0 16.4 13.8 22 16.4h0.3 0.2l0.3 0.1c0.9 0 2.5 0.1 4.7 0.2 2.7 0.1 6.3 0.3 10.1 0.5l0.2 0.1c8.7 0.4 18.6 1 23.4 1.5 0 0 0.5-0.1 1.1-0.2 1.9-0.3 5.5-0.9 6.9-0.9 1.8 0 7.6 1.1 7.6 1.1l8.9-5.6c0 0 20-0.9 45.6 5.6 25.5 6.5 30.3 7.3 30.3 7.3l6-7.3c0 0 45.7 12 48.3 16.4 0.5 0.7 3.1 8 3.1 8 0 0-9.9 1-21.1 5.8 0 0 14.1 8.6 19.7 9.1 2 0.2 7.9 0.8 20.3 2.2l3.1 4.6c21.3 2.4 32.4 4.1 48.7 7l-54.6-3.4c1.8 0.1 104.6 12.4 97.3 12.4z"/><path class="O" d="m75.4 193.1c4.8 1.9 10.9 4.5 16.9 7z"/><path class="P" d="m192.3 217.3q0 0-0.2 0 0 0-0.2 0-0.1 0-0.4-0.1c-4.6-0.6-29.1-4.2-50.2-7.9-7.4-1.3-14.4-2.6-19.9-3.8q0 0-0.1-0.1-1.6-0.3-3.1-0.7c-9.4-2.3-20.5-5.5-30.1-8.4-11.3-3.5-20.3-6.4-21.3-6.7-20.4-11.1-50.4-17.4-50.9-17.5 0.4 0.2 27.8 15 48.3 20.9 20.2 5.8 28.6 7.4 28.9 7.4l-0.5-0.2q0.3 0.1 0.5 0.2c6.6 2.8 12.9 5.4 16.9 7.1-0.4-0.1-26.2-5.5-51.3-13.4-13.5-4.2-30.5-10.7-42.6-15.4l-15.6-6.2v-12.6-15.5l31.7 5 21.8-7.8 2.4-0.9 0.5-0.2c5.7 1.3 20.2 4.8 23.5 5.5 16.3 3.4 19.8 3.4 19.8 3.4 0 0 16.5 13.8 22.1 16.4h0.3 0.1l0.3 0.1c0.6 0 1.4 0 2.4 0.1q1.1 0 2.4 0.1l10.1 9.5 1.6 1.3 2.1 1.1 31.2 19-2.8 3.1c-10.7 0-21.9 4.2-25.7 5.8q-0.1 0-0.2 0.1-0.1 0-0.2 0 0 0.1 0 0.1-0.2 0-0.4 0.1-0.4 0.2-0.6 0.2 0 0.1 0 0.1-0.1 0-0.1 0c25.5 4.8 38.4 2.3 38.4 2.3z"/><path class="Q" d="m172.9 197l-2.8 3c-11 0.3-21.9 4.4-25.7 5.9q-0.1 0-0.2 0.1-0.1 0-0.2 0 0 0 0 0.1-0.2 0-0.3 0.1-0.4 0.2-0.6 0.2 0 0.1-0.1 0.1 0 0 0 0l-1.6 2.8c-7.4-1.3-14.4-2.6-19.9-3.8q0 0 0 0-1.7-0.4-3.2-0.8c-9.3-2.3-20.5-5.5-30-8.4l-2.6-12.4-19.8-11.1-16.5-28.4 7.6-3.9c5.8 1.3 20.2 4.8 23.6 5.5 16.2 3.4 19.8 3.4 19.8 3.4 0 0 16.4 13.8 22 16.4h0.3 0.2l0.3 0.1c0.5 0 1.3 0 2.4 0.1l14 10.9 2.1 1z"/><path class="R" d="m280.6 193v3.3l-7.5 4.1 65.3 9.3 4.3 6.5h-7.4l-0.9-2.2-43.1-6.8-20.6-2.6 1.9-6.3z"/><path class="S" d="m223.4 195.1c-4.9-1.7-8.8-3-8.8-3l-44.4-8.2c0 0-17.3-2.8-28.9-6.2l-18.9-11.9h0.3 0.2l0.3 0.1 14.8 0.7h0.2c0 0 3 6 8.9 8.8 5.9 2.8 44.1 9.2 44.1 9.2 0 0-13.6-10.5-28.5-16.4v-0.2c1.9-0.3 5.5-0.9 6.9-0.9l8 3.4 44.9 17.2z"/><path class="T" d="m191.2 184.6v3.3l23.4 4.2 8.8 3-0.9-7.3h-9l-43.9-20.7-6.9 1.1c0 0 2.6 0.9 13.8 6.7 11.2 5.9 14.7 9.7 14.7 9.7z"/><path class="U" d="m85.7 183.9c-28.7-9.6-85.2-39.5-85.2-39.5 0 0 0-17.4 0-19.9l51.9 11.2 2.7 8.7c0 0 4.4 2.8 5.7 5 0.6 1 11 23.3 12.3 24.9 1.2 1.7 12.6 9.6 12.6 9.6z"/><path class="V" d="m130 194.1c-4.6-0.9-9.1-1.8-13.5-2.7q0.1 0 0 0c-0.4-0.2-27.6-10.7-37.1-15.7 0 0-6.7-7.6-7.4-8.6-0.7-1-10.8-17.7-15-26.6l43.4 9c19.4 11.6 26.2 16.5 39.2 26.6-0.2 0-8.4 5.5-10.2 7.8-0.5 0.6-0.8 5.6-0.9 6.2-0.3 1.3 1.5 4 1.5 4z"/><path class="W" d="m172.9 197c-7.9 0.5-27.7-0.3-40.2-2.5-1.7-1.2-3.3-4.4-3.3-4.4 4.5-11.3 10.9-13.7 11.1-13.5 9.4 3.6 32.4 20.4 32.4 20.4z"/><path class="X" d="m186.1 162.6c25.1 28.9 86.5 35.7 86.5 35.7 0 0 4.6-2 8-5.3 0 0-13.6-14.4-18.6-17.5 0 0-26-8.5-45.2-11.6-19.2-3.2-30.7-1.3-30.7-1.3z"/><path class="Y" d="m169.6 167.1c4 5.7 43.9 20.6 43.9 20.6h9c0 0-21.9-9.7-45.3-19.5z"/><path class="Z" d="m316.4 184.6l-35.8-0.1c0 0 2.8 10.6 10.1 12.9l7.7 1c0 0 5.3-2.6 11.6-4 6.4-1.3 9.5-1.8 9.5-1.8z"/><path class="a0" d="m268.1 169.4c0.7 3.9 8.3 12.7 12.5 15.1 4.3 2.3 28.9 1.1 35.8 0.1 0 0-3.1-3.5-11.4-6.4-8.3-2.9-37-10-37-10z"/><path class="a1" d="m298.4 198.4c-7-1.1-17.8-2.1-17.8-2.1l-7.5 4.1c0 0 30.3 6.1 39.1 7.3 23.6 3 26.2 2 26.2 2 0 0-28.3-9.4-40-11.3z"/><path class="a2" d="m226.1 204.2c32.1 14.4 86.1 24.1 86.1 24.1 0 0 7.9 1.8 14.2 0.2 0 0-41.9-12.7-43.2-13-22.8-5.3-43.9-10.8-43.9-10.8z"/><path class="a3" d="m295 207.5c9 0.9 39.4 6.5 39.4 6.5 0 0-13.8 1.4-27.5 0.8-13.8-0.7-40.8-8.1-40.8-8.1 0 0 11.3-0.9 28.9 0.8z"/><path class="a4" d="m64.4 144.7c2.7 7.2 11.1 16.1 15.5 15.5 4.5-0.7 28.6-5.4 22.3-8.2-6.2-2.8-39.1-11-37.8-7.3z"/><path class="M" d="m112.2 178.8c1.7 2.1 19.3-0.2 20.3-1.4 1-1.1-3.3-4.8-4.5-6-1.1-1.2-16.5-0.8-16.9 0.2-0.3 1-0.1 5.8 1.1 7.2z"/><path class="M" d="m103.4 176.3c-1.4 2.9 0.2 5.3 2.3 5.8 2.2 0.5 6.8 2.5 6.5 0.1-0.3-2.3-7.8-7.9-8.8-5.9z"/><path class="a4" d="m0.5 132.1c-0.1 4.7 4.8 12.2 7.2 13.3 2.5 1.1 14.4 5.1 16.3 5.1 1.8 0 1.3-2.1-1-4.7-2.3-2.6-22.3-17.1-22.5-13.7z"/><path class="a4" d="m54.8 169.4c2.6 1.3 6.6 3.4 7.4 3.7 6.1 2.8 7.5 2 5.8 0.1-1.6-2-11.8-7.6-14-6.6-2.2 0.9-2.6 1.1 0.8 2.8z"/><path class="M" d="m40.9 145.9c-2 2.9 3.9 3.9 4.7 3.5 0.9-0.3 2.7-1.3 0.9-3.5-1.8-2.1-3.8-2.6-5.6 0z"/><path class="a4" d="m116.8 187.8c6 1.1 11.5-3.1 9.9-5.5-1.7-2.3-4.8-2.6-7.1-0.8-2.3 1.8-6.1 3.3-4.6 4.4 1.5 1 0.3 1.6 1.8 1.9z"/><path class="a5" d="m229.7 166.5c6.8 2.3 19.7 14.3 22.9 16.9l1.2 11.7-12 5.4 3 0.5c0 0 3-4.3 13.6-5 0 0-3-9.8-1.3-14.9 0 0-4.4-5-7.3-9.4z"/><path class="a5" d="m226.1 165.7c0 0 0.4 14 17.9 27l-7.2 6.6-1.7-0.5c0 0 5.9-4.7 5.9-6.5 0 0-11.8-9.4-15.9-16.6-4.1-7.1-11.4-12.3-11.4-12.3z"/><path class="M" d="m203.7 171c2.7 5.2 15.4 6.7 13.1 4.4-2.2-2.4-14.7-7.4-13.1-4.4z"/><path class="M" d="m216.8 180.4c3.3 2.6 7.6 1.9 4.7 0.7-2.8-1.3-6.9-2.4-4.7-0.7z"/><path class="a5" d="m115.7 158.9c-17-0.6-28.4 5.2-30.1 6.9-1.7 1.7 4 14.6 4 14.6l-2.7 9.4 1.4 6.5 9.1 2.7c0 0-4.8-8.6-4.8-16.8 0-0.9-5.6-12.6-4.1-15.7 0 0 29.1-0.7 40.9 1.8z"/><path class="a5" d="m31.4 150.7c0 0 0.7-12.9-7.1-21l8.8 1.9c0 0-0.6 22 4.5 32.2 0 0-25.2-5.2-37.1 3.5v-9.1c0 0 29.7 2.6 32.7 3.5 0 0-1.4-4.6-1.8-11z"/><path class="a5" d="m55.1 144.4c0 0-5.7 9.3-7.8 17.5l-4 3.9-15.7 9.1 7.8 2.2c0 0 1.7-6.9 12.6-9.1 0 0 4.9-18.4 8.5-22.6z"/><path class="a5" d="m282.5 171.9c5 5.6 9.7 13.9 9.7 13.9l-1.5 11.6 4.5 0.6 1-12.2-10.1-12.6z"/><path class="a6" d="m66.9 189.6l3.6 1.4c-2.2-0.9-3.6-1.4-3.7-1.5q0.1 0.1 0.1 0.1z"/><path class="a7" d="m745.5 247c-97.4-2.1-193.7-16.5-193.7-16.5 0 0 12.2 4.1 15.1 5.5 3 1.5-66 3.5-82.6 2.7-14.3-0.7-26.3-3.1-26.3-3.1 0 0-11.7-2.9-25.2-5.1 0 0 14.9 3.1 29.4 8.2 14.4 5.2 31.4 8.3 31.4 8.3z"/><path class="a8" d="m566.9 236l-1 11h179.6c0 0-57.2 0.5-117.6-6.9-60.4-7.4-76.1-9.6-76.1-9.6 0 0 9 1.8 15.1 5.5z"/><path class="a9" d="m497 247l69.2-2.9 0.5-5.4 100.3 8.3z"/><path class="aa" d="m54.9 247c0 0 25.1-8.7 50.9-11.7 0 0 17.7-1.2 21.2-3.2 0 0 31.7-14.8 45.9-15.4 14.2-0.7 33.3 3.1 38.7 4.4l4.6 13.6 23.2 7.2c0 0-15-21.6-14.9-22.5 0.1-1 6-3 20.7-3.2 14.7-0.2 77.4 8.3 112.2 14.1 34.8 5.8 78.2 16.7 78.2 16.7z"/><path class="a7" d="m88.5 247c0 0 33-12.7 38.5-13.2 0 0 40-14.2 42.6-14.2 0 0 39.9 0.6 40.8 2.7 1.4 3.4 3.3 9.2 3.3 9.2l10.9 3.8 11.9 5c0 0-13.2-20.5-12-20.9 20.8-6.9 106.1 8.5 109.8 8.5 3.7 0 96.7 19.1 96.7 19.1z"/><path class="ab" d="m236.5 240.3l2.9 6.7h-25.7l-3-5.8-14.7-5.9-30.4 11.7h-21.5l-3.5-5.1-26-4.8 12.4-3.3 83.3-11.5 3.4 9.2z"/><path class="ac" d="m224.5 219.4c40.8 19 105.3 27.6 105.3 27.6h101.2c0 0-84.8-19.5-133-24.7-48.3-5.2-54.9-5.4-63.8-4.7-8.8 0.7-9.7 1.8-9.7 1.8z"/><path class="ad" d="m210.3 222.3c5 1.9-41.2 16.2-61.2 16.4 0 0-10.7-2.8-22.1-4.9 0 0 20.5-11.9 42.6-14.2 0 0 32-0.6 40.7 2.7z"/><path class="ae" d="m196 235.3c-25.2 6.3-30.4 11.7-30.4 11.7 0 0 22.5 0 24.1 0 1.6 0 21-2.7 21-5.8z"/><path class="af" d="m119.4 236.8c-14.1 0.3-64.5 10.2-62.4 10.2 2.1-0.1 72.4 0 72.4 0l11.2-5.1c0 0-6.6-5.3-21.2-5.1z"/><path class="ag" d="m326.4 226.8l74.2 20.2h-10l-116-26.8z"/><path class="ah" d="m230.7 217.9c0 0 46.8 4.4 117 29.1h-7.6c0 0-52.1-22.2-115.6-27.6z"/><path class="M" d="m380.3 247c0 0-45.5-13.5-54.8-14.5-9.4-1 2.9 14.5 2.9 14.5h1.4z"/><path class="ai" d="m213.7 231.5l4.9 15.5h20.8l-2.9-6.7z"/></g></svg>