<svg width="960" height="274" viewBox="0 0 960 274" fill="none" xmlns="http://www.w3.org/2000/svg">
<g clip-path="url(#clip0_2347_32953)">
<path d="M-0.189756 136.67C-0.189756 136.67 41.8202 142.11 54.9902 145.41L60.1102 155.6L62.2702 154.37C62.2702 154.37 94.3202 161.6 111.06 165.07C111.06 165.07 130.46 177.06 139.15 183.69C139.15 183.69 162.38 184.97 177.94 185.35C177.94 185.35 184 184.51 187.33 184.39C190.66 184.27 195.5 185.35 195.5 185.35C195.5 185.35 205.35 177.23 207.96 176.5C210.57 175.77 230.12 177.6 261.91 185.35C269.87 187.29 289.26 193.4 289.26 193.4L297.04 185.74C297.04 185.74 324.04 192.44 339.69 197.61C342.8 198.64 349.42 202.68 350.74 204.4L354.36 213.73L580.75 237.06L640.62 228.28C640.62 228.28 670.33 232.6 679.93 232.33C689.54 232.06 706.28 231.07 709.98 230.22C709.98 230.22 709.22 225.62 709.77 225.12C711.64 223.46 715.46 221.9 719.1 221.35C719.1 221.35 724.3 212.91 725.65 211.33C725.65 211.33 736.05 207.35 738.04 207.28C740.03 207.21 775.16 207.01 783.87 207.55L787.32 229.56C787.32 229.56 792.02 183.27 794.25 176.32C796.49 169.37 800.92 150.47 809.09 136.9L814.73 133.51C814.73 133.51 818.44 128.25 819.67 126.74C820.9 125.23 827.35 120.15 828.73 119.74C830.1 119.33 834.36 119.74 834.36 119.74L839.3 121.8C839.3 121.8 839.3 141.83 841.08 146.91C841.08 146.91 845.74 135.62 847.53 134.07L852.74 141.83L854.94 144.44C854.94 144.44 860.07 117.01 864.41 103.41C868.75 89.81 874.15 66.58 874.15 66.58C874.15 66.58 882.93 70.37 883.21 70.9C883.49 71.43 885.13 83.85 885.13 83.85C885.13 83.85 885.7 51.68 889.61 41.7C893.51 31.72 900.71 16.23 909.93 -0.0100098H929.73V266.2H-0.499756L-0.189756 136.67Z" fill="#CF6D26"/>
<path d="M580.82 235.41C517.7 229.92 382.05 218.9 312.98 209.06L-0.499756 180.91V274.43H960V238.71C960 238.71 681.14 230.97 633.39 234.68C585.65 238.38 580.82 235.41 580.82 235.41Z" fill="url(#paint0_radial_2347_32953)"/>
<path opacity="0.54" d="M-0.499756 219.05C90.9802 255.01 378.65 274.43 378.65 274.43H281.57C113.12 249.55 -0.499756 247.01 -0.499756 247.01V219.05Z" fill="url(#paint1_linear_2347_32953)"/>
<path opacity="0.54" d="M595.28 236.32C768.78 258.3 960 256.08 960 256.08V238.71C960 238.71 684.03 234.28 653.54 234.77C623.05 235.25 595.28 236.32 595.28 236.32Z" fill="url(#paint2_linear_2347_32953)"/>
<path opacity="0.54" d="M157.91 194.24C452.61 234.43 925.38 274.43 925.38 274.43H838.26C838.26 274.43 158.12 190.63 46.8303 184.95L157.91 194.24Z" fill="url(#paint3_linear_2347_32953)"/>
<path opacity="0.54" d="M-0.499756 188.96C195.6 253.18 547.37 274.43 547.37 274.43H500.07C500.07 274.43 215.26 267.74 -0.489756 202.36V188.96H-0.499756Z" fill="url(#paint4_linear_2347_32953)"/>
<path opacity="0.34" d="M516.42 261.24C541.94 265.38 612.74 262.64 606.98 257.93C601.22 253.22 489.67 240.87 487.61 248.28C485.55 255.69 501.18 258.76 516.42 261.24Z" fill="#DB9844"/>
<path d="M580.75 235.45L642.77 230.8C642.77 230.8 694.86 236.16 710.85 231.22V226.69L719.36 222.44L725.65 212.4L737.72 208.56C737.72 208.56 765.95 210.76 783.12 208.56L787.54 232.88C787.54 232.88 793.26 182.22 795.78 175.8C806.76 147.81 814.73 136.21 814.73 136.21C814.73 136.21 835.01 121.89 839.95 121.89C839.95 121.89 840.15 133.52 840.76 140.68L842.19 147.97L848.47 139.03C848.47 139.03 853.68 141.77 855.86 143.94C855.86 143.94 867.13 107.74 875.09 70.7C875.09 70.7 878.8 71.94 882.32 71.88C882.32 71.88 885.78 82.83 886.29 80.87C888.49 72.36 898.97 18.83 911.05 0.0200195H960V265.63C960 265.63 908.42 260.71 879.06 262.09C879.06 262.09 898.81 267.1 891.41 265.63C890.1 265.37 878.79 267.03 878.79 267.03C878.79 267.03 846.68 257.7 852.72 259.35C852.72 259.35 821.98 253.86 802.23 254.14L809.37 251.67C809.37 251.67 801.96 250.57 803.33 250.57C804.7 250.57 822.54 248.37 824.74 248.65C826.94 248.92 806.63 244.81 806.63 244.81C806.63 244.81 797.57 243.44 784.4 245.63L795.1 246.18C795.1 246.18 741.59 251.94 730.61 251.94C719.63 251.94 710.3 248.1 710.3 248.1H721.55C721.55 248.1 707.37 238.59 689.44 237.85L701.33 236.2C701.33 236.2 685.05 233.46 665.29 234.92C665.29 234.92 667.12 236.02 666.57 236.02C666.02 236.02 656.69 236.57 627.05 240.59L580.75 235.45Z" fill="url(#paint5_linear_2347_32953)"/>
<path opacity="0.5" d="M926.42 101.97L925.32 7.84009L885.9 83.3801L882.32 71.8601L870.98 162.8C870.25 163.46 864.94 150.79 864.94 150.79C857.36 164.51 840.43 210.36 840.43 210.36L830.64 192.26L842.2 147.96L840.77 140.67L839.96 121.88L814.74 136.2L787.32 231.64L802.24 235.9L804.31 244.55L823.22 248.01C823.22 248.01 849.77 251.43 850.88 251.68C852.46 252.02 839.01 253.87 836.06 253.81C830.16 253.37 810.74 249.81 817.37 249.12L803.31 250.56L809.35 251.66L802.21 254.13L821.58 254.91C837.98 255.87 851.06 259.06 851.06 259.06L878.77 267.03L891.39 265.63L879.04 262.09C879.04 262.09 868.27 260.88 853.98 256.77C853.98 256.77 865.53 253.58 876.35 254.35L875.09 250.73L879.64 237.28C879.64 237.28 871.92 243.04 851.42 244.42C851.42 244.42 864.12 221.09 878.39 205.73L893.34 208.58L907.75 183.91L909.04 187.16L913.81 176.16L918.8 169.77L946.32 134.55L947.09 138.95L948.2 132.15L960 117.09L926.42 101.97ZM870.99 203.78C870.99 203.78 874.82 190.14 880.32 176.06C884.99 164.12 890.75 157.12 890.75 157.12C890.75 157.12 890.75 165.63 890.75 172.76L889.62 200.01C884 201.87 877.08 203.65 870.99 203.78Z" fill="#1A2A6C" fill-opacity="0.7"/>
<path opacity="0.5" d="M783.13 208.56L787.33 231.64L787.56 237.27L728.16 247.01L725.67 251.67C725.67 251.67 717.12 250.71 710.3 248.07H721.55C721.55 248.07 716.91 244.99 708.71 241.83C700.08 238.5 689.44 237.83 689.44 237.83L701.33 236.18L707.62 232.87L710.87 231.22C710.87 231.22 725.07 240.46 737.07 242.01L742.84 237.25L719.37 222.43L725.66 212.39L783.13 208.56Z" fill="url(#paint6_linear_2347_32953)"/>
<path opacity="0.5" d="M838.6 232.87C840.98 238.54 849.03 248 849.03 248C849.03 248 863.99 222.58 878.39 205.7L870.98 203.78C875.1 185.94 884.87 166.25 884.87 166.25C875.1 165.03 870.98 162.8 870.98 162.8L865.13 148.16L838.6 232.87Z" fill="url(#paint7_radial_2347_32953)"/>
<path opacity="0.5" d="M882.33 143.87C889.19 152.93 918.81 169.75 918.81 169.75L946.33 134.53L947.07 138.74L948.21 132.12L960.01 117.06V29.7901L925.33 7.84009L882.33 143.87Z" fill="url(#paint8_linear_2347_32953)"/>
<path opacity="0.5" d="M875.36 250.71L879.32 262.07C879.32 262.07 919.02 260.82 936.57 263.72C954.12 266.62 960 265.61 960 265.61V148.17L909.3 187.14L908.01 183.89L875.36 250.71Z" fill="url(#paint9_linear_2347_32953)"/>
<path opacity="0.5" d="M890.74 250.71L892.14 261.83L879.06 262.07L875.1 250.71L904.1 212.38L933.01 225.05L960 153.75V243.03L890.74 250.71Z" fill="url(#paint10_linear_2347_32953)"/>
<path d="M725.65 212.4C733.22 224.09 745.29 232.87 745.29 232.87L760.66 218.05L749.68 232.87C749.68 232.87 760.28 229.58 770.35 225.19C780.42 220.8 783.12 208.56 783.12 208.56H737.72L725.65 212.4Z" fill="url(#paint11_radial_2347_32953)"/>
<path opacity="0.5" d="M814.67 205.7L830.64 219.19L823.22 248L804.31 244.54L802.24 235.89L787.55 232.87L802.24 170.49L814.74 136.2L817.57 134.59L814.67 205.7Z" fill="url(#paint12_linear_2347_32953)"/>
<path d="M811.45 182.86C811.49 191.87 811.54 202.2 811.56 205.85C808.73 212.88 803.08 224.11 794.25 229.86C794.38 228.21 795.11 225.22 797.71 220.11C802.38 210.92 805.67 203.1 805.81 201.72C805.95 200.35 807.87 191.29 810.2 185.8C810.73 184.56 811.14 183.6 811.45 182.86Z" fill="url(#paint13_linear_2347_32953)"/>
<path d="M811.44 178.4C811.36 178.67 805.79 197.54 802.24 206.39C798.7 215.24 792.1 230.93 792 231.17C790.59 231.89 789.11 232.47 787.55 232.87L793.78 180C795.4 173.12 805.16 151.26 814.74 136.2C814.44 138.55 811.56 160.95 811.43 167.83C811.42 168.91 811.42 173.11 811.44 178.4Z" fill="url(#paint14_radial_2347_32953)"/>
<path d="M814.41 155.68C815.23 146.22 816.6 137.06 818.78 130.26C821.77 126.2 824.63 123.15 827.08 121.83C828.21 121.22 830.76 121.15 833.3 121.26C833.48 126.02 824.33 142.76 823.42 143.4C822.51 144.04 814.57 155.45 814.41 155.68Z" fill="url(#paint15_linear_2347_32953)"/>
<path d="M839.96 121.88C839.12 142.61 814.67 205.71 814.67 205.71L813.75 199.67C813.32 194.79 812.86 177.43 814.06 160.05V160.06C814.06 160.06 816.27 152.84 820.67 148.17C825.06 143.5 826.63 141.68 826.63 141.68C826.63 141.68 832.38 125.74 833.85 123.57C834.47 122.65 834.91 121.93 835.21 121.39C837.8 121.57 839.96 121.88 839.96 121.88Z" fill="url(#paint16_linear_2347_32953)"/>
<path d="M839.96 121.88C839.12 142.61 814.67 205.71 814.67 205.71L813.75 199.67C813.32 194.79 812.86 177.43 814.06 160.05V160.06C814.06 160.06 816.27 152.84 820.67 148.17C825.06 143.5 826.63 141.68 826.63 141.68C826.63 141.68 832.38 125.74 833.85 123.57C834.47 122.65 834.91 121.93 835.21 121.39C837.8 121.57 839.96 121.88 839.96 121.88Z" fill="url(#paint17_radial_2347_32953)"/>
<path d="M856.44 186.77C858.42 180.33 861.43 176.77 862.58 174.29C861.94 179.51 861.17 185 860.28 190.06C860.28 190.06 855.51 206.5 844.54 224.12C844.66 223.6 851.91 201.52 856.44 186.77Z" fill="url(#paint18_linear_2347_32953)"/>
<path d="M882.33 71.8601L870.99 162.8C870.99 162.8 867.15 159.32 864.95 150.79C864.95 150.79 864.35 158.87 863.2 169.05C856.9 176.82 842.88 226.28 842.66 227.06C841.38 229 840.03 230.94 838.6 232.87C838.6 232.87 839.96 207.07 844.36 180.45C844.36 180.45 852.82 158.16 855.86 143.92C858.9 129.68 863.84 108 874.6 68.3701L882.33 71.8601Z" fill="url(#paint19_radial_2347_32953)"/>
<path d="M921.57 84.4099C919.98 104.33 918.61 111.89 918.61 111.89C909.05 121.13 901.03 128.31 894.99 133.51C894.99 133.51 893.84 119.11 896.86 108.96C899.88 98.8099 900.98 98.8899 900.98 98.8899C900.98 98.8899 912.09 88.5999 918.06 85.0299C919.99 83.8599 920.68 84.9299 921.57 84.4099Z" fill="url(#paint20_radial_2347_32953)"/>
<path d="M960 9.31323e-10V39.95C960 39.95 957.26 56.85 951.39 70.41C950.73 71.93 926.42 101.97 926.42 101.97C926.97 57.79 925.32 7.84 925.32 7.84C924.4 40.93 923.07 64.55 921.84 80.83L898.7 99.77L888.5 138.95C884.49 142.24 882.32 143.86 882.32 143.86C882.32 143.86 884.65 102.23 886.35 76.44C889.09 34.73 911.05 -0.0100098 911.05 -0.0100098H960V9.31323e-10Z" fill="url(#paint21_radial_2347_32953)"/>
<path d="M921.15 224.91C921.97 225.04 931.28 229.09 931.28 229.09C906.58 239.41 875.11 250.71 875.11 250.71C882.34 223.49 907.76 183.89 907.76 183.89C905.02 191.71 904.1 212.38 904.1 212.38C904.1 212.38 916.72 224.2 921.15 224.91Z" fill="url(#paint22_radial_2347_32953)"/>
<path d="M932.46 196.65L938.18 217.3L933.19 228.29C933.02 228.23 922.21 222.75 918.01 220.06C917.05 219.45 907.86 194.31 907.95 193.71C909.5 183.17 913.02 177.2 913.77 176.19C913.79 176.17 913.8 176.15 913.82 176.13L913.88 176.05C913.89 176.04 913.89 176.04 913.89 176.04L946.33 134.52L950.03 155.68C950.03 155.68 944.82 175.79 943.72 177.71C942.61 179.63 932.46 196.65 932.46 196.65Z" fill="url(#paint23_radial_2347_32953)"/>
<path d="M960 117.06V169.74L939.78 213.76L933.95 197.19C933.95 197.19 942.47 182.78 942.34 182.37C942.2 181.96 943.71 179.35 947.55 169.74C951.39 160.13 952.22 158.77 952.22 158.77C952.22 158.77 950.85 154.65 949.34 145.6C948.17 138.59 948.15 133.88 948.21 132.11L960 117.06Z" fill="url(#paint24_linear_2347_32953)"/>
<path d="M890.74 250.71C890.74 250.71 933.71 239.46 960 237.26V250.71C960 250.71 933.17 254.77 931.27 254.62C914.88 253.31 890.74 250.71 890.74 250.71Z" fill="url(#paint25_radial_2347_32953)"/>
<path d="M719.36 222.44C726.28 221.75 742.83 237.26 742.83 237.26C742.83 237.26 712.64 227.65 710.86 226.69C710.86 226.7 713.87 222.99 719.36 222.44Z" fill="url(#paint26_linear_2347_32953)"/>
<path d="M780.29 231.64C767.09 231.78 728.15 247.01 728.15 247.01C728.15 247.01 742.28 247.28 761.63 243.85C780.98 240.42 802.25 235.89 802.25 235.89C802.25 235.89 793.05 231.5 780.29 231.64Z" fill="url(#paint27_linear_2347_32953)"/>
<path d="M842.21 147.95C838.06 154.93 830.65 192.25 830.65 192.25C830.65 192.25 847.9 157.88 853.82 142.25L849.04 135.99L842.21 147.95Z" fill="url(#paint28_linear_2347_32953)"/>
<path d="M887.58 65.07C887.58 65.07 900.63 48.64 906.85 38.03C913.07 27.42 917.54 0 917.54 0H919.11C919.11 0 916 12.41 913.07 25.22C910.14 38.03 887.13 68.38 887.13 68.38L887.58 65.07Z" fill="#261800"/>
<path opacity="0.5" d="M890.74 157.13L913.88 176.04C911 179.58 909.04 187.13 909.04 187.13L907.75 183.88L896.02 203.78L889.6 200.02L890.74 157.13Z" fill="url(#paint29_linear_2347_32953)"/>
<path opacity="0.5" d="M850.88 251.67C851.22 252.08 852.6 256.27 852.6 256.27L853.15 258.47L854 256.75C854 256.75 870.49 260.99 879.06 262.07L877.57 263.52L856.16 260.32C856.16 260.32 851.46 259.06 851.06 259.05C850.67 259.04 829.17 255.21 820.94 254.88L809.59 254.29L816.14 249.39C816.14 249.39 814.62 249.9 820.2 251.18C825.78 252.46 834.24 253.6 836.05 253.81C837.87 254 850.88 251.67 850.88 251.67Z" fill="url(#paint30_linear_2347_32953)"/>
<path d="M842.801 226.85L842.66 227.071C842.66 227.071 842.66 227.071 842.66 227.061C842.71 226.99 842.76 226.92 842.801 226.85Z" fill="url(#paint31_linear_2347_32953)"/>
<path opacity="0.5" d="M918 220.07L923.68 225.87L931.27 229.09L929.57 241.88L960 237.26V169.75L933.18 228.29L918 220.07Z" fill="url(#paint32_linear_2347_32953)"/>
<path opacity="0.26" d="M912.43 184.54C912.47 186.99 914.9 195.55 914.9 196.83C914.9 198.11 931.19 181.83 931.28 178.72C931.37 175.61 930.27 160.97 930.27 160.97C930.27 160.97 912.37 181.3 912.43 184.54Z" fill="#E5E400"/>
<path opacity="0.54" d="M916.17 206.98C917.11 212.49 920.56 214.76 922.94 215.31C925.32 215.86 931.17 211.1 928.98 205.7C926.79 200.3 925.99 193.72 922.82 194.27C919.65 194.82 915.72 204.27 916.17 206.98Z" fill="#9E5E11"/>
<path opacity="0.54" d="M925.35 189.51C923.96 192.12 925.32 193.1 926.97 194.23C928.62 195.36 931.37 190.42 931.27 187.86C931.18 185.3 927.39 185.67 925.35 189.51Z" fill="#9E5E11"/>
<path opacity="0.26" d="M890.47 70.41C891.46 75.34 892.62 90.31 894.77 90.72C896.92 91.13 908.03 79.06 908.17 75.21C908.31 71.37 904.19 61.21 901.31 60.94C898.43 60.67 889.65 66.29 890.47 70.41Z" fill="#E5E400"/>
<path opacity="0.26" d="M904.33 55.04C905.29 57.38 906.11 64.23 907.62 64.51C909.13 64.78 912.83 61.63 913.52 59.78C914.21 57.93 913.52 52.58 911.46 51.89C909.4 51.2 903.37 52.71 904.33 55.04Z" fill="#E5E400"/>
<path opacity="0.54" d="M909.95 72.7399C910.72 76.0799 914.48 79.1899 915.99 78.7799C917.5 78.3699 920.15 75.6199 919.1 73.5699C918.05 71.5099 909.47 70.6499 909.95 72.7399Z" fill="#9E5E11"/>
<path opacity="0.26" d="M928.98 88.1599C928.04 93.6799 934.29 88.2599 940.32 81.9399C941.19 81.0299 948.6 72.2699 950.02 69.4999C951.44 66.7299 954.14 54.0899 951.8 52.7099C949.47 51.3399 927.79 56.1399 927.92 59.4299C928.05 62.7199 929.51 85.0599 928.98 88.1599Z" fill="#E5E400"/>
<path opacity="0.54" d="M942.75 47.7701C942.44 49.9801 949.2 49.8301 950.3 49.5501C951.4 49.2801 953.04 45.5701 953.59 42.6901C954.14 39.8101 943.3 43.7901 942.75 47.7701Z" fill="#9E5E11"/>
<path opacity="0.26" d="M931.22 7.8399C931.38 13.5099 928.61 41.8699 930.26 42.4199C931.91 42.9699 941.24 35.1499 945.22 32.3999C949.2 29.6599 952.08 6.73991 951.81 4.81991C951.54 2.89991 931.09 2.8999 931.22 7.8399Z" fill="#E5E400"/>
<path opacity="0.54" d="M904.23 101.7C904.04 104.61 901.49 112.13 903.12 112.68C904.75 113.23 909.41 113.5 910.65 111.03C911.88 108.56 915.28 100.88 913.79 97.58C912.29 94.29 904.4 99.09 904.23 101.7Z" fill="#9E5E11"/>
<path opacity="0.54" d="M914.64 89.8901C914.32 93.2201 915.03 93.8701 915.99 94.2801C916.95 94.6901 920.89 86.6001 919.34 86.6001C917.78 86.6001 914.81 88.1101 914.64 89.8901Z" fill="#9E5E11"/>
<path d="M479.75 255.86C471.6 255.86 334.53 239.4 313.53 239.4L404.07 266.76C402.84 266.6 323.87 256.21 290.59 246.02C250.25 233.67 236.15 230.55 236.15 230.55C236.15 230.55 246.14 228.55 250.16 226.9L264.33 227.28L271.82 229.25C271.82 229.25 308.44 230.13 326.71 230.55C326.71 230.55 272.79 224.58 262.91 221.7C258.18 220.32 252.14 218.38 247.12 216.73C241.64 214.93 237.38 213.47 237.38 213.47L187.99 204.33C187.99 204.33 168.74 201.24 155.88 197.41L156.38 197.71L191 218.85L187.9 222.27L189.21 223.3L200.4 231.96L212.67 241.46C212.67 241.46 212.61 241.45 212.5 241.44C212.44 241.43 212.37 241.42 212.29 241.41C212.16 241.39 212.01 241.37 211.82 241.34C204.9 240.36 157.32 233.54 133.87 228.28C133.86 228.28 133.86 228.28 133.85 228.27C132.61 227.99 131.44 227.72 130.35 227.45C107.62 221.88 75.2302 211.27 73.2302 210.61C73.2002 210.6 73.1702 210.59 73.1402 210.58C73.6802 210.8 108.21 225.03 121.29 230.54C120.77 230.43 92.1902 224.44 64.2702 215.66C49.2102 210.93 30.3502 203.76 16.9302 198.49C6.86023 194.53 -0.509766 191.64 -0.509766 191.64V190.09V177.68V160.43V141.88C-0.509766 141.88 34.4902 151.55 59.0902 157.27C59.2902 157.32 59.4802 157.36 59.6802 157.41C59.9402 157.47 61.0602 156.69 61.7502 156.32C61.9902 156.2 62.1702 156.12 62.2602 156.14C68.6202 157.6 84.7202 161.48 88.4002 162.25C106.44 166.02 110.41 166.04 110.41 166.04C110.41 166.04 128.7 181.36 134.88 184.24L135.25 184.26L135.42 184.27L135.74 184.29C136.75 184.34 138.6 184.43 141 184.55C144.05 184.71 148 184.91 152.22 185.15L152.44 185.16C162.07 185.69 173.11 186.36 178.51 186.89C178.51 186.89 178.98 186.8 179.72 186.67C181.76 186.31 185.79 185.62 187.3 185.62C189.36 185.62 195.79 186.89 195.79 186.89L205.67 180.69C205.67 180.69 227.9 179.66 256.3 186.89C284.7 194.12 290.05 194.94 290.05 194.94L296.64 186.89C296.64 186.89 347.47 200.2 350.4 205.13C350.87 205.92 353.84 214.01 353.84 214.01C353.84 214.01 342.74 215.12 330.39 220.47C330.39 220.47 346.03 229.95 352.2 230.56C354.46 230.79 361.06 231.44 374.84 232.98L378.26 238.15C401.93 240.82 414.27 242.63 432.3 245.89L371.65 242.05C373.72 242.26 487.9 255.86 479.75 255.86Z" fill="url(#paint33_linear_2347_32953)"/>
<path opacity="0.5" d="M82.7102 214.53C87.9802 216.71 94.8002 219.52 101.47 222.29L82.7102 214.53Z" fill="url(#paint34_linear_2347_32953)"/>
<path opacity="0.5" d="M212.55 241.46C212.55 241.46 212.49 241.45 212.38 241.44C212.33 241.43 212.25 241.42 212.17 241.41C212.04 241.39 211.89 241.37 211.7 241.34C206.59 240.62 179.3 236.71 155.93 232.59C147.66 231.13 139.88 229.65 133.75 228.28C133.74 228.28 133.74 228.28 133.73 228.27C132.49 227.99 131.32 227.72 130.23 227.45C119.84 224.9 107.43 221.3 96.8302 218.08C84.2402 214.26 74.2002 210.97 73.1102 210.61C50.5102 198.36 17.1002 191.31 16.5802 191.21C17.0502 191.47 47.4802 207.92 70.2202 214.46C92.7302 220.93 102.02 222.65 102.34 222.71L101.82 222.49C101.99 222.56 102.17 222.63 102.34 222.71C109.65 225.74 116.67 228.66 121.15 230.55C120.63 230.44 92.0502 224.45 64.1302 215.67C49.0702 210.94 30.2102 203.77 16.7902 198.5L-0.509766 191.65V177.69V160.44L34.6702 166.02L58.9502 157.28L61.6102 156.32L62.1202 156.14C68.4802 157.6 84.5802 161.48 88.2602 162.25C106.3 166.02 110.27 166.04 110.27 166.04C110.27 166.04 128.56 181.36 134.74 184.24L135.11 184.26L135.28 184.27L135.6 184.29C136.21 184.32 137.13 184.36 138.29 184.42C139.05 184.46 139.91 184.5 140.86 184.55L152.13 195.07L153.91 196.51L156.23 197.72L190.85 218.86L187.75 222.28C175.93 222.38 163.48 227.01 159.18 228.77C159.11 228.8 159.05 228.83 158.98 228.85C158.91 228.88 158.85 228.9 158.79 228.93C158.78 228.94 158.77 228.94 158.75 228.95C158.61 229.01 158.48 229.06 158.36 229.11C158.07 229.23 157.86 229.32 157.73 229.38C157.71 229.39 157.69 229.4 157.67 229.41C157.62 229.43 157.6 229.44 157.6 229.44C185.87 234.8 200.25 231.98 200.25 231.98L212.55 241.46Z" fill="url(#paint35_linear_2347_32953)"/>
<path opacity="0.5" d="M191.01 218.85L187.91 222.27C175.69 222.59 163.57 227.05 159.34 228.76C159.27 228.79 159.21 228.82 159.14 228.84C159.07 228.87 159.01 228.89 158.95 228.92C158.94 228.93 158.93 228.93 158.91 228.94C158.77 229 158.64 229.05 158.52 229.1C158.23 229.22 158.02 229.31 157.89 229.37C157.87 229.38 157.85 229.39 157.83 229.4C157.78 229.42 157.76 229.43 157.76 229.43L156.06 232.6C147.79 231.14 140.01 229.66 133.88 228.29C133.87 228.29 133.87 228.29 133.86 228.28C132.62 228 131.45 227.73 130.36 227.46C119.97 224.91 107.56 221.31 96.9603 218.09L94.1003 204.33L72.1503 191.96L53.7603 160.44L62.2703 156.14C68.6303 157.6 84.7303 161.48 88.4103 162.25C106.45 166.02 110.42 166.04 110.42 166.04C110.42 166.04 128.71 181.36 134.89 184.24L135.26 184.26L135.43 184.27L135.75 184.29C136.36 184.32 137.28 184.36 138.44 184.42L154.05 196.5L156.37 197.71L191.01 218.85Z" fill="url(#paint36_linear_2347_32953)"/>
<path opacity="0.5" d="M310.72 214.46V218.12L302.3 222.69L374.87 232.97L379.69 240.24H371.46L370.45 237.79L322.61 230.19L299.67 227.35L301.76 220.32L310.72 214.46Z" fill="url(#paint37_linear_2347_32953)"/>
<path opacity="0.5" d="M247.12 216.72C241.64 214.92 237.38 213.46 237.38 213.46L187.99 204.32C187.99 204.32 168.74 201.23 155.88 197.4L134.89 184.23L135.26 184.25L135.43 184.26L135.75 184.28L152.23 185.14L152.45 185.15C152.45 185.15 155.75 191.77 162.34 194.88C168.93 197.99 211.37 205.12 211.37 205.12C211.37 205.12 196.19 193.41 179.72 186.88L179.73 186.66C181.77 186.3 185.8 185.61 187.31 185.61L196.18 189.47L246.13 208.59L247.12 216.72Z" fill="url(#paint38_linear_2347_32953)"/>
<path opacity="0.5" d="M211.38 205.13V208.82L237.39 213.47L247.13 216.73L246.14 208.61H236.08L187.32 185.63L179.73 186.9C179.73 186.9 182.52 187.87 194.99 194.38C207.44 200.88 211.38 205.13 211.38 205.13Z" fill="url(#paint39_linear_2347_32953)"/>
<path d="M94.1002 204.33C62.2702 193.65 -0.499756 160.44 -0.499756 160.44C-0.499756 160.44 -0.499756 141.1 -0.499756 138.35L57.1502 150.72L60.0702 160.43C60.0702 160.43 65.0102 163.59 66.4702 165.97C67.1602 167.09 78.7302 191.83 80.1002 193.67C81.4802 195.52 94.1002 204.33 94.1002 204.33Z" fill="url(#paint40_linear_2347_32953)"/>
<path d="M143.36 215.67C138.29 214.71 133.24 213.66 128.4 212.62C128.4 212.62 128.4 212.62 128.39 212.62C127.87 212.41 97.6903 200.76 87.0703 195.24C87.0703 195.24 79.7203 186.74 78.9003 185.63C78.0803 184.53 66.9503 165.98 62.2603 156.15L110.41 166.05C131.98 179.04 139.6 184.43 154.05 195.69C153.83 195.64 144.64 201.75 142.67 204.33C142.16 204.99 141.82 210.54 141.66 211.27C141.36 212.7 143.36 215.67 143.36 215.67Z" fill="url(#paint41_radial_2347_32953)"/>
<path d="M191.01 218.85C182.18 219.49 160.25 218.57 146.34 216.11C144.42 214.74 142.68 211.26 142.68 211.26C147.71 198.63 154.77 196.02 155.03 196.16C165.46 200.2 191.01 218.85 191.01 218.85Z" fill="url(#paint42_linear_2347_32953)"/>
<path d="M205.69 180.69C233.57 212.76 301.75 220.32 301.75 220.32C301.75 220.32 306.87 218.12 310.71 214.46C310.71 214.46 295.58 198.47 290.06 194.94C290.06 194.94 261.17 185.55 239.83 182.08C218.51 178.6 205.69 180.69 205.69 180.69Z" fill="url(#paint43_radial_2347_32953)"/>
<path d="M187.32 185.62C191.8 191.95 236.08 208.6 236.08 208.6H246.14C246.14 208.6 221.78 197.73 195.82 186.88L187.32 185.62Z" fill="url(#paint44_linear_2347_32953)"/>
<path opacity="0.5" d="M350.42 205.13L310.72 204.95C310.72 204.95 313.77 216.75 321.87 219.31L330.41 220.46C330.41 220.46 336.33 217.56 343.4 216.03C350.47 214.5 353.86 214 353.86 214L350.42 205.13Z" fill="url(#paint45_linear_2347_32953)"/>
<path d="M296.82 188.23C297.55 192.5 305.97 202.38 310.72 204.95C315.48 207.51 342.74 206.23 350.42 205.13C350.42 205.13 347.04 201.19 337.8 197.99C328.56 194.79 296.66 186.88 296.66 186.88L296.82 188.23Z" fill="url(#paint46_radial_2347_32953)"/>
<path d="M330.41 220.46C322.71 219.24 310.72 218.12 310.72 218.12L302.3 222.69C302.3 222.69 336 229.47 345.84 230.74C371.96 234.1 374.87 232.97 374.87 232.97C374.87 232.97 343.5 222.54 330.41 220.46Z" fill="url(#paint47_linear_2347_32953)"/>
<path d="M250.16 226.9C285.83 242.85 345.84 253.61 345.84 253.61C345.84 253.61 354.56 255.65 361.54 253.9C361.54 253.9 315.04 239.74 313.53 239.39C288.22 233.6 264.79 227.41 264.79 227.41L250.16 226.9Z" fill="url(#paint48_linear_2347_32953)"/>
<path d="M326.71 230.55C336.63 231.5 370.45 237.79 370.45 237.79C370.45 237.79 355.08 239.3 339.85 238.61C324.62 237.92 294.57 229.71 294.57 229.71C294.57 229.71 307.12 228.67 326.71 230.55Z" fill="url(#paint49_linear_2347_32953)"/>
<path opacity="0.22" d="M70.5003 160.74C73.4403 168.72 82.7603 178.67 87.7003 177.94C92.6403 177.21 119.44 172.01 112.48 168.9C105.53 165.78 68.9903 156.65 70.5003 160.74Z" fill="#E5E400"/>
<path opacity="0.54" d="M123.56 198.69C125.47 200.96 145 198.39 146.1 197.11C147.2 195.83 142.43 191.77 141.15 190.46C139.87 189.14 122.75 189.58 122.38 190.68C122.02 191.78 122.23 197.11 123.56 198.69Z" fill="#9E5E11"/>
<path opacity="0.54" d="M113.83 195.91C112.28 199.08 113.99 201.81 116.38 202.36C118.77 202.91 123.91 205.12 123.55 202.49C123.18 199.87 114.93 193.67 113.83 195.91Z" fill="#9E5E11"/>
<path opacity="0.22" d="M-0.499823 146.76C-0.689823 152.03 4.79018 160.36 7.50018 161.55C10.2102 162.74 23.5002 167.17 25.5302 167.17C27.5602 167.17 27.0202 164.85 24.4502 161.96C21.8802 159.06 -0.359823 143.03 -0.499823 146.76Z" fill="#E5E400"/>
<path opacity="0.22" d="M59.8201 188.22C62.6601 189.64 67.1301 191.95 67.9601 192.33C74.7601 195.45 76.3101 194.59 74.4801 192.39C72.6501 190.19 61.3801 184.04 58.9101 185.05C56.4401 186.06 55.9801 186.3 59.8201 188.22Z" fill="#E5E400"/>
<path opacity="0.54" d="M44.3402 162.14C42.1502 165.32 48.6302 166.43 49.5902 166.02C50.5602 165.61 52.5702 164.51 50.5602 162.14C48.5502 159.76 46.3502 159.21 44.3402 162.14Z" fill="#9E5E11"/>
<path opacity="0.22" d="M128.68 208.61C135.4 209.88 141.49 205.18 139.66 202.59C137.83 200.01 134.35 199.64 131.79 201.65C129.23 203.66 125.02 205.33 126.67 206.51C128.32 207.69 126.97 208.28 128.68 208.61Z" fill="#E5E400"/>
<path opacity="0.54" d="M254.12 184.95C261.69 187.57 275.96 200.93 279.62 203.76L280.93 216.73L267.53 222.73L270.89 223.33C270.89 223.33 274.24 218.52 285.99 217.77C285.99 217.77 282.73 206.92 284.56 201.18C284.56 201.18 279.63 195.68 276.42 190.8L254.12 184.95Z" fill="#523216"/>
<path opacity="0.54" d="M250.16 184.06C250.16 184.06 250.6 199.68 270.05 214.14L262.02 221.44L260.11 220.87C260.11 220.87 266.63 215.71 266.72 213.64C266.72 213.64 253.55 203.21 249.02 195.25C244.49 187.29 236.39 181.55 236.39 181.55L250.16 184.06Z" fill="#523216"/>
<path opacity="0.54" d="M225.28 190.04C228.23 195.72 242.32 197.45 239.84 194.84C237.36 192.23 223.5 186.61 225.28 190.04Z" fill="#9E5E11"/>
<path opacity="0.54" d="M239.84 200.48C243.47 203.29 248.2 202.57 245.04 201.17C241.88 199.78 237.38 198.58 239.84 200.48Z" fill="#9E5E11"/>
<path opacity="0.54" d="M127.43 176.55C108.56 175.85 95.9102 182.37 94.0002 184.24C92.0902 186.1 98.5002 200.48 98.5002 200.48L95.4802 210.9L96.9702 218.09L107.08 221.11C107.08 221.11 101.79 211.6 101.79 202.42C101.79 201.48 95.5602 188.45 97.2202 184.96C97.2202 184.96 129.54 184.16 142.68 187.03L127.43 176.55Z" fill="#523216"/>
<path opacity="0.54" d="M33.7602 167.44C33.7602 167.44 34.6202 153.14 25.9502 144.1L35.7202 146.2C35.7202 146.2 35.0402 170.62 40.7102 182.02C40.7102 182.02 12.7202 176.16 -0.499756 185.9V175.76C-0.499756 175.76 32.4302 178.62 35.7702 179.69C35.7702 179.7 34.2102 174.5 33.7602 167.44Z" fill="#523216"/>
<path opacity="0.54" d="M60.0801 160.44C60.0801 160.44 53.7501 170.74 51.4301 179.88L47.0601 184.24L29.6201 194.37L38.2601 196.82C38.2601 196.82 40.1201 189.07 52.2101 186.67C52.2101 186.67 57.7301 166.26 61.7101 161.55L60.0801 160.44Z" fill="#523216"/>
<path opacity="0.54" d="M312.82 191C318.31 197.17 323.54 206.44 323.54 206.44L321.87 219.31L326.95 219.96L328.05 206.44L316.81 192.49L312.82 191Z" fill="#523216"/>
<path d="M73.2502 210.62L77.2302 212.27C74.7802 211.26 73.2702 210.64 73.1602 210.59C73.1802 210.6 73.2202 210.61 73.2502 210.62Z" fill="url(#paint50_linear_2347_32953)"/>
<path d="M827.24 274.43C718.98 272.13 611.96 256.08 611.96 256.08C611.96 256.08 625.54 260.61 628.84 262.25C632.13 263.9 555.41 266.13 537.05 265.25C521.11 264.48 507.79 261.76 507.79 261.76C507.79 261.76 494.83 258.6 479.74 256.08C479.74 256.08 496.4 259.5 512.45 265.26C528.5 271.02 547.33 274.43 547.33 274.43H827.24Z" fill="#261200"/>
<path opacity="0.5" d="M628.84 262.24L627.72 274.42H827.24C827.24 274.42 763.69 275 696.6 266.75C629.51 258.5 611.96 256.07 611.96 256.07C611.96 256.07 622 258.07 628.84 262.24Z" fill="url(#paint51_linear_2347_32953)"/>
<path d="M551.15 274.43L627.99 271.25L628.55 265.26L739.96 274.43H551.15Z" fill="url(#paint52_linear_2347_32953)"/>
<path d="M59.9302 274.43C59.9302 274.43 87.7502 264.78 116.46 261.49C116.46 261.49 136.07 260.14 139.98 257.93C139.98 257.93 175.25 241.49 191 240.76C206.75 240.03 227.97 244.2 233.96 245.66L239.12 260.72L264.88 268.78C264.88 268.78 248.25 244.78 248.37 243.73C248.49 242.68 255.05 240.45 271.37 240.24C287.68 240.03 357.37 249.49 396.01 255.89C434.65 262.29 482.9 274.43 482.9 274.43H59.9302Z" fill="#FF8000"/>
<path d="M97.2202 274.43C97.2202 274.43 133.95 260.33 139.99 259.78C139.99 259.78 184.44 243.95 187.32 243.95C187.32 243.95 231.66 244.69 232.63 247.01C234.2 250.78 236.4 257.24 236.4 257.24L248.51 261.43L261.68 266.97C261.68 266.97 246.98 244.19 248.39 243.73C271.44 236.07 366.23 253.2 370.35 253.2C374.47 253.2 477.78 274.43 477.78 274.43H97.2202Z" fill="#261200"/>
<path opacity="0.5" d="M261.67 266.97L264.89 274.43H236.39L233.04 267.96L216.72 261.48L182.87 274.43H159L155.15 268.78L126.29 263.46L139.98 259.78L232.62 247.01L236.39 257.24L261.67 266.97Z" fill="url(#paint53_linear_2347_32953)"/>
<path d="M248.38 243.73C293.67 264.89 365.3 274.43 365.3 274.43H477.77C477.77 274.43 383.57 252.75 329.96 247.01C276.35 241.27 269.01 240.94 259.16 241.76C249.31 242.57 248.38 243.73 248.38 243.73Z" fill="url(#paint54_linear_2347_32953)"/>
<path d="M232.62 247.01C238.16 249.13 186.75 264.96 164.53 265.25C164.53 265.25 152.65 262.15 139.99 259.78C139.99 259.78 162.8 246.57 187.32 243.95C187.32 243.95 222.92 243.3 232.62 247.01Z" fill="url(#paint55_radial_2347_32953)"/>
<path d="M216.72 261.48C188.73 268.47 182.87 274.42 182.87 274.42C182.87 274.42 207.85 274.42 209.63 274.42C211.41 274.42 233.04 271.47 233.04 267.95L216.72 261.48Z" fill="url(#paint56_linear_2347_32953)"/>
<path d="M131.55 263.13C115.91 263.4 59.9402 274.47 62.2602 274.43C64.5902 274.38 142.67 274.43 142.67 274.43L155.15 268.78C155.15 268.78 147.74 262.86 131.55 263.13Z" fill="url(#paint57_linear_2347_32953)"/>
<path opacity="0.18" d="M361.54 251.97L444.02 274.43H432.91L303.99 244.71L361.54 251.97Z" fill="#523216"/>
<path opacity="0.18" d="M255.2 242.15C255.2 242.15 307.28 247.01 385.26 274.42H376.75C376.75 274.42 318.89 249.81 248.38 243.72L255.2 242.15Z" fill="#1A2A6C"/>
<path opacity="0.54" d="M421.44 274.43C421.44 274.43 370.95 259.4 360.52 258.29C350.09 257.18 363.78 274.43 363.78 274.43H365.3H421.44Z" fill="#9E5E11"/>
<path opacity="0.5" d="M236.39 257.24L241.78 274.43H264.89L261.67 266.97L236.39 257.24Z" fill="url(#paint58_linear_2347_32953)"/>
</g>
<defs>
<radialGradient id="paint0_radial_2347_32953" cx="0" cy="0" r="1" gradientUnits="userSpaceOnUse" gradientTransform="translate(548.368 174.706) scale(505.554 505.554)">
<stop stop-color="#5B73D7"/>
<stop offset="0.4262" stop-color="#2840A4"/>
<stop offset="1" stop-color="#1A2A6C"/>
</radialGradient>
<linearGradient id="paint1_linear_2347_32953" x1="-0.501156" y1="246.74" x2="378.646" y2="246.74" gradientUnits="userSpaceOnUse">
<stop stop-color="#FF7D3E"/>
<stop offset="1" stop-color="#A33C00"/>
</linearGradient>
<linearGradient id="paint2_linear_2347_32953" x1="595.277" y1="245.434" x2="960" y2="245.434" gradientUnits="userSpaceOnUse">
<stop stop-color="#FF7D3E"/>
<stop offset="1" stop-color="#A33C00"/>
</linearGradient>
<linearGradient id="paint3_linear_2347_32953" x1="46.8285" y1="229.688" x2="925.382" y2="229.688" gradientUnits="userSpaceOnUse">
<stop stop-color="#FF7D3E"/>
<stop offset="1" stop-color="#A33C00"/>
</linearGradient>
<linearGradient id="paint4_linear_2347_32953" x1="-0.501156" y1="231.694" x2="547.366" y2="231.694" gradientUnits="userSpaceOnUse">
<stop stop-color="#FF7D3E"/>
<stop offset="1" stop-color="#A33C00"/>
</linearGradient>
<linearGradient id="paint5_linear_2347_32953" x1="770.377" y1="268.183" x2="770.377" y2="-5.79008" gradientUnits="userSpaceOnUse">
<stop stop-color="#310333"/>
<stop offset="1" stop-color="#5E1818"/>
</linearGradient>
<linearGradient id="paint6_linear_2347_32953" x1="746.048" y1="266.962" x2="724.871" y2="172.098" gradientUnits="userSpaceOnUse">
<stop stop-color="#FF7D3E"/>
<stop offset="1" stop-color="#A33C00"/>
</linearGradient>
<radialGradient id="paint7_radial_2347_32953" cx="0" cy="0" r="1" gradientUnits="userSpaceOnUse" gradientTransform="translate(865.041 141.536) scale(24.354 539.718)">
<stop stop-color="#5B73D7"/>
<stop offset="0.4262" stop-color="#2840A4"/>
<stop offset="1" stop-color="#1A2A6C"/>
</radialGradient>
<linearGradient id="paint8_linear_2347_32953" x1="955.925" y1="242.543" x2="869.401" y2="-145.047" gradientUnits="userSpaceOnUse">
<stop stop-color="#9D92D2"/>
<stop offset="1" stop-color="#4B33C0"/>
</linearGradient>
<linearGradient id="paint9_linear_2347_32953" x1="946.38" y1="328.008" x2="883.045" y2="44.2923" gradientUnits="userSpaceOnUse">
<stop stop-color="#FF7D3E"/>
<stop offset="1" stop-color="#A33C00"/>
</linearGradient>
<linearGradient id="paint10_linear_2347_32953" x1="875.102" y1="207.908" x2="960" y2="207.908" gradientUnits="userSpaceOnUse">
<stop stop-color="#FF7D3E"/>
<stop offset="1" stop-color="#A33C00"/>
</linearGradient>
<radialGradient id="paint11_radial_2347_32953" cx="0" cy="0" r="1" gradientUnits="userSpaceOnUse" gradientTransform="translate(758.491 206.947) scale(30.249 131.416)">
<stop stop-color="#5B73D7"/>
<stop offset="0.4262" stop-color="#2840A4"/>
<stop offset="1" stop-color="#1A2A6C"/>
</radialGradient>
<linearGradient id="paint12_linear_2347_32953" x1="787.548" y1="191.299" x2="830.644" y2="191.299" gradientUnits="userSpaceOnUse">
<stop stop-color="#FF7D3E"/>
<stop offset="1" stop-color="#A33C00"/>
</linearGradient>
<linearGradient id="paint13_linear_2347_32953" x1="812.311" y1="214.2" x2="736.843" y2="151.63" gradientUnits="userSpaceOnUse">
<stop stop-color="#993702"/>
<stop offset="1" stop-color="#730000"/>
</linearGradient>
<radialGradient id="paint14_radial_2347_32953" cx="0" cy="0" r="1" gradientUnits="userSpaceOnUse" gradientTransform="translate(803.087 129.787) scale(14.3113 522.582)">
<stop stop-color="#5B73D7"/>
<stop offset="0.4262" stop-color="#2840A4"/>
<stop offset="1" stop-color="#1A2A6C"/>
</radialGradient>
<linearGradient id="paint15_linear_2347_32953" x1="854.22" y1="163.652" x2="778.752" y2="101.082" gradientUnits="userSpaceOnUse">
<stop stop-color="#993702"/>
<stop offset="1" stop-color="#730000"/>
</linearGradient>
<linearGradient id="paint16_linear_2347_32953" x1="843.192" y1="176.953" x2="767.724" y2="114.383" gradientUnits="userSpaceOnUse">
<stop stop-color="#993702"/>
<stop offset="1" stop-color="#730000"/>
</linearGradient>
<radialGradient id="paint17_radial_2347_32953" cx="0" cy="0" r="1" gradientUnits="userSpaceOnUse" gradientTransform="translate(828.531 115.796) scale(14.0363 455.82)">
<stop stop-color="#5B73D7"/>
<stop offset="0.4262" stop-color="#2840A4"/>
<stop offset="1" stop-color="#1A2A6C"/>
</radialGradient>
<linearGradient id="paint18_linear_2347_32953" x1="863.358" y1="243.073" x2="838.655" y2="132.415" gradientUnits="userSpaceOnUse">
<stop stop-color="#993702"/>
<stop offset="1" stop-color="#730000"/>
</linearGradient>
<radialGradient id="paint19_radial_2347_32953" cx="0" cy="0" r="1" gradientUnits="userSpaceOnUse" gradientTransform="translate(863.589 57.4567) scale(23.0171 889.26)">
<stop stop-color="#5B73D7"/>
<stop offset="0.4262" stop-color="#2840A4"/>
<stop offset="1" stop-color="#1A2A6C"/>
</radialGradient>
<radialGradient id="paint20_radial_2347_32953" cx="0" cy="0" r="1" gradientUnits="userSpaceOnUse" gradientTransform="translate(910.087 81.1525) scale(14.1034 265.426)">
<stop stop-color="#5B73D7"/>
<stop offset="0.4262" stop-color="#2840A4"/>
<stop offset="1" stop-color="#1A2A6C"/>
</radialGradient>
<radialGradient id="paint21_radial_2347_32953" cx="0" cy="0" r="1" gradientUnits="userSpaceOnUse" gradientTransform="translate(926.709 -9.55477) scale(40.8864 777.737)">
<stop stop-color="#5B73D7"/>
<stop offset="0.4262" stop-color="#2840A4"/>
<stop offset="1" stop-color="#1A2A6C"/>
</radialGradient>
<radialGradient id="paint22_radial_2347_32953" cx="0" cy="0" r="1" gradientUnits="userSpaceOnUse" gradientTransform="translate(907.208 179.457) scale(29.5648 361.218)">
<stop stop-color="#5B73D7"/>
<stop offset="0.4262" stop-color="#2840A4"/>
<stop offset="1" stop-color="#1A2A6C"/>
</radialGradient>
<radialGradient id="paint23_radial_2347_32953" cx="0" cy="0" r="1" gradientUnits="userSpaceOnUse" gradientTransform="translate(931.996 128.299) scale(22.1489 506.905)">
<stop stop-color="#5B73D7"/>
<stop offset="0.4262" stop-color="#2840A4"/>
<stop offset="1" stop-color="#1A2A6C"/>
</radialGradient>
<linearGradient id="paint24_linear_2347_32953" x1="951.533" y1="165.75" x2="899.559" y2="155.152" gradientUnits="userSpaceOnUse">
<stop stop-color="#993702"/>
<stop offset="1" stop-color="#730000"/>
</linearGradient>
<radialGradient id="paint25_radial_2347_32953" cx="0" cy="0" r="1" gradientUnits="userSpaceOnUse" gradientTransform="translate(930.318 236.108) scale(36.4546 93.8671)">
<stop stop-color="#5B73D7"/>
<stop offset="0.4262" stop-color="#2840A4"/>
<stop offset="1" stop-color="#1A2A6C"/>
</radialGradient>
<linearGradient id="paint26_linear_2347_32953" x1="726.663" y1="231.453" x2="736.817" y2="261.366" gradientUnits="userSpaceOnUse">
<stop stop-color="#993702"/>
<stop offset="1" stop-color="#730000"/>
</linearGradient>
<linearGradient id="paint27_linear_2347_32953" x1="728.145" y1="239.322" x2="802.241" y2="239.322" gradientUnits="userSpaceOnUse">
<stop stop-color="#993702"/>
<stop offset="1" stop-color="#730000"/>
</linearGradient>
<linearGradient id="paint28_linear_2347_32953" x1="852.599" y1="213.711" x2="824.475" y2="87.7276" gradientUnits="userSpaceOnUse">
<stop stop-color="#993702"/>
<stop offset="1" stop-color="#730000"/>
</linearGradient>
<linearGradient id="paint29_linear_2347_32953" x1="909.965" y1="224.844" x2="884.171" y2="109.297" gradientUnits="userSpaceOnUse">
<stop stop-color="#FF7D3E"/>
<stop offset="1" stop-color="#A33C00"/>
</linearGradient>
<linearGradient id="paint30_linear_2347_32953" x1="850.038" y1="283.737" x2="835.02" y2="216.461" gradientUnits="userSpaceOnUse">
<stop stop-color="#FF7D3E"/>
<stop offset="1" stop-color="#A33C00"/>
</linearGradient>
<linearGradient id="paint31_linear_2347_32953" x1="842.735" y1="226.961" x2="842.487" y2="226.91" gradientUnits="userSpaceOnUse">
<stop stop-color="#993702"/>
<stop offset="1" stop-color="#730000"/>
</linearGradient>
<linearGradient id="paint32_linear_2347_32953" x1="957.791" y1="274.309" x2="925.54" y2="98.9669" gradientUnits="userSpaceOnUse">
<stop stop-color="#9D92D2"/>
<stop offset="1" stop-color="#4B33C0"/>
</linearGradient>
<linearGradient id="paint33_linear_2347_32953" x1="-0.496166" y1="204.325" x2="480.171" y2="204.325" gradientUnits="userSpaceOnUse">
<stop stop-color="#310333"/>
<stop offset="1" stop-color="#5E1818"/>
</linearGradient>
<linearGradient id="paint34_linear_2347_32953" x1="88.8017" y1="224.108" x2="97.2725" y2="209.402" gradientUnits="userSpaceOnUse">
<stop stop-color="#FF7D3E"/>
<stop offset="1" stop-color="#A33C00"/>
</linearGradient>
<linearGradient id="paint35_linear_2347_32953" x1="6.42583" y1="373.868" x2="255.084" y2="-57.831" gradientUnits="userSpaceOnUse">
<stop stop-color="#FF7D3E"/>
<stop offset="1" stop-color="#A33C00"/>
</linearGradient>
<linearGradient id="paint36_linear_2347_32953" x1="122.386" y1="233.969" x2="122.386" y2="-252.287" gradientUnits="userSpaceOnUse">
<stop stop-color="#FF7D3E"/>
<stop offset="1" stop-color="#A33C00"/>
</linearGradient>
<linearGradient id="paint37_linear_2347_32953" x1="339.681" y1="240.703" x2="339.681" y2="76.7444" gradientUnits="userSpaceOnUse">
<stop stop-color="#FF7D3E"/>
<stop offset="1" stop-color="#A33C00"/>
</linearGradient>
<linearGradient id="paint38_linear_2347_32953" x1="191.008" y1="217.309" x2="191.008" y2="10.697" gradientUnits="userSpaceOnUse">
<stop stop-color="#FF7D3E"/>
<stop offset="1" stop-color="#A33C00"/>
</linearGradient>
<linearGradient id="paint39_linear_2347_32953" x1="179.727" y1="201.174" x2="247.124" y2="201.174" gradientUnits="userSpaceOnUse">
<stop stop-color="#FF7D3E"/>
<stop offset="1" stop-color="#A33C00"/>
</linearGradient>
<linearGradient id="paint40_linear_2347_32953" x1="46.8043" y1="213.181" x2="46.8043" y2="-18.4932" gradientUnits="userSpaceOnUse">
<stop stop-color="#314EC7"/>
<stop offset="1" stop-color="#1A2A6C"/>
</linearGradient>
<radialGradient id="paint41_radial_2347_32953" cx="0" cy="0" r="1" gradientUnits="userSpaceOnUse" gradientTransform="translate(114.713 152.201) scale(48.3131 321.755)">
<stop stop-color="#5B73D7"/>
<stop offset="0.4262" stop-color="#2840A4"/>
<stop offset="1" stop-color="#1A2A6C"/>
</radialGradient>
<linearGradient id="paint42_linear_2347_32953" x1="166.844" y1="219.309" x2="166.844" y2="127.996" gradientUnits="userSpaceOnUse">
<stop stop-color="#993702"/>
<stop offset="1" stop-color="#730000"/>
</linearGradient>
<radialGradient id="paint43_radial_2347_32953" cx="0" cy="0" r="1" gradientUnits="userSpaceOnUse" gradientTransform="translate(265.703 177.397) scale(55.2767 217.598)">
<stop stop-color="#5B73D7"/>
<stop offset="0.4262" stop-color="#2840A4"/>
<stop offset="1" stop-color="#1A2A6C"/>
</radialGradient>
<linearGradient id="paint44_linear_2347_32953" x1="216.73" y1="221.047" x2="216.73" y2="-34.9805" gradientUnits="userSpaceOnUse">
<stop stop-color="#993702"/>
<stop offset="1" stop-color="#730000"/>
</linearGradient>
<linearGradient id="paint45_linear_2347_32953" x1="310.721" y1="212.705" x2="353.863" y2="212.705" gradientUnits="userSpaceOnUse">
<stop stop-color="#FF7D3E"/>
<stop offset="1" stop-color="#A33C00"/>
</linearGradient>
<radialGradient id="paint46_radial_2347_32953" cx="0" cy="0" r="1" gradientUnits="userSpaceOnUse" gradientTransform="translate(327.381 185.582) scale(28.2963 105.749)">
<stop stop-color="#5B73D7"/>
<stop offset="0.4262" stop-color="#2840A4"/>
<stop offset="1" stop-color="#1A2A6C"/>
</radialGradient>
<linearGradient id="paint47_linear_2347_32953" x1="338.589" y1="235.172" x2="338.589" y2="182.376" gradientUnits="userSpaceOnUse">
<stop stop-color="#993702"/>
<stop offset="1" stop-color="#730000"/>
</linearGradient>
<linearGradient id="paint48_linear_2347_32953" x1="305.857" y1="255.113" x2="305.857" y2="78.8502" gradientUnits="userSpaceOnUse">
<stop stop-color="#993702"/>
<stop offset="1" stop-color="#730000"/>
</linearGradient>
<linearGradient id="paint49_linear_2347_32953" x1="332.515" y1="238.958" x2="332.515" y2="179.392" gradientUnits="userSpaceOnUse">
<stop stop-color="#993702"/>
<stop offset="1" stop-color="#730000"/>
</linearGradient>
<linearGradient id="paint50_linear_2347_32953" x1="75.1912" y1="213.515" x2="75.1912" y2="191.558" gradientUnits="userSpaceOnUse">
<stop stop-color="#993702"/>
<stop offset="1" stop-color="#730000"/>
</linearGradient>
<linearGradient id="paint51_linear_2347_32953" x1="611.962" y1="265.249" x2="827.24" y2="265.249" gradientUnits="userSpaceOnUse">
<stop stop-color="#FF7D3E"/>
<stop offset="1" stop-color="#A33C00"/>
</linearGradient>
<linearGradient id="paint52_linear_2347_32953" x1="645.559" y1="256.224" x2="645.559" y2="286.3" gradientUnits="userSpaceOnUse">
<stop stop-color="#8C2A15"/>
<stop offset="1" stop-color="#AD2500"/>
</linearGradient>
<linearGradient id="paint53_linear_2347_32953" x1="126.294" y1="260.72" x2="264.893" y2="260.72" gradientUnits="userSpaceOnUse">
<stop stop-color="#FF7D3E"/>
<stop offset="1" stop-color="#A33C00"/>
</linearGradient>
<linearGradient id="paint54_linear_2347_32953" x1="363.078" y1="274.382" x2="363.078" y2="238.876" gradientUnits="userSpaceOnUse">
<stop stop-color="#686DE0"/>
<stop offset="1" stop-color="#1A2A6C"/>
</linearGradient>
<radialGradient id="paint55_radial_2347_32953" cx="0" cy="0" r="1" gradientUnits="userSpaceOnUse" gradientTransform="translate(193.16 242.49) scale(48.9735 115.381)">
<stop stop-color="#5B73D7"/>
<stop offset="0.4262" stop-color="#2840A4"/>
<stop offset="1" stop-color="#1A2A6C"/>
</radialGradient>
<linearGradient id="paint56_linear_2347_32953" x1="207.953" y1="274.382" x2="207.953" y2="239.046" gradientUnits="userSpaceOnUse">
<stop stop-color="#8C2A15"/>
<stop offset="1" stop-color="#AD2500"/>
</linearGradient>
<linearGradient id="paint57_linear_2347_32953" x1="108.675" y1="274.382" x2="108.675" y2="239.046" gradientUnits="userSpaceOnUse">
<stop stop-color="#8C2A15"/>
<stop offset="1" stop-color="#AD2500"/>
</linearGradient>
<linearGradient id="paint58_linear_2347_32953" x1="250.641" y1="274.404" x2="250.641" y2="255.907" gradientUnits="userSpaceOnUse">
<stop stop-color="#FF7D3E"/>
<stop offset="1" stop-color="#A33C00"/>
</linearGradient>
<clipPath id="clip0_2347_32953">
<path d="M0 0H960V258C960 266.837 952.837 274 944 274H16C7.16343 274 0 266.837 0 258V0Z" fill="white"/>
</clipPath>
</defs>
</svg>
