<svg width="70" height="160" viewBox="0 0 70 160" fill="none" xmlns="http://www.w3.org/2000/svg">
<path d="M20.8901 64.4176C20.8901 63.3609 21.2609 62.6185 21.8608 62.2723C22.4602 61.926 31.6273 56.6284 32.2322 56.2845C32.8312 55.9437 33.6562 55.9961 34.5667 56.5217L59.0261 70.6433C60.8561 71.7 62.3398 74.2697 62.3398 76.3834L62.3395 84.5774C62.3395 85.634 61.9686 86.3765 61.3688 86.7227C60.7693 87.0689 51.6062 92.3592 51.0063 92.7054C50.4069 93.0516 49.5781 93.0016 48.6633 92.4733L24.2034 78.3517C22.3735 77.295 20.8897 74.7253 20.8897 72.6116L20.8901 64.4176Z" fill="#FAFAFA"/>
<path d="M51.9825 82.3661V90.555C51.9825 91.5628 51.6507 92.2896 51.0896 92.6597C52.174 92.0349 60.7838 87.06 61.3703 86.7286C61.9698 86.3714 62.3398 85.6317 62.3398 84.5731V76.3838C62.3398 75.3506 61.9827 74.2154 61.4086 73.1951C57.6971 75.3381 54.1255 77.3915 51.0513 79.1774C51.6253 80.1848 51.9825 81.3329 51.9825 82.3661Z" fill="#F0F0F0"/>
<path d="M48.6628 76.6255L24.2034 62.5039C23.2882 61.9755 22.4598 61.9255 21.8599 62.2717C21.2601 62.618 20.8893 63.3604 20.8893 64.4171L20.8889 72.6111C20.8889 74.7244 22.3726 77.2941 24.2026 78.3511L48.6621 92.4728C49.5772 93.0011 50.4057 93.0511 51.0055 92.7049C51.6053 92.3587 51.9762 91.6162 51.9762 90.5596L51.9766 82.3655C51.977 80.2522 50.4932 77.6821 48.6628 76.6255Z" fill="#E0E0E0"/>
<path opacity="0.1" d="M48.6628 76.6255L24.2034 62.5039C23.2882 61.9755 22.4598 61.9255 21.8599 62.2717C21.2601 62.618 20.8893 63.3604 20.8893 64.4171L20.8889 72.6111C20.8889 74.7244 22.3726 77.2941 24.2026 78.3511L48.6621 92.4728C49.5772 93.0011 50.4057 93.0511 51.0055 92.7049C51.6053 92.3587 51.9762 91.6162 51.9762 90.5596L51.9766 82.3655C51.977 80.2522 50.4932 77.6821 48.6628 76.6255Z" fill="black"/>
<path d="M55.2673 84.747V83.6728L62.3398 79.5896V80.6634L55.2673 84.747Z" fill="#BA68C8"/>
<path d="M55.2673 87.1899V86.116L62.3398 82.0325V83.1063L55.2673 87.1899Z" fill="#BA68C8"/>
<path d="M55.2673 81.2306L62.3398 77.1475V78.2213L55.2673 82.3045V81.2306Z" fill="#BA68C8"/>
<path d="M20.8901 9.18004C20.8901 8.12339 21.2609 7.38093 21.8608 7.03471C22.4606 6.68849 31.6273 1.39082 32.2322 1.04694C32.8312 0.70619 33.6558 0.758553 34.5667 1.28414L59.0261 15.4058C60.8561 16.4624 62.3398 19.0321 62.3398 21.1458L62.3395 67.3375C62.3395 68.3942 61.9686 69.1366 61.3688 69.4829C60.7689 69.8291 51.6062 75.1193 51.0063 75.4655C50.4065 75.8118 49.5781 75.7617 48.6633 75.2334L24.2034 61.1118C22.3735 60.0551 20.8897 57.4854 20.8897 55.3718L20.8901 9.18004Z" fill="#FAFAFA"/>
<path d="M51.9786 27.1278V73.3144C51.9786 74.3222 51.6468 75.0491 51.0857 75.4191C52.1701 74.7943 60.7799 69.8194 61.3664 69.488C61.9659 69.1308 62.3359 68.3911 62.3359 67.3325V21.1455C62.3359 20.1123 61.9788 18.9771 61.4047 17.9568C57.6932 20.0998 54.1216 22.1533 51.0474 23.9391C51.6214 24.9465 51.9786 26.0946 51.9786 27.1278Z" fill="#F0F0F0"/>
<path d="M48.6628 21.388L24.2034 7.26631C23.2882 6.73799 22.4598 6.68797 21.8599 7.03419C21.2601 7.38041 20.8893 8.12288 20.8893 9.17952L20.8889 55.3713C20.8889 57.4846 22.3726 60.0542 24.2026 61.1113L48.6621 75.2329C49.5772 75.7612 50.4057 75.8113 51.0055 75.465C51.6053 75.1188 51.9762 74.3764 51.9762 73.3197L51.9766 27.128C51.977 25.0143 50.4932 22.4446 48.6628 21.388Z" fill="#E0E0E0"/>
<path opacity="0.1" d="M48.6628 21.388L24.2034 7.26631C23.2882 6.73799 22.4598 6.68797 21.8599 7.03419C21.2601 7.38041 20.8893 8.12288 20.8893 9.17952L20.8889 55.3713C20.8889 57.4846 22.3726 60.0542 24.2026 61.1113L48.6621 75.2329C49.5772 75.7612 50.4057 75.8113 51.0055 75.465C51.6053 75.1188 51.9762 74.3764 51.9762 73.3197L51.9766 27.128C51.977 25.0143 50.4932 22.4446 48.6628 21.388Z" fill="black"/>
<path d="M59.7461 53.0554L54.5649 56.0468V62.0295L59.7461 59.0381V53.0554Z" fill="#455A64"/>
<path d="M59.7461 60.4314L54.5649 63.4227V64.7353L59.7461 61.744V60.4314Z" fill="#455A64"/>
<path d="M59.7461 62.9214L54.5649 65.9127V67.2253L59.7461 64.234V62.9214Z" fill="#455A64"/>
<path d="M55.2673 30.9006V29.8268L62.3398 25.7437V26.8175L55.2673 30.9006Z" fill="#BA68C8"/>
<path d="M55.2673 33.3442V32.2704L62.3398 28.1873V29.2611L55.2673 33.3442Z" fill="#BA68C8"/>
<path d="M55.2673 27.3851L62.3398 23.3015V24.3753L55.2673 28.4589V27.3851Z" fill="#BA68C8"/>
<path d="M59.6181 36.7349C59.9866 36.9475 60.2148 37.4039 60.2148 38.0534C60.2148 39.3523 59.3028 40.9318 58.1782 41.5813C57.6158 41.906 57.1067 41.9369 56.7378 41.7239C56.5139 41.5945 55.6628 41.1033 55.4389 40.974C55.0704 40.761 54.8422 40.3046 54.8422 39.6555C54.8422 38.3566 55.7542 36.7771 56.8788 36.1277C57.4412 35.8029 57.9503 35.7725 58.3188 35.985C58.5431 36.114 59.3942 36.6056 59.6181 36.7349Z" fill="#263238"/>
<path d="M58.1781 41.5815C57.6158 41.9063 57.1067 41.9371 56.7378 41.7242C56.3693 41.5112 56.1411 41.0552 56.1411 40.4057C56.1411 39.1068 57.0531 37.5273 58.1778 36.8778C58.7401 36.5531 59.2492 36.5222 59.6181 36.7352C59.987 36.9482 60.2148 37.4042 60.2148 38.0537C60.2152 39.3526 59.3032 40.9321 58.1781 41.5815Z" fill="#455A64"/>
<path d="M59.6181 45.1136C59.9866 45.3266 60.2148 45.7826 60.2148 46.432C60.2148 47.731 59.3028 49.3105 58.1782 49.9599C57.6158 50.2846 57.1067 50.3155 56.7378 50.1025C56.5139 49.9732 55.6628 49.482 55.4389 49.3527C55.0704 49.1401 54.8422 48.6833 54.8422 48.0342C54.8422 46.7353 55.7542 45.1558 56.8788 44.5063C57.4412 44.1816 57.9503 44.1511 58.3188 44.3637C58.5431 44.493 59.3942 44.9842 59.6181 45.1136Z" fill="#BA68C8"/>
<path opacity="0.3" d="M59.6181 45.1136C59.9866 45.3266 60.2148 45.7826 60.2148 46.432C60.2148 47.731 59.3028 49.3105 58.1782 49.9599C57.6158 50.2846 57.1067 50.3155 56.7378 50.1025C56.5139 49.9732 55.6628 49.482 55.4389 49.3527C55.0704 49.1401 54.8422 48.6833 54.8422 48.0342C54.8422 46.7353 55.7542 45.1558 56.8788 44.5063C57.4412 44.1816 57.9503 44.1511 58.3188 44.3637C58.5431 44.493 59.3942 44.9842 59.6181 45.1136Z" fill="white"/>
<path d="M58.1781 49.9602C57.6158 50.2849 57.1067 50.3158 56.7378 50.1028C56.3693 49.8899 56.1411 49.4338 56.1411 48.7844C56.1411 47.4855 57.0531 45.906 58.1778 45.2565C58.7401 44.9318 59.2492 44.9009 59.6181 45.1139C59.987 45.3268 60.2148 45.7829 60.2148 46.4323C60.2152 47.7316 59.3032 49.3107 58.1781 49.9602Z" fill="#BA68C8"/>
<path d="M7.8637 84.9734C7.98367 85.2813 7.98719 85.6225 7.97663 85.9535C7.93599 87.2117 7.71834 88.4681 7.81877 89.7228C7.92545 91.0589 8.5542 92.2812 8.54482 93.6434C8.53935 94.4105 7.78086 95.3816 7.06263 94.5164C6.91179 94.3347 6.81604 94.1139 6.72265 93.897C6.52257 93.432 6.32211 92.967 6.12204 92.502C6.08531 93.7829 6.77775 95.0045 6.4288 96.2796C6.26194 96.8899 5.58239 97.4136 5.00561 97.1525C4.62774 96.9814 4.44368 96.559 4.29285 96.1725C4.11309 95.7126 3.93373 95.253 3.75397 94.7931C3.50349 94.151 3.25184 93.5074 3.07716 92.8408C2.45076 90.4481 2.88255 87.7983 4.23657 85.728C4.59608 85.1786 5.03805 84.6522 5.63553 84.3802C6.35494 84.0528 7.50107 84.1028 7.85198 84.9441C7.85628 84.9547 7.86018 84.964 7.8637 84.9734Z" fill="#37474F"/>
<path d="M2.00293 81.2157C2.18893 79.9285 2.50507 76.7188 2.80322 73.6653C5.1834 73.677 7.59642 73.7978 9.96956 73.695C9.81404 74.1647 9.91172 74.7903 9.87733 75.2839C9.82497 76.0341 9.78159 76.7856 9.76948 77.5378C9.74525 78.9954 9.83319 80.4639 10.1837 81.8832C10.4025 82.7694 10.721 83.6284 10.9469 84.5131C11.3904 86.2489 11.4729 88.0577 11.8539 89.8084C11.9144 90.0862 11.9828 90.368 11.9605 90.6513C11.8644 91.883 10.5284 91.5395 9.9426 90.9443C9.16419 90.1538 9.07157 89.1066 8.65384 88.1347C8.45103 87.6631 8.02782 85.8862 7.30528 86.2278C6.48975 86.6134 6.0513 87.5724 5.67499 88.3399C5.18458 89.3398 4.98685 90.3488 4.78716 91.4254C4.48002 93.0826 5.36473 94.9755 5.62733 96.5996C5.76527 97.4514 5.69493 98.1517 4.98373 98.7164C4.7731 98.8836 4.47924 98.9719 4.23032 98.8703C3.9857 98.7707 3.84307 98.5206 3.71881 98.2881C3.12288 97.1732 2.52187 96.0455 2.20339 94.8224C1.52462 92.2155 1.66765 89.3191 1.70164 86.6482C1.72353 84.8358 1.74306 83.0133 2.00293 81.2157Z" fill="#455A64"/>
<path d="M20.7695 24.3543C13.1722 23.8952 9.49113 27.3042 7.26179 34.7195C5.03245 42.1351 3.51274 49.2303 2.79295 53.0337C2.07315 56.8371 2.10089 72.9032 2.10089 72.9032L12.3613 74.2404L15.0432 54.4139L19.1932 40.8264L20.7695 24.3543Z" fill="#E6E6E6"/>
<path d="M13.084 68.8815C13.084 68.8815 11.8742 70.6689 7.39633 70.2574C2.9185 69.8459 2.12562 67.8381 2.12562 67.8381L1.68132 78.4303C1.68132 78.4303 2.06857 80.7113 6.40104 81.043C10.7335 81.3748 11.737 79.2045 11.737 79.2045L13.084 68.8815Z" fill="#F0F0F0"/>
<path d="M1.7583 76.6605L1.78916 75.9211C2.27059 76.2982 2.78367 76.6202 3.36944 76.8555C4.12675 77.1595 4.92001 77.3459 5.72578 77.4686C7.3842 77.7206 9.12821 77.7777 10.7589 77.3306C11.1907 77.2122 11.6127 77.0493 12.0097 76.8422C12.0238 76.8348 12.0367 76.8254 12.0508 76.818L11.9578 77.5311C11.6983 77.6519 11.4334 77.7617 11.161 77.8492C10.2845 78.1313 9.36502 78.2505 8.44632 78.2708C6.69137 78.3103 4.79927 78.1079 3.16468 77.4365C2.6981 77.2451 2.19674 76.9883 1.7583 76.6605Z" fill="#BA68C8"/>
<path d="M12.6328 72.3603C12.2729 72.5545 11.8946 72.7156 11.5054 72.841C10.6289 73.1231 9.70943 73.2423 8.79073 73.2626C7.03578 73.3021 5.14366 73.0997 3.50907 72.4283C2.99482 72.2169 2.44032 71.9254 1.97295 71.5483L2.00383 70.8145C2.5216 71.2369 3.07611 71.5913 3.71424 71.8473C4.47155 72.1513 5.26481 72.3377 6.07018 72.4604C7.72861 72.7124 9.47262 72.7695 11.1033 72.3224C11.5351 72.204 11.9571 72.0411 12.3542 71.834C12.4831 71.7668 12.6062 71.6898 12.7305 71.614L12.6328 72.3603Z" fill="#BA68C8"/>
<path d="M8.61853 75.7664C6.86358 75.8058 4.97147 75.6034 3.33687 74.9321C2.84646 74.7304 2.31892 74.4561 1.86524 74.104L1.89611 73.3674C2.39591 73.7672 2.92931 74.1052 3.54165 74.351C4.29896 74.655 5.09222 74.8414 5.89799 74.9641C7.55641 75.2162 9.30042 75.2732 10.9311 74.8262C11.3629 74.7078 11.7849 74.5448 12.182 74.3377C12.2535 74.3006 12.3207 74.2553 12.3906 74.2158L12.2953 74.9458C11.9842 75.1017 11.6638 75.2384 11.3332 75.3451C10.4567 75.6269 9.53684 75.7461 8.61853 75.7664Z" fill="#BA68C8"/>
<path d="M47.0817 71.6715C48.9023 72.6844 48.916 79.7702 49.0629 84.8314C49.447 98.0696 49.1774 104.647 49.3228 106.251C49.4681 107.854 50.2305 112.913 50.5357 119.889C50.9155 128.568 51.1426 132.35 51.1426 132.35C51.1426 132.35 49.653 133.717 46.5413 134.126C43.4296 134.535 39.9982 134.215 39.9982 134.215C39.9982 134.215 35.6317 121.635 34.488 116.825C32.2926 107.591 30.3524 98.4392 30.3524 98.4392L28.0911 109.39C28.0911 109.39 29.1172 114.891 28.0047 121.058C26.757 127.976 26.1118 132.65 26.1118 132.65C26.1118 132.65 21.9743 134.15 19.1108 134.088C15.4172 134.009 14.4337 133.008 14.4337 133.008C14.4337 133.008 12.7361 115.983 12.3219 107.057C11.9327 98.6788 9.79912 70.6086 12.2606 70.6191L47.0817 71.6715Z" fill="#F0F0F0"/>
<path d="M27.4638 85.0123L30.3535 98.4399L28.0921 109.391L28.3641 99.1265L25.6494 87.2162C20.6511 85.6637 17.5136 82.8415 16.7129 80.2488C22.0516 85.0576 27.4638 85.0123 27.4638 85.0123Z" fill="#E0E0E0"/>
<path d="M29.504 94.4894L29.6736 95.2791C29.9542 95.401 30.2383 95.5116 30.5263 95.6148C31.4196 95.9286 32.3496 96.124 33.2796 96.283C36.7305 96.8735 40.3729 96.8328 43.728 95.7515C45.7171 95.113 47.6365 94.1056 49.2344 92.7364C49.2309 92.4413 49.227 92.135 49.2234 91.8247C48.5369 92.4593 47.7917 93.0279 46.9832 93.5152C44.2818 95.1576 41.1372 95.9067 37.9892 95.9548C36.2952 95.977 34.5899 95.8145 32.9221 95.5081C32.1323 95.3643 31.35 95.1685 30.5857 94.9137C30.2203 94.7922 29.8549 94.6519 29.504 94.4894Z" fill="#FAFAFA"/>
<path d="M28.8811 91.5924L29.0546 92.397C29.4642 92.6037 29.896 92.7733 30.3278 92.9245C31.2207 93.2383 32.1511 93.4337 33.0811 93.5963C36.532 94.1867 40.1744 94.1426 43.5295 93.0648C45.5815 92.404 47.5596 91.3486 49.1875 89.9129C49.184 89.6139 49.1766 89.3111 49.1691 89.0051C48.4458 89.6917 47.6487 90.304 46.785 90.8285C44.0837 92.4709 40.9391 93.22 37.7907 93.2641C36.0967 93.2899 34.3918 93.1277 32.7236 92.8214C31.9338 92.6776 31.1515 92.4783 30.3872 92.227C30.0109 92.1016 29.6381 91.9539 29.2762 91.7878C29.1434 91.7253 29.0105 91.6628 28.8811 91.5924Z" fill="#FAFAFA"/>
<path d="M28.2266 88.5544L28.4036 89.3774C28.5033 89.4329 28.6065 89.488 28.7135 89.5396C29.127 89.7428 29.5588 89.9159 29.9941 90.071C30.8874 90.3848 31.8174 90.5802 32.7474 90.7392C36.1983 91.3297 39.8407 91.2891 43.1959 90.2078C45.3588 89.5138 47.44 88.381 49.1191 86.8273C49.1082 86.5209 49.1008 86.211 49.0934 85.8972C48.2997 86.687 47.4177 87.3845 46.4545 87.9714C43.7492 89.6138 40.6047 90.3629 37.4566 90.411C35.7626 90.4333 34.0577 90.2707 32.3895 89.9643C31.5998 89.8205 30.8174 89.6248 30.0535 89.37C29.6772 89.2445 29.3044 89.1004 28.9425 88.9308C28.7432 88.8385 28.5475 88.7424 28.3556 88.6353C28.3149 88.6099 28.2708 88.5841 28.2266 88.5544Z" fill="#FAFAFA"/>
<path d="M11.3429 88.7361C11.3539 89.0499 11.3687 89.3637 11.3836 89.681C11.5868 89.8396 11.7931 89.9983 11.9998 90.1534C14.8083 92.2499 18.0747 93.8626 21.5514 94.4233C24.1348 94.8368 26.8842 94.693 29.3496 93.7739L29.2058 93.1057C28.0026 93.5414 26.7553 93.8106 25.4708 93.9103C22.3154 94.1463 19.1744 93.3862 16.351 91.9986C14.8266 91.2495 13.3839 90.3343 12.033 89.3007C11.7966 89.1198 11.5676 88.928 11.3429 88.7361Z" fill="#FAFAFA"/>
<path d="M11.1452 82.9341C11.1527 83.244 11.1601 83.5542 11.171 83.8641C11.4442 84.0892 11.7208 84.3033 12.0014 84.5136C14.8099 86.6101 18.0763 88.2228 21.553 88.7835C23.7452 89.134 26.0554 89.0825 28.2148 88.4994V88.4959L28.071 87.8207C27.2258 88.0532 26.3548 88.2044 25.4728 88.2708C22.3173 88.5069 19.1763 87.7468 16.353 86.3592C14.8286 85.6101 13.3859 84.6949 12.035 83.6648C11.7318 83.4288 11.4367 83.185 11.1452 82.9341Z" fill="#FAFAFA"/>
<path d="M11.2286 85.8232C11.2396 86.1331 11.2509 86.4469 11.2619 86.7607C11.5053 86.9565 11.7527 87.1483 12 87.3328C14.8085 89.4293 18.0749 91.042 21.5516 91.6027C23.9396 91.9865 26.4675 91.8907 28.7852 91.1487L28.6414 90.4769C27.6152 90.7981 26.5527 91.0045 25.471 91.0896C22.3156 91.3257 19.1746 90.5656 16.3513 89.178C14.8269 88.4289 13.3841 87.5137 12.0332 86.4801C11.7601 86.2699 11.4905 86.0483 11.2286 85.8232Z" fill="#FAFAFA"/>
<path d="M46.3562 105.242C47.8001 106.885 48.4405 109.122 48.4679 111.309C48.4898 113.061 48.0974 114.908 46.9138 116.199C46.049 117.144 44.6305 117.655 43.4137 117.989C42.0589 118.362 40.5986 118.363 39.2496 117.963C38.5591 117.758 37.8866 117.447 37.3595 116.956C36.8577 116.488 36.5096 115.881 36.2137 115.262C35.3474 113.451 34.8625 111.424 35.0633 109.426C35.2642 107.429 36.1958 105.47 37.7749 104.23C40.3989 102.17 44.2026 102.792 46.3562 105.242Z" fill="#E0E0E0"/>
<path d="M36.5859 107.39C36.21 107.465 35.8341 107.54 35.4581 107.616C35.548 107.349 35.6512 107.089 35.768 106.834C35.8618 106.816 35.956 106.798 36.0494 106.78C37.1447 106.56 38.24 106.341 39.3353 106.122C41.5147 105.686 43.6913 105.232 45.8764 104.826C45.8968 104.822 45.9171 104.818 45.9374 104.814C46.0808 104.95 46.2195 105.093 46.3512 105.244C46.3919 105.29 46.4255 105.342 46.4649 105.389C45.3684 105.625 44.2692 105.846 43.17 106.068C40.9762 106.51 38.7808 106.95 36.5859 107.39ZM40.6116 114.677C42.7831 114.203 44.9515 113.712 47.1293 113.268C47.531 113.186 47.9327 113.106 48.3348 113.025C48.2965 113.256 48.2492 113.485 48.1914 113.711C48.0628 113.741 47.9346 113.773 47.8061 113.803C46.6881 114.064 45.5666 114.31 44.4454 114.557C42.2591 115.038 40.0719 115.515 37.8848 115.993C37.5093 116.075 37.1334 116.157 36.7578 116.239C36.6187 116.033 36.4933 115.817 36.3776 115.595C36.6984 115.529 37.0189 115.462 37.3377 115.392C38.4288 115.154 39.5202 114.916 40.6116 114.677ZM40.3279 112.949C42.5068 112.513 44.6838 112.059 46.869 111.653C47.4001 111.554 47.9311 111.456 48.4626 111.361C48.4641 111.572 48.4602 111.785 48.4493 111.999C48.1449 112.066 47.8408 112.134 47.536 112.2C46.4138 112.441 45.2879 112.667 44.1625 112.895C41.9684 113.338 39.773 113.777 37.5781 114.217C37.0169 114.33 36.4562 114.443 35.895 114.554C35.8036 114.331 35.7176 114.105 35.6387 113.877C36.1072 113.787 36.5761 113.7 37.0415 113.607C38.1372 113.388 39.2326 113.169 40.3279 112.949ZM43.3536 107.766C41.1595 108.209 38.9641 108.649 36.7692 109.089C36.199 109.203 35.6289 109.318 35.0584 109.431C35.0584 109.43 35.0584 109.429 35.0588 109.428C35.0838 109.179 35.1205 108.93 35.1678 108.683C35.5234 108.616 35.879 108.549 36.2326 108.478C37.328 108.259 38.4233 108.04 39.5186 107.821C41.6979 107.385 43.8745 106.931 46.0597 106.524C46.4169 106.458 46.7744 106.394 47.1316 106.328C47.2465 106.518 47.3528 106.712 47.4516 106.912C47.2101 106.964 46.9686 107.019 46.7272 107.071C45.6049 107.313 44.479 107.539 43.3536 107.766ZM40.0129 111.208C42.1919 110.772 44.3689 110.318 46.554 109.912C47.1386 109.803 47.7232 109.694 48.309 109.59C48.343 109.793 48.3668 109.997 48.3895 110.202C48.0003 110.288 47.6111 110.375 47.2215 110.459C46.0992 110.701 44.9734 110.927 43.848 111.154C41.6534 111.597 39.4584 112.036 37.2635 112.476C36.6332 112.603 36.0029 112.73 35.3722 112.855C35.362 112.857 35.3518 112.859 35.3417 112.861C35.2835 112.629 35.2327 112.396 35.1897 112.161C35.7027 112.062 36.2166 111.968 36.7266 111.865C37.8223 111.647 38.9176 111.427 40.0129 111.208ZM36.498 110.174C37.5933 109.955 38.6886 109.735 39.784 109.516C41.9633 109.08 44.1399 108.626 46.325 108.22C46.8452 108.123 47.3653 108.027 47.8858 107.934C47.9542 108.13 48.0136 108.329 48.0691 108.529C47.7099 108.609 47.3516 108.689 46.9925 108.767C45.8702 109.009 44.7444 109.235 43.619 109.462C41.4248 109.905 39.2295 110.344 37.0345 110.784C36.4042 110.911 35.7739 111.038 35.1432 111.163C35.1143 111.169 35.0857 111.175 35.0572 111.181C35.0361 110.94 35.0244 110.699 35.0212 110.458C35.5144 110.363 36.0079 110.272 36.498 110.174Z" fill="#EBEBEB"/>
<path d="M20.0999 106.209C20.1484 106.832 20.1609 107.459 20.1578 108.08C20.1495 109.737 19.9874 111.532 18.885 112.769C18.4352 113.274 17.846 113.654 17.2 113.856C15.608 114.352 13.755 113.455 12.8601 112.078C11.6702 110.248 11.73 107.584 11.7671 105.495C11.7863 104.398 11.8343 103.282 12.1911 102.243C12.7151 100.718 14.1383 99.3001 15.8714 99.6628C17.3641 99.9754 18.6377 101.406 19.2641 102.733C19.7767 103.819 20.0057 105.005 20.0999 106.209Z" fill="#E0E0E0"/>
<path d="M16.6495 104.982C15.0708 104.456 13.4901 103.934 11.9138 103.4C11.9497 103.17 11.9962 102.942 12.0537 102.717C12.4667 102.853 12.8797 102.99 13.2928 103.127C15.4178 103.83 17.5416 104.538 19.6659 105.245C19.7804 105.283 19.8945 105.321 20.009 105.359C20.0449 105.615 20.0723 105.873 20.0938 106.131C20.0054 106.101 19.9171 106.071 19.8288 106.041C18.769 105.688 17.7093 105.335 16.6495 104.982Z" fill="#EBEBEB"/>
<path d="M19.5019 103.307C19.6027 103.576 19.689 103.849 19.7617 104.126C18.9274 103.864 18.0928 103.602 17.2585 103.34C15.6293 102.829 13.9986 102.321 12.3723 101.801C12.4715 101.589 12.5868 101.382 12.7185 101.185C13.1026 101.304 13.4863 101.423 13.8705 101.543C15.7481 102.129 17.625 102.718 19.5019 103.307Z" fill="#EBEBEB"/>
<path d="M12.2521 110.782C12.1642 110.517 12.0907 110.245 12.0305 109.967C13.7335 110.532 15.4365 111.098 17.1391 111.665C17.7491 111.868 18.3595 112.069 18.9691 112.274C19.048 112.301 19.1277 112.326 19.207 112.352C19.1093 112.497 19.0038 112.637 18.8854 112.77C18.8307 112.831 18.7682 112.884 18.7096 112.942C18.2399 112.781 17.771 112.617 17.3016 112.461C16.2419 112.108 15.1821 111.755 14.1223 111.402C13.4994 111.194 12.8758 110.988 12.2521 110.782Z" fill="#EBEBEB"/>
<path d="M16.0581 106.65C14.6302 106.174 13.2008 105.701 11.7737 105.221C11.7796 104.98 11.7886 104.739 11.8022 104.497C12.1019 104.596 12.4021 104.695 12.7018 104.794C14.8268 105.499 16.9506 106.206 19.0749 106.913C19.4332 107.032 19.7919 107.152 20.1502 107.271C20.1561 107.522 20.1589 107.773 20.1581 108.022C19.8513 107.916 19.5446 107.811 19.2378 107.709C18.1776 107.356 17.1179 107.003 16.0581 106.65Z" fill="#EBEBEB"/>
<path d="M17.9852 110.895C16.9255 110.542 15.8657 110.188 14.8059 109.836C13.8216 109.508 12.8357 109.183 11.8509 108.856C11.8232 108.602 11.8032 108.348 11.7884 108.093C13.8005 108.76 15.8114 109.43 17.8227 110.099C18.4327 110.301 19.043 110.503 19.6526 110.708C19.7292 110.734 19.8062 110.758 19.8828 110.783C19.8234 111.017 19.7535 111.247 19.6667 111.469C19.1048 111.279 18.5452 111.081 17.9852 110.895Z" fill="#EBEBEB"/>
<path d="M15.4162 108.232C14.1958 107.826 12.9739 107.422 11.7535 107.014C11.7512 106.764 11.7516 106.518 11.7543 106.276C11.8559 106.309 11.9579 106.343 12.0599 106.376C14.1849 107.08 16.3087 107.788 18.433 108.495C18.9984 108.683 19.5639 108.87 20.1289 109.059C20.1148 109.305 20.093 109.55 20.0633 109.793C19.5732 109.625 19.0848 109.454 18.5959 109.291C17.5358 108.938 16.476 108.585 15.4162 108.232Z" fill="#EBEBEB"/>
<path d="M26.626 144.417C26.3751 144.675 25.9726 144.902 25.6502 144.727C25.5084 144.65 25.4138 144.507 25.2645 144.445C25.0121 144.339 24.7174 144.507 24.5568 144.718C24.3958 144.93 24.3091 145.188 24.1293 145.385C23.9156 145.621 23.5971 145.744 23.2915 145.859C23.1716 145.904 23.0438 145.951 22.9164 145.93C22.6108 145.881 22.4662 145.485 22.1575 145.457C21.6995 145.415 21.7538 145.846 21.7046 146.11C21.6479 146.412 21.4565 146.694 21.181 146.86C20.8082 147.085 20.2978 147.088 19.9219 146.868C19.7781 146.784 19.6492 146.67 19.4854 146.63C19.2201 146.566 18.9368 146.73 18.8078 146.958C18.6789 147.185 18.6754 147.457 18.7129 147.712C18.7242 147.791 18.7387 147.873 18.7086 147.947C18.6765 148.024 18.6007 148.077 18.5277 148.125C18.2576 148.299 17.972 148.45 17.6742 148.578C17.5144 148.646 17.3194 148.706 17.1709 148.618C17.083 148.566 17.0333 148.473 16.9603 148.404C16.7872 148.24 16.4906 148.234 16.2792 148.35C16.0674 148.466 15.9345 148.682 15.8743 148.906C15.8126 149.135 15.8329 149.499 15.6293 149.67C15.4851 149.791 15.1795 149.872 15.0013 149.942C14.7829 150.028 14.5578 150.133 14.3155 150.12C13.9775 150.1 13.84 149.844 13.552 149.727C13.2663 149.61 12.8912 149.766 12.7927 150.044C12.7224 150.242 12.774 150.481 12.6376 150.646C12.5645 150.734 12.4512 150.782 12.341 150.824C12.1218 150.907 11.8975 150.979 11.6696 151.038C11.3129 151.131 10.8783 151.176 10.6204 150.926C10.5556 150.863 10.5083 150.786 10.4465 150.721C10.2824 150.545 10.0143 150.462 9.77088 150.51C9.52743 150.558 9.31877 150.737 9.24452 150.96C9.11439 151.351 8.89205 151.421 8.46494 151.483C8.0726 151.54 7.67363 151.511 7.27895 151.513C6.79009 151.517 6.86278 151.118 6.55681 150.868C6.29499 150.653 5.85616 150.619 5.58301 150.833C5.50056 150.897 5.43373 150.978 5.34894 151.04C5.05195 151.258 4.62835 151.193 4.25986 151.119C4.09339 151.085 3.9109 151.041 3.8136 150.91C3.74912 150.823 3.73467 150.714 3.70341 150.612C3.60142 150.281 3.29114 150.016 2.93163 149.951C2.8187 149.931 2.69796 149.93 2.59206 149.972C2.50101 150.008 2.42676 150.073 2.34275 150.121C2.11297 150.254 1.81911 150.258 1.55925 150.188C1.29978 150.119 1.0661 149.984 0.836325 149.851C0.677282 149.759 0.513161 149.662 0.408825 149.517C0.25955 149.308 0.257589 149.04 0.261106 148.789C0.269312 148.203 0.288857 147.555 0.696428 147.074C1.11494 146.581 1.77261 146.257 2.36111 145.981C6.32039 144.12 10.7318 143.33 14.9662 142.117C18.0673 141.229 21.1939 140.092 24.431 140.257C25.4537 140.309 26.9448 140.383 27.2805 141.438C27.6048 142.461 27.4063 143.613 26.626 144.417Z" fill="#455A64"/>
<path d="M28.4747 116.906C29.3489 117.092 28.8932 119.134 28.4606 121.777C28.0281 124.421 27.4091 128.703 26.9761 131.549C26.5435 134.395 26.7549 135.377 27.1152 137.771C27.4759 140.166 27.4036 141.456 27.1152 141.963C26.8268 142.47 25.8816 143.566 23.51 144.132C21.1384 144.697 20.6394 144.763 18.3151 146.001C16.7962 146.809 15.2862 148.384 10.4196 149.363C6.46537 150.158 1.31033 148.862 0.474476 147.429C0.14662 144.36 1.33143 142.9 3.99101 141.471C7.38758 139.646 11.6267 137.466 12.7826 135.918C13.9385 134.369 13.888 132.861 13.4926 127.89C13.0729 122.61 12.7661 119.098 12.6239 118.149C12.4817 117.201 12.9885 116.946 12.9885 116.946L13.069 117.939C13.069 117.939 15.8001 119.147 20.487 119.215C25.1739 119.282 28.4305 117.631 28.4305 117.631L28.4747 116.906Z" fill="#E0E0E0"/>
<path opacity="0.05" d="M28.4747 116.906C29.3489 117.092 28.8932 119.134 28.4606 121.777C28.0281 124.421 27.4091 128.703 26.9761 131.549C26.5435 134.395 26.7549 135.377 27.1152 137.771C27.4759 140.166 27.4036 141.456 27.1152 141.963C26.8268 142.47 25.8816 143.566 23.51 144.132C21.1384 144.697 20.6394 144.763 18.3151 146.001C16.7962 146.809 15.2862 148.384 10.4196 149.363C6.46537 150.158 1.31033 148.862 0.474476 147.429C0.14662 144.36 1.33143 142.9 3.99101 141.471C7.38758 139.646 11.6267 137.466 12.7826 135.918C13.9385 134.369 13.888 132.861 13.4926 127.89C13.0729 122.61 12.7661 119.098 12.6239 118.149C12.4817 117.201 12.9885 116.946 12.9885 116.946L13.069 117.939C13.069 117.939 15.8001 119.147 20.487 119.215C25.1739 119.282 28.4305 117.631 28.4305 117.631L28.4747 116.906Z" fill="black"/>
<path d="M6.6844 140.588C6.37217 140.56 6.04667 140.549 5.7149 140.546C5.91185 140.44 6.10879 140.334 6.30652 140.227C11.5413 140.503 14.2263 144.112 15.0566 147.897C14.9511 147.946 14.8437 147.996 14.7319 148.046C14.2005 145.546 12.8328 143.114 10.4202 141.724C7.30103 142.965 5.89348 146.441 5.8419 149.487C5.72428 149.473 5.60744 149.458 5.49099 149.442C5.55547 146.373 6.9638 142.894 10.0501 141.524C9.24004 141.112 8.32094 140.812 7.2854 140.659C3.84897 142.353 1.93186 144.11 1.69036 148.381C1.57078 148.321 1.45629 148.261 1.35079 148.2C1.62862 144.075 3.45195 142.252 6.6844 140.588Z" fill="#F0F0F0"/>
<path d="M13.1206 123.354C13.0995 123.104 13.0791 122.863 13.0588 122.629C14.8442 123.314 16.7195 123.779 18.637 124.003C19.843 124.144 21.0594 124.193 22.2739 124.143C23.5029 124.092 24.7464 123.98 25.946 123.72C26.7393 123.547 27.5294 123.296 28.2695 122.957C28.2406 123.141 28.2113 123.329 28.1816 123.521C27.6455 123.786 27.0761 123.993 26.4814 124.159C25.2192 124.51 23.9035 124.708 22.5905 124.779C20.1458 124.91 17.6801 124.665 15.321 124.048C14.5746 123.852 13.8411 123.618 13.1206 123.354Z" fill="#BA68C8"/>
<path d="M28.8457 119.404C28.8156 119.616 28.7816 119.838 28.7441 120.068C28.6484 120.133 28.5526 120.196 28.4592 120.254C27.9395 120.579 27.3799 120.835 26.7977 121.044C25.5894 121.477 24.3139 121.73 23.0342 121.888C20.4144 122.212 17.7412 122.055 15.1797 121.449C14.4751 121.283 13.7796 121.081 13.0973 120.845C13.0297 120.822 12.9636 120.794 12.8964 120.77C12.8738 120.519 12.8519 120.288 12.8312 120.068C12.9101 120.098 12.9871 120.13 13.0664 120.159C13.6604 120.373 14.2645 120.561 14.8768 120.722C16.0984 121.044 17.3508 121.254 18.6146 121.359C21.1081 121.567 23.6911 121.368 26.09 120.676C26.7015 120.5 27.3033 120.277 27.8688 119.995C28.1982 119.83 28.5163 119.641 28.8137 119.429C28.8246 119.421 28.8348 119.412 28.8457 119.404Z" fill="#BA68C8"/>
<path d="M16.4446 134.065C17.964 134.367 19.4418 135.079 20.554 136.092C20.8502 136.362 21.1358 136.702 21.1097 137.089C21.0925 137.344 20.9404 137.571 20.7849 137.781C20.2175 138.544 19.5372 139.234 18.7697 139.823C18.5368 140.002 18.2891 140.175 18.0011 140.255C17.3028 140.448 16.5873 140.059 15.9761 139.687C15.0367 139.115 14.0828 138.539 13.0184 138.214C11.9539 137.89 10.7492 137.839 9.74606 138.305C10.6761 137.873 11.5725 136.636 12.1673 135.866C12.6042 135.301 12.9715 134.364 13.6893 134.05C14.3575 133.758 15.4216 133.895 16.1183 134.007C16.2278 134.024 16.336 134.043 16.4446 134.065Z" fill="#BA68C8"/>
<path d="M12.1694 135.866C12.4094 135.556 12.6301 135.136 12.8974 134.766C13.4644 134.551 14.1065 134.465 14.6981 134.494C16.5703 134.585 18.4468 135.129 19.8242 136.324C19.9872 136.466 20.1505 136.637 20.1579 136.846C20.1642 137.02 20.0591 137.179 19.9543 137.323C19.4233 138.052 18.7969 138.719 18.0939 139.305C17.7281 139.61 17.446 139.608 16.9958 139.432C16.5746 139.268 16.2108 138.996 15.8344 138.76C15.0916 138.294 14.2436 137.921 13.3679 137.699C12.4965 137.479 11.6845 137.502 10.817 137.496C11.3383 136.969 11.8091 136.333 12.1694 135.866Z" fill="#455A64"/>
<path d="M55.4144 151.198C55.4933 152.101 55.5148 153.015 55.2115 153.868C55.1592 154.015 55.0955 154.163 54.9853 154.279C54.777 154.498 54.5656 154.393 54.3413 154.49C54.0943 154.598 54.1217 154.837 54.1076 155.121C54.0685 155.934 53.5027 156.705 52.7083 157.028C52.5801 157.08 52.4429 157.122 52.3038 157.113C52.1034 157.1 51.9177 156.983 51.7173 156.995C51.4387 157.013 51.2472 157.272 51.1683 157.524C51.0893 157.776 51.0772 158.049 50.9451 158.281C50.704 158.703 50.1472 158.858 49.6427 158.927C49.4629 158.952 49.2699 158.969 49.1073 158.892C48.9897 158.837 48.9022 158.737 48.7892 158.673C48.486 158.503 48.0315 158.685 47.9514 159.008C47.9127 159.165 47.9495 159.34 47.8702 159.483C47.7541 159.692 47.4583 159.73 47.2078 159.742C46.8932 159.757 46.5783 159.773 46.2637 159.788C45.7428 159.814 45.1195 159.792 44.8417 159.377C44.71 159.18 44.6905 158.933 44.5732 158.728C44.4556 158.522 44.1481 158.372 43.9652 158.529C43.8761 158.605 43.8503 158.729 43.7698 158.813C43.5435 159.052 43.1321 158.832 42.889 158.608C42.6737 158.41 42.4592 158.207 42.2982 157.968C41.9953 157.518 41.9027 156.974 41.8167 156.448C41.519 154.626 41.2228 152.796 41.1516 150.952C41.1161 150.025 41.1376 149.094 41.2474 148.172C41.313 147.622 41.3513 147.015 41.6237 146.513C41.9535 145.905 42.721 145.768 43.3861 145.707C45.3669 145.526 47.3911 145.35 49.3273 145.783C50.3332 146.007 51.2917 146.392 52.2128 146.833C52.9826 147.201 53.7411 147.618 54.3452 148.199C54.6129 148.456 54.8493 148.745 55.0091 149.072C55.2487 149.561 55.3065 150.109 55.3612 150.645C55.3796 150.828 55.3979 151.013 55.4144 151.198Z" fill="#455A64"/>
<path d="M50.5684 120.606C51.4285 120.593 51.3359 121.314 51.3824 124.135C51.4285 126.957 51.6278 134.221 51.6559 135.602C51.6841 136.982 52.1839 139.509 52.2214 140.347C52.2589 141.185 53.2171 144.066 54.1111 145.927C55.0052 147.788 56.8653 154.152 49.3566 157.514C41.848 160.875 41.2732 151.381 41.2732 148.384C41.2732 145.387 40.762 141.14 40.0598 137.741C39.3572 134.341 36.1412 125.927 35.6527 124.136C35.3198 122.914 36.1381 122.725 36.1381 122.725L36.3553 123.416C36.3553 123.416 37.8883 124.976 42.9976 124.316C48.1073 123.655 50.5981 121.314 50.5981 121.314L50.5684 120.606Z" fill="#E0E0E0"/>
<path opacity="0.05" d="M50.5684 120.606C51.4285 120.593 51.3359 121.314 51.3824 124.135C51.4285 126.957 51.6278 134.221 51.6559 135.602C51.6841 136.982 52.1839 139.509 52.2214 140.347C52.2589 141.185 53.2171 144.066 54.1111 145.927C55.0052 147.788 56.8653 154.152 49.3566 157.514C41.848 160.875 41.2732 151.381 41.2732 148.384C41.2732 145.387 40.762 141.14 40.0598 137.741C39.3572 134.341 36.1412 125.927 35.6527 124.136C35.3198 122.914 36.1381 122.725 36.1381 122.725L36.3553 123.416C36.3553 123.416 37.8883 124.976 42.9976 124.316C48.1073 123.655 50.5981 121.314 50.5981 121.314L50.5684 120.606Z" fill="black"/>
<path d="M48.4633 137.213C47.5759 137.159 46.7298 137.123 45.8526 137.291C44.9085 137.471 43.9937 137.788 43.1519 138.228C42.8112 138.406 42.4193 138.61 42.2145 138.936C41.9546 139.349 42.1156 139.873 42.1875 140.316C42.3622 141.392 42.5615 142.471 42.8272 143.531C42.8956 143.805 42.955 143.859 43.2375 143.751C43.4919 143.654 43.7451 143.557 44.0038 143.471C44.5056 143.304 45.0167 143.164 45.531 143.035C46.3856 142.821 47.2605 142.682 48.1421 142.618C49.0256 142.554 49.9154 142.539 50.7981 142.619C51.2479 142.66 51.695 142.726 52.1354 142.821C52.3491 142.866 53.1033 143.206 52.9857 142.819C52.6899 141.846 52.5035 140.844 52.4304 139.835C52.4069 139.51 52.3944 139.18 52.2874 138.87C51.8435 137.582 49.6798 137.288 48.4633 137.213Z" fill="#BA68C8"/>
<path d="M42.7244 139.798C42.7169 139.576 42.7216 139.335 42.8623 139.156C42.96 139.032 43.1104 138.956 43.257 138.886C44.7767 138.165 46.473 137.735 48.1744 137.792C49.6664 137.842 51.1591 138.284 52.3549 139.116C52.403 139.352 52.4147 139.594 52.4319 139.834C52.4932 140.683 52.6398 141.526 52.8594 142.352C52.852 142.35 52.8434 142.35 52.8359 142.348C50.1201 141.807 47.2643 141.896 44.5922 142.605C44.2499 142.696 43.91 142.797 43.5598 142.856C43.4614 142.872 43.3508 142.883 43.2695 142.828C43.1956 142.779 43.1675 142.69 43.1452 142.607C42.8971 141.689 42.7556 140.745 42.7244 139.798Z" fill="#455A64"/>
<path d="M46.1097 146.379C48.7736 145.69 51.8697 146.002 54.5906 147.198C54.6297 147.331 54.6676 147.469 54.7031 147.613C53.0681 146.853 51.2823 146.427 49.5356 146.36C50.5274 148.796 51.5086 152.89 51.8935 156.016C51.7888 156.097 51.6801 156.178 51.5688 156.258C51.2014 153.082 50.1796 148.802 49.1565 146.351C48.1413 146.342 47.1437 146.455 46.2027 146.698C46.1152 146.72 46.0331 146.752 45.9468 146.776C45.9608 147.769 46.078 154.246 46.7596 158.214C46.6388 158.221 46.5208 158.224 46.4055 158.222C45.7475 154.343 45.6173 148.161 45.597 146.884C43.8542 147.451 42.4005 148.457 41.3173 149.831C41.3067 149.65 41.2985 149.476 41.2923 149.311C42.5201 147.886 44.159 146.882 46.1097 146.379Z" fill="#F0F0F0"/>
<path d="M51.3816 124.135C51.3852 124.345 51.3895 124.581 51.3945 124.835C50.876 125.198 50.2957 125.493 49.7154 125.742C48.5771 126.232 47.3708 126.604 46.1617 126.905C43.6616 127.527 41.0391 127.75 38.4815 127.321C37.8301 127.212 37.1869 127.058 36.5597 126.86C36.4714 126.607 36.3866 126.364 36.3069 126.134C36.3792 126.16 36.4491 126.191 36.5218 126.215C37.0611 126.393 37.6132 126.537 38.1724 126.648C39.3213 126.877 40.4991 126.961 41.6726 126.929C44.1278 126.86 46.5783 126.286 48.8545 125.434C49.7666 125.092 50.6161 124.668 51.3812 124.119C51.3812 124.125 51.3812 124.13 51.3816 124.135Z" fill="#BA68C8"/>
<path d="M40.4373 130.612C39.5296 130.517 38.6109 130.368 37.714 130.159C37.6277 129.91 37.5421 129.663 37.4569 129.42C38.317 129.634 39.1802 129.82 40.0676 129.935C41.2021 130.082 42.3509 130.138 43.4955 130.085C45.615 129.988 47.7049 129.494 49.6087 128.611C50.1069 128.38 50.5907 128.123 51.0553 127.837C51.1901 127.754 51.323 127.665 51.4555 127.575C51.4605 127.785 51.4656 127.998 51.4707 128.213C51.0713 128.478 50.6579 128.724 50.2308 128.948C49.3004 129.436 48.3062 129.816 47.2859 130.102C45.0758 130.721 42.7229 130.852 40.4373 130.612Z" fill="#BA68C8"/>
<path d="M47.0859 69.4374V71.6738C47.0859 71.6738 43.1689 76.1879 30.257 76.5623C16.7294 76.9546 12.2644 70.6214 12.2644 70.6214V68.6895L47.0859 69.4374Z" fill="#455A64"/>
<path d="M29.5731 26.3966C36.4069 28.3508 39.9613 29.2375 44.8327 31.8568C49.2925 34.255 49.552 38.7113 48.1769 51.0952C47.9584 53.0627 47.9948 57.444 48.4618 61.6913C48.8568 65.2833 48.2406 68.3266 47.0851 69.4371C45.3977 70.8158 38.8676 75.2639 26.091 74.0041C16.0568 73.0146 12.3378 68.6888 12.3378 68.6888C10.5137 66.871 10.6845 60.6351 10.7607 51.8228C10.8724 38.9235 9.99515 28.8795 16.0056 25.6068C20.0372 23.4115 22.5041 24.3751 29.5731 26.3966Z" fill="#F0F0F0"/>
<path d="M10.7494 53.21C10.7498 53.1498 10.7506 53.0905 10.751 53.0303C20.9751 60.3412 38.8286 58.7793 48.0547 53.5117V53.5121C48.0527 53.6473 48.052 53.788 48.0512 53.9287C48.0512 53.9341 48.0512 53.9396 48.0512 53.9451C43.2091 56.6601 34.01 58.369 27.5545 58.369C27.2974 58.369 27.0406 58.3627 26.7835 58.3573C26.4865 62.5021 26.4775 68.1281 26.6929 74.0353C26.5702 74.0314 26.4471 74.0267 26.3232 74.0213C26.1087 68.1218 26.1176 62.4982 26.4138 58.3506C21.7715 58.2029 17.1389 57.1388 13.053 54.9083C12.9401 56.2975 12.4485 63.2262 13.2414 69.5954C13.0777 69.4621 12.9397 69.3398 12.8248 69.2304C12.0628 62.6327 12.6232 55.5945 12.6986 54.7164C12.0323 54.339 11.3809 53.9306 10.7475 53.4883C10.7479 53.3964 10.7487 53.3026 10.7494 53.21Z" fill="#E0E0E0"/>
<path d="M36.3308 13.0122C36.3308 13.0122 37.8071 13.2549 38.6191 15.2212C39.0271 16.2091 39.2295 17.9644 37.4636 22.7787C36.3273 25.8771 35.1717 27.1714 34.6337 28.0143C34.0956 28.8571 33.1268 29.022 33.1268 29.022L33.5516 25.2406L33.9197 22.6122C33.9197 22.6122 31.9663 20.4958 31.9475 18.5826C31.9233 16.12 32.9912 14.8191 32.9912 14.8191L36.3308 13.0122Z" fill="#263238"/>
<path d="M36.8354 13.1831C38.0206 9.60478 30.2505 5.09959 26.2627 7.83342C24.7567 5.9839 21.4383 7.00772 21.2167 9.00612C19.9838 8.4946 18.3004 10.357 18.9296 11.8036C18.0046 11.525 16.5341 12.9799 17.5099 14.2127C18.2144 15.1029 18.0386 15.8809 16.9601 16.0806C17.1132 17.3619 19.4094 17.4237 19.7795 16.453C19.8291 17.206 20.3684 16.8434 20.9354 16.3506C24.8634 16.1095 28.9368 16.512 32.9109 16.4882C32.9109 16.4882 36.8268 13.1901 36.8354 13.1831Z" fill="#263238"/>
<path d="M36.5074 26.1044C34.8529 26.7042 34.2933 25.5722 34.2933 25.5722L34.1081 32.8522C30.7061 38.9404 21.7715 37.8889 25.5268 32.812L25.5573 30.6221C25.5573 30.6221 23.9555 30.6076 22.9168 30.4252C21.1838 30.1262 19.7711 28.88 19.2796 26.9833C18.5543 24.1771 18.652 19.6891 19.7665 14.944C19.9814 14.0281 20.3901 13.0304 21.2361 12.6248C23.3358 11.6182 25.2435 13.1371 28.1325 14.3141C29.329 14.8018 32.2437 15.0484 33.0182 14.6963C31.989 15.8061 32.5345 18.7251 32.7912 19.6501C33.1617 20.9845 33.4755 21.5187 33.7498 21.5836C34.5481 21.7731 34.8228 20.7251 35.5246 20.4121C36.2323 20.0963 37.7368 19.8552 38.5351 21.7286C39.0377 22.9103 38.4101 25.4147 36.5074 26.1044Z" fill="#C8856A"/>
<path d="M27.8514 30.3826C32.493 29.5248 33.5762 27.197 33.5762 27.197C33.244 29.7276 29.2984 31.8663 25.5404 31.6878L25.5552 30.6229C25.5552 30.6229 25.9741 30.7292 27.8514 30.3826Z" fill="#AF6152"/>
<path d="M27.604 16.9412L29.4649 17.9006C29.7185 17.3648 29.5075 16.7154 28.9936 16.4504C28.4798 16.1855 27.8577 16.4055 27.604 16.9412Z" fill="#263238"/>
<path d="M20.7798 17.3458L22.7246 16.5318C22.5195 15.9797 21.9177 15.7144 21.3808 15.939C20.8434 16.1637 20.5742 16.7937 20.7798 17.3458Z" fill="#263238"/>
<path d="M27.2176 24.636L24.2575 25.1045C24.3564 25.9373 25.0992 26.507 25.9163 26.3773C26.7338 26.2479 27.3164 25.4683 27.2176 24.636Z" fill="#AF6152"/>
<path d="M25.347 26.3536C25.5248 25.6724 26.1469 25.1769 26.8776 25.1961C26.9784 25.1988 27.0769 25.2125 27.1719 25.2336C27.0136 25.8135 26.5318 26.2801 25.9159 26.3774C25.719 26.4087 25.5271 26.3973 25.347 26.3536Z" fill="#FFA8A7"/>
<path d="M28.5868 19.3759C28.5634 19.8479 28.1636 20.2113 27.6935 20.1883C27.2234 20.1648 26.8616 19.7635 26.885 19.2915C26.9085 18.8194 27.3082 18.456 27.7783 18.4791C28.248 18.5025 28.6103 18.9038 28.5868 19.3759Z" fill="#263238"/>
<path d="M22.5686 19.0617C22.5452 19.5337 22.1454 19.8975 21.6753 19.8741C21.2056 19.8506 20.8434 19.4493 20.8668 18.9773C20.8903 18.5052 21.29 18.1418 21.7597 18.1649C22.3005 18.1918 22.5956 18.5189 22.5686 19.0617Z" fill="#263238"/>
<path d="M25.0684 17.6577L24.71 23.2379L22.0078 22.2895C22.7316 20.0981 23.9144 18.7112 25.0684 17.6577Z" fill="#AF6152"/>
<path d="M9.77683 44.3828C9.78542 43.9303 9.92767 43.6247 10.1531 43.4621L10.1453 43.4551L11.7889 42.2894C11.7889 42.2894 11.7948 42.2957 11.7959 42.2968C12.0781 42.0944 12.4931 42.1202 12.9737 42.418C16.0459 44.323 19.7473 45.4605 24.3248 46.1815C25.3314 46.3401 26.1235 47.2678 26.0887 48.2862L25.9199 53.2493C25.9008 53.8132 25.6304 54.2946 25.2224 54.5877V54.5893L23.5616 55.7667C23.2357 55.9933 22.8246 56.1012 22.3835 56.0367C17.8724 55.3779 13.8311 53.9492 11.1762 52.4072C10.295 51.8953 9.65764 50.5593 9.67718 49.5402L9.77683 44.3828Z" fill="#BA68C8"/>
<path opacity="0.2" d="M26.0888 48.2861L25.92 53.2493C25.9008 53.8132 25.6304 54.2946 25.2225 54.5877V54.5892L23.5617 55.7666C23.5167 55.7979 23.4671 55.8209 23.4191 55.8471V48.8703L25.757 47.1384C25.9751 47.4768 26.1029 47.8723 26.0888 48.2861Z" fill="black"/>
<path d="M11.3315 43.583C14.4038 45.488 18.1051 46.6255 22.6822 47.3465C23.6888 47.5051 24.4809 48.4328 24.4462 49.4512L24.2773 54.4143C24.2426 55.4331 23.3915 56.1845 22.3829 56.0372C17.8719 55.3784 13.8305 53.9501 11.1756 52.4077C10.2944 51.8958 9.65708 50.5598 9.67661 49.5407L9.77587 44.3829C9.7958 43.3645 10.4656 43.0461 11.3315 43.583Z" fill="#BA68C8"/>
<path opacity="0.3" d="M11.3315 43.583C14.4038 45.488 18.1051 46.6255 22.6822 47.3465C23.6888 47.5051 24.4809 48.4328 24.4462 49.4512L24.2773 54.4143C24.2426 55.4331 23.3915 56.1845 22.3829 56.0372C17.8719 55.3784 13.8305 53.9501 11.1756 52.4077C10.2944 51.8958 9.65708 50.5598 9.67661 49.5407L9.77587 44.3829C9.7958 43.3645 10.4656 43.0461 11.3315 43.583Z" fill="white"/>
<path d="M22.1052 54.9087C22.108 54.7528 22.106 54.5973 22.1138 54.4414C22.1201 54.3124 22.1318 54.1834 22.1349 54.0545C22.1486 53.464 22.1682 52.874 22.1924 52.2839C22.2162 51.7091 22.2451 51.1343 22.2787 50.5598C22.2975 50.2425 22.3213 49.9252 22.3463 49.6083C22.3725 49.2801 22.38 48.9206 22.4804 48.6072C22.5296 48.4532 22.8583 48.4153 22.8825 48.6048C22.954 49.175 22.8571 49.7951 22.825 50.3676C22.7938 50.9264 22.7613 51.4848 22.7363 52.044C22.7121 52.5879 22.6926 53.1319 22.6773 53.6762C22.6695 53.9482 22.6633 54.2206 22.6578 54.4925C22.6539 54.6852 22.7156 55.0052 22.5593 55.1502C22.4597 55.2428 22.3198 55.2655 22.201 55.1873C22.1279 55.1393 22.1045 55.0885 22.1037 54.9994C22.1037 54.9884 22.1037 54.9775 22.1041 54.9666C22.1048 54.9478 22.1052 54.9283 22.1052 54.9087ZM20.4714 54.5453C20.4742 54.3894 20.4722 54.2339 20.48 54.0779C20.4863 53.949 20.498 53.82 20.5011 53.6911C20.5152 53.1006 20.5343 52.5106 20.5586 51.9205C20.5824 51.3457 20.6113 50.7709 20.6453 50.1964C20.6641 49.8791 20.6879 49.5618 20.7133 49.2449C20.7395 48.9167 20.7465 48.5571 20.8473 48.2437C20.8966 48.0898 21.2256 48.0519 21.2495 48.2414C21.321 48.8115 21.2241 49.4317 21.192 50.0042C21.1608 50.563 21.1279 51.1214 21.1033 51.6806C21.0791 52.2245 21.0595 52.7685 21.0443 53.3128C21.0369 53.5848 21.0302 53.8572 21.0248 54.1291C21.0209 54.3218 21.0826 54.6418 20.9263 54.7868C20.8263 54.8794 20.6867 54.9021 20.5679 54.8239C20.4949 54.7759 20.4714 54.7251 20.4706 54.636C20.4706 54.625 20.4707 54.6141 20.471 54.6031C20.4707 54.5844 20.471 54.5648 20.4714 54.5453ZM18.7603 54.2046C18.7606 54.185 18.761 54.1659 18.7614 54.1463C18.7642 53.9904 18.7622 53.8349 18.77 53.679C18.7763 53.55 18.788 53.4211 18.7911 53.2921C18.8052 52.7017 18.8243 52.1116 18.8486 51.5215C18.8724 50.9467 18.9013 50.3719 18.9353 49.7974C18.9541 49.4801 18.9779 49.1628 19.0029 48.8459C19.0291 48.5177 19.0365 48.1582 19.137 47.8448C19.1862 47.6908 19.5152 47.6529 19.5391 47.8424C19.6106 48.4126 19.5137 49.0327 19.4816 49.6052C19.4503 50.164 19.4175 50.7224 19.3929 51.2816C19.3687 51.8255 19.3491 52.3695 19.3339 52.9138C19.3265 53.1858 19.3198 53.4582 19.3144 53.7302C19.3105 53.9228 19.3722 54.2429 19.2159 54.3878C19.1159 54.4804 18.9763 54.5031 18.8576 54.425C18.7845 54.3769 18.761 54.3261 18.7603 54.237C18.7599 54.2264 18.7603 54.2155 18.7603 54.2046Z" fill="#BA68C8"/>
<g opacity="0.2">
<path d="M19.0628 53.9136C19.0655 53.7577 19.0635 53.6021 19.0714 53.4462C19.0776 53.3173 19.0893 53.1883 19.0925 53.0594C19.1065 52.4689 19.1257 51.8788 19.1499 51.2888C19.1738 50.714 19.2027 50.1391 19.2367 49.5647C19.2554 49.2474 19.2793 48.9301 19.3047 48.6132C19.3281 48.3213 19.3398 48.0067 19.4121 47.7195C19.477 47.732 19.5297 47.7711 19.5387 47.843C19.6102 48.4131 19.5133 49.0332 19.4813 49.6057C19.45 50.1645 19.4172 50.7229 19.3926 51.2821C19.3684 51.8261 19.3488 52.37 19.3336 52.9144C19.3262 53.1863 19.3195 53.4587 19.314 53.7307C19.3113 53.8706 19.341 54.0765 19.2988 54.2352C19.2515 54.2328 19.2038 54.2219 19.1593 54.1922C19.0862 54.1441 19.0628 54.0937 19.062 54.0042C19.062 53.9933 19.062 53.9823 19.0624 53.9714C19.062 53.9523 19.0624 53.9327 19.0628 53.9136Z" fill="black"/>
<path d="M22.4069 54.676C22.4096 54.5201 22.4077 54.3646 22.4155 54.2087C22.4218 54.0797 22.4335 53.9508 22.4366 53.8218C22.4503 53.2313 22.4698 52.6413 22.4941 52.0512C22.5179 51.4764 22.5468 50.9016 22.5804 50.3271C22.5992 50.0098 22.623 49.6925 22.6484 49.3756C22.6719 49.0837 22.6836 48.7691 22.7559 48.4819C22.8207 48.4944 22.8735 48.5335 22.8825 48.6054C22.954 49.1755 22.8571 49.7957 22.825 50.3682C22.7938 50.927 22.7613 51.4854 22.7363 52.0446C22.7121 52.5885 22.6926 53.1325 22.6773 53.6768C22.6695 53.9488 22.6633 54.2212 22.6578 54.4931C22.655 54.633 22.6847 54.839 22.6425 54.9976C22.5953 54.9953 22.5476 54.9843 22.5026 54.9546C22.4296 54.9066 22.4061 54.8558 22.4053 54.7667C22.4053 54.7557 22.4053 54.7448 22.4057 54.7339C22.4061 54.7147 22.4065 54.6952 22.4069 54.676Z" fill="black"/>
<path d="M20.7722 54.3128C20.7749 54.1569 20.7729 54.0014 20.7807 53.8455C20.787 53.7165 20.7987 53.5876 20.8018 53.4586C20.8159 52.8682 20.8351 52.2781 20.8593 51.688C20.8831 51.1132 20.912 50.5384 20.946 49.9644C20.9648 49.6471 20.9886 49.3297 21.0136 49.0128C21.0371 48.7209 21.0488 48.4064 21.1211 48.1191C21.186 48.1316 21.2387 48.1707 21.2477 48.2426C21.3192 48.8128 21.2223 49.4329 21.1903 50.0054C21.159 50.5642 21.1262 51.1226 21.1016 51.6818C21.0773 52.2257 21.0578 52.7697 21.0426 53.314C21.0351 53.586 21.0285 53.8584 21.023 54.1304C21.0203 54.2702 21.05 54.4762 21.0078 54.6348C20.9605 54.6325 20.9128 54.6216 20.8683 54.5919C20.7952 54.5438 20.7718 54.493 20.771 54.4039C20.771 54.3929 20.771 54.382 20.7714 54.3711C20.7714 54.3515 20.7718 54.332 20.7722 54.3128Z" fill="black"/>
</g>
<path d="M14.9691 47.1972C14.7924 47.2992 14.6834 47.5176 14.6834 47.8287C14.6834 48.4504 15.1199 49.2069 15.6588 49.5176C15.928 49.6731 16.1719 49.688 16.3485 49.586C16.4556 49.5242 16.8631 49.289 16.9702 49.2269C17.1468 49.1249 17.2559 48.9064 17.2559 48.5954C17.2559 47.9733 16.8194 47.2171 16.2805 46.9061C16.0113 46.7506 15.7674 46.7361 15.5908 46.8377C15.4837 46.9002 15.0761 47.1355 14.9691 47.1972Z" fill="#263238"/>
<path d="M15.6594 49.5178C15.9286 49.6733 16.1725 49.6881 16.3491 49.5862C16.5257 49.4842 16.6348 49.2657 16.6348 48.9547C16.6348 48.3326 16.1983 47.5764 15.6594 47.2654C15.3902 47.1099 15.1463 47.095 14.9697 47.197C14.7931 47.299 14.684 47.5174 14.684 47.8285C14.684 48.4502 15.1209 49.2067 15.6594 49.5178Z" fill="#455A64"/>
<path d="M11.0023 45.7189C10.8257 45.8208 10.7166 46.0393 10.7166 46.3503C10.7166 46.9721 11.1531 47.7286 11.692 48.0392C11.9612 48.1948 12.2051 48.2096 12.3817 48.1076C12.4888 48.0459 12.8963 47.8103 13.0034 47.7485C13.18 47.6465 13.2891 47.4281 13.2891 47.117C13.2891 46.4949 12.8526 45.7388 12.3137 45.4277C12.0445 45.2722 11.8006 45.2574 11.624 45.3593C11.5169 45.4219 11.1094 45.6571 11.0023 45.7189Z" fill="#E0E0E0"/>
<path d="M11.6926 48.0393C11.9618 48.1948 12.2057 48.2096 12.3823 48.1076C12.5589 48.0057 12.668 47.7872 12.668 47.4762C12.668 46.8544 12.2315 46.0979 11.6926 45.7869C11.4234 45.6313 11.1795 45.6165 11.0029 45.7185C10.8263 45.8205 10.7172 46.0389 10.7172 46.35C10.7172 46.9721 11.1541 47.7282 11.6926 48.0393Z" fill="#F5F5F5"/>
<path d="M14.9691 51.1003C14.7924 51.2023 14.6834 51.4207 14.6834 51.7318C14.6834 52.3535 15.1199 53.11 15.6588 53.4207C15.928 53.5762 16.1719 53.591 16.3485 53.4891C16.4556 53.4273 16.8631 53.1921 16.9702 53.1299C17.1468 53.0279 17.2559 52.8095 17.2559 52.4985C17.2559 51.8763 16.8194 51.1202 16.2805 50.8092C16.0113 50.6536 15.7674 50.6392 15.5908 50.7408C15.4837 50.8033 15.0761 51.0385 14.9691 51.1003Z" fill="#263238"/>
<path d="M15.6594 53.4207C15.9286 53.5762 16.1725 53.5911 16.3491 53.4891C16.5257 53.3871 16.6348 53.1686 16.6348 52.8576C16.6348 52.2355 16.1983 51.4793 15.6594 51.1683C15.3902 51.0128 15.1463 50.9983 14.9697 51.0999C14.7931 51.2019 14.684 51.4203 14.684 51.7314C14.684 52.3535 15.1209 53.1096 15.6594 53.4207Z" fill="#455A64"/>
<path d="M11.0023 49.6234C10.8257 49.7254 10.7166 49.9438 10.7166 50.2549C10.7166 50.877 11.1531 51.6331 11.692 51.9438C11.9612 52.0993 12.2051 52.1142 12.3817 52.0122C12.4888 51.9504 12.8963 51.7148 13.0034 51.6531C13.18 51.5511 13.2891 51.3326 13.2891 51.0216C13.2891 50.3995 12.8526 49.6433 12.3137 49.3323C12.0445 49.1767 11.8006 49.1619 11.624 49.2639C11.5169 49.326 11.1094 49.5613 11.0023 49.6234Z" fill="#263238"/>
<path d="M11.6926 51.9438C11.9618 52.0993 12.2057 52.1142 12.3823 52.0122C12.5589 51.9102 12.668 51.6918 12.668 51.3807C12.668 50.7586 12.2315 50.0025 11.6926 49.6914C11.4234 49.5359 11.1795 49.521 11.0029 49.623C10.8263 49.725 10.7172 49.9434 10.7172 50.2545C10.7172 50.8766 11.1541 51.6327 11.6926 51.9438Z" fill="#455A64"/>
<path d="M25.5392 49.1101C27.2547 49.1738 29.2355 49.5087 29.2355 53.5539C29.2355 58.1424 35.3143 59.3487 40.8148 57.947C46.3149 56.5449 48.0476 54.2444 48.0476 54.2444C48.0394 53.4008 48.0566 52.6001 48.1117 51.8654C48.1117 51.8654 49.4368 52.1229 49.5985 54.6434C49.7603 57.1639 45.9624 59.3037 41.2255 60.5347C36.4886 61.7656 30.5934 60.6878 28.683 58.4628C27.1805 56.7129 26.9249 54.5469 26.8686 53.4457C26.8041 52.1862 26.8631 51.0585 25.5392 51.1742C24.8819 50.9667 24.8651 49.3571 25.5392 49.1101Z" fill="#455A64"/>
<path d="M36.6049 64.0749C36.914 64.2535 37.1055 64.6365 37.1055 65.1816C37.1055 66.2714 36.3403 67.5969 35.3962 68.1421C34.9242 68.4144 34.4971 68.4402 34.1876 68.2616C33.9996 68.1534 33.7867 68.0279 33.5987 67.9197C33.2892 67.7411 33.0981 67.3582 33.0981 66.813C33.0981 65.7228 33.8633 64.3977 34.8074 63.8526C35.2794 63.5798 35.7065 63.5544 36.016 63.733C36.2036 63.8412 36.4169 63.9667 36.6049 64.0749Z" fill="#BA68C8"/>
<path opacity="0.3" d="M36.6049 64.0749C36.914 64.2535 37.1055 64.6365 37.1055 65.1816C37.1055 66.2714 36.3403 67.5969 35.3962 68.1421C34.9242 68.4144 34.4971 68.4402 34.1876 68.2616C33.9996 68.1534 33.7867 68.0279 33.5987 67.9197C33.2892 67.7411 33.0981 67.3582 33.0981 66.813C33.0981 65.7228 33.8633 64.3977 34.8074 63.8526C35.2794 63.5798 35.7065 63.5544 36.016 63.733C36.2036 63.8412 36.4169 63.9667 36.6049 64.0749Z" fill="white"/>
<path d="M35.3962 68.1413C34.9242 68.4137 34.4971 68.4395 34.1876 68.2609C33.8781 68.0823 33.687 67.6994 33.687 67.1542C33.687 66.0644 34.4521 64.7389 35.3962 64.1938C35.8683 63.9214 36.2954 63.8956 36.6049 64.0742C36.9144 64.2528 37.1055 64.6357 37.1055 65.1808C37.1055 66.2711 36.34 67.5966 35.3962 68.1413Z" fill="#BA68C8"/>
<path d="M35.0291 65.9049C35.1561 65.6513 35.48 65.1632 35.8622 65.0729C36.7324 65.2124 38.9801 65.3484 42.2075 64.5931C46.7205 63.5368 48.3719 60.8299 48.3719 60.8299C48.2992 60.0234 48.2347 59.3434 48.1914 58.5752C48.1914 58.5752 49.5165 58.8327 49.6782 61.3532C49.84 63.8736 47.3102 65.6817 42.6291 67.11C41.0301 67.5977 37.3803 67.9486 34.9489 67.6665C34.7512 67.4105 34.7293 67.1909 34.7293 66.9224C34.7293 66.57 34.8716 66.2194 35.0291 65.9049Z" fill="#455A64"/>
<path d="M45.1003 32.0095C52.4807 34.0052 54.0153 35.891 56.694 39.7499C58.8964 42.9222 64.2128 50.9877 67.0807 56.4326C69.4628 60.9558 69.5331 62.8909 68.4273 64.7846C66.0131 68.9185 56.8144 76.9825 56.8144 76.9825C56.8144 76.9825 53.7773 77.2626 50.6996 74.9895C47.6219 72.7164 48.5949 70.7505 48.5949 70.7505L54.6093 62.3708C54.6093 62.3708 47.2382 52.7477 45.6294 50.7891C44.0202 48.8302 40.2477 38.7362 45.1003 32.0095Z" fill="#E6E6E6"/>
<path d="M48.865 70.6661C47.8243 71.6121 47.2644 71.8005 47.2644 71.8005C47.6458 72.1557 47.9896 72.7059 48.1104 73.3577C48.1104 73.3577 47.2015 76.993 41.7502 80.0672C41.0847 80.4428 40.313 80.6761 39.805 81.2466C39.6701 81.3982 39.5517 81.5764 39.5295 81.778C39.4947 82.0973 39.712 82.3966 39.9765 82.5795C40.236 82.7589 40.5494 82.8585 40.8643 82.8628C41.1742 82.8667 41.5662 82.8202 41.7131 83.093C41.7588 83.1782 41.7666 83.2778 41.7901 83.3716C41.8858 83.7604 42.241 84.0324 42.6076 84.1934C43.148 84.431 43.7631 84.4954 44.341 84.3751C44.4778 84.3466 44.6196 84.3079 44.7552 84.3419C44.8471 84.3645 44.9272 84.4188 45.0081 84.4673C45.6536 84.8538 46.4512 84.9186 47.1936 84.7987C48.0596 84.6588 48.9689 84.318 49.7665 83.9656C50.2678 83.744 50.7403 83.4634 51.1744 83.1285C52.4276 82.1622 53.3526 80.8156 54.1466 79.4654C54.2697 79.2556 54.3928 78.8781 54.5702 78.7179L59.0938 74.639C59.0938 74.639 58.9214 71.5172 56.3763 69.1991C53.8316 66.8815 51.845 66.7725 51.845 66.7725C51.845 66.7725 49.7164 69.6255 48.865 70.6661Z" fill="#455A64"/>
<path opacity="0.2" d="M54.6088 62.3703C56.794 59.4563 60.1347 58.4653 63.5488 58.722C60.5387 57.3637 56.3219 57.9839 53.6393 61.1061L54.6088 62.3703Z" fill="black"/>
<path d="M47.7131 71.5531L53.2058 64.1684C53.2058 64.1684 55.2839 63.0895 58.843 66.6302C62.4162 70.1851 61.3827 73.3284 61.3827 73.3284L54.4125 79.1138C53.9354 74.5648 51.9811 71.9627 47.7131 71.5531Z" fill="#F0F0F0"/>
<path d="M49.0279 69.7876L49.4194 69.2612C50.6277 69.5094 51.7953 70.0256 52.7671 70.7395C54.4693 71.9896 55.3521 73.9227 55.8034 75.9395C55.9363 76.5331 56.0207 77.1372 56.0645 77.7437L55.4713 78.236C55.4681 78.1587 55.4701 78.0813 55.4658 78.0039C55.4353 77.4549 55.3681 76.9078 55.2649 76.3674C55.066 75.3252 54.7343 74.2834 54.2403 73.3417C53.417 71.7723 51.9504 70.6946 50.2994 70.1147C49.8817 69.9693 49.4565 69.8689 49.0279 69.7876Z" fill="#BA68C8"/>
<path d="M57.2731 74.4383C57.0742 73.3961 56.7425 72.3543 56.2485 71.4125C55.4252 69.8432 53.9586 68.7655 52.3076 68.1856C51.7258 67.9812 51.1287 67.8616 50.5261 67.7709L50.9184 67.2434C52.3061 67.4376 53.6679 67.996 54.7761 68.8096C56.4783 70.0597 57.3611 71.9928 57.8124 74.0096C57.955 74.6462 58.0469 75.2937 58.0867 75.9447C58.0891 75.9818 58.0914 76.0205 58.0938 76.0584L57.4861 76.5625C57.483 76.3995 57.4834 76.2366 57.4744 76.074C57.4439 75.5254 57.3767 74.9783 57.2731 74.4383Z" fill="#BA68C8"/>
<path d="M59.4208 72.6693C59.2219 71.6272 58.8901 70.5854 58.3962 69.6436C57.5728 68.0743 56.1063 66.9965 54.4553 66.4166C53.6311 66.1275 52.7785 66.0016 51.918 65.8996L52.2877 65.4026C53.9363 65.4647 55.608 66.0747 56.9234 67.0407C58.6256 68.2908 59.5083 70.2239 59.9597 72.2407C60.1019 72.8772 60.1937 73.5247 60.234 74.1758C60.2359 74.209 60.2383 74.2434 60.2402 74.277L59.6334 74.7807C59.6302 74.622 59.6306 74.4634 59.622 74.3051C59.5916 73.7565 59.524 73.2094 59.4208 72.6693Z" fill="#BA68C8"/>
<path opacity="0.2" d="M56.414 39.3403C53.6333 41.8909 50.1351 43.527 50.1351 43.527L52.3918 46.7431C52.3918 46.7431 56.0545 45.3629 58.5957 42.5552L56.414 39.3403Z" fill="black"/>
<path d="M60.8415 45.2184C60.8603 45.2391 60.8787 45.2602 60.897 45.2813C61.5336 46.0136 61.9892 46.9237 62.0783 47.8901C62.1303 48.454 62.0471 49.0182 61.5578 49.3656C60.7102 49.9674 59.4348 49.4981 58.7236 48.8865C57.9221 48.1972 57.4329 47.0636 57.3313 46.0288C57.2934 45.6435 57.3074 45.2414 57.4676 44.889C57.7674 44.2301 58.5739 44.0379 59.2339 44.1817C59.8677 44.32 60.407 44.735 60.8415 45.2184Z" fill="#BA68C8"/>
<path d="M16.0595 26.8389C20.3646 18.0676 41.12 18.2181 44.8522 27.298C45.1078 27.9201 45.2582 28.5821 45.3083 29.253C45.3524 29.8435 45.3512 30.4683 45.3149 31.033C45.2688 31.7481 45.1222 32.455 44.8491 33.1174C41.0473 42.3407 19.6597 42.3434 15.8555 33.1178C15.5824 32.455 15.4359 31.7477 15.3897 31.0322C15.3597 30.5637 15.3538 30.0537 15.3776 29.5563C15.4237 28.6137 15.6437 27.6861 16.0595 26.8389Z" fill="#455A64"/>
<path d="M37.1348 39.0853C31.1955 40.6652 27.1439 40.4612 24.1389 40.4409C18.7881 40.405 17.7913 40.0228 16.8495 38.1033C15.8147 35.9939 15.7315 33.7158 15.4396 31.5181C17.3399 35.502 25.3288 41.5526 37.1348 39.0853Z" fill="#455A64"/>
<path d="M37.8643 36.6867C37.8568 37.3311 37.9745 37.6801 38.078 37.9884C38.1577 38.2252 38.2277 38.4382 38.2128 38.7238C38.1538 38.7453 38.094 38.7656 38.0347 38.7867C38.0659 38.498 38.0003 38.301 37.9139 38.0435C37.8111 37.7383 37.6834 37.3585 37.6912 36.6848C37.6998 35.9497 37.545 35.348 36.7639 34.8013L36.8635 34.6594C37.7068 35.2495 37.8733 35.8966 37.8643 36.6867Z" fill="#37474F"/>
<path d="M30.3529 37.3514C34.0402 37.3514 37.7275 36.5409 40.5348 34.9204C43.2709 33.3409 44.7773 31.2354 44.7773 28.992C44.7773 26.7486 43.2705 24.6431 40.5348 23.0636C34.9206 19.8222 25.7859 19.8222 20.1717 23.0636C17.4356 24.6431 15.9292 26.7486 15.9292 28.992C15.9292 31.235 17.436 33.3405 20.1717 34.9204C22.9782 36.5409 26.6659 37.3514 30.3529 37.3514ZM30.3532 20.8034C34.0089 20.8034 37.6646 21.6069 40.448 23.2133C43.1279 24.7608 44.6042 26.8127 44.6042 28.9916C44.6042 31.1706 43.1283 33.2225 40.448 34.7699C34.8819 37.9836 25.8246 37.9836 20.2581 34.7699C17.5782 33.2225 16.1019 31.1702 16.1019 28.9916C16.1019 26.8127 17.5778 24.7608 20.2581 23.2133C23.0412 21.6069 26.6972 20.8034 30.3532 20.8034Z" fill="#37474F"/>
<path d="M16.5429 26.3015V28.2311C16.5429 30.271 17.891 32.3104 20.5877 33.8668C25.9792 36.9809 34.7219 36.9809 40.1133 33.8668C42.8097 32.3108 44.1582 30.271 44.1582 28.2311V26.3015C44.1582 28.3413 42.81 30.3827 40.1133 31.9388C34.7219 35.0512 25.9792 35.0512 20.5877 31.9388C17.891 30.3827 16.5429 28.3429 16.5429 26.3015Z" fill="#F0F0F0"/>
<path d="M26.125 35.8218C25.4032 35.6882 24.6963 35.5193 24.0133 35.3158V33.3857C24.6963 33.5893 25.4032 33.757 26.125 33.8906V35.8218Z" fill="#FAFAFA"/>
<path d="M17.1529 28.6448C17.793 29.8503 18.9364 30.9855 20.5881 31.939C20.7167 32.0132 20.8484 32.0839 20.9805 32.1543V34.0847C20.8484 34.014 20.7163 33.9409 20.5881 33.8666C18.9364 32.9132 17.7926 31.778 17.1529 30.5728V28.6448Z" fill="#E0E0E0"/>
<path d="M30.1026 34.2697C33.7184 34.3068 37.3545 33.5315 40.1133 31.9388C42.8097 30.3827 44.1582 28.3409 44.1582 26.3015V28.2311C44.1582 30.271 42.81 32.3104 40.1133 33.8668C37.3545 35.4604 33.7184 36.2384 30.1026 36.2013V34.2697Z" fill="#E0E0E0"/>
<path d="M39.8633 34.0077C38.1208 34.9659 36.0525 35.6095 33.8697 35.9405V34.0093C36.0525 33.6783 38.1204 33.0339 39.8633 32.0762V34.0077Z" fill="#F5F5F5"/>
<path d="M16.2716 25.5865C16.2716 23.5064 17.6463 21.426 20.3954 19.8387C25.8935 16.6645 34.8078 16.6645 40.3059 19.8387C43.055 21.426 44.4297 23.5061 44.4297 25.5865C44.4297 25.7116 44.4297 26.2106 44.4297 26.3356C44.4297 28.4157 43.055 30.4961 40.3059 32.0835C34.8078 35.2577 25.8935 35.2581 20.3954 32.0835C17.6463 30.4961 16.2716 28.4161 16.2716 26.336C16.2716 26.2106 16.2716 25.7112 16.2716 25.5865Z" fill="#37474F"/>
<path d="M40.3063 31.3336C34.8081 34.5078 25.8939 34.5078 20.3958 31.3336C17.6467 29.7463 16.272 27.6662 16.272 25.5858C16.272 23.5057 17.6467 21.4253 20.3958 19.8379C25.8939 16.6637 34.8081 16.6637 40.3063 19.8379C43.0553 21.4253 44.4297 23.5053 44.4297 25.5858C44.4297 27.6662 43.055 29.7463 40.3063 31.3336Z" fill="#455A64"/>
<path d="M35.229 34.2463C36.3787 34.0372 37.4709 33.6957 38.4349 33.2217C38.5408 33.1697 38.6354 33.1677 38.7041 33.2076C38.7588 33.2393 38.962 33.358 39.0168 33.3893C39.0875 33.4299 39.1309 33.5151 39.1309 33.6359V33.6499C39.1309 33.8891 38.9613 34.1775 38.7467 34.283C37.7827 34.7574 36.6905 35.0993 35.5409 35.3084C35.449 35.3252 35.3642 35.3095 35.2947 35.2705C35.2384 35.2388 35.0313 35.1169 34.9781 35.0868C34.8715 35.0258 34.8019 34.9094 34.8019 34.7656V34.7507C34.8015 34.5116 34.9934 34.2892 35.229 34.2463Z" fill="#37474F"/>
<path d="M38.7463 34.2834C37.7823 34.7578 36.6901 35.0997 35.5405 35.3088C35.3052 35.3517 35.113 35.1861 35.113 34.9469V34.9321C35.113 34.6929 35.3048 34.4706 35.5405 34.4276C36.6901 34.2185 37.7823 33.877 38.7463 33.403C38.9609 33.2975 39.1309 33.3971 39.1309 33.6363V33.6503C39.1309 33.8895 38.9613 34.1779 38.7463 34.2834Z" fill="#455A64"/>
<path d="M17.3888 23.4507C17.3888 23.4522 17.3888 23.4542 17.3888 23.4542C17.3888 25.369 18.6557 27.2822 21.184 28.7433C26.246 31.665 34.4534 31.665 39.5154 28.7433C42.0456 27.2806 43.3125 25.3658 43.3125 23.4507C43.3125 21.5355 42.0476 19.6207 39.5154 18.16C34.4534 15.2367 26.246 15.2367 21.184 18.16C18.6541 19.6207 17.3888 21.5359 17.3888 23.4507Z" fill="#263238"/>
<path d="M17.3888 23.4507C17.3888 23.4522 17.3888 23.4542 17.3888 23.4542C17.3888 25.369 18.6557 27.2822 21.184 28.7433C26.246 31.665 34.4534 31.665 39.5154 28.7433C42.0456 27.2806 43.3125 25.3658 43.3125 23.4507C43.3125 21.5355 42.0476 19.6207 39.5154 18.16C34.4534 15.2367 26.246 15.2367 21.184 18.16C18.6541 19.6207 17.3888 21.5359 17.3888 23.4507Z" fill="#455A64"/>
<path d="M16.9296 24.2307C16.9214 24.2182 16.9108 24.2033 16.9038 24.1924C17.0233 24.4081 17.1503 24.6203 17.2812 24.8321C17.1578 24.6359 17.0448 24.4323 16.9296 24.2307Z" fill="#455A64"/>
<path d="M14.9047 16.6023C14.9047 19.3463 15.6222 21.9258 16.8805 24.1586C16.8949 24.184 16.9184 24.2231 16.9328 24.2489C17.2216 24.685 18.3689 26.0816 21.5779 27.1898C25.4231 28.5153 30.2237 27.9335 30.2237 27.9335L32.5507 24.3196L38.2337 21.9465C38.0832 21.5612 38.0024 21.0872 38.0024 20.544C38.0024 19.3498 38.3994 18.0513 39.0234 16.961C38.2528 15.6355 37.093 11.1663 28.7481 7.12496C24.7142 5.1715 19.5244 6.14647 18.1567 7.12496H18.1528C16.1185 9.74077 14.9047 13.0311 14.9047 16.6023Z" fill="#455A64"/>
<path d="M18.1914 7.07397C18.1799 7.08893 18.1688 7.1081 18.1573 7.12305H18.1535C18.165 7.1081 18.1799 7.08893 18.1914 7.07397Z" fill="#F0F0F0"/>
<path d="M16.8797 24.1579C17.081 24.4861 18.1677 26.0113 21.5787 27.1879C25.422 28.5138 30.2206 27.9316 30.2206 27.9316L32.5492 24.3185L38.2326 21.9465C38.0837 21.5593 38.0012 21.0872 38.0012 20.5421C38.0012 19.3479 38.3975 18.0509 39.0219 16.9611C38.2537 15.6348 37.0939 11.1644 28.7478 7.12502C24.7072 5.16961 19.5162 6.14379 18.1525 7.12502C20.9766 3.49516 25.386 1.15874 30.341 1.15601C38.6905 1.15171 45.5994 7.89327 45.7889 16.2409C45.8608 19.4022 44.9815 22.3537 43.4185 24.8304C43.3489 24.941 43.3106 25.068 43.3106 25.1985C43.3106 27.1133 42.0437 29.0285 39.5135 30.4911C34.4515 33.4129 26.2441 33.4129 21.1821 30.4911C18.6519 29.0285 17.3869 27.1137 17.3869 25.1985C17.3873 25.068 17.3494 24.9406 17.2799 24.83C17.1415 24.6096 17.0075 24.3857 16.8797 24.1579Z" fill="#F0F0F0"/>
<path d="M30.3425 1.54653C26.2304 1.54849 22.3849 3.18933 19.5624 6.099C20.5635 5.81178 21.8812 5.6039 23.3814 5.6039C24.8057 5.6039 26.9229 5.80671 28.9193 6.77308C36.3123 10.351 38.1579 14.2548 39.0446 16.1308C39.1657 16.3868 39.2701 16.608 39.3611 16.7651L39.474 16.9597L39.3623 17.1551C38.7464 18.2301 38.3932 19.4645 38.3932 20.5419C38.3932 21.0264 38.4623 21.452 38.5983 21.806L38.7347 22.1604L38.3842 22.3066L32.813 24.6317L30.5504 28.1427L30.4512 28.2967L30.2691 28.319C30.2253 28.3244 29.1792 28.4491 27.6622 28.4491C26.0093 28.4491 23.59 28.2943 21.4521 27.557C19.7237 26.9606 18.5675 26.2756 17.809 25.6832C18.0122 27.3561 19.2619 28.9274 21.3794 30.1517C23.769 31.5311 26.9549 32.2907 30.3499 32.2907C33.745 32.2907 36.9305 31.5311 39.3201 30.1517C41.6428 28.809 42.9218 27.0497 42.9218 25.1975C42.9218 24.9943 42.98 24.795 43.0898 24.6207C44.6685 22.119 45.4677 19.2238 45.4001 16.2485C45.216 8.14116 38.4647 1.54536 30.3507 1.54536H30.3425M30.3507 1.15576C38.6968 1.15537 45.6013 7.89576 45.7908 16.2407C45.8627 19.402 44.9835 22.3535 43.4204 24.8302C43.3509 24.9404 43.3126 25.0678 43.3126 25.1983C43.3126 27.113 42.0457 29.0282 39.5155 30.4909C36.9844 31.9516 33.6672 32.6823 30.3499 32.6823C27.0327 32.6823 23.7151 31.9519 21.184 30.4909C18.6538 29.0282 17.3889 27.1134 17.3889 25.1983C17.3893 25.0678 17.3514 24.9404 17.2818 24.8298C17.1427 24.6094 17.0087 24.3855 16.8809 24.158C17.0821 24.4863 18.1689 26.0115 21.5799 27.1881C23.626 27.8938 25.9428 28.0591 27.6622 28.0591C29.1726 28.0591 30.2218 27.9317 30.2218 27.9317L32.5504 24.3186L38.2337 21.9467C38.0848 21.5594 38.0024 21.0874 38.0024 20.5422C38.0024 19.3481 38.3986 18.0511 39.0231 16.9612C38.2548 15.635 37.095 11.1646 28.749 7.12516C27.0401 6.29829 25.125 5.99506 23.3814 5.99506C21.002 5.99506 18.9406 6.55894 18.1536 7.12516C20.9777 3.4953 25.3872 1.15889 30.3421 1.15615C30.3449 1.15576 30.348 1.15576 30.3507 1.15576Z" fill="#E0E0E0"/>
<path d="M43.8575 24.3203L44.6445 22.7087C44.6445 22.7087 43.4132 23.9225 42.8954 24.3234C42.3777 24.7243 41.7751 25.4215 41.3664 26.092C40.9576 26.7626 40.5164 27.5246 40.5164 27.5246C40.5164 27.5246 42.6192 25.8986 43.8575 24.3203Z" fill="#455A64"/>
<path d="M45.8496 20.9641C45.6531 21.8199 45.6538 21.925 44.9137 22.6577C44.3873 23.179 44.0306 23.4705 43.09 24.3204C42.5515 24.8069 42.1095 25.238 41.7043 25.8397C41.4331 26.2422 40.8896 26.9671 40.7848 27.1426C40.7848 27.1426 42.1068 26.2758 43.8547 24.3204L44.0091 24.0047C44.1998 24.1297 44.1552 24.4678 43.4175 25.1348C43.4175 25.1348 43.0036 25.7706 41.6856 26.9058C40.6219 27.8217 39.9931 28.3461 39.7684 28.1246C39.5438 27.903 39.7684 27.4568 40.7239 26.0926C41.6789 24.7284 42.0259 24.1383 42.0259 24.1383L45.8496 20.9641Z" fill="#37474F"/>
<path d="M46.6358 14.8245C47.0141 16.3731 46.6049 19.9451 46.2618 20.6399C46.2618 20.6399 45.4858 21.9064 43.0915 23.979C42.5241 24.4702 42.0638 24.8962 41.6422 25.5171C41.2709 26.0634 40.8719 26.6722 40.5163 27.1239C39.9552 27.8363 40.1424 27.9555 40.7321 27.5464C41.8715 26.7547 42.9684 25.6761 43.4202 25.1349L43.2556 25.9032C43.2556 25.9032 41.2463 28.3924 39.1053 29.4533C36.9643 30.5143 37.1737 29.138 38.0947 27.9559C38.6571 27.2341 39.7258 25.9184 40.473 25.0028C41.0158 24.3378 41.6332 23.7387 42.3139 23.2159L42.4612 23.1025C43.9395 21.9673 44.8937 20.2808 45.1052 18.4289L45.3396 16.3746L46.6358 14.8245Z" fill="#F0F0F0"/>
<path d="M17.8515 25.2122C18.4251 26.4236 19.5357 27.5674 21.1839 28.5205C25.6012 31.0699 32.4154 31.3954 37.4411 29.4927C38.1758 29.2172 38.871 28.8933 39.5153 28.5205C40.4927 27.9554 41.2828 27.3212 41.8826 26.6471C42.5587 26.0665 43.1268 25.4862 43.4199 25.1345L43.3941 25.2591C43.3648 25.3893 43.3336 25.5276 43.3058 25.6628L43.2624 25.8742C43.2554 25.907 43.2484 25.9402 43.2433 25.9731C43.1186 26.6698 42.824 27.356 42.3629 28.0145C41.7302 28.9156 40.7807 29.7596 39.5157 30.4908C34.4537 33.4125 26.2464 33.4125 21.1843 30.4908C18.6541 29.0281 17.3892 27.1133 17.3892 25.1982C17.3892 25.068 17.3528 24.9399 17.2817 24.8309C17.15 24.621 17.0234 24.408 16.9023 24.1931C17.0125 24.3651 17.2915 24.7445 17.8515 25.2122Z" fill="#E0E0E0"/>
<path d="M44.4725 17.6997C45.4451 17.1713 46.3201 16.3624 46.5991 15.6059C46.8625 14.8916 46.4717 14.0592 45.5549 13.8838C45.5549 13.8838 45.7027 14.7138 45.7409 15.323C45.7409 15.323 44.8777 16.3331 44.0876 16.8548C44.2662 17.0729 44.3897 17.3609 44.4725 17.6997Z" fill="#FAFAFA"/>
<path d="M18.1542 7.12573C16.627 9.45746 19.1873 13.4171 21.709 14.8227C20.4949 15.5093 19.8798 17.7191 20.4953 19.0942L18.5351 20.2603L16.8802 24.159C15.6239 21.9246 14.9061 19.3467 14.9061 16.6007C14.9061 13.0295 16.119 9.74155 18.1542 7.12573Z" fill="#37474F"/>
<path d="M40.3492 23.3682C40.6266 23.3682 40.9209 23.2807 41.2229 23.1064C42.5605 22.3343 43.6484 20.0373 43.6484 17.9858C43.6484 16.7904 43.2866 15.8963 42.6559 15.5321C42.217 15.2789 41.6973 15.311 41.1534 15.6251C39.8162 16.3973 38.7279 18.6942 38.7279 20.7458C38.7279 21.9412 39.0897 22.8352 39.7204 23.1994C39.9158 23.3124 40.1272 23.3682 40.3492 23.3682ZM42.0275 15.5036C42.226 15.5036 42.4136 15.5532 42.5863 15.6529C43.1639 15.9866 43.5089 16.8584 43.5089 17.9858C43.5089 19.9928 42.4523 22.2358 41.1534 22.9857C40.6551 23.2729 40.1835 23.3061 39.7904 23.0787C39.2124 22.745 38.8678 21.8732 38.8678 20.7458C38.8678 18.7388 39.9244 16.4958 41.2229 15.7459C41.5031 15.5845 41.7739 15.5036 42.0275 15.5036Z" fill="#E0E0E0"/>
<path d="M22.2015 3.48224C25.0534 2.77651 30.2311 2.67061 36.1856 8.05034L38.4783 8.19454C38.4783 8.19454 41.6912 11.9342 42.3105 15.4672C41.4919 15.23 39.9394 16.144 39.1062 18.7613C38.2731 21.3787 39.3516 22.7804 39.3516 22.7804L33.12 25.2641L30.8137 29.0484C30.8137 29.0484 25.6555 29.8983 21.5142 28.311C19.3751 27.4911 18.1371 26.5564 17.4388 25.8441C17.4068 25.6295 17.3884 25.415 17.3884 25.2001C17.3884 25.1856 17.3865 25.1715 17.3853 25.1571C18.1555 25.873 19.5341 26.9304 21.588 27.7029C24.9854 28.9812 30.4905 28.4603 30.4905 28.4603L32.7969 24.6413L38.674 22.3349C38.674 22.3349 38.2555 21.0794 38.4771 19.5745C38.6987 18.0697 39.5916 16.7551 39.5916 16.7551C39.5916 16.7551 37.7495 10.5356 29.4984 6.82137C24.6036 4.61782 21.0194 5.29307 18.7362 6.42279C19.7385 5.28096 20.9061 4.28879 22.2015 3.48224Z" fill="#E0E0E0"/>
<path opacity="0.2" d="M39.9661 16.4853C38.0923 12.3099 34.9134 9.07161 30.1022 6.73872C26.0781 4.7876 22.4928 4.59691 19.2209 5.897C19.9735 5.11507 20.8062 4.41129 21.7081 3.8013C21.7214 3.79778 25.9171 2.69347 30.2769 4.58401C34.6434 6.47768 36.0462 8.44716 36.0462 8.44716L38.4764 8.55853C38.4764 8.55853 41.4568 12.4635 41.9551 15.2141C41.6956 15.2071 41.1872 15.4111 41.1872 15.4111L41.0708 15.1539C40.8304 15.2485 40.6155 15.3829 40.4244 15.5541L40.5717 15.8761C40.5717 15.8761 40.2482 16.1371 39.9661 16.4853Z" fill="black"/>
<path d="M43.548 16.4502C44.0295 16.6331 44.3898 17.1336 44.5156 17.9093C44.7669 19.4603 43.9837 21.5228 42.7665 22.5161C42.1577 23.0128 41.5559 23.148 41.0745 22.9655C40.7822 22.8545 40.6595 22.808 40.3672 22.697C39.8857 22.5141 39.5255 22.0132 39.3996 21.2379C39.1484 19.6869 39.9315 17.6244 41.1487 16.6311C41.7575 16.1344 42.3597 15.9992 42.8407 16.1821C43.133 16.2923 43.2557 16.3392 43.548 16.4502Z" fill="#BA68C8"/>
<path opacity="0.2" d="M43.548 16.4502C44.0295 16.6331 44.3898 17.1336 44.5156 17.9093C44.7669 19.4603 43.9837 21.5228 42.7665 22.5161C42.1577 23.0128 41.5559 23.148 41.0745 22.9655C40.7822 22.8545 40.6595 22.808 40.3672 22.697C39.8857 22.5141 39.5255 22.0132 39.3996 21.2379C39.1484 19.6869 39.9315 17.6244 41.1487 16.6311C41.7575 16.1344 42.3597 15.9992 42.8407 16.1821C43.133 16.2923 43.2557 16.3392 43.548 16.4502Z" fill="black"/>
<path d="M42.7664 22.5163C42.1576 23.013 41.5558 23.1482 41.0743 22.9653C40.5929 22.7825 40.2326 22.2819 40.1068 21.5062C39.8555 19.9552 40.6386 17.8927 41.8559 16.8994C42.4647 16.4027 43.0665 16.2675 43.5479 16.4504C44.0293 16.6333 44.3896 17.1339 44.5155 17.9096C44.7671 19.4605 43.984 21.523 42.7664 22.5163Z" fill="#BA68C8"/>
<path d="M42.7664 22.5163C42.1576 23.013 41.5558 23.1482 41.0743 22.9653C40.5929 22.7825 40.2326 22.2819 40.1068 21.5062C39.8555 19.9552 40.6386 17.8927 41.8559 16.8994C42.4647 16.4027 43.0665 16.2675 43.5479 16.4504C44.0293 16.6333 44.3896 17.1339 44.5155 17.9096C44.7671 19.4605 43.984 21.523 42.7664 22.5163Z" fill="#BA68C8"/>
<path opacity="0.3" d="M41.8552 16.8997C42.0251 16.761 42.1932 16.652 42.3593 16.5687C42.3921 16.5531 42.4253 16.5375 42.4562 16.5238C42.489 16.5082 42.5222 16.496 42.5531 16.4839C42.761 16.4027 42.9622 16.3679 43.151 16.3749H43.156L42.9724 17.3452L42.8997 17.7352C42.9501 17.7422 42.9985 17.7543 43.0454 17.7715C43.3315 17.8805 43.5464 18.1787 43.6207 18.6398C43.7695 19.5616 43.3053 20.7871 42.5808 21.3779C42.2186 21.6726 41.8618 21.7523 41.5758 21.6448C41.4718 21.605 41.3765 21.5389 41.2952 21.4506V21.4522L41.0439 21.7296L40.4288 22.4123C40.3319 22.258 40.2487 22.0762 40.1877 21.8699C40.1772 21.8351 40.1686 21.7988 40.16 21.764C40.1494 21.7277 40.1408 21.6913 40.1338 21.653C40.1233 21.6046 40.1147 21.5561 40.1061 21.5057C39.8552 19.9548 40.6387 17.8927 41.8552 16.8997ZM40.9884 20.6843L41.4194 20.1943C41.5058 20.0939 41.5308 20.2478 41.5449 20.3326C41.5898 20.6011 41.7149 20.7746 41.8809 20.8387C42.049 20.9028 42.2569 20.8543 42.4683 20.6828C42.8911 20.3381 43.1631 19.6222 43.0767 19.0833C43.0318 18.8149 42.9067 18.6414 42.7406 18.5773C42.6695 18.5617 42.6004 18.5546 42.5308 18.5546C42.4112 18.5683 42.2831 18.6273 42.1529 18.7332C42.0783 18.7938 41.9568 18.845 42.0345 18.4288C42.1107 18.0208 42.1857 17.5722 42.1857 17.5722C42.1197 17.6121 42.0525 17.6605 41.9865 17.7145C41.1287 18.4147 40.5742 19.8668 40.7422 20.9637L40.9884 20.6843Z" fill="white"/>
<path opacity="0.3" d="M42.6918 17.164C42.6387 17.2073 42.5863 17.2191 42.5445 17.203C42.5027 17.187 42.4714 17.1436 42.4605 17.076C42.4386 16.9412 42.5066 16.7619 42.6125 16.6755C42.6652 16.6325 42.7176 16.6204 42.7594 16.6364C42.8012 16.6524 42.8325 16.6958 42.8434 16.7634C42.8657 16.8982 42.7977 17.0776 42.6918 17.164Z" fill="white"/>
<path opacity="0.3" d="M41.3341 18.2019C41.2814 18.2449 41.229 18.257 41.1868 18.2409C41.145 18.2249 41.1137 18.1815 41.1028 18.1139C41.0809 17.9791 41.1489 17.7998 41.2548 17.7134C41.3076 17.67 41.3599 17.6583 41.4021 17.6743C41.4439 17.6903 41.4752 17.7337 41.4861 17.8013C41.508 17.9361 41.44 18.1155 41.3341 18.2019Z" fill="white"/>
<path opacity="0.3" d="M40.4985 20.152C40.4457 20.195 40.3933 20.2071 40.3511 20.1911C40.3093 20.1751 40.2781 20.1317 40.2671 20.0641C40.2452 19.9293 40.3132 19.7499 40.4191 19.6635C40.4719 19.6205 40.5242 19.6084 40.5661 19.6245C40.6079 19.6405 40.6391 19.6839 40.6501 19.7515C40.6723 19.8863 40.6044 20.0656 40.4985 20.152Z" fill="white"/>
<path opacity="0.3" d="M40.5565 21.8605C40.5038 21.9035 40.4514 21.9156 40.4096 21.8996C40.3678 21.8835 40.3365 21.8402 40.3256 21.7726C40.3037 21.6378 40.3717 21.4584 40.4776 21.372C40.5303 21.329 40.5827 21.3169 40.6249 21.333C40.6667 21.349 40.698 21.3923 40.7089 21.46C40.7304 21.5948 40.6624 21.7741 40.5565 21.8605Z" fill="white"/>
<path d="M38.4662 24.804C39.1168 24.7411 40.0324 26.1619 39.0484 27.2264L38.4662 24.804Z" fill="#E0E0E0"/>
<path d="M38.9852 27.3954L39.1071 27.3086C39.9043 26.7396 41.2622 24.8893 41.0953 24.2571C41.0531 24.0969 40.9683 23.9871 40.8433 23.9296C40.4826 23.7647 39.8054 24.0379 38.4221 24.7131L38.3494 24.7487L38.9852 27.3954ZM40.6026 24.0851C40.6647 24.0851 40.7174 24.0941 40.7593 24.1133C40.8026 24.1332 40.8652 24.175 40.9003 24.3087C41.0203 24.7616 39.9535 26.3735 39.111 27.0523L38.5838 24.8593C39.458 24.4333 40.2161 24.0851 40.6026 24.0851Z" fill="#E0E0E0"/>
<path d="M40.3217 24.5001C40.3303 24.5908 40.4112 24.6568 40.5015 24.6483C40.5921 24.6397 40.6586 24.5588 40.6496 24.4685C40.641 24.3778 40.5601 24.3114 40.4698 24.3204C40.3792 24.329 40.3127 24.4095 40.3217 24.5001Z" fill="#E0E0E0"/>
<path d="M35.4717 26.405C36.3889 26.0939 37.2662 25.7289 38.0813 25.3006C38.2513 25.2116 38.4052 25.2041 38.519 25.2659C38.6092 25.3151 38.9453 25.4996 39.0356 25.5484C39.1524 25.6117 39.2266 25.7481 39.2317 25.9446L39.2321 25.9677C39.2427 26.3569 38.9789 26.8336 38.6342 27.0146C37.6565 27.5284 36.5917 27.9563 35.4717 28.3014V26.405Z" fill="#37474F"/>
<path d="M35.4717 26.8564C36.5776 26.5137 37.6292 26.0901 38.5959 25.5825C38.9406 25.4012 39.2212 25.5563 39.2317 25.9455L39.2321 25.9682C39.2427 26.3578 38.9789 26.8341 38.6342 27.0151C37.6565 27.5289 36.5917 27.9568 35.4717 28.3019V26.8564Z" fill="#455A64"/>
<path d="M38.9727 26.084C38.9727 26.3267 38.8249 26.6088 38.6432 26.7135C38.4611 26.8187 38.3138 26.7069 38.3138 26.4642C38.3138 26.2216 38.4615 25.9394 38.6432 25.8343C38.8249 25.73 38.9727 25.8413 38.9727 26.084Z" fill="#37474F"/>
<path d="M35.6535 26.5571L35.834 28.5239L34.0786 28.239L33.904 26.3184L35.6535 26.5571Z" fill="#F0F0F0"/>
<path d="M35.916 28.6125L35.7218 26.4921L33.8215 26.2327L34.0098 28.3034L35.916 28.6125ZM35.5846 26.623L35.7511 28.4358L34.1466 28.1756L33.9856 26.4046L35.5846 26.623Z" fill="#E0E0E0"/>
<path d="M33.8208 26.2323L35.0587 25.8579L35.7207 26.4917L33.8208 26.2323Z" fill="#E0E0E0"/>
<path d="M35.8943 28.3538L36.502 28.1517L36.4441 27.8293L35.8634 28.0146L35.8943 28.3538Z" fill="#BA68C8"/>
<path d="M35.7693 27.0272L36.377 26.8248L36.3191 26.5024L35.738 26.6877L35.7693 27.0272Z" fill="#BA68C8"/>
<path d="M37.6652 25.3534C37.7836 25.3116 38.3217 25.0518 38.4761 24.9771C38.5069 24.9623 38.5413 24.9588 38.5742 24.9689C38.6285 24.9861 38.7082 25.0283 38.7492 25.1299C38.7883 25.2268 38.7852 25.3011 38.7734 25.3488C38.7645 25.3859 38.7398 25.4164 38.7062 25.4351C38.6078 25.4898 38.3319 25.6348 37.8579 25.8173C37.8551 25.8185 37.8524 25.8196 37.8497 25.8204C37.845 25.8224 37.8411 25.8239 37.8364 25.8259L37.836 25.8247C37.811 25.8329 37.7848 25.8384 37.7571 25.8384C37.6183 25.8384 37.5058 25.7258 37.5058 25.5871C37.5058 25.4808 37.5718 25.3902 37.6652 25.3534Z" fill="#BA68C8"/>
<path opacity="0.3" d="M37.6652 25.3534C37.7836 25.3116 38.3217 25.0518 38.4761 24.9771C38.5069 24.9623 38.5413 24.9588 38.5742 24.9689C38.6285 24.9861 38.7082 25.0283 38.7492 25.1299C38.7883 25.2268 38.7852 25.3011 38.7734 25.3488C38.7645 25.3859 38.7398 25.4164 38.7062 25.4351C38.6078 25.4898 38.3319 25.6348 37.8579 25.8173C37.8551 25.8185 37.8524 25.8196 37.8497 25.8204C37.845 25.8224 37.8411 25.8239 37.8364 25.8259L37.836 25.8247C37.811 25.8329 37.7848 25.8384 37.7571 25.8384C37.6183 25.8384 37.5058 25.7258 37.5058 25.5871C37.5058 25.4808 37.5718 25.3902 37.6652 25.3534Z" fill="white"/>
<path d="M37.8493 25.8207C37.8446 25.8227 37.8407 25.8242 37.836 25.8262L37.8356 25.825C37.8106 25.8332 37.7844 25.8387 37.7567 25.8387C37.6359 25.8387 37.5355 25.7535 37.5113 25.6402C37.5589 25.7469 37.6805 25.7617 37.8403 25.7086C38.0001 25.6554 38.3397 25.4917 38.5323 25.3811C38.7238 25.2713 38.7164 25.1169 38.6359 24.9985C38.6785 25.0235 38.7223 25.0634 38.7492 25.1302C38.7883 25.2271 38.7852 25.3014 38.7734 25.3491C38.7645 25.3862 38.7398 25.4167 38.7062 25.4354C38.6078 25.4901 38.3319 25.6351 37.8579 25.8176C37.8547 25.8188 37.852 25.8195 37.8493 25.8207Z" fill="#BA68C8"/>
<path d="M38.5869 16.0762C38.6096 16.1231 38.6303 16.1696 38.651 16.2129C38.7964 16.5197 38.9144 16.7725 39.0234 16.9617C38.3998 18.0515 38.0027 19.3481 38.0027 20.5419C38.0027 21.0878 38.086 21.5591 38.2333 21.9475L37.5573 22.23L37.424 22.2855C37.1642 21.8299 37.0239 21.2007 37.0239 20.4555C37.0239 18.8698 37.6737 17.1367 38.5869 16.0762Z" fill="#263238"/>
<path opacity="0.3" d="M14.9074 16.6023C14.9074 17.7078 15.0235 18.7894 15.2454 19.8293C15.4674 20.8707 15.7929 21.8742 16.2142 22.8257C12.9145 14.0119 18.1516 7.56692 18.1516 7.56692C20.7354 5.98625 26.3156 6.30199 29.6445 7.57747C29.355 7.42663 29.0572 7.27579 28.7485 7.12691C24.7091 5.17228 19.5185 6.14608 18.1547 7.12691C16.1188 9.74116 14.9074 13.0307 14.9074 16.6023Z" fill="#FAFAFA"/>
<path opacity="0.2" d="M16.9498 12.4166C17.2339 11.1071 17.7254 9.57257 18.759 8.66911C19.87 7.69766 21.8371 6.86845 23.3131 7.39677C23.5288 7.47414 23.7421 7.58746 23.8723 7.77581C24.0758 8.07045 24.0274 8.46865 23.9273 8.81253C23.8488 9.08177 23.7452 9.34007 23.6237 9.59055C23.254 10.3514 22.7171 11.0372 22.2142 11.7249C20.4761 14.1012 19.0103 16.7815 18.668 19.7056C18.5754 20.4969 18.5656 21.2996 18.403 22.0796C18.3585 22.2929 18.2921 22.52 18.1186 22.652C17.4851 23.1331 16.9568 21.7283 16.8614 21.3461C16.0205 17.9784 16.3277 15.3724 16.9498 12.4166ZM18.5488 23.4332C18.5773 23.4453 18.6058 23.4601 18.6332 23.4781C18.7758 23.57 18.8735 23.7282 18.8919 23.897C18.8966 23.9404 18.8962 23.9853 18.8833 24.0272C18.8704 24.0686 18.8458 24.1053 18.8176 24.1385C18.7364 24.2354 18.6254 24.3069 18.5035 24.3406C18.2241 24.4179 17.949 24.135 17.9279 23.8712C17.8982 23.4965 18.2424 23.3042 18.5488 23.4332Z" fill="#FAFAFA"/>
<path opacity="0.2" d="M33.5624 11.8101C34.5007 11.4463 35.984 13.0731 36.503 14.1254C36.889 14.9073 36.9996 15.8659 36.9559 16.7092C36.9406 17.003 36.8742 17.3457 36.746 17.6572C36.5166 18.214 35.943 18.7408 35.3049 18.4024C35.0215 18.2523 34.8254 17.9804 34.6527 17.7103C34.0646 16.7912 31.7617 12.5088 33.5624 11.8101ZM31.7868 10.3303C32.285 10.156 32.8352 10.5139 32.8844 10.9844C32.911 11.2407 32.7242 11.5104 32.5448 11.5866C32.2647 11.7062 31.8469 11.6257 31.6449 11.4056C31.335 11.0688 31.2834 10.5061 31.7868 10.3303Z" fill="#FAFAFA"/>
</svg>
