<svg width="1140" height="81" viewBox="0 0 1140 81" fill="none" xmlns="http://www.w3.org/2000/svg">
<g clip-path="url(#clip0_2681_11904)">
<path d="M1150.26 -62H-14V89.2717H1150.26V-62Z" fill="url(#paint0_linear_2681_11904)"/>
<path d="M103.764 4.17668L193.041 -1.68167L283.869 3.64628L326.983 10.2488L318.623 10.605L328.107 12.0538L270.822 14.4683L209.151 15.7508L186.644 15.6638L268.803 21.7675L335.169 23.7704L465.857 18.8462L363.89 11.5471L379.359 10.9296L362.758 9.74207L484.873 4.87335L583.301 6.2825L621.712 4.25583L649.302 1.35043L698.987 -1.72917L733.472 -1.52333L694.712 -2.56833L620.002 -2.47334L570.61 0.59041L394.021 0.907096L359.504 -0.541667L321.576 -2.44956L179.701 -6.875L144.876 -4.50792L105.973 -1.84789L74.2352 -1.0483L7.29183 -2.77417L2.13016 -3.58956L-11.6211 4.47752L103.764 4.17668Z" fill="#4B32AD"/>
<path d="M-6.14674 109.658L78.3795 110.822L174.14 114.82L422.382 116.055L641.69 123.995L1067.65 116.767L1137.23 112.128L1161.74 111.178L1165.02 106.737L1173.07 31.6234L994.29 36.5238L1007.68 40.2922L1003.55 40.6167L1008.81 42.0972L886.038 51.7872L803.095 52.0484L743.617 50.2434L781.554 58.6114L775.616 58.8568L782.678 60.4163L572.364 69.2039L417.783 60.4401L239.199 60.1868L129.806 54.178L141.681 53.0855L128.682 52.373L173.791 48.2247L220.785 39.3739L226.896 37.2522L169.374 35.5976L124.51 34.4813L92.7403 31.5601L32.0195 30.0084L-11.1738 25.583L-8.68799 29.2247L-8.54549 29.5968L-7.56383 31.0297L-6.15466 34.6001L-7.13633 64.4618L-10.3584 103.428L-6.14674 109.658Z" fill="#4B32AD"/>
</g>
<defs>
<linearGradient id="paint0_linear_2681_11904" x1="568.127" y1="-54.5567" x2="568.127" y2="115.137" gradientUnits="userSpaceOnUse">
<stop stop-color="#5E61EB"/>
<stop offset="0.2361" stop-color="#5A5AE3"/>
<stop offset="0.611" stop-color="#5047CC"/>
<stop offset="1" stop-color="#422DAD"/>
</linearGradient>
<clipPath id="clip0_2681_11904">
<rect width="1140" height="81" fill="white"/>
</clipPath>
</defs>
</svg>
