<svg width="72" height="165" viewBox="0 0 72 165" fill="none" xmlns="http://www.w3.org/2000/svg">
<path d="M50.0038 65.9192C50.0038 64.8238 49.6194 64.0541 48.9975 63.6952C48.3761 63.3362 38.8727 57.8442 38.2456 57.4877C37.6245 57.1345 36.7693 57.1887 35.8254 57.7336L10.4685 72.3734C8.5714 73.4688 7.0332 76.1328 7.0332 78.324L7.0336 86.8187C7.0336 87.9141 7.41806 88.6838 8.0399 89.0428C8.66133 89.4017 18.1607 94.8861 18.7825 95.245C19.404 95.6039 20.2632 95.5521 21.2116 95.0043L46.5689 80.3646C48.466 79.2691 50.0042 76.6052 50.0042 74.4139L50.0038 65.9192Z" fill="#FAFAFA"/>
<path d="M17.7745 84.5265V93.016C17.7745 94.0607 18.1184 94.8142 18.7002 95.1979C17.576 94.5501 8.65025 89.3927 8.04218 89.0492C7.42075 88.6789 7.03711 87.912 7.03711 86.8146V78.3247C7.03711 77.2536 7.40738 76.0768 8.00249 75.019C11.8502 77.2407 15.5529 79.3695 18.7399 81.2208C18.1448 82.2652 17.7745 83.4554 17.7745 84.5265Z" fill="#F0F0F0"/>
<path d="M21.2127 78.5751L46.5696 63.9353C47.5183 63.3876 48.3772 63.3357 48.999 63.6946C49.6209 64.0535 50.0053 64.8233 50.0053 65.9187L50.0057 74.4134C50.0057 76.6042 48.4675 79.2682 46.5704 80.364L21.2135 95.0038C20.2647 95.5515 19.4059 95.6034 18.784 95.2444C18.1622 94.8855 17.7777 94.1158 17.7777 93.0204L17.7773 84.5257C17.7769 82.3349 19.3151 79.6705 21.2127 78.5751Z" fill="#E0E0E0"/>
<path opacity="0.1" d="M21.2127 78.5751L46.5696 63.9353C47.5183 63.3876 48.3772 63.3357 48.999 63.6946C49.6209 64.0535 50.0053 64.8233 50.0053 65.9187L50.0057 74.4134C50.0057 76.6042 48.4675 79.2682 46.5704 80.364L21.2135 95.0038C20.2647 95.5515 19.4059 95.6034 18.784 95.2444C18.1622 94.8855 17.7777 94.1158 17.7777 93.0204L17.7773 84.5257C17.7769 82.3349 19.3151 79.6705 21.2127 78.5751Z" fill="black"/>
<path d="M14.3653 86.9946V85.8809L7.0332 81.6479V82.7612L14.3653 86.9946Z" fill="#BA68C8"/>
<path d="M14.3653 89.5261V88.4128L7.0332 84.1794V85.2927L14.3653 89.5261Z" fill="#BA68C8"/>
<path d="M14.3653 83.3487L7.0332 79.1157V80.229L14.3653 84.4619V83.3487Z" fill="#BA68C8"/>
<path d="M50.0038 8.65481C50.0038 7.5594 49.6194 6.7897 48.9975 6.43077C48.3757 6.07184 38.8727 0.579797 38.2456 0.223302C37.6245 -0.129952 36.7697 -0.0756685 35.8254 0.469202L10.4685 15.109C8.5714 16.2044 7.0332 18.8684 7.0332 21.0596L7.0336 68.9462C7.0336 70.0416 7.41806 70.8113 8.0399 71.1703C8.66174 71.5292 18.1607 77.0135 18.7825 77.3725C19.4044 77.7314 20.2632 77.6795 21.2116 77.1318L46.5689 62.492C48.466 61.3966 50.0042 58.7326 50.0042 56.5414L50.0038 8.65481Z" fill="#FAFAFA"/>
<path d="M17.7745 27.2614V75.1427C17.7745 76.1875 18.1184 76.941 18.7002 77.3246C17.576 76.6769 8.65025 71.5194 8.04218 71.1759C7.42075 70.8056 7.03711 70.0388 7.03711 68.9413V21.0596C7.03711 19.9885 7.40738 18.8116 8.00249 17.7539C11.8502 19.9755 15.5529 22.1044 18.7399 23.9557C18.1448 25.0001 17.7745 26.1903 17.7745 27.2614Z" fill="#F0F0F0"/>
<path d="M21.2127 21.3106L46.5696 6.67086C47.5183 6.12315 48.3772 6.0713 48.999 6.43022C49.6209 6.78915 50.0053 7.55885 50.0053 8.65426L50.0057 56.5409C50.0057 58.7317 48.4675 61.3957 46.5704 62.4915L21.2135 77.1313C20.2647 77.679 19.4059 77.7308 18.784 77.3719C18.1622 77.013 17.7777 76.2433 17.7777 75.1479L17.7773 27.2613C17.7769 25.07 19.3151 22.4061 21.2127 21.3106Z" fill="#E0E0E0"/>
<path opacity="0.1" d="M21.2127 21.3106L46.5696 6.67086C47.5183 6.12315 48.3772 6.0713 48.999 6.43022C49.6209 6.78915 50.0053 7.55885 50.0053 8.65426L50.0057 56.5409C50.0057 58.7317 48.4675 61.3957 46.5704 62.4915L21.2135 77.1313C20.2647 77.679 19.4059 77.7308 18.784 77.3719C18.1622 77.013 17.7777 76.2433 17.7777 75.1479L17.7773 27.2613C17.7769 25.07 19.3151 22.4061 21.2127 21.3106Z" fill="black"/>
<path d="M9.7207 54.1399L15.092 57.241V63.4432L9.7207 60.3421V54.1399Z" fill="#455A64"/>
<path d="M9.7207 61.7861L15.092 64.8872V66.248L9.7207 63.1469V61.7861Z" fill="#455A64"/>
<path d="M9.7207 64.3679L15.092 67.469V68.8298L9.7207 65.7287V64.3679Z" fill="#455A64"/>
<path d="M14.3653 31.1729V30.0596L7.0332 25.8267V26.9399L14.3653 31.1729Z" fill="#BA68C8"/>
<path d="M14.3653 33.7051V32.5919L7.0332 28.3589V29.4721L14.3653 33.7051Z" fill="#BA68C8"/>
<path d="M14.3653 27.5278L7.0332 23.2944V24.4077L14.3653 28.641V27.5278Z" fill="#BA68C8"/>
<path d="M9.85102 37.2201C9.469 37.4404 9.23242 37.9136 9.23242 38.5869C9.23242 39.9335 10.1779 41.5709 11.3438 42.2442C11.9268 42.5808 12.4546 42.6128 12.8371 42.3921C13.0692 42.258 13.9515 41.7487 14.1837 41.6147C14.5657 41.3939 14.8022 40.9207 14.8022 40.2478C14.8022 38.9012 13.8567 37.2638 12.6908 36.5905C12.1079 36.2539 11.58 36.2223 11.198 36.4426C10.9655 36.5763 10.0831 37.086 9.85102 37.2201Z" fill="#263238"/>
<path d="M11.3438 42.2443C11.9268 42.581 12.4546 42.613 12.8371 42.3922C13.2191 42.1714 13.4557 41.6986 13.4557 41.0253C13.4557 39.6788 12.5101 38.0413 11.3442 37.368C10.7613 37.0314 10.2334 36.9994 9.85103 37.2202C9.4686 37.4409 9.23242 37.9137 9.23242 38.587C9.23202 39.9336 10.1775 41.571 11.3438 42.2443Z" fill="#455A64"/>
<path d="M9.85102 45.9063C9.469 46.1271 9.23242 46.5999 9.23242 47.2732C9.23242 48.6197 10.1779 50.2572 11.3438 50.9305C11.9268 51.2671 12.4546 51.2991 12.8371 51.0783C13.0692 50.9442 13.9515 50.435 14.1837 50.3009C14.5657 50.0806 14.8022 49.607 14.8022 48.9341C14.8022 47.5875 13.8567 45.9501 12.6908 45.2768C12.1079 44.9401 11.58 44.9085 11.198 45.1289C10.9655 45.263 10.0831 45.7722 9.85102 45.9063Z" fill="#BA68C8"/>
<path opacity="0.3" d="M9.85102 45.9063C9.469 46.1271 9.23242 46.5999 9.23242 47.2732C9.23242 48.6197 10.1779 50.2572 11.3438 50.9305C11.9268 51.2671 12.4546 51.2991 12.8371 51.0783C13.0692 50.9442 13.9515 50.435 14.1837 50.3009C14.5657 50.0806 14.8022 49.607 14.8022 48.9341C14.8022 47.5875 13.8567 45.9501 12.6908 45.2768C12.1079 44.9401 11.58 44.9085 11.198 45.1289C10.9655 45.263 10.0831 45.7722 9.85102 45.9063Z" fill="white"/>
<path d="M11.3438 50.9306C11.9268 51.2672 12.4546 51.2992 12.8371 51.0785C13.2191 50.8577 13.4557 50.3849 13.4557 49.7116C13.4557 48.365 12.5101 46.7276 11.3442 46.0543C10.7613 45.7177 10.2334 45.6857 9.85103 45.9064C9.4686 46.1272 9.23242 46.6 9.23242 47.2733C9.23202 48.6203 10.1775 50.2573 11.3438 50.9306Z" fill="#BA68C8"/>
<path d="M63.5011 87.2296C63.3768 87.5488 63.3731 87.9025 63.3841 88.2456C63.4262 89.5501 63.6518 90.8525 63.5477 92.1533C63.4371 93.5383 62.7853 94.8055 62.795 96.2177C62.8007 97.013 63.587 98.0196 64.3316 97.1227C64.488 96.9344 64.5872 96.7055 64.6841 96.4806C64.8915 95.9986 65.0993 95.5165 65.3067 95.0344C65.3448 96.3624 64.6269 97.6287 64.9887 98.9506C65.1617 99.5834 65.8662 100.126 66.4641 99.8556C66.8558 99.6782 67.0466 99.2402 67.203 98.8396C67.3894 98.3628 67.5753 97.8864 67.7617 97.4096C68.0213 96.744 68.2822 96.0768 68.4633 95.3856C69.1127 92.9052 68.6651 90.1581 67.2614 88.0119C66.8887 87.4423 66.4305 86.8966 65.8111 86.6146C65.0653 86.2752 63.8771 86.327 63.5133 87.1992C63.5088 87.2102 63.5048 87.2199 63.5011 87.2296Z" fill="#37474F"/>
<path d="M69.5794 83.3338C69.3866 81.9994 69.0588 78.6719 68.7497 75.5063C66.2822 75.5185 63.7807 75.6437 61.3204 75.5371C61.4817 76.0241 61.3804 76.6727 61.4161 77.1843C61.4703 77.9621 61.5153 78.7411 61.5279 79.521C61.553 81.032 61.4618 82.5544 61.0984 84.0258C60.8716 84.9446 60.5414 85.835 60.3073 86.7521C59.8475 88.5516 59.762 90.4269 59.367 92.2418C59.3042 92.5298 59.2333 92.8219 59.2564 93.1156C59.3561 94.3925 60.7411 94.0364 61.3484 93.4194C62.1554 92.5999 62.2514 91.5142 62.6844 90.5067C62.8947 90.0177 63.3334 88.1757 64.0825 88.5298C64.9279 88.9296 65.3825 89.9237 65.7726 90.7194C66.281 91.756 66.486 92.802 66.693 93.9181C67.0114 95.6362 66.0942 97.5985 65.822 99.2821C65.679 100.165 65.7519 100.891 66.4892 101.477C66.7076 101.65 67.0122 101.742 67.2703 101.636C67.5239 101.533 67.6717 101.274 67.8006 101.033C68.4183 99.8768 69.0414 98.7077 69.3716 97.4397C70.0752 94.7372 69.927 91.7346 69.8917 88.9657C69.869 87.0868 69.8488 85.1973 69.5794 83.3338Z" fill="#455A64"/>
<path d="M50.125 24.3861C58.0011 23.9101 61.8172 27.4443 64.1284 35.1316C66.4395 42.8193 68.015 50.1749 68.7612 54.1178C69.5074 58.0607 69.4786 74.7163 69.4786 74.7163L58.8417 76.1026L56.0614 55.5486L51.7592 41.4626L50.125 24.3861Z" fill="#E6E6E6"/>
<path d="M58.0898 70.5482C58.0898 70.5482 59.3441 72.4012 63.9862 71.9746C68.6283 71.548 69.4503 69.4666 69.4503 69.4666L69.9109 80.4474C69.9109 80.4474 69.5094 82.812 65.018 83.156C60.5266 83.4999 59.4862 81.2499 59.4862 81.2499L58.0898 70.5482Z" fill="#F0F0F0"/>
<path d="M69.8322 78.6124L69.8002 77.8459C69.3012 78.2369 68.7692 78.5707 68.162 78.8146C67.3769 79.1297 66.5545 79.323 65.7192 79.4502C63.9999 79.7115 62.1919 79.7706 60.5014 79.3072C60.0538 79.1844 59.6162 79.0155 59.2047 78.8008C59.1901 78.7931 59.1767 78.7834 59.1621 78.7757L59.2585 79.515C59.5275 79.6402 59.8022 79.754 60.0845 79.8447C60.9932 80.1372 61.9464 80.2608 62.8988 80.2819C64.7182 80.3228 66.6797 80.1129 68.3743 79.417C68.858 79.2184 69.3777 78.9523 69.8322 78.6124Z" fill="#BA68C8"/>
<path d="M58.5603 74.1549C58.9334 74.3562 59.3255 74.5231 59.729 74.6531C60.6377 74.9456 61.5909 75.0692 62.5433 75.0902C64.3626 75.1312 66.3242 74.9213 68.0187 74.2253C68.5519 74.0062 69.1267 73.704 69.6112 73.313L69.5792 72.5522C69.0424 72.9902 68.4676 73.3576 67.806 73.6229C67.0209 73.9381 66.1986 74.1314 65.3636 74.2586C63.6444 74.5199 61.8364 74.579 60.1459 74.1156C59.6982 73.9928 59.2607 73.8239 58.8491 73.6092C58.7154 73.5395 58.5878 73.4597 58.459 73.3811L58.5603 74.1549Z" fill="#BA68C8"/>
<path d="M62.721 77.6859C64.5404 77.7269 66.5019 77.517 68.1965 76.821C68.7049 76.612 69.2518 76.3276 69.7221 75.9626L69.6901 75.199C69.172 75.6134 68.619 75.9638 67.9842 76.2186C67.1991 76.5338 66.3767 76.727 65.5414 76.8542C63.8221 77.1155 62.0141 77.1747 60.3236 76.7112C59.876 76.5885 59.4385 76.4196 59.0269 76.2049C58.9527 76.1664 58.8831 76.1194 58.8105 76.0785L58.9094 76.8352C59.2319 76.9968 59.564 77.1386 59.9068 77.2492C60.8154 77.5413 61.769 77.6649 62.721 77.6859Z" fill="#BA68C8"/>
<path d="M22.8446 73.4406C20.9572 74.4906 20.9431 81.8364 20.7908 87.0834C20.3925 100.807 20.6721 107.626 20.5214 109.289C20.3707 110.951 19.5803 116.196 19.2639 123.427C18.8701 132.425 18.6348 136.345 18.6348 136.345C18.6348 136.345 20.179 137.763 23.4049 138.187C26.6308 138.611 30.188 138.279 30.188 138.279C30.188 138.279 34.7147 125.237 35.9005 120.25C38.1764 110.678 40.1877 101.19 40.1877 101.19L42.5321 112.543C42.5321 112.543 41.4683 118.246 42.6216 124.639C43.9151 131.811 44.584 136.657 44.584 136.657C44.584 136.657 48.8732 138.211 51.8419 138.147C55.671 138.065 56.6906 137.028 56.6906 137.028C56.6906 137.028 58.4504 119.378 58.8798 110.124C59.2833 101.439 61.4952 72.3387 58.9434 72.3496L22.8446 73.4406Z" fill="#F0F0F0"/>
<path d="M43.1833 87.27L40.1875 101.19L42.5319 112.543L42.2499 101.902L45.0642 89.5549C50.2459 87.9454 53.4985 85.0197 54.3286 82.3318C48.794 87.317 43.1833 87.27 43.1833 87.27Z" fill="#E0E0E0"/>
<path d="M41.0715 97.095L40.8957 97.9137C40.6048 98.0401 40.3103 98.1547 40.0117 98.2617C39.0857 98.587 38.1215 98.7895 37.1573 98.9544C33.5798 99.5665 29.8038 99.5244 26.3256 98.4034C24.2636 97.7415 22.2737 96.6971 20.6172 95.2776C20.6208 94.9718 20.6249 94.6542 20.6285 94.3325C21.3403 94.9904 22.1128 95.5798 22.951 96.085C25.7515 97.7877 29.0114 98.5643 32.275 98.6141C34.0311 98.6372 35.799 98.4687 37.528 98.1511C38.3467 98.002 39.1578 97.799 39.9502 97.5349C40.3289 97.4089 40.7077 97.2635 41.0715 97.095Z" fill="#FAFAFA"/>
<path d="M41.7194 94.0916L41.5395 94.9258C41.115 95.1401 40.6673 95.3159 40.2197 95.4727C39.294 95.798 38.3295 96.0005 37.3653 96.169C33.7878 96.7812 30.0118 96.7354 26.5335 95.6181C24.4063 94.9331 22.3556 93.8389 20.668 92.3505C20.6716 92.0406 20.6793 91.7266 20.687 91.4094C21.4369 92.1212 22.2633 92.756 23.1586 93.2997C25.9591 95.0023 29.219 95.7789 32.4829 95.8247C34.2391 95.8514 36.0066 95.6833 37.736 95.3657C38.5547 95.2166 39.3657 95.01 40.1581 94.7495C40.5482 94.6195 40.9347 94.4664 41.3098 94.2942C41.4476 94.2294 41.5853 94.1646 41.7194 94.0916Z" fill="#FAFAFA"/>
<path d="M42.3954 90.9425L42.2119 91.7956C42.1086 91.8532 42.0017 91.9103 41.8907 91.9637C41.4621 92.1744 41.0144 92.3539 40.5631 92.5147C39.637 92.84 38.6729 93.0426 37.7087 93.2074C34.1312 93.8196 30.3552 93.7774 26.877 92.6565C24.6347 91.937 22.4771 90.7626 20.7363 89.1519C20.7477 88.8343 20.7554 88.513 20.7631 88.1877C21.5858 89.0065 22.5002 89.7296 23.4988 90.3381C26.3033 92.0407 29.5632 92.8173 32.8268 92.8671C34.5829 92.8902 36.3504 92.7217 38.0798 92.4041C38.8985 92.255 39.7096 92.0521 40.5015 91.7879C40.8917 91.6579 41.2781 91.5084 41.6533 91.3326C41.8599 91.237 42.0628 91.1373 42.2617 91.0263C42.3039 91 42.3496 90.9733 42.3954 90.9425Z" fill="#FAFAFA"/>
<path d="M59.8959 91.1301C59.8845 91.4554 59.8692 91.7807 59.8538 92.1097C59.6431 92.2742 59.4292 92.4386 59.2149 92.5994C56.3034 94.7729 52.9171 96.4447 49.3129 97.0261C46.6347 97.4547 43.7843 97.3056 41.2285 96.3528L41.3776 95.66C42.6249 96.1117 43.918 96.3909 45.2496 96.4942C48.5209 96.7388 51.7771 95.9509 54.704 94.5124C56.2844 93.7358 57.78 92.787 59.1805 91.7155C59.4256 91.5279 59.663 91.329 59.8959 91.1301Z" fill="#FAFAFA"/>
<path d="M60.1002 85.1152C60.0925 85.4365 60.0848 85.7581 60.0735 86.0794C59.7903 86.3127 59.5035 86.5347 59.2126 86.7527C56.3011 88.9261 52.9148 90.598 49.3106 91.1793C47.0379 91.5427 44.6429 91.4892 42.4043 90.8848V90.8811L42.5534 90.1811C43.4296 90.4222 44.3326 90.5789 45.2469 90.6478C48.5182 90.8925 51.7744 90.1046 54.7013 88.666C56.2817 87.8894 57.7773 86.9407 59.1778 85.8728C59.4922 85.6281 59.798 85.3753 60.1002 85.1152Z" fill="#FAFAFA"/>
<path d="M60.0151 88.1108C60.0038 88.4321 59.9921 88.7574 59.9807 89.0827C59.7283 89.2856 59.4719 89.4846 59.2155 89.6758C56.3039 91.8492 52.9177 93.521 49.3134 94.1024C46.8378 94.5002 44.2171 94.4009 41.8145 93.6316L41.9635 92.9353C43.0273 93.2683 44.1288 93.4822 45.2502 93.5705C48.5214 93.8152 51.7777 93.0272 54.7046 91.5887C56.2849 90.8121 57.7806 89.8633 59.181 88.7918C59.4642 88.5739 59.7437 88.3442 60.0151 88.1108Z" fill="#FAFAFA"/>
<path d="M23.6002 108.242C22.1034 109.946 21.4394 112.265 21.411 114.532C21.3884 116.349 21.7951 118.263 23.0222 119.602C23.9187 120.581 25.3892 121.111 26.6507 121.457C28.0552 121.844 29.5691 121.845 30.9675 121.43C31.6834 121.218 32.3806 120.895 32.9271 120.386C33.4472 119.901 33.8082 119.272 34.1148 118.63C35.013 116.753 35.5157 114.651 35.3075 112.58C35.0992 110.509 34.1335 108.479 32.4964 107.193C29.7761 105.058 25.8328 105.702 23.6002 108.242Z" fill="#E0E0E0"/>
<path d="M33.7269 110.469C34.1166 110.547 34.5063 110.625 34.896 110.703C34.8028 110.427 34.6959 110.156 34.5747 109.892C34.4775 109.873 34.3799 109.855 34.2831 109.836C33.1475 109.609 32.012 109.381 30.8765 109.154C28.6172 108.702 26.3608 108.232 24.0954 107.81C24.0743 107.806 24.0533 107.803 24.0322 107.799C23.8835 107.94 23.7397 108.088 23.6032 108.243C23.5611 108.292 23.5262 108.345 23.4853 108.394C24.6221 108.638 25.7616 108.868 26.9012 109.098C29.1755 109.557 31.4514 110.012 33.7269 110.469ZM29.5534 118.024C27.3022 117.532 25.0543 117.022 22.7966 116.562C22.3802 116.477 21.9637 116.395 21.5469 116.31C21.5866 116.55 21.6356 116.788 21.6956 117.022C21.8288 117.053 21.9617 117.086 22.095 117.117C23.254 117.388 24.4167 117.642 25.5789 117.898C27.8455 118.397 30.1129 118.892 32.3803 119.388C32.7696 119.473 33.1593 119.558 33.5486 119.643C33.6928 119.428 33.8229 119.205 33.9428 118.975C33.6102 118.906 33.278 118.837 32.9474 118.764C31.8164 118.518 30.6849 118.271 29.5534 118.024ZM29.8475 116.232C27.5887 115.78 25.3318 115.309 23.0664 114.888C22.5159 114.785 21.9654 114.683 21.4144 114.585C21.4128 114.805 21.4168 115.025 21.4282 115.246C21.7438 115.316 22.0589 115.387 22.3749 115.455C23.5384 115.705 24.7055 115.94 25.8722 116.175C28.1469 116.635 30.4228 117.09 32.6983 117.546C33.28 117.663 33.8613 117.78 34.4431 117.896C34.5379 117.664 34.627 117.43 34.7088 117.193C34.2231 117.101 33.737 117.01 33.2545 116.914C32.1186 116.687 30.9831 116.459 29.8475 116.232ZM26.7108 110.859C28.9855 111.318 31.2614 111.773 33.5369 112.23C34.1279 112.348 34.719 112.467 35.3104 112.585C35.3104 112.584 35.3104 112.583 35.31 112.581C35.2841 112.323 35.246 112.065 35.197 111.81C34.8283 111.74 34.4597 111.67 34.0931 111.597C32.9576 111.37 31.822 111.142 30.6865 110.915C28.4272 110.463 26.1708 109.993 23.9054 109.571C23.5351 109.502 23.1645 109.436 22.7942 109.368C22.6751 109.565 22.5649 109.766 22.4624 109.973C22.7128 110.027 22.9631 110.084 23.2135 110.138C24.377 110.389 25.5441 110.623 26.7108 110.859ZM30.1741 114.427C27.9152 113.975 25.6583 113.504 23.393 113.083C22.7869 112.971 22.1809 112.857 21.5736 112.749C21.5384 112.96 21.5137 113.172 21.4902 113.383C21.8936 113.473 22.2971 113.563 22.701 113.65C23.8645 113.901 25.0316 114.135 26.1983 114.371C28.4734 114.83 30.7489 115.285 33.0244 115.742C33.6778 115.873 34.3313 116.005 34.9851 116.134C34.9956 116.136 35.0062 116.139 35.0167 116.141C35.0771 115.9 35.1297 115.658 35.1743 115.415C34.6424 115.313 34.1097 115.214 33.581 115.108C32.4451 114.881 31.3096 114.654 30.1741 114.427ZM33.818 113.355C32.6825 113.127 31.547 112.9 30.4114 112.673C28.1522 112.221 25.8957 111.75 23.6303 111.329C23.0911 111.229 22.5519 111.129 22.0123 111.032C21.9414 111.236 21.8799 111.442 21.8224 111.65C22.1946 111.732 22.5661 111.816 22.9384 111.896C24.1019 112.147 25.269 112.381 26.4357 112.617C28.7104 113.076 30.9863 113.531 33.2618 113.987C33.9152 114.119 34.5687 114.251 35.2225 114.38C35.2525 114.386 35.2821 114.393 35.3116 114.399C35.3335 114.149 35.3457 113.899 35.3489 113.649C34.8377 113.551 34.326 113.456 33.818 113.355Z" fill="#EBEBEB"/>
<path d="M50.8182 109.244C50.768 109.889 50.755 110.54 50.7583 111.183C50.7668 112.901 50.9349 114.762 52.0777 116.045C52.544 116.568 53.1549 116.962 53.8245 117.171C55.475 117.685 57.396 116.756 58.3237 115.328C59.5572 113.431 59.4952 110.669 59.4568 108.504C59.4369 107.366 59.3871 106.209 59.0172 105.133C58.474 103.552 56.9986 102.081 55.2019 102.457C53.6544 102.781 52.3342 104.265 51.6848 105.64C51.1533 106.766 50.9159 107.996 50.8182 109.244Z" fill="#E0E0E0"/>
<path d="M54.3968 107.971C56.0334 107.425 57.6721 106.884 59.3063 106.331C59.269 106.092 59.2208 105.856 59.1613 105.623C58.7331 105.764 58.3049 105.905 57.8767 106.047C55.6737 106.777 53.4719 107.511 51.2698 108.243C51.1511 108.283 51.0328 108.322 50.9141 108.362C50.8768 108.627 50.8485 108.894 50.8262 109.162C50.9177 109.131 51.0093 109.099 51.1008 109.068C52.1995 108.702 53.2981 108.336 54.3968 107.971Z" fill="#EBEBEB"/>
<path d="M51.4374 106.234C51.3328 106.513 51.2433 106.796 51.168 107.083C52.0329 106.812 52.8982 106.54 53.7631 106.269C55.452 105.738 57.1425 105.212 58.8286 104.673C58.7257 104.453 58.6062 104.238 58.4696 104.034C58.0714 104.157 57.6736 104.281 57.2754 104.405C55.3288 105.013 53.3831 105.624 51.4374 106.234Z" fill="#EBEBEB"/>
<path d="M58.9543 113.983C59.0454 113.709 59.1216 113.427 59.1839 113.138C57.4185 113.724 55.653 114.311 53.888 114.899C53.2556 115.109 52.6228 115.318 51.9908 115.53C51.909 115.558 51.8264 115.584 51.7441 115.611C51.8454 115.761 51.9548 115.907 52.0775 116.044C52.1343 116.108 52.1991 116.163 52.2598 116.223C52.7468 116.056 53.2329 115.886 53.7194 115.724C54.8181 115.358 55.9167 114.992 57.0154 114.626C57.6611 114.411 58.3077 114.197 58.9543 113.983Z" fill="#EBEBEB"/>
<path d="M55.0083 109.699C56.4886 109.206 57.9705 108.716 59.45 108.218C59.4439 107.968 59.4346 107.718 59.4204 107.468C59.1097 107.57 58.7985 107.673 58.4878 107.776C56.2848 108.506 54.0831 109.239 51.8809 109.972C51.5094 110.095 51.1375 110.219 50.7661 110.343C50.76 110.603 50.7571 110.863 50.7579 111.122C51.076 111.012 51.394 110.903 51.712 110.797C52.811 110.431 53.9097 110.065 55.0083 109.699Z" fill="#EBEBEB"/>
<path d="M53.0082 114.1C54.1069 113.734 55.2055 113.368 56.3042 113.002C57.3246 112.662 58.3467 112.326 59.3676 111.987C59.3964 111.724 59.417 111.46 59.4324 111.196C57.3465 111.887 55.2618 112.581 53.1767 113.275C52.5444 113.485 51.9116 113.695 51.2796 113.907C51.2002 113.933 51.1204 113.958 51.041 113.984C51.1026 114.227 51.1751 114.465 51.265 114.695C51.8476 114.498 52.4277 114.294 53.0082 114.1Z" fill="#EBEBEB"/>
<path d="M55.6727 111.34C56.9379 110.919 58.2046 110.5 59.4698 110.078C59.4722 109.819 59.4718 109.563 59.469 109.312C59.3636 109.347 59.2579 109.382 59.1522 109.417C56.9492 110.146 54.7474 110.88 52.5453 111.613C51.9591 111.807 51.3729 112.002 50.7871 112.198C50.8017 112.452 50.8244 112.706 50.8552 112.958C51.3632 112.784 51.8696 112.607 52.3763 112.438C53.4754 112.072 54.5741 111.706 55.6727 111.34Z" fill="#EBEBEB"/>
<path d="M44.052 148.854C44.312 149.122 44.7293 149.357 45.0635 149.176C45.2106 149.096 45.3086 148.948 45.4634 148.883C45.7251 148.773 46.0305 148.948 46.197 149.167C46.3639 149.386 46.4538 149.653 46.6402 149.858C46.8618 150.103 47.192 150.23 47.5088 150.35C47.6331 150.396 47.7656 150.444 47.8977 150.423C48.2144 150.372 48.3643 149.961 48.6844 149.932C49.1592 149.889 49.1029 150.336 49.1539 150.609C49.2126 150.923 49.4111 151.215 49.6967 151.387C50.0832 151.62 50.6123 151.623 51.002 151.396C51.1511 151.309 51.2848 151.19 51.4545 151.149C51.7296 151.082 52.0233 151.253 52.157 151.489C52.2906 151.724 52.2943 152.006 52.2554 152.271C52.2436 152.352 52.2287 152.437 52.2599 152.513C52.2931 152.594 52.3717 152.649 52.4474 152.698C52.7273 152.878 53.0235 153.036 53.3322 153.168C53.4979 153.239 53.7 153.301 53.854 153.209C53.9451 153.155 53.9966 153.059 54.0723 152.987C54.2518 152.818 54.5593 152.811 54.7784 152.932C54.998 153.052 55.1357 153.276 55.1981 153.508C55.2621 153.746 55.241 154.123 55.4521 154.3C55.6016 154.426 55.9184 154.509 56.1031 154.582C56.3296 154.671 56.5629 154.78 56.8141 154.766C57.1645 154.746 57.3071 154.481 57.6057 154.359C57.9018 154.238 58.2907 154.4 58.3928 154.688C58.4657 154.893 58.4122 155.141 58.5536 155.312C58.6294 155.404 58.7468 155.453 58.8611 155.497C59.0884 155.583 59.3209 155.657 59.5571 155.718C59.9269 155.815 60.3774 155.862 60.6448 155.602C60.712 155.537 60.7611 155.457 60.8251 155.389C60.9952 155.207 61.2731 155.121 61.5255 155.171C61.7779 155.221 61.9942 155.406 62.0712 155.638C62.2061 156.043 62.4366 156.116 62.8794 156.18C63.2861 156.238 63.6997 156.208 64.1089 156.211C64.6156 156.215 64.5403 155.802 64.8575 155.542C65.1289 155.319 65.5839 155.284 65.867 155.506C65.9525 155.572 66.0218 155.656 66.1097 155.72C66.4176 155.946 66.8567 155.88 67.2387 155.802C67.4113 155.767 67.6005 155.722 67.7014 155.586C67.7682 155.496 67.7832 155.382 67.8156 155.277C67.9213 154.934 68.243 154.659 68.6157 154.592C68.7328 154.571 68.8579 154.569 68.9677 154.613C69.0621 154.65 69.1391 154.718 69.2262 154.768C69.4644 154.906 69.769 154.909 70.0384 154.837C70.3074 154.765 70.5497 154.626 70.7879 154.488C70.9528 154.392 71.1229 154.292 71.2311 154.141C71.3858 153.925 71.3878 153.647 71.3842 153.387C71.3757 152.779 71.3554 152.107 70.9329 151.609C70.499 151.098 69.8172 150.762 69.2071 150.476C65.1026 148.547 60.5293 147.728 56.1396 146.47C52.9246 145.549 49.6834 144.371 46.3275 144.542C45.2673 144.596 43.7214 144.672 43.3734 145.766C43.0372 146.826 43.243 148.021 44.052 148.854Z" fill="#455A64"/>
<path d="M42.1354 120.334C41.2291 120.527 41.7015 122.644 42.1499 125.384C42.5984 128.124 43.2401 132.563 43.689 135.514C44.1374 138.465 43.9182 139.482 43.5447 141.964C43.1708 144.447 43.2458 145.784 43.5447 146.31C43.8437 146.835 44.8237 147.972 47.2823 148.558C49.7409 149.145 50.2582 149.213 52.6678 150.496C54.2424 151.334 55.8078 152.967 60.853 153.981C64.9523 154.806 70.2964 153.462 71.163 151.977C71.5029 148.795 70.2746 147.282 67.5174 145.8C63.9962 143.908 59.6016 141.648 58.4033 140.043C57.205 138.437 57.2572 136.874 57.6672 131.721C58.1023 126.247 58.4203 122.606 58.5678 121.623C58.7152 120.639 58.1898 120.375 58.1898 120.375L58.1063 121.404C58.1063 121.404 55.275 122.657 50.4162 122.727C45.5573 122.797 42.1811 121.086 42.1811 121.086L42.1354 120.334Z" fill="#E0E0E0"/>
<path opacity="0.05" d="M42.1354 120.334C41.2291 120.527 41.7015 122.644 42.1499 125.384C42.5984 128.124 43.2401 132.563 43.689 135.514C44.1374 138.465 43.9182 139.482 43.5447 141.964C43.1708 144.447 43.2458 145.784 43.5447 146.31C43.8437 146.835 44.8237 147.972 47.2823 148.558C49.7409 149.145 50.2582 149.213 52.6678 150.496C54.2424 151.334 55.8078 152.967 60.853 153.981C64.9523 154.806 70.2964 153.462 71.163 151.977C71.5029 148.795 70.2746 147.282 67.5174 145.8C63.9962 143.908 59.6016 141.648 58.4033 140.043C57.205 138.437 57.2572 136.874 57.6672 131.721C58.1023 126.247 58.4203 122.606 58.5678 121.623C58.7152 120.639 58.1898 120.375 58.1898 120.375L58.1063 121.404C58.1063 121.404 55.275 122.657 50.4162 122.727C45.5573 122.797 42.1811 121.086 42.1811 121.086L42.1354 120.334Z" fill="black"/>
<path d="M64.7224 144.885C65.0461 144.856 65.3835 144.844 65.7275 144.841C65.5233 144.731 65.3191 144.621 65.1141 144.51C59.6873 144.797 56.9038 148.538 56.043 152.462C56.1523 152.513 56.2638 152.565 56.3796 152.616C56.9306 150.024 58.3484 147.503 60.8496 146.063C64.0831 147.349 65.5423 150.953 65.5958 154.11C65.7178 154.096 65.8389 154.08 65.9596 154.064C65.8928 150.882 64.4327 147.275 61.2332 145.855C62.073 145.428 63.0258 145.117 64.0993 144.958C67.6619 146.714 69.6493 148.536 69.8997 152.963C70.0236 152.902 70.1423 152.84 70.2517 152.776C69.9637 148.5 68.0735 146.61 64.7224 144.885Z" fill="#F0F0F0"/>
<path d="M58.0505 127.017C58.0724 126.759 58.0935 126.508 58.1145 126.266C56.2636 126.976 54.3195 127.459 52.3316 127.69C51.0815 127.836 49.8204 127.888 48.5613 127.835C47.2872 127.783 45.9982 127.667 44.7545 127.397C43.9321 127.218 43.113 126.958 42.3457 126.606C42.3757 126.797 42.4061 126.991 42.4368 127.191C42.9927 127.465 43.5829 127.68 44.1995 127.852C45.508 128.216 46.872 128.421 48.2331 128.494C50.7675 128.63 53.3237 128.377 55.7694 127.737C56.5431 127.534 57.3035 127.292 58.0505 127.017Z" fill="#BA68C8"/>
<path d="M41.748 122.924C41.7792 123.143 41.8145 123.373 41.8534 123.612C41.9526 123.679 42.0519 123.744 42.1487 123.805C42.6875 124.141 43.2676 124.407 43.8712 124.623C45.1238 125.073 46.4461 125.335 47.7728 125.499C50.4887 125.834 53.26 125.672 55.9155 125.044C56.6459 124.871 57.367 124.662 58.0743 124.418C58.1444 124.394 58.2129 124.365 58.2825 124.34C58.306 124.079 58.3287 123.84 58.3502 123.612C58.2683 123.642 58.1885 123.677 58.1063 123.706C57.4905 123.928 56.8642 124.123 56.2294 124.29C54.9631 124.624 53.6647 124.842 52.3546 124.951C49.7696 125.166 47.0918 124.959 44.6049 124.242C43.9709 124.059 43.347 123.829 42.7608 123.536C42.4193 123.365 42.0896 123.169 41.7813 122.949C41.7699 122.941 41.7594 122.932 41.748 122.924Z" fill="#BA68C8"/>
<path d="M54.6055 138.122C53.0304 138.436 51.4983 139.174 50.3454 140.224C50.0383 140.504 49.7422 140.857 49.7693 141.258C49.7871 141.522 49.9447 141.758 50.106 141.975C50.6942 142.766 51.3995 143.481 52.1951 144.092C52.4365 144.277 52.6934 144.457 52.992 144.539C53.7159 144.74 54.4576 144.336 55.0912 143.951C56.0651 143.358 57.054 142.761 58.1575 142.424C59.261 142.088 60.5099 142.035 61.5499 142.518C60.5857 142.07 59.6564 140.788 59.0398 139.99C58.5869 139.404 58.2061 138.433 57.4619 138.107C56.7692 137.805 55.6661 137.947 54.9438 138.062C54.8303 138.08 54.7181 138.1 54.6055 138.122Z" fill="#BA68C8"/>
<path d="M59.0397 139.99C58.791 139.668 58.5621 139.232 58.285 138.849C57.6972 138.626 57.0316 138.537 56.4183 138.567C54.4774 138.661 52.5321 139.225 51.1041 140.464C50.9351 140.611 50.7658 140.789 50.7581 141.005C50.7516 141.186 50.8606 141.35 50.9692 141.499C51.5197 142.255 52.1691 142.947 52.8979 143.554C53.2771 143.87 53.5695 143.869 54.0362 143.686C54.4729 143.516 54.8501 143.235 55.2402 142.989C56.0103 142.506 56.8894 142.12 57.7972 141.89C58.7006 141.661 59.5425 141.685 60.4418 141.679C59.9014 141.132 59.4132 140.473 59.0397 139.99Z" fill="#455A64"/>
<path d="M14.2086 155.883C14.1268 156.82 14.1045 157.767 14.4188 158.652C14.4731 158.804 14.5392 158.957 14.6534 159.077C14.8693 159.304 15.0885 159.196 15.321 159.297C15.577 159.409 15.5487 159.656 15.5633 159.95C15.6038 160.793 16.1904 161.592 17.014 161.928C17.1468 161.982 17.289 162.025 17.4332 162.016C17.6411 162.002 17.8335 161.881 18.0413 161.894C18.3302 161.912 18.5287 162.18 18.6105 162.442C18.6923 162.703 18.7049 162.986 18.8418 163.226C19.0918 163.664 19.669 163.824 20.192 163.897C20.3784 163.922 20.5785 163.94 20.747 163.86C20.869 163.803 20.9597 163.699 21.0768 163.633C21.3912 163.457 21.8623 163.645 21.9453 163.98C21.9854 164.143 21.9474 164.324 22.0296 164.472C22.1499 164.689 22.4566 164.728 22.7163 164.741C23.0424 164.757 23.3689 164.773 23.695 164.789C24.235 164.815 24.8812 164.793 25.1692 164.363C25.3057 164.158 25.326 163.902 25.4475 163.689C25.5694 163.477 25.8883 163.32 26.0778 163.483C26.1702 163.563 26.1969 163.691 26.2804 163.778C26.515 164.026 26.9415 163.798 27.1935 163.566C27.4167 163.361 27.6391 163.15 27.806 162.902C28.12 162.435 28.216 161.872 28.3051 161.326C28.6138 159.437 28.9209 157.541 28.9946 155.628C29.0315 154.667 29.0092 153.703 28.8954 152.747C28.8273 152.176 28.7876 151.547 28.5053 151.027C28.1633 150.396 27.3677 150.254 26.6782 150.191C24.6247 150.004 22.5263 149.821 20.519 150.269C19.4762 150.502 18.4825 150.901 17.5276 151.358C16.7296 151.74 15.9433 152.173 15.317 152.774C15.0395 153.041 14.7944 153.341 14.6287 153.68C14.3804 154.187 14.3204 154.754 14.2637 155.31C14.2446 155.5 14.2256 155.691 14.2086 155.883Z" fill="#455A64"/>
<path d="M19.2324 124.169C18.3407 124.156 18.4367 124.903 18.3885 127.828C18.3407 130.753 18.1341 138.283 18.1049 139.715C18.0758 141.146 17.5576 143.766 17.5187 144.634C17.4799 145.503 16.4865 148.49 15.5596 150.419C14.6328 152.349 12.7044 158.946 20.4886 162.431C28.2727 165.916 28.8687 156.073 28.8687 152.966C28.8687 149.859 29.3985 145.457 30.1265 141.932C30.8549 138.408 34.1889 129.685 34.6953 127.828C35.0405 126.561 34.1922 126.365 34.1922 126.365L33.9669 127.082C33.9669 127.082 32.3777 128.7 27.0809 128.015C21.7837 127.33 19.2016 124.903 19.2016 124.903L19.2324 124.169Z" fill="#E0E0E0"/>
<path opacity="0.05" d="M19.2324 124.169C18.3407 124.156 18.4367 124.903 18.3885 127.828C18.3407 130.753 18.1341 138.283 18.1049 139.715C18.0758 141.146 17.5576 143.766 17.5187 144.634C17.4799 145.503 16.4865 148.49 15.5596 150.419C14.6328 152.349 12.7044 158.946 20.4886 162.431C28.2727 165.916 28.8687 156.073 28.8687 152.966C28.8687 149.859 29.3985 145.457 30.1265 141.932C30.8549 138.408 34.1889 129.685 34.6953 127.828C35.0405 126.561 34.1922 126.365 34.1922 126.365L33.9669 127.082C33.9669 127.082 32.3777 128.7 27.0809 128.015C21.7837 127.33 19.2016 124.903 19.2016 124.903L19.2324 124.169Z" fill="black"/>
<path d="M21.414 141.384C22.334 141.328 23.2111 141.291 24.1206 141.465C25.0993 141.652 26.0477 141.98 26.9203 142.436C27.2735 142.621 27.6798 142.832 27.8921 143.17C28.1615 143.599 27.9946 144.142 27.9201 144.601C27.739 145.716 27.5324 146.835 27.2569 147.934C27.186 148.218 27.1244 148.274 26.8315 148.162C26.5678 148.061 26.3053 147.961 26.0371 147.872C25.517 147.699 24.9871 147.553 24.454 147.42C23.568 147.198 22.661 147.053 21.747 146.987C20.8311 146.921 19.9086 146.905 18.9935 146.989C18.5272 147.031 18.0638 147.1 17.6072 147.197C17.3856 147.245 16.6038 147.597 16.7257 147.195C17.0324 146.187 17.2256 145.148 17.3014 144.102C17.3257 143.766 17.3386 143.423 17.4496 143.102C17.9098 141.767 20.1529 141.462 21.414 141.384Z" fill="#BA68C8"/>
<path d="M27.3643 144.065C27.372 143.834 27.3671 143.585 27.2213 143.399C27.12 143.271 26.9641 143.191 26.8121 143.119C25.2367 142.371 23.4781 141.926 21.7143 141.985C20.1676 142.037 18.62 142.495 17.3804 143.357C17.3306 143.602 17.3184 143.853 17.3006 144.102C17.237 144.982 17.0851 145.856 16.8574 146.712C16.8651 146.71 16.874 146.71 16.8817 146.708C19.6972 146.147 22.6578 146.239 25.4279 146.974C25.7828 147.069 26.1352 147.173 26.4982 147.234C26.6003 147.251 26.7149 147.262 26.7992 147.206C26.8757 147.154 26.9049 147.062 26.928 146.976C27.1852 146.024 27.3319 145.046 27.3643 144.065Z" fill="#455A64"/>
<path d="M23.854 150.888C21.0924 150.174 17.8827 150.497 15.062 151.737C15.0215 151.874 14.9822 152.018 14.9453 152.167C16.6403 151.379 18.4916 150.937 20.3025 150.868C19.2743 153.394 18.2571 157.638 17.858 160.878C17.9666 160.963 18.0792 161.046 18.1947 161.129C18.5755 157.837 19.6348 153.399 20.6954 150.859C21.7479 150.85 22.7821 150.966 23.7576 151.218C23.8484 151.242 23.9334 151.274 24.023 151.3C24.0084 152.329 23.8869 159.044 23.1803 163.158C23.3055 163.165 23.4279 163.168 23.5474 163.166C24.2296 159.144 24.3645 152.735 24.3855 151.411C26.1923 152 27.6993 153.042 28.8223 154.466C28.8332 154.279 28.8417 154.099 28.8482 153.928C27.5754 152.45 25.8763 151.41 23.854 150.888Z" fill="#F0F0F0"/>
<path d="M18.3884 127.827C18.3847 128.045 18.3803 128.289 18.375 128.553C18.9126 128.929 19.5142 129.234 20.1157 129.493C21.2958 130 22.5464 130.387 23.7998 130.698C26.3917 131.343 29.1104 131.574 31.7618 131.13C32.4371 131.017 33.1039 130.858 33.7541 130.652C33.8457 130.39 33.9336 130.137 34.0162 129.9C33.9413 129.926 33.8688 129.958 33.7934 129.983C33.2344 130.168 32.6619 130.317 32.0822 130.433C30.8912 130.67 29.6702 130.757 28.4537 130.723C25.9084 130.652 23.368 130.057 21.0082 129.174C20.0627 128.82 19.182 128.379 18.3888 127.81C18.3888 127.816 18.3888 127.821 18.3884 127.827Z" fill="#BA68C8"/>
<path d="M29.7331 134.542C30.6742 134.443 31.6266 134.289 32.5563 134.073C32.6459 133.815 32.7346 133.559 32.8229 133.307C31.9313 133.529 31.0364 133.721 30.1164 133.84C28.9403 133.993 27.7493 134.051 26.5628 133.996C24.3655 133.895 22.1989 133.384 20.2253 132.468C19.7087 132.229 19.2072 131.962 18.7256 131.665C18.5858 131.579 18.4481 131.488 18.3107 131.394C18.3055 131.612 18.3002 131.832 18.2949 132.055C18.7089 132.33 19.1375 132.585 19.5803 132.817C20.5449 133.323 21.5755 133.717 22.6332 134.013C24.9245 134.655 27.3637 134.791 29.7331 134.542Z" fill="#BA68C8"/>
<path d="M22.8457 71.1221V73.4405C22.8457 73.4405 26.9065 78.1203 40.2921 78.5084C54.3161 78.9151 58.9449 72.3495 58.9449 72.3495V70.3467L22.8457 71.1221Z" fill="#455A64"/>
<path d="M40.9998 26.5023C33.9152 28.5282 30.2304 29.4474 25.1803 32.1628C20.5568 34.649 20.2878 39.2688 21.7134 52.1071C21.9398 54.1468 21.9022 58.6889 21.418 63.092C21.0085 66.8158 21.6473 69.9708 22.8452 71.1221C24.5945 72.5513 31.3643 77.1626 44.6097 75.8566C55.012 74.8308 58.8674 70.3463 58.8674 70.3463C60.7585 68.4617 60.5815 61.997 60.5025 52.8614C60.3866 39.4888 61.2961 29.0763 55.0651 25.6836C50.8856 23.4077 48.3282 24.4067 40.9998 26.5023Z" fill="#F0F0F0"/>
<path d="M60.5139 54.2996C60.5135 54.2372 60.5127 54.1757 60.5123 54.1133C49.913 61.6924 31.4044 60.0732 21.8398 54.6124V54.6128C21.8419 54.7529 21.8427 54.8988 21.8435 55.0446C21.8435 55.0503 21.8435 55.056 21.8435 55.0616C26.8632 57.8763 36.3998 59.6479 43.0922 59.6479C43.3588 59.6479 43.6249 59.6414 43.8915 59.6357C44.1994 63.9327 44.2087 69.765 43.9855 75.8891C44.1127 75.885 44.2403 75.8801 44.3687 75.8745C44.5911 69.7585 44.5818 63.9286 44.2747 59.6288C49.0874 59.4757 53.89 58.3726 58.1258 56.0602C58.2429 57.5004 58.7525 64.6834 57.9305 71.2862C58.1002 71.1481 58.2433 71.0213 58.3624 70.9078C59.1523 64.068 58.5714 56.7716 58.4932 55.8613C59.1839 55.47 59.8592 55.0466 60.5159 54.5881C60.5155 54.4929 60.5147 54.3956 60.5139 54.2996Z" fill="#E0E0E0"/>
<path d="M33.992 12.627C33.992 12.627 32.4615 12.8785 31.6196 14.917C31.1967 15.9411 30.9869 17.7609 32.8175 22.7518C33.9956 25.9639 35.1935 27.3056 35.7513 28.1795C36.3092 29.0533 37.3134 29.2242 37.3134 29.2242L36.8731 25.304L36.4915 22.5792C36.4915 22.5792 38.5166 20.3852 38.5361 18.4018C38.5612 15.8488 37.454 14.5002 37.454 14.5002L33.992 12.627Z" fill="#263238"/>
<path d="M33.4718 12.8043C32.2431 9.09473 40.2983 4.42425 44.4324 7.25838C45.9937 5.341 49.4339 6.40239 49.6635 8.47411C50.9417 7.94382 52.6869 9.87457 52.0346 11.3743C52.9935 11.0854 54.518 12.5937 53.5064 13.8718C52.776 14.7946 52.9583 15.6012 54.0764 15.8082C53.9176 17.1365 51.5372 17.2005 51.1535 16.1943C51.1021 16.9749 50.543 16.599 49.9552 16.0881C45.8831 15.8382 41.6602 16.2554 37.5403 16.2307C37.5403 16.2307 33.4807 12.8116 33.4718 12.8043Z" fill="#263238"/>
<path d="M33.8113 26.1997C35.5266 26.8215 36.1067 25.6479 36.1067 25.6479L36.2987 33.1951C39.8256 39.5067 49.088 38.4165 45.1949 33.1534L45.1633 30.8831C45.1633 30.8831 46.8238 30.8681 47.9006 30.679C49.6972 30.3691 51.1617 29.0772 51.6713 27.1108C52.4232 24.2017 52.3219 19.549 51.1666 14.6298C50.9438 13.6802 50.52 12.646 49.643 12.2255C47.4663 11.1819 45.4886 12.7566 42.4936 13.9768C41.2532 14.4823 38.2315 14.738 37.4286 14.373C38.4956 15.5235 37.9301 18.5496 37.6639 19.5085C37.2799 20.892 36.9546 21.4457 36.6702 21.513C35.8425 21.7095 35.5578 20.623 34.8302 20.2985C34.0965 19.9711 32.5369 19.7212 31.7092 21.6633C31.1883 22.8883 31.8389 25.4847 33.8113 26.1997Z" fill="#C8856A"/>
<path d="M42.7825 30.6345C37.9706 29.7453 36.8477 27.332 36.8477 27.332C37.192 29.9555 41.2824 32.1727 45.1783 31.9875L45.1629 30.8836C45.1629 30.8836 44.7286 30.9938 42.7825 30.6345Z" fill="#AF6152"/>
<path d="M43.0385 16.7014L41.1094 17.6959C40.8464 17.1405 41.0652 16.4672 41.5979 16.1926C42.1306 15.9179 42.7756 16.146 43.0385 16.7014Z" fill="#263238"/>
<path d="M50.1139 17.1208L48.0977 16.277C48.3103 15.7046 48.9342 15.4295 49.4908 15.6624C50.0478 15.8954 50.327 16.5484 50.1139 17.1208Z" fill="#263238"/>
<path d="M43.4391 24.6787L46.5078 25.1644C46.4053 26.0277 45.6352 26.6184 44.7881 26.4839C43.9406 26.3498 43.3366 25.5416 43.4391 24.6787Z" fill="#AF6152"/>
<path d="M45.3782 26.4585C45.1939 25.7524 44.5489 25.2388 43.7914 25.2586C43.6869 25.2614 43.5848 25.2756 43.4863 25.2975C43.6504 25.8987 44.1499 26.3824 44.7883 26.4833C44.9925 26.5157 45.1914 26.5039 45.3782 26.4585Z" fill="#FFA8A7"/>
<path d="M42.0187 19.2252C42.043 19.7146 42.4574 20.0914 42.9448 20.0675C43.4321 20.0431 43.8072 19.6271 43.7829 19.1377C43.7586 18.6484 43.3442 18.2716 42.8569 18.2955C42.3699 18.3198 41.9944 18.7359 42.0187 19.2252Z" fill="#263238"/>
<path d="M48.2596 18.8995C48.2839 19.3889 48.6983 19.7661 49.1857 19.7418C49.6726 19.7175 50.0481 19.3014 50.0238 18.812C49.9995 18.3227 49.5851 17.9459 49.0982 17.9698C48.5375 17.9978 48.2316 18.3369 48.2596 18.8995Z" fill="#263238"/>
<path d="M45.668 17.4438L46.0395 23.2288L48.8408 22.2456C48.0905 19.9737 46.8643 18.536 45.668 17.4438Z" fill="#AF6152"/>
<path d="M61.517 45.1497C61.5081 44.6805 61.3607 44.3638 61.1269 44.1952L61.135 44.1879L59.4311 42.9795C59.4311 42.9795 59.4251 42.986 59.4238 42.9872C59.1314 42.7773 58.7011 42.8041 58.2029 43.1128C55.0179 45.0877 51.1807 46.267 46.4353 47.0144C45.3917 47.1788 44.5706 48.1406 44.6066 49.1963L44.7816 54.3416C44.8015 54.9261 45.0818 55.4252 45.5047 55.7291V55.7307L47.2264 56.9513C47.5643 57.1862 47.9905 57.298 48.4478 57.2312C53.1244 56.5482 57.314 55.0671 60.0663 53.4686C60.9799 52.9379 61.6406 51.5528 61.6203 50.4963L61.517 45.1497Z" fill="#BA68C8"/>
<path opacity="0.2" d="M44.6066 49.1964L44.7816 54.3417C44.8014 54.9262 45.0818 55.4253 45.5047 55.7292V55.7308L47.2264 56.9514C47.273 56.9838 47.3244 57.0077 47.3743 57.0348V49.802L44.9505 48.0066C44.7245 48.3574 44.592 48.7674 44.6066 49.1964Z" fill="black"/>
<path d="M59.9056 44.32C56.7206 46.2949 52.8834 47.4741 48.1384 48.2216C47.0948 48.386 46.2737 49.3478 46.3097 50.4035L46.4847 55.5488C46.5208 56.6049 47.4031 57.3839 48.4487 57.2312C53.1253 56.5482 57.3149 55.0675 60.0672 53.4685C60.9807 52.9378 61.6415 51.5528 61.6212 50.4963L61.5183 45.1492C61.4977 44.0935 60.8033 43.7634 59.9056 44.32Z" fill="#BA68C8"/>
<path opacity="0.3" d="M59.9056 44.32C56.7206 46.2949 52.8834 47.4741 48.1384 48.2216C47.0948 48.386 46.2737 49.3478 46.3097 50.4035L46.4847 55.5488C46.5208 56.6049 47.4031 57.3839 48.4487 57.2312C53.1253 56.5482 57.3149 55.0675 60.0672 53.4685C60.9807 52.9378 61.6415 51.5528 61.6212 50.4963L61.5183 45.1492C61.4977 44.0935 60.8033 43.7634 59.9056 44.32Z" fill="white"/>
<path d="M48.7406 56.0623C48.7378 55.9007 48.7398 55.7395 48.7317 55.5778C48.7252 55.4441 48.7131 55.3105 48.7098 55.1768C48.6957 54.5647 48.6754 53.9529 48.6503 53.3412C48.6256 52.7453 48.5956 52.1494 48.5608 51.5539C48.5413 51.2249 48.5166 50.896 48.4907 50.5675C48.4635 50.2272 48.4558 49.8545 48.3517 49.5296C48.3007 49.37 47.96 49.3307 47.9349 49.5271C47.8607 50.1182 47.9612 50.7611 47.9944 51.3546C48.0268 51.9339 48.0605 52.5128 48.0864 53.0925C48.1115 53.6564 48.1318 54.2203 48.1475 54.7846C48.1557 55.0666 48.1621 55.3489 48.1678 55.6309C48.1719 55.8306 48.1078 56.1624 48.2699 56.3127C48.3732 56.4087 48.5182 56.4322 48.6414 56.3512C48.7171 56.3014 48.7414 56.2487 48.7422 56.1563C48.7422 56.145 48.7423 56.1336 48.7418 56.1223C48.741 56.1029 48.7406 56.0826 48.7406 56.0623ZM50.4344 55.6856C50.4315 55.524 50.4336 55.3627 50.4255 55.2011C50.419 55.0674 50.4068 54.9337 50.4036 54.8C50.389 54.1879 50.3692 53.5762 50.344 52.9645C50.3193 52.3686 50.2894 51.7727 50.2541 51.1772C50.2347 50.8482 50.21 50.5192 50.1836 50.1907C50.1565 49.8504 50.1492 49.4777 50.0447 49.1528C49.9936 48.9932 49.6525 48.9539 49.6278 49.1504C49.5537 49.7414 49.6541 50.3844 49.6874 50.9778C49.7198 51.5571 49.7538 52.136 49.7793 52.7157C49.8044 53.2797 49.8247 53.8436 49.8405 54.4079C49.8482 54.6898 49.8551 54.9722 49.8608 55.2542C49.8648 55.4539 49.8008 55.7857 49.9628 55.936C50.0665 56.032 50.2112 56.0555 50.3343 55.9744C50.4101 55.9246 50.4344 55.8719 50.4352 55.7796C50.4352 55.7682 50.4352 55.7569 50.4348 55.7456C50.4352 55.7261 50.4348 55.7059 50.4344 55.6856ZM52.2083 55.3323C52.2079 55.3121 52.2075 55.2922 52.2071 55.272C52.2043 55.1103 52.2063 54.9491 52.1982 54.7875C52.1917 54.6538 52.1796 54.5201 52.1764 54.3864C52.1618 53.7743 52.1419 53.1626 52.1168 52.5509C52.0921 51.955 52.0621 51.359 52.0269 50.7635C52.0074 50.4346 51.9827 50.1056 51.9568 49.7771C51.9296 49.4368 51.9219 49.0641 51.8178 48.7392C51.7668 48.5796 51.4257 48.5403 51.401 48.7368C51.3268 49.3278 51.4273 49.9707 51.4605 50.5642C51.4929 51.1435 51.527 51.7224 51.5525 52.3021C51.5776 52.866 51.5979 53.43 51.6137 53.9943C51.6214 54.2762 51.6282 54.5586 51.6339 54.8405C51.638 55.0403 51.574 55.372 51.736 55.5223C51.8397 55.6183 51.9843 55.6418 52.1075 55.5608C52.1832 55.511 52.2075 55.4583 52.2083 55.366C52.2088 55.355 52.2083 55.3437 52.2083 55.3323Z" fill="#BA68C8"/>
<g opacity="0.2">
<path d="M51.8951 55.0305C51.8922 54.8689 51.8943 54.7076 51.8862 54.546C51.8797 54.4123 51.8675 54.2786 51.8643 54.1449C51.8497 53.5328 51.8299 52.9211 51.8047 52.3094C51.78 51.7135 51.7501 51.1176 51.7148 50.5221C51.6954 50.1931 51.6707 49.8642 51.6443 49.5356C51.62 49.233 51.6079 48.9069 51.5329 48.6091C51.4657 48.6221 51.411 48.6626 51.4017 48.7371C51.3275 49.3282 51.428 49.9711 51.4612 50.5646C51.4936 51.1439 51.5277 51.7228 51.5532 52.3025C51.5783 52.8664 51.5985 53.4303 51.6143 53.9946C51.622 54.2766 51.6289 54.5589 51.6346 54.8409C51.6374 54.9859 51.6067 55.1994 51.6504 55.3639C51.6994 55.3615 51.7488 55.3501 51.795 55.3193C51.8708 55.2695 51.8951 55.2172 51.8959 55.1245C51.8959 55.1131 51.8959 55.1018 51.8955 55.0904C51.8959 55.0706 51.8955 55.0503 51.8951 55.0305Z" fill="black"/>
<path d="M48.4279 55.821C48.4251 55.6594 48.4271 55.4982 48.419 55.3365C48.4125 55.2028 48.4003 55.0691 48.3971 54.9355C48.3829 54.3233 48.3627 53.7116 48.3375 53.0999C48.3128 52.504 48.2829 51.9081 48.248 51.3126C48.2286 50.9836 48.2039 50.6547 48.1775 50.3261C48.1532 50.0235 48.1411 49.6974 48.0661 49.3997C47.9989 49.4126 47.9442 49.4531 47.9349 49.5277C47.8607 50.1187 47.9612 50.7616 47.9944 51.3551C48.0268 51.9344 48.0605 52.5133 48.0864 53.093C48.1115 53.6569 48.1318 54.2208 48.1475 54.7852C48.1557 55.0671 48.1621 55.3495 48.1678 55.6314C48.1706 55.7765 48.1399 55.99 48.1836 56.1544C48.2326 56.152 48.2821 56.1407 48.3286 56.1099C48.4044 56.06 48.4287 56.0074 48.4295 55.915C48.4295 55.9037 48.4295 55.8923 48.4291 55.881C48.4287 55.8611 48.4283 55.8409 48.4279 55.821Z" fill="black"/>
<path d="M50.1212 55.4446C50.1184 55.283 50.1204 55.1218 50.1123 54.9601C50.1059 54.8264 50.0937 54.6928 50.0905 54.5591C50.0759 53.947 50.056 53.3352 50.0309 52.7235C50.0062 52.1276 49.9762 51.5317 49.941 50.9366C49.9215 50.6077 49.8968 50.2787 49.8709 49.9502C49.8466 49.6475 49.8344 49.3214 49.7595 49.0237C49.6922 49.0366 49.6375 49.0772 49.6282 49.1517C49.5541 49.7427 49.6546 50.3857 49.6878 50.9791C49.7202 51.5584 49.7542 52.1373 49.7797 52.717C49.8049 53.281 49.8251 53.8449 49.8409 54.4092C49.8486 54.6911 49.8555 54.9735 49.8612 55.2555C49.864 55.4005 49.8332 55.614 49.877 55.7785C49.926 55.776 49.9754 55.7647 50.0216 55.7339C50.0973 55.6841 50.1217 55.6314 50.1225 55.539C50.1225 55.5277 50.1225 55.5163 50.1221 55.505C50.1221 55.4847 50.1216 55.4645 50.1212 55.4446Z" fill="black"/>
</g>
<path d="M56.1344 48.067C56.3175 48.1727 56.4305 48.3992 56.4305 48.7217C56.4305 49.3662 55.978 50.1505 55.4193 50.4725C55.1402 50.6338 54.8874 50.6492 54.7043 50.5434C54.5933 50.4794 54.1708 50.2356 54.0598 50.1711C53.8767 50.0654 53.7637 49.839 53.7637 49.5165C53.7637 48.8716 54.2162 48.0877 54.7748 47.7652C55.0539 47.604 55.3067 47.589 55.4898 47.6943C55.6008 47.7591 56.0234 48.003 56.1344 48.067Z" fill="#263238"/>
<path d="M55.4194 50.4727C55.1402 50.634 54.8875 50.6494 54.7043 50.5436C54.5212 50.4379 54.4082 50.2114 54.4082 49.889C54.4082 49.244 54.8607 48.4602 55.4194 48.1377C55.6985 47.9765 55.9513 47.9611 56.1344 48.0668C56.3175 48.1725 56.4305 48.399 56.4305 48.7215C56.4305 49.366 55.9776 50.1503 55.4194 50.4727Z" fill="#455A64"/>
<path d="M60.2476 46.5347C60.4307 46.6405 60.5438 46.8669 60.5438 47.1894C60.5438 47.8339 60.0913 48.6182 59.5326 48.9403C59.2535 49.1015 59.0007 49.1169 58.8176 49.0111C58.7066 48.9471 58.2841 48.7029 58.1731 48.6388C57.99 48.5331 57.877 48.3067 57.877 47.9842C57.877 47.3393 58.3294 46.5554 58.8881 46.2329C59.1672 46.0717 59.42 46.0563 59.6031 46.162C59.7141 46.2268 60.1366 46.4707 60.2476 46.5347Z" fill="#E0E0E0"/>
<path d="M59.5326 48.9403C59.2535 49.1015 59.0007 49.1169 58.8176 49.0112C58.6345 48.9054 58.5215 48.679 58.5215 48.3565C58.5215 47.712 58.974 46.9277 59.5326 46.6052C59.8118 46.444 60.0645 46.4286 60.2477 46.5343C60.4308 46.6401 60.5438 46.8665 60.5438 47.189C60.5438 47.8339 60.0909 48.6178 59.5326 48.9403Z" fill="#F5F5F5"/>
<path d="M56.1344 52.1141C56.3175 52.2199 56.4305 52.4463 56.4305 52.7688C56.4305 53.4133 55.978 54.1976 55.4193 54.5197C55.1402 54.6809 54.8874 54.6963 54.7043 54.5906C54.5933 54.5266 54.1708 54.2827 54.0598 54.2183C53.8767 54.1125 53.7637 53.8861 53.7637 53.5636C53.7637 52.9187 54.2162 52.1348 54.7748 51.8123C55.0539 51.6511 55.3067 51.6361 55.4898 51.7414C55.6008 51.8063 56.0234 52.0501 56.1344 52.1141Z" fill="#263238"/>
<path d="M55.4194 54.5197C55.1402 54.6809 54.8875 54.6963 54.7043 54.5906C54.5212 54.4848 54.4082 54.2584 54.4082 53.9359C54.4082 53.291 54.8607 52.5071 55.4194 52.1846C55.6985 52.0234 55.9513 52.0084 56.1344 52.1138C56.3175 52.2195 56.4305 52.4459 56.4305 52.7684C56.4305 53.4133 55.9776 54.1972 55.4194 54.5197Z" fill="#455A64"/>
<path d="M60.2476 50.5816C60.4307 50.6873 60.5438 50.9138 60.5438 51.2362C60.5438 51.8812 60.0913 52.6651 59.5326 52.9871C59.2535 53.1484 59.0007 53.1638 58.8176 53.058C58.7066 52.994 58.2841 52.7497 58.1731 52.6857C57.99 52.58 57.877 52.3535 57.877 52.0311C57.877 51.3861 58.3294 50.6023 58.8881 50.2798C59.1672 50.1186 59.42 50.1032 59.6031 50.2089C59.7141 50.2733 60.1366 50.5172 60.2476 50.5816Z" fill="#263238"/>
<path d="M59.5326 52.9871C59.2535 53.1484 59.0007 53.1638 58.8176 53.058C58.6345 52.9523 58.5215 52.7259 58.5215 52.4034C58.5215 51.7585 58.974 50.9746 59.5326 50.6521C59.8118 50.4909 60.0645 50.4755 60.2477 50.5812C60.4308 50.6869 60.5438 50.9134 60.5438 51.2359C60.5438 51.8808 60.0909 52.6647 59.5326 52.9871Z" fill="#455A64"/>
<path d="M45.1777 50.0508C43.3993 50.1168 41.3458 50.464 41.3458 54.6577C41.3458 59.4145 35.044 60.665 29.3417 59.2119C23.6398 57.7584 21.8435 55.3735 21.8435 55.3735C21.852 54.4989 21.8342 53.6688 21.7771 52.9072C21.7771 52.9072 20.4033 53.1742 20.2356 55.7871C20.0679 58.4001 24.0052 60.6184 28.9159 61.8945C33.8266 63.1706 39.9381 62.0533 41.9186 59.7466C43.4763 57.9326 43.7412 55.687 43.7995 54.5455C43.8664 53.2398 43.8052 52.0707 45.1777 52.1906C45.8591 51.9755 45.8765 50.3068 45.1777 50.0508Z" fill="#455A64"/>
<path d="M33.7025 65.5641C33.3821 65.7492 33.1836 66.1462 33.1836 66.7113C33.1836 67.8412 33.9768 69.2153 34.9555 69.7804C35.4449 70.0628 35.8877 70.0895 36.2085 69.9044C36.4034 69.7922 36.6242 69.6621 36.819 69.5499C37.1399 69.3648 37.338 68.9678 37.338 68.4026C37.338 67.2724 36.5448 65.8987 35.566 65.3335C35.0767 65.0508 34.6339 65.0244 34.313 65.2096C34.1186 65.3218 33.8974 65.4518 33.7025 65.5641Z" fill="#BA68C8"/>
<path opacity="0.3" d="M33.7025 65.5641C33.3821 65.7492 33.1836 66.1462 33.1836 66.7113C33.1836 67.8412 33.9768 69.2153 34.9555 69.7804C35.4449 70.0628 35.8877 70.0895 36.2085 69.9044C36.4034 69.7922 36.6242 69.6621 36.819 69.5499C37.1399 69.3648 37.338 68.9678 37.338 68.4026C37.338 67.2724 36.5448 65.8987 35.566 65.3335C35.0767 65.0508 34.6339 65.0244 34.313 65.2096C34.1186 65.3218 33.8974 65.4518 33.7025 65.5641Z" fill="white"/>
<path d="M34.9555 69.7801C35.4449 70.0624 35.8877 70.0892 36.2085 69.904C36.5294 69.7189 36.7275 69.3219 36.7275 68.7568C36.7275 67.6269 35.9343 66.2528 34.9555 65.6877C34.4662 65.4053 34.0234 65.3786 33.7025 65.5637C33.3817 65.7488 33.1836 66.1458 33.1836 66.711C33.1836 67.8412 33.9772 69.2153 34.9555 69.7801Z" fill="#BA68C8"/>
<path d="M35.3388 67.4607C35.2071 67.1978 34.8713 66.6918 34.4751 66.5982C33.5729 66.7428 31.2427 66.8838 27.897 66.1007C23.2184 65.0057 21.5064 62.1995 21.5064 62.1995C21.5817 61.3634 21.6486 60.6585 21.6935 59.8621C21.6935 59.8621 20.3198 60.129 20.1521 62.742C19.9844 65.3549 22.6071 67.2294 27.4598 68.71C29.1176 69.2156 32.9013 69.5794 35.4218 69.2869C35.6268 69.0216 35.6495 68.7939 35.6495 68.5156C35.6495 68.1502 35.5021 67.7868 35.3388 67.4607Z" fill="#455A64"/>
<path d="M24.8982 32.3203C17.2469 34.3892 15.656 36.3442 12.879 40.3447C10.5958 43.6334 5.08433 51.9948 2.11124 57.6396C-0.358299 62.3287 -0.431218 64.3348 0.715238 66.2979C3.21799 70.5836 12.7542 78.9434 12.7542 78.9434C12.7542 78.9434 15.9027 79.2338 19.0934 76.8773C22.284 74.5208 21.2753 72.4827 21.2753 72.4827L15.0403 63.7956C15.0403 63.7956 22.6818 53.8194 24.3496 51.789C26.0179 49.7582 29.9288 39.2938 24.8982 32.3203Z" fill="#E6E6E6"/>
<path d="M20.9947 72.3954C22.0735 73.3762 22.6541 73.5714 22.6541 73.5714C22.2587 73.9397 21.9022 74.51 21.777 75.1858C21.777 75.1858 22.7193 78.9545 28.3705 82.1415C29.0604 82.5308 29.8605 82.7726 30.3872 83.3641C30.5269 83.5213 30.6497 83.706 30.6728 83.915C30.7088 84.246 30.4836 84.5563 30.2093 84.7459C29.9403 84.9319 29.6154 85.0352 29.2889 85.0396C28.9677 85.0437 28.5613 84.9955 28.409 85.2782C28.3616 85.3665 28.3535 85.4698 28.3292 85.5671C28.23 85.9701 27.8617 86.2521 27.4817 86.419C26.9215 86.6653 26.2838 86.7322 25.6847 86.6074C25.5429 86.5778 25.3958 86.5377 25.2553 86.5729C25.1601 86.5964 25.077 86.6528 24.9931 86.703C24.3239 87.1036 23.4971 87.1709 22.7274 87.0465C21.8297 86.9015 20.887 86.5482 20.0601 86.1828C19.5404 85.9531 19.0506 85.6623 18.6005 85.3151C17.3014 84.3133 16.3425 82.9172 15.5193 81.5176C15.3917 81.3001 15.2641 80.9087 15.0802 80.7426L10.3906 76.5141C10.3906 76.5141 10.5693 73.2777 13.2077 70.8746C15.8458 68.4719 17.9054 68.3589 17.9054 68.3589C17.9054 68.3589 20.112 71.3166 20.9947 72.3954Z" fill="#455A64"/>
<path opacity="0.2" d="M15.0415 63.7952C12.7761 60.7743 9.31287 59.7469 5.77344 60.0131C8.89398 58.6049 13.2655 59.2478 16.0466 62.4846L15.0415 63.7952Z" fill="black"/>
<path d="M22.19 73.3154L16.4958 65.6596C16.4958 65.6596 14.3414 64.5411 10.6517 68.2118C6.94742 71.8971 8.01892 75.1558 8.01892 75.1558L15.2448 81.1534C15.7395 76.4375 17.7654 73.7399 22.19 73.3154Z" fill="#F0F0F0"/>
<path d="M20.826 71.4849L20.4201 70.9392C19.1675 71.1965 17.9571 71.7316 16.9496 72.4717C15.1849 73.7677 14.2698 75.7717 13.8019 77.8625C13.6641 78.4779 13.5766 79.1042 13.5312 79.7329L14.1462 80.2433C14.1494 80.1631 14.1474 80.0829 14.1519 80.0027C14.1835 79.4335 14.2532 78.8664 14.3601 78.3061C14.5663 77.2257 14.9102 76.1457 15.4223 75.1693C16.2759 73.5424 17.7962 72.4251 19.5078 71.824C19.9409 71.6733 20.3816 71.5692 20.826 71.4849Z" fill="#BA68C8"/>
<path d="M12.2785 76.3063C12.4847 75.2258 12.8286 74.1458 13.3407 73.1695C14.1942 71.5426 15.7146 70.4253 17.4262 69.8241C18.0294 69.6123 18.6484 69.4883 19.2731 69.3943L18.8663 68.8474C17.4278 69.0488 16.016 69.6277 14.8671 70.4711C13.1024 71.767 12.1873 73.7711 11.7194 75.8619C11.5715 76.5218 11.4763 77.193 11.435 77.868C11.4326 77.9064 11.4302 77.9465 11.4277 77.9858L12.0577 78.5084C12.0609 78.3395 12.0605 78.1706 12.0698 78.002C12.1014 77.4333 12.1711 76.8661 12.2785 76.3063Z" fill="#BA68C8"/>
<path d="M10.0507 74.4721C10.2569 73.3917 10.6008 72.3117 11.1129 71.3354C11.9664 69.7084 13.4868 68.5912 15.1984 67.99C16.0528 67.6902 16.9367 67.5598 17.8288 67.454L17.4455 66.9387C15.7364 67.0031 14.0033 67.6355 12.6397 68.6369C10.8751 69.9329 9.95994 71.9369 9.49204 74.0277C9.34458 74.6876 9.24938 75.3589 9.20766 76.0338C9.20563 76.0682 9.2032 76.1039 9.20117 76.1387L9.8303 76.6609C9.83354 76.4964 9.83314 76.332 9.84205 76.1679C9.87365 75.5991 9.94373 75.032 10.0507 74.4721Z" fill="#BA68C8"/>
<path opacity="0.2" d="M13.1719 39.9202C16.0546 42.5643 19.6811 44.2605 19.6811 44.2605L17.3416 47.5945C17.3416 47.5945 13.5446 46.1637 10.9102 43.253L13.1719 39.9202Z" fill="black"/>
<path d="M8.57933 46.0144C8.55988 46.0359 8.54084 46.0578 8.5218 46.0796C7.86188 46.8388 7.38953 47.7823 7.29716 48.7841C7.24328 49.3687 7.32957 49.9537 7.83677 50.3138C8.71545 50.9377 10.0377 50.4512 10.775 49.8172C11.6059 49.1026 12.1131 47.9273 12.2184 46.8546C12.2577 46.4552 12.2431 46.0383 12.077 45.6729C11.7663 44.9899 10.9302 44.7906 10.2459 44.9397C9.58886 45.0831 9.02981 45.5133 8.57933 46.0144Z" fill="#BA68C8"/>
<path d="M55.0071 26.9609C50.544 17.8679 29.0271 18.0238 25.1579 27.4369C24.893 28.0818 24.737 28.7681 24.6852 29.4637C24.6394 30.0758 24.6406 30.7235 24.6783 31.3089C24.7261 32.0503 24.878 32.7831 25.1612 33.4698C29.1025 43.0315 51.2748 43.0344 55.2186 33.4702C55.5017 32.7831 55.6536 32.0499 55.7014 31.3081C55.7326 30.8224 55.7387 30.2937 55.714 29.778C55.6662 28.8009 55.4381 27.8392 55.0071 26.9609Z" fill="#455A64"/>
<path d="M33.1602 39.6564C39.3174 41.2943 43.5176 41.0828 46.6328 41.0618C52.18 41.0245 53.2134 40.6283 54.1897 38.6384C55.2624 36.4516 55.3487 34.0899 55.6514 31.8115C53.6813 35.9416 45.3993 42.2143 33.1602 39.6564Z" fill="#455A64"/>
<path d="M32.4044 37.1705C32.4121 37.8386 32.2902 38.2003 32.1829 38.52C32.1002 38.7655 32.0277 38.9862 32.0431 39.2824C32.1043 39.3047 32.1662 39.3257 32.2278 39.3476C32.1954 39.0482 32.2635 38.8441 32.353 38.5771C32.4595 38.2607 32.592 37.8669 32.5839 37.1685C32.575 36.4065 32.7354 35.7827 33.5452 35.2159L33.4419 35.0688C32.5677 35.6806 32.3951 36.3514 32.4044 37.1705Z" fill="#37474F"/>
<path d="M40.1901 37.8591C36.3675 37.8591 32.5449 37.0189 29.6346 35.3389C26.798 33.7015 25.2363 31.5188 25.2363 29.193C25.2363 26.8673 26.7984 24.6846 29.6346 23.0471C35.4548 19.6868 44.9246 19.6868 50.7448 23.0471C53.5813 24.6846 55.143 26.8673 55.143 29.193C55.143 31.5183 53.5809 33.7011 50.7448 35.3389C47.8353 37.0189 44.0123 37.8591 40.1901 37.8591ZM40.1897 20.704C36.3999 20.704 32.6101 21.5369 29.7245 23.2023C26.9463 24.8065 25.4158 26.9337 25.4158 29.1926C25.4158 31.4515 26.9459 33.5787 29.7245 35.183C35.4949 38.5146 44.8845 38.5146 50.6552 35.183C53.4335 33.5787 54.964 31.4511 54.964 29.1926C54.964 26.9337 53.4339 24.8065 50.6552 23.2023C47.77 21.5369 43.9799 20.704 40.1897 20.704Z" fill="#37474F"/>
<path d="M54.5036 26.4053V28.4057C54.5036 30.5204 53.106 32.6346 50.3103 34.2482C44.721 37.4765 35.6576 37.4765 30.0683 34.2482C27.273 32.635 25.875 30.5204 25.875 28.4057V26.4053C25.875 28.5199 27.2726 30.6362 30.0683 32.2494C35.6576 35.476 44.721 35.476 50.3103 32.2494C53.106 30.6362 54.5036 28.5216 54.5036 26.4053Z" fill="#F0F0F0"/>
<path d="M44.5664 36.275C45.3146 36.1364 46.0475 35.9614 46.7556 35.7503V33.7495C46.0475 33.9606 45.3146 34.1344 44.5664 34.2729V36.275Z" fill="#FAFAFA"/>
<path d="M53.8723 28.834C53.2088 30.0837 52.0234 31.2606 50.311 32.249C50.1777 32.326 50.0412 32.3993 49.9043 32.4723V34.4735C50.0412 34.4002 50.1781 34.3244 50.311 34.2474C52.0234 33.259 53.2092 32.0821 53.8723 30.8328V28.834Z" fill="#E0E0E0"/>
<path d="M40.4463 34.6658C36.6979 34.7043 32.9283 33.9006 30.0683 32.2494C27.273 30.6362 25.875 28.5195 25.875 26.4053V28.4057C25.875 30.5204 27.2726 32.6346 30.0683 34.2482C32.9283 35.9002 36.6979 36.7068 40.4463 36.6683V34.6658Z" fill="#E0E0E0"/>
<path d="M30.3262 34.3938C32.1325 35.3871 34.2768 36.0543 36.5397 36.3975V34.3954C34.2768 34.0523 32.133 33.3843 30.3262 32.3914V34.3938Z" fill="#F5F5F5"/>
<path d="M54.787 25.6633C54.787 23.5069 53.3618 21.3501 50.5119 19.7046C44.812 16.4139 35.5707 16.4139 29.8708 19.7046C27.0209 21.3501 25.5957 23.5065 25.5957 25.6633C25.5957 25.793 25.5957 26.3103 25.5957 26.4399C25.5957 28.5963 27.0209 30.7531 29.8708 32.3986C35.5707 35.6893 44.812 35.6897 50.5119 32.3986C53.3618 30.7531 54.787 28.5967 54.787 26.4403C54.787 26.3103 54.787 25.7926 54.787 25.6633Z" fill="#37474F"/>
<path d="M29.8704 31.6213C35.5703 34.912 44.8116 34.912 50.5115 31.6213C53.3614 29.9758 54.7866 27.8194 54.7866 25.6626C54.7866 23.5062 53.3614 21.3494 50.5115 19.7039C44.8116 16.4132 35.5703 16.4132 29.8704 19.7039C27.0205 21.3494 25.5957 23.5058 25.5957 25.6626C25.5957 27.8194 27.0209 29.9758 29.8704 31.6213Z" fill="#455A64"/>
<path d="M35.1329 34.6411C33.9411 34.4244 32.8088 34.0703 31.8094 33.5789C31.6996 33.525 31.6016 33.523 31.5303 33.5643C31.4736 33.5971 31.2629 33.7203 31.2062 33.7527C31.1329 33.7948 31.0879 33.8831 31.0879 34.0083V34.0229C31.0879 34.2708 31.2637 34.5698 31.4861 34.6792C32.4855 35.171 33.6178 35.5255 34.8096 35.7422C34.9048 35.7596 34.9927 35.7434 35.0648 35.7029C35.1232 35.6701 35.3379 35.5437 35.393 35.5125C35.5036 35.4493 35.5757 35.3286 35.5757 35.1795V35.1641C35.5761 34.9162 35.3772 34.6857 35.1329 34.6411Z" fill="#37474F"/>
<path d="M31.4865 34.6793C32.4859 35.1711 33.6182 35.5255 34.81 35.7423C35.0539 35.7868 35.2532 35.6151 35.2532 35.3672V35.3518C35.2532 35.1038 35.0543 34.8733 34.81 34.8288C33.6182 34.612 32.4859 34.258 31.4865 33.7666C31.2641 33.6572 31.0879 33.7605 31.0879 34.0084V34.023C31.0879 34.2709 31.2637 34.5699 31.4865 34.6793Z" fill="#455A64"/>
<path d="M53.6268 23.4501C53.6268 23.4517 53.6268 23.4537 53.6268 23.4537C53.6268 25.4388 52.3135 27.4222 49.6924 28.9369C44.4446 31.9659 35.9362 31.9659 30.6884 28.9369C28.0653 27.4206 26.752 25.4355 26.752 23.4501C26.752 21.4647 28.0633 19.4796 30.6884 17.9653C35.9362 14.9347 44.4446 14.9347 49.6924 17.9653C52.3151 19.4796 53.6268 21.4651 53.6268 23.4501Z" fill="#263238"/>
<path d="M53.6268 23.4501C53.6268 23.4517 53.6268 23.4537 53.6268 23.4537C53.6268 25.4388 52.3135 27.4222 49.6924 28.9369C44.4446 31.9659 35.9362 31.9659 30.6884 28.9369C28.0653 27.4206 26.752 25.4355 26.752 23.4501C26.752 21.4647 28.0633 19.4796 30.6884 17.9653C35.9362 14.9347 44.4446 14.9347 49.6924 17.9653C52.3151 19.4796 53.6268 21.4651 53.6268 23.4501Z" fill="#455A64"/>
<path d="M54.1029 24.2585C54.1114 24.2455 54.1223 24.2301 54.1296 24.2188C54.0057 24.4424 53.874 24.6623 53.7383 24.8819C53.8663 24.6785 53.9834 24.4675 54.1029 24.2585Z" fill="#455A64"/>
<path d="M56.2029 16.3506C56.2029 19.1952 55.4591 21.8694 54.1547 24.1841C54.1397 24.2105 54.1154 24.251 54.1004 24.2777C53.801 24.7298 52.6116 26.1777 49.2849 27.3266C45.2986 28.7007 40.3218 28.0975 40.3218 28.0975L37.9094 24.351L32.0179 21.8908C32.1739 21.4914 32.2578 21 32.2578 20.4369C32.2578 19.1989 31.8462 17.8527 31.1992 16.7225C31.9981 15.3483 33.2005 10.7151 41.8515 6.52549C46.0335 4.50035 51.4137 5.5111 52.8316 6.52549H52.8356C54.9446 9.23728 56.2029 12.6483 56.2029 16.3506Z" fill="#455A64"/>
<path d="M52.7949 6.4729C52.8072 6.48882 52.819 6.50923 52.8313 6.52515H52.8353C52.8231 6.50923 52.8072 6.48882 52.7949 6.4729Z" fill="#F0F0F0"/>
<path d="M54.1538 24.1835C53.9452 24.5238 52.8186 26.1049 49.2824 27.3247C45.2982 28.6993 40.3234 28.0956 40.3234 28.0956L37.9094 24.35L32.0175 21.891C32.1718 21.4895 32.2573 21.0002 32.2573 20.4351C32.2573 19.197 31.8465 17.8525 31.1992 16.7226C31.9956 15.3477 33.198 10.7133 41.8503 6.52567C46.0391 4.49851 51.4206 5.50845 52.8344 6.52567C49.9067 2.76262 45.3354 0.340484 40.1987 0.337649C31.5427 0.333192 24.3804 7.32211 24.1839 15.976C24.1094 19.2534 25.0209 22.3131 26.6413 24.8807C26.7134 24.9954 26.7531 25.127 26.7531 25.2623C26.7531 27.2473 28.0665 29.2328 30.6896 30.7491C35.9373 33.7781 44.4458 33.7781 49.6936 30.7491C52.3166 29.2328 53.628 27.2478 53.628 25.2623C53.6276 25.127 53.6669 24.9949 53.739 24.8803C53.8824 24.6518 54.0213 24.4197 54.1538 24.1835Z" fill="#F0F0F0"/>
<path d="M40.1971 0.742754C44.4601 0.74478 48.4467 2.44583 51.3728 5.46226C50.3349 5.16451 48.9689 4.94899 47.4137 4.94899C45.9371 4.94899 43.7422 5.15924 41.6725 6.16107C34.0083 9.87024 32.0949 13.9173 31.1758 15.8622C31.0502 16.1275 30.942 16.3568 30.8476 16.5197L30.7305 16.7214L30.8464 16.924C31.4849 18.0384 31.8511 19.3182 31.8511 20.4351C31.8511 20.9374 31.7794 21.3785 31.6384 21.7456L31.497 22.113L31.8604 22.2645L37.636 24.6749L39.9816 28.3148L40.0845 28.4744L40.2733 28.4975C40.3186 28.5032 41.4031 28.6324 42.9757 28.6324C44.6894 28.6324 47.1974 28.472 49.4137 27.7076C51.2055 27.0894 52.4042 26.3792 53.1905 25.7651C52.9799 27.4993 51.6844 29.1283 49.4891 30.3975C47.0118 31.8275 43.709 32.615 40.1894 32.615C36.6698 32.615 33.3674 31.8275 30.8902 30.3975C28.4822 29.0055 27.1563 27.1817 27.1563 25.2615C27.1563 25.0509 27.0959 24.8442 26.9821 24.6636C25.3454 22.0701 24.517 19.0686 24.5871 15.9841C24.7779 7.57936 31.7769 0.741538 40.1886 0.741538H40.1971M40.1886 0.337647C31.5363 0.337241 24.3785 7.32495 24.182 15.976C24.1074 19.2534 25.0189 22.3131 26.6394 24.8807C26.7115 24.9949 26.7512 25.127 26.7512 25.2623C26.7512 27.2473 28.0645 29.2328 30.6876 30.7491C33.3115 32.2634 36.7504 33.0209 40.1894 33.0209C43.6284 33.0209 47.0677 32.2638 49.6916 30.7491C52.3147 29.2328 53.626 27.2478 53.626 25.2623C53.6256 25.127 53.6649 24.9949 53.737 24.8803C53.8812 24.6518 54.0202 24.4197 54.1527 24.1839C53.944 24.5242 52.8174 26.1053 49.2813 27.3251C47.1601 28.0568 44.7582 28.2281 42.9757 28.2281C41.41 28.2281 40.3223 28.0961 40.3223 28.0961L37.9082 24.3504L32.0164 21.8914C32.1707 21.49 32.2562 21.0006 32.2562 20.4355C32.2562 19.1974 31.8454 17.8529 31.198 16.723C31.9945 15.3481 33.1968 10.7137 41.8491 6.52607C43.6207 5.66887 45.6061 5.3545 47.4137 5.3545C49.8804 5.3545 52.0174 5.93907 52.8332 6.52607C49.9055 2.76303 45.3343 0.340887 40.1975 0.338051C40.1947 0.337646 40.1914 0.337647 40.1886 0.337647Z" fill="#E0E0E0"/>
<path d="M26.1889 24.3513L25.373 22.6807C25.373 22.6807 26.6495 23.9389 27.1863 24.3546C27.7231 24.7702 28.3478 25.4929 28.7715 26.1881C29.1952 26.8833 29.6526 27.6732 29.6526 27.6732C29.6526 27.6732 27.4727 25.9876 26.1889 24.3513Z" fill="#455A64"/>
<path d="M24.1191 20.8718C24.3229 21.759 24.3221 21.868 25.0894 22.6276C25.6351 23.168 26.0049 23.4702 26.98 24.3513C27.5383 24.8557 27.9964 25.3025 28.4165 25.9264C28.6977 26.3436 29.2612 27.0951 29.3697 27.277C29.3697 27.277 27.9993 26.3785 26.1872 24.3513L26.0272 24.024C25.8295 24.1536 25.8757 24.504 26.6405 25.1955C26.6405 25.1955 27.0695 25.8547 28.436 27.0315C29.5387 27.9811 30.1905 28.5247 30.4234 28.295C30.6564 28.0653 30.4234 27.6027 29.4329 26.1885C28.4429 24.7742 28.0831 24.1625 28.0831 24.1625L24.1191 20.8718Z" fill="#37474F"/>
<path d="M23.3072 14.5063C22.9151 16.1118 23.3393 19.8149 23.6949 20.5352C23.6949 20.5352 24.4995 21.8481 26.9816 23.9968C27.5698 24.506 28.047 24.9476 28.4841 25.5913C28.869 26.1577 29.2826 26.7888 29.6512 27.2571C30.233 27.9956 30.0389 28.1192 29.4276 27.695C28.2463 26.8743 27.1092 25.7562 26.6409 25.1951L26.8114 25.9916C26.8114 25.9916 28.8945 28.5721 31.1141 29.672C33.3337 30.7718 33.1165 29.345 32.1617 28.1196C31.5787 27.3714 30.4708 26.0074 29.6962 25.0582C29.1335 24.3687 28.4934 23.7477 27.7877 23.2056L27.635 23.0882C26.1025 21.9113 25.1132 20.1629 24.8941 18.2431L24.651 16.1134L23.3072 14.5063Z" fill="#F0F0F0"/>
<path d="M53.1472 25.2762C52.5525 26.5321 51.4012 27.7178 49.6925 28.7059C45.1131 31.3488 38.0489 31.6863 32.8388 29.7138C32.0772 29.4282 31.3565 29.0924 30.6885 28.7059C29.6753 28.1201 28.8562 27.4626 28.2343 26.7638C27.5335 26.1618 26.9445 25.5602 26.6406 25.1956L26.6674 25.3249C26.6977 25.4598 26.7302 25.6032 26.7589 25.7433L26.8039 25.9625C26.8112 25.9965 26.8185 26.031 26.8237 26.065C26.953 26.7873 27.2584 27.4987 27.7364 28.1813C28.3923 29.1155 29.3767 29.9905 30.6881 30.7484C35.9358 33.7774 44.4443 33.7774 49.6921 30.7484C52.3151 29.2321 53.6265 27.2471 53.6265 25.2617C53.6265 25.1268 53.6642 24.9939 53.7379 24.8809C53.8744 24.6633 54.0057 24.4425 54.1313 24.2197C54.017 24.398 53.7278 24.7913 53.1472 25.2762Z" fill="#E0E0E0"/>
<path d="M25.5479 17.4879C24.5396 16.9402 23.6326 16.1016 23.3433 15.3173C23.0703 14.5768 23.4754 13.7139 24.4258 13.532C24.4258 13.532 24.2727 14.3924 24.233 15.024C24.233 15.024 25.1278 16.0712 25.947 16.612C25.7618 16.8381 25.6338 17.1366 25.5479 17.4879Z" fill="#FAFAFA"/>
<path d="M52.8337 6.52588C54.4169 8.94316 51.7626 13.0481 49.1484 14.5053C50.4071 15.2171 51.0447 17.508 50.4067 18.9335L52.4387 20.1424L54.1544 24.1841C55.4568 21.8677 56.201 19.1952 56.201 16.3485C56.201 12.6463 54.9435 9.23767 52.8337 6.52588Z" fill="#37474F"/>
<path d="M29.8246 23.3631C29.537 23.3631 29.232 23.2724 28.9188 23.0917C27.5321 22.2912 26.4043 19.91 26.4043 17.7832C26.4043 16.544 26.7794 15.6171 27.4333 15.2395C27.8882 14.977 28.427 15.0102 28.9909 15.3359C30.3772 16.1364 31.5054 18.5176 31.5054 20.6445C31.5054 21.8837 31.1303 22.8106 30.4764 23.1881C30.2739 23.3052 30.0547 23.3631 29.8246 23.3631ZM28.0847 15.2099C27.8789 15.2099 27.6844 15.2614 27.5054 15.3647C26.9066 15.7106 26.5489 16.6144 26.5489 17.7832C26.5489 19.8638 27.6443 22.1891 28.9909 22.9665C29.5074 23.2643 29.9964 23.2987 30.4039 23.0629C31.0031 22.717 31.3604 21.8132 31.3604 20.6445C31.3604 18.5638 30.265 16.2385 28.9188 15.4611C28.6283 15.2938 28.3476 15.2099 28.0847 15.2099Z" fill="#E0E0E0"/>
<path d="M48.6379 2.7483C45.6814 2.01668 40.3137 1.90689 34.1407 7.48402L31.7639 7.6335C31.7639 7.6335 28.4331 11.5104 27.791 15.173C28.6397 14.9271 30.2492 15.8746 31.1129 18.588C31.9766 21.3014 30.8585 22.7546 30.8585 22.7546L37.3187 25.3294L39.7097 29.2525C39.7097 29.2525 45.0571 30.1336 49.3505 28.4881C51.568 27.6381 52.8514 26.6691 53.5753 25.9306C53.6085 25.7082 53.6276 25.4858 53.6276 25.263C53.6276 25.248 53.6296 25.2334 53.6308 25.2184C52.8324 25.9606 51.4031 27.0568 49.2739 27.8577C45.7519 29.1828 40.0447 28.6428 40.0447 28.6428L37.6538 24.6837L31.561 22.2927C31.561 22.2927 31.9948 20.9911 31.7651 19.4311C31.5354 17.871 30.6098 16.5082 30.6098 16.5082C30.6098 16.5082 32.5194 10.0605 41.0733 6.20995C46.1477 3.92555 49.8633 4.62557 52.2304 5.79674C51.1913 4.61301 49.9808 3.58444 48.6379 2.7483Z" fill="#E0E0E0"/>
<path opacity="0.2" d="M30.2182 16.2287C32.1607 11.9001 35.4563 8.54298 40.444 6.12449C44.6158 4.10178 48.3327 3.90409 51.7246 5.25189C50.9444 4.44126 50.0811 3.71167 49.1461 3.07929C49.1323 3.07565 44.7827 1.93081 40.2629 3.89072C35.7362 5.85388 34.2819 7.89562 34.2819 7.89562L31.7625 8.01108C31.7625 8.01108 28.6728 12.0593 28.1562 14.9109C28.4252 14.9036 28.9523 15.1151 28.9523 15.1151L29.073 14.8485C29.3222 14.9465 29.545 15.0859 29.7431 15.2633L29.5903 15.5971C29.5903 15.5971 29.9258 15.8677 30.2182 16.2287Z" fill="black"/>
<path d="M26.5087 16.1924C26.0096 16.3819 25.6361 16.9009 25.5057 17.705C25.2452 19.3129 26.057 21.4511 27.3189 22.4808C27.9501 22.9957 28.574 23.1359 29.073 22.9467C29.3761 22.8317 29.5033 22.7835 29.8063 22.6684C30.3054 22.4788 30.6789 21.9595 30.8093 21.1557C31.0698 19.5479 30.258 17.4097 28.9961 16.3799C28.3649 15.865 27.7406 15.7249 27.242 15.9145C26.9389 16.0287 26.8117 16.0773 26.5087 16.1924Z" fill="#BA68C8"/>
<path opacity="0.2" d="M26.5087 16.1924C26.0096 16.3819 25.6361 16.9009 25.5057 17.705C25.2452 19.3129 26.057 21.4511 27.3189 22.4808C27.9501 22.9957 28.574 23.1359 29.073 22.9467C29.3761 22.8317 29.5033 22.7835 29.8063 22.6684C30.3054 22.4788 30.6789 21.9595 30.8093 21.1557C31.0698 19.5479 30.258 17.4097 28.9961 16.3799C28.3649 15.865 27.7406 15.7249 27.242 15.9145C26.9389 16.0287 26.8117 16.0773 26.5087 16.1924Z" fill="black"/>
<path d="M27.3191 22.4805C27.9502 22.9954 28.5741 23.1356 29.0732 22.946C29.5723 22.7564 29.9458 22.2375 30.0762 21.4333C30.3367 19.8255 29.5249 17.6873 28.263 16.6575C27.6318 16.1426 27.0079 16.0025 26.5088 16.192C26.0098 16.3816 25.6362 16.9006 25.5058 17.7047C25.2449 19.3126 26.0567 21.4507 27.3191 22.4805Z" fill="#BA68C8"/>
<path d="M27.3191 22.4805C27.9502 22.9954 28.5741 23.1356 29.0732 22.946C29.5723 22.7564 29.9458 22.2375 30.0762 21.4333C30.3367 19.8255 29.5249 17.6873 28.263 16.6575C27.6318 16.1426 27.0079 16.0025 26.5088 16.192C26.0098 16.3816 25.6362 16.9006 25.5058 17.7047C25.2449 19.3126 26.0567 21.4507 27.3191 22.4805Z" fill="#BA68C8"/>
<path opacity="0.3" d="M28.2653 16.6587C28.0891 16.5149 27.9149 16.4019 27.7427 16.3156C27.7087 16.2994 27.6743 16.2832 27.6423 16.269C27.6082 16.2528 27.5738 16.2403 27.5418 16.2277C27.3263 16.1434 27.1177 16.1074 26.922 16.1147H26.9167L27.1071 17.1206L27.1825 17.5249C27.1302 17.5322 27.08 17.5447 27.0314 17.5625C26.7348 17.6756 26.512 17.9847 26.4351 18.4627C26.2807 19.4183 26.762 20.6888 27.513 21.3013C27.8886 21.6067 28.2584 21.6894 28.555 21.578C28.6627 21.5367 28.7616 21.4682 28.8459 21.3766V21.3783L29.1063 21.6659L29.744 22.3736C29.8444 22.2136 29.9307 22.0252 29.9939 21.8113C30.0049 21.7753 30.0138 21.7376 30.0227 21.7015C30.0336 21.6639 30.0425 21.6262 30.0498 21.5865C30.0608 21.5362 30.0697 21.486 30.0786 21.4338C30.3387 19.8259 29.5264 17.6881 28.2653 16.6587ZM29.1639 20.5822L28.717 20.0742C28.6275 19.9701 28.6016 20.1297 28.587 20.2176C28.5404 20.4959 28.4108 20.6758 28.2386 20.7422C28.0644 20.8087 27.8489 20.7584 27.6297 20.5806C27.1914 20.2233 26.9094 19.4811 26.999 18.9225C27.0455 18.6442 27.1752 18.4643 27.3474 18.3979C27.4211 18.3817 27.4928 18.3744 27.5649 18.3744C27.6889 18.3886 27.8217 18.4497 27.9566 18.5595C28.034 18.6223 28.16 18.6754 28.0794 18.2439C28.0004 17.821 27.9226 17.3559 27.9226 17.3559C27.9911 17.3973 28.0607 17.4475 28.1292 17.5034C29.0184 18.2294 29.5933 19.7347 29.4191 20.8719L29.1639 20.5822Z" fill="white"/>
<path opacity="0.3" d="M27.3959 16.9321C27.451 16.9771 27.5053 16.9892 27.5487 16.9726C27.592 16.956 27.6244 16.911 27.6358 16.8409C27.6585 16.7012 27.588 16.5152 27.4782 16.4257C27.4235 16.3812 27.3692 16.3686 27.3259 16.3852C27.2825 16.4018 27.2501 16.4468 27.2388 16.5169C27.2157 16.6566 27.2862 16.8426 27.3959 16.9321Z" fill="white"/>
<path opacity="0.3" d="M28.8025 18.0088C28.8571 18.0534 28.9114 18.0659 28.9552 18.0493C28.9985 18.0327 29.0309 17.9878 29.0423 17.9177C29.065 17.7779 28.9945 17.592 28.8847 17.5024C28.83 17.4575 28.7757 17.4453 28.732 17.4619C28.6886 17.4785 28.6562 17.5235 28.6449 17.5936C28.6222 17.7334 28.6927 17.9193 28.8025 18.0088Z" fill="white"/>
<path opacity="0.3" d="M29.6713 20.0305C29.726 20.075 29.7803 20.0876 29.8241 20.071C29.8674 20.0544 29.8998 20.0094 29.9112 19.9393C29.9338 19.7996 29.8634 19.6136 29.7536 19.5241C29.6989 19.4795 29.6446 19.467 29.6012 19.4836C29.5579 19.5002 29.5255 19.5452 29.5141 19.6153C29.4911 19.755 29.5615 19.941 29.6713 20.0305Z" fill="white"/>
<path opacity="0.3" d="M29.6094 21.801C29.6641 21.8456 29.7183 21.8581 29.7617 21.8415C29.805 21.8249 29.8374 21.7799 29.8488 21.7098C29.8715 21.5701 29.801 21.3841 29.6912 21.2946C29.6365 21.25 29.5822 21.2375 29.5385 21.2541C29.4951 21.2707 29.4627 21.3157 29.4514 21.3858C29.4291 21.5255 29.4996 21.7115 29.6094 21.801Z" fill="white"/>
<path d="M31.7722 24.8534C31.0977 24.7882 30.1485 26.2612 31.1686 27.3647L31.7722 24.8534Z" fill="#E0E0E0"/>
<path d="M31.2354 27.5394L31.109 27.4494C30.2825 26.8596 28.8748 24.9414 29.0478 24.286C29.0915 24.1199 29.1794 24.006 29.3091 23.9465C29.683 23.7755 30.385 24.0587 31.8191 24.7587L31.8945 24.7956L31.2354 27.5394ZM29.5586 24.1077C29.4942 24.1077 29.4395 24.117 29.3962 24.1369C29.3512 24.1575 29.2864 24.2009 29.2499 24.3394C29.1256 24.8089 30.2315 26.48 31.1049 27.1837L31.6514 24.9102C30.7452 24.4687 29.9593 24.1077 29.5586 24.1077Z" fill="#E0E0E0"/>
<path d="M29.8505 24.5375C29.8416 24.6315 29.7577 24.7 29.6641 24.6911C29.5702 24.6822 29.5013 24.5983 29.5106 24.5047C29.5195 24.4107 29.6034 24.3419 29.697 24.3512C29.7909 24.3601 29.8598 24.4436 29.8505 24.5375Z" fill="#E0E0E0"/>
<path d="M34.8772 26.5129C33.9264 26.1905 33.0169 25.8121 32.1719 25.3681C31.9957 25.2757 31.836 25.268 31.7182 25.332C31.6246 25.3831 31.2762 25.5743 31.1826 25.6249C31.0615 25.6906 30.9845 25.832 30.9792 26.0357L30.9788 26.0596C30.9679 26.4631 31.2413 26.9573 31.5986 27.1449C32.6122 27.6776 33.7161 28.1212 34.8772 28.4789V26.5129Z" fill="#37474F"/>
<path d="M34.8772 26.9801C33.7307 26.6249 32.6406 26.1857 31.6383 25.6595C31.281 25.4715 30.9902 25.6323 30.9792 26.0358L30.9788 26.0593C30.9679 26.4632 31.2413 26.957 31.5986 27.1446C32.6122 27.6773 33.7161 28.1209 34.8772 28.4786V26.9801Z" fill="#455A64"/>
<path d="M31.248 26.1801C31.248 26.4316 31.4012 26.7241 31.5896 26.8327C31.7783 26.9417 31.9311 26.8258 31.9311 26.5742C31.9311 26.3227 31.7779 26.0302 31.5896 25.9212C31.4012 25.813 31.248 25.9285 31.248 26.1801Z" fill="#37474F"/>
<path d="M34.6872 26.6704L34.5 28.7093L36.3197 28.414L36.5008 26.4229L34.6872 26.6704Z" fill="#F0F0F0"/>
<path d="M34.4141 28.8013L34.6154 26.6032L36.5854 26.3342L36.3902 28.4809L34.4141 28.8013ZM34.7576 26.7389L34.585 28.6182L36.2484 28.3484L36.4153 26.5125L34.7576 26.7389Z" fill="#E0E0E0"/>
<path d="M36.5849 26.3344L35.3015 25.9463L34.6152 26.6034L36.5849 26.3344Z" fill="#E0E0E0"/>
<path d="M34.4424 28.5332L33.8125 28.3237L33.8725 27.9895L34.4744 28.1815L34.4424 28.5332Z" fill="#BA68C8"/>
<path d="M34.5674 27.1576L33.9375 26.9477L33.9975 26.6135L34.5999 26.8055L34.5674 27.1576Z" fill="#BA68C8"/>
<path d="M32.6062 25.4229C32.4834 25.3796 31.9256 25.1102 31.7656 25.0328C31.7336 25.0174 31.6979 25.0138 31.6639 25.0243C31.6076 25.0421 31.525 25.0859 31.4824 25.1912C31.4419 25.2917 31.4452 25.3687 31.4573 25.4181C31.4666 25.4566 31.4921 25.4882 31.527 25.5076C31.6291 25.5643 31.9151 25.7146 32.4065 25.9038C32.4093 25.905 32.4121 25.9062 32.415 25.907C32.4198 25.9091 32.4239 25.9107 32.4288 25.9127L32.4292 25.9115C32.4551 25.92 32.4822 25.9257 32.511 25.9257C32.6548 25.9257 32.7715 25.809 32.7715 25.6652C32.7715 25.555 32.703 25.461 32.6062 25.4229Z" fill="#BA68C8"/>
<path opacity="0.3" d="M32.6062 25.4229C32.4834 25.3796 31.9256 25.1102 31.7656 25.0328C31.7336 25.0174 31.6979 25.0138 31.6639 25.0243C31.6076 25.0421 31.525 25.0859 31.4824 25.1912C31.4419 25.2917 31.4452 25.3687 31.4573 25.4181C31.4666 25.4566 31.4921 25.4882 31.527 25.5076C31.6291 25.5643 31.9151 25.7146 32.4065 25.9038C32.4093 25.905 32.4121 25.9062 32.415 25.907C32.4198 25.9091 32.4239 25.9107 32.4288 25.9127L32.4292 25.9115C32.4551 25.92 32.4822 25.9257 32.511 25.9257C32.6548 25.9257 32.7715 25.809 32.7715 25.6652C32.7715 25.555 32.703 25.461 32.6062 25.4229Z" fill="white"/>
<path d="M32.4154 25.9068C32.4202 25.9088 32.4243 25.9104 32.4292 25.9125L32.4296 25.9112C32.4555 25.9198 32.4826 25.9254 32.5114 25.9254C32.6366 25.9254 32.7407 25.8371 32.7658 25.7196C32.7164 25.8302 32.5904 25.8456 32.4247 25.7905C32.259 25.7354 31.907 25.5657 31.7073 25.451C31.5088 25.3372 31.5165 25.1772 31.5999 25.0544C31.5557 25.0804 31.5104 25.1217 31.4824 25.191C31.4419 25.2914 31.4452 25.3684 31.4573 25.4178C31.4666 25.4563 31.4921 25.4879 31.527 25.5074C31.6291 25.5641 31.9151 25.7144 32.4065 25.9035C32.4097 25.9048 32.4126 25.9056 32.4154 25.9068Z" fill="#BA68C8"/>
<path d="M31.6517 15.8047C31.6282 15.8533 31.6068 15.9015 31.5853 15.9465C31.4346 16.2645 31.3122 16.5266 31.1992 16.7227C31.8458 17.8525 32.2574 19.1967 32.2574 20.4343C32.2574 21.0002 32.1711 21.4888 32.0183 21.8914L32.7192 22.1843L32.8573 22.2419C33.1267 21.7695 33.2722 21.1173 33.2722 20.3447C33.2722 18.7008 32.5985 16.9042 31.6517 15.8047Z" fill="#263238"/>
<path opacity="0.3" d="M56.1997 16.3498C56.1997 17.4959 56.0794 18.6172 55.8493 19.6952C55.6192 20.7748 55.2817 21.8151 54.845 22.8016C58.2658 13.6644 52.8365 6.98291 52.8365 6.98291C50.1579 5.34425 44.373 5.67157 40.9219 6.99384C41.2221 6.83747 41.5308 6.6811 41.8508 6.52676C46.0384 4.50041 51.4194 5.50993 52.8333 6.52676C54.9439 9.23693 56.1997 12.6471 56.1997 16.3498Z" fill="#FAFAFA"/>
<path opacity="0.2" d="M54.0829 12.0101C53.7883 10.6526 53.2787 9.06177 52.2072 8.12516C51.0555 7.11806 49.0162 6.25842 47.4861 6.80613C47.2625 6.88634 47.0413 7.00382 46.9064 7.19908C46.6953 7.50453 46.7456 7.91734 46.8493 8.27383C46.9307 8.55295 47.038 8.82073 47.164 9.0804C47.5473 9.86915 48.1039 10.5801 48.6253 11.2931C50.4272 13.7566 51.9467 16.5352 52.3016 19.5666C52.3976 20.387 52.4077 21.2191 52.5763 22.0277C52.6225 22.2488 52.6913 22.4842 52.8712 22.6211C53.5279 23.1198 54.0756 21.6635 54.1744 21.2673C55.0462 17.776 54.7278 15.0744 54.0829 12.0101ZM52.4252 23.4309C52.3956 23.4435 52.366 23.4589 52.3377 23.4775C52.1898 23.5727 52.0885 23.7368 52.0695 23.9118C52.0646 23.9568 52.065 24.0034 52.0784 24.0467C52.0918 24.0897 52.1173 24.1277 52.1464 24.1622C52.2307 24.2626 52.3458 24.3368 52.4722 24.3716C52.7618 24.4518 53.047 24.1585 53.0689 23.8851C53.0997 23.4966 52.7428 23.2973 52.4252 23.4309Z" fill="#FAFAFA"/>
<path opacity="0.2" d="M36.8593 11.3809C35.8866 11.0038 34.3489 12.6902 33.8109 13.7812C33.4106 14.5918 33.296 15.5856 33.3413 16.4598C33.3571 16.7644 33.426 17.1197 33.5589 17.4426C33.7967 18.0198 34.3914 18.5659 35.0529 18.2151C35.3466 18.0595 35.55 17.7776 35.7291 17.4977C36.3387 16.5448 38.726 12.1053 36.8593 11.3809ZM38.7001 9.84679C38.1836 9.66611 37.6132 10.0372 37.5622 10.5249C37.5346 10.7907 37.7283 11.0702 37.9142 11.1492C38.2047 11.2732 38.6377 11.1897 38.8472 10.9616C39.1684 10.6124 39.2219 10.0291 38.7001 9.84679Z" fill="#FAFAFA"/>
</svg>
