<svg width="1440" height="560" viewBox="0 0 1440 560" fill="none" xmlns="http://www.w3.org/2000/svg">
<g clip-path="url(#clip0_2681_12411)">
<g clip-path="url(#clip1_2681_12411)">
<path d="M1688 239.801C1688 233.532 1665.85 228.428 1637.83 227.998C1637.84 227.837 1637.85 227.674 1637.85 227.505C1637.85 216.179 1629.4 207.013 1618.97 207.013C1614.75 207.013 1610.86 208.534 1607.72 211.072C1607.67 210.981 1607.62 210.898 1607.57 210.811C1603.36 188.119 1584.89 171.03 1562.74 171.03C1558.96 171.03 1555.31 171.581 1551.8 172.518C1547.37 161.971 1537.6 154.633 1526.23 154.633C1517.91 154.633 1510.46 158.571 1505.32 164.806C1499.55 155.902 1490.02 150.077 1479.24 150.077C1477.67 150.077 1476.13 150.239 1474.63 150.479C1475.69 146.284 1476.3 141.886 1476.3 137.325C1476.3 109.902 1455.82 87.681 1430.56 87.681C1417.35 87.681 1405.48 93.7997 1397.13 103.521C1391.07 88.3105 1377.14 77.6559 1360.9 77.6559C1347.02 77.6559 1334.84 85.4587 1327.81 97.2228C1323.05 89.0313 1314.67 83.5786 1305.1 83.5786C1302.46 83.5786 1299.92 84.0054 1297.51 84.7778C1291.44 72.4157 1279.45 64 1265.65 64C1252.27 64 1240.61 71.9175 1234.38 83.6583C1233.89 83.6301 1233.41 83.5786 1232.91 83.5786C1223.06 83.5786 1214.47 89.3535 1209.8 97.9354C1201.51 89.3452 1190.31 84.0387 1177.95 84.0387C1164.35 84.0387 1152.16 90.4564 1143.71 100.613C1131.85 91.3433 1117.31 85.8623 1101.57 85.8623C1079.93 85.8623 1060.53 96.2147 1047.3 112.586C1042.08 110.065 1036.32 108.632 1030.24 108.632C1007.06 108.632 988.275 129.016 988.275 154.175C988.275 155.125 988.353 156.053 988.408 156.985C986.219 156.364 983.932 155.994 981.562 155.994C971.214 155.994 962.249 162.358 957.759 171.669C952.298 168.66 946.142 166.927 939.599 166.927C922.283 166.927 907.561 178.818 901.865 195.461C900.754 195.284 899.627 195.167 898.479 195.167C886.329 195.167 876.342 205.166 875.105 217.993C874.783 217.973 874.462 217.943 874.137 217.943C866.716 217.943 860.498 223.444 858.717 230.898C856.908 230.77 855.056 230.687 853.155 230.687C838.029 230.687 825.331 234.977 821.581 240.799C820.37 240.746 819.155 240.712 817.906 240.712C799.83 240.712 785.178 246.823 785.178 254.372C785.178 261.92 799.83 268.036 817.906 268.036C820.241 268.036 822.515 267.933 824.715 267.733C830.075 272.228 841.158 275.324 853.995 275.324C855.254 275.324 856.493 275.287 857.714 275.229C859.207 282.575 865.236 288.081 872.459 288.081C874.105 288.081 875.688 287.782 877.173 287.252C882.363 294.921 890.711 299.917 900.151 299.917C904.882 299.917 909.329 298.648 913.262 296.439C917.484 300.842 923.208 303.561 929.521 303.561C935.92 303.561 941.712 300.779 945.949 296.281C953.33 306.263 964.647 312.669 977.36 312.669C987.818 312.669 997.309 308.312 1004.47 301.222C1007.79 309.05 1015.06 314.493 1023.52 314.493C1031.08 314.493 1037.68 310.144 1041.38 303.639C1047.44 307.61 1054.52 309.937 1062.12 309.937C1071.48 309.937 1080.06 306.445 1086.9 300.647C1090.74 305.228 1096.25 308.126 1102.41 308.126C1108.45 308.126 1113.87 305.336 1117.7 300.908C1123.53 310.716 1133.66 317.221 1145.21 317.221C1154.32 317.221 1162.57 313.175 1168.5 306.645C1179.42 315.923 1195.39 321.777 1213.19 321.777C1235.11 321.777 1254.26 312.906 1264.61 299.702C1270.93 311.011 1282.36 318.593 1295.44 318.593C1299.8 318.593 1303.95 317.715 1307.81 316.18C1312.6 324.712 1321.22 330.432 1331.11 330.432C1340.9 330.432 1349.48 324.802 1354.28 316.378C1365.09 324.921 1378.39 329.975 1392.79 329.975C1415.29 329.975 1435.13 317.663 1446.91 298.9C1454.1 307.088 1464.21 312.215 1475.45 312.215C1487.18 312.215 1497.68 306.636 1504.91 297.814C1507.5 298.859 1510.29 299.463 1513.22 299.463C1516.58 299.463 1519.77 298.704 1522.67 297.349C1530.48 299.845 1539.49 301.283 1549.1 301.283C1576.46 301.283 1599.01 289.742 1602.5 274.789C1602.95 274.822 1603.4 274.864 1603.86 274.864C1610.27 274.864 1615.92 271.391 1619.34 266.092C1621.98 267.619 1624.99 268.489 1628.2 268.489C1637.59 268.489 1645.36 261.04 1646.82 251.297C1670.44 250.035 1688 245.376 1688 239.801Z" fill="#1A2A6C"/>
<path d="M1542 211C1542 211 1535.63 177.053 1507.78 178.643C1479.93 180.232 1476.26 187.629 1476.26 187.629C1476.26 187.629 1469.83 151.142 1440.28 145.85C1410.72 140.558 1402.99 147.963 1402.99 147.963C1402.99 147.963 1381.88 137.92 1371.92 157.482C1371.92 157.482 1361.31 136.748 1348.79 143.941C1336.26 151.133 1332.59 158.539 1332.59 158.539C1332.59 158.539 1334.69 122.052 1308.48 111.477C1282.26 100.901 1268 117.826 1268 117.826V211H1542Z" fill="#F6F9FE"/>
</g>
<path d="M1074.45 245.992C1069.48 245.175 1064.89 244.922 1061.32 245.158C1060.76 241.88 1056.92 239.115 1052.05 238.718C1047.11 238.319 1042.88 240.514 1041.95 243.739C1039.97 241.485 1037.17 240.057 1034.04 240.057C1031.17 240.057 1028.59 241.26 1026.65 243.186C1024.37 239.761 1020.76 237.476 1016.61 237.09C1015.29 232.935 1011.65 229.931 1007.32 229.931C1005.81 229.931 1004.4 230.32 1003.12 230.963C999.971 225.004 993.993 220.975 987.124 220.975C982.487 220.975 978.265 222.821 975.027 225.838C970.651 222.311 965.223 220.194 959.31 220.194C955.545 220.194 951.976 221.062 948.741 222.592C947.585 212.953 939.883 205.503 930.535 205.503C929.197 205.503 927.893 205.661 926.637 205.952C926.641 205.801 926.657 205.652 926.657 205.498C926.657 194.672 918.433 185.897 908.283 185.897C906.914 185.897 905.591 186.071 904.307 186.37C899.289 166.632 882.431 152.1 862.336 152.1C852.87 152.1 844.139 155.356 836.997 160.823C835.285 143.738 821.739 130.429 805.263 130.429C795.965 130.429 787.622 134.695 781.786 141.459C779.183 110.41 754.767 86.0698 724.98 86.0698C711.281 86.0698 698.718 91.2269 688.881 99.8069C675.379 79.6335 653.263 66.4668 628.246 66.4668C592.283 66.4668 562.282 93.6417 555.302 129.795C550.201 128.227 544.828 127.343 539.254 127.343C509.506 127.343 485.028 151.221 481.651 181.978C478.176 180.695 474.461 179.962 470.571 179.962C457.973 179.962 447.001 187.325 441.173 198.219C437.609 197.097 433.85 196.468 429.946 196.468C416.096 196.468 403.918 204.054 396.829 215.533C394.13 213.594 390.882 212.462 387.387 212.462C379.684 212.462 373.193 217.956 371.14 225.464C369.599 224.741 367.9 224.327 366.103 224.327C360.411 224.327 355.664 228.382 354.111 233.92C350.123 234.767 346.777 237.41 344.742 241.005C344.602 240.998 344.475 240.959 344.333 240.959C341.203 240.959 338.404 242.387 336.421 244.644C335.491 241.416 331.262 239.221 326.321 239.619C321.45 240.018 317.61 242.785 317.057 246.058C313.481 245.825 308.887 246.079 303.922 246.896C293.057 248.68 284.601 252.451 285.015 255.325C285.388 257.903 292.768 258.868 302.113 257.756C304.107 259.557 308.275 260.909 313.195 261.092C317.575 261.253 321.451 260.445 323.733 259.091C325.328 261.162 327.721 262.511 330.43 262.511C332.636 262.511 334.624 261.609 336.157 260.167C338.153 262.612 341.058 264.185 344.332 264.185C346.552 264.185 348.61 263.467 350.328 262.255C352.307 263.363 354.521 264.048 356.915 264.048C361.024 264.048 364.704 262.165 367.307 259.196C370.404 263.403 375.208 266.114 380.609 266.114C386.48 266.114 391.651 262.923 394.688 258.085C401.27 271.727 414.569 281.075 429.944 281.075C442.351 281.075 453.419 274.992 460.691 265.48C465.947 278.88 478.346 288.297 492.819 288.297C508.435 288.297 521.644 277.337 526.06 262.238C531.039 276.257 543.709 286.238 558.597 286.238C571.867 286.238 583.399 278.312 589.274 266.663C599.446 284.562 617.826 296.559 638.883 296.559C655.088 296.559 669.724 289.462 680.251 278.041C686.743 289.145 698.26 296.554 711.429 296.554C722.404 296.554 732.225 291.4 738.958 283.27C749.988 293.466 764.368 299.647 780.112 299.647C799.094 299.647 816.1 290.662 827.627 276.474C834.75 282.571 843.78 286.236 853.625 286.236C867.417 286.236 879.603 279.045 887.173 268.026C892.949 274.177 900.918 277.982 909.729 277.982C921.118 277.982 931.089 271.604 936.741 262.034C941.262 270.329 949.661 275.916 959.307 275.916C966.886 275.916 973.685 272.46 978.452 266.968C981.522 269.5 985.355 271.018 989.537 271.018C996.209 271.018 1002.03 267.163 1005.17 261.437C1007.7 264.449 1011.33 266.375 1015.41 266.375C1020.06 266.375 1024.15 263.908 1026.64 260.153C1028.58 262.075 1031.17 263.281 1034.03 263.281C1037.31 263.281 1040.21 261.705 1042.21 259.263C1043.74 260.704 1045.73 261.604 1047.94 261.604C1050.65 261.604 1053.03 260.259 1054.63 258.188C1056.92 259.541 1060.79 260.346 1065.18 260.184C1070.09 260.006 1074.26 258.654 1076.26 256.848C1085.6 257.961 1092.98 256.997 1093.35 254.421C1093.77 251.55 1085.31 247.778 1074.45 245.992Z" fill="#F6F9FE"/>
<path d="M1635.54 273.705C1629.9 272.833 1624.7 272.562 1620.64 272.814C1620.01 269.314 1615.66 266.361 1610.13 265.937C1604.53 265.511 1599.73 267.855 1598.68 271.298C1596.42 268.892 1593.25 267.367 1589.69 267.367C1586.45 267.367 1583.52 268.652 1581.31 270.708C1578.73 267.051 1574.63 264.611 1569.93 264.198C1568.43 259.762 1564.3 256.553 1559.38 256.553C1557.67 256.553 1556.07 256.97 1554.62 257.656C1551.05 251.292 1544.27 246.99 1536.48 246.99C1531.22 246.99 1526.43 248.962 1522.76 252.183C1517.79 248.417 1511.63 246.156 1504.93 246.156C1500.65 246.156 1496.61 247.083 1492.94 248.718C1491.62 238.424 1482.89 230.469 1472.28 230.469C1470.77 230.469 1469.29 230.638 1467.86 230.948C1467.87 230.787 1467.88 230.628 1467.88 230.464C1467.88 218.903 1458.55 209.533 1447.04 209.533C1445.49 209.533 1443.99 209.718 1442.53 210.038C1436.84 188.961 1417.72 173.443 1394.92 173.443C1384.18 173.443 1374.28 176.92 1366.18 182.758C1364.23 164.513 1348.87 150.302 1330.18 150.302C1319.63 150.302 1310.17 154.857 1303.55 162.08C1300.59 128.924 1272.89 102.933 1239.11 102.933C1223.57 102.933 1209.31 108.44 1198.16 117.602C1182.84 96.0599 1157.75 82 1129.37 82C1088.58 82 1054.54 111.018 1046.63 149.625C1040.84 147.95 1034.74 147.006 1028.42 147.006C994.675 147.006 966.908 172.504 963.077 205.348C959.136 203.978 954.921 203.195 950.509 203.195C936.218 203.195 923.772 211.057 917.16 222.69C913.117 221.493 908.853 220.821 904.424 220.821C888.712 220.821 874.898 228.922 866.857 241.179C863.795 239.109 860.11 237.9 856.146 237.9C847.408 237.9 840.045 243.767 837.716 251.784C835.967 251.012 834.04 250.57 832.001 250.57C825.545 250.57 820.16 254.9 818.398 260.814C813.875 261.718 810.078 264.541 807.77 268.379C807.612 268.372 807.467 268.33 807.307 268.33C803.755 268.33 800.581 269.855 798.331 272.265C797.276 268.818 792.479 266.474 786.874 266.9C781.348 267.325 776.992 270.28 776.364 273.775C772.308 273.527 767.096 273.797 761.465 274.669C749.139 276.575 739.547 280.602 740.017 283.671C740.44 286.423 748.811 287.454 759.413 286.266C761.674 288.19 766.403 289.634 771.984 289.829C776.952 290.001 781.35 289.138 783.938 287.693C785.747 289.904 788.462 291.344 791.535 291.344C794.037 291.344 796.292 290.381 798.031 288.841C800.296 291.452 803.591 293.132 807.305 293.132C809.824 293.132 812.158 292.365 814.106 291.071C816.352 292.254 818.864 292.986 821.579 292.986C826.24 292.986 830.415 290.975 833.367 287.804C836.881 292.297 842.33 295.192 848.457 295.192C855.117 295.192 860.982 291.785 864.428 286.618C871.895 301.185 886.981 311.168 904.422 311.168C918.496 311.168 931.052 304.672 939.3 294.515C945.263 308.824 959.328 318.879 975.746 318.879C993.46 318.879 1008.44 307.176 1013.45 291.052C1019.1 306.022 1033.47 316.681 1050.36 316.681C1065.42 316.681 1078.5 308.217 1085.16 295.778C1096.7 314.891 1117.55 327.703 1141.44 327.703C1159.82 327.703 1176.42 320.124 1188.37 307.927C1195.73 319.785 1208.79 327.697 1223.73 327.697C1236.18 327.697 1247.32 322.194 1254.96 313.512C1267.47 324.399 1283.79 331 1301.65 331C1323.18 331 1342.47 321.405 1355.55 306.255C1363.63 312.765 1373.87 316.679 1385.04 316.679C1400.68 316.679 1414.51 309 1423.09 297.233C1429.65 303.801 1438.69 307.865 1448.68 307.865C1461.6 307.865 1472.91 301.055 1479.32 290.835C1484.45 299.692 1493.98 305.659 1504.92 305.659C1513.52 305.659 1521.23 301.968 1526.64 296.104C1530.12 298.807 1534.47 300.428 1539.21 300.428C1546.78 300.428 1553.38 296.312 1556.95 290.197C1559.82 293.413 1563.94 295.47 1568.56 295.47C1573.84 295.47 1578.47 292.837 1581.31 288.826C1583.51 290.879 1586.44 292.167 1589.69 292.167C1593.41 292.167 1596.7 290.483 1598.96 287.876C1600.7 289.414 1602.96 290.375 1605.46 290.375C1608.54 290.375 1611.24 288.939 1613.06 286.728C1615.65 288.173 1620.04 289.032 1625.02 288.86C1630.59 288.669 1635.32 287.225 1637.59 285.298C1648.19 286.486 1656.56 285.457 1656.98 282.706C1657.46 279.639 1647.86 275.612 1635.54 273.705Z" fill="#F6F9FE"/>
<path d="M582.42 316.421C582.42 310.987 563.217 306.561 538.923 306.189C538.927 306.049 538.943 305.908 538.943 305.761C538.943 295.941 531.612 287.994 522.574 287.994C518.909 287.994 515.542 289.313 512.819 291.513C512.776 291.434 512.732 291.362 512.69 291.287C509.034 271.612 493.022 256.796 473.821 256.796C470.545 256.796 467.38 257.274 464.336 258.086C460.496 248.942 452.025 242.58 442.165 242.58C434.953 242.58 428.492 245.994 424.032 251.4C419.03 243.68 410.773 238.63 401.423 238.63C400.059 238.63 398.73 238.77 397.422 238.979C398.343 235.341 398.877 231.528 398.877 227.574C398.877 203.798 381.121 184.532 359.219 184.532C347.759 184.532 337.472 189.837 330.228 198.265C324.981 185.077 312.899 175.84 298.823 175.84C286.789 175.84 276.226 182.605 270.129 192.805C266.007 185.702 258.739 180.975 250.439 180.975C248.15 180.975 245.947 181.345 243.861 182.015C238.599 171.297 228.206 164 216.237 164C204.635 164 194.53 170.865 189.129 181.044C188.705 181.02 188.283 180.975 187.856 180.975C179.315 180.975 171.867 185.982 167.813 193.422C160.631 185.975 150.915 181.374 140.197 181.374C128.407 181.374 117.839 186.938 110.515 195.744C100.232 187.707 87.6219 182.955 73.9807 182.955C55.2173 182.955 38.3935 191.931 26.9238 206.125C22.4007 203.939 17.4039 202.696 12.132 202.696C-7.9591 202.696 -24.25 220.369 -24.25 242.183C-24.25 243.006 -24.1823 243.811 -24.1348 244.619C-26.0327 244.081 -28.0156 243.76 -30.0705 243.76C-39.0418 243.76 -46.815 249.278 -50.7074 257.35C-55.4422 254.741 -60.7803 253.239 -66.4525 253.239C-81.4661 253.239 -94.2304 263.548 -99.1682 277.979C-100.132 277.825 -101.109 277.724 -102.104 277.724C-112.638 277.724 -121.297 286.393 -122.37 297.514C-122.649 297.497 -122.927 297.471 -123.209 297.471C-129.643 297.471 -135.035 302.24 -136.578 308.703C-138.147 308.592 -139.752 308.52 -141.401 308.52C-154.515 308.52 -165.524 312.239 -168.776 317.287C-169.825 317.241 -170.88 317.212 -171.962 317.212C-187.634 317.212 -200.338 322.51 -200.338 329.054C-200.338 335.599 -187.634 340.902 -171.962 340.902C-169.938 340.902 -167.966 340.812 -166.058 340.639C-161.411 344.536 -151.802 347.22 -140.672 347.22C-139.581 347.22 -138.507 347.189 -137.448 347.138C-136.154 353.507 -130.926 358.281 -124.664 358.281C-123.237 358.281 -121.864 358.022 -120.577 357.562C-116.077 364.211 -108.839 368.543 -100.654 368.543C-96.5531 368.543 -92.6968 367.442 -89.2868 365.527C-85.6263 369.345 -80.664 371.702 -75.1905 371.702C-69.6421 371.702 -64.6208 369.29 -60.9473 365.39C-54.5479 374.045 -44.7356 379.599 -33.7138 379.599C-24.646 379.599 -16.4177 375.822 -10.2084 369.674C-7.32692 376.461 -1.02541 381.18 6.30858 381.18C12.8607 381.18 18.5847 377.41 21.7887 371.77C27.0491 375.213 33.1879 377.23 39.7788 377.23C47.8876 377.23 55.3281 374.203 61.2581 369.176C64.5845 373.148 69.3683 375.661 74.7064 375.661C79.9394 375.661 84.644 373.241 87.9646 369.402C93.0148 377.906 101.8 383.546 111.814 383.546C119.717 383.546 126.862 380.038 132.007 374.376C141.473 382.42 155.321 387.496 170.758 387.496C189.761 387.496 206.36 379.805 215.333 368.357C220.819 378.162 230.723 384.736 242.066 384.736C245.844 384.736 249.445 383.974 252.793 382.643C256.946 390.041 264.421 395 272.989 395C281.482 395 288.917 390.118 293.085 382.815C302.453 390.222 313.985 394.604 326.469 394.604C345.974 394.604 363.177 383.929 373.394 367.661C379.624 374.761 388.395 379.206 398.141 379.206C408.309 379.206 417.411 374.369 423.675 366.72C425.922 367.625 428.347 368.149 430.887 368.149C433.794 368.149 436.559 367.491 439.075 366.316C445.852 368.481 453.659 369.728 461.99 369.728C485.715 369.728 505.265 359.721 508.289 346.757C508.681 346.785 509.071 346.821 509.47 346.821C515.027 346.821 519.926 343.81 522.888 339.217C525.182 340.54 527.794 341.295 530.571 341.295C538.714 341.295 545.449 334.836 546.713 326.389C567.194 325.295 582.42 321.255 582.42 316.421Z" fill="#F6F9FE"/>
<path d="M1062.76 323.421C1062.76 317.987 1043.55 313.561 1019.26 313.189C1019.26 313.049 1019.28 312.908 1019.28 312.761C1019.28 302.941 1011.95 294.994 1002.91 294.994C999.247 294.994 995.88 296.313 993.157 298.513C993.114 298.434 993.07 298.362 993.028 298.287C989.372 278.612 973.36 263.796 954.159 263.796C950.883 263.796 947.718 264.274 944.673 265.086C940.834 255.942 932.363 249.58 922.503 249.58C915.291 249.58 908.83 252.994 904.37 258.4C899.368 250.68 891.111 245.63 881.761 245.63C880.397 245.63 879.068 245.77 877.76 245.979C878.68 242.341 879.215 238.528 879.215 234.574C879.215 210.798 861.459 191.532 839.557 191.532C828.097 191.532 817.81 196.837 810.566 205.265C805.319 192.077 793.237 182.84 779.161 182.84C767.127 182.84 756.564 189.605 750.467 199.805C746.345 192.702 739.077 187.975 730.777 187.975C728.488 187.975 726.285 188.345 724.199 189.015C718.937 178.297 708.544 171 696.575 171C684.973 171 674.868 177.865 669.466 188.044C669.043 188.02 668.621 187.975 668.193 187.975C659.653 187.975 652.205 192.982 648.151 200.422C640.969 192.975 631.253 188.374 620.535 188.374C608.745 188.374 598.177 193.938 590.853 202.744C580.57 194.707 567.96 189.955 554.319 189.955C535.555 189.955 518.731 198.931 507.262 213.125C502.739 210.939 497.742 209.696 492.47 209.696C472.379 209.696 456.088 227.369 456.088 249.183C456.088 250.006 456.156 250.811 456.203 251.619C454.305 251.081 452.322 250.76 450.267 250.76C441.296 250.76 433.523 256.278 429.631 264.35C424.896 261.741 419.558 260.239 413.885 260.239C398.872 260.239 386.107 270.548 381.17 284.979C380.206 284.825 379.229 284.724 378.233 284.724C367.7 284.724 359.041 293.393 357.968 304.514C357.689 304.497 357.411 304.471 357.129 304.471C350.695 304.471 345.303 309.24 343.76 315.703C342.191 315.592 340.586 315.52 338.937 315.52C325.823 315.52 314.814 319.239 311.562 324.287C310.512 324.241 309.458 324.212 308.375 324.212C292.704 324.212 280 329.51 280 336.054C280 342.599 292.704 347.902 308.375 347.902C310.4 347.902 312.372 347.812 314.28 347.639C318.926 351.536 328.536 354.22 339.666 354.22C340.757 354.22 341.831 354.189 342.89 354.138C344.184 360.507 349.412 365.281 355.674 365.281C357.101 365.281 358.474 365.022 359.761 364.562C364.261 371.211 371.499 375.543 379.684 375.543C383.785 375.543 387.641 374.442 391.051 372.527C394.712 376.345 399.674 378.702 405.147 378.702C410.696 378.702 415.717 376.29 419.391 372.39C425.79 381.045 435.602 386.599 446.624 386.599C455.692 386.599 463.92 382.822 470.13 376.674C473.011 383.461 479.312 388.18 486.646 388.18C493.199 388.18 498.923 384.41 502.127 378.77C507.387 382.213 513.526 384.23 520.117 384.23C528.225 384.23 535.666 381.203 541.596 376.176C544.922 380.148 549.706 382.661 555.044 382.661C560.277 382.661 564.982 380.241 568.303 376.402C573.353 384.906 582.138 390.546 592.152 390.546C600.055 390.546 607.2 387.038 612.345 381.376C621.811 389.42 635.659 394.496 651.096 394.496C670.099 394.496 686.698 386.805 695.67 375.357C701.157 385.162 711.061 391.736 722.404 391.736C726.181 391.736 729.783 390.974 733.131 389.643C737.284 397.041 744.759 402 753.327 402C761.82 402 769.255 397.118 773.423 389.815C782.791 397.222 794.323 401.604 806.806 401.604C826.311 401.604 843.515 390.929 853.732 374.661C859.962 381.761 868.733 386.206 878.479 386.206C888.647 386.206 897.749 381.369 904.013 373.72C906.26 374.625 908.685 375.149 911.225 375.149C914.132 375.149 916.897 374.491 919.413 373.316C926.189 375.481 933.997 376.728 942.328 376.728C966.053 376.728 985.603 366.721 988.627 353.757C989.019 353.785 989.409 353.821 989.808 353.821C995.365 353.821 1000.26 350.81 1003.23 346.217C1005.52 347.54 1008.13 348.295 1010.91 348.295C1019.05 348.295 1025.79 341.836 1027.05 333.389C1047.53 332.295 1062.76 328.255 1062.76 323.421Z" fill="#F6F9FE"/>
<path d="M1524.76 319.421C1524.76 313.987 1505.55 309.561 1481.26 309.189C1481.26 309.049 1481.28 308.908 1481.28 308.761C1481.28 298.941 1473.95 290.994 1464.91 290.994C1461.25 290.994 1457.88 292.313 1455.16 294.513C1455.11 294.434 1455.07 294.362 1455.03 294.287C1451.37 274.612 1435.36 259.796 1416.16 259.796C1412.88 259.796 1409.72 260.274 1406.67 261.086C1402.83 251.942 1394.36 245.58 1384.5 245.58C1377.29 245.58 1370.83 248.994 1366.37 254.4C1361.37 246.68 1353.11 241.63 1343.76 241.63C1342.4 241.63 1341.07 241.77 1339.76 241.979C1340.68 238.341 1341.21 234.528 1341.21 230.574C1341.21 206.798 1323.46 187.532 1301.56 187.532C1290.1 187.532 1279.81 192.837 1272.57 201.265C1267.32 188.077 1255.24 178.84 1241.16 178.84C1229.13 178.84 1218.56 185.605 1212.47 195.805C1208.34 188.702 1201.08 183.975 1192.78 183.975C1190.49 183.975 1188.29 184.345 1186.2 185.015C1180.94 174.297 1170.54 167 1158.57 167C1146.97 167 1136.87 173.865 1131.47 184.044C1131.04 184.02 1130.62 183.975 1130.19 183.975C1121.65 183.975 1114.2 188.982 1110.15 196.422C1102.97 188.975 1093.25 184.374 1082.53 184.374C1070.75 184.374 1060.18 189.938 1052.85 198.744C1042.57 190.707 1029.96 185.955 1016.32 185.955C997.555 185.955 980.731 194.931 969.262 209.125C964.739 206.939 959.742 205.696 954.47 205.696C934.379 205.696 918.088 223.369 918.088 245.183C918.088 246.006 918.156 246.811 918.203 247.619C916.305 247.081 914.322 246.76 912.267 246.76C903.296 246.76 895.523 252.278 891.631 260.35C886.896 257.741 881.558 256.239 875.885 256.239C860.872 256.239 848.107 266.548 843.17 280.979C842.206 280.825 841.229 280.724 840.233 280.724C829.7 280.724 821.041 289.393 819.968 300.514C819.689 300.497 819.411 300.471 819.129 300.471C812.695 300.471 807.303 305.24 805.76 311.703C804.191 311.592 802.586 311.52 800.937 311.52C787.823 311.52 776.814 315.239 773.562 320.287C772.512 320.241 771.458 320.212 770.375 320.212C754.704 320.212 742 325.51 742 332.054C742 338.599 754.704 343.902 770.375 343.902C772.4 343.902 774.372 343.812 776.28 343.639C780.926 347.536 790.536 350.22 801.666 350.22C802.757 350.22 803.831 350.189 804.89 350.138C806.184 356.507 811.412 361.281 817.674 361.281C819.101 361.281 820.474 361.022 821.761 360.562C826.261 367.211 833.499 371.543 841.684 371.543C845.785 371.543 849.641 370.442 853.051 368.527C856.712 372.345 861.674 374.702 867.147 374.702C872.696 374.702 877.717 372.29 881.391 368.39C887.79 377.045 897.602 382.599 908.624 382.599C917.692 382.599 925.92 378.822 932.13 372.674C935.011 379.461 941.312 384.18 948.646 384.18C955.199 384.18 960.923 380.41 964.127 374.77C969.387 378.213 975.526 380.23 982.117 380.23C990.225 380.23 997.666 377.203 1003.6 372.176C1006.92 376.148 1011.71 378.661 1017.04 378.661C1022.28 378.661 1026.98 376.241 1030.3 372.402C1035.35 380.906 1044.14 386.546 1054.15 386.546C1062.05 386.546 1069.2 383.038 1074.35 377.376C1083.81 385.42 1097.66 390.496 1113.1 390.496C1132.1 390.496 1148.7 382.805 1157.67 371.357C1163.16 381.162 1173.06 387.736 1184.4 387.736C1188.18 387.736 1191.78 386.974 1195.13 385.643C1199.28 393.041 1206.76 398 1215.33 398C1223.82 398 1231.26 393.118 1235.42 385.815C1244.79 393.222 1256.32 397.604 1268.81 397.604C1288.31 397.604 1305.52 386.929 1315.73 370.661C1321.96 377.761 1330.73 382.206 1340.48 382.206C1350.65 382.206 1359.75 377.369 1366.01 369.72C1368.26 370.625 1370.68 371.149 1373.22 371.149C1376.13 371.149 1378.9 370.491 1381.41 369.316C1388.19 371.481 1396 372.728 1404.33 372.728C1428.05 372.728 1447.6 362.721 1450.63 349.757C1451.02 349.785 1451.41 349.821 1451.81 349.821C1457.36 349.821 1462.26 346.81 1465.23 342.217C1467.52 343.54 1470.13 344.295 1472.91 344.295C1481.05 344.295 1487.79 337.836 1489.05 329.389C1509.53 328.295 1524.76 324.255 1524.76 319.421Z" fill="#F6F9FE"/>
<rect y="337" width="1440" height="226" fill="#F6F9FE"/>
<g clip-path="url(#clip2_2681_12411)">
<path d="M361.404 168.779C361.404 168.779 358.477 124.165 391.617 122.587C391.617 122.587 399.045 115.765 407.968 122.587C407.968 122.587 418.077 98.6054 437.117 99.3105C456.158 100.016 464.139 114.214 464.139 114.214C464.139 114.214 473.299 105.788 486.45 116.285C486.45 116.285 484.006 84.2657 507.248 79.0217C530.49 73.7688 535.202 82.8996 535.202 82.8996C535.202 82.8996 530.693 56.4589 551.535 52.7837V210.352H361.334L361.404 168.779Z" fill="#1A2A6C"/>
<path d="M277.973 210.344C277.973 210.344 284.337 176.649 312.133 178.227C339.937 179.805 343.603 187.146 343.603 187.146C343.603 187.146 350.02 150.931 379.53 145.679C409.04 140.426 416.758 147.776 416.758 147.776C416.758 147.776 437.829 137.808 447.78 157.224C447.78 157.224 458.372 136.645 470.872 143.784C483.373 150.923 487.038 158.273 487.038 158.273C487.038 158.273 484.946 122.058 511.116 111.561C537.294 101.064 551.526 117.863 551.526 117.863V210.344H277.973Z" fill="#F6F9FE"/>
<path d="M494.714 165.976C494.714 165.976 492.622 129.761 518.792 119.264C533.744 113.262 544.803 116.18 551.537 119.775V117.863C551.537 117.863 537.296 101.064 511.126 111.561C487.489 121.045 486.908 151.504 487.014 157.312C492.798 162.133 494.714 165.976 494.714 165.976Z" fill="#E6D4EE"/>
<path d="M319.808 185.921C347.612 187.499 351.278 194.84 351.278 194.84C351.278 194.84 357.695 158.625 387.205 153.373C416.715 148.12 424.433 155.47 424.433 155.47C424.433 155.47 436.608 149.715 446.814 155.47C436.529 138.416 416.768 147.767 416.768 147.767C416.768 147.767 409.049 140.417 379.54 145.67C350.03 150.922 343.613 187.137 343.613 187.137C343.613 187.137 339.947 179.787 312.142 178.218C284.338 176.64 277.982 210.335 277.982 210.335H287.951C291.669 200.499 300.653 184.837 319.808 185.921Z" fill="#E6D4EE"/>
<path d="M455.453 164.927C455.453 164.927 466.046 144.348 478.546 151.487C481.403 153.117 483.794 154.765 485.798 156.325C483.864 153.673 479.452 148.684 470.881 143.793C459.919 137.535 450.425 152.58 448.254 156.378C450.926 158.229 453.423 160.961 455.453 164.927Z" fill="#E6D4EE"/>
<path d="M201.52 163.694C201.52 163.694 204.816 113.448 167.5 111.676C167.5 111.676 159.132 103.991 149.084 111.676C149.084 111.676 137.7 84.6713 116.251 85.4645C94.8111 86.2577 85.8184 102.254 85.8184 102.254C85.8184 102.254 75.5071 92.7621 60.6862 104.59C60.6862 104.59 63.4376 68.5336 37.2594 62.6197C11.0811 56.7058 5.78045 66.9825 5.78045 66.9825C5.78045 66.9825 10.8614 37.2014 -12.6094 33.0679V210.52H201.599L201.52 163.694Z" fill="#1A2A6C"/>
<path d="M295.481 210.502C295.481 210.502 288.316 172.56 257.004 174.332C225.693 176.103 221.57 184.379 221.57 184.379C221.57 184.379 214.344 143.59 181.107 137.685C147.87 131.771 139.176 140.047 139.176 140.047C139.176 140.047 115.442 128.818 104.242 150.685C104.242 150.685 92.3136 127.514 78.2312 135.552C64.1487 143.59 60.0259 151.866 60.0259 151.866C60.0259 151.866 62.3818 111.077 32.9071 99.2576C3.43239 87.4386 -12.6016 106.353 -12.6016 106.353V210.502H295.481Z" fill="#F6F9FE"/>
<path d="M51.3838 160.538C51.3838 160.538 53.7397 119.749 24.265 107.93C7.42233 101.179 -5.02509 104.458 -12.6113 108.512V106.361C-12.6113 106.361 3.42263 87.4474 32.8973 99.2664C59.5239 109.948 60.1744 144.251 60.0513 150.79C53.5463 156.211 51.3838 160.538 51.3838 160.538Z" fill="#E6D4EE"/>
<path d="M248.373 183.004C217.061 184.776 212.938 193.052 212.938 193.052C212.938 193.052 205.712 152.263 172.475 146.357C139.238 140.444 130.544 148.72 130.544 148.72C130.544 148.72 116.84 142.233 105.342 148.728C116.919 129.515 139.185 140.056 139.185 140.056C139.185 140.056 147.879 131.78 181.116 137.694C214.353 143.608 221.579 184.388 221.579 184.388C221.579 184.388 225.702 176.112 257.014 174.341C288.326 172.569 295.49 210.511 295.49 210.511H284.265C280.054 199.415 269.945 181.779 248.373 183.004Z" fill="#E6D4EE"/>
<path d="M95.6015 159.357C95.6015 159.357 83.6727 136.187 69.5902 144.225C66.3729 146.067 63.6742 147.909 61.4238 149.671C63.6039 146.684 68.5705 141.06 78.2226 135.552C90.5645 128.501 101.254 145.441 103.706 149.733C100.7 151.813 97.887 154.898 95.6015 159.357Z" fill="#E6D4EE"/>
</g>
<g clip-path="url(#clip3_2681_12411)">
<path d="M998.973 208.344C998.973 208.344 1005.34 174.649 1033.13 176.227C1060.94 177.805 1064.6 185.146 1064.6 185.146C1064.6 185.146 1071.02 148.931 1100.53 143.679C1130.04 138.426 1137.76 145.776 1137.76 145.776C1137.76 145.776 1158.83 135.808 1168.78 155.224C1168.78 155.224 1179.37 134.645 1191.87 141.784C1204.37 148.923 1208.04 156.273 1208.04 156.273C1208.04 156.273 1205.95 120.058 1232.12 109.561C1258.29 99.0643 1272.53 115.863 1272.53 115.863V208.344H998.973Z" fill="#F6F9FE"/>
<path d="M1215.71 163.976C1215.71 163.976 1213.62 127.761 1239.79 117.264C1254.74 111.262 1265.8 114.18 1272.54 117.775V115.863C1272.54 115.863 1258.3 99.0643 1232.13 109.561C1208.49 119.045 1207.91 149.504 1208.01 155.312C1213.8 160.133 1215.71 163.976 1215.71 163.976Z" fill="#E6D4EE"/>
<path d="M1040.81 183.921C1068.61 185.499 1072.28 192.84 1072.28 192.84C1072.28 192.84 1078.7 156.625 1108.2 151.373C1137.71 146.12 1145.43 153.47 1145.43 153.47C1145.43 153.47 1157.61 147.715 1167.81 153.47C1157.53 136.416 1137.77 145.767 1137.77 145.767C1137.77 145.767 1130.05 138.417 1100.54 143.67C1071.03 148.922 1064.61 185.137 1064.61 185.137C1064.61 185.137 1060.95 177.787 1033.14 176.218C1005.34 174.64 998.982 208.335 998.982 208.335H1008.95C1012.67 198.499 1021.65 182.837 1040.81 183.921Z" fill="#E6D4EE"/>
<path d="M1176.45 162.927C1176.45 162.927 1187.05 142.348 1199.55 149.487C1202.4 151.117 1204.79 152.765 1206.8 154.325C1204.86 151.673 1200.45 146.684 1191.88 141.793C1180.92 135.535 1171.43 150.58 1169.25 154.378C1171.93 156.229 1174.42 158.961 1176.45 162.927Z" fill="#E6D4EE"/>
<path d="M1016.48 208.502C1016.48 208.502 1009.32 170.56 978.004 172.332C946.693 174.103 942.57 182.379 942.57 182.379C942.57 182.379 935.344 141.59 902.107 135.685C868.87 129.771 860.176 138.047 860.176 138.047C860.176 138.047 836.442 126.818 825.242 148.685C825.242 148.685 813.314 125.514 799.231 133.552C785.149 141.59 781.026 149.866 781.026 149.866C781.026 149.866 783.382 109.077 753.907 97.2576C724.432 85.4386 708.398 104.353 708.398 104.353V208.502H1016.48Z" fill="#F6F9FE"/>
<path d="M772.384 158.538C772.384 158.538 774.74 117.749 745.265 105.93C728.422 99.179 715.975 102.458 708.389 106.512V104.361C708.389 104.361 724.423 85.4474 753.897 97.2664C780.524 107.948 781.174 142.251 781.051 148.79C774.546 154.211 772.384 158.538 772.384 158.538Z" fill="#E6D4EE"/>
<path d="M969.373 181.004C938.061 182.776 933.938 191.052 933.938 191.052C933.938 191.052 926.712 150.263 893.475 144.357C860.238 138.444 851.544 146.72 851.544 146.72C851.544 146.72 837.84 140.233 826.342 146.728C837.919 127.515 860.185 138.056 860.185 138.056C860.185 138.056 868.879 129.78 902.116 135.694C935.353 141.608 942.579 182.388 942.579 182.388C942.579 182.388 946.702 174.112 978.014 172.341C1009.33 170.569 1016.49 208.511 1016.49 208.511H1005.26C1001.05 197.415 990.945 179.779 969.373 181.004Z" fill="#E6D4EE"/>
<path d="M816.601 157.357C816.601 157.357 804.673 134.187 790.59 142.225C787.373 144.067 784.674 145.909 782.424 147.671C784.604 144.684 789.571 139.06 799.223 133.552C811.564 126.501 822.254 143.441 824.706 147.733C821.7 149.813 818.887 152.898 816.601 157.357Z" fill="#E6D4EE"/>
</g>
<path d="M741.131 168.779C741.131 168.779 744.058 124.165 710.918 122.587C710.918 122.587 703.49 115.765 694.567 122.587C694.567 122.587 684.458 98.6054 665.418 99.3105C646.378 100.016 638.396 114.214 638.396 114.214C638.396 114.214 629.236 105.788 616.085 116.285C616.085 116.285 618.529 84.2657 595.287 79.0217C572.045 73.7688 567.333 82.8996 567.333 82.8996C567.333 82.8996 571.842 56.4589 551 52.7837V210.352H741.201L741.131 168.779Z" fill="#1A2A6C"/>
<path d="M825 211C825 211 818.625 177.053 790.784 178.643C762.934 180.232 759.263 187.629 759.263 187.629C759.263 187.629 752.835 151.142 723.277 145.85C693.719 140.558 685.988 147.963 685.988 147.963C685.988 147.963 664.883 137.92 654.916 157.482C654.916 157.482 644.306 136.748 631.785 143.941C619.264 151.133 615.593 158.539 615.593 158.539C615.593 158.539 617.688 122.052 591.476 111.477C565.255 100.901 551 117.826 551 117.826V211H825Z" fill="#F6F9FE"/>
</g>
<defs>
<clipPath id="clip0_2681_12411">
<rect width="1440" height="560" fill="white"/>
</clipPath>
<clipPath id="clip1_2681_12411">
<rect width="903" height="156.8" fill="white" transform="translate(785 43)"/>
</clipPath>
<clipPath id="clip2_2681_12411">
<rect width="550" height="208" fill="white" transform="translate(1 2)"/>
</clipPath>
<clipPath id="clip3_2681_12411">
<rect width="550" height="208" fill="white" transform="translate(722)"/>
</clipPath>
</defs>
</svg>
