<svg width="193" height="158" viewBox="0 0 193 158" fill="none" xmlns="http://www.w3.org/2000/svg">
<path d="M179.62 88.8832C179.605 101.615 140.89 126.751 93.0757 126.699C45.2676 126.644 6.47458 101.42 6.48704 88.6875C6.4995 75.9548 45.2706 65.6779 93.0804 65.7284C140.888 65.7833 179.639 76.1529 179.62 88.8832Z" fill="#9BAAAC"/>
<path d="M34.4783 112.654C28.4951 108.946 23.1064 104.131 19.3095 98.1413C15.7369 92.4906 14.3429 86.086 15.989 79.5346C16.1229 79.0075 16.2683 78.4896 16.4329 77.9736C10.0902 81.1689 6.49199 84.8151 6.48804 88.6889C6.47777 96.6143 21.5079 109.38 44.3836 117.897C40.9941 116.309 37.6594 114.625 34.4783 112.654Z" fill="#C2D3D5"/>
<path d="M143.413 70.0873C143.792 73.073 144.173 76.0439 143.811 79.0762C143.308 83.3821 142.205 87.7906 140.542 91.7855C137.846 98.2619 133.012 103.554 127.513 107.79C121.745 112.235 115.315 115.945 108.639 118.848C101.749 121.835 94.4949 124.095 87.0479 125.188C84.3163 125.586 81.5549 125.853 78.7968 125.933C83.4425 126.423 88.2112 126.689 93.0811 126.696C140.895 126.749 179.61 101.613 179.625 88.8809C179.63 81.1545 165.347 74.2935 143.413 70.0873Z" fill="#9BAAAC"/>
<path d="M179.609 87.4188C179.594 99.3442 140.824 108.967 93.0228 108.914C45.2103 108.858 6.46373 99.1493 6.4724 87.2215C6.48966 75.3042 45.2602 65.6796 93.0661 65.7337C140.876 65.7843 179.622 75.4948 179.609 87.4188Z" fill="#C2D3D5"/>
<path d="M179.609 87.4188C179.594 99.3442 140.824 108.967 93.0228 108.914C45.2103 108.858 6.46373 99.1493 6.4724 87.2215C6.48966 75.3042 45.2602 65.6796 93.0661 65.7337C140.876 65.7843 179.622 75.4948 179.609 87.4188Z" fill="#C2D3D5"/>
<path d="M162.526 83.1396C162.516 92.7098 131.398 100.44 93.0148 100.392C54.6477 100.349 23.5428 92.5573 23.5484 82.9803C23.5634 73.4117 54.6795 65.6861 93.0583 65.7318C131.433 65.7759 162.537 73.5694 162.526 83.1396Z" fill="#C2D3D5"/>
<g opacity="0.5">
<path d="M12.6083 89.3179C12.619 78.2269 52.028 69.2851 100.62 69.3388C127.613 69.3684 151.759 72.1707 167.893 76.5536C152.9 70.1178 125.004 65.7689 93.0593 65.7341C45.2533 65.68 6.48278 75.3046 6.46552 87.2218C6.45731 96.6416 30.6059 104.672 64.2903 107.664C33.8023 104.478 12.5965 97.4463 12.6083 89.3179Z" fill="#C2D3D5"/>
</g>
<path opacity="0.8" d="M93.9407 23.9214C63.7804 24.0219 39.4051 48.8294 39.5078 79.3328C39.5165 80.7129 39.5698 82.0794 39.6713 83.436C39.6713 83.436 39.6817 83.4348 39.6861 83.4364C39.6907 83.9715 39.8704 84.1879 39.8495 84.1977C41.9821 89.8304 65.6742 93.9019 94.474 93.4203C123.405 92.9391 146.971 88.0309 148.645 82.3008C148.667 81.9368 148.683 81.5705 148.697 81.2034C148.722 80.458 148.736 79.719 148.735 78.9745C148.634 48.4688 124.102 23.8187 93.9407 23.9214Z" fill="#88C8E3"/>
<path opacity="0.4" d="M124.692 33.3817C126.562 37.2544 127.737 41.3446 128.077 45.5491C128.639 52.4983 128.414 62.8244 120.113 66.9876C116.327 68.8786 111.862 69.4667 107.5 69.715C100.286 70.1238 92.9834 70.0713 85.7542 69.9609C79.9603 69.8743 74.0916 69.7953 68.3206 69.3919C63.8186 69.081 58.8058 68.5231 55.1013 66.2434C47.242 61.4068 48.0633 52.4751 51.25 45.7598C51.6066 45.0083 51.9947 44.2656 52.3961 43.5204C44.3163 53.1895 39.461 65.6963 39.5055 79.3403C39.5142 80.7204 39.5675 82.0869 39.669 83.4436C39.669 83.4436 39.6794 83.4423 39.6838 83.4439C39.6884 83.979 39.8681 84.1954 39.8471 84.2052C41.9798 89.8379 65.6719 93.9095 94.4717 93.4278C123.403 92.9466 146.969 88.0384 148.642 82.3083C148.665 81.9444 148.681 81.5781 148.695 81.2109C148.719 80.4656 148.734 79.7266 148.733 78.982C148.673 59.9908 139.147 43.2769 124.692 33.3817Z" fill="#88C8E3"/>
<path d="M145.72 81.948C145.754 87.4233 122.179 91.9933 93.0729 92.1431C63.9669 92.3055 40.3481 87.9975 40.3204 82.5194C40.2867 77.0441 63.857 72.4725 92.9627 72.3175C122.068 72.1625 145.697 76.4715 145.72 81.948Z" fill="#444A72"/>
<path d="M136.514 83.7337C136.537 88.2524 117.093 92.0235 93.0778 92.1444C69.0669 92.2817 49.5785 88.7281 49.5556 84.2094C49.5326 79.6907 68.9774 75.9196 92.991 75.7883C117.005 75.657 136.493 79.2106 136.514 83.7337Z" fill="#212441"/>
<g opacity="0.6">
<path d="M57.2802 80.9607L62.3804 84.4009C63.3916 83.8765 64.4164 83.4513 65.4132 83.1103C63.8978 81.9858 62.3094 80.8026 60.8462 79.7119C59.681 80.0589 58.4794 80.4721 57.2802 80.9607Z" fill="#2B8CA8"/>
<path d="M71.3976 84.5142C72.8186 84.2077 73.7396 84.1171 73.7396 84.1171L71.2012 81.8579C70.4613 81.9347 69.6171 82.0531 68.7026 82.2354C69.6522 83.0384 70.5715 83.8155 71.3976 84.5142Z" fill="#E84B9B"/>
<path d="M64.6313 78.7575C63.448 79.0037 62.1708 79.3176 60.8494 79.7123C62.3125 80.8029 63.901 81.9862 65.4164 83.1107C66.5628 82.7196 67.6777 82.4362 68.7042 82.2325C67.3408 81.0787 65.9229 79.863 64.6313 78.7575Z" fill="#E84B9B"/>
<path d="M65.4156 83.1104C66.4814 83.9008 67.5045 84.6585 68.4242 85.3315C69.5259 84.9615 70.5539 84.6987 71.3977 84.5131C70.5707 83.8166 69.6544 83.0381 68.7034 82.2322C67.6769 82.4359 66.562 82.7193 65.4156 83.1104Z" fill="#5AC6D0"/>
<path d="M64.6292 78.757C65.5469 78.5659 66.4091 78.4118 67.1921 78.291L65.3824 76.6778C64.556 76.7605 63.6169 76.8669 62.5983 77.0215C63.2142 77.5472 63.903 78.1317 64.6292 78.757Z" fill="#E84B9B"/>
<path d="M68.7045 82.2339C69.619 82.0516 70.4633 81.9332 71.2032 81.8563L67.1946 78.293C66.4115 78.4137 65.5501 78.5657 64.6317 78.7589C65.9232 79.8644 67.3411 81.0801 68.7045 82.2339Z" fill="#5AC6D0"/>
<path d="M49.6231 81.1223C48.3873 81.801 47.2107 82.5905 46.1229 83.484L50.1766 84.9846C51.1774 84.201 52.233 83.4991 53.3235 82.872L49.6231 81.1223Z" fill="#F0BFD9"/>
<path d="M57.2814 80.9606L54.3853 79.0109C52.7701 79.5795 51.1482 80.2697 49.6179 81.1246L53.3205 82.8751C54.6132 82.1351 55.9488 81.5025 57.2814 80.9606Z" fill="#2B8CA8"/>
<path d="M60.8497 79.7132C59.9497 79.0473 59.1029 78.4057 58.3528 77.8462C57.0608 78.1597 55.7234 78.5436 54.3854 79.0116L57.2815 80.9613C58.4807 80.4727 59.6823 80.0595 60.8497 79.7132Z" fill="#E84B9B"/>
<path d="M50.1772 84.9856L57.7233 87.7761C58.4086 87.0965 59.1243 86.4973 59.8525 85.9597L53.3242 82.873C52.2345 83.498 51.1789 84.1998 50.1772 84.9856Z" fill="#5AC6D0"/>
<path d="M53.3228 82.8717L59.8511 85.9584C60.6768 85.3569 61.5283 84.8417 62.3853 84.4004L57.2852 80.9602C55.9496 81.5035 54.6139 82.1361 53.3228 82.8717Z" fill="#E84B9B"/>
<path d="M64.6319 78.7581C63.9057 78.1328 63.2168 77.5483 62.6009 77.0226C61.2942 77.2191 59.8515 77.483 58.3531 77.8457C59.1031 78.4052 59.9499 79.0469 60.8499 79.7128C62.1721 79.3159 63.4486 79.0043 64.6319 78.7581Z" fill="#F0BFD9"/>
<path d="M62.6045 77.0208C62.0074 76.5118 61.4819 76.0584 61.0546 75.6903C59.7885 75.8296 58.1912 76.0474 56.4186 76.4001C56.934 76.7853 57.5987 77.2791 58.3559 77.8462C59.8551 77.4812 61.2948 77.2187 62.6045 77.0208Z" fill="#E84B9B"/>
<path d="M57.7191 87.7765L61.3774 89.1289C62.0284 88.5783 62.7117 88.089 63.4131 87.6459L59.8496 85.9631C59.1179 86.4969 58.4044 87.0969 57.7191 87.7765Z" fill="#EF905B"/>
<path d="M59.8509 85.9596L63.4143 87.6423C64.1019 87.2166 64.8054 86.8363 65.5039 86.5038L62.3859 84.3993C61.5281 84.8428 60.6766 85.3581 59.8509 85.9596Z" fill="#E84B9B"/>
<path d="M65.4123 83.1105C64.4133 83.4507 63.3906 83.8767 62.3795 84.4011L65.4974 86.5055C66.4985 86.0296 67.4861 85.6455 68.4202 85.3338C67.502 84.6564 66.4789 83.8988 65.4123 83.1105Z" fill="#EF905B"/>
<path d="M54.3877 79.0085L52.1155 77.4734C50.2673 78.0345 48.3746 78.7531 46.5526 79.6735L49.6211 81.1199C51.1506 80.2673 52.7726 79.5771 54.3877 79.0085Z" fill="#E84B9B"/>
<path d="M65.384 76.6799L64.0314 75.4828C64.0314 75.4828 62.8835 75.5012 61.0486 75.69C61.476 76.0582 62.0037 76.5123 62.5986 77.0206C63.6194 76.8668 64.5577 76.7626 65.384 76.6799Z" fill="#F0BFD9"/>
<path d="M58.353 77.8424C57.5958 77.2754 56.9312 76.7816 56.4157 76.3964C55.0607 76.6647 53.6031 77.0175 52.1133 77.4727L54.3856 79.0078C55.7214 78.539 57.061 78.1559 58.353 77.8424Z" fill="#5AC6D0"/>
<path d="M49.6176 81.1228L46.5491 79.6764C45.151 80.3856 43.8052 81.2106 42.554 82.1715L46.1182 83.4824C47.2052 82.591 48.3819 81.8016 49.6176 81.1228Z" fill="#2B8CA8"/>
</g>
<g opacity="0.5">
<path d="M128.053 80.2336L122.971 83.7094C121.954 83.1947 120.927 82.7757 119.928 82.4385C121.432 81.3063 123.014 80.1104 124.475 79.0095C125.638 79.3538 126.845 79.7538 128.053 80.2336Z" fill="#2B8CA8"/>
<path d="M113.95 83.8829C112.531 83.5821 111.607 83.4956 111.607 83.4956L114.126 81.2251C114.868 81.3003 115.715 81.4085 116.626 81.5847C115.685 82.395 114.775 83.1796 113.95 83.8829Z" fill="#E84B9B"/>
<path d="M120.68 78.0806C121.867 78.3171 123.143 78.623 124.47 79.0092C123.01 80.1079 121.427 81.306 119.923 82.4383C118.774 82.0545 117.658 81.7793 116.625 81.5836C117.982 80.4129 119.397 79.1987 120.68 78.0806Z" fill="#E84B9B"/>
<path d="M119.924 82.4378C118.861 83.2361 117.84 83.9978 116.929 84.6775C115.819 84.3176 114.796 84.061 113.95 83.8813C114.775 83.1802 115.683 82.3926 116.626 81.5831C117.659 81.7809 118.773 82.0532 119.924 82.4378Z" fill="#5AC6D0"/>
<path d="M120.68 78.082C119.762 77.896 118.9 77.7476 118.113 77.6336L119.911 76.0123C120.738 76.086 121.677 76.1855 122.697 76.3291C122.091 76.8639 121.406 77.4543 120.68 78.082Z" fill="#E84B9B"/>
<path d="M116.628 81.5827C115.718 81.4043 114.873 81.2969 114.128 81.2231L118.116 77.6335C118.904 77.7453 119.765 77.8959 120.682 78.0819C119.399 79.1999 117.984 80.4142 116.628 81.5827Z" fill="#5AC6D0"/>
<path d="M135.711 80.3484C136.944 81.0207 138.128 81.7995 139.22 82.6887L135.176 84.2086C134.175 83.4316 133.105 82.7414 132.019 82.1223L135.711 80.3484Z" fill="#F0BFD9"/>
<path d="M128.049 80.2321L130.926 78.2624C132.549 78.8178 134.173 79.5053 135.711 80.3478L132.019 82.1217C130.726 81.3903 129.381 80.7616 128.049 80.2321Z" fill="#2B8CA8"/>
<path d="M124.473 79.0076C125.363 78.3303 126.207 77.6931 126.955 77.1258C128.251 77.4263 129.591 77.8025 130.929 78.2598L128.052 80.2296C126.843 79.752 125.636 79.352 124.473 79.0076Z" fill="#E84B9B"/>
<path d="M135.177 84.207L127.647 87.0515C126.958 86.3778 126.249 85.781 125.508 85.2498L132.02 82.1208C133.104 82.739 134.173 83.4314 135.177 84.207Z" fill="#5AC6D0"/>
<path d="M132.024 82.1204L125.511 85.2494C124.68 84.6554 123.829 84.1413 122.969 83.7059L128.052 80.2301C129.382 80.7617 130.728 81.3904 132.024 82.1204Z" fill="#E84B9B"/>
<path d="M120.678 78.0806C121.404 77.453 122.089 76.8648 122.694 76.33C124.008 76.518 125.451 76.7729 126.95 77.1274C126.199 77.6939 125.358 78.3319 124.468 79.0092C123.144 78.6216 121.865 78.3171 120.678 78.0806Z" fill="#F0BFD9"/>
<path d="M122.696 76.3295C123.292 75.8158 123.816 75.3629 124.238 74.9923C125.507 75.1173 127.102 75.3229 128.878 75.6683C128.36 76.0564 127.704 76.553 126.95 77.1283C125.451 76.7717 124.01 76.5176 122.696 76.3295Z" fill="#E84B9B"/>
<path d="M127.651 87.054L124 88.4283C123.351 87.8781 122.665 87.4014 121.958 86.9619L125.51 85.2515C126.252 85.7805 126.962 86.3803 127.651 87.054Z" fill="#EF905B"/>
<path d="M125.504 85.2501L121.952 86.9604C121.258 86.5352 120.555 86.1614 119.857 85.8343L122.962 83.7066C123.822 84.1419 124.673 84.656 125.504 85.2501Z" fill="#E84B9B"/>
<path d="M119.924 82.438C120.924 82.773 121.95 83.192 122.967 83.7089L119.861 85.8366C118.859 85.3643 117.864 84.9867 116.928 84.68C117.838 83.9973 118.858 83.2355 119.924 82.438Z" fill="#EF905B"/>
<path d="M130.928 78.2638L133.197 76.7136C135.041 77.26 136.942 77.9709 138.771 78.8792L135.715 80.35C134.174 79.5089 132.548 78.8206 130.928 78.2638Z" fill="#E84B9B"/>
<path d="M119.914 76.0121L121.259 74.7976C121.259 74.7976 122.406 74.8087 124.243 74.9925C123.82 75.3631 123.294 75.8174 122.701 76.3297C121.679 76.1853 120.74 76.0858 119.914 76.0121Z" fill="#F0BFD9"/>
<path d="M126.951 77.1282C127.703 76.5521 128.361 76.0584 128.88 75.6682C130.236 75.9289 131.698 76.2699 133.193 76.7121L130.924 78.2622C129.587 77.8049 128.247 77.4287 126.951 77.1282Z" fill="#5AC6D0"/>
<path d="M135.714 80.3481L138.77 78.8773C140.166 79.5766 141.525 80.3938 142.778 81.3463L139.222 82.6884C138.133 81.7999 136.949 81.0189 135.714 80.3481Z" fill="#2B8CA8"/>
</g>
<path d="M72.3264 75.2001C72.3279 75.5455 72.0508 75.8173 71.7098 75.8203C71.3688 75.8233 71.0911 75.549 71.0881 75.208C71.085 74.8671 71.3653 74.5865 71.7019 74.5819C72.0479 74.5857 72.324 74.8643 72.3264 75.2001Z" fill="#EF905B"/>
<path d="M76.2395 74.8225C76.2441 75.1591 75.9682 75.4413 75.6272 75.4443C75.2863 75.4473 75.0101 75.1686 75.0071 74.8276C75.0057 74.4823 75.2783 74.2089 75.6237 74.2075C75.9603 74.2029 76.2381 74.4772 76.2395 74.8225Z" fill="#EF905B"/>
<path d="M73.4154 76.8477C73.4184 77.1887 73.1441 77.4664 72.7988 77.4678C72.4622 77.4725 72.1816 77.1922 72.183 76.8528C72.18 76.5118 72.4543 76.2341 72.7952 76.231C73.1384 76.2288 73.4154 76.5053 73.4154 76.8477Z" fill="#EF905B"/>
<path d="M74.4908 78.6241C74.4938 78.965 74.2151 79.2412 73.8741 79.2442C73.5332 79.2472 73.251 78.9714 73.2496 78.626C73.245 78.2894 73.5252 78.0088 73.8662 78.0058C74.21 78.0088 74.4878 78.2831 74.4908 78.6241Z" fill="#EF905B"/>
<path d="M113.899 75.0606C113.901 75.406 114.177 75.6846 114.518 75.6816C114.859 75.6786 115.139 75.3981 115.136 75.0571C115.133 74.7161 114.855 74.4418 114.514 74.4448C114.171 74.4419 113.895 74.724 113.899 75.0606Z" fill="#EF905B"/>
<path d="M109.981 74.7092C109.984 75.0502 110.26 75.3288 110.601 75.3258C110.939 75.3294 111.22 75.0466 111.217 74.7057C111.214 74.3647 110.937 74.0904 110.597 74.089C110.253 74.0882 109.978 74.366 109.981 74.7092Z" fill="#EF905B"/>
<path d="M112.818 76.71C112.821 77.0509 113.097 77.3296 113.443 77.3282C113.779 77.3236 114.058 77.0474 114.059 76.708C114.058 76.3626 113.776 76.0868 113.435 76.0898C113.094 76.0928 112.817 76.3698 112.818 76.71Z" fill="#EF905B"/>
<path d="M111.765 78.4969C111.766 78.8423 112.044 79.1165 112.385 79.1135C112.726 79.1105 113.003 78.8387 113.001 78.4934C112.998 78.1524 112.722 77.8737 112.381 77.8767C112.04 77.8797 111.76 78.1603 111.765 78.4969Z" fill="#EF905B"/>
<path d="M86.8999 85.076C86.5918 84.2623 86.3058 83.3053 86.6573 82.465C86.9138 81.8459 87.5605 81.4921 88.1655 81.2945C88.6053 81.1487 89.0796 81.1542 89.5233 81.0048C89.9008 80.8736 90.3069 80.5196 90.421 80.1292C90.2843 79.3354 89.6369 78.431 89.1401 77.8368C88.3752 77.654 87.5639 77.7223 86.8145 77.9421C85.2442 78.4004 84.2051 79.783 84.0199 81.8421C83.8918 83.1478 84.1779 84.4126 84.5603 85.6104C84.8382 86.4802 87.1611 90.2864 85.099 90.4723C84.8469 90.4901 84.5886 90.6074 84.3959 90.8106C84.3551 90.8479 84.3094 90.9057 84.2531 90.9722C84.2054 91.0765 84.1612 91.1845 84.1355 91.2968C84.0246 91.733 84.3557 91.4286 84.4986 91.3489C84.8016 91.1907 85.1048 91.107 85.423 91.0983C85.6993 90.9999 86.0034 90.9413 86.3649 90.9432C86.9153 90.9441 87.5325 90.9047 87.9162 90.4483C88.1767 90.1333 88.2938 89.7415 88.2998 89.3343C88.3232 88.4 87.9738 87.5565 87.6441 86.7201C87.3837 86.1717 87.1164 85.6358 86.8999 85.076Z" fill="#8D5FA7"/>
<path d="M89.1413 77.8377C88.3764 77.6549 87.5652 77.7233 86.8157 77.9431C85.5919 78.3011 84.6974 79.2226 84.2653 80.5869C84.5436 80.065 85.0666 79.3265 85.6957 79.3981C86.2438 79.4602 86.017 80.2166 85.916 80.5571C85.8008 80.9297 85.6534 81.2956 85.5323 81.671C85.3838 82.1358 85.3725 82.6601 85.402 83.1471C85.4949 84.6371 86.083 85.8971 86.8401 87.1563C87.3122 87.9351 87.9763 89.0812 87.5169 90.0139C86.9617 91.1426 85.239 90.6451 84.4714 91.3669C84.4833 91.3613 84.4893 91.3585 84.4977 91.3491C84.8006 91.1909 85.1038 91.1072 85.4221 91.0985C85.6984 91.0001 86.0024 90.9415 86.3639 90.9434C86.9144 90.9443 87.5315 90.9049 87.9152 90.4484C88.1757 90.1334 88.2928 89.7417 88.2988 89.3345C88.3222 88.4002 87.9728 87.5567 87.6431 86.7202C87.3834 86.1771 87.119 85.6397 86.9025 85.08C86.5944 84.2663 86.3084 83.3092 86.6599 82.469C86.9164 81.8499 87.5631 81.4961 88.1681 81.2984C88.6079 81.1526 89.0823 81.1582 89.5259 81.0088C89.9034 80.8776 90.3095 80.5235 90.4236 80.1332C90.2855 79.3364 89.6381 78.432 89.1413 77.8377Z" fill="#8D5FA7"/>
<path d="M85.7948 87.0005C85.0225 85.0436 83.9933 82.892 84.6662 80.7466C84.6765 80.718 84.6317 80.739 84.627 80.7522C83.988 82.2971 84.2296 83.9451 84.8289 85.4548C85.1368 86.2213 85.4917 86.9676 85.8324 87.7187C86.0716 88.2569 86.6874 89.8718 85.9372 90.2649C85.8892 90.2947 85.8787 90.3852 85.9459 90.3574C86.311 90.1919 86.362 89.873 86.3703 89.4939C86.3871 88.6118 86.1177 87.8146 85.7948 87.0005Z" fill="#ED489A"/>
<path d="M91.7742 82.9354C91.7898 82.7897 91.8318 82.6462 91.8938 82.5024C92.0872 82.044 92.607 81.4309 92.5778 80.8746C92.5541 80.2482 91.9345 80.1503 91.5536 80.2158C90.5197 80.392 89.234 81.6332 89.0169 83.0407C89.0134 83.0915 89.0137 83.1388 89.0101 83.1896C89.0237 84.4945 89.8802 85.4176 90.6159 86.1331C91.073 86.5766 91.5254 87.0332 91.8058 87.6905C91.9649 88.0458 92.0989 88.4566 91.9988 88.8495C91.9367 89.1099 91.7638 89.3202 91.5992 89.5211C91.5095 89.625 91.2189 89.9068 91.4018 90.0524C91.7958 90.3415 92.4548 89.8781 92.7102 89.4744C93.2192 88.6788 93.4145 87.6877 93.2739 86.6717C93.0945 85.3042 91.3317 84.4721 91.7742 82.9354Z" fill="#8D5FA7"/>
<path d="M93.277 86.6739C93.0984 85.3042 91.3356 84.4721 91.7781 82.9354C91.7937 82.7897 91.8357 82.6462 91.8977 82.5024C92.0911 82.044 92.6109 81.4309 92.5817 80.8746C92.558 80.2482 91.9384 80.1503 91.5575 80.2158C90.5236 80.392 89.2379 81.6332 89.0208 83.0407C89.0173 83.0915 89.0176 83.1388 89.014 83.1896C89.0218 83.5174 89.0782 83.8207 89.1718 84.1101C89.1601 83.9371 89.1858 83.7703 89.2461 83.6036C89.3756 83.2461 89.7854 82.9232 90.1667 83.1308C90.5707 83.3441 90.7222 83.8232 90.8622 84.2312C91.1002 84.9029 91.5219 85.3757 91.954 85.9292C92.7464 86.9332 93.167 88.1077 92.4869 89.3003C92.2982 89.6364 92.0517 89.954 91.7171 90.1379C92.0858 90.1201 92.5158 89.7822 92.7127 89.4714C93.2201 88.6802 93.4154 87.6891 93.277 86.6739Z" fill="#8D5FA7"/>
<path d="M92.0195 87.4658C91.8697 87.1535 91.6644 86.8707 91.4451 86.5928C91.2566 86.3459 91.0479 86.114 90.8332 85.8849C90.2336 85.3278 89.6162 84.7172 89.3691 83.9404C89.3761 84.7294 90.18 85.4895 90.685 85.9925C91.3437 86.6603 92.1032 87.4539 92.0855 88.4002C92.1594 88.1069 92.1154 87.7833 92.0195 87.4658Z" fill="#ED489A"/>
<path d="M96.2305 80.3027C95.8209 80.5636 95.5392 80.9851 95.6075 81.5159C95.7025 82.2673 96.2886 82.7724 96.5947 83.4341C97.1612 84.6441 96.713 86.0596 97.2319 87.2846C97.5983 88.1566 98.1921 88.5925 99.0246 88.9859C99.524 89.2238 99.9858 89.4556 100.318 89.921C100.36 89.9833 100.4 90.0448 100.443 90.1123C100.561 90.2644 100.663 90.4279 100.71 90.559C100.713 90.565 100.714 90.5753 100.717 90.5813C100.737 90.6158 100.755 90.6472 100.772 90.6757C100.956 91.0029 101.156 90.9291 101.269 90.7343C101.426 89.796 101.015 89.1486 100.508 88.5954C100.471 88.5672 100.432 88.5308 100.391 88.5009C100.152 88.3051 99.9086 88.1277 99.6947 87.9236C98.6067 86.9068 98.6874 85.239 98.7735 83.6998C98.821 82.8015 98.7404 81.7229 98.3056 80.9575C97.8324 80.1064 96.9597 79.954 96.2305 80.3027Z" fill="#8D5FA7"/>
<path d="M100.51 88.599C100.473 88.5708 100.434 88.5344 100.393 88.5045C100.154 88.3087 99.9102 88.1313 99.6963 87.9272C98.6083 86.9104 98.6889 85.2426 98.7751 83.7034C98.8226 82.8051 98.7419 81.7265 98.3071 80.9611C97.8303 80.1062 96.9598 79.9546 96.2307 80.3033C95.821 80.5643 95.5394 80.9857 95.6076 81.5165C95.678 82.0755 96.0162 82.4981 96.3109 82.9448C96.3109 82.9448 96.3128 82.9256 96.3228 82.9119C96.4423 82.5408 96.6802 82.302 97.0775 82.4583C98.1891 82.8759 97.7297 84.9523 97.8165 85.795C97.9107 86.6925 98.2741 87.3947 98.9562 87.9842C99.4372 88.3891 99.9902 88.7458 100.402 89.2249C100.776 89.653 101.155 90.2567 101.188 90.8442C101.219 90.8185 101.243 90.78 101.269 90.7371C101.427 89.7996 101.018 89.1552 100.51 88.599Z" fill="#8D5FA7"/>
<path d="M100.328 89.7212C100.001 89.2457 99.5455 88.9764 99.0356 88.7198C98.2884 88.3374 97.7975 87.857 97.4828 87.0682C96.9835 85.8304 97.5495 84.4526 96.7579 83.3025C96.7479 83.2889 96.7103 83.3175 96.7187 83.3354C97.3435 84.6037 96.8168 86.0578 97.3596 87.3535C97.8991 88.6381 99.5205 88.7168 100.272 89.7803C100.287 89.8057 100.35 89.7491 100.328 89.7212Z" fill="#ED489A"/>
<path d="M105.52 90.4328C105.449 90.1491 105.361 89.8568 105.176 89.6631C104.621 89.0851 103.995 88.7317 103.657 87.9593C103.205 86.905 103.369 85.7758 103.575 84.6868C103.937 82.7341 103.977 80.1186 102.345 78.6841C101.892 78.2843 101.297 77.9893 100.72 77.8076C100.24 77.661 99.7461 77.6335 99.2971 77.7909C99.1938 77.9048 99.0993 78.0219 99.0108 78.1635C98.776 78.7706 98.8168 79.5347 99.3377 79.9938C99.8594 80.4507 100.512 80.697 101.075 81.0945C101.932 81.7077 102.181 82.7257 102.09 83.7299C101.99 84.8769 101.599 85.998 101.648 87.1622C101.654 87.3055 101.668 87.4571 101.681 87.608C101.963 88.6904 102.594 89.6261 103.747 90.0388C104.332 90.2457 105.024 90.2333 105.409 90.8763C105.543 90.761 105.586 90.613 105.52 90.4328Z" fill="#8D5FA7"/>
<path d="M101.291 80.1085C101.699 79.8792 102.248 80.2615 102.481 80.5715C102.857 81.0801 103.045 81.704 103.141 82.3241C103.282 83.3032 103.165 84.3126 102.969 85.2838C102.782 86.191 102.518 87.2689 103.007 88.1308C103.615 89.2268 105.172 89.5325 105.53 90.7268C105.567 90.6407 105.564 90.5454 105.524 90.4367C105.453 90.153 105.365 89.8607 105.18 89.667C104.625 89.089 103.999 88.7356 103.661 87.9632C103.209 86.9089 103.373 85.7797 103.579 84.6907C103.941 82.738 103.98 80.1225 102.349 78.688C101.896 78.2882 101.301 77.9932 100.724 77.8115C100.244 77.6649 99.75 77.6374 99.301 77.7948C99.1977 77.9087 99.1032 78.0258 99.0147 78.1674C98.7799 78.7745 98.8207 79.5386 99.3416 79.9977C99.8504 80.4425 100.494 80.693 101.052 81.0785C100.949 80.6641 100.971 80.295 101.291 80.1085Z" fill="#8D5FA7"/>
<path d="M103.769 89.8456C103.036 89.5279 102.552 88.9133 102.256 88.181C101.878 87.2327 102.065 86.1941 102.274 85.2277C102.523 84.0823 102.755 82.3653 101.825 81.4403C101.81 81.4252 101.777 81.4553 101.787 81.4689C102.856 83.0099 101.995 85.0176 101.841 86.6835C101.711 88.0556 102.419 89.3961 103.708 89.9326C103.743 89.9453 103.814 89.8667 103.769 89.8456Z" fill="#ED489A"/>
<path d="M109.422 67.3139C108.809 63.7872 103.579 62.9721 100.742 62.7086C97.8532 62.4437 86.0312 63.2251 83.0434 63.7133C80.3692 64.1439 76.2067 65.1766 76.4949 68.737C76.6441 70.5922 78.6472 72.3499 80.1646 73.1675C81.9834 74.1463 84.1206 74.5062 86.1532 74.6346C91.8472 74.9902 98.2116 74.8444 103.676 73.0475C105.098 72.578 106.485 71.9017 107.688 71.003C108.997 70.0206 109.647 68.6162 109.422 67.3139Z" fill="#324CA0"/>
<path d="M109.422 67.3139C108.809 63.7872 103.579 62.9721 100.742 62.7086C97.8532 62.4437 86.0312 63.2251 83.0434 63.7133C80.3692 64.1439 76.2067 65.1766 76.4949 68.737C76.6441 70.5922 78.6472 72.3499 80.1646 73.1675C81.9834 74.1463 84.1206 74.5062 86.1532 74.6346C91.8472 74.9902 98.2116 74.8444 103.676 73.0475C105.098 72.578 106.485 71.9017 107.688 71.003C108.997 70.0206 109.647 68.6162 109.422 67.3139ZM102.172 69.8211C100.07 71.5777 97.3951 72.4274 94.7559 72.9327C91.4662 73.5695 88.0426 73.9321 84.741 73.1703C82.7078 72.6944 80.4258 72.1109 78.7773 70.7372C78.1072 70.1695 77.4446 69.3688 77.388 68.4427C77.3188 67.2913 77.8418 66.3817 78.8867 65.8943C80.3221 65.2259 82.005 64.9225 83.5491 64.6184C84.6756 64.3988 85.8152 64.2186 86.9528 64.1122C88.6698 63.8856 95.6464 63.6043 97.3511 63.6586C98.7358 63.6987 100.101 64.0468 101.379 64.656C102.288 65.0846 103.369 65.8112 103.588 66.8853C103.823 68.0993 103.046 69.0858 102.172 69.8211Z" fill="#364DA1"/>
<path d="M87.3919 64.6233C87.0522 64.2596 81.1431 65.3196 79.535 66.2455C79.0899 66.5085 78.6557 66.8648 78.3852 67.3102C78.079 67.8269 77.8891 68.5223 78.2728 69.0657C78.4224 69.2761 78.6944 69.402 78.9237 69.2345C79.1449 69.069 79.1645 68.7411 79.1894 68.4872C79.2463 68.0562 79.4358 67.718 79.7605 67.4312C80.3306 66.9257 81.0863 66.7231 81.7897 66.4593C82.5705 66.1666 83.372 65.9334 84.1841 65.7463C84.9766 65.5719 85.7801 65.5181 86.5723 65.3585C86.8692 65.2923 87.532 65.1678 87.4488 64.7332C87.436 64.6864 87.4236 64.6521 87.3919 64.6233Z" fill="#324CA0"/>
<path d="M88.7999 64.4021C88.6665 64.3116 88.4615 64.3366 88.3344 64.427C88.2924 64.4539 88.244 64.4985 88.217 64.5457C88.1479 64.6199 88.107 64.7192 88.1221 64.8215C88.1448 64.9438 88.3022 64.9611 88.403 64.9431C88.5491 64.9166 88.6921 64.8369 88.7936 64.7347C88.8861 64.6368 88.9262 64.485 88.7999 64.4021Z" fill="#324CA0"/>
<path d="M106.968 77.7828C106.484 74.9951 102.348 74.3454 100.1 74.1362C97.8138 73.926 88.4598 74.5444 86.0953 74.9284C83.9812 75.2717 80.6832 76.0891 80.9109 78.9056C81.0279 80.377 82.6168 81.7713 83.8199 82.4155C85.2574 83.1867 86.9449 83.473 88.5531 83.5742C93.0611 83.855 98.1002 83.7377 102.42 82.318C103.548 81.9501 104.648 81.4132 105.601 80.694C106.632 79.9236 107.149 78.8109 106.968 77.7828Z" fill="#F0983E"/>
<path d="M106.968 77.7828C106.484 74.9951 102.348 74.3454 100.1 74.1362C97.8138 73.926 88.4598 74.5444 86.0953 74.9284C83.9812 75.2717 80.6832 76.0891 80.9109 78.9056C81.0279 80.377 82.6168 81.7713 83.8199 82.4155C85.2574 83.1867 86.9449 83.473 88.5531 83.5742C93.0611 83.855 98.1002 83.7377 102.42 82.318C103.548 81.9501 104.648 81.4132 105.601 80.694C106.632 79.9236 107.149 78.8109 106.968 77.7828ZM102.557 79.5787C100.785 81.0583 98.5199 81.771 96.2855 82.1997C93.5047 82.733 90.6139 83.0356 87.8294 82.3941C86.1019 81.9991 84.1785 81.5009 82.7878 80.3471C82.2133 79.8785 81.6558 79.2052 81.6124 78.4278C81.5524 77.4633 81.9943 76.6955 82.8784 76.2888C84.0928 75.7239 85.5116 75.4712 86.8169 75.2171C87.7707 75.0292 88.7293 74.8827 89.6961 74.7888C91.1413 74.6003 97.0401 74.3702 98.4758 74.4064C99.6459 74.4432 100.807 74.7373 101.882 75.2432C102.649 75.6105 103.565 76.22 103.746 77.1242C103.952 78.1367 103.297 78.9662 102.557 79.5787Z" fill="#F0983E"/>
<path d="M89.4256 75.1779C89.1526 74.8905 84.4823 75.7293 83.2053 76.4601C82.848 76.6656 82.5042 76.9505 82.2966 77.3045C82.0492 77.7135 81.8962 78.2659 82.2025 78.6944C82.3242 78.8651 82.5366 78.9569 82.7148 78.8279C82.899 78.6962 82.9086 78.4367 82.9293 78.2357C82.9735 77.8945 83.1237 77.6239 83.3789 77.3988C83.832 76.9972 84.4308 76.837 84.983 76.6277C85.5991 76.3993 86.2414 76.2152 86.8819 76.0701C87.5083 75.9298 88.1434 75.882 88.7708 75.7595C89.0054 75.7079 89.5318 75.6108 89.4648 75.2616C89.4597 75.2275 89.4443 75.1946 89.4256 75.1779Z" fill="#00BBC4"/>
<path d="M90.5359 74.9977C90.43 74.927 90.2708 74.9488 90.1657 75.0198C90.1362 75.0464 90.0986 75.0749 90.0703 75.1118C90.0208 75.1733 89.9862 75.255 90.0004 75.3321C90.0179 75.4278 90.1445 75.4414 90.2238 75.4279C90.3401 75.408 90.4509 75.3489 90.5343 75.2625C90.6041 75.1861 90.6418 75.0683 90.5359 74.9977Z" fill="#00BBC4"/>
<path d="M96.5847 57.2859C96.7593 57.297 96.9308 57.2277 97.0706 57.1021C98.9954 55.2266 99.9483 52.5822 99.8185 49.4613C99.7291 47.1464 99.0794 45.3853 99.0532 45.3138C98.9254 44.9747 98.5426 44.7988 98.1992 44.925C97.8601 45.0528 97.6842 45.4356 97.8104 45.7791C97.8414 45.8647 100.149 52.2605 96.1433 56.1485C95.8813 56.4059 95.8795 56.822 96.1331 57.0876C96.2538 57.2132 96.4189 57.2779 96.5847 57.2859Z" fill="#F0983E"/>
<path d="M98.4451 44.9777C98.3722 44.9736 98.2995 44.9894 98.2331 45.015C97.9359 45.1232 97.7873 45.4514 97.9022 45.7436C97.9272 45.8048 100.253 52.294 96.2117 56.2187C95.987 56.435 95.9829 56.7957 96.1992 57.0205C96.4083 57.2376 96.7838 57.2422 97.0009 57.033C98.9142 55.1756 99.856 52.562 99.7262 49.4683C99.6336 47.1622 98.9931 45.4168 98.9634 45.3415C98.881 45.1306 98.6833 44.9846 98.4451 44.9777Z" fill="#EA602E"/>
<path d="M96.5847 57.2859C96.7593 57.297 96.9308 57.2277 97.0706 57.1021C98.9954 55.2266 99.9483 52.5822 99.8185 49.4613C99.7291 47.1464 99.0794 45.3853 99.0532 45.3138C98.9254 44.9747 98.5426 44.7988 98.1992 44.925C97.8601 45.0528 97.6842 45.4356 97.8104 45.7791C97.8414 45.8647 100.149 52.2605 96.1433 56.1485C95.8813 56.4059 95.8795 56.822 96.1331 57.0876C96.2538 57.2132 96.4189 57.2779 96.5847 57.2859Z" fill="#324CA0"/>
<path d="M98.3146 47.8304C98.7588 47.8027 99.1965 47.7107 99.6248 47.583C99.4009 46.249 99.071 45.3654 99.0532 45.3118C98.9254 44.9728 98.5426 44.7969 98.1992 44.9231C97.8601 45.0508 97.6842 45.4337 97.8104 45.7771C97.8238 45.8018 98.1156 46.6195 98.3146 47.8304Z" fill="#565759"/>
<path d="M98.1701 52.6492C97.838 53.881 97.2228 55.107 96.1437 56.1477C95.8818 56.4051 95.8799 56.8212 96.1335 57.0867C96.2534 57.2145 96.4207 57.2801 96.5844 57.2873C96.759 57.2984 96.9305 57.229 97.0702 57.1035C98.0647 56.1389 98.7954 54.9572 99.2593 53.6217C98.9248 53.2575 98.5756 52.9201 98.1701 52.6492Z" fill="#ED7E3B"/>
<path d="M94.7192 43.6039C94.6549 45.357 96.036 46.8248 97.7824 46.8868C99.5415 46.9484 101.008 45.5717 101.071 43.8208C101.131 42.0662 99.7562 40.5955 98.0037 40.5363C96.2499 40.4741 94.777 41.8485 94.7192 43.6039Z" fill="#F0983E"/>
<path d="M97.7846 46.9801C95.9828 46.9204 94.5661 45.3999 94.6294 43.6018C94.6908 41.7956 96.2068 40.3773 98.0065 40.4363C99.8103 40.5042 101.229 42.018 101.169 43.8221C101.11 45.6218 99.5953 47.043 97.7846 46.9801ZM98.0067 40.6274C96.3029 40.5709 94.8732 41.9014 94.8124 43.6036C94.7559 45.3074 96.0923 46.7343 97.7946 46.7951C99.494 46.85 100.925 45.5152 100.98 43.8158C101.04 42.1157 99.7038 40.6889 98.0067 40.6274Z" fill="#EA602E"/>
<path d="M95.3549 43.6434C95.3128 45.0473 96.4091 46.226 97.807 46.2708C99.2093 46.3173 100.385 45.215 100.434 43.8187C100.477 42.4148 99.3829 41.2422 97.9807 41.1957C96.5792 41.147 95.4079 42.2436 95.3549 43.6434Z" fill="white"/>
<path d="M97.8107 46.3628C96.362 46.3144 95.2181 45.0888 95.2665 43.6401C95.3193 42.193 96.5406 41.0475 97.9877 41.1003C99.4364 41.1487 100.577 42.3684 100.533 43.8187C100.48 45.268 99.2594 46.4112 97.8107 46.3628ZM97.9859 41.2833C96.6353 41.2381 95.501 42.3009 95.4605 43.6458C95.4109 44.9949 96.4753 46.1247 97.8162 46.1763C99.1625 46.2198 100.301 45.1586 100.342 43.8137C100.39 42.469 99.3306 41.3312 97.9859 41.2833Z" fill="#EA602E"/>
<path d="M99.3384 43.7993C99.3155 44.6023 98.6359 45.2319 97.8353 45.2024C97.0324 45.1795 96.4012 44.5043 96.4323 43.6993C96.4552 42.8963 97.1304 42.2651 97.9354 42.2962C98.7375 42.3213 99.3673 42.9935 99.3384 43.7993Z" fill="#5D1C00"/>
<path d="M99.0126 43.741C98.9846 44.366 98.4681 44.8538 97.8437 44.831C97.228 44.8114 96.7353 44.2881 96.7609 43.6697C96.7844 43.0431 97.301 42.5554 97.9238 42.5825C98.5402 42.5999 99.0263 43.1208 99.0126 43.741Z" fill="#833723"/>
<path d="M98.7061 43.7336C98.6894 44.184 98.3105 44.538 97.8601 44.5213C97.4097 44.5045 97.0601 44.1273 97.0725 43.6753C97.0892 43.2248 97.4665 42.8752 97.9169 42.892C98.3667 42.9036 98.7229 43.2832 98.7061 43.7336Z" fill="#2C0000"/>
<path d="M97.9909 43.1498C97.9824 43.4197 97.7511 43.6336 97.4791 43.6244C97.2033 43.6187 96.9885 43.3896 96.9986 43.1154C97.0042 42.8395 97.2377 42.6264 97.5076 42.6348C97.7862 42.6465 98.0031 42.8764 97.9909 43.1498Z" fill="white"/>
<path d="M95.3588 43.6443C95.3167 45.0482 96.413 46.2268 97.8109 46.2717C99.2132 46.3182 100.389 45.2158 100.438 43.8195C100.48 42.4157 99.3868 41.243 97.9846 41.1965C96.5831 41.1478 95.4118 42.2444 95.3588 43.6443ZM96.1694 42.6528C96.4649 41.6385 97.7736 41.4228 98.648 41.68C99.4248 41.9192 99.9981 42.6925 99.9786 43.5339C99.956 44.6099 98.5625 45.0256 97.7174 44.8038C96.8004 44.5684 95.8827 43.6431 96.1694 42.6528Z" fill="#CBCCCE"/>
<path d="M103.128 51.2966C103.299 51.3018 103.478 51.24 103.614 51.1129C105.538 49.2373 106.49 46.5973 106.366 43.4736C106.27 41.1615 105.622 39.396 105.596 39.3245C105.468 38.9855 105.086 38.8096 104.742 38.9358C104.403 39.0635 104.227 39.4464 104.355 39.7854C104.38 39.8739 106.694 46.272 102.694 50.1594C102.426 50.4196 102.421 50.8371 102.679 51.0969C102.797 51.2239 102.957 51.2871 103.128 51.2966Z" fill="#F0983E"/>
<path d="M104.995 38.9851C104.916 38.9838 104.846 38.993 104.772 39.0184C104.48 39.1334 104.331 39.4564 104.444 39.753C104.468 39.8186 106.794 46.3078 102.756 50.2289C102.531 50.4452 102.527 50.8059 102.743 51.0307C102.954 51.2434 103.328 51.2523 103.545 51.0432C105.458 49.1858 106.402 46.5678 106.27 43.4785C106.178 41.1724 105.533 39.4254 105.507 39.3539C105.425 39.1408 105.223 38.9932 104.995 38.9851Z" fill="#EA602E"/>
<path d="M103.128 51.2966C103.299 51.3018 103.478 51.24 103.614 51.1129C105.538 49.2373 106.49 46.5973 106.366 43.4736C106.27 41.1615 105.622 39.396 105.596 39.3245C105.468 38.9855 105.086 38.8096 104.742 38.9358C104.403 39.0635 104.227 39.4464 104.355 39.7854C104.38 39.8739 106.694 46.272 102.694 50.1594C102.426 50.4196 102.421 50.8371 102.679 51.0969C102.797 51.2239 102.957 51.2871 103.128 51.2966Z" fill="#324CA0"/>
<path d="M104.856 41.8452C105.298 41.8115 105.736 41.7195 106.164 41.5918C105.938 40.2644 105.61 39.3742 105.592 39.3206C105.464 38.9816 105.082 38.8057 104.738 38.9319C104.399 39.0596 104.223 39.4425 104.351 39.7815C104.362 39.8128 104.656 40.6313 104.856 41.8452Z" fill="#565759"/>
<path d="M101.267 37.6102C101.207 39.3649 102.583 40.8355 104.337 40.8903C106.085 40.9531 107.557 39.5736 107.615 37.8255C107.675 36.0709 106.3 34.6002 104.547 34.541C102.793 34.481 101.322 35.8562 101.267 37.6102Z" fill="#F0983E"/>
<path d="M104.326 40.9871C102.524 40.9274 101.107 39.4069 101.166 37.6073C101.233 35.8078 102.747 34.3887 104.553 34.4501C106.354 34.512 107.773 36.0258 107.712 37.8299C107.65 39.631 106.131 41.0506 104.326 40.9871ZM104.543 34.635C102.846 34.5809 101.419 35.9174 101.359 37.6152C101.299 39.3174 102.633 40.7487 104.337 40.8051C106.035 40.8592 107.466 39.5244 107.523 37.8258C107.581 36.1227 106.244 34.6907 104.543 34.635Z" fill="#EA602E"/>
<path d="M101.906 37.6538C101.861 39.0517 102.957 40.2304 104.359 40.2769C105.756 40.3261 106.932 39.229 106.981 37.8275C107.027 36.4252 105.934 35.2526 104.533 35.2017C103.131 35.1552 101.957 36.2532 101.906 37.6538Z" fill="white"/>
<path d="M104.352 40.3747C102.899 40.3246 101.76 39.1006 101.812 37.6535C101.856 36.2032 103.082 35.0593 104.531 35.1078C105.982 35.1621 107.119 36.3802 107.071 37.8289C107.022 39.2776 105.801 40.4231 104.352 40.3747ZM104.526 35.2995C103.177 35.2499 102.043 36.3106 102 37.6569C101.955 39.0075 103.013 40.1402 104.358 40.1807C105.707 40.2303 106.839 39.174 106.882 37.8226C106.933 36.4765 105.868 35.3466 104.526 35.2995Z" fill="#EA602E"/>
<path d="M105.881 37.8128C105.858 38.6158 105.185 39.2404 104.378 39.2159C103.575 39.193 102.944 38.5178 102.975 37.7128C102.998 36.9098 103.673 36.2787 104.474 36.3081C105.281 36.3327 105.91 37.0071 105.881 37.8128Z" fill="#5D1C00"/>
<path d="M105.554 37.7581C105.528 38.3765 105.011 38.8664 104.387 38.8437C103.768 38.8181 103.284 38.298 103.304 37.6824C103.325 37.0623 103.842 36.5724 104.462 36.5936C105.085 36.6133 105.572 37.1343 105.554 37.7581Z" fill="#833723"/>
<path d="M105.249 37.7478C105.231 38.2026 104.855 38.5478 104.403 38.5354C103.951 38.523 103.601 38.1458 103.614 37.6938C103.631 37.2434 104.009 36.8894 104.457 36.9002C104.908 36.9221 105.258 37.2994 105.249 37.7478Z" fill="#2C0000"/>
<path d="M104.532 37.1581C104.52 37.4368 104.292 37.6471 104.014 37.6355C103.742 37.6315 103.528 37.4023 103.538 37.1281C103.543 36.8523 103.775 36.6435 104.047 36.6476C104.325 36.6592 104.536 36.8867 104.532 37.1581Z" fill="white"/>
<path d="M101.906 37.6529C101.861 39.0508 102.957 40.2294 104.359 40.2759C105.756 40.3252 106.932 39.228 106.981 37.8265C107.027 36.4242 105.934 35.2516 104.533 35.2007C103.131 35.1542 101.957 36.2522 101.906 37.6529ZM102.717 36.6592C103.014 35.6552 104.317 35.4328 105.192 35.6973C105.97 35.9321 106.543 36.7055 106.522 37.5461C106.501 38.6177 105.106 39.0378 104.265 38.8176C103.351 38.5808 102.429 37.6538 102.717 36.6592Z" fill="#CBCCCE"/>
<path d="M82.459 53.6437C82.6289 53.606 82.7865 53.5068 82.8865 53.347C84.3192 51.0699 84.6176 48.2803 83.7639 45.2742C83.1264 43.0412 82.0802 41.4912 82.0332 41.4221C81.8314 41.1232 81.415 41.0468 81.1169 41.2465C80.812 41.4511 80.7356 41.8675 80.9397 42.1672C80.9916 42.2431 84.7375 47.9218 81.7646 52.6429C81.5721 52.9553 81.6613 53.3597 81.9742 53.5574C82.1268 53.6499 82.2944 53.6734 82.459 53.6437Z" fill="#535CA9"/>
<path d="M81.362 41.2401C81.2893 41.2559 81.2199 41.2829 81.165 41.3251C80.9021 41.5028 80.8362 41.856 81.0095 42.1172C81.0508 42.1744 84.84 47.9258 81.84 52.6942C81.6767 52.9601 81.7541 53.3081 82.0227 53.4774C82.273 53.6425 82.6442 53.5561 82.7999 53.2975C84.2187 51.0451 84.5223 48.2821 83.6635 45.304C83.0345 43.0815 81.9963 41.5369 81.9484 41.4773C81.8196 41.2918 81.5905 41.1914 81.362 41.2401Z" fill="#535CA9"/>
<path d="M82.459 53.6437C82.6289 53.606 82.7865 53.5068 82.8865 53.347C84.3192 51.0699 84.6176 48.2803 83.7639 45.2742C83.1264 43.0412 82.0802 41.4912 82.0332 41.4221C81.8314 41.1232 81.415 41.0468 81.1169 41.2465C80.812 41.4511 80.7356 41.8675 80.9397 42.1672C80.9916 42.2431 84.7375 47.9218 81.7646 52.6429C81.5721 52.9553 81.6613 53.3597 81.9742 53.5574C82.1268 53.6499 82.2944 53.6734 82.459 53.6437Z" fill="#324CA0"/>
<path d="M81.9185 44.0521C82.344 43.9184 82.7445 43.7236 83.1281 43.5003C82.597 42.261 82.0713 41.4727 82.0371 41.4231C81.8353 41.1242 81.4189 41.0478 81.1208 41.2474C80.8159 41.4521 80.7395 41.8685 80.9436 42.1682C80.9605 42.1967 81.4356 42.9195 81.9185 44.0521Z" fill="#565759"/>
<path d="M77.419 40.7855C77.7725 42.5014 79.4587 43.6133 81.1769 43.2532C82.8944 42.8954 83.9987 41.2163 83.6446 39.4953C83.2868 37.7779 81.6034 36.6719 79.8867 37.0276C78.1693 37.3854 77.0627 39.0637 77.419 40.7855Z" fill="#F0983E"/>
<path d="M81.1991 43.3429C79.4305 43.712 77.697 42.573 77.3301 40.8051C76.9626 39.0321 78.1 37.303 79.8671 36.9383C81.6357 36.5692 83.3692 37.7082 83.7339 39.4752C84.0986 41.2423 82.9662 42.9781 81.1991 43.3429ZM79.9081 37.1194C78.2427 37.4638 77.1682 39.1016 77.5142 40.7626C77.8571 42.4325 79.4948 43.507 81.1602 43.1625C82.8257 42.8181 83.9002 41.1804 83.5558 39.5149C83.2091 37.8487 81.578 36.7765 79.9081 37.1194Z" fill="#EA602E"/>
<path d="M78.0546 40.6795C78.3394 42.0504 79.6856 42.93 81.0514 42.6457C82.4311 42.364 83.3091 41.0223 83.028 39.6477C82.7387 38.2752 81.3986 37.3928 80.0284 37.6755C78.6582 37.9582 77.7712 39.3041 78.0546 40.6795Z" fill="white"/>
<path d="M81.0766 42.7409C79.656 43.0327 78.2622 42.1135 77.9639 40.6905C77.6706 39.2743 78.5854 37.8789 80.0127 37.5822C81.4305 37.2845 82.8309 38.2061 83.1212 39.6237C83.4188 41.0488 82.501 42.4456 81.0766 42.7409ZM80.0507 37.7721C78.7317 38.0435 77.8791 39.3424 78.1522 40.657C78.4221 41.9803 79.7225 42.8285 81.0415 42.557C82.3605 42.2855 83.213 40.9867 82.9372 39.6661C82.6657 38.3472 81.369 37.4954 80.0507 37.7721Z" fill="#EA602E"/>
<path d="M81.9666 39.8925C82.1265 40.6773 81.6232 41.4502 80.8346 41.6136C80.0468 41.7748 79.2725 41.2686 79.1135 40.4816C78.9471 39.6944 79.4585 38.9195 80.244 38.7648C81.0304 38.6007 81.8054 39.1047 81.9666 39.8925Z" fill="#5D1C00"/>
<path d="M81.6328 39.9176C81.7625 40.5253 81.3744 41.1241 80.764 41.2478C80.1579 41.3731 79.5615 40.9785 79.431 40.373C79.3057 39.7669 79.6981 39.1697 80.3058 39.04C80.9155 38.9185 81.5069 39.3064 81.6328 39.9176Z" fill="#833723"/>
<path d="M81.3303 39.976C81.4207 40.4181 81.1386 40.8543 80.6981 40.9403C80.2536 41.0373 79.8242 40.7503 79.7337 40.3082C79.6433 39.8661 79.9238 39.4342 80.3659 39.3438C80.811 39.252 81.236 39.5374 81.3303 39.976Z" fill="#2C0000"/>
<path d="M80.4909 39.5718C80.5488 39.8433 80.3767 40.106 80.1038 40.161C79.8382 40.2161 79.5763 40.0418 79.5212 39.7762C79.4617 39.5091 79.6353 39.242 79.9009 39.1869C80.1731 39.1341 80.4357 39.3062 80.4909 39.5718Z" fill="white"/>
<path d="M78.0506 40.6785C78.3355 42.0495 79.6817 42.9291 81.0474 42.6448C82.4272 42.363 83.3052 41.0213 83.0241 39.6468C82.7348 38.2742 81.3947 37.3918 80.0245 37.6745C78.6543 37.9572 77.7673 39.3031 78.0506 40.6785ZM78.6014 39.5209C78.6478 38.4684 79.87 37.9435 80.777 37.9942C81.5882 38.0424 82.3287 38.6555 82.5111 39.4808C82.7402 40.5264 81.4866 41.2681 80.6083 41.2477C79.6664 41.2315 78.5557 40.5513 78.6014 39.5209Z" fill="#CBCCCE"/>
<path d="M91.1287 54.863C90.9497 54.8776 90.7739 54.8288 90.631 54.7026C88.5879 52.9528 87.4728 50.3805 87.4066 47.2553C87.3513 44.9354 87.8875 43.1399 87.9145 43.0653C88.0225 42.7125 88.3914 42.5161 88.7407 42.6203C89.0935 42.7283 89.2899 43.0971 89.1813 43.4448C89.1583 43.5357 87.258 50.0695 91.4975 53.6941C91.7724 53.9351 91.808 54.3573 91.5678 54.6301C91.4462 54.7671 91.2922 54.8429 91.1287 54.863Z" fill="#535CA9"/>
<path d="M88.0015 43.0875C87.9772 43.168 87.4438 44.9422 87.4978 47.2517C87.5641 50.3496 88.6679 52.898 90.6901 54.6303C90.9211 54.8281 91.293 54.8015 91.4938 54.5691C91.6956 54.3271 91.6678 53.9722 91.4258 53.7704C87.149 50.105 89.0648 43.4875 89.0858 43.4158C89.1783 43.1193 89.0057 42.8013 88.7077 42.7131C88.6375 42.6877 88.5675 42.6822 88.4854 42.6897C88.2583 42.7141 88.0697 42.8716 88.0015 43.0875Z" fill="#535CA9"/>
<path d="M91.1287 54.863C90.9497 54.8776 90.7739 54.8288 90.631 54.7026C88.5879 52.9528 87.4728 50.3805 87.4066 47.2553C87.3513 44.9354 87.8875 43.1399 87.9145 43.0653C88.0225 42.7125 88.3914 42.5161 88.7407 42.6203C89.0935 42.7283 89.2899 43.0971 89.1813 43.4448C89.1583 43.5357 87.258 50.0695 91.4975 53.6941C91.7724 53.9351 91.808 54.3573 91.5678 54.6301C91.4462 54.7671 91.2922 54.8429 91.1287 54.863Z" fill="#324CA0"/>
<path d="M88.8041 45.532C88.3599 45.5324 87.9166 45.4686 87.486 45.3696C87.6268 44.0288 87.8989 43.1201 87.9106 43.0673C88.0186 42.7144 88.3875 42.518 88.7367 42.6222C89.0896 42.7302 89.286 43.0991 89.1774 43.4468C89.1699 43.4813 88.9272 44.3088 88.8041 45.532Z" fill="#565759"/>
<path d="M89.2582 50.3283C89.6659 51.5452 90.3609 52.7224 91.4994 53.6955C91.7744 53.9365 91.81 54.3587 91.5698 54.6315C91.4533 54.7679 91.2994 54.8437 91.1366 54.8616C90.9576 54.8762 90.7818 54.8274 90.639 54.7012C89.585 53.7959 88.7757 52.6741 88.2331 51.3637C88.5476 50.9888 88.8741 50.6283 89.2582 50.3283Z" fill="#ED7E3B"/>
<path d="M92.1316 41.0837C92.2982 42.8361 91.0209 44.383 89.2705 44.5577C87.5225 44.7259 85.9756 43.4486 85.8009 41.6982C85.6327 39.9503 86.9116 38.399 88.6596 38.2308C90.4061 38.0596 91.959 39.3341 92.1316 41.0837Z" fill="#F0983E"/>
<path d="M85.7084 41.707C85.5354 39.9176 86.8505 38.3075 88.6481 38.1324C90.4441 37.9618 92.046 39.2789 92.2211 41.0765C92.3983 42.8749 91.0746 44.4745 89.283 44.6467C87.4876 44.8225 85.882 43.5016 85.7084 41.707ZM85.8977 41.6912C86.0606 43.3852 87.5686 44.6261 89.2634 44.461C90.9574 44.298 92.1983 42.79 92.0347 41.0909C91.8716 39.4043 90.3622 38.1604 88.6712 38.3219C86.9735 38.4885 85.7304 39.9957 85.8977 41.6912Z" fill="#EA602E"/>
<path d="M91.4881 41.1673C91.6254 42.5691 90.5996 43.8052 89.2111 43.9399C87.8092 44.0771 86.5708 43.0579 86.4401 41.6584C86.3004 40.2632 87.3227 39.0233 88.7171 38.8858C90.113 38.7514 91.3543 39.7766 91.4881 41.1673Z" fill="white"/>
<path d="M86.3431 41.6704C86.2078 40.2221 87.2666 38.936 88.7099 38.7939C90.1538 38.657 91.44 39.7158 91.5865 41.1607C91.7234 42.6046 90.6645 43.8907 89.2197 44.0372C87.778 44.1749 86.4808 43.1121 86.3431 41.6704ZM86.5296 41.6487C86.6618 42.9891 87.8634 43.9801 89.1995 43.8463C90.5422 43.7149 91.5293 42.5169 91.3956 41.1808C91.2633 39.8404 90.0662 38.851 88.7301 38.9848C87.3868 39.111 86.4018 40.3098 86.5296 41.6487Z" fill="#EA602E"/>
<path d="M87.5304 41.5776C87.6071 42.3794 88.3195 42.9674 89.1184 42.8921C89.9218 42.811 90.5046 42.0992 90.4345 41.2997C90.3534 40.4963 89.6438 39.9142 88.8397 39.9902C88.0365 40.0639 87.452 40.7801 87.5304 41.5776Z" fill="#5D1C00"/>
<path d="M87.856 41.5068C87.9162 42.1216 88.4638 42.5755 89.0889 42.5141C89.7064 42.4599 90.1575 41.9063 90.1005 41.2828C90.0352 40.6687 89.4884 40.2126 88.8677 40.2755C88.2485 40.3341 87.7946 40.8817 87.856 41.5068Z" fill="#833723"/>
<path d="M88.1593 41.4739C88.2061 41.92 88.6057 42.2484 89.0502 42.206C89.5016 42.1586 89.8275 41.7655 89.7867 41.3166C89.7459 40.8676 89.3463 40.5393 88.8974 40.5801C88.4468 40.6253 88.1201 41.0205 88.1593 41.4739Z" fill="#2C0000"/>
<path d="M88.8376 40.8404C88.8661 41.1112 89.1051 41.3144 89.384 41.2839C89.6598 41.2623 89.852 41.0193 89.8288 40.7479C89.8027 40.4705 89.5585 40.2679 89.2863 40.2934C89.011 40.3276 88.8092 40.5696 88.8376 40.8404Z" fill="white"/>
<path d="M88.721 38.8868C87.3258 39.0265 86.3043 40.2641 86.444 41.6594C86.5769 43.0597 87.8153 44.0789 89.215 43.9408C90.6035 43.8062 91.6301 42.5679 91.492 41.1682C91.3582 39.7776 90.1169 38.7523 88.721 38.8868ZM89.2217 42.477C88.3904 42.7515 86.9697 42.4204 86.8806 41.3512C86.8087 40.5088 87.3296 39.7076 88.0941 39.4189C88.9405 39.1028 90.2688 39.244 90.6233 40.2309C90.9747 41.1992 90.1148 42.1828 89.2217 42.477Z" fill="#CBCCCE"/>
<path d="M112.398 54.3147C111.679 50.1418 105.491 49.178 102.133 48.8671C98.7118 48.5509 84.7329 49.4788 81.1984 50.0518C78.0285 50.5634 73.1025 51.786 73.4464 55.9942C73.6243 58.1947 75.9924 60.2732 77.7887 61.2389C79.9341 62.3981 82.4622 62.8226 84.8699 62.9703C91.604 63.3926 99.1343 63.22 105.598 61.0933C107.276 60.5374 108.923 59.7372 110.347 58.67C111.899 57.5154 112.668 55.8565 112.398 54.3147Z" fill="#F0983E"/>
<path d="M112.398 54.3147C111.679 50.1418 105.491 49.178 102.133 48.8671C98.7118 48.5509 84.7329 49.4788 81.1984 50.0518C78.0285 50.5634 73.1025 51.786 73.4464 55.9942C73.6243 58.1947 75.9924 60.2732 77.7887 61.2389C79.9341 62.3981 82.4622 62.8226 84.8699 62.9703C91.604 63.3926 99.1343 63.22 105.598 61.0933C107.276 60.5374 108.923 59.7372 110.347 58.67C111.899 57.5154 112.668 55.8565 112.398 54.3147ZM105.809 57.0064C103.156 59.2136 99.7687 60.2767 96.431 60.916C92.2775 61.7113 87.9567 62.1607 83.7915 61.2077C81.2109 60.6129 78.336 59.8717 76.2567 58.1534C75.4078 57.449 74.5667 56.4422 74.4963 55.2804C74.4102 53.84 75.0715 52.6927 76.3924 52.087C78.2117 51.2425 80.3273 50.8676 82.2787 50.4803C83.7033 50.2049 85.1345 49.9865 86.583 49.8438C88.7477 49.5661 97.5644 49.212 99.7136 49.2784C101.46 49.3257 103.194 49.7652 104.802 50.5239C105.948 51.0603 107.319 51.9811 107.587 53.3236C107.891 54.8456 106.914 56.0845 105.809 57.0064Z" fill="#F0983E"/>
<path d="M86.1649 50.4162C85.7583 49.991 78.7707 51.2409 76.868 52.343C76.34 52.643 75.8252 53.0643 75.509 53.5948C75.1457 54.2075 74.9215 55.0318 75.3771 55.6782C75.5535 55.9306 75.8724 56.071 76.1438 55.8765C76.4102 55.6753 76.4246 55.2861 76.4655 54.9883C76.5295 54.483 76.7532 54.0777 77.1322 53.7437C77.8118 53.1413 78.7101 52.9011 79.5342 52.5918C80.4603 52.2474 81.4106 51.9664 82.3747 51.75C83.3055 51.5364 84.256 51.4738 85.1869 51.2875C85.5437 51.2133 86.329 51.0661 86.2287 50.5485C86.2212 50.4937 86.1987 50.4532 86.1649 50.4162Z" fill="#00BBC4"/>
<path d="M87.8404 50.1564C87.6817 50.0468 87.4455 50.0754 87.295 50.1895C87.2454 50.2237 87.1927 50.2666 87.1513 50.326C87.0715 50.4162 87.0218 50.5396 87.0425 50.6538C87.069 50.7998 87.2567 50.8158 87.3731 50.7959C87.5492 50.7753 87.7133 50.6785 87.8375 50.5548C87.9476 50.4358 87.998 50.2556 87.8404 50.1564Z" fill="#00BBC4"/>
<path d="M107.136 55.6648C106.722 55.1428 105.748 55.4497 105.265 55.5848C103.918 55.9604 102.665 56.6453 101.424 57.3099C97.8277 59.2324 93.8255 60.2611 89.7904 59.7571C83.7561 59.0053 84.365 57.5984 81.589 57.5703C81.0527 57.5646 80.4105 57.8034 80.4127 58.5162C80.4201 59.2632 81.2434 59.812 81.7232 60.1793C83.2338 61.317 85.1116 61.8111 86.907 62.1761C89.8051 62.7644 93.4046 62.5598 96.2824 62.074C99.1466 61.5981 101.591 60.8487 104.198 59.4261C105.058 58.9635 106.081 58.0439 106.81 57.3454C107.289 56.8937 107.616 56.2631 107.136 55.6648Z" fill="#535CA9"/>
<path d="M106.619 56.2461C106.223 55.8049 105.285 56.0678 104.817 56.1863C103.528 56.5058 102.325 57.0946 101.127 57.6681C97.67 59.3159 93.8299 60.205 89.9516 59.7751C84.1558 59.1321 84.7396 57.9244 82.0669 57.8991C81.5541 57.8969 80.9423 58.0996 80.9435 58.7128C80.9477 59.3519 81.7331 59.8274 82.2 60.1479C83.6477 61.1238 85.4602 61.5447 87.1803 61.8576C89.96 62.3683 93.4203 62.1853 96.1885 61.7689C98.9376 61.3505 101.286 60.7101 103.79 59.4885C104.618 59.0863 105.598 58.2999 106.303 57.7019C106.758 57.3085 107.077 56.7692 106.619 56.2461Z" fill="#535CA9"/>
<path d="M96.0832 60.4595C94.5781 60.3063 93.1271 60.3464 91.6675 60.8076C90.7912 61.0831 89.5328 61.4063 88.7522 62.0613C91.194 62.2859 93.9259 62.1069 96.1912 61.7639C97.3519 61.5939 98.4489 61.3735 99.5151 61.0874C98.3761 60.7045 97.0965 60.566 96.0832 60.4595Z" fill="#2E3192"/>
<path d="M83.371 59.6192C84.1104 60.222 84.7372 59.4641 85.1458 58.7264C84.1846 58.3459 83.6913 58.0159 82.6347 57.926C82.7517 58.5687 82.9092 59.2435 83.371 59.6192Z" fill="white"/>
<path d="M103.336 58.1772C103.782 57.7408 103.973 57.0558 104.042 56.4112C103.256 56.6721 102.501 57.009 101.743 57.3695C102.151 57.9888 102.719 58.7775 103.336 58.1772Z" fill="white"/>
<path d="M86.7022 59.9162C87.1006 60.1176 87.3531 59.7699 87.5754 59.4163C87.0364 59.3153 86.5899 59.2057 86.2061 59.094C86.2865 59.4406 86.434 59.7868 86.7022 59.9162Z" fill="white"/>
<path d="M99.5985 59.1016C99.8235 58.8433 99.9399 58.5083 100.005 58.1647C99.4856 58.3859 98.9609 58.5879 98.4234 58.7703C98.6614 59.2435 99.1439 59.6168 99.5985 59.1016Z" fill="white"/>
<path d="M91.7792 56.8376C91.6213 56.5819 91.318 56.6383 91.1192 56.8243C90.9052 57.0246 90.7574 57.4053 90.9245 57.6767C90.967 57.7442 91.0241 57.7921 91.0893 57.8108C91.1322 57.8636 91.1889 57.899 91.2437 57.9188C91.5041 58.0082 91.7633 57.7721 91.8606 57.5444C91.9626 57.3109 91.9102 57.0513 91.7792 56.8376Z" fill="#2E3192"/>
<path d="M94.0203 56.6707C93.8637 56.3634 93.5384 56.5011 93.3539 56.7022C93.1919 56.8891 93.1113 57.1527 93.1744 57.3964C93.2018 57.5055 93.2629 57.5698 93.3371 57.6116C93.3668 57.6596 93.4197 57.6986 93.4974 57.7168C93.767 57.7946 93.9769 57.5233 94.0478 57.2934C94.1063 57.1112 94.1104 56.8398 94.0203 56.6707Z" fill="#2E3192"/>
<path opacity="0.4" d="M93.9407 23.9214C63.7804 24.0219 39.4051 48.8294 39.5078 79.3328C39.5165 80.7129 39.5698 82.0794 39.6713 83.436C39.6713 83.436 39.6817 83.4348 39.6861 83.4364C39.6907 83.9715 39.8704 84.1879 39.8495 84.1977C41.9821 89.8304 65.6742 93.9019 94.474 93.4203C123.405 92.9391 146.971 88.0309 148.645 82.3008C148.667 81.9368 148.683 81.5705 148.697 81.2034C148.722 80.458 148.736 79.719 148.735 78.9745C148.634 48.4688 124.102 23.8187 93.9407 23.9214ZM128.849 77.9932C122.55 85.5956 106.879 87.2135 95.0958 87.5324C81.8193 87.8911 66.8599 86.4643 56.0048 80.9395C51.116 78.4566 46.9705 75.196 45.7507 71.05C44.8719 68.0721 45.2186 65.1288 46.144 62.2313C46.8223 55.0986 51.1357 48.1017 56.3057 42.5067C62.4854 35.8162 70.9743 31.086 80.8654 28.7245C89.7691 26.5957 100.125 25.395 108.83 28.6721C109.019 28.7456 109.194 28.8239 109.383 28.8996C109.832 29.0625 110.283 29.2357 110.711 29.4231C121.786 34.2732 127.004 43.6358 130.023 51.8748C132.988 59.9699 135.207 70.3155 128.849 77.9932Z" fill="#6EA1B7"/>
<path opacity="0.9" d="M48.7578 61.8672C48.0113 64.1745 47.3725 66.63 46.8731 69.2551C46.8731 69.2551 49.2708 74.9987 55.0646 78.4073C55.0646 78.4073 55.1515 74.4072 56.2959 68.4878C53.6194 66.4044 51.0894 64.1904 48.7578 61.8672Z" fill="white"/>
<path opacity="0.9" d="M50.3417 57.5788C52.6889 59.2973 55.1846 60.8662 57.722 62.3882C60.6077 51.9218 66.6115 38.5732 79.1096 29.5419C79.1118 29.5427 59.5688 35.4069 50.3417 57.5788Z" fill="white"/>
<path d="M13.0884 87.0098C14.4153 87.0042 15.5487 87.4023 16.0014 87.9608C16.1364 87.8211 16.2111 87.6696 16.2107 87.5131C16.2109 86.821 14.8135 86.2677 13.0815 86.2754C11.3628 86.2805 9.9633 86.8429 9.96536 87.5358C9.96576 87.6923 10.0415 87.8462 10.1768 87.9796C10.6259 87.4178 11.7571 87.0139 13.0884 87.0098Z" fill="#6D6E71"/>
<path d="M13.0892 88.7704C14.416 88.7648 15.5492 88.4309 15.9952 87.9599C15.5417 87.4036 14.4091 87.0032 13.0822 87.0089C11.7509 87.0129 10.6197 87.4169 10.1714 87.9765C10.6247 88.4508 11.7615 88.7782 13.0892 88.7704Z" fill="#00874C"/>
<path d="M13.781 88.5549C12.9729 88.5599 11.6476 88.6157 11.0023 87.9726C10.8361 87.8082 10.8417 87.6217 10.912 87.4412C10.5937 87.5939 10.3404 87.7726 10.1751 87.9756C10.6263 88.4492 11.7652 88.7774 13.0921 88.7718C13.9688 88.7693 14.7548 88.6198 15.3165 88.3842C14.8229 88.4113 14.2549 88.5479 13.781 88.5549Z" fill="#00874C"/>
<path d="M11.6846 87.749C11.6861 87.8339 11.5568 87.8962 11.4048 87.8982C11.2483 87.8986 11.1297 87.8358 11.1282 87.7509C11.1282 87.6616 11.2465 87.5953 11.406 87.5935C11.558 87.5915 11.6831 87.6641 11.6846 87.749Z" fill="#C2E1B7"/>
<path d="M12.25 87.4091C12.2469 87.4725 12.1511 87.5246 12.0241 87.5258C11.9054 87.5249 11.8094 87.4678 11.8058 87.4095C11.8031 87.3415 11.9079 87.2852 12.026 87.2808C12.1492 87.2833 12.2503 87.3397 12.25 87.4091Z" fill="#C2E1B7"/>
<path d="M10.1832 87.978C10.1832 87.978 10.2606 88.0383 10.4035 88.1371C10.4764 88.1685 10.5654 88.2107 10.6717 88.2665C10.7835 88.307 10.902 88.3499 11.0395 88.3948C11.1781 88.4301 11.3162 88.4802 11.4817 88.5029C11.6439 88.5344 11.8108 88.5601 11.9866 88.5816C12.1592 88.6118 12.3517 88.6146 12.5335 88.6333C12.7169 88.6476 12.9074 88.6422 13.0983 88.6493C13.2844 88.6423 13.4829 88.6423 13.6663 88.6293C13.8512 88.6119 14.0365 88.6071 14.2049 88.5738C14.387 88.5505 14.5582 88.5232 14.7118 88.4895C14.8726 88.4634 15.0206 88.4178 15.161 88.3793C15.2943 88.3333 15.4122 88.2817 15.5274 88.2515C15.6306 88.1996 15.7152 88.1508 15.7899 88.1159C15.9289 88.0198 16.0063 87.9635 16.0063 87.9635C16.0063 87.9635 15.9432 88.035 15.822 88.1573C15.7477 88.2048 15.6643 88.2639 15.5695 88.3338C15.4604 88.3885 15.3421 88.4548 15.2055 88.517C15.07 88.5622 14.92 88.6269 14.7565 88.6744C14.5981 88.7212 14.4257 88.7655 14.242 88.7932C14.0639 88.8329 13.8752 88.8538 13.6827 88.8784C13.4874 88.897 13.2993 88.8958 13.1028 88.904C12.7098 88.8932 12.3162 88.8771 11.9558 88.8036C11.7756 88.7805 11.5997 88.7317 11.4387 88.6833C11.2744 88.6436 11.1322 88.5772 10.9903 88.5308C10.8537 88.4763 10.7308 88.4046 10.6303 88.3533C10.5304 88.2799 10.4462 88.2246 10.37 88.1746C10.2477 88.0534 10.1832 87.978 10.1832 87.978Z" fill="white"/>
<path d="M93.2481 105.901C94.5794 105.897 95.7188 106.293 96.1671 106.849C96.3005 106.714 96.3768 106.558 96.3764 106.402C96.3742 105.716 94.9732 105.159 93.2472 105.164C91.5219 105.167 90.129 105.731 90.1294 106.429C90.1314 106.581 90.2072 106.735 90.3452 106.874C90.79 106.311 91.9228 105.902 93.2481 105.901Z" fill="#6D6E71"/>
<path d="M93.2547 107.658C94.5844 107.658 95.7191 107.32 96.1673 106.85C95.7182 106.295 94.5796 105.898 93.2483 105.902C91.923 105.903 90.7902 106.311 90.3463 106.872C90.7932 107.337 91.927 107.666 93.2547 107.658Z" fill="#00874C"/>
<path d="M93.9417 107.449C93.1336 107.454 91.8143 107.507 91.169 106.864C91.0072 106.701 91.0084 106.513 91.0787 106.332C90.7626 106.486 90.5004 106.669 90.3446 106.873C90.793 107.34 91.9275 107.667 93.2552 107.659C94.1363 107.658 94.9223 107.509 95.484 107.273C94.9872 107.309 94.4216 107.439 93.9417 107.449Z" fill="#00874C"/>
<path d="M91.838 106.632C91.8395 106.717 91.7168 106.782 91.5581 106.781C91.4061 106.783 91.2786 106.717 91.2756 106.637C91.2756 106.548 91.3999 106.478 91.5586 106.479C91.715 106.478 91.8379 106.55 91.838 106.632Z" fill="#C2E1B7"/>
<path d="M92.4105 106.295C92.4148 106.359 92.31 106.415 92.1934 106.415C92.0709 106.418 91.9719 106.362 91.9751 106.299C91.9724 106.231 92.0728 106.173 92.1937 106.175C92.3125 106.176 92.4086 106.225 92.4105 106.295Z" fill="#C2E1B7"/>
<path d="M90.3379 106.87C90.3379 106.87 90.4169 106.926 90.5553 107.023C90.6311 107.061 90.72 107.103 90.8235 107.153C90.937 107.189 91.0522 107.24 91.187 107.279C91.3299 107.316 91.4763 107.364 91.6336 107.389C91.7934 107.427 91.9627 107.446 92.1385 107.468C92.3111 107.498 92.4992 107.499 92.6854 107.519C92.8687 107.534 93.0592 107.528 93.2502 107.535C93.4319 107.527 93.6376 107.534 93.8181 107.515C94.0047 107.494 94.1884 107.493 94.3611 107.462C94.5351 107.44 94.7041 107.412 94.868 107.377C95.0244 107.349 95.1681 107.302 95.3085 107.264C95.449 107.225 95.5669 107.174 95.6777 107.142C95.7824 107.086 95.8699 107.043 95.9483 107.004C96.0829 106.907 96.1604 106.85 96.1604 106.85C96.1604 106.85 96.0973 106.922 95.9761 107.044C95.9018 107.092 95.8192 107.149 95.7192 107.219C95.6145 107.275 95.4982 107.35 95.3611 107.399C95.2225 107.453 95.0777 107.518 94.9165 107.558C94.7565 107.61 94.576 107.656 94.3945 107.684C94.2202 107.721 94.0277 107.745 93.8384 107.761C93.6415 107.784 93.4578 107.784 93.2553 107.795C92.8623 107.784 92.4687 107.768 92.1098 107.691C91.9296 107.667 91.7582 107.62 91.5927 107.57C91.4344 107.528 91.2847 107.469 91.1443 107.418C91.0077 107.363 90.8849 107.291 90.7844 107.24C90.6844 107.167 90.6003 107.111 90.5241 107.062C90.4018 106.94 90.3379 106.87 90.3379 106.87Z" fill="white"/>
<path d="M173.275 86.4872C174.602 86.4816 175.737 86.8754 176.188 87.4382C176.323 87.2985 176.404 87.1442 176.399 86.9861C176.399 86.294 175 85.7473 173.27 85.7484C171.545 85.7586 170.152 86.3159 170.154 87.0089C170.154 87.1653 170.23 87.3193 170.364 87.457C170.814 86.8909 171.946 86.4869 173.275 86.4872Z" fill="#6D6E71"/>
<path d="M173.277 88.2433C174.607 88.2436 175.735 87.903 176.182 87.4371C175.731 86.8743 174.596 86.4805 173.269 86.4861C171.939 86.4858 170.809 86.8876 170.358 87.4537C170.811 87.9229 171.945 88.2495 173.277 88.2433Z" fill="#00874C"/>
<path d="M173.965 88.0311C173.161 88.0377 171.842 88.0908 171.192 87.4461C171.026 87.2817 171.027 87.0935 171.105 86.9185C170.783 87.0695 170.523 87.251 170.36 87.4549C170.813 87.924 171.948 88.2507 173.28 88.2444C174.156 88.2419 174.938 88.0909 175.504 87.8568C175.01 87.8913 174.44 88.0198 173.965 88.0311Z" fill="#00874C"/>
<path d="M171.87 87.2197C171.867 87.303 171.744 87.3677 171.586 87.3673C171.434 87.3693 171.304 87.3025 171.303 87.2228C171.303 87.1335 171.43 87.0704 171.585 87.067C171.742 87.0666 171.864 87.1332 171.87 87.2197Z" fill="#C2E1B7"/>
<path d="M172.431 86.8795C172.436 86.9431 172.337 86.9966 172.21 86.9978C172.087 87.0005 171.993 86.9465 171.991 86.8763C171.993 86.8151 172.086 86.7592 172.208 86.7565C172.331 86.7589 172.432 86.8176 172.431 86.8795Z" fill="#C2E1B7"/>
<path d="M170.363 87.4535C170.363 87.4535 170.446 87.511 170.585 87.6083C170.656 87.6441 170.749 87.6878 170.853 87.7377C170.966 87.7738 171.077 87.8239 171.221 87.866C171.355 87.8997 171.504 87.9537 171.663 87.9741C171.823 88.0121 171.992 88.0313 172.168 88.0528C172.345 88.0846 172.527 88.0886 172.715 88.1045C172.903 88.1204 173.089 88.1134 173.28 88.1205C173.461 88.1119 173.663 88.1179 173.848 88.1005C174.032 88.0831 174.212 88.0811 174.391 88.0466C174.567 88.0261 174.733 87.9972 174.893 87.9607C175.054 87.9346 175.202 87.889 175.341 87.8549C175.472 87.8081 175.596 87.7589 175.703 87.7255C175.807 87.6692 175.899 87.628 175.973 87.5879C176.112 87.4918 176.188 87.4399 176.188 87.4399C176.188 87.4399 176.127 87.507 175.999 87.6269C175.932 87.682 175.842 87.7387 175.746 87.8034C175.642 87.8597 175.521 87.9326 175.387 87.9882C175.247 88.037 175.099 88.1047 174.938 88.1456C174.779 88.1924 174.606 88.2389 174.426 88.2704C174.246 88.3093 174.05 88.3226 173.857 88.3472C173.667 88.3674 173.478 88.3662 173.276 88.3772C172.887 88.3679 172.496 88.3453 172.134 88.2762C171.955 88.2487 171.778 88.2043 171.622 88.1553C171.452 88.1184 171.31 88.052 171.169 88.0012C171.025 87.9488 170.916 87.8773 170.809 87.8237C170.708 87.7546 170.624 87.6993 170.549 87.645C170.431 87.5254 170.363 87.4535 170.363 87.4535Z" fill="white"/>
</svg>
