<svg width="260" height="254" viewBox="0 0 260 254" fill="none" xmlns="http://www.w3.org/2000/svg">
<path d="M138.953 254C205.304 254 259.091 237.714 259.091 217.624C259.091 197.535 205.304 181.249 138.953 181.249C72.603 181.249 18.8154 197.535 18.8154 217.624C18.8154 237.714 72.603 254 138.953 254Z" fill="#3C2D66"/>
<path d="M138.953 182.648C204.532 182.648 257.836 198.557 259.067 218.324C259.081 218.091 259.091 217.858 259.091 217.624C259.091 197.535 205.304 181.249 138.953 181.249C72.603 181.249 18.8154 197.535 18.8154 217.624C18.8154 217.858 18.8251 218.091 18.8397 218.324C20.071 198.557 73.3749 182.648 138.953 182.648Z" fill="#E5E2ED"/>
<path d="M138.953 189.514C77.2181 189.514 26.3596 203.613 19.583 221.756C26.3596 239.9 77.2181 253.999 138.953 253.999C200.689 253.999 251.547 239.9 258.324 221.756C251.547 203.613 200.689 189.514 138.953 189.514Z" fill="#211735"/>
<mask id="mask0_1525_14287" style="mask-type:luminance" maskUnits="userSpaceOnUse" x="0" y="0" width="259" height="254">
<path d="M138.953 0C-6.18644 0 -21.0794 130.969 19.5832 221.757C26.3597 239.901 77.2182 254 138.953 254C200.689 254 251.547 239.901 258.324 221.757C251.547 203.614 284.093 0 138.953 0Z" fill="white"/>
</mask>
<g mask="url(#mask0_1525_14287)">
<path d="M91.041 202.251L99.4756 213.32L106.06 221.957L109.763 226.815L109.924 227.026L111.285 228.815L111.458 229.042L113.462 231.673L123.29 244.566L123.408 244.721L123.46 245.879L124.152 261.525L124.24 263.488L124.413 267.409L124.859 277.48L124.936 279.17L125.031 281.318L125.05 281.759L137.678 283.367L153.272 285.352L153.389 285.367L153.392 285.352L153.662 283.714L154.009 281.614L154.263 280.068L155.725 271.207L156.648 265.616L157 263.478L159.122 250.621C159.685 243.556 157.712 236.519 153.561 230.774L135.053 205.169L91.041 202.251Z" fill="white"/>
<path opacity="0.61" d="M109.763 226.815L109.924 227.026L111.284 228.815C111.304 228.813 111.321 228.812 111.341 228.811L113.462 231.673L123.123 244.703L123.027 245.983C123.169 245.948 123.313 245.914 123.459 245.879C130.312 244.217 140.955 241.56 140.955 241.56L140.72 238.24C140.72 238.24 129.152 240.432 124.873 239.217C121.187 238.164 114.866 231.195 113.576 228.641C113.364 228.226 113.286 227.931 113.371 227.791C113.961 226.822 116.874 224.686 117.117 224.508C116.883 224.632 113.928 226.176 109.851 226.802C109.822 226.806 109.792 226.811 109.763 226.815Z" fill="#C6C1C9"/>
<path d="M121.57 243.175C128.434 241.745 144.15 238.101 154.67 232.784C156.219 232.001 158.109 232.639 158.882 234.194L158.989 234.41C159.773 235.988 159.105 237.902 157.507 238.648C150.847 241.758 134.106 249.03 122.344 249.455C120.995 249.504 119.768 248.68 119.297 247.415C119.288 247.388 119.278 247.362 119.268 247.335C118.6 245.536 119.691 243.566 121.57 243.175Z" fill="#5ACDFF"/>
<path d="M158.988 234.41L158.881 234.194C158.859 234.15 158.833 234.109 158.809 234.065C158.678 235.096 158.04 236.041 157.026 236.515C150.365 239.625 133.624 246.897 121.863 247.322C120.729 247.363 119.684 246.786 119.099 245.851C119.037 246.335 119.084 246.841 119.267 247.335C119.277 247.362 119.287 247.388 119.297 247.415C119.768 248.68 120.995 249.504 122.344 249.455C134.105 249.03 150.846 241.758 157.507 238.648C159.105 237.902 159.773 235.989 158.988 234.41Z" fill="#1C8FB7"/>
<path d="M112.645 256.55C112.125 260.164 111.753 262.469 111.675 262.548C111.312 262.922 75.8498 260.486 76.0852 258.431C76.1228 258.097 76.2791 256.56 76.51 254.222C77.7038 242.225 80.936 209.13 80.936 209.13C80.936 209.13 114.624 207.078 116.861 209.277C118.626 211.013 114.597 242.99 112.645 256.55Z" fill="white"/>
<path d="M138.418 131.358L154.87 163.662C155.024 163.616 155.179 163.567 155.334 163.521C155.701 163.41 156.063 163.291 156.422 163.172C169.269 158.894 189.481 145.147 192.432 141.929C193.169 141.125 193.548 140.65 193.548 140.65L193.447 140.529L192.897 139.864L175.5 118.852C175.007 119.069 174.303 119.316 173.423 119.589C172.983 119.725 172.5 119.867 171.982 120.015C171.52 120.144 171.028 120.277 170.512 120.416C162.674 122.498 149.039 125.282 143.766 126.343C143.76 126.345 143.753 126.345 143.748 126.346C143.744 126.344 143.741 126.346 143.737 126.344C143.734 126.347 143.734 126.347 143.734 126.347C142.388 126.619 141.595 126.773 141.595 126.773L140.133 128.878L138.418 131.358Z" fill="white"/>
<path d="M175.792 116.825L183.441 125.62L183.942 126.218L194.661 139.165C195.39 138.651 196.201 137.833 197.061 136.783C201.413 131.479 205.776 118.438 209.232 110.619C194.999 111.018 188.518 105.296 185.621 101.56C183.971 110.723 175.792 116.825 175.792 116.825Z" fill="white"/>
<path d="M182.587 124.865C182.211 124.484 181.962 124.231 181.874 124.138C182.089 124.377 182.331 124.62 182.587 124.865Z" fill="white"/>
<path d="M181.842 124.104C181.854 124.114 181.863 124.127 181.875 124.138C181.854 124.114 181.842 124.104 181.842 124.104Z" fill="white"/>
<path opacity="0.61" d="M173.424 119.588C166.65 121.687 149.745 125.141 143.749 126.344C144.382 126.268 164.609 123.815 171.817 126.688C179.139 129.607 185.313 137.179 188.627 138.788C189.573 139.25 180.375 126.076 173.424 119.588Z" fill="#C6C1C9"/>
<path opacity="0.61" d="M145.277 148.561C146.799 150.261 150.309 157.583 155.334 163.521C155.701 163.409 156.063 163.291 156.423 163.172C169.27 158.893 189.481 145.147 192.433 141.928C193.17 141.125 193.548 140.65 193.548 140.65L193.447 140.529L190.266 140.219L190.264 140.22C190.013 140.397 177.15 150.875 173.851 152.344C171.805 153.255 157.921 159.19 157.2 157.998C152.298 149.88 146.68 150.085 145.277 148.561Z" fill="#C6C1C9"/>
<path d="M194.06 142.715C194.88 142.6 195.748 142.142 196.521 141.554C198.046 140.401 199.193 138.749 198.821 138.244C198.26 137.482 185.408 128.282 181.855 123.64C178.302 118.999 176.77 117.811 176.045 116.687C176.045 116.687 174.934 115.177 173.462 115.477C172.755 115.619 169.096 117.757 169.358 118.91C169.62 120.068 191.617 143.06 194.06 142.715Z" fill="#5ACDFF"/>
<path d="M194.06 142.715C194.88 142.6 195.748 142.142 196.521 141.554C189.256 139.734 173.621 122.242 172.014 120.058C170.405 117.872 173.462 115.477 173.462 115.477C172.755 115.619 169.096 117.757 169.358 118.91C169.62 120.068 191.617 143.06 194.06 142.715Z" fill="#1C8FB7"/>
<path d="M203.874 113.953C211.319 113.2 215.841 97.1565 216.194 96.8307C216.549 96.4937 218.453 96.5606 221.653 96.8261C224.865 97.0935 226.73 92.8856 225.394 92.1135C224.058 91.3421 216.258 90.9816 215.143 91.166C214.027 91.362 212.573 93.8581 212.05 94.1449C211.521 94.424 213.944 90.5358 214.595 89.9459C215.252 89.3642 217.657 88.8011 221.691 86.9961C225.737 85.1917 224.048 80.93 222.969 81.2519C221.903 81.5762 212.123 84.2445 211.398 84.7781C210.672 85.3123 208.674 88.9638 208.321 89.1253C207.98 89.2882 209.612 82.3084 210.171 81.6668C210.722 81.0308 213.802 80.3879 216.022 78.7104C218.242 77.0334 216.532 74.2779 215.472 74.3566C214.411 74.435 206.917 77.4381 205.984 78.5849C205.064 79.7342 203.662 85.755 203.327 86.0013C202.993 86.2472 203.21 78.8073 203.618 77.9028C204.028 76.9985 209.736 74.2356 210.641 73.438C211.547 72.6285 210.752 70.922 209.531 70.1423C208.303 69.3681 198.887 74.7065 198.013 76.0522C197.139 77.3966 196.883 84.0985 196.413 85.0688C196.358 85.1868 196.289 85.3022 196.21 85.4044C195.641 86.1956 194.59 86.674 194.319 86.5002C194.007 86.3138 193.324 80.1548 190.319 77.3983C187.313 74.6409 184.558 74.2841 183.852 76.5578C183.146 78.8322 186.658 86.6322 187.12 88.914C187.576 91.1876 183.536 98.7435 186.756 105.519C189.97 112.299 198.586 114.488 203.874 113.953Z" fill="#371A46"/>
<path d="M199.505 95.8425C199.546 95.4064 199.816 91.8091 198.291 89.2903C197.247 87.5584 196.56 86.1781 196.21 85.4043C195.641 86.1955 194.59 86.6739 194.319 86.5001C194.319 86.5001 199.214 92.1086 199.505 95.8425Z" fill="#1D0E28"/>
<path d="M37.5518 126.358L91.9277 129.965L92.2254 125.478L37.8495 121.87L37.5518 126.358Z" fill="#5F526D"/>
<path d="M41.3035 122.901L88.6447 126.039C91.864 126.253 94.6469 123.816 94.8604 120.596L96.0351 102.878C96.2486 99.6588 93.8118 96.8759 90.5924 96.6625L43.2512 93.5238C40.0317 93.3103 37.2489 95.7471 37.0354 98.9665L35.8607 116.685C35.6473 119.904 38.0841 122.687 41.3035 122.901Z" fill="#939393"/>
<path d="M39.6587 99.4544L93.3715 103.016C94.8314 103.112 96.0935 102.007 96.1903 100.547L96.2469 99.6925C96.3438 98.2325 95.2387 96.9705 93.7787 96.8737L40.0659 93.3125C38.6059 93.2157 37.3439 94.3208 37.2472 95.7808L37.1905 96.6356C37.0936 98.0956 38.1987 99.3577 39.6587 99.4544Z" fill="white"/>
<path d="M65.5793 206.884L86.0848 208.244C87.7156 208.352 89.1177 207.23 89.2166 205.739L94.1559 131.239C94.2548 129.748 93.0131 128.451 91.3823 128.343L38.288 124.823C36.6572 124.715 35.2551 125.836 35.1562 127.327L30.3684 199.542C30.2695 201.033 63.9485 206.776 65.5793 206.884Z" fill="#939393"/>
<path d="M144.256 204.205C144.256 204.205 169.099 150.902 147.965 127.992C126.831 105.082 106.297 123.645 106.297 123.645L106.952 126.584C106.952 126.584 131.19 115.584 142.872 134.625C154.554 153.666 135.762 201.99 135.762 201.99L144.256 204.205Z" fill="#71667C"/>
<path d="M77.5284 168.591C77.3193 179.456 77.7023 191.503 78.6152 200.25C79.3248 207.079 80.3562 211.898 81.676 212.57C85.7091 214.624 133.498 216.898 137.845 216.294C142.191 215.688 136.691 217.021 142.163 204.877C147.637 192.735 146.516 165.177 147.014 152.288C147.349 143.621 146.012 137.478 144.264 131.998C143.189 128.629 143.816 126.232 143.816 126.232L90.8714 120.287C90.8714 120.287 89.7099 121.475 88.098 123.8C85.0524 128.195 80.0632 139.007 78.5762 151.175C77.9992 155.889 77.6548 162.024 77.5284 168.591Z" fill="white"/>
<path opacity="0.61" d="M77.5284 168.591C77.3193 179.456 77.7023 191.504 78.6152 200.25L89.0006 200.1L77.5284 168.591Z" fill="#C6C1C9"/>
<path d="M88.0977 123.8C104.722 130.885 137.799 134.043 144.264 131.998C143.945 128.476 143.816 126.233 143.816 126.233L90.871 120.287C90.871 120.287 89.7096 121.475 88.0977 123.8Z" fill="#371A46"/>
<path d="M84.4067 85.6295C84.5522 92.2646 86.2505 98.4972 89.147 103.992C91.4424 108.347 94.4881 112.237 98.1095 115.495C105.667 122.299 115.731 126.342 126.694 126.102C133.089 125.961 139.114 124.378 144.465 121.667C148.287 119.733 151.762 117.222 154.784 114.252C158.253 110.845 161.122 106.83 163.218 102.388C165.881 96.7662 167.31 90.4554 167.164 83.8144C167.094 80.6306 166.668 77.54 165.922 74.5786C165.142 71.486 164.014 68.5369 162.588 65.7726C162.576 65.7477 162.564 65.7209 162.549 65.696C162.484 65.5675 162.414 65.4351 162.343 65.3067C161.03 62.8369 159.473 60.5101 157.702 58.3743C157.02 57.5493 156.308 56.7541 155.562 55.9847C155.437 55.8537 155.31 55.7225 155.179 55.5916C155.175 55.5877 155.173 55.5859 155.169 55.5822C153.842 54.2397 152.42 52.9907 150.918 51.8421C143.715 46.3239 134.655 43.1317 124.879 43.3461C115.104 43.5604 106.19 47.1468 99.2369 52.9794C97.7815 54.1947 96.4098 55.5109 95.1369 56.9143C95.0138 57.0489 94.8925 57.1834 94.7733 57.3199C94.0672 58.1152 93.3946 58.9388 92.7536 59.787C91.0776 62.0024 89.6208 64.3933 88.4115 66.9243C88.3504 67.0555 88.2854 67.1907 88.2243 67.3241C88.2132 67.3476 88.2022 67.3769 88.1891 67.4004C86.8835 70.2283 85.8881 73.224 85.2427 76.3479C84.6276 79.3392 84.3368 82.4457 84.4067 85.6295Z" fill="white"/>
<path d="M113.583 73.4531L114.283 105.371C114.488 114.732 122.244 122.155 131.605 121.949L144.465 121.667C147.191 120.287 149.742 118.615 152.076 116.686C153.014 115.916 153.917 115.103 154.783 114.252C158.253 110.845 161.121 106.83 163.218 102.389C165.88 96.7665 167.309 90.4557 167.164 83.8147C167.094 80.6309 166.667 77.5403 165.921 74.5789C165.142 71.4863 164.014 68.5371 162.588 65.7729C162.575 65.748 162.563 65.7212 162.549 65.6963C162.484 65.5678 162.413 65.4354 162.343 65.3069C161.363 63.4643 160.248 61.7 159.009 60.0375C158.587 59.4726 158.15 58.9176 157.702 58.3746C157.02 57.5496 156.308 56.7543 155.562 55.9849C155.437 55.8539 155.31 55.7228 155.179 55.5919C155.175 55.588 155.173 55.5862 155.169 55.5825L130.162 56.1309C120.801 56.3362 113.378 64.0917 113.583 73.4531Z" fill="#371A46"/>
<path d="M85.2429 76.3479C85.8882 73.224 86.8837 70.2283 88.1893 67.4005C88.2024 67.3768 88.2134 67.3476 88.2245 67.3241C88.2856 67.1907 88.3506 67.0556 88.4117 66.9243C89.621 64.3933 91.0778 62.0024 92.7538 59.7871C93.3948 58.9388 94.0674 58.1152 94.7735 57.32C94.8927 57.1834 95.014 57.0489 95.1371 56.9144C96.41 55.5109 97.7817 54.1947 99.2371 52.9795C106.19 47.1469 115.105 43.5605 124.879 43.3461C134.655 43.1317 143.715 46.3239 150.919 51.8421C152.42 52.9907 153.842 54.2398 155.169 55.5822L140.369 55.9068C125.371 56.2357 113.479 68.6612 113.807 83.6598L114.06 95.1633C114.389 110.162 126.814 122.054 141.813 121.725L144.465 121.667C139.114 124.378 133.089 125.961 126.694 126.102C115.731 126.342 105.667 122.299 98.1095 115.495C94.4881 112.237 91.4424 108.347 89.1471 103.992C86.2506 98.4972 84.5522 92.2646 84.4067 85.6295C84.3367 82.4456 84.6275 79.3391 85.2429 76.3479Z" fill="white"/>
<path d="M113.583 73.4531L114.283 105.371C114.488 114.732 122.244 122.155 131.605 121.949L144.465 121.667C147.191 120.287 149.742 118.615 152.076 116.686C124.61 113.713 118.723 83.6569 124.45 71.5464C129.472 60.9278 152.468 60.0647 159.009 60.0375C158.587 59.4726 158.15 58.9176 157.702 58.3746C157.02 57.5496 156.308 56.7543 155.562 55.9849C155.437 55.8539 155.31 55.7228 155.179 55.5919C155.175 55.588 155.173 55.5862 155.169 55.5825L130.162 56.1309C120.801 56.3362 113.378 64.0917 113.583 73.4531Z" fill="#291335"/>
<path d="M84.7201 99.9567C86.4248 100.909 101.761 102.984 110.504 99.721L109.943 74.1207C109.943 74.1207 94.815 74.9084 84.4152 71.8134C84.3059 71.7807 84.201 71.7715 84.1024 71.7873C80.7337 72.2763 83.0644 99.0308 84.7201 99.9567Z" fill="white"/>
<path d="M145.341 123.397C145.341 123.397 147.125 122.387 148.971 120.401C149.416 119.922 149.006 119.148 148.358 119.239C146.852 119.451 144.877 119.718 144.422 119.728C143.665 119.745 145.341 123.397 145.341 123.397Z" fill="white"/>
<path d="M124.803 128.041C125.443 128.055 126.094 128.055 126.736 128.041C133.284 127.898 139.544 126.335 145.342 123.398L144.422 119.729L141.77 119.787C141.395 119.795 141.016 119.795 140.643 119.787C127.12 119.489 116.295 108.655 115.998 95.1213L115.746 83.6178C115.599 76.8817 118.083 70.4912 122.741 65.6237C127.4 60.756 133.676 57.9939 140.412 57.8462L156.899 57.4847C157.963 57.4614 158.483 56.1762 157.735 55.4191L156.548 54.2194C155.172 52.8268 153.674 51.5089 152.097 50.3021C144.766 44.6865 136.008 41.6105 126.77 41.4075C126.129 41.3934 125.479 41.3935 124.836 41.4076C115.021 41.6229 105.487 45.205 97.9905 51.4939C96.473 52.7611 95.0284 54.1476 93.7004 55.6119C93.5729 55.751 93.4415 55.897 93.3121 56.0451C92.5965 56.8512 91.8843 57.7211 91.2064 58.6183C89.4503 60.9394 87.921 63.4531 86.6618 66.0884L86.5826 66.257C86.5429 66.3412 86.503 66.426 86.4644 66.5101C86.4617 66.5157 86.4284 66.588 86.4284 66.588C85.0478 69.5781 84.0099 72.73 83.3435 75.956C82.6904 79.1308 82.3958 82.3992 82.4676 85.6724C82.6165 92.463 84.2865 98.9311 87.4312 104.896C89.8268 109.442 92.9832 113.493 96.8125 116.937C104.513 123.87 114.454 127.814 124.802 128.041C124.802 128.041 124.802 128.041 124.803 128.041Z" fill="white"/>
<path d="M84.7207 99.9564C86.4254 100.908 101.761 102.983 110.505 99.7208L110.501 99.5539C108.819 99.4726 105.602 99.6964 105.602 99.6964C105.602 99.6964 99.8579 100.666 84.7207 99.9564Z" fill="#DFD3E5"/>
<path d="M84.1025 71.7873C89.5432 77.4974 104.649 76.6034 104.649 76.6034L109.943 74.1206C109.943 74.1206 94.8153 74.9084 84.4155 71.8134C84.3061 71.7808 84.2011 71.7715 84.1025 71.7873Z" fill="#DFD3E5"/>
<path d="M105.602 99.6967C105.752 99.7922 110.505 99.721 110.505 99.721L109.943 74.1206C109.943 74.1206 109.941 74.1206 109.94 74.1227C109.795 74.1627 105.145 75.4867 104.65 76.6034C104.145 77.7377 105.451 99.6011 105.602 99.6967Z" fill="#371A46"/>
<path d="M105.602 99.6969C105.752 99.7925 110.505 99.7212 110.505 99.7212L110.465 97.8947C109.14 97.885 107.631 97.5553 107.33 97.1817C106.819 96.549 105.986 83.3429 106.548 79.6659C107.099 76.0631 109.827 74.1992 109.94 74.123C109.795 74.163 105.145 75.487 104.65 76.6037C104.145 77.7379 105.451 99.6013 105.602 99.6969Z" fill="#291335"/>
<path opacity="0.43" d="M158.857 82.9738C159.289 93.4553 154.934 97.4723 158.673 97.2493C162.412 97.0263 165.045 90.1824 164.555 81.9629C164.065 73.7434 158.317 65.0111 154.578 65.2342C150.84 65.4572 158.426 72.4923 158.857 82.9738Z" fill="#DFD3E5"/>
<path d="M86.2787 102.543C86.2787 102.543 86.2786 102.545 86.2783 102.549C86.2814 102.619 86.3019 103.277 86.4264 104.331C86.5231 105.16 86.6851 106.236 86.9521 107.456C87.4647 109.809 88.3748 112.705 89.9731 115.453C89.9731 115.453 88.9186 117.315 88.9188 119.187C88.9178 120.025 89.1301 120.867 89.7462 121.543C91.7377 123.726 141.259 131.995 145.016 129.971C146.897 128.959 146.799 127.656 146.454 126.811C146.24 126.29 145.931 125.943 145.931 125.943C145.931 125.943 148.098 123.571 147.541 121.623C147.501 121.485 147.45 121.349 147.381 121.216C146.772 120.031 141.309 122.421 133.08 122.855C129.028 123.071 124.307 122.812 119.163 121.417C117.057 120.846 114.878 120.084 112.646 119.088C108.742 117.345 105.322 115.61 102.353 113.957C91.4188 107.867 86.5895 102.871 86.2933 102.559C86.2879 102.553 86.2825 102.547 86.2806 102.545C86.2787 102.543 86.2787 102.543 86.2787 102.543Z" fill="white"/>
<path opacity="0.43" d="M157.241 103.905C158.727 101.831 158.956 99.4504 157.753 98.5889C156.55 97.7274 154.371 98.7107 152.885 100.785C151.399 102.86 151.169 105.24 152.372 106.101C153.575 106.963 155.755 105.98 157.241 103.905Z" fill="#DFD3E5"/>
<path d="M118.549 120.909C118.549 120.909 118.726 121.105 119.163 121.417C121.044 122.767 127.73 126.294 145.93 125.944C145.93 125.944 148.098 123.572 147.541 121.623C147.469 121.609 147.432 121.602 147.432 121.602C147.432 121.602 141.275 122.967 133.079 122.856C128.618 122.797 123.553 122.301 118.549 120.909Z" fill="#DFD3E5"/>
<path d="M86.9512 107.458C87.4644 109.81 88.3737 112.705 89.9724 115.454C102.302 120.751 118.996 122.564 119.515 122.618C99.0816 118.346 87.1372 107.625 86.9512 107.458Z" fill="#DFD3E5"/>
<path d="M95.4473 53.795C95.5912 53.8661 95.7472 53.918 95.9094 53.9525C99.7407 54.7507 113.353 57.3835 127.677 57.6983C139.533 57.9588 148.93 56.5708 155.607 53.5711C155.67 53.5433 155.731 53.5117 155.79 53.4741C154.627 52.3545 153.389 51.2914 152.096 50.3008C150.245 48.8847 148.288 47.6253 146.245 46.5329C141.996 47.2581 133.65 48.3938 124.051 48.1829C117.6 48.0411 111.658 47.3092 106.358 46.0015C103.377 47.4956 100.562 49.3349 97.9888 51.4938C97.1153 52.2235 96.2642 52.9924 95.4473 53.795Z" fill="#DFD3E5"/>
<path d="M86.2773 102.549C86.2805 102.62 86.301 103.278 86.4255 104.332C86.8708 104.799 87.6758 105.526 87.8818 105.731C94.5567 112.325 102.088 113.915 102.351 113.957C93.6039 110.864 86.6644 102.985 86.2923 102.56C86.2869 102.554 86.2814 102.548 86.2796 102.545C86.2795 102.547 86.2775 102.547 86.2773 102.549Z" fill="#DFD3E5"/>
<path d="M148.777 47.6457C144.876 48.4235 123.044 52.3484 104 46.9834C103.442 46.8262 102.836 46.9295 102.374 47.254L96.0495 51.6983C95.745 51.9123 95.8508 52.3545 96.2263 52.4328C102.328 53.7056 136.747 60.3405 154.971 52.156C155.276 52.0192 155.317 51.6374 155.046 51.4491L149.899 47.8731C149.579 47.6505 149.169 47.5675 148.777 47.6457Z" fill="white"/>
<path d="M75.4082 134.584L76.5391 137.374C76.5391 137.374 98.6303 122.525 113.294 139.379C125.158 153.014 120.51 188.847 118.302 202.032C117.781 205.143 117.396 206.993 117.396 206.993L126.14 207.776C126.14 207.776 141.847 151.105 117.223 131.997C92.5985 112.887 75.4082 134.584 75.4082 134.584Z" fill="#71667C"/>
<path d="M76.5391 137.374C76.5391 137.374 98.6303 122.525 113.294 139.379C125.158 153.014 120.51 188.846 118.302 202.032C118.489 201.475 126.733 176.481 122.982 153.122C119.189 129.495 93.8819 120.645 76.5391 137.374Z" fill="#5F526D"/>
<path d="M88.918 119.187C88.9169 120.024 89.1292 120.866 89.7453 121.543C91.7368 123.725 141.258 131.994 145.015 129.971C146.896 128.959 146.798 127.656 146.453 126.811C146.319 126.788 146.241 126.783 146.241 126.783C146.241 126.783 147.098 129.637 137.617 128.933C128.135 128.23 91.1554 123.611 88.918 119.187Z" fill="#DFD3E5"/>
<path d="M77.6251 205.475C77.7711 207.055 78.2543 208.561 79.8067 208.893C85.2114 210.048 87.9202 210.413 93.3862 211.17C96.1403 211.552 98.9056 211.883 101.671 212.162C112.685 213.277 122.088 213.79 132.545 213.361C134.891 213.264 137.291 213.122 139.775 212.927C141.355 212.803 142.529 211.407 142.385 209.827C142.214 207.95 144.57 205.772 144.399 203.896C144.332 203.171 143.693 202.639 142.968 202.699C142.135 202.77 141.303 202.836 140.471 202.895C140.469 202.897 140.469 202.897 140.469 202.897C126.927 203.891 113.34 203.614 99.8768 202.074C99.8749 202.074 99.8749 202.074 99.873 202.074C92.4383 201.225 85.0464 199.992 77.7248 198.376C77.0142 198.218 76.3103 198.661 76.1487 199.369C75.7291 201.207 77.4509 203.617 77.6251 205.475Z" fill="#71667C"/>
<path d="M132.545 213.362C134.892 213.264 137.292 213.122 139.775 212.927C141.356 212.803 142.529 211.407 142.385 209.827C142.214 207.95 144.57 205.772 144.399 203.897C144.333 203.171 143.693 202.639 142.968 202.7C142.136 202.771 141.303 202.836 140.471 202.895C140.469 202.897 140.469 202.897 140.469 202.897L132.545 213.362Z" fill="#5F526D"/>
<path d="M145.332 201.005C144.228 201.006 141.219 201.394 140.956 201.608C140.692 201.822 137.139 213.4 137.652 213.862C138.165 214.324 141.869 214.141 142.519 213.721C143.17 213.301 146.255 201.004 145.332 201.005Z" fill="#71667C"/>
<path d="M145.361 203.835C145.361 203.835 142.36 203.901 142.181 204.104C142.002 204.307 139.981 212.097 140.169 212.506C140.356 212.916 143.443 212.773 143.686 212.59C143.93 212.408 145.818 203.965 145.361 203.835Z" fill="white"/>
<path d="M145.469 205.896C145.469 205.896 143.747 205.934 143.644 206.05C143.542 206.167 142.382 210.636 142.489 210.871C142.597 211.106 144.368 211.024 144.508 210.919C144.648 210.815 145.731 205.97 145.469 205.896Z" fill="#463B54"/>
<path d="M130.463 196.382L146.946 197.475C147.589 197.517 148.144 197.031 148.187 196.389L149.517 176.327C149.559 175.684 149.073 175.129 148.431 175.087L131.947 173.994C131.305 173.951 130.749 174.437 130.707 175.08L129.377 195.142C129.334 195.784 129.82 196.339 130.463 196.382Z" fill="#C6C1C9"/>
<path d="M132.737 176.6L131.59 193.904C131.497 195.307 132.559 196.521 133.962 196.614L147.688 197.524C149.093 197.617 150.307 196.554 150.4 195.151L151.547 177.847C151.64 176.442 150.578 175.229 149.173 175.135L135.446 174.225C134.044 174.132 132.83 175.195 132.737 176.6Z" fill="#E3E4E5"/>
<path d="M132.332 182.709L131.59 193.904C131.497 195.307 132.559 196.52 133.962 196.613L147.688 197.523C149.093 197.617 150.307 196.554 150.4 195.151L150.523 193.288C149.077 193.174 147.187 192.8 145.879 191.71C143.483 189.717 143.419 184.692 143.419 184.692L137.627 183.721C137.627 183.721 133.726 185.196 132.332 182.709Z" fill="#D1D1D1"/>
<path d="M143.452 185.717C145.187 183.982 145.187 181.169 143.452 179.434C141.717 177.699 138.904 177.699 137.169 179.434C135.434 181.169 135.434 183.982 137.169 185.717C138.904 187.452 141.717 187.452 143.452 185.717Z" fill="#C6C1C9"/>
<path d="M143.771 185.197C145.506 183.462 145.506 180.649 143.771 178.914C142.036 177.179 139.223 177.179 137.488 178.914C135.753 180.649 135.753 183.462 137.488 185.197C139.223 186.932 142.036 186.932 143.771 185.197Z" fill="#44A2CC"/>
<path d="M144.237 183.479C145.023 181.482 144.041 179.225 142.043 178.439C140.046 177.652 137.789 178.635 137.003 180.632C136.216 182.63 137.199 184.887 139.196 185.673C141.194 186.459 143.451 185.477 144.237 183.479Z" fill="#7FD3FF"/>
<path d="M144.175 182.588C144.317 180.446 142.696 178.594 140.553 178.452C139.613 178.39 138.729 178.667 138.021 179.179C138.774 178.495 139.793 178.103 140.889 178.176C143.032 178.318 144.653 180.17 144.511 182.312C144.431 183.514 143.813 184.552 142.908 185.207C143.627 184.554 144.105 183.634 144.175 182.588Z" fill="#A6E4FF"/>
<path d="M137.625 179.597C137.315 180.11 137.118 180.702 137.076 181.342C136.934 183.484 138.555 185.336 140.697 185.478C142.001 185.564 143.194 184.996 143.962 184.057C143.235 185.263 141.878 186.033 140.376 185.933C138.233 185.791 136.612 183.94 136.754 181.797C136.809 180.958 137.13 180.201 137.625 179.597Z" fill="#50BEEF"/>
<path d="M74.9631 181.281L74.7416 184.621C74.655 185.927 75.6435 187.054 76.9479 187.14L131.797 190.777L132.332 182.709L77.4828 179.073C76.1784 178.986 75.0496 179.974 74.9631 181.281Z" fill="#E3E4E5"/>
<path d="M74.9631 181.281L74.7416 184.621C74.655 185.927 75.6435 187.054 76.9479 187.14L131.797 190.777C131.797 190.777 80.1032 186.574 78.129 184.424C76.6534 182.818 77.8248 180.306 78.5084 179.141L77.4828 179.073C76.1784 178.986 75.0496 179.974 74.9631 181.281Z" fill="#B6B6B7"/>
<path d="M17.045 124.999L71.4209 128.606L71.7186 124.119L17.3427 120.512L17.045 124.999Z" fill="#71667C"/>
<path d="M21.5162 121.588L73.9691 125.066L75.4827 102.236C75.7224 98.6201 72.9856 95.4947 69.3698 95.2549L23.4638 92.2114C19.8481 91.9717 16.7226 94.7085 16.4829 98.3242L15.4033 114.607C15.1637 118.223 17.9005 121.349 21.5162 121.588Z" fill="white"/>
<path d="M12.7508 199.351L65.5791 206.884C67.2098 206.992 68.612 205.871 68.7108 204.379L73.8292 127.179L17.7822 123.463C16.1514 123.355 14.7493 124.476 14.6504 125.968L9.9772 196.455C9.87833 197.946 11.1201 199.243 12.7508 199.351Z" fill="white"/>
<path d="M119.965 146.81C120.808 151.869 121.445 156.96 121.872 162.071C121.926 162.715 122.49 163.201 123.135 163.152C126.086 162.924 129.036 162.696 131.987 162.467C132.634 162.419 133.111 161.82 133.055 161.136C132.602 155.72 131.928 150.324 131.034 144.963C130.92 144.284 130.309 143.825 129.671 143.935C126.754 144.441 123.838 144.946 120.922 145.451C120.284 145.563 119.857 146.169 119.965 146.81Z" fill="#857791"/>
<path d="M123.953 161.09C126.247 160.888 128.54 160.687 130.834 160.485C131.336 160.443 131.706 159.977 131.655 159.447C131.267 155.264 130.746 151.094 130.092 146.944C130.01 146.418 129.537 146.058 129.04 146.139C126.768 146.509 124.495 146.878 122.223 147.247C121.727 147.328 121.389 147.8 121.469 148.302C122.093 152.269 122.592 156.255 122.963 160.253C123.01 160.759 123.451 161.134 123.953 161.09Z" fill="white"/>
<path d="M126.513 158.734C127.898 158.592 129.283 158.45 130.669 158.308C130.972 158.277 131.192 157.995 131.157 157.678C130.893 155.173 130.581 152.674 130.22 150.181C130.175 149.866 129.894 149.646 129.592 149.69C128.214 149.894 126.836 150.097 125.458 150.3C125.158 150.346 124.949 150.631 124.994 150.937C125.345 153.362 125.649 155.794 125.906 158.232C125.939 158.54 126.211 158.765 126.513 158.734Z" fill="#463B54"/>
<path d="M124.874 145.548C125.312 148.074 125.699 150.607 126.034 153.148C126.109 153.721 126.344 154.16 126.565 154.133C127.566 154.006 128.568 153.879 129.57 153.752C129.79 153.724 129.906 153.231 129.83 152.647C129.487 150.055 129.092 147.47 128.646 144.894C128.54 144.28 124.751 144.85 124.874 145.548Z" fill="#5F526D"/>
<path d="M148.163 147.856C148.375 152.981 148.377 158.111 148.169 163.236C148.143 163.882 148.642 164.434 149.288 164.465C152.245 164.603 155.201 164.742 158.157 164.88C158.805 164.912 159.352 164.377 159.382 163.691C159.602 158.26 159.6 152.823 159.375 147.393C159.346 146.704 158.797 146.173 158.15 146.204C155.194 146.345 152.238 146.486 149.281 146.626C148.634 146.658 148.136 147.208 148.163 147.856Z" fill="#857791"/>
<path d="M150.357 162.52C152.657 162.604 154.958 162.687 157.259 162.771C157.762 162.79 158.187 162.374 158.203 161.842C158.335 157.643 158.333 153.441 158.198 149.242C158.181 148.709 157.756 148.293 157.253 148.313C154.953 148.399 152.652 148.484 150.351 148.569C149.849 148.588 149.455 149.015 149.472 149.523C149.602 153.537 149.603 157.553 149.477 161.567C149.461 162.075 149.853 162.502 150.357 162.52Z" fill="white"/>
<path d="M153.187 160.499C154.58 160.529 155.972 160.559 157.364 160.59C157.669 160.596 157.921 160.344 157.927 160.025C157.974 157.507 157.973 154.988 157.924 152.47C157.918 152.151 157.666 151.898 157.361 151.905C155.968 151.936 154.576 151.968 153.184 151.999C152.88 152.007 152.638 152.264 152.645 152.573C152.693 155.023 152.694 157.475 152.648 159.925C152.642 160.235 152.884 160.492 153.187 160.499Z" fill="#463B54"/>
<path d="M153.191 147.211C153.313 149.771 153.383 152.334 153.402 154.896C153.406 155.474 153.585 155.939 153.807 155.939C154.817 155.937 155.826 155.935 156.836 155.933C157.058 155.933 157.234 155.458 157.231 154.868C157.211 152.254 157.139 149.64 157.015 147.029C156.985 146.406 153.155 146.503 153.191 147.211Z" fill="#5F526D"/>
<path opacity="0.61" d="M57.9473 182.359C65.8021 174.504 65.8021 161.769 57.9474 153.914C50.0926 146.059 37.3575 146.06 29.5027 153.914C21.6479 161.769 21.6478 174.504 29.5026 182.359C37.3574 190.214 50.0925 190.214 57.9473 182.359Z" fill="#C6C1C9"/>
<path d="M54.1124 180.318C61.9672 172.463 61.9672 159.728 54.1124 151.873C46.2576 144.018 33.5225 144.019 25.6677 151.873C17.8129 159.728 17.8129 172.463 25.6676 180.318C33.5224 188.173 46.2575 188.173 54.1124 180.318Z" fill="#71667C"/>
<path d="M51.089 177.272C58.0273 170.334 58.0273 159.085 51.089 152.147C44.1507 145.208 32.9016 145.208 25.9633 152.147C19.025 159.085 19.025 170.334 25.9633 177.272C32.9016 184.211 44.1507 184.211 51.089 177.272Z" fill="white"/>
<path d="M45.018 171.84C49.7564 167.102 49.7564 159.42 45.018 154.681C40.2796 149.943 32.5972 149.943 27.8589 154.681C23.1205 159.42 23.1205 167.102 27.8589 171.84C32.5972 176.579 40.2796 176.579 45.018 171.84Z" fill="#71667C"/>
<path d="M38.0201 165.148C40.4121 162.756 40.4121 158.877 38.0201 156.485C35.628 154.093 31.7497 154.093 29.3576 156.485C26.9655 158.877 26.9655 162.756 29.3576 165.148C31.7497 167.54 35.628 167.54 38.0201 165.148Z" fill="#857791"/>
<path d="M20.2479 112.558L68.8989 115.783C69.2174 115.804 69.4927 115.563 69.5139 115.245L69.8207 110.617C69.8418 110.299 69.6007 110.023 69.2821 110.002L20.6311 106.777C20.3126 106.756 20.0372 106.997 20.0161 107.315L19.7093 111.943C19.6882 112.261 19.9293 112.536 20.2479 112.558Z" fill="#5F526D"/>
<path d="M20.9129 111.517L69.5639 114.743C69.8824 114.764 70.1577 114.523 70.1789 114.204L70.4857 109.577C70.5068 109.258 70.2657 108.983 69.9472 108.962L21.2961 105.736C20.9776 105.715 20.7023 105.956 20.6811 106.275L20.3743 110.902C20.3532 111.221 20.5944 111.496 20.9129 111.517Z" fill="#857791"/>
<path d="M78.8534 241.79C85.7354 243.128 101.637 245.85 113.395 245.02C115.127 244.898 116.622 246.218 116.733 247.95L116.748 248.19C116.86 249.95 115.503 251.456 113.742 251.525C106.397 251.815 88.1459 252.04 77.1367 247.88C75.874 247.403 75.0616 246.168 75.1169 244.819C75.1181 244.791 75.1192 244.763 75.1204 244.735C75.2001 242.818 76.9696 241.423 78.8534 241.79Z" fill="#5ACDFF"/>
<path d="M116.748 248.19L116.733 247.95C116.73 247.9 116.722 247.852 116.716 247.803C116.196 248.703 115.243 249.328 114.124 249.372C106.779 249.661 88.5279 249.887 77.5187 245.727C76.4579 245.326 75.7172 244.39 75.5395 243.301C75.2953 243.723 75.1425 244.208 75.1204 244.735C75.1195 244.763 75.118 244.791 75.1169 244.819C75.0619 246.168 75.8741 247.403 77.1368 247.88C88.146 252.04 106.397 251.815 113.742 251.525C115.504 251.456 116.861 249.95 116.748 248.19Z" fill="#1C8FB7"/>
<path d="M216.417 101.303L175.102 97.9306C175.102 97.9306 170.897 94.4923 170.873 87.0569C170.851 80.0068 174.892 76.8639 174.892 76.8639L216.131 72.6665L216.417 101.303Z" fill="#783D15"/>
<path d="M230.193 103.638L181.746 99.6828C181.746 99.6828 176.815 95.6509 176.787 86.9321C176.761 78.6651 181.5 74.9796 181.5 74.9796L229.858 70.0576L230.193 103.638Z" fill="#B85A1A"/>
<path d="M230.214 103.642C237.114 103.573 242.632 95.9998 242.539 86.7265C242.447 77.4532 236.778 69.9916 229.878 70.0606C222.978 70.1296 217.46 77.7031 217.553 86.9764C217.645 96.2497 223.314 103.711 230.214 103.642Z" fill="#D66D26"/>
<path d="M230.191 101.364C236.154 101.304 240.924 94.7581 240.844 86.7426C240.764 78.7272 235.864 72.2777 229.9 72.3373C223.936 72.397 219.167 78.9431 219.247 86.9586C219.327 94.9741 224.227 101.424 230.191 101.364Z" fill="white"/>
<path d="M229.881 72.3349C228.105 72.3526 226.435 72.946 224.967 73.9819C226.126 73.3919 227.383 73.0629 228.698 73.0498C234.662 72.9902 239.561 79.4394 239.641 87.4545C239.698 93.0824 237.363 97.9857 233.902 100.428C238.002 98.3419 240.887 92.9873 240.824 86.7396C240.744 78.7245 235.845 72.2752 229.881 72.3349Z" fill="#B85A1A"/>
<path d="M191.189 110.224L149.874 106.851C149.874 106.851 145.668 103.413 145.645 95.9774C145.622 88.9273 149.663 85.7844 149.663 85.7844L190.903 81.5869L191.189 110.224Z" fill="#8C4718"/>
<path d="M204.965 112.558L156.518 108.603C156.518 108.603 151.587 104.571 151.559 95.8525C151.532 87.5854 156.271 83.9 156.271 83.9L204.629 78.978L204.965 112.558Z" fill="#CC631D"/>
<path d="M204.983 112.563C211.883 112.494 217.402 104.92 217.309 95.6469C217.216 86.3736 211.548 78.912 204.648 78.981C197.748 79.05 192.229 86.6235 192.322 95.8968C192.415 105.17 198.084 112.632 204.983 112.563Z" fill="#EA772A"/>
<path d="M204.961 110.285C210.925 110.226 215.695 103.68 215.615 95.664C215.534 87.6486 210.635 81.1991 204.671 81.2587C198.707 81.3184 193.937 87.8645 194.017 95.88C194.097 103.895 198.997 110.345 204.961 110.285Z" fill="white"/>
<path d="M204.653 81.2553C202.877 81.273 201.207 81.8664 199.739 82.9023C200.899 82.3123 202.156 81.9833 203.471 81.9703C209.434 81.9107 214.334 88.3599 214.414 96.375C214.47 102.003 212.135 106.906 208.675 109.348C212.774 107.262 215.659 101.908 215.597 95.6601C215.517 87.6449 210.617 81.1957 204.653 81.2553Z" fill="#CC631D"/>
<path d="M217.832 66.3697C217.832 66.3697 216.92 74.6664 215.322 76.42C213.725 78.1735 211.035 78.2107 210.743 75.0542C210.452 71.8978 211.996 68.4764 212.566 65.8707C213.011 63.8353 217.658 64.3445 217.832 66.3697Z" fill="#371A46"/>
<path d="M212.767 65.5591C212.767 65.5591 210.446 75.2199 208.566 76.8104C206.685 78.4009 203.911 78.0777 204.035 74.7891C204.159 71.5005 207.282 67.7386 207.145 65.5798C207.009 63.4211 212.859 63.4506 212.767 65.5591Z" fill="#371A46"/>
<path d="M207.469 65.5594C207.469 65.5594 203.186 76.8304 201.161 78.2327C199.136 79.6349 196.406 79.0466 196.846 75.7852C197.286 72.5238 201.56 66.9326 201.632 64.7707C201.703 62.6088 207.763 63.4696 207.469 65.5594Z" fill="#371A46"/>
<path d="M201.615 64.9818C201.615 64.9818 198.596 73.7379 196.708 75.045C194.821 76.3522 192.276 75.8038 192.686 72.7635C193.096 69.7233 195.325 67.714 196.182 65.4562C197.124 62.9746 201.89 63.0337 201.615 64.9818Z" fill="#371A46"/>
<path d="M112.739 198.04C112.739 198.04 119.389 199.38 122.464 200.429C125.539 201.478 130.281 204.032 131.399 204.666C132.517 205.301 130.083 207.157 128.634 208.07C127.186 208.983 122.922 206.428 121.822 206.399C120.722 206.37 116.415 205.425 116.415 205.425L112.739 198.04Z" fill="#371A46"/>
<path d="M92.4692 396.904C89.8828 396.904 88.1312 394.807 88.5569 392.221L132.325 126.298C132.75 123.711 135.192 121.615 137.778 121.615C140.365 121.615 142.116 123.711 141.691 126.298L97.923 392.221C97.4974 394.807 95.0556 396.904 92.4692 396.904Z" fill="#914D16"/>
<path d="M150.748 396.904C148.161 396.904 146.409 394.807 146.835 392.221L190.603 126.298C191.029 123.711 193.47 121.615 196.057 121.615C198.643 121.615 200.395 123.711 199.969 126.298L156.201 392.221C155.776 394.807 153.334 396.904 150.748 396.904Z" fill="#914D16"/>
<path d="M194.751 150.103H128.407L129.992 140.477H196.335L194.751 150.103Z" fill="#914D16"/>
<path d="M185.843 204.219H119.5L121.084 194.592H187.428L185.843 204.219Z" fill="#914D16"/>
<path d="M176.937 258.334H110.594L112.178 248.708H178.522L176.937 258.334Z" fill="#914D16"/>
<path d="M112.74 198.04C112.74 198.04 119.581 208.021 121.235 210.214C122.89 212.408 133.382 215.258 134.636 215.826C135.891 216.394 135.984 218.196 134.888 219.408C133.792 220.62 123.74 217.878 123.478 218.297C123.215 218.715 127.239 221.138 130.008 221.279C132.778 221.419 134.053 220.777 134.133 221.186C134.213 221.597 133.506 224.181 132.507 224.7C131.508 225.219 130.09 224.927 130.09 224.927C130.09 224.927 130.708 225.727 130.315 226.739C129.922 227.752 122.456 230.19 121.202 229.952C119.949 229.713 111.475 225.451 108.413 222.778C105.35 220.105 98.1432 205.114 99.2991 201.901C100.455 198.689 108.794 193.941 112.74 198.04Z" fill="#371A46"/>
</g>
<path d="M98.957 171.552C99.5032 171.507 99.8664 171.476 99.9971 171.468C99.6674 171.481 99.3174 171.512 98.957 171.552Z" fill="white"/>
<path d="M100.047 171.464C100.03 171.467 100.014 171.466 99.9971 171.468C100.03 171.467 100.047 171.464 100.047 171.464Z" fill="white"/>
<path d="M108.337 169.909L80.3894 169.847C80.3846 169.845 80.3846 169.845 80.3822 169.85C80.3822 169.85 80.3822 169.85 80.381 169.846L79.5067 169.846L78.1101 170.038C78.1101 170.038 78.045 169.343 78.0172 168.479L78.0195 168.474C78.0193 168.358 78.0141 168.239 78.0127 168.12C78.0129 168.039 78.0118 167.955 78.0107 167.872C78.0357 158.104 79.6287 149.571 81.03 143.936C81.0927 143.689 81.1508 143.453 81.2102 143.231C81.3197 142.797 81.4305 142.377 81.538 141.983C81.5449 141.956 81.5541 141.925 81.5609 141.899C81.6354 141.628 81.705 141.368 81.7773 141.114C81.7808 141.112 81.7868 141.107 81.7903 141.105C84.1966 139.515 87.3352 137.77 90.9167 136.574L105.082 136.101C107.852 136.93 110.66 138.364 113.425 140.606C115.39 142.201 117.118 144.266 118.637 146.686C118.818 146.975 119.001 147.273 119.179 147.576C119.094 147.734 119.012 147.891 118.929 148.044C118.709 148.461 118.485 148.88 118.264 149.305C118.111 149.591 117.961 149.875 117.813 150.164C117.162 151.404 116.498 152.678 115.841 153.948C115.752 154.12 115.663 154.291 115.578 154.461C115.093 155.395 114.618 156.326 114.15 157.251C114.086 157.377 114.02 157.5 113.959 157.626C113.727 158.087 113.496 158.541 113.268 158.993C113.123 159.28 112.982 159.565 112.843 159.846C112.72 160.093 112.6 160.336 112.482 160.573C112.345 160.849 112.211 161.12 112.08 161.39C111.976 161.599 111.878 161.801 111.779 162L111.434 162.714C111.097 163.416 110.781 164.087 110.481 164.725C110.447 164.801 110.411 164.881 110.372 164.955C110.321 165.073 110.267 165.184 110.219 165.297C110.156 165.427 110.097 165.56 110.038 165.689C109.987 165.807 109.931 165.922 109.878 166.037C109.826 166.151 109.773 166.266 109.723 166.375L109.721 166.38C109.665 166.508 109.611 166.631 109.56 166.749C109.51 166.87 109.457 166.993 109.406 167.111C109.401 167.121 109.396 167.13 109.395 167.139C109.297 167.365 109.207 167.577 109.116 167.789L109.114 167.794C108.755 168.665 108.49 169.378 108.337 169.909Z" fill="white"/>
<path d="M80.0895 175.143C81.3267 181.585 87.8639 192.445 91.8968 200.242C92.1867 200.8 92.4631 201.344 92.7235 201.87C101.734 190.398 110.486 189.042 115.324 189.208C115.324 189.208 115.324 189.206 115.322 189.204C114.804 188.587 114.333 187.948 113.907 187.294C109.28 180.215 109.741 171.467 109.741 171.467L97.8029 171.729L97.004 171.733L93.4002 171.726L79.7862 171.695C79.7141 172.604 79.8249 173.781 80.0895 175.143Z" fill="white"/>
<path opacity="0.61" d="M89.1241 167.906C89.1261 167.906 89.1261 167.906 89.128 167.905C94.5489 168.307 103.122 168.552 109.113 167.794C109.115 167.793 109.115 167.793 109.117 167.793C109.205 167.584 109.297 167.364 109.395 167.138C109.398 167.129 109.403 167.121 109.406 167.111C109.508 166.876 109.616 166.63 109.728 166.378C109.826 166.154 109.931 165.923 110.038 165.688C110.098 165.559 110.156 165.429 110.217 165.296C110.269 165.185 110.321 165.071 110.375 164.956C110.41 164.88 110.446 164.802 110.482 164.725C110.779 164.087 111.098 163.415 111.434 162.715C111.549 162.479 111.663 162.241 111.781 162.001C111.879 161.8 111.977 161.598 112.079 161.391C112.212 161.121 112.346 160.849 112.482 160.572C112.601 160.334 112.721 160.093 112.842 159.848C112.983 159.565 113.125 159.28 113.269 158.993C113.495 158.543 113.725 158.086 113.96 157.626C114.022 157.501 114.085 157.376 114.151 157.249C114.617 156.328 115.094 155.395 115.577 154.46C115.665 154.291 115.752 154.121 115.84 153.95C116.498 152.676 117.162 151.404 117.812 150.165C117.963 149.876 118.112 149.591 118.263 149.307C118.487 148.881 118.708 148.461 118.929 148.046C119.012 147.889 119.093 147.733 119.178 147.575C119.002 147.273 118.82 146.976 118.637 146.685C114.626 152.238 108.808 159.577 104.577 161.875C97.4808 165.731 87.4726 165.633 84.0351 167.189C84.0331 167.189 84.0331 167.189 84.0333 167.191C84.0311 167.189 84.0313 167.191 84.0313 167.191C83.6777 167.359 85.8127 167.663 89.1241 167.906Z" fill="#C6C1C9"/>
<path opacity="0.61" d="M93.3994 171.725C93.9828 172.002 94.9846 172.158 96.4293 172.087C101.34 171.84 106.63 174.028 107.646 179.466C108.645 184.819 115.118 189.074 115.321 189.204C109.191 181.903 109.741 171.466 109.741 171.466L97.8035 171.73L97.0044 171.734L93.3994 171.725Z" fill="#C6C1C9"/>
<path d="M91.8975 200.242C92.1874 200.801 92.4638 201.344 92.7242 201.87C101.734 190.398 110.487 189.042 115.325 189.209C115.325 189.209 115.325 189.207 115.322 189.205C114.804 188.587 114.334 187.948 113.908 187.295C112.577 187.184 110.296 187.302 106.654 188.32C100.737 189.972 93.7485 197.891 91.8975 200.242Z" fill="#71667C"/>
<path d="M115.286 188.843C115.286 188.843 120.009 198.172 120.156 198.904C120.303 199.637 124 208.195 123.625 208.87C123.251 209.545 122.145 212.353 110.618 215.364C99.0919 218.376 98.2625 215.234 97.1379 214.267C96.0133 213.299 91.7909 202.17 92.0548 201.617C92.3188 201.063 100.211 191.316 106.749 189.49C113.287 187.664 115.286 188.843 115.286 188.843Z" fill="white"/>
<path opacity="0.61" d="M78.6515 168.251C78.4356 168.23 78.2244 168.187 78.0127 168.12C78.0129 168.04 78.0118 167.956 78.0107 167.872C78.0357 158.104 79.6287 149.572 81.03 143.936C81.0927 143.69 81.1508 143.453 81.2102 143.232C81.3335 142.756 81.4444 142.337 81.538 141.983C81.5449 141.957 81.5541 141.926 81.5609 141.899C81.7117 141.33 81.8123 140.95 81.8535 140.803C81.8446 140.858 81.8209 140.963 81.7903 141.106C81.3531 143.17 79.2168 153.428 79.0429 158.845C78.8481 164.883 82.6329 167.408 82.6329 167.408C82.5341 167.459 80.5109 168.479 78.6515 168.251Z" fill="#C6C1C9"/>
<path d="M77.3821 168.897C76.9355 169.619 76.7273 170.602 76.6846 171.595C76.5941 173.552 77.1433 175.537 77.7854 175.576C78.7518 175.633 94.4181 171.537 100.401 171.779C106.385 172.021 108.324 171.593 109.684 171.758C109.684 171.758 111.601 171.872 112.329 170.516C112.68 169.867 113.394 165.584 112.313 165.035C111.23 164.482 78.7108 166.746 77.3821 168.897Z" fill="#5ACDFF"/>
<path d="M77.382 168.897C76.9355 169.619 76.7273 170.602 76.6846 171.595C82.8769 167.065 106.896 166.21 109.669 166.375C112.445 166.54 112.329 170.516 112.329 170.516C112.68 169.867 113.394 165.584 112.313 165.035C111.23 164.482 78.7107 166.746 77.382 168.897Z" fill="#1C8FB7"/>
</svg>
