<svg width="136" height="90" viewBox="0 0 136 90" fill="none" xmlns="http://www.w3.org/2000/svg">
<path d="M135.569 29.183C139.148 39.1009 116.092 69.5928 78.8465 83.0382C41.6049 96.4798 4.28415 87.7808 0.70256 77.8629C-2.87903 67.9449 24.4118 49.0073 61.6534 35.5619C98.8949 22.1203 131.993 19.265 135.569 29.183Z" fill="#9BAAAC"/>
<path d="M29.2601 88.6294C23.5554 87.4297 18.0014 85.2004 13.3554 81.6072C8.97984 78.215 6.08791 73.6211 5.52189 68.0555C5.47745 67.6073 5.44461 67.163 5.42723 66.7148C1.38973 70.9919 -0.383682 74.8459 0.705863 77.8634C2.93325 84.0374 18.2371 89.7382 38.4517 89.9179C35.3646 89.6378 32.293 89.2669 29.2601 88.6294Z" fill="#C2D3D5"/>
<path d="M102.078 24.7589C103.216 26.9767 104.35 29.1828 104.923 31.6459C105.746 35.1405 106.131 38.8844 105.963 42.4641C105.69 48.2672 103.418 53.7517 100.331 58.6005C97.0937 63.6889 93.1335 68.391 88.754 72.5347C84.2316 76.8041 79.2205 80.6097 73.7303 83.5616C71.7154 84.6414 69.6406 85.6286 67.5156 86.4689C71.2711 85.5397 75.0594 84.4019 78.8535 83.0342C116.099 69.5887 139.155 39.0969 135.576 29.1789C133.4 23.1613 120.343 21.8477 102.078 24.7589Z" fill="#9BAAAC"/>
<path d="M135.146 28.0455C138.498 37.3356 111.023 55.7632 73.7877 69.2048C36.5422 82.6464 3.6337 86.0155 0.276197 76.7254C-3.07164 67.441 24.4027 49.0115 61.6423 35.5699C98.8839 22.1245 131.792 18.7573 135.146 28.0455Z" fill="#C2D3D5"/>
<path d="M135.146 28.0455C138.498 37.3356 111.023 55.7632 73.7877 69.2048C36.5422 82.6464 3.6337 86.0155 0.276197 76.7254C-3.07164 67.441 24.4027 49.0115 61.6423 35.5699C98.8839 22.1245 131.792 18.7573 135.146 28.0455Z" fill="#C2D3D5"/>
<path d="M120.643 29.5308C123.334 36.9857 101.284 51.7815 71.3835 62.5707C41.4963 73.3579 15.0787 76.0644 12.3819 68.6057C9.69471 61.1508 31.7445 46.3588 61.6413 35.5696C91.5343 24.7804 117.952 22.0759 120.643 29.5308Z" fill="#C2D3D5"/>
<g opacity="0.5">
<path d="M5.65052 76.6247C2.53063 67.9856 30.6946 49.9077 68.5466 36.2439C89.5726 28.6538 109.165 24.0252 122.964 22.8873C109.474 22.1049 86.5261 26.5868 61.6423 35.5697C24.4027 49.0113 -3.07164 67.4409 0.276197 76.7252C2.92665 84.0622 23.9951 83.5039 51.0676 76.333C26.4292 82.4511 7.93392 82.9572 5.65052 76.6247Z" fill="#C2D3D5"/>
</g>
<path opacity="0.8" d="M50.5293 2.76558C27.0731 11.3506 15.0901 37.5422 23.7736 61.2649C24.1696 62.3371 24.5965 63.386 25.0583 64.4138C25.0583 64.4138 25.066 64.4099 25.0698 64.4099C25.2244 64.8252 25.4253 64.9431 25.4118 64.9566C28.6611 68.741 48.2575 65.229 70.5468 56.7309C92.9385 48.1961 109.904 37.7276 109.591 32.7938C109.506 32.504 109.415 32.2142 109.322 31.9244C109.131 31.3372 108.934 30.7576 108.723 30.1781C100.04 6.45342 73.9854 -5.82135 50.5293 2.76558Z" fill="#88C8E3"/>
<path opacity="0.4" d="M77.1436 1.45801C79.6917 3.94619 81.7606 6.79949 83.2114 9.97733C85.6088 15.2299 88.3462 23.3339 83.0569 28.9169C80.6421 31.4572 77.331 33.1746 74.0044 34.5984C68.5026 36.9513 62.8018 38.9701 57.1415 40.9231C52.6056 42.4898 48.0137 44.0836 43.4063 45.3972C39.8131 46.4249 35.7525 47.4044 32.225 46.6741C24.7411 45.1248 22.8614 37.9385 23.4487 31.8107C23.5144 31.1249 23.6071 30.4372 23.7095 29.7437C20.1453 39.5515 19.8922 50.6595 23.7752 61.271C24.1712 62.3431 24.5981 63.3921 25.0598 64.4198C25.0598 64.4198 25.0676 64.416 25.0714 64.416C25.226 64.8313 25.4269 64.9492 25.4134 64.9627C28.6627 68.7471 48.259 65.2351 70.5484 56.737C92.9401 48.2022 109.905 37.7337 109.592 32.7998C109.507 32.5101 109.417 32.2203 109.324 31.9305C109.133 31.3432 108.936 30.7637 108.725 30.1841C103.322 15.4135 91.1898 5.08596 77.1436 1.45801Z" fill="#88C8E3"/>
<path d="M107.212 33.3443C108.783 37.5981 91.7155 47.8059 69.0939 56.132C46.4761 64.4678 26.8701 67.7751 25.3034 63.5173C23.7328 59.2635 40.7966 49.0557 63.4162 40.7257C86.0359 32.3957 105.65 29.0865 107.212 33.3443Z" fill="#444A72"/>
<path d="M100.55 37.3308C101.842 40.8429 87.7651 49.2637 69.0999 56.1313C50.4424 63.0105 34.2653 65.7402 32.9729 62.2281C31.6806 58.7161 45.7577 50.2953 64.4191 43.4199C83.0804 36.5446 99.2575 33.8149 100.55 37.3308Z" fill="#212441"/>
<g opacity="0.6">
<path d="M38.0703 57.5192L43.0119 58.7594C43.6513 58.0659 44.3294 57.4458 45.0094 56.8991C43.5122 56.4509 41.9417 55.9776 40.4947 55.541C39.6853 56.1399 38.8662 56.8006 38.0703 57.5192Z" fill="#2B8CA8"/>
<path d="M50.0694 56.304C51.0894 55.6645 51.781 55.3342 51.781 55.3342L49.1672 54.291C48.6128 54.5595 47.9888 54.8899 47.3281 55.2898C48.294 55.6471 49.229 55.9929 50.0694 56.304Z" fill="#E84B9B"/>
<path d="M43.1756 53.7305C42.3236 54.2559 41.4176 54.8606 40.5 55.5406C41.9469 55.9772 43.5175 56.4505 45.0147 56.8987C45.797 56.2708 46.5852 55.7357 47.327 55.2875C45.94 54.7737 44.4931 54.2269 43.1756 53.7305Z" fill="#E84B9B"/>
<path d="M45.0156 56.8992C46.0685 57.2141 47.0788 57.5155 47.9848 57.7801C48.7382 57.1813 49.4646 56.6867 50.0693 56.3042C49.2289 55.9951 48.2959 55.6474 47.328 55.2881C46.5862 55.7363 45.798 56.2714 45.0156 56.8992Z" fill="#5AC6D0"/>
<path d="M43.1725 53.7298C43.8332 53.3222 44.461 52.959 45.0367 52.6441L43.1725 51.8984C42.5524 52.1959 41.8511 52.5437 41.1016 52.9513C41.7294 53.187 42.4307 53.4478 43.1725 53.7298Z" fill="#E84B9B"/>
<path d="M47.3312 55.2873C47.9918 54.8874 48.6158 54.557 49.1703 54.2885L45.0439 52.6445C44.4682 52.9594 43.8404 53.3207 43.1797 53.7302C44.4972 54.2267 45.9441 54.7734 47.3312 55.2873Z" fill="#5AC6D0"/>
<path d="M32.1531 59.8057C31.3823 60.6827 30.6887 61.6293 30.0938 62.6319L33.6734 62.657C34.2317 61.7645 34.8557 60.9203 35.528 60.1244L32.1531 59.8057Z" fill="#F0BFD9"/>
<path d="M38.0734 57.5186L35.2684 56.8174C34.1711 57.7157 33.1028 58.7106 32.1523 59.8078L35.5292 60.1266C36.327 59.1858 37.1886 58.3165 38.0734 57.5186Z" fill="#2B8CA8"/>
<path d="M40.5009 55.5406C39.6123 55.2759 38.7719 55.0151 38.0301 54.791C37.1125 55.3995 36.1794 56.0757 35.2695 56.8175L38.0745 57.5187C38.8704 56.8001 39.6895 56.1394 40.5009 55.5406Z" fill="#E84B9B"/>
<path d="M33.6758 62.6576L40.3386 62.7021C40.6806 61.9796 41.0688 61.3111 41.4842 60.6872L35.5303 60.125C34.8581 60.919 34.2341 61.7632 33.6758 62.6576Z" fill="#5AC6D0"/>
<path d="M35.5312 60.1229L41.4851 60.685C41.9584 59.9838 42.4761 59.3424 43.019 58.7571L38.0774 57.5168C37.1907 58.3166 36.3291 59.1859 35.5312 60.1229Z" fill="#E84B9B"/>
<path d="M43.1776 53.7307C42.4358 53.4486 41.7345 53.1878 41.1067 52.9521C40.1447 53.4737 39.0957 54.0861 38.0312 54.7912C38.7731 55.0153 39.6134 55.2761 40.502 55.5408C41.4197 54.8589 42.3257 54.2561 43.1776 53.7307Z" fill="#F0BFD9"/>
<path d="M41.1051 52.9504C40.4966 52.7225 39.9595 52.5177 39.5229 52.3516C38.5763 52.8171 37.3941 53.4372 36.1133 54.2119C36.6233 54.3664 37.2801 54.5635 38.0296 54.7914C39.0941 54.0844 40.1411 53.474 41.1051 52.9504Z" fill="#E84B9B"/>
<path d="M40.3398 62.7014L43.5698 62.7227C43.9214 62.1103 44.3155 61.5365 44.7367 60.9937L41.4873 60.6885C41.0681 61.3105 40.6818 61.9789 40.3398 62.7014Z" fill="#EF905B"/>
<path d="M41.4844 60.6867L44.7337 60.9919C45.149 60.4665 45.5895 59.9719 46.0396 59.516L43.0182 58.7568C42.4754 59.3441 41.9577 59.9855 41.4844 60.6867Z" fill="#E84B9B"/>
<path d="M45.0131 56.8994C44.3312 57.4461 43.6551 58.0662 43.0156 58.7597L46.037 59.519C46.6822 58.866 47.3429 58.2884 47.9823 57.7822C47.0763 57.5137 46.066 57.2124 45.0131 56.8994Z" fill="#EF905B"/>
<path d="M35.2688 56.8152L33.0665 56.2607C31.7857 57.2189 30.5146 58.3123 29.3555 59.5429L32.1527 59.8037C33.1032 58.7084 34.1715 57.7135 35.2688 56.8152Z" fill="#E84B9B"/>
<path d="M43.1784 51.8992L41.7875 51.3486C41.7875 51.3486 40.8989 51.6867 39.5234 52.3512C39.96 52.5174 40.499 52.7222 41.1056 52.9501C41.8571 52.5425 42.5583 52.1967 43.1784 51.8992Z" fill="#F0BFD9"/>
<path d="M38.0292 54.7885C37.2797 54.5606 36.6229 54.3635 36.1129 54.209C35.1335 54.8001 34.098 55.4859 33.0664 56.2606L35.2687 56.815C36.1766 56.0732 37.1116 55.3971 38.0292 54.7885Z" fill="#5AC6D0"/>
<path d="M32.1535 59.8067L29.3563 59.5459C28.4676 60.4925 27.6524 61.5144 26.9492 62.6156L30.0942 62.631C30.6892 61.6303 31.3827 60.6837 32.1535 59.8067Z" fill="#2B8CA8"/>
</g>
<g opacity="0.5">
<path d="M92.9703 36.9922L89.9934 41.1321C89.0564 41.0182 88.1388 40.9815 87.2656 41.0008C88.1176 39.6949 89.012 38.3175 89.8388 37.0483C90.8414 36.9884 91.8943 36.9594 92.9703 36.9922Z" fill="#2B8CA8"/>
<path d="M83.0197 43.8118C81.8297 43.9779 81.0859 44.1711 81.0859 44.1711L82.4073 41.6926C83.0062 41.5419 83.6958 41.3874 84.455 41.2676C83.9508 42.1639 83.464 43.0313 83.0197 43.8118Z" fill="#E84B9B"/>
<path d="M86.6265 37.3956C87.6175 37.2449 88.6974 37.1232 89.8391 37.0498C89.0123 38.3171 88.1178 39.6964 87.2659 41.0023C86.2633 41.0274 85.3167 41.1279 84.457 41.267C85.1834 39.9726 85.9426 38.6281 86.6265 37.3956Z" fill="#E84B9B"/>
<path d="M87.2676 41.001C86.6649 41.9225 86.0854 42.8034 85.5676 43.5896C84.6017 43.6225 83.7324 43.7113 83.0234 43.8098C83.4678 43.0313 83.9526 42.162 84.4588 41.2656C85.3184 41.1285 86.2631 41.0261 87.2676 41.001Z" fill="#5AC6D0"/>
<path d="M86.625 37.3957C85.8581 37.5096 85.1452 37.6371 84.5 37.7704L85.4427 36.0009C86.1073 35.8251 86.8665 35.6377 87.701 35.4619C87.3803 36.0492 87.0133 36.7021 86.625 37.3957Z" fill="#E84B9B"/>
<path d="M84.4579 41.2649C83.6987 41.3828 83.011 41.5373 82.4102 41.6899L84.5023 37.7703C85.1475 37.6351 85.8604 37.5095 86.6273 37.3955C85.9434 38.628 85.1842 39.9726 84.4579 41.2649Z" fill="#5AC6D0"/>
<path d="M98.968 34.9219C100.117 35.0977 101.259 35.3701 102.36 35.7545L99.6402 38.0785C98.6415 37.7559 97.6138 37.5202 96.5938 37.3444L98.968 34.9219Z" fill="#F0BFD9"/>
<path d="M92.9688 36.9923L94.6533 34.6471C96.0732 34.622 97.5317 34.6993 98.967 34.9214L96.5928 37.3439C95.3797 37.1392 94.1549 37.0291 92.9688 36.9923Z" fill="#2B8CA8"/>
<path d="M89.8359 37.0477C90.3382 36.2692 90.8154 35.5351 91.2384 34.8821C92.3318 34.7508 93.4813 34.6658 94.652 34.6445L92.9674 36.9898C91.8914 36.9589 90.8386 36.9878 89.8359 37.0477Z" fill="#E84B9B"/>
<path d="M99.6409 38.0759L94.5795 42.4148C93.8532 42.0844 93.1326 41.8198 92.4062 41.615L96.5944 37.3418C97.6125 37.5176 98.6402 37.7552 99.6409 38.0759Z" fill="#5AC6D0"/>
<path d="M96.5951 37.3418L92.407 41.615C91.5917 41.3871 90.7842 41.2267 89.9922 41.1301L92.9691 36.9902C94.1553 37.0289 95.38 37.139 96.5951 37.3418Z" fill="#E84B9B"/>
<path d="M86.625 37.3961C87.0133 36.7026 87.3803 36.0516 87.701 35.4643C88.777 35.2402 89.9728 35.0316 91.2401 34.8848C90.8151 35.5377 90.3399 36.2718 89.8376 37.0503C88.6978 37.1218 87.616 37.2454 86.625 37.3961Z" fill="#F0BFD9"/>
<path d="M87.7031 35.4624C88.0219 34.8944 88.302 34.3941 88.5261 33.9865C89.5499 33.7257 90.8501 33.4359 92.3298 33.2041C92.0362 33.6523 91.6653 34.2241 91.2403 34.8848C89.973 35.0297 88.7791 35.2383 87.7031 35.4624Z" fill="#E84B9B"/>
<path d="M94.5836 42.417L92.1283 44.5168C91.4676 44.2715 90.7992 44.0938 90.125 43.9508L92.4084 41.6172C93.1348 41.82 93.8573 42.0866 94.5836 42.417Z" fill="#EF905B"/>
<path d="M92.4045 41.6167L90.1211 43.9504C89.4604 43.8151 88.8074 43.7224 88.1719 43.6644L89.9897 41.1318C90.7818 41.2284 91.5893 41.3888 92.4045 41.6167Z" fill="#E84B9B"/>
<path d="M87.2664 41.0008C88.1396 40.9796 89.0572 41.0163 89.9941 41.1322L88.1763 43.6648C87.2625 43.5798 86.3816 43.5663 85.5664 43.5914C86.0822 42.8032 86.6617 41.9223 87.2664 41.0008Z" fill="#EF905B"/>
<path d="M94.6562 34.6469L95.9853 32.8001C97.5752 32.7055 99.2559 32.7229 100.937 32.9141L98.9719 34.9213C97.5347 34.701 96.0742 34.6238 94.6562 34.6469Z" fill="#E84B9B"/>
<path d="M85.4453 36.0012L86.1504 34.676C86.1504 34.676 87.0468 34.3611 88.5285 33.9863C88.3044 34.3939 88.0224 34.8962 87.7055 35.4622C86.8691 35.638 86.1099 35.8254 85.4453 36.0012Z" fill="#F0BFD9"/>
<path d="M91.2422 34.8842C91.6653 34.2236 92.0381 33.6537 92.3317 33.2036C93.4618 33.0239 94.6963 32.8771 95.9848 32.7998L94.6557 34.6466C93.485 34.6679 92.3356 34.7529 91.2422 34.8842Z" fill="#5AC6D0"/>
<path d="M98.9688 34.9215L100.933 32.9143C102.218 33.065 103.507 33.3181 104.751 33.7064L102.361 35.7541C101.262 35.3696 100.12 35.0953 98.9688 34.9215Z" fill="#2B8CA8"/>
</g>
<path d="M48.1618 48.7901C48.2603 49.0586 48.1212 49.3484 47.8565 49.4469C47.5919 49.5454 47.2982 49.4102 47.1997 49.1455C47.1012 48.8809 47.2403 48.5834 47.5011 48.4848C47.7715 48.3902 48.0652 48.5293 48.1618 48.7901Z" fill="#EF905B"/>
<path d="M51.1036 47.3921C51.2021 47.6529 51.0669 47.9504 50.8023 48.0489C50.5376 48.1474 50.244 48.0083 50.1454 47.7437C50.0469 47.4751 50.1821 47.1854 50.4507 47.0868C50.7115 46.9883 51.0051 47.1236 51.1036 47.3921Z" fill="#EF905B"/>
<path d="M49.4748 49.7659C49.5733 50.0305 49.4381 50.3242 49.1695 50.4227C48.9087 50.5212 48.6112 50.3821 48.5166 50.1175C48.418 49.8528 48.5533 49.5592 48.8179 49.4606C49.0845 49.3621 49.3782 49.4993 49.4748 49.7659Z" fill="#EF905B"/>
<path d="M50.814 50.8461C50.9126 51.1108 50.7735 51.4044 50.5088 51.503C50.2441 51.6015 49.9466 51.4663 49.8481 51.1977C49.7496 50.9369 49.8887 50.6394 50.1533 50.5409C50.4219 50.4463 50.7155 50.5815 50.814 50.8461Z" fill="#EF905B"/>
<path d="M80.4931 36.9566C80.5916 37.2252 80.8853 37.3642 81.1499 37.2657C81.4146 37.1672 81.5537 36.8697 81.4551 36.605C81.3566 36.3404 81.063 36.2052 80.7983 36.3037C80.5298 36.3983 80.3946 36.6958 80.4931 36.9566Z" fill="#EF905B"/>
<path d="M77.3407 37.7895C77.4393 38.0542 77.7329 38.1933 77.9976 38.0948C78.2622 38.002 78.4013 37.7026 78.3028 37.4379C78.2043 37.1733 77.9106 37.0381 77.646 37.1327C77.3775 37.2293 77.2422 37.5229 77.3407 37.7895Z" fill="#EF905B"/>
<path d="M80.1169 38.5464C80.2154 38.8111 80.509 38.9501 80.7776 38.8516C81.0384 38.7531 81.1775 38.4595 81.0828 38.1948C80.9843 37.9263 80.6868 37.7911 80.4221 37.8896C80.1574 37.9881 80.0203 38.2817 80.1169 38.5464Z" fill="#EF905B"/>
<path d="M79.8012 40.2344C79.8998 40.503 80.1934 40.6382 80.4581 40.5397C80.7227 40.4411 80.8618 40.1514 80.7633 39.8828C80.6648 39.6182 80.3711 39.4791 80.1065 39.5776C79.8418 39.6761 79.7027 39.9736 79.8012 40.2344Z" fill="#EF905B"/>
<path d="M62.2897 52.3723C61.8203 51.8256 61.3276 51.161 61.3644 50.4076C61.3895 49.8532 61.7932 49.3953 62.2086 49.0708C62.5099 48.8332 62.8808 48.7037 63.1841 48.4623C63.4411 48.2536 63.6574 47.8634 63.6362 47.5273C63.3058 46.9477 62.5466 46.4261 61.9922 46.1035C61.345 46.1769 60.7326 46.459 60.2111 46.8415C59.1176 47.6412 58.6984 49.0109 59.135 50.6665C59.4036 51.7193 59.9831 52.6234 60.6187 53.4483C61.0804 54.0471 63.9626 56.3557 62.4095 57.082C62.2182 57.167 62.0501 57.3312 61.9574 57.5437C61.9362 57.5843 61.9169 57.6423 61.8917 57.7099C61.884 57.8045 61.8801 57.9011 61.8917 57.9958C61.9284 58.3667 62.1004 58.0364 62.1892 57.934C62.3805 57.7253 62.593 57.5747 62.8383 57.4781C63.0257 57.3235 63.2459 57.1922 63.528 57.0917C63.9569 56.9372 64.4263 56.7324 64.5963 56.2687C64.7103 55.95 64.6909 55.6119 64.5808 55.2932C64.3355 54.5591 63.8255 54.0008 63.3329 53.4425C62.9755 53.089 62.6162 52.747 62.2897 52.3723Z" fill="#8D5FA7"/>
<path d="M61.9937 46.1035C61.3466 46.1769 60.7342 46.459 60.2126 46.8415C59.3607 47.4654 58.9241 48.4352 58.9724 49.6194C59.0419 49.1345 59.2409 48.412 59.7509 48.2903C60.1952 48.1841 60.2319 48.837 60.2493 49.1307C60.2648 49.4533 60.2532 49.7798 60.2648 50.1062C60.2802 50.51 60.4193 50.9215 60.5796 51.2924C61.0723 52.4264 61.8855 53.2416 62.8302 54.0085C63.4175 54.4818 64.2578 55.1869 64.1632 56.0427C64.0492 57.0782 62.5675 57.1767 62.1734 57.9552C62.1811 57.9475 62.185 57.9436 62.1888 57.934C62.3801 57.7253 62.5926 57.5747 62.8379 57.4781C63.0253 57.3235 63.2456 57.1922 63.5276 57.0917C63.9565 56.9372 64.4259 56.7324 64.5959 56.2687C64.7099 55.95 64.6905 55.6119 64.5804 55.2932C64.3351 54.5591 63.8251 54.0008 63.3325 53.4425C62.977 53.0928 62.6196 52.749 62.2932 52.3742C61.8237 51.8275 61.3311 51.1629 61.3678 50.4095C61.3929 49.8551 61.7967 49.3973 62.212 49.0727C62.5134 48.8351 62.8843 48.7057 63.1876 48.4642C63.4445 48.2556 63.6609 47.8653 63.6396 47.5292C63.3074 46.9477 62.5482 46.4261 61.9937 46.1035Z" fill="#8D5FA7"/>
<path d="M61.9687 54.1824C60.8154 52.8765 59.4071 51.4914 59.326 49.631C59.326 49.6059 59.297 49.6349 59.297 49.6465C59.2352 51.0297 59.8882 52.2448 60.7807 53.2513C61.2366 53.7613 61.7234 54.2423 62.2005 54.731C62.5386 55.0826 63.4736 56.1664 63.0003 56.6841C62.9713 56.7208 62.9887 56.7942 63.0332 56.7537C63.2708 56.5218 63.2205 56.2591 63.1201 55.9616C62.8844 55.27 62.4497 54.7252 61.9687 54.1824Z" fill="#ED489A"/>
<path d="M65.4838 49.3301C65.4548 49.2123 65.4471 49.0886 65.4548 48.9592C65.4761 48.5477 65.7079 47.9237 65.5282 47.4987C65.3331 47.0177 64.8231 47.1162 64.5449 47.2746C63.7896 47.7035 63.1385 49.0326 63.3665 50.1898C63.3781 50.2303 63.3916 50.267 63.4032 50.3076C63.7818 51.3199 64.7091 51.797 65.4838 52.1467C65.9648 52.3631 66.4458 52.591 66.8496 53.0237C67.0737 53.2556 67.2939 53.5376 67.3267 53.8718C67.3518 54.092 67.2765 54.3045 67.205 54.5074C67.1645 54.6136 67.0176 54.915 67.2012 54.9768C67.5895 55.0908 67.972 54.5441 68.057 54.1577C68.2289 53.3947 68.1014 52.5678 67.7054 51.8164C67.1799 50.8021 65.5726 50.6515 65.4838 49.3301Z" fill="#8D5FA7"/>
<path d="M67.7093 51.8163C67.1838 50.8002 65.5765 50.6495 65.4877 49.3282C65.4587 49.2103 65.451 49.0867 65.4587 48.9572C65.48 48.5458 65.7118 47.9218 65.5321 47.4968C65.337 47.0158 64.827 47.1143 64.5488 47.2727C63.7935 47.7016 63.1425 49.0307 63.3704 50.1878C63.382 50.2284 63.3955 50.2651 63.4071 50.3057C63.5056 50.5587 63.6351 50.7789 63.7896 50.9779C63.7317 50.8466 63.7046 50.7094 63.7046 50.5626C63.7046 50.2477 63.9326 49.8807 64.288 49.9347C64.6628 49.9869 64.9159 50.3172 65.14 50.5954C65.5147 51.0513 65.9764 51.3005 66.469 51.6096C67.3693 52.1679 68.028 52.9638 67.8348 54.0843C67.7827 54.3992 67.6803 54.716 67.4717 54.9536C67.7537 54.8358 67.9932 54.4513 68.0589 54.1538C68.2309 53.3946 68.1034 52.5678 67.7093 51.8163Z" fill="#8D5FA7"/>
<path d="M66.9526 52.7885C66.7478 52.5876 66.5083 52.4253 66.2591 52.2708C66.0427 52.1317 65.8148 52.01 65.5829 51.8921C64.959 51.6275 64.306 51.3261 63.8945 50.791C64.1225 51.4034 64.9628 51.7685 65.4979 52.0177C66.1992 52.3519 67.0144 52.7557 67.2675 53.4975C67.2424 53.2483 67.1168 53.0087 66.9526 52.7885Z" fill="#ED489A"/>
<path d="M68.2086 46.0224C67.9633 46.3412 67.8628 46.7488 68.0656 47.1429C68.3516 47.7012 68.9504 47.9291 69.3754 48.358C70.1578 49.1404 70.208 50.369 70.9576 51.1765C71.4888 51.7522 72.0742 51.9241 72.8334 51.9956C73.2893 52.04 73.7143 52.0903 74.1045 52.3588C74.1547 52.3955 74.203 52.4322 74.2552 52.4727C74.3904 52.5577 74.516 52.6563 74.5894 52.7451C74.5933 52.749 74.5971 52.7567 74.601 52.7606C74.6261 52.7818 74.6493 52.8012 74.6705 52.8185C74.9062 53.0214 75.0414 52.9074 75.0743 52.7239C74.9313 51.9492 74.4291 51.5609 73.8785 51.2731C73.8418 51.2615 73.8012 51.2441 73.7606 51.2325C73.5192 51.1475 73.2796 51.078 73.0555 50.9795C71.9216 50.4946 71.5139 49.1732 71.1469 47.9504C70.9305 47.2375 70.5635 46.4204 70.0091 45.9471C69.4005 45.4177 68.678 45.5453 68.2086 46.0224Z" fill="#8D5FA7"/>
<path d="M73.8804 51.2757C73.8437 51.2641 73.8031 51.2467 73.7626 51.2351C73.5211 51.1501 73.2816 51.0806 73.0575 50.982C71.9235 50.4972 71.5159 49.1758 71.1488 47.953C70.9325 47.2401 70.5654 46.423 70.011 45.9497C69.3986 45.4184 68.678 45.5459 68.2086 46.0231C67.9633 46.3418 67.8628 46.7494 68.0656 47.1435C68.2781 47.5589 68.6606 47.7926 69.0161 48.0573C69.0161 48.0573 69.0122 48.0418 69.0161 48.0283C69.0045 47.7057 69.1223 47.4526 69.4759 47.4623C70.4592 47.4739 70.6871 49.2202 70.9923 49.8519C71.3188 50.5242 71.7999 50.9685 72.4972 51.2351C72.986 51.4148 73.5172 51.5365 73.9731 51.7934C74.3846 52.0214 74.8502 52.3845 75.0414 52.8327C75.0588 52.8037 75.0666 52.767 75.0743 52.7265C74.9333 51.9518 74.4329 51.5654 73.8804 51.2757Z" fill="#8D5FA7"/>
<path d="M74.056 52.2003C73.6677 51.9221 73.2369 51.841 72.7675 51.785C72.0778 51.698 71.5601 51.4624 71.0926 50.9369C70.3546 50.1139 70.4068 48.8814 69.466 48.2092C69.4544 48.2014 69.4332 48.2343 69.4448 48.2459C70.289 49.0572 70.289 50.338 71.0771 51.1938C71.8595 52.0419 73.1442 51.6459 74.029 52.2621C74.0483 52.2776 74.0811 52.2158 74.056 52.2003Z" fill="#ED489A"/>
<path d="M78.3028 51.2904C78.1676 51.0895 78.0169 50.8866 77.8179 50.7881C77.2229 50.4945 76.6356 50.396 76.1546 49.8898C75.5055 49.1963 75.3143 48.271 75.1675 47.3649C74.8989 45.7422 74.1919 43.6945 72.517 43.0377C72.0514 42.8541 71.5047 42.7923 71.0044 42.8136C70.5891 42.8348 70.1969 42.9527 69.8917 43.2019C69.8434 43.3197 69.8028 43.4375 69.7738 43.5728C69.7622 44.1118 70.0095 44.6952 70.5446 44.9057C71.0797 45.1144 71.6573 45.1221 72.2079 45.2728C73.0483 45.5085 73.5293 46.231 73.7418 47.0385C73.9871 47.9599 73.9987 48.9432 74.3658 49.8357C74.4102 49.9458 74.4643 50.0598 74.5164 50.1738C75.0419 50.9369 75.7972 51.4874 76.8114 51.4836C77.3253 51.4797 77.8604 51.2749 78.3414 51.6671C78.4129 51.5396 78.4052 51.4121 78.3028 51.2904Z" fill="#8D5FA7"/>
<path d="M72.0978 44.444C72.3509 44.1504 72.886 44.2934 73.1546 44.4692C73.5911 44.7589 73.9138 45.1917 74.163 45.6476C74.5493 46.3701 74.7425 47.1892 74.8642 48.0005C74.9743 48.7597 75.0728 49.6735 75.6968 50.2067C76.4792 50.8886 77.7774 50.6877 78.3936 51.5164C78.3975 51.4392 78.3685 51.3658 78.3067 51.2923C78.1715 51.0914 78.0208 50.8886 77.8218 50.7901C77.2268 50.4964 76.6396 50.3979 76.1585 49.8918C75.5094 49.1983 75.3182 48.2729 75.1714 47.3669C74.9028 45.7442 74.1958 43.6964 72.5209 43.0396C72.0553 42.8561 71.5086 42.7943 71.0083 42.8155C70.593 42.8368 70.2008 42.9546 69.8956 43.2038C69.8473 43.3217 69.8067 43.4395 69.7777 43.5747C69.7661 44.1137 70.0134 44.6971 70.5485 44.9077C71.0701 45.1105 71.6419 45.124 72.1848 45.267C71.9877 44.9734 71.9008 44.6797 72.0978 44.444Z" fill="#8D5FA7"/>
<path d="M76.7732 51.3276C76.1125 51.287 75.5619 50.9451 75.1254 50.4583C74.5632 49.8266 74.4164 48.965 74.3063 48.1536C74.1768 47.1916 73.8735 45.7891 72.8883 45.3312C72.8729 45.3235 72.8555 45.3564 72.8671 45.3641C74.1343 46.2624 74.03 48.0686 74.3797 49.4093C74.6656 50.5143 75.5948 51.3585 76.75 51.4126C76.7809 51.4126 76.8138 51.3315 76.7732 51.3276Z" fill="#ED489A"/>
<path d="M74.8204 32.1884C73.3483 29.6152 69.0462 30.4555 66.7628 31.0505C64.4388 31.6591 55.4539 35.6019 53.2651 36.8247C51.3043 37.9143 48.3545 39.8925 49.5831 42.5835C50.2225 43.986 52.278 44.7896 53.6901 44.9983C55.3824 45.2475 57.1481 44.9248 58.767 44.4516C63.3009 43.1225 68.2155 41.2138 71.9632 38.2736C72.9388 37.5067 73.8274 36.589 74.5113 35.5497C75.2531 34.4158 75.3632 33.1388 74.8204 32.1884Z" fill="#324CA0"/>
<path d="M74.8204 32.1884C73.3483 29.6152 69.0462 30.4555 66.7628 31.0505C64.4388 31.6591 55.4539 35.6019 53.2651 36.8247C51.3043 37.9143 48.3545 39.8925 49.5831 42.5835C50.2225 43.986 52.278 44.7896 53.6901 44.9983C55.3824 45.2475 57.1481 44.9248 58.767 44.4516C63.3009 43.1225 68.2155 41.2138 71.9632 38.2736C72.9388 37.5067 73.8274 36.589 74.5113 35.5497C75.2531 34.4158 75.3632 33.1388 74.8204 32.1884ZM69.8826 36.1853C68.7409 38.1461 66.898 39.5621 64.9855 40.7C62.6036 42.1237 60.04 43.3717 57.2543 43.7097C55.537 43.9126 53.5955 44.1019 51.9245 43.4972C51.2425 43.2442 50.5007 42.8076 50.1955 42.1025C49.8168 41.2254 49.9675 40.3696 50.6437 39.6954C51.5729 38.7701 52.7976 38.0592 53.9142 37.3869C54.7295 36.8981 55.5659 36.4364 56.4217 36.0327C57.6948 35.372 63.0479 33.1852 64.3905 32.7467C65.48 32.3873 66.6411 32.2734 67.8079 32.3873C68.6366 32.4646 69.6837 32.7254 70.157 33.5001C70.6824 34.3791 70.3559 35.3662 69.8826 36.1853Z" fill="#364DA1"/>
<path d="M56.9076 36.3069C56.5406 36.1195 52.2384 38.6115 51.2474 39.7861C50.975 40.1164 50.7374 40.5163 50.6524 40.9394C50.5597 41.4281 50.608 42.0231 51.06 42.338C51.2358 42.4597 51.4831 42.481 51.6144 42.2859C51.74 42.0946 51.6627 41.8338 51.6106 41.629C51.5333 41.2774 51.5855 40.9606 51.7574 40.6457C52.0588 40.0913 52.59 39.7204 53.0633 39.3167C53.5888 38.8685 54.1471 38.4609 54.7266 38.0861C55.2946 37.7268 55.905 37.4582 56.4768 37.1105C56.6893 36.9753 57.1704 36.6913 56.983 36.3764C56.9598 36.3436 56.9405 36.3204 56.9076 36.3069Z" fill="#324CA0"/>
<path d="M57.9429 35.7371C57.8135 35.7043 57.6609 35.7816 57.5875 35.8878C57.5623 35.9207 57.5372 35.969 57.5295 36.0134C57.4967 36.0907 57.4928 36.1795 57.5334 36.2549C57.5855 36.3437 57.713 36.3128 57.7864 36.2703C57.8927 36.2085 57.9816 36.1061 58.0318 35.9979C58.0762 35.8955 58.0646 35.7661 57.9429 35.7371Z" fill="#324CA0"/>
<path d="M75.8663 41.0306C74.7033 38.9964 71.2995 39.6571 69.4893 40.1284C67.6503 40.6094 60.5412 43.7293 58.8083 44.6952C57.259 45.5588 54.9215 47.1255 55.8932 49.2543C56.3993 50.3671 58.0298 51.0046 59.1483 51.1668C60.4851 51.3619 61.8799 51.1089 63.1607 50.7341C66.75 49.6813 70.6407 48.1687 73.6041 45.8447C74.3788 45.24 75.0839 44.5117 75.6229 43.683C76.2082 42.7924 76.2971 41.7801 75.8663 41.0306Z" fill="#F0983E"/>
<path d="M75.8663 41.0306C74.7033 38.9964 71.2995 39.6571 69.4893 40.1284C67.6503 40.6094 60.5412 43.7293 58.8083 44.6952C57.259 45.5588 54.9215 47.1255 55.8932 49.2543C56.3993 50.3671 58.0298 51.0046 59.1483 51.1668C60.4851 51.3619 61.8799 51.1089 63.1607 50.7341C66.75 49.6813 70.6407 48.1687 73.6041 45.8447C74.3788 45.24 75.0839 44.5117 75.6229 43.683C76.2082 42.7924 76.2971 41.7801 75.8663 41.0306ZM72.9376 43.6733C71.9756 45.325 70.4128 46.5189 68.7939 47.4829C66.779 48.6825 64.6134 49.7334 62.2643 50.0193C60.8077 50.199 59.1696 50.3535 57.7613 49.8474C57.1817 49.6446 56.5578 49.2775 56.3047 48.6845C55.9859 47.9504 56.1134 47.2279 56.6872 46.6618C57.4734 45.8795 58.507 45.2825 59.4516 44.7165C60.1413 44.3012 60.8464 43.9167 61.5727 43.5709C62.6449 43.0165 67.1731 41.1735 68.3013 40.7968C69.2227 40.4955 70.2099 40.3969 71.1893 40.4877C71.8906 40.5573 72.7754 40.7737 73.1714 41.4266C73.6176 42.1568 73.3414 42.9875 72.9376 43.6733Z" fill="#F0983E"/>
<path d="M61.4731 43.9502C61.1795 43.8033 57.7795 45.7738 56.9913 46.703C56.771 46.9638 56.5837 47.2825 56.5218 47.6167C56.4446 48.005 56.4813 48.4783 56.8406 48.7256C56.9835 48.8241 57.1748 48.8357 57.2772 48.685C57.3834 48.5305 57.3177 48.3257 57.2772 48.1635C57.2154 47.8853 57.2559 47.6322 57.3912 47.3849C57.6307 46.9445 58.0518 46.6508 58.4227 46.3321C58.8381 45.9805 59.2863 45.656 59.7441 45.3623C60.1923 45.0764 60.6733 44.86 61.1273 44.5877C61.2954 44.4814 61.6779 44.2573 61.5272 44.0042C61.5137 43.9791 61.4924 43.9579 61.4731 43.9502Z" fill="#00BBC4"/>
<path d="M62.2843 43.4978C62.1819 43.4727 62.0641 43.5345 62.0022 43.6195C61.9868 43.6485 61.9655 43.6814 61.9539 43.7181C61.9327 43.7799 61.9288 43.8533 61.9617 43.9093C62.0022 43.9789 62.1046 43.9537 62.1626 43.9209C62.2476 43.8726 62.3171 43.7953 62.3577 43.7045C62.3905 43.6253 62.3867 43.523 62.2843 43.4978Z" fill="#00BBC4"/>
<path d="M61.9949 28.0018C62.134 27.9612 62.248 27.8588 62.3214 27.7217C63.2912 25.7184 63.2873 23.3905 62.3059 20.997C61.5834 19.2197 60.5808 18.0317 60.5403 17.9834C60.3451 17.7554 59.9974 17.7264 59.7656 17.9216C59.5376 18.1167 59.5087 18.4644 59.7038 18.6962C59.7521 18.7542 63.353 23.0834 61.3304 27.2406C61.199 27.515 61.3149 27.8395 61.5873 27.9747C61.7167 28.0385 61.8636 28.0424 61.9949 28.0018Z" fill="#F0983E"/>
<path d="M59.9703 17.8928C59.9124 17.9102 59.8602 17.943 59.8158 17.9816C59.6148 18.1497 59.5917 18.4472 59.7636 18.6423C59.8003 18.6829 63.4418 23.0797 61.4018 27.2756C61.2878 27.5074 61.3863 27.7895 61.6181 27.9034C61.8422 28.0136 62.1359 27.9112 62.246 27.6871C63.2119 25.7012 63.208 23.4004 62.2344 21.0281C61.5119 19.2586 60.5209 18.0802 60.4764 18.0299C60.3528 17.8889 60.1577 17.8309 59.9703 17.8928Z" fill="#EA602E"/>
<path d="M61.9949 28.0018C62.134 27.9612 62.248 27.8588 62.3214 27.7217C63.2912 25.7184 63.2873 23.3905 62.3059 20.997C61.5834 19.2197 60.5808 18.0317 60.5403 17.9834C60.3451 17.7554 59.9974 17.7264 59.7656 17.9216C59.5376 18.1167 59.5087 18.4644 59.7038 18.6962C59.7521 18.7542 63.353 23.0834 61.3304 27.2406C61.199 27.515 61.3149 27.8395 61.5873 27.9747C61.7167 28.0385 61.8636 28.0424 61.9949 28.0018Z" fill="#324CA0"/>
<path d="M60.6716 20.1518C61.0096 20.005 61.3245 19.8099 61.622 19.5897C61.0715 18.6141 60.5653 18.0191 60.5364 17.9824C60.3412 17.7544 59.9935 17.7255 59.7617 17.9206C59.5337 18.1157 59.5048 18.4634 59.6999 18.6952C59.7173 18.7107 60.1751 19.2651 60.6716 20.1518Z" fill="#565759"/>
<path d="M61.9188 23.9443C62.0076 24.9972 61.8743 26.1254 61.3276 27.24C61.1963 27.5143 61.3122 27.8389 61.5845 27.9741C61.714 28.0398 61.8627 28.0437 61.9922 28.0031C62.1313 27.9625 62.2452 27.8601 62.3186 27.723C62.8209 26.6914 63.0566 25.5651 63.0411 24.3944C62.678 24.2051 62.3109 24.0409 61.9188 23.9443Z" fill="#ED7E3B"/>
<path d="M56.6805 17.8737C57.1248 19.2568 58.6142 20.0102 59.9916 19.5659C61.3787 19.1177 62.1321 17.6322 61.6878 16.2509C61.2396 14.8677 59.754 14.1105 58.3728 14.5587C56.9896 15.0049 56.2304 16.4905 56.6805 17.8737Z" fill="#F0983E"/>
<path d="M60.0191 19.6388C58.5992 20.1005 57.0673 19.3162 56.6094 17.8983C56.1477 16.4745 56.9282 14.9426 58.3462 14.4809C59.7699 14.025 61.3018 14.8035 61.7635 16.2253C62.2252 17.6433 61.4467 19.1771 60.0191 19.6388ZM58.4002 14.6296C57.0576 15.0662 56.3197 16.5054 56.7524 17.848C57.189 19.1906 58.6321 19.9247 59.9747 19.492C61.3134 19.0554 62.0514 17.6123 61.6148 16.2736C61.1821 14.9329 59.739 14.1988 58.4002 14.6296Z" fill="#EA602E"/>
<path d="M57.187 17.7259C57.5502 18.8309 58.7364 19.4394 59.8375 19.0801C60.9425 18.7207 61.5471 17.5307 61.1917 16.4296C60.8285 15.3246 59.6462 14.7199 58.5412 15.0793C57.4362 15.4366 56.8335 16.6209 57.187 17.7259Z" fill="white"/>
<path d="M59.8655 19.1517C58.7238 19.5226 57.4874 18.8909 57.1165 17.7492C56.7495 16.6075 57.3773 15.3712 58.519 15.0041C59.6607 14.6332 60.8932 15.261 61.268 16.4027C61.635 17.5464 61.0072 18.7808 59.8655 19.1517ZM58.5692 15.1471C57.5048 15.4929 56.9214 16.6404 57.2691 17.699C57.6111 18.7634 58.7586 19.343 59.8172 19.0049C60.8778 18.6591 61.465 17.5116 61.1173 16.453C60.7754 15.3924 59.6298 14.8051 58.5692 15.1471Z" fill="#EA602E"/>
<path d="M60.3283 16.7251C60.5369 17.3568 60.1853 18.0388 59.5536 18.2416C58.9219 18.4502 58.24 18.1025 58.0371 17.4669C57.8285 16.8352 58.1762 16.1533 58.8118 15.9505C59.4435 15.7438 60.1235 16.0896 60.3283 16.7251Z" fill="#5D1C00"/>
<path d="M60.0575 16.7713C60.2121 17.2659 59.9474 17.7913 59.4548 17.9497C58.9699 18.1081 58.4387 17.8396 58.2841 17.3509C58.1257 16.8563 58.3904 16.3309 58.883 16.1763C59.3679 16.016 59.8933 16.2845 60.0575 16.7713Z" fill="#833723"/>
<path d="M59.8171 16.8528C59.9311 17.2083 59.736 17.5908 59.3805 17.7048C59.0251 17.8188 58.6465 17.6236 58.5286 17.2682C58.4146 16.9127 58.6098 16.5341 58.9652 16.4201C59.3187 16.3023 59.7032 16.4974 59.8171 16.8528Z" fill="#2C0000"/>
<path d="M59.0929 16.5991C59.1625 16.8116 59.0427 17.0434 58.8283 17.1129C58.6119 17.1864 58.3801 17.0685 58.3105 16.8522C58.2371 16.6358 58.3588 16.404 58.5713 16.3344C58.7916 16.2649 59.0253 16.3827 59.0929 16.5991Z" fill="white"/>
<path d="M57.1909 17.7259C57.5541 18.8309 58.7403 19.4394 59.8414 19.0801C60.9464 18.7207 61.5511 17.5307 61.1956 16.4296C60.8324 15.3246 59.6501 14.7199 58.5451 15.0793C57.4401 15.4366 56.8374 16.6209 57.1909 17.7259ZM57.5425 16.7252C57.4865 15.852 58.4447 15.3149 59.1981 15.2686C59.8704 15.2357 60.5349 15.6762 60.7571 16.3369C61.043 17.1811 60.0751 17.8978 59.3546 17.9635C58.5741 18.0388 57.5986 17.5771 57.5425 16.7252Z" fill="#CBCCCE"/>
<path d="M65.4012 21.492C65.5364 21.4476 65.6581 21.3491 65.7276 21.2119C66.6974 19.2086 66.6936 16.8846 65.7161 14.4872C64.9897 12.7138 63.9871 11.5219 63.9465 11.4736C63.7514 11.2457 63.4037 11.2167 63.1719 11.4118C62.9439 11.6069 62.9149 11.9546 63.11 12.1826C63.1545 12.2444 66.7612 16.5736 64.7424 20.7289C64.6072 21.0071 64.7212 21.3336 64.9955 21.463C65.123 21.5287 65.2659 21.5326 65.4012 21.492Z" fill="#F0983E"/>
<path d="M63.3821 11.3787C63.3202 11.3999 63.2681 11.427 63.2179 11.4675C63.0227 11.6395 62.9976 11.9331 63.1696 12.1321C63.2063 12.1765 66.8477 16.5733 64.8097 20.7654C64.6957 20.9972 64.7942 21.2793 65.026 21.3932C65.2501 21.4995 65.5438 21.401 65.6539 21.1769C66.6198 19.191 66.6159 16.8863 65.6423 14.5179C64.9198 12.7483 63.9249 11.5699 63.8843 11.5216C63.7607 11.3787 63.5617 11.3207 63.3821 11.3787Z" fill="#EA602E"/>
<path d="M65.4012 21.492C65.5364 21.4476 65.6581 21.3491 65.7276 21.2119C66.6974 19.2086 66.6936 16.8846 65.7161 14.4872C64.9897 12.7138 63.9871 11.5219 63.9465 11.4736C63.7514 11.2457 63.4037 11.2167 63.1719 11.4118C62.9439 11.6069 62.9149 11.9546 63.11 12.1826C63.1545 12.2444 66.7612 16.5736 64.7424 20.7289C64.6072 21.0071 64.7212 21.3336 64.9955 21.463C65.123 21.5287 65.2659 21.5326 65.4012 21.492Z" fill="#324CA0"/>
<path d="M64.0817 13.645C64.4159 13.4943 64.7308 13.2992 65.0283 13.0789C64.4777 12.1092 63.9716 11.5084 63.9426 11.4717C63.7475 11.2437 63.3998 11.2147 63.1679 11.4098C62.94 11.605 62.911 11.9527 63.1061 12.1806C63.1235 12.2019 63.5833 12.7563 64.0817 13.645Z" fill="#565759"/>
<path d="M60.0839 11.361C60.5321 12.7441 62.0177 13.5014 63.3989 13.0494C64.7783 12.6051 65.5355 11.1156 65.0874 9.73824C64.6392 8.35506 63.1536 7.59778 61.7724 8.04596C60.3892 8.49415 59.6319 9.97971 60.0839 11.361Z" fill="#F0983E"/>
<path d="M63.4227 13.127C62.0028 13.5887 60.4709 12.8044 60.0092 11.3865C59.5533 9.96658 60.3318 8.43465 61.7555 7.97294C63.1754 7.51317 64.7074 8.29169 65.1691 9.71351C65.6288 11.1334 64.8464 12.6673 63.4227 13.127ZM61.8 8.11976C60.4631 8.55635 59.7291 9.99942 60.1618 11.3382C60.5945 12.6808 62.0376 13.4187 63.3802 12.9821C64.717 12.5456 65.455 11.1025 65.0203 9.76374C64.5856 8.42113 63.1406 7.68317 61.8 8.11976Z" fill="#EA602E"/>
<path d="M60.594 11.2142C60.9533 12.3153 62.1395 12.9239 63.2445 12.5645C64.3456 12.2091 64.9522 11.0229 64.5948 9.91795C64.2355 8.81295 63.0532 8.20829 61.9482 8.56374C60.8432 8.92306 60.2386 10.1092 60.594 11.2142Z" fill="white"/>
<path d="M63.2712 12.642C62.1256 13.0129 60.8931 12.3812 60.5261 11.2395C60.1513 10.0978 60.783 8.86145 61.9247 8.49055C63.0703 8.1235 64.2989 8.75134 64.6698 9.89304C65.0407 11.0347 64.4129 12.2711 63.2712 12.642ZM61.9749 8.64123C60.9105 8.98316 60.3271 10.1287 60.6729 11.1893C61.0187 12.2537 62.1623 12.8371 63.221 12.4894C64.2854 12.1475 64.8688 11.0058 64.5211 9.94134C64.1811 8.87884 63.0336 8.29929 61.9749 8.64123Z" fill="#EA602E"/>
<path d="M63.7424 10.2151C63.951 10.8468 63.6033 11.523 62.9677 11.7316C62.336 11.9402 61.6541 11.5925 61.4512 10.9569C61.2426 10.3252 61.5903 9.6433 62.222 9.44046C62.8576 9.23183 63.5376 9.57956 63.7424 10.2151Z" fill="#5D1C00"/>
<path d="M63.4716 10.2644C63.6262 10.7532 63.3615 11.2806 62.8689 11.439C62.3802 11.5935 61.8566 11.325 61.6982 10.8401C61.5398 10.3513 61.8045 9.82396 62.2932 9.66555C62.7839 9.50521 63.3094 9.77373 63.4716 10.2644Z" fill="#833723"/>
<path d="M63.2312 10.3423C63.3452 10.7016 63.1501 11.0764 62.7946 11.1943C62.4392 11.3121 62.0605 11.117 61.9427 10.7615C61.8287 10.4061 62.0238 10.0236 62.3754 9.90573C62.7328 9.79562 63.1115 9.99073 63.2312 10.3423Z" fill="#2C0000"/>
<path d="M62.507 10.0855C62.5765 10.3057 62.4587 10.5337 62.2385 10.6032C62.026 10.6766 61.7941 10.5588 61.7246 10.3424C61.6512 10.1261 61.7729 9.89809 61.9854 9.82468C62.2056 9.75514 62.4336 9.87298 62.507 10.0855Z" fill="white"/>
<path d="M60.594 11.2142C60.9533 12.3153 62.1395 12.9239 63.2445 12.5645C64.3456 12.2091 64.9522 11.0229 64.5948 9.91795C64.2355 8.81295 63.0532 8.20829 61.9482 8.56374C60.8432 8.92306 60.2386 10.1092 60.594 11.2142ZM60.9456 10.2116C60.8934 9.34613 61.8458 8.80522 62.6012 8.76465C63.2734 8.72795 63.938 9.1684 64.1582 9.82909C64.4441 10.6694 63.4763 11.39 62.7596 11.4557C61.9811 11.5291 61.0016 11.0674 60.9456 10.2116Z" fill="#CBCCCE"/>
<path d="M49.963 29.1499C50.0847 29.0726 50.1794 28.9509 50.2122 28.7983C50.6855 26.6211 50.1311 24.3647 48.6185 22.2649C47.4922 20.7059 46.2404 19.7941 46.1844 19.7535C45.9429 19.5777 45.5971 19.6356 45.4213 19.8752C45.2416 20.1205 45.2996 20.4663 45.543 20.6421C45.6048 20.6866 50.1233 24.0518 49.14 28.5664C49.0782 28.8639 49.2617 29.1537 49.5612 29.2194C49.7061 29.2484 49.8432 29.2194 49.963 29.1499Z" fill="#535CA9"/>
<path d="M45.6109 19.8003C45.5587 19.8331 45.5123 19.8737 45.4814 19.922C45.3269 20.1345 45.3752 20.4281 45.5838 20.5826C45.6321 20.6155 50.2047 24.0251 49.2137 28.5842C49.1616 28.8373 49.32 29.0865 49.5769 29.1425C49.8184 29.2005 50.083 29.0285 50.1313 28.7832C50.6008 26.6292 50.0579 24.3922 48.5492 22.3155C47.4326 20.7623 46.1885 19.8524 46.1344 19.8196C45.9818 19.7114 45.7751 19.6979 45.6109 19.8003Z" fill="#535CA9"/>
<path d="M49.963 29.1499C50.0847 29.0726 50.1794 28.9509 50.2122 28.7983C50.6855 26.6211 50.1311 24.3647 48.6185 22.2649C47.4922 20.7059 46.2404 19.7941 46.1844 19.7535C45.9429 19.5777 45.5971 19.6356 45.4213 19.8752C45.2416 20.1205 45.2996 20.4663 45.543 20.6421C45.6048 20.6866 50.1233 24.0518 49.14 28.5664C49.0782 28.8639 49.2617 29.1537 49.5612 29.2194C49.7061 29.2484 49.8432 29.2194 49.963 29.1499Z" fill="#324CA0"/>
<path d="M46.8374 21.8341C47.131 21.61 47.3879 21.3453 47.6236 21.0633C46.8605 20.248 46.2288 19.7825 46.1883 19.7535C45.9468 19.5777 45.601 19.6356 45.4252 19.8752C45.2455 20.1205 45.3035 20.4663 45.5469 20.6421C45.5682 20.6595 46.1419 21.0884 46.8374 21.8341Z" fill="#565759"/>
<path d="M42.4107 20.5593C43.1699 21.7957 44.7964 22.1859 46.0328 21.4209C47.2692 20.6578 47.6555 19.039 46.8944 17.7987C46.1313 16.5624 44.5086 16.176 43.2722 16.9371C42.0359 17.7002 41.6476 19.3191 42.4107 20.5593Z" fill="#F0983E"/>
<path d="M46.0774 21.4846C44.8043 22.2709 43.1333 21.8729 42.3489 20.5998C41.5627 19.3229 41.9607 17.6557 43.2337 16.8734C44.5068 16.0871 46.1778 16.4851 46.9602 17.7581C47.7426 19.0312 47.3504 20.7022 46.0774 21.4846ZM43.3168 17.0028C42.1171 17.7408 41.7424 19.319 42.4803 20.5148C43.2183 21.7184 44.7966 22.0931 45.9962 21.3552C47.1959 20.6172 47.5707 19.0389 46.8327 17.8393C46.0928 16.6396 44.5203 16.2648 43.3168 17.0028Z" fill="#EA602E"/>
<path d="M42.8818 20.2972C43.4903 21.2844 44.7866 21.5896 45.7699 20.983C46.7647 20.3745 47.07 19.0821 46.4634 18.0911C45.851 17.1039 44.5586 16.7948 43.5715 17.4014C42.5843 18.008 42.2733 19.3062 42.8818 20.2972Z" fill="white"/>
<path d="M45.8119 21.0511C44.788 21.6789 43.4435 21.3563 42.8099 20.3325C42.182 19.3125 42.5008 17.9679 43.5285 17.3343C44.5485 16.7026 45.8988 17.0252 46.5247 18.0471C47.1584 19.0729 46.8377 20.4194 45.8119 21.0511ZM43.6116 17.4714C42.6611 18.0548 42.3636 19.3067 42.947 20.2532C43.5304 21.2076 44.7822 21.5012 45.7327 20.9178C46.6832 20.3344 46.9807 19.0826 46.3934 18.1321C45.81 17.1817 44.5601 16.8842 43.6116 17.4714Z" fill="#EA602E"/>
<path d="M45.7043 18.5803C46.0501 19.1463 45.8762 19.89 45.3083 20.2397C44.7403 20.5874 43.9946 20.4116 43.6488 19.8437C43.2972 19.2777 43.4769 18.53 44.0449 18.1881C44.6109 17.8385 45.3566 18.0123 45.7043 18.5803Z" fill="#5D1C00"/>
<path d="M45.45 18.6943C45.7224 19.1309 45.5891 19.7066 45.1487 19.9751C44.7121 20.2436 44.1364 20.1045 43.864 19.6698C43.5955 19.2333 43.7326 18.6576 44.1692 18.3852C44.6097 18.1186 45.1796 18.2538 45.45 18.6943Z" fill="#833723"/>
<path d="M45.2306 18.8257C45.4257 19.1445 45.3291 19.5637 45.0103 19.7549C44.6916 19.9558 44.2762 19.8534 44.0811 19.5347C43.886 19.2159 43.9826 18.8006 44.3013 18.6055C44.622 18.4084 45.0335 18.5108 45.2306 18.8257Z" fill="#2C0000"/>
<path d="M44.4637 18.7464C44.5854 18.9416 44.5255 19.1946 44.3285 19.3144C44.1372 19.4322 43.8842 19.3704 43.7663 19.1792C43.6446 18.9879 43.7045 18.731 43.8958 18.6131C44.0928 18.4953 44.3459 18.5552 44.4637 18.7464Z" fill="white"/>
<path d="M42.874 20.2982C43.4825 21.2854 44.7787 21.5906 45.762 20.984C46.7569 20.3755 47.0622 19.0831 46.4556 18.0921C45.8432 17.1049 44.5508 16.7958 43.5636 17.4024C42.5765 18.009 42.2655 19.3072 42.874 20.2982ZM42.9764 19.2415C42.7156 18.4089 43.5192 17.6555 44.2398 17.4391C44.885 17.2479 45.6345 17.5164 46.0093 18.1075C46.4826 18.8571 45.7157 19.7882 45.026 20.02C44.2881 20.2731 43.2314 20.0567 42.9764 19.2415Z" fill="#CBCCCE"/>
<path d="M57.0614 27.655C56.9262 27.7168 56.7755 27.7284 56.6287 27.6704C54.5443 26.8842 52.9505 25.1958 52.0175 22.781C51.3201 20.9902 51.2312 19.4409 51.2312 19.3752C51.2157 19.07 51.4476 18.813 51.7489 18.7957C52.0542 18.7802 52.3111 19.012 52.3246 19.3134C52.3323 19.3907 52.6955 25.0142 57.0189 26.6408C57.301 26.7509 57.4478 27.0696 57.3377 27.3497C57.2817 27.4908 57.1831 27.5931 57.0614 27.655Z" fill="#535CA9"/>
<path d="M51.3051 19.3675C51.309 19.437 51.394 20.969 52.0875 22.752C53.0128 25.1456 54.5911 26.8185 56.6543 27.597C56.89 27.6859 57.172 27.5603 57.2628 27.3227C57.3517 27.0774 57.23 26.8089 56.9846 26.72C52.6207 25.0722 52.2459 19.3791 52.242 19.3173C52.2304 19.0603 52.0063 18.8614 51.7494 18.8768C51.6876 18.8768 51.6316 18.8923 51.5698 18.9213C51.3998 19.0043 51.2974 19.1801 51.3051 19.3675Z" fill="#535CA9"/>
<path d="M57.0614 27.655C56.9262 27.7168 56.7755 27.7284 56.6287 27.6704C54.5443 26.8842 52.9505 25.1958 52.0175 22.781C51.3201 20.9902 51.2312 19.4409 51.2312 19.3752C51.2157 19.07 51.4476 18.813 51.7489 18.7957C52.0542 18.7802 52.3111 19.012 52.3246 19.3134C52.3323 19.3907 52.6955 25.0142 57.0189 26.6408C57.301 26.7509 57.4478 27.0696 57.3377 27.3497C57.2817 27.4908 57.1831 27.5931 57.0614 27.655Z" fill="#324CA0"/>
<path d="M52.6221 21.0433C52.2763 21.1689 51.9131 21.2442 51.5499 21.2887C51.2814 20.2049 51.237 19.4206 51.2312 19.3762C51.2157 19.0709 51.4476 18.814 51.7489 18.7966C52.0542 18.7812 52.3111 19.013 52.3246 19.3144C52.3285 19.3433 52.3729 20.0562 52.6221 21.0433Z" fill="#565759"/>
<path d="M54.3225 24.6514C54.9832 25.484 55.8564 26.2046 57.0174 26.6411C57.2995 26.7513 57.4463 27.07 57.3362 27.3501C57.284 27.4892 57.1855 27.5916 57.0638 27.6515C56.9286 27.7133 56.7779 27.7249 56.6311 27.6669C55.555 27.2593 54.6085 26.6141 53.8164 25.7467C53.9555 25.3661 54.1081 24.9933 54.3225 24.6514Z" fill="#ED7E3B"/>
<path d="M53.953 16.6421C54.577 17.9596 54.0187 19.5244 52.705 20.1542C51.3914 20.7782 49.8266 20.2199 49.1969 18.9062C48.5729 17.5926 49.1312 16.024 50.4448 15.4C51.7565 14.7741 53.3252 15.3285 53.953 16.6421Z" fill="#F0983E"/>
<path d="M49.1293 18.9393C48.4899 17.5948 49.0598 15.9701 50.4101 15.3268C51.7604 14.6874 53.3793 15.2611 54.0226 16.6115C54.6678 17.9618 54.0883 19.5807 52.7418 20.2201C51.3934 20.8634 49.7707 20.2877 49.1293 18.9393ZM49.2723 18.8736C49.8769 20.1467 51.4011 20.6876 52.6742 20.081C53.9473 19.4764 54.4882 17.9522 53.8816 16.6752C53.2788 15.408 51.7527 14.8651 50.4816 15.4678C49.2066 16.0764 48.6637 17.6006 49.2723 18.8736Z" fill="#EA602E"/>
<path d="M53.4752 16.8881C53.9774 17.9409 53.5273 19.1927 52.4842 19.6892C51.4313 20.1915 50.1795 19.7471 49.683 18.6943C49.1807 17.6473 49.627 16.3935 50.674 15.8932C51.723 15.3948 52.9787 15.8429 53.4752 16.8881Z" fill="white"/>
<path d="M49.6123 18.7316C49.0985 17.6421 49.5602 16.342 50.6439 15.8242C51.7296 15.3104 53.0297 15.7721 53.5513 16.8558C54.0652 17.9415 53.6035 19.2416 52.5197 19.7632C51.436 20.2771 50.1262 19.8154 49.6123 18.7316ZM49.7514 18.6621C50.2324 19.6685 51.4475 20.1013 52.4502 19.6203C53.4586 19.1392 53.8894 17.928 53.4083 16.9254C52.9273 15.9189 51.7161 15.4862 50.7135 15.9672C49.7031 16.4443 49.2742 17.6556 49.7514 18.6621Z" fill="#EA602E"/>
<path d="M50.5159 18.3235C50.8019 18.9262 51.5224 19.1831 52.1232 18.8992C52.726 18.6094 52.979 17.8908 52.6989 17.288C52.4091 16.6853 51.6924 16.4322 51.0878 16.7181C50.4831 17.0021 50.23 17.7246 50.5159 18.3235Z" fill="#5D1C00"/>
<path d="M50.7484 18.1768C50.9686 18.6385 51.5231 18.8375 51.9925 18.6134C52.4581 18.3971 52.6532 17.8388 52.433 17.3693C52.2089 16.9096 51.6544 16.7087 51.1889 16.9327C50.7233 17.153 50.5243 17.7074 50.7484 18.1768Z" fill="#833723"/>
<path d="M50.9747 18.0664C51.137 18.4006 51.5407 18.5436 51.8749 18.3851C52.213 18.2209 52.3559 17.823 52.1975 17.4849C52.0391 17.1469 51.6354 17.0039 51.2973 17.1623C50.9592 17.3246 50.8163 17.7245 50.9747 18.0664Z" fill="#2C0000"/>
<path d="M51.3254 17.3815C51.4239 17.5844 51.6673 17.6752 51.876 17.5728C52.0846 17.4781 52.1658 17.2347 52.0711 17.0299C51.9726 16.8213 51.7253 16.7324 51.5205 16.829C51.3158 16.9333 51.2269 17.1787 51.3254 17.3815Z" fill="white"/>
<path d="M50.6819 15.8932C49.6348 16.3954 49.1886 17.6473 49.6908 18.6943C50.1892 19.7471 51.4411 20.1915 52.492 19.6892C53.5351 19.1927 53.9853 17.939 53.483 16.8881C52.9865 15.8429 51.7308 15.3948 50.6819 15.8932ZM52.0844 18.5475C51.5145 18.9957 50.3148 19.1386 49.9439 18.3311C49.6503 17.6956 49.8299 16.9248 50.3438 16.4843C50.9137 15.9994 51.9878 15.7348 52.5422 16.4032C53.0889 17.0581 52.6967 18.0665 52.0844 18.5475Z" fill="#CBCCCE"/>
<path d="M73.4694 21.2278C71.7327 18.1813 66.6424 19.1762 63.9397 19.8813C61.1869 20.5999 50.5638 25.2653 47.9733 26.7083C45.6493 28.0007 42.1585 30.3421 43.6131 33.5219C44.3724 35.1851 46.8026 36.1356 48.4736 36.3809C50.4711 36.6784 52.5594 36.2959 54.4758 35.7319C59.8385 34.1613 65.6533 31.903 70.0868 28.4238C71.2362 27.5178 72.2929 26.4301 73.1004 25.1976C73.9833 23.8608 74.1146 22.3521 73.4694 21.2278Z" fill="#F0983E"/>
<path d="M73.4694 21.2278C71.7327 18.1813 66.6424 19.1762 63.9397 19.8813C61.1869 20.5999 50.5638 25.2653 47.9733 26.7083C45.6493 28.0007 42.1585 30.3421 43.6131 33.5219C44.3724 35.1851 46.8026 36.1356 48.4736 36.3809C50.4711 36.6784 52.5594 36.2959 54.4758 35.7319C59.8385 34.1613 65.6533 31.903 70.0868 28.4238C71.2362 27.5178 72.2929 26.4301 73.1004 25.1976C73.9833 23.8608 74.1146 22.3521 73.4694 21.2278ZM69.0977 25.1822C67.6546 27.6491 65.3171 29.4322 62.8985 30.8714C59.8887 32.6622 56.651 34.2308 53.1389 34.6636C50.9618 34.9282 48.5142 35.162 46.4104 34.4105C45.5508 34.1014 44.6119 33.5547 44.2294 32.6699C43.7561 31.5726 43.9474 30.4928 44.8051 29.6486C45.9835 28.4779 47.5251 27.5892 48.9353 26.7373C49.9669 26.1211 51.0197 25.5473 52.1074 25.0276C53.7146 24.2008 60.4799 21.4383 62.1721 20.8839C63.5456 20.428 65.0196 20.2812 66.4859 20.4183C67.5291 20.513 68.8562 20.8433 69.4435 21.8131C70.11 22.9123 69.6985 24.1525 69.0977 25.1822Z" fill="#F0983E"/>
<path d="M51.9432 25.5924C51.5066 25.376 46.4182 28.3201 45.2476 29.7149C44.9211 30.0974 44.639 30.5707 44.5424 31.0729C44.4323 31.6525 44.4903 32.3576 45.0273 32.7324C45.236 32.8792 45.5238 32.8985 45.6803 32.6705C45.831 32.4387 45.7324 32.1316 45.6803 31.8882C45.5876 31.4767 45.6474 31.098 45.8483 30.731C46.2077 30.0703 46.8394 29.6299 47.3938 29.1566C48.0178 28.6272 48.6785 28.1404 49.3681 27.7C50.0327 27.2711 50.7552 26.9543 51.4274 26.5467C51.6844 26.3883 52.2543 26.0521 52.0302 25.6774C52.0089 25.6368 51.9799 25.6117 51.9432 25.5924Z" fill="#00BBC4"/>
<path d="M53.173 24.9181C53.0185 24.8775 52.8427 24.9664 52.7577 25.0978C52.7287 25.1383 52.6997 25.1866 52.6843 25.2446C52.6476 25.3373 52.6437 25.4474 52.692 25.5305C52.7538 25.6367 52.9045 25.5962 52.9895 25.5479C53.1209 25.4822 53.2213 25.3605 53.2831 25.2291C53.3353 25.1055 53.3237 24.9509 53.173 24.9181Z" fill="#00BBC4"/>
<path d="M69.7509 23.763C69.2814 23.4732 68.6092 23.9871 68.2711 24.2285C67.3284 24.9008 66.546 25.7875 65.7675 26.6549C63.5092 29.1663 60.6829 31.0961 57.3988 31.8418C52.4881 32.9584 52.5654 31.6911 50.396 32.4523C49.9768 32.5991 49.544 32.9661 49.7469 33.5206C49.9633 34.1001 50.7592 34.2952 51.2363 34.4459C52.7335 34.9057 54.335 34.7608 55.836 34.5386C58.2585 34.1793 61.0036 33.0048 63.1073 31.8148C65.2034 30.6364 66.8956 29.3633 68.5242 27.5203C69.0631 26.9176 69.6002 25.9131 69.9711 25.1635C70.2164 24.6767 70.2937 24.0933 69.7509 23.763Z" fill="#535CA9"/>
<path d="M69.5092 24.3615C69.0765 24.1297 68.4197 24.5991 68.0893 24.8232C67.1756 25.4356 66.4048 26.2334 65.634 27.0178C63.4066 29.2761 60.6673 31.0514 57.5262 31.8106C52.8318 32.9446 52.9458 31.8396 50.8575 32.5737C50.4576 32.7166 50.0384 33.047 50.2123 33.5241C50.3958 34.0206 51.1415 34.1694 51.5955 34.2872C52.998 34.6388 54.528 34.4553 55.9556 34.2138C58.2641 33.8274 60.9068 32.7089 62.9449 31.6039C64.9675 30.5028 66.6154 29.3417 68.2207 27.6842C68.7519 27.1375 69.2929 26.2489 69.6734 25.5844C69.9168 25.1497 70.0134 24.6397 69.5092 24.3615Z" fill="#535CA9"/>
<path d="M62.4987 30.6129C61.2835 30.9181 60.165 31.3586 59.1586 32.1294C58.5539 32.5911 57.6653 33.1977 57.2422 33.9279C59.2068 33.414 61.2836 32.5041 62.9507 31.5981C63.8065 31.1383 64.5985 30.6573 65.3481 30.1338C64.3532 30.157 63.3178 30.41 62.4987 30.6129Z" fill="#2E3192"/>
<path d="M52.3595 33.5455C53.1052 33.8063 53.3795 33.0393 53.4896 32.3497C52.6338 32.3245 52.1567 32.2067 51.3086 32.4347C51.581 32.9022 51.8939 33.3832 52.3595 33.5455Z" fill="white"/>
<path d="M67.4994 26.7912C67.7235 26.3257 67.6791 25.7384 67.5516 25.2168C67.0126 25.6418 66.52 26.117 66.0312 26.6116C66.5239 26.9786 67.1884 27.4326 67.4994 26.7912Z" fill="white"/>
<path d="M55.0401 32.8367C55.4071 32.8812 55.5056 32.5392 55.579 32.2012C55.1309 32.2746 54.7522 32.3152 54.4219 32.3364C54.5822 32.5837 54.7947 32.8116 55.0401 32.8367Z" fill="white"/>
<path d="M64.8522 28.5639C64.9545 28.2993 64.9507 28.0056 64.9043 27.7197C64.5624 28.0385 64.2108 28.3437 63.8438 28.6373C64.1625 28.9387 64.6435 29.0932 64.8522 28.5639Z" fill="white"/>
<path d="M58.1214 29.0076C57.9263 28.8531 57.7061 28.9825 57.6037 29.1834C57.4936 29.3998 57.4859 29.7379 57.6926 29.9021C57.7447 29.9426 57.8027 29.9639 57.8587 29.96C57.907 29.989 57.9611 30.0006 58.0094 30.0006C58.2373 29.9967 58.3726 29.7398 58.3842 29.535C58.3977 29.3245 58.2837 29.1371 58.1214 29.0076Z" fill="#2E3192"/>
<path d="M59.8216 28.2447C59.613 28.0496 59.3985 28.2486 59.3116 28.4572C59.2382 28.6485 59.2498 28.8764 59.3676 29.0484C59.4198 29.1256 59.4855 29.1585 59.555 29.1701C59.5917 29.1991 59.6439 29.2145 59.7095 29.2068C59.9414 29.1913 60.0283 28.9209 60.0186 28.7219C60.0128 28.5635 59.9394 28.351 59.8216 28.2447Z" fill="#2E3192"/>
<path opacity="0.4" d="M50.5293 2.76558C27.0731 11.3506 15.0901 37.5422 23.7736 61.2649C24.1696 62.3371 24.5965 63.386 25.0583 64.4138C25.0583 64.4138 25.066 64.4099 25.0698 64.4099C25.2244 64.8252 25.4253 64.9431 25.4118 64.9566C28.6611 68.741 48.2575 65.229 70.5468 56.7309C92.9385 48.1961 109.904 37.7276 109.591 32.7938C109.506 32.504 109.415 32.2142 109.322 31.9244C109.131 31.3372 108.934 30.7576 108.723 30.1781C100.04 6.45342 73.9854 -5.82135 50.5293 2.76558ZM92.9617 35.0231C90.2011 42.7194 78.4556 48.399 69.3703 51.9709C59.1336 55.9949 47.0829 59.1032 37.0722 57.863C32.5653 57.3085 28.4177 55.9389 26.2985 53.0547C24.7743 50.9838 24.214 48.5941 24.1175 46.077C22.6338 40.3317 24.0189 33.667 26.4665 27.8522C29.3913 20.8996 34.6671 14.8221 41.7028 10.1934C48.0353 6.02456 55.7606 2.16865 63.4628 2.26524C63.6309 2.26911 63.7893 2.2807 63.9573 2.28649C64.3534 2.28649 64.7532 2.29422 65.1396 2.31934C75.131 2.97229 81.8344 8.79092 86.5094 14.3546C91.1013 19.8216 95.7473 27.2514 92.9617 35.0231Z" fill="#6EA1B7"/>
<path opacity="0.9" d="M26.0508 45.0557C26.1203 47.0628 26.3154 49.155 26.667 51.3399C26.667 51.3399 30.154 55.1359 35.6268 56.1559C35.6268 56.1559 34.5662 53.0167 33.7877 48.0848C31.116 47.2174 28.5216 46.207 26.0508 45.0557Z" fill="white"/>
<path opacity="0.9" d="M26.0742 41.2703C28.3866 41.9464 30.7724 42.4642 33.1775 42.9336C32.4724 33.97 33.3823 21.8826 40.5667 11.3252C40.5686 11.3252 27.0054 21.4035 26.0742 41.2703Z" fill="white"/>
<path d="M5.36832 74.6955C6.39991 74.3169 7.39479 74.3072 7.90479 74.6144C7.97047 74.4675 7.98593 74.3284 7.9415 74.2067C7.74638 73.6678 6.50229 73.6311 5.15582 74.1256C3.819 74.6144 2.88786 75.447 3.08491 75.9859C3.12934 76.1077 3.23173 76.2062 3.37468 76.2719C3.56593 75.7078 4.33286 75.0741 5.36832 74.6955Z" fill="#6D6E71"/>
<path d="M5.867 76.0652C6.89859 75.6866 7.68678 75.107 7.90121 74.6144C7.39121 74.3092 6.39632 74.3169 5.36473 74.6956C4.32928 75.0742 3.56234 75.7078 3.37109 76.27C3.85791 76.5115 4.83541 76.4458 5.867 76.0652Z" fill="#00874C"/>
<path d="M6.34223 75.7037C5.71439 75.9355 4.69825 76.3528 4.01439 76.0341C3.83859 75.9529 3.7903 75.8061 3.79416 75.6458C3.58939 75.8544 3.44257 76.065 3.37109 76.2697C3.85598 76.5112 4.83541 76.4455 5.867 76.0669C6.54893 75.8177 7.11882 75.4796 7.48973 75.1377C7.11303 75.298 6.70928 75.5646 6.34223 75.7037Z" fill="#00874C"/>
<path d="M4.48451 75.6665C4.50962 75.7322 4.42655 75.8172 4.30871 75.8616C4.18701 75.9061 4.07689 75.8906 4.05178 75.8249C4.02667 75.7554 4.10008 75.6704 4.22371 75.624C4.34155 75.5796 4.4594 75.6008 4.48451 75.6665Z" fill="#C2E1B7"/>
<path d="M4.83028 75.2423C4.84574 75.2926 4.78585 75.3602 4.68733 75.3969C4.5946 75.4297 4.5038 75.4123 4.48449 75.3679C4.46324 75.3157 4.52892 75.2423 4.61971 75.2056C4.7163 75.1728 4.81096 75.1882 4.83028 75.2423Z" fill="#C2E1B7"/>
<path d="M3.37891 76.2698C3.37891 76.2698 3.45618 76.295 3.59527 76.3317C3.66095 76.3355 3.74209 76.3433 3.84061 76.3568C3.93913 76.3568 4.04345 76.3568 4.16322 76.3529C4.28107 76.3413 4.40277 76.3413 4.538 76.3124C4.67322 76.2911 4.81038 76.264 4.95334 76.2312C5.09629 76.2061 5.24697 76.1539 5.39379 76.1172C5.54061 76.0767 5.68743 76.0187 5.83811 75.9704C5.98107 75.9125 6.13561 75.8564 6.2747 75.7946C6.41379 75.7289 6.55675 75.6729 6.67845 75.5995C6.81368 75.53 6.93925 75.4604 7.04936 75.3909C7.1672 75.3252 7.26959 75.2479 7.36811 75.1784C7.45891 75.105 7.53618 75.0315 7.61732 74.9755C7.683 74.906 7.73516 74.8442 7.78345 74.7959C7.86459 74.6819 7.90902 74.6162 7.90902 74.6162C7.90902 74.6162 7.88004 74.6896 7.82016 74.819C7.77572 74.877 7.72743 74.9466 7.67334 75.0277C7.60379 75.1011 7.53038 75.1861 7.44152 75.273C7.34879 75.3464 7.25027 75.4392 7.13629 75.5222C7.02618 75.6034 6.90447 75.6864 6.76925 75.7598C6.64175 75.841 6.50072 75.9105 6.35777 75.9839C6.21095 76.0535 6.06413 76.1056 5.91345 76.1675C5.60436 76.2699 5.29334 76.3684 4.99197 76.4128C4.84516 76.4456 4.69447 76.4572 4.55538 76.465C4.41629 76.4804 4.28686 76.4688 4.16322 76.4727C4.04152 76.4688 3.92561 76.4476 3.83288 76.436C3.73436 76.407 3.65322 76.3877 3.57982 76.3703C3.45038 76.3104 3.37891 76.2698 3.37891 76.2698Z" fill="white"/>
<path d="M73.1107 66.7964C74.1461 66.4177 75.1449 66.4042 75.651 66.7114C75.7167 66.5684 75.7321 66.4255 75.6877 66.3038C75.4926 65.7706 74.2447 65.7319 72.902 66.2226C71.5594 66.7114 70.6341 67.544 70.8311 68.0868C70.8756 68.2047 70.9779 68.3032 71.1248 68.3727C71.3122 67.8086 72.0791 67.1711 73.1107 66.7964Z" fill="#6D6E71"/>
<path d="M73.6112 68.1621C74.6467 67.7873 75.4349 67.2039 75.6512 66.7113C75.1451 66.4061 74.1464 66.4177 73.1109 66.7963C72.0793 67.1711 71.3124 67.8086 71.125 68.3707C71.6041 68.6064 72.5797 68.5427 73.6112 68.1621Z" fill="#00874C"/>
<path d="M74.0884 67.8052C73.4606 68.037 72.4483 68.4504 71.7644 68.1317C71.5925 68.0506 71.5403 67.9037 71.5442 67.7434C71.3414 67.952 71.1888 68.1684 71.125 68.3712C71.606 68.6088 72.5816 68.5432 73.6132 68.1626C74.299 67.9134 74.8689 67.5753 75.2398 67.2334C74.8631 67.4015 74.4593 67.6623 74.0884 67.8052Z" fill="#00874C"/>
<path d="M72.2226 67.7614C72.2477 67.827 72.1704 67.9121 72.0468 67.9565C71.9289 68.0009 71.8111 67.9855 71.786 67.9236C71.7609 67.8541 71.8381 67.7652 71.9618 67.7208C72.0835 67.6764 72.1994 67.6976 72.2226 67.7614Z" fill="#C2E1B7"/>
<path d="M72.5727 67.3392C72.594 67.3875 72.5283 67.4609 72.4375 67.4938C72.3428 67.5305 72.2501 67.515 72.2347 67.4648C72.2134 67.4126 72.2752 67.3392 72.3699 67.3064C72.4626 67.2736 72.5515 67.2851 72.5727 67.3392Z" fill="#C2E1B7"/>
<path d="M71.1211 68.3704C71.1211 68.3704 71.1984 68.3916 71.3336 68.4283C71.4031 68.4361 71.4843 68.4438 71.5789 68.4535C71.6775 68.4496 71.7818 68.4573 71.8977 68.4496C72.0194 68.438 72.1469 68.4341 72.2763 68.409C72.4116 68.3936 72.5487 68.3607 72.6917 68.3279C72.8346 68.3028 72.9814 68.2506 73.1321 68.2139C73.2789 68.1733 73.4258 68.1154 73.5764 68.0671C73.7155 68.0091 73.8778 67.957 74.013 67.8913C74.1521 67.8217 74.2951 67.7696 74.4206 67.6962C74.5501 67.6305 74.6737 67.561 74.7915 67.4876C74.9055 67.4219 75.0041 67.3446 75.1026 67.275C75.2011 67.2055 75.2784 67.1321 75.3556 67.0761C75.4213 67.0027 75.4773 66.9447 75.5276 66.8925C75.6048 66.7786 75.6493 66.7129 75.6493 66.7129C75.6493 66.7129 75.6203 66.7863 75.5604 66.9157C75.516 66.9737 75.4677 67.0413 75.4097 67.1244C75.3441 67.1978 75.2745 67.2886 75.1818 67.3658C75.0891 67.447 74.9944 67.5378 74.8804 67.615C74.7703 67.7 74.6428 67.787 74.5095 67.8604C74.3839 67.9377 74.241 68.0111 74.098 68.0768C73.9512 68.1502 73.8083 68.2023 73.6537 68.268C73.3446 68.3704 73.0336 68.4689 72.7322 68.5095C72.5854 68.5423 72.4386 68.5539 72.2956 68.5616C72.1604 68.5732 72.0271 68.5694 71.9035 68.5694C71.7818 68.5655 71.6659 68.5443 71.5731 68.5327C71.4746 68.5037 71.3935 68.4844 71.3201 68.467C71.1906 68.4071 71.1211 68.3704 71.1211 68.3704Z" fill="white"/>
<path d="M129.954 29.1053C130.986 28.7266 131.981 28.7131 132.491 29.0241C132.556 28.8773 132.576 28.7344 132.528 28.6127C132.332 28.0737 131.088 28.0428 129.742 28.5315C128.401 29.0261 127.474 29.8529 127.671 30.3919C127.715 30.5136 127.818 30.6121 127.961 30.6816C128.152 30.1137 128.919 29.48 129.954 29.1053Z" fill="#6D6E71"/>
<path d="M130.453 30.4709C131.488 30.0961 132.271 29.5127 132.487 29.024C131.977 28.7129 130.982 28.7265 129.951 29.1051C128.915 29.4799 128.148 30.1116 127.957 30.6795C128.442 30.9171 129.417 30.8515 130.453 30.4709Z" fill="#00874C"/>
<path d="M130.926 30.1138C130.302 30.3457 129.29 30.7591 128.602 30.4403C128.426 30.3592 128.374 30.2124 128.386 30.0539C128.177 30.2626 128.027 30.477 127.957 30.6818C128.442 30.9194 129.417 30.8537 130.453 30.4731C131.135 30.2239 131.701 29.8859 132.076 29.5439C131.701 29.7101 131.293 29.9709 130.926 30.1138Z" fill="#00874C"/>
<path d="M129.066 30.073C129.087 30.1387 129.01 30.2237 128.886 30.2681C128.769 30.3126 128.649 30.2971 128.626 30.2353C128.601 30.1657 128.682 30.0807 128.801 30.0344C128.923 29.99 129.037 30.0073 129.066 30.073Z" fill="#C2E1B7"/>
<path d="M129.409 29.6483C129.43 29.6966 129.368 29.7662 129.27 29.8029C129.175 29.8396 129.086 29.8241 129.065 29.77C129.05 29.7217 129.106 29.6522 129.2 29.6155C129.297 29.5826 129.392 29.6 129.409 29.6483Z" fill="#C2E1B7"/>
<path d="M127.957 30.68C127.957 30.68 128.038 30.7013 128.173 30.738C128.239 30.7457 128.324 30.7534 128.419 30.7631C128.517 30.7592 128.618 30.7669 128.741 30.7592C128.855 30.7476 128.987 30.7476 129.116 30.7186C129.251 30.7032 129.389 30.6703 129.531 30.6375C129.678 30.6124 129.821 30.5641 129.972 30.5235C130.123 30.483 130.266 30.425 130.416 30.3767C130.555 30.3188 130.714 30.2666 130.853 30.2009C130.992 30.1352 131.131 30.0831 131.26 30.0058C131.392 29.9401 131.514 29.8706 131.627 29.7972C131.745 29.7315 131.848 29.6542 131.946 29.5885C132.035 29.5151 132.118 29.4417 132.192 29.3857C132.257 29.3123 132.317 29.2543 132.364 29.2022C132.445 29.0882 132.489 29.0264 132.489 29.0264C132.489 29.0264 132.46 29.0959 132.394 29.2253C132.358 29.2872 132.304 29.3567 132.248 29.434C132.182 29.5074 132.109 29.5982 132.02 29.6793C131.925 29.7566 131.828 29.8513 131.714 29.9285C131.604 30.0097 131.483 30.0947 131.351 30.17C131.222 30.2511 131.073 30.3168 130.93 30.3902C130.787 30.4598 130.64 30.5119 130.486 30.5776C130.181 30.68 129.87 30.7727 129.568 30.821C129.421 30.85 129.271 30.8655 129.135 30.8713C128.992 30.8906 128.863 30.879 128.739 30.879C128.612 30.879 128.508 30.8539 128.409 30.8423C128.311 30.8172 128.229 30.7978 128.156 30.7766C128.03 30.7167 127.957 30.68 127.957 30.68Z" fill="white"/>
</svg>
