<svg width="30" height="30" viewBox="0 0 30 30" fill="none" xmlns="http://www.w3.org/2000/svg">
<path d="M23.3333 0H6.66667C2.985 0 0 2.985 0 6.66667V23.3333C0 27.015 2.985 30 6.66667 30H16.035V18.3983H12.13V13.8567H16.035V10.515C16.035 6.64167 18.4033 4.53 21.86 4.53C23.025 4.52667 24.1883 4.58667 25.3467 4.705V8.755H22.9667C21.0833 8.755 20.7167 9.645 20.7167 10.9583V13.85H25.2167L24.6317 18.3917H20.69V30H23.3333C27.015 30 30 27.015 30 23.3333V6.66667C30 2.985 27.015 0 23.3333 0Z" fill="#1A2A6C"/>
</svg>
