<svg width="32" height="32" viewBox="0 0 32 32" fill="none" xmlns="http://www.w3.org/2000/svg">
<path d="M9.11255 0C4.08817 0 0 4.09059 0 9.11621V22.1362C0 27.1612 4.09059 31.25 9.11621 31.25H22.1362C27.1612 31.25 31.25 27.1594 31.25 22.1338V9.11255C31.25 4.08817 27.1594 0 22.1338 0H9.11255ZM25 5C25.69 5 26.25 5.56 26.25 6.25C26.25 6.94 25.69 7.5 25 7.5C24.31 7.5 23.75 6.94 23.75 6.25C23.75 5.56 24.31 5 25 5ZM15.625 7.5C20.1063 7.5 23.75 11.1438 23.75 15.625C23.75 20.1063 20.1056 23.75 15.625 23.75C11.1438 23.75 7.5 20.1056 7.5 15.625C7.5 11.1444 11.1438 7.5 15.625 7.5ZM15.625 10C12.5181 10 10 12.5181 10 15.625C10 18.7319 12.5181 21.25 15.625 21.25C18.7319 21.25 21.25 18.7319 21.25 15.625C21.25 12.5181 18.7319 10 15.625 10Z" fill="#1A2A6C"/>
</svg>
