<svg width="31" height="30" viewBox="0 0 31 30" fill="none" xmlns="http://www.w3.org/2000/svg">
<g clip-path="url(#clip0_830_46726)">
<path d="M25.3655 29.4886C18.9632 30.1716 12.5064 30.1716 6.10412 29.4886C4.86085 29.3573 3.70015 28.8038 2.81552 27.9204C1.93089 27.0371 1.37579 25.8771 1.24275 24.6341C0.559708 18.2318 0.559708 11.775 1.24275 5.37267C1.37404 4.12941 1.92752 2.96871 2.81091 2.08408C3.6943 1.19945 4.85422 0.644342 6.0973 0.511306C12.4996 -0.171738 18.9564 -0.171738 25.3587 0.511306C26.6019 0.642597 27.7626 1.19607 28.6473 2.07946C29.5319 2.96285 30.087 4.12277 30.22 5.36586C30.9031 11.7681 30.9031 18.2249 30.22 24.6272C30.0888 25.8705 29.5353 27.0312 28.6519 27.9158C27.7685 28.8005 26.6086 29.3556 25.3655 29.4886Z" fill="#1A2A6C"/>
<path d="M25.412 9.49569C24.967 10.1605 24.4253 10.7551 23.8047 11.2599C23.7242 11.3239 23.6592 11.4053 23.6146 11.498C23.5701 11.5907 23.547 11.6923 23.5473 11.7951V11.8582C23.5402 13.1978 23.2943 14.5254 22.8211 15.7786C22.3337 17.0922 21.6099 18.3054 20.6853 19.3582C19.4485 20.7681 17.8554 21.8196 16.0728 22.4025C14.8982 22.7837 13.6702 22.9748 12.4353 22.9684C10.4796 22.9664 8.55915 22.4478 6.86828 21.465C6.80774 21.4306 6.76013 21.3773 6.73273 21.3133C6.70534 21.2493 6.69966 21.178 6.71658 21.1105C6.73372 21.0437 6.77275 20.9845 6.82744 20.9425C6.88213 20.9005 6.94932 20.878 7.01828 20.8786H7.48533C8.97186 20.8784 10.4244 20.4338 11.6564 19.6019C10.922 19.4819 10.2348 19.162 9.67015 18.6773C9.1055 18.1927 8.68517 17.5619 8.45522 16.8542C8.44393 16.8193 8.44192 16.7821 8.44938 16.7462C8.45684 16.7103 8.4735 16.6769 8.49775 16.6494C8.52199 16.6219 8.55298 16.6012 8.58766 16.5893C8.62234 16.5774 8.65952 16.5747 8.69556 16.5815C8.92032 16.6242 9.14858 16.6459 9.37738 16.6463H9.4626C8.7508 16.3192 8.14901 15.7929 7.73003 15.131C7.31106 14.4691 7.09285 13.7 7.10181 12.9167C7.10229 12.88 7.11227 12.844 7.13078 12.8122C7.14929 12.7805 7.1757 12.754 7.20743 12.7355C7.23917 12.717 7.27516 12.707 7.31191 12.7065C7.34866 12.706 7.38491 12.715 7.41715 12.7326C7.70595 12.8939 8.01572 13.0144 8.3376 13.0906C7.70019 12.4604 7.28994 11.6365 7.17117 10.7481C7.05241 9.85967 7.23185 8.95695 7.68135 8.18148C7.6986 8.15291 7.72236 8.12882 7.7507 8.11119C7.77905 8.09357 7.81116 8.08291 7.84442 8.08008C7.87767 8.07725 7.91113 8.08234 7.94204 8.09493C7.97295 8.10752 8.00044 8.12725 8.02226 8.15251C8.91499 9.25608 10.0203 10.1691 11.2727 10.8372C12.525 11.5054 13.8989 11.9152 15.3126 12.0423H15.3279C15.3489 12.0416 15.3695 12.0367 15.3885 12.0279C15.4076 12.0191 15.4246 12.0066 15.4387 11.9911C15.4523 11.9756 15.4625 11.9575 15.4687 11.9378C15.4748 11.9181 15.4768 11.8974 15.4745 11.8769C15.4218 11.3819 15.454 10.8815 15.57 10.3974C15.6716 9.97356 15.8445 9.57009 16.0814 9.20421C16.5784 8.42357 17.3356 7.84392 18.2189 7.56785C18.6332 7.43794 19.0648 7.37128 19.499 7.37012C20.4837 7.36915 21.4348 7.72801 22.1734 8.37921C22.2675 8.46285 22.3884 8.51001 22.5143 8.51216C22.5558 8.51148 22.597 8.50575 22.637 8.49512C23.3314 8.31945 23.9968 8.04445 24.6126 7.67864C24.6497 7.65723 24.6923 7.64747 24.735 7.65066C24.7777 7.65384 24.8185 7.66981 24.852 7.69649C24.8854 7.72317 24.9101 7.75931 24.9228 7.80022C24.9354 7.84112 24.9354 7.88488 24.9228 7.9258C24.7162 8.57094 24.3504 9.15364 23.8592 9.62012C24.3023 9.51429 24.7347 9.36823 25.1512 9.18376C25.1932 9.16505 25.2402 9.16054 25.285 9.17091C25.3298 9.18129 25.3699 9.20598 25.3994 9.24125C25.4289 9.27652 25.4461 9.32044 25.4484 9.36635C25.4507 9.41227 25.4379 9.45767 25.412 9.49569Z" fill="white"/>
</g>
<defs>
<clipPath id="clip0_830_46726">
<rect width="30" height="30" fill="white" transform="translate(0.730469)"/>
</clipPath>
</defs>
</svg>
