<svg width="35" height="26" viewBox="0 0 35 26" fill="none" xmlns="http://www.w3.org/2000/svg">
<path d="M33.7688 4.4C33.45 2.64062 31.9313 1.35938 30.1688 0.959375C27.5313 0.4 22.65 0 17.3688 0C12.0906 0 7.13125 0.4 4.49063 0.959375C2.73125 1.35938 1.20938 2.55938 0.890625 4.4C0.568751 6.4 0.25 9.2 0.25 12.8C0.25 16.4 0.568751 19.2 0.968751 21.2C1.29063 22.9594 2.80938 24.2406 4.56875 24.6406C7.36875 25.2 12.1688 25.6 17.45 25.6C22.7313 25.6 27.5313 25.2 30.3313 24.6406C32.0906 24.2406 33.6094 23.0406 33.9313 21.2C34.25 19.2 34.65 16.3188 34.7313 12.8C34.5688 9.2 34.1688 6.4 33.7688 4.4ZM13.05 18.4V7.2L22.8094 12.8L13.05 18.4Z" fill="#1A2A6C"/>
</svg>
