<svg width="190" height="183" viewBox="0 0 190 183" fill="none" xmlns="http://www.w3.org/2000/svg">
<path d="M95.2667 1.52228C70.9921 1.51874 51.3609 19.344 51.4194 41.3357L139.326 41.3485C139.267 19.3563 119.541 1.52582 95.2667 1.52228Z" fill="#407BFF"/>
<path opacity="0.7" d="M95.2667 1.52228C70.9921 1.51874 51.3609 19.344 51.4194 41.3357L139.326 41.3485C139.267 19.3563 119.541 1.52582 95.2667 1.52228Z" fill="#9E93D2"/>
<path opacity="0.3" d="M95.2656 1.53513L77.4936 17.3939L91.982 16.4581L103.82 2.29279C103.82 2.29279 98.0562 1.45319 95.2656 1.53513Z" fill="white"/>
<path d="M95.4226 61.8038C147.521 61.8094 189.728 51.656 189.695 39.1254C189.662 26.5949 147.402 16.4323 95.3037 16.4267C43.2056 16.4211 0.998308 26.5745 1.03116 39.1051C1.064 51.6356 43.3245 61.7982 95.4226 61.8038Z" fill="#5D4BB4"/>
<path d="M95.4684 58.6357C126.111 58.6385 150.94 54.2681 150.926 48.8743C150.912 43.4805 126.06 39.1058 95.4175 39.1031C64.7751 39.1003 39.9459 43.4707 39.96 48.8645C39.974 54.2583 64.826 58.633 95.4684 58.6357Z" fill="#9D92D2"/>
<path d="M40.1388 49.6494L48.3942 61.7857L142.958 61.7937L150.926 49.5444L94.3948 43.5922L40.1388 49.6494Z" fill="#9D92D2"/>
<path d="M95.442 70.1529C121.797 70.1555 143.151 65.7852 143.137 60.3916C143.123 54.9979 121.746 50.6235 95.391 50.6209C69.0359 50.6183 47.6823 54.9886 47.6964 60.3822C47.7105 65.7758 69.0869 70.1503 95.442 70.1529Z" fill="#5D4BB4"/>
<path opacity="0.3" d="M95.442 70.1529C121.797 70.1555 143.151 65.7852 143.137 60.3916C143.123 54.9979 121.746 50.6235 95.391 50.6209C69.0359 50.6183 47.6823 54.9886 47.6964 60.3822C47.7105 65.7758 69.0869 70.1503 95.442 70.1529Z" fill="black"/>
<path opacity="0.3" d="M95.4391 68.963C116.353 68.965 133.297 65.4972 133.286 61.2173C133.275 56.9374 116.312 53.4662 95.3986 53.4642C74.4851 53.4621 57.5403 56.93 57.5515 61.2099C57.5627 65.4898 74.5255 68.961 95.4391 68.963Z" fill="black"/>
<path d="M59.7153 58.6223L62.7262 63.7943L129.529 63.0594L131.111 58.6274C123.879 53.69 78.4214 49.3164 59.7153 58.6223Z" fill="#9D92D2"/>
<path d="M96.02 68.8546C114.6 68.8563 129.654 66.1119 129.645 62.7249C129.637 59.3378 114.568 56.5907 95.9881 56.589C77.4084 56.5873 62.3538 59.3317 62.3627 62.7188C62.3715 66.1058 77.4404 68.853 96.02 68.8546Z" fill="#407BFF"/>
<path opacity="0.5" d="M96.02 68.8546C114.6 68.8563 129.654 66.1119 129.645 62.7249C129.637 59.3378 114.568 56.5907 95.9881 56.589C77.4084 56.5873 62.3538 59.3317 62.3627 62.7188C62.3715 66.1058 77.4404 68.853 96.02 68.8546Z" fill="#9D92D2"/>
<g opacity="0.3">
<path d="M95.3086 16.4343C43.2065 16.43 0.996099 26.5864 1.02863 39.1194C1.03282 40.7338 1.74253 42.3083 3.07901 43.8271C7.44481 34.2769 19.8357 30.0772 30.4983 27.4593C70.8317 17.5553 114.318 17.5722 155.123 25.5564C167.535 27.9848 180.577 31.7362 189.587 40.3016C189.667 39.9156 189.707 39.5263 189.706 39.1355C189.674 26.602 147.41 16.4386 95.3086 16.4343Z" fill="white"/>
</g>
<path opacity="0.3" d="M39.9459 48.8773L6.19336 39.1082L40.1224 48.0916L39.9459 48.8773Z" fill="black"/>
<path opacity="0.3" d="M56.5898 22.4766L63.252 40.9286L64.7622 40.7418L56.5898 22.4766Z" fill="black"/>
<path opacity="0.3" d="M121.502 40.259L124.576 20.9573L123.102 40.3797L121.502 40.259Z" fill="black"/>
<path opacity="0.3" d="M150.943 49.548L183.6 35.608L150.22 47.3037C150.22 47.3037 151.914 48.055 150.943 49.548Z" fill="black"/>
<path opacity="0.3" d="M95.3123 16.4542L105.87 2.70271L108.661 3.41789L98.3558 16.527L95.3123 16.4542Z" fill="white"/>
<path d="M42.8913 39.8674C44.3922 39.8676 45.6079 39.5307 45.6068 39.115C45.6057 38.6992 44.3882 38.3621 42.8874 38.3619C41.3866 38.3617 40.1708 38.6986 40.1719 39.1143C40.173 39.5301 41.3905 39.8672 42.8913 39.8674Z" fill="white"/>
<path d="M96.5638 34.8603C96.5649 35.276 95.3493 35.6124 93.8484 35.6122C92.3474 35.612 91.13 35.2748 91.1289 34.8597C91.1278 34.4439 92.3435 34.1076 93.8444 34.1077C95.3448 34.1079 96.5627 34.4451 96.5638 34.8603Z" fill="white"/>
<path d="M157.701 54.6994C157.702 55.1151 156.486 55.4515 154.985 55.4513C153.484 55.4511 152.267 55.114 152.266 54.6988C152.265 54.283 153.48 53.9467 154.981 53.9469C156.482 53.9465 157.699 54.2837 157.701 54.6994Z" fill="white"/>
<path d="M145.742 39.7329C145.649 40.1374 144.388 40.1888 142.925 39.8474C141.463 39.5059 140.353 38.9008 140.447 38.4963C140.541 38.0918 141.801 38.0404 143.264 38.3819C144.726 38.7239 145.836 39.3284 145.742 39.7329Z" fill="white"/>
<path d="M39.9711 53.9265C39.9722 54.3422 38.7565 54.6785 37.2556 54.6784C35.7546 54.6782 34.5373 54.341 34.5362 53.9258C34.5351 53.5101 35.7507 53.1737 37.2516 53.1739C38.7521 53.1735 39.97 53.5107 39.9711 53.9265Z" fill="white"/>
<path d="M59.985 13.2494C64.9574 8.12529 70.4956 3.67518 77.231 1.69445" stroke="#407BFF" stroke-width="0.5" stroke-miterlimit="10"/>
<path d="M78.94 1.21076C79.215 1.14054 79.4899 1.07031 79.7644 1.00009" stroke="#407BFF" stroke-width="0.5" stroke-miterlimit="10"/>
<path d="M129.5 64C106.842 70.3614 84.6576 70.1652 62 64L12.2763 171.132C9.81523 176.434 13.687 182.5 19.5328 182.5H180.5L129.5 64Z" fill="#5D4BB4" fill-opacity="0.2"/>
<path d="M77.4543 178.304C76.6929 178.471 75.9338 178.652 75.1932 178.896C74.6059 179.088 74.0302 179.318 73.473 179.589C72.9994 179.819 72.4051 180.132 71.9408 180.534C71.7087 180.736 70.8915 181.309 71.4022 181.671C71.834 181.975 72.4051 181.529 72.7557 181.295C73.7168 180.65 74.8914 180.213 76.022 179.986C75.7272 180.046 75.3743 180.313 75.1027 180.448C74.7846 180.606 74.4643 180.773 74.1718 180.972C73.8166 181.213 73.0575 181.731 73.09 182.237C73.1178 182.675 73.7841 182.455 74.0185 182.323C75.4184 181.543 79.7062 179.698 80.4235 179.513C81.0665 179.346 81.7235 179.204 82.2319 178.738C82.8285 178.186 82.1901 177.826 81.6423 177.78C80.5396 177.687 79.4276 177.891 78.3504 178.116C78.051 178.176 77.7538 178.239 77.4543 178.304Z" fill="#B5D35B"/>
<path d="M89.0061 178.381C88.2446 178.545 87.4878 178.729 86.745 178.972C86.1576 179.165 85.5819 179.392 85.0248 179.666C84.5512 179.898 83.9546 180.209 83.4926 180.61C83.2604 180.812 82.4433 181.385 82.954 181.747C83.3835 182.051 83.9546 181.606 84.3051 181.371C85.2662 180.726 86.4409 180.29 87.5714 180.063C87.2766 180.121 86.9237 180.39 86.6521 180.525C86.3341 180.685 86.0137 180.849 85.7212 181.049C85.3637 181.29 84.6046 181.81 84.6371 182.313C84.6649 182.75 85.3312 182.532 85.5657 182.399C86.9655 181.622 91.2533 179.775 91.9706 179.589C92.6137 179.425 93.273 179.283 93.779 178.815C94.3757 178.262 93.7372 177.903 93.1871 177.856C92.0844 177.761 90.9724 177.968 89.8975 178.193C89.6004 178.253 89.3032 178.316 89.0061 178.381Z" fill="#B5D35B"/>
<path d="M80.6584 122.135C80.3311 122.135 80.0502 121.891 80.0131 121.557C79.5557 117.482 76.5378 116.213 76.4101 116.162C76.0782 116.028 75.918 115.649 76.0503 115.318C76.1826 114.986 76.5587 114.823 76.8907 114.956C77.0485 115.018 80.7582 116.538 81.3038 121.413C81.3433 121.768 81.0879 122.09 80.7304 122.13C80.7072 122.135 80.6816 122.135 80.6584 122.135Z" fill="#597631"/>
<path d="M77.3144 114.909C77.3144 115.619 76.7363 116.195 76.0283 116.195C75.3179 116.195 74.7422 115.619 74.7422 114.909C74.7422 114.199 75.3179 113.624 76.0283 113.624C76.7387 113.624 77.3144 114.202 77.3144 114.909Z" fill="#64AD5A"/>
<path d="M76.0279 114.724C76.0279 114.995 75.8073 115.213 75.5357 115.213C75.2641 115.213 75.0459 114.993 75.0459 114.724C75.0459 114.452 75.2664 114.232 75.5357 114.232C75.8073 114.232 76.0279 114.452 76.0279 114.724Z" fill="#BAD550"/>
<path d="M90.1431 122.447C90.0805 122.447 90.0155 122.437 89.9528 122.417C89.6092 122.308 89.4188 121.955 89.5256 121.611L89.5349 121.581C89.8088 120.737 90.5749 117.778 88.9592 115.138C88.7711 114.832 88.8686 114.433 89.1728 114.245C89.4792 114.057 89.8785 114.154 90.0665 114.46C91.9748 117.574 91.088 121.004 90.7699 121.983C90.6817 122.261 90.4217 122.447 90.1431 122.447Z" fill="#597631"/>
<path d="M88.9668 115.437C89.677 115.437 90.2529 114.862 90.2529 114.152C90.2529 113.442 89.677 112.866 88.9668 112.866C88.2565 112.866 87.6807 113.442 87.6807 114.152C87.6807 114.862 88.2565 115.437 88.9668 115.437Z" fill="#64AD5A"/>
<path d="M88.9664 113.966C88.9664 114.238 88.7458 114.456 88.4742 114.456C88.2026 114.456 87.9844 114.235 87.9844 113.966C87.9844 113.695 88.2049 113.474 88.4742 113.474C88.7481 113.474 88.9664 113.692 88.9664 113.966Z" fill="#BAD550"/>
<path d="M92.9308 176.292C92.6731 174.835 92.3574 173.417 92.181 171.942C91.8629 169.324 91.914 166.856 92.1926 164.238C92.2831 163.392 92.9145 160.93 91.9906 160.28C91.445 159.897 90.8647 160.12 90.419 160.528C90.0289 160.7 89.6993 161.111 89.5298 161.429C89.4463 161.584 89.3836 161.753 89.3325 161.932C89.3209 161.96 89.3093 161.988 89.3 162.016C89.0121 162.825 88.9704 163.693 88.9239 164.542C88.8264 166.259 88.7707 167.939 88.9146 169.656C89.0214 170.918 89.2373 172.195 89.5461 173.434C89.7805 174.997 90.2007 176.538 90.737 178.018C91.1363 179.118 92.4363 179.415 92.961 178.23C93.2187 177.636 93.0376 176.895 92.9308 176.292Z" fill="#4E8D48"/>
<path d="M92.0393 166.025C92.0788 165.433 92.1275 164.839 92.1926 164.234C92.2831 163.387 92.9145 160.925 91.9906 160.275C91.445 159.892 90.8647 160.115 90.4189 160.524C90.0289 160.695 89.6993 161.106 89.5298 161.424C89.4462 161.579 89.3836 161.749 89.3325 161.927C89.3209 161.955 89.3093 161.983 89.3 162.011C89.0121 162.821 88.9703 163.688 88.9239 164.538C88.8775 165.345 88.8427 166.145 88.8311 166.944C89.9384 166.772 91.0388 166.482 92.0393 166.025Z" fill="#4E8D48"/>
<path d="M81.4446 163.939C81.5537 163.123 81.9785 161.784 81.4028 161.041C80.9872 160.505 80.3767 160.605 79.8985 161.025C78.9281 161.879 78.884 163.58 78.6913 164.77C78.6658 164.935 78.6402 165.099 78.6193 165.264C78.5497 165.547 78.487 165.83 78.4406 166.118C77.9879 168.909 78.169 172.021 78.7052 174.789C78.9327 175.958 79.0952 177.155 79.6965 178.204C80.0006 178.736 80.7644 178.889 81.1474 178.388C81.4794 177.954 81.4585 177.346 81.3935 176.831C81.2194 175.462 80.8851 174.137 80.776 172.749C80.6576 171.264 80.6854 169.77 80.7783 168.283C80.8688 166.8 81.2519 165.399 81.4446 163.939Z" fill="#4E8D48"/>
<path d="M81.0052 166.487C81.1538 165.64 81.3326 164.801 81.4463 163.937C81.5554 163.121 81.9802 161.782 81.4045 161.039C80.989 160.503 80.3784 160.603 79.9002 161.023C78.9298 161.877 78.8857 163.578 78.693 164.768C78.6745 164.886 78.6559 165.007 78.6396 165.128C79.3477 165.736 80.144 166.176 81.0052 166.487Z" fill="#4E8D48"/>
<path d="M80.8538 142.405C79.8555 142.289 79.0616 143.115 78.5091 143.974C77.9589 144.825 77.7291 145.95 77.3878 146.892C76.898 148.25 76.501 149.561 75.8255 150.848C74.7529 152.888 73.2068 154.531 71.9973 156.466C71.6143 157.081 71.3729 157.614 71.6979 158.299C71.9138 158.756 72.5382 158.825 72.9608 158.663C74.4744 158.078 75.6165 156.619 76.6055 155.398C78.0866 153.57 79.2496 151.475 80.2386 149.35C81.1045 147.496 82.0563 145.387 82.2559 143.345C82.3743 142.115 81.6013 142.05 80.8538 142.405Z" fill="#B5D35B"/>
<path d="M80.8546 142.405C80.3207 142.345 79.8448 142.553 79.4316 142.892C79.5221 142.895 79.6126 142.943 79.6266 143.041C79.7821 144.15 79.1971 145.363 78.9115 146.424C78.489 148.001 78.041 149.556 77.4676 151.09C76.936 152.514 76.4624 153.944 76.1351 155.433C76.091 155.637 76.0167 155.906 75.9424 156.206C76.1699 155.934 76.3881 155.663 76.5994 155.401C78.0805 153.572 79.2435 151.477 80.2325 149.352C81.0984 147.498 82.0502 145.389 82.2498 143.347C82.3752 142.115 81.6021 142.05 80.8546 142.405Z" fill="#B5D35B"/>
<path d="M95.3836 154.498C95.17 149.291 91.8642 144.57 90.3994 139.616C89.8237 137.674 88.981 135.393 86.7825 134.85C84.6282 134.319 81.796 135.801 81.0671 137.943C80.3219 140.138 80.814 142.539 80.1408 144.767C79.391 147.252 78.1606 149.561 77.3457 152.025C76.25 155.343 76.178 160.456 79.1286 162.83C82.7826 165.77 89.2456 165.037 92.5073 161.872C93.733 160.681 94.7707 159.231 95.1305 157.538C95.3534 156.505 95.4254 155.491 95.3836 154.498Z" fill="#64AD5A"/>
<path d="M79.2459 161.294C77.8112 159.505 77.0823 156.939 77.3121 154.663C77.47 153.104 77.8252 151.538 78.3313 150.053C78.6145 149.227 78.9116 148.403 79.1252 147.561C78.5147 149.043 77.853 150.505 77.3516 152.025C76.2559 155.343 76.1839 160.457 79.1345 162.83C80.8338 164.199 83.1413 164.77 85.4512 164.673C83.0485 164.35 80.7711 163.195 79.2459 161.294Z" fill="#64AD5A"/>
<path opacity="0.5" d="M95.3848 154.498C95.1712 149.291 91.8655 144.57 90.4006 139.616C89.8249 137.674 88.9822 135.393 86.7837 134.85C84.6294 134.319 81.7972 135.801 81.0683 137.943C80.3231 140.138 80.8152 142.539 80.142 144.767C80.0863 144.953 80.0236 145.136 79.9609 145.321C80.8524 144.115 82.0549 143.215 83.8006 142.911C85.3769 142.637 87.2179 142.925 88.4274 144.045C89.5579 145.089 90.1592 146.505 90.6165 147.95C91.8167 151.739 93.8155 156.152 92.3878 160.15C91.9212 161.456 90.8533 162.695 89.8527 163.642C90.8556 163.187 91.7656 162.596 92.5085 161.874C93.7342 160.684 94.7719 159.234 95.1318 157.54C95.3546 156.505 95.4266 155.491 95.3848 154.498Z" fill="#64AD5A"/>
<path d="M91.5557 121.579C89.673 120.045 87.0614 119.205 84.6354 119.442C83.6349 119.541 82.5066 119.829 81.5734 120.203C80.4011 120.669 79.4446 121.604 78.7435 122.63C78.0564 123.634 77.8219 124.825 77.6455 126.006C77.3599 127.922 76.9885 129.509 75.591 130.945C73.9752 132.604 71.4727 134.229 71.8557 136.925C72.262 139.772 74.6415 141.201 77.2508 141.709C82.9175 142.816 90.0746 141.477 93.536 136.484C96.6467 132.001 95.8435 125.068 91.5557 121.579Z" fill="#64AD5A"/>
<path d="M72.0802 137.222C71.7946 135.611 72.7488 134.359 73.9257 133.389C74.7963 132.674 75.8572 131.966 76.3888 130.943C76.9065 129.948 77.1665 128.843 77.3406 127.741C77.3546 127.658 77.3662 127.574 77.3801 127.493C77.0876 128.769 76.6163 129.899 75.5949 130.948C73.9791 132.607 71.4766 134.231 71.8596 136.927C71.9873 137.825 72.3146 138.584 72.7813 139.215C72.4586 138.588 72.2032 137.929 72.0802 137.222Z" fill="#B5D35B"/>
<path d="M91.5549 121.579C89.6722 120.045 87.0606 119.205 84.6346 119.442C83.6341 119.541 82.5058 119.829 81.5726 120.203C80.4002 120.669 79.4438 121.604 78.7427 122.63C78.6359 122.785 78.5431 122.948 78.4549 123.112C78.8727 122.609 79.3463 122.154 79.8942 121.773C81.7188 120.504 83.973 119.998 86.1645 120.425C90.2642 121.224 93.4005 124.446 93.5003 128.711C93.5932 132.658 92.1632 136.396 88.999 138.716C86.8539 140.287 84.7135 141.44 81.092 141.811C78.81 142.043 76.6487 141.24 74.4619 140.693C75.2953 141.185 76.2564 141.514 77.2523 141.709C82.919 142.816 90.0761 141.477 93.5375 136.484C96.6459 132.001 95.8427 125.068 91.5549 121.579Z" fill="#64AD5A"/>
<path opacity="0.5" d="M85.9995 131.755C85.9995 131.755 84.2282 130.446 85.9624 127.04C87.6965 123.634 91.9913 123.286 91.4805 127.778C90.9698 132.27 87.1765 132.613 85.9995 131.755Z" fill="#7EB05F"/>
<path d="M86.0796 131.409C86.0796 131.409 84.3014 130.14 85.9984 126.894C87.6954 123.648 91.9762 123.356 91.5095 127.653C91.0452 131.95 87.2636 132.244 86.0796 131.409Z" fill="#00233D"/>
<path d="M86.4937 130.018C86.4937 130.018 85.3051 129.168 86.4403 127.001C87.5755 124.832 90.4332 124.637 90.1221 127.509C89.811 130.377 87.283 130.574 86.4937 130.018Z" fill="#0D5076"/>
<path d="M87.1684 127.006C87.1684 127.006 86.9223 126.776 87.2427 126.314C87.5631 125.85 88.2224 125.89 88.0691 126.537C87.9159 127.182 87.3332 127.154 87.1684 127.006Z" fill="#007B96"/>
<path opacity="0.5" d="M82.7383 131.351C82.7383 131.351 84.2937 130.201 82.7684 127.205C81.2432 124.21 77.4685 123.903 77.9166 127.853C78.3646 131.804 81.7029 132.108 82.7383 131.351Z" fill="#7EB05F"/>
<path d="M82.6697 131.05C82.6697 131.05 84.2344 129.933 82.7394 127.077C81.2467 124.223 77.4836 123.966 77.8921 127.745C78.3007 131.525 81.6297 131.783 82.6697 131.05Z" fill="#00233D"/>
<path d="M81.518 130.078C81.518 130.078 82.5627 129.33 81.5668 127.423C80.5686 125.516 78.0544 125.344 78.3283 127.869C78.6 130.393 80.8216 130.567 81.518 130.078Z" fill="#0D5076"/>
<path d="M79.4187 127.653C79.4187 127.653 79.6369 127.453 79.3537 127.045C79.0704 126.639 78.4901 126.671 78.627 127.24C78.7617 127.81 79.2724 127.785 79.4187 127.653Z" fill="#007B96"/>
<path d="M77.6137 136.207C77.6137 136.207 76.973 135.038 76.7827 135.49C76.5946 135.943 77.8018 136.773 77.6137 136.207Z" fill="#1B4633"/>
<path d="M78.1063 136.207C78.1063 136.207 78.7471 135.038 78.9374 135.49C79.1255 135.943 77.916 136.773 78.1063 136.207Z" fill="#1B4633"/>
<path d="M90.0527 141.728C89.7417 142.215 89.737 143.045 90.0992 143.783C91.0719 145.765 92.6412 147.361 93.7648 149.247C94.8094 150.997 95.5871 152.948 96.33 154.839C96.597 155.519 96.9034 156.215 97.0659 156.93C97.2214 157.617 97.5697 159.357 98.7002 158.944C98.749 158.925 98.7884 158.904 98.8349 158.883C99.0392 158.7 99.1993 158.468 99.262 158.266C99.8052 156.524 98.7025 153.948 98.1199 152.373C96.9638 149.257 95.4246 146.268 93.5303 143.535C93.0637 142.858 92.5321 142.229 91.8658 141.737C90.9906 141.096 90.3661 141.24 90.0527 141.728Z" fill="#B5D35B"/>
<path d="M90.0527 141.728C89.7417 142.215 89.737 143.045 90.0992 143.783C91.0719 145.765 92.6412 147.361 93.7648 149.247C94.8094 150.997 95.5871 152.948 96.33 154.839C96.597 155.519 96.9034 156.215 97.0659 156.93C97.2214 157.617 97.5697 159.357 98.7002 158.944C98.749 158.925 98.7884 158.904 98.8349 158.883C99.0392 158.7 99.1993 158.468 99.262 158.266C99.8052 156.524 98.7025 153.948 98.1199 152.373C96.9638 149.257 95.4246 146.268 93.5303 143.535C93.0637 142.858 92.5321 142.229 91.8658 141.737C90.9906 141.096 90.3661 141.24 90.0527 141.728Z" fill="#B5D35B"/>
<path d="M90.2546 141.648C91.5569 141.467 92.7432 143.727 93.3352 144.572C95.3339 147.424 97.0333 150.41 98.5469 153.514C98.396 153.103 98.2474 152.718 98.122 152.38C96.9659 149.263 95.4268 146.275 93.5325 143.542C93.0659 142.864 92.5342 142.235 91.868 141.744C91.0114 141.115 90.3985 141.233 90.0781 141.693C90.1338 141.672 90.1919 141.658 90.2546 141.648Z" fill="#B5D35B"/>
<path d="M101.751 159.842C101.721 159.765 101.691 159.689 101.665 159.617C101.285 158.547 100.837 157.06 99.6063 156.691C99.3208 156.605 98.9099 156.582 98.6243 156.684C97.3383 157.134 97.2059 158.589 97.0132 159.744C96.9366 160.211 96.8368 160.703 96.8229 161.178C96.8159 161.468 96.867 161.756 97.0272 162C97.3638 162.517 97.8977 162.194 97.9465 161.686C97.9999 161.169 97.77 160.607 97.9999 160.106C98.1856 159.703 98.571 159.881 98.8124 160.139C99.2628 160.624 99.1583 161.406 99.2628 162.009C99.3486 162.51 99.9081 162.856 100.256 162.35C100.553 161.923 100.405 161.234 100.291 160.765C100.212 160.445 100.033 160.148 99.9871 159.823C99.9429 159.524 100.14 159.095 100.442 159.468C100.681 159.761 100.776 160.132 100.851 160.496C100.916 160.798 100.92 161.201 101.132 161.447C101.361 161.717 101.77 161.519 101.9 161.266C102.125 160.819 101.925 160.294 101.751 159.842Z" fill="#B5D35B"/>
<path d="M68.8989 157.71C68.9685 157.666 69.0381 157.624 69.1031 157.582C70.0503 156.958 71.3062 156.044 72.5111 156.491C72.7897 156.596 73.1309 156.823 73.2981 157.074C74.0525 158.208 73.2795 159.447 72.7339 160.487C72.5134 160.907 72.2975 161.359 72.0212 161.745C71.8541 161.979 71.6382 162.178 71.3619 162.276C70.7816 162.485 70.5494 161.907 70.8164 161.471C71.088 161.028 71.6103 160.719 71.7287 160.178C71.8239 159.744 71.4084 159.654 71.0602 159.714C70.4078 159.828 70.0201 160.515 69.5721 160.932C69.2007 161.28 68.546 161.218 68.5715 160.605C68.5924 160.086 69.1264 159.626 69.5024 159.322C69.7578 159.116 70.0805 158.986 70.315 158.754C70.5309 158.54 70.633 158.081 70.1664 158.195C69.7996 158.285 69.5001 158.524 69.2192 158.768C68.9871 158.969 68.7364 159.29 68.423 159.357C68.0771 159.434 67.8704 159.03 67.9192 158.751C68.0121 158.262 68.488 157.965 68.8989 157.71Z" fill="#B5D35B"/>
<path d="M92.5505 159.027C92.2789 158.829 91.8587 158.802 91.5639 158.955C91.1947 159.145 91.0021 159.535 90.9649 159.941C90.8442 160.231 90.7606 160.635 90.958 160.871C91.1855 161.147 91.5708 161.027 91.8378 160.878C92.2092 160.674 92.5273 160.326 92.6875 159.932C92.8151 159.625 92.8546 159.247 92.5505 159.027Z" fill="#B5D35B"/>
<path d="M93.7191 157.736C93.6704 157.683 93.61 157.641 93.5473 157.602C93.3686 157.49 93.1364 157.6 92.9902 157.709C92.823 157.832 92.7116 158.057 92.7766 158.263C92.8393 158.465 93.0436 158.507 93.227 158.491C93.3616 158.477 93.487 158.414 93.5914 158.326C93.6634 158.275 93.7284 158.207 93.7679 158.131C93.7795 158.115 93.7911 158.096 93.8027 158.078C93.8677 157.968 93.8747 157.757 93.7191 157.736Z" fill="#B5D35B"/>
<path d="M92.1938 156.532C91.8595 156.303 91.4114 156.648 91.2559 156.938C91.1909 157.059 91.163 157.194 91.1677 157.324C91.1537 157.435 91.1584 157.544 91.1886 157.639C91.2582 157.862 91.4903 158.003 91.7155 158.015C92.08 158.031 92.4445 157.723 92.5443 157.379C92.6511 157.024 92.4816 156.73 92.1938 156.532Z" fill="#B5D35B"/>
<path d="M94.105 158.86C94.0771 158.848 94.0493 158.848 94.0191 158.855C93.9796 158.788 93.8194 158.841 93.773 158.911C93.715 158.994 93.6337 159.143 93.7521 159.219C93.8984 159.312 94.0609 159.15 94.1328 159.041C94.1653 158.983 94.1723 158.89 94.105 158.86Z" fill="#B5D35B"/>
<path d="M90.0011 160.723C89.7481 160.33 89.2513 160.604 88.982 160.815C88.708 161.034 88.4457 161.549 88.6454 161.878C88.708 161.98 88.8102 162.02 88.9193 162.029C88.9216 162.031 88.9239 162.034 88.9263 162.036C89.2606 162.266 89.7156 161.945 89.9222 161.692C90.1474 161.423 90.1938 161.017 90.0011 160.723Z" fill="#B5D35B"/>
<path d="M88.138 159.869C88.0683 159.862 88.008 159.874 87.943 159.901C87.9012 159.918 87.864 159.943 87.8292 159.971C87.7921 159.976 87.7526 159.985 87.7131 160.01C87.611 160.073 87.4415 160.307 87.5622 160.426C87.7897 160.653 88.203 160.31 88.261 160.08C88.2842 159.98 88.254 159.883 88.138 159.869Z" fill="#B5D35B"/>
<path d="M87.7364 163.062C87.6806 162.841 87.4438 162.86 87.2837 162.964C87.2024 163.017 87.0608 163.15 87.0562 163.273C87.019 163.321 86.9935 163.375 86.9888 163.414C86.9703 163.551 87.0562 163.679 87.1955 163.7C87.3696 163.725 87.5181 163.621 87.6319 163.5C87.741 163.382 87.7758 163.21 87.7364 163.062Z" fill="#B5D35B"/>
<path d="M92.7724 149.884C92.4845 150.055 92.2941 150.431 92.3197 150.763C92.3499 151.178 92.6331 151.508 92.9929 151.7C93.2134 151.925 93.5524 152.16 93.8472 152.072C94.1908 151.972 94.2302 151.568 94.2001 151.264C94.1583 150.844 93.961 150.415 93.6615 150.113C93.427 149.877 93.0927 149.691 92.7724 149.884Z" fill="#B5D35B"/>
<path d="M92.0415 148.306C91.9742 148.329 91.9091 148.366 91.8488 148.41C91.677 148.531 91.6863 148.786 91.7304 148.965C91.7792 149.167 91.944 149.357 92.1576 149.378C92.3688 149.399 92.4872 149.227 92.5429 149.053C92.5824 148.925 92.5731 148.784 92.5336 148.654C92.5151 148.568 92.4779 148.482 92.4222 148.415C92.4106 148.396 92.399 148.378 92.3851 148.361C92.3154 148.262 92.1227 148.169 92.0415 148.306Z" fill="#B5D35B"/>
<path d="M90.3347 149.236C89.9888 149.454 90.1351 150.002 90.3393 150.257C90.4252 150.366 90.5367 150.442 90.6597 150.489C90.7549 150.544 90.8594 150.584 90.9569 150.593C91.189 150.616 91.4119 150.459 91.5094 150.257C91.6696 149.927 91.5256 149.473 91.2517 149.245C90.9685 149.008 90.6295 149.048 90.3347 149.236Z" fill="#B5D35B"/>
<path d="M93.2252 148.389C93.202 148.41 93.1927 148.438 93.1858 148.468C93.1069 148.478 93.0952 148.645 93.137 148.717C93.1927 148.805 93.2995 148.935 93.4156 148.856C93.5572 148.758 93.4713 148.545 93.397 148.438C93.3622 148.385 93.281 148.341 93.2252 148.389Z" fill="#B5D35B"/>
<path d="M93.3342 152.892C92.8746 152.971 92.9303 153.535 93.0208 153.865C93.1137 154.201 93.4851 154.644 93.8659 154.589C93.9843 154.572 94.0609 154.493 94.1119 154.396C94.1143 154.394 94.1166 154.394 94.1189 154.391C94.4602 154.173 94.3441 153.63 94.1932 153.34C94.0353 153.034 93.6801 152.832 93.3342 152.892Z" fill="#B5D35B"/>
<path d="M91.8183 154.273C91.7835 154.334 91.7719 154.394 91.7695 154.466C91.7695 154.51 91.7765 154.556 91.7881 154.6C91.7765 154.635 91.7719 154.675 91.7788 154.721C91.7974 154.839 91.9483 155.085 92.1038 155.023C92.401 154.902 92.2478 154.387 92.0574 154.245C91.9761 154.18 91.874 154.173 91.8183 154.273Z" fill="#B5D35B"/>
<path d="M94.5958 155.893C94.3706 155.858 94.294 156.083 94.3265 156.271C94.3427 156.366 94.4124 156.547 94.5238 156.6C94.554 156.651 94.5934 156.698 94.6259 156.716C94.7443 156.786 94.8952 156.758 94.9695 156.638C95.0601 156.487 95.0229 156.308 94.9556 156.157C94.8952 156.016 94.7467 155.916 94.5958 155.893Z" fill="#B5D35B"/>
<path d="M124.625 175.125C123.79 175.347 122.961 175.588 122.151 175.897C121.51 176.14 120.882 176.421 120.282 176.751C119.77 177.032 119.127 177.406 118.635 177.873C118.387 178.107 117.512 178.784 118.095 179.16C118.586 179.475 119.199 178.953 119.573 178.674C120.605 177.909 121.883 177.37 123.124 177.059C122.8 177.139 122.422 177.452 122.128 177.615C121.783 177.805 121.441 178.006 121.124 178.243C120.741 178.528 119.927 179.141 119.988 179.697C120.041 180.181 120.768 179.902 121.022 179.745C122.855 178.615 124.854 177.691 126.81 176.799C127.658 176.412 128.639 176.302 129.43 175.793C130.218 175.288 130.438 174.375 129.235 174.328C128.009 174.28 126.789 174.563 125.609 174.867C125.279 174.954 124.951 175.039 124.625 175.125Z" fill="#ED7E3B"/>
<path d="M122.874 177.121C123.09 177.047 123.348 176.816 122.95 176.897C122.221 177.042 121.453 177.402 120.776 177.708C120.184 177.977 119.679 178.399 119.091 178.664C118.81 178.79 118.408 178.97 118.106 178.811C118.019 178.765 117.977 178.695 117.96 178.609C117.858 178.807 117.856 179.008 118.091 179.16C118.582 179.475 119.195 178.953 119.569 178.674C120.512 177.977 121.658 177.467 122.798 177.148C122.826 177.14 122.849 177.129 122.874 177.121Z" fill="#ED7E3B"/>
<path d="M129.233 174.33C128.007 174.282 126.787 174.565 125.607 174.869C125.279 174.954 124.951 175.038 124.626 175.125C123.79 175.347 122.961 175.588 122.152 175.897C122.023 175.945 121.896 175.998 121.767 176.049C122.433 175.856 123.118 175.662 123.795 175.59C124.442 175.522 126.025 175.765 125.216 176.71C124.894 177.084 124.406 177.334 123.981 177.568C123.325 177.93 122.767 178.424 122.168 178.872C121.754 179.183 120.961 179.764 120.231 179.959C120.483 180.003 120.853 179.849 121.02 179.745C122.854 178.614 124.852 177.691 126.808 176.799C127.656 176.412 128.637 176.302 129.428 175.793C130.217 175.292 130.437 174.379 129.233 174.33Z" fill="#ED7E3B"/>
<path d="M128.938 165.847C128.435 165.256 128.05 165.129 127.293 165.262C126.824 165.344 126.299 165.575 126.016 165.978C124.576 168.039 127.149 174.83 127.634 175.248C128.166 175.709 129.033 175.466 129.215 174.775C129.359 174.227 129.107 173.492 129.036 172.955C128.896 171.934 128.974 170.899 129.139 169.888C129.355 168.551 129.941 167.025 128.938 165.847Z" fill="#00BBC4"/>
<path d="M128.94 165.847C128.437 165.256 128.052 165.129 127.295 165.262C126.826 165.344 126.301 165.575 126.018 165.978C125.481 166.748 125.504 168.172 125.766 169.681C125.804 169.616 125.842 169.55 125.889 169.489C126.447 168.751 127.676 168.58 128.198 169.466C128.587 170.121 128.426 170.878 128.464 171.605C128.496 172.173 128.598 172.695 128.79 173.232C128.906 173.557 129.05 173.906 129.084 174.255C129.116 174.576 129.063 174.961 128.923 175.248C129.061 175.13 129.166 174.971 129.219 174.777C129.363 174.23 129.111 173.494 129.04 172.957C128.9 171.936 128.978 170.901 129.143 169.891C129.357 168.551 129.942 167.025 128.94 165.847Z" fill="#00BBC4"/>
<path d="M126.69 171.85C126.463 171.11 126.353 170.335 126.123 169.601C126.117 169.582 126.085 169.61 126.087 169.624C126.411 171.117 126.55 172.816 127.349 174.162C127.366 174.19 127.402 174.145 127.396 174.124C127.165 173.363 126.922 172.609 126.69 171.85Z" fill="#00BBC4"/>
<path d="M140.403 172.789C139.185 172.822 137.935 172.888 136.768 173.273C135.624 173.651 136.089 174.467 136.986 174.735C137.884 175.004 138.859 174.841 139.781 174.978C141.909 175.293 144.084 175.631 146.159 176.213C146.446 176.293 147.223 176.36 147.14 175.881C147.045 175.329 146.093 174.966 145.647 174.796C145.277 174.657 144.892 174.56 144.507 174.471C144.18 174.395 143.729 174.198 143.397 174.211C144.674 174.165 146.053 174.334 147.254 174.782C147.694 174.944 148.424 175.278 148.809 174.841C149.265 174.319 148.238 173.911 147.935 173.752C147.333 173.438 146.611 173.256 146.04 173.129C145.37 172.979 144.691 172.882 144.008 172.825C143.146 172.753 142.281 172.751 141.418 172.768C141.077 172.77 140.741 172.78 140.403 172.789Z" fill="#ED7E3B"/>
<path d="M143.648 174.196C143.42 174.183 143.111 174.033 143.513 174.002C144.257 173.94 145.093 174.073 145.826 174.181C146.469 174.276 147.072 174.543 147.708 174.634C148.013 174.678 148.451 174.739 148.696 174.502C148.766 174.435 148.787 174.355 148.781 174.268C148.933 174.431 148.99 174.623 148.806 174.834C148.421 175.274 147.689 174.94 147.252 174.775C146.152 174.365 144.909 174.192 143.727 174.2C143.703 174.2 143.676 174.198 143.648 174.196Z" fill="#ED7E3B"/>
<path d="M136.768 173.272C137.933 172.888 139.185 172.822 140.403 172.788C140.741 172.78 141.08 172.769 141.418 172.763C142.283 172.746 143.146 172.748 144.009 172.82C144.146 172.833 144.281 172.845 144.419 172.86C143.725 172.858 143.013 172.862 142.342 172.981C141.701 173.095 140.244 173.767 141.285 174.449C141.697 174.72 142.234 174.826 142.71 174.933C143.442 175.1 144.114 175.422 144.812 175.686C145.296 175.87 146.218 176.21 146.973 176.195C146.745 176.305 146.347 176.261 146.157 176.208C144.083 175.629 141.907 175.291 139.779 174.974C138.857 174.836 137.885 175.001 136.984 174.731C136.089 174.466 135.624 173.651 136.768 173.272Z" fill="#ED7E3B"/>
<path d="M135.628 168.973C136.066 169.901 136.425 170.873 136.575 171.892C136.654 172.429 136.615 173.207 136.905 173.693C137.269 174.306 138.17 174.301 138.555 173.71C138.903 173.173 139.5 165.938 137.548 164.353C137.165 164.045 136.596 163.966 136.123 164.017C135.359 164.098 135.025 164.326 134.704 165.034C134.067 166.443 135.051 167.748 135.628 168.973Z" fill="#00BBC4"/>
<path d="M134.704 165.036C135.025 164.328 135.359 164.099 136.123 164.019C136.596 163.968 137.165 164.044 137.548 164.355C138.275 164.945 138.65 166.323 138.813 167.845C138.76 167.79 138.705 167.739 138.643 167.692C137.903 167.139 136.675 167.312 136.417 168.307C136.226 169.045 136.588 169.728 136.751 170.436C136.88 170.989 136.924 171.52 136.888 172.09C136.867 172.435 136.825 172.811 136.888 173.156C136.947 173.475 137.104 173.828 137.318 174.067C137.153 173.991 137.007 173.87 136.903 173.695C136.613 173.209 136.651 172.431 136.573 171.894C136.425 170.875 136.064 169.901 135.626 168.975C135.051 167.747 134.067 166.443 134.704 165.036Z" fill="#00BBC4"/>
<path d="M138.525 170.184C138.538 169.411 138.428 168.635 138.449 167.866C138.449 167.847 138.489 167.864 138.489 167.879C138.591 169.402 138.927 171.074 138.529 172.587C138.521 172.617 138.472 172.585 138.472 172.562C138.489 171.77 138.512 170.977 138.525 170.184Z" fill="#00BBC4"/>
<path d="M147.044 145.163C146.772 143.963 144.951 143.897 144.021 144.026C142.642 144.217 141.51 145.066 140.667 146.133C139.576 147.511 139.231 149.388 137.558 150.242C136.736 150.663 135.207 150.99 134.143 150.629C133.329 150.536 132.762 151.417 133.206 152.142C133.219 152.163 133.232 152.184 133.247 152.203C134.279 153.218 136.311 153.165 137.573 152.861C139.438 152.408 140.83 150.828 141.663 149.185C142.229 148.072 142.709 146.926 143.629 146.049C144.181 145.523 144.902 145.269 145.655 145.309C146.015 145.328 146.359 145.455 146.719 145.417C146.839 145.406 147.082 145.328 147.044 145.163Z" fill="#E95537"/>
<path d="M147.045 145.163C146.994 144.935 146.884 144.749 146.738 144.597C146.729 144.607 146.721 144.618 146.713 144.629C146.258 145.106 145.296 144.791 144.714 144.84C142.572 145.02 141.616 146.658 140.658 148.35C139.939 149.623 139.102 150.971 137.556 151.267C137.034 151.366 135.731 151.242 135.522 150.773C135.038 150.806 134.554 150.77 134.141 150.629C133.327 150.536 132.76 151.417 133.204 152.142C133.217 152.163 133.23 152.184 133.245 152.203C134.277 153.218 136.309 153.165 137.571 152.861C139.436 152.408 140.828 150.827 141.661 149.185C142.227 148.071 142.707 146.926 143.627 146.049C144.179 145.523 144.9 145.269 145.653 145.309C146.013 145.328 146.357 145.455 146.717 145.417C146.839 145.406 147.083 145.328 147.045 145.163Z" fill="#ED7E3B"/>
<path d="M145.472 144.293C143.797 143.98 142.315 144.8 141.187 145.964C139.739 147.459 139.356 149.714 137.421 150.749C137.385 150.768 137.432 150.792 137.457 150.781C138.935 150.174 139.549 148.94 140.301 147.632C141.369 145.776 143.131 144.062 145.45 144.331C145.474 144.333 145.51 144.299 145.472 144.293Z" fill="#ED7E3B"/>
<path d="M127.71 154.153C127.769 154.056 127.835 153.95 127.9 153.838C127.924 153.479 127.896 153.12 127.725 152.805C127.435 152.272 126.964 151.993 126.471 152.059C125.418 153.094 124.213 153.934 122.741 154.306C120.531 154.861 119.051 153.044 117.562 151.74C116.344 150.672 114.999 149.861 113.327 150.055C112.487 150.155 111.664 150.402 110.956 150.865C110.415 151.22 109.725 151.837 109.516 152.463C109.491 152.541 109.52 152.794 109.656 152.767C110.749 152.528 111.468 151.678 112.65 151.697C113.982 151.719 115.289 152.678 116.179 153.587C117.826 155.269 119.609 157.074 122.125 157.121C124.158 157.161 126.642 155.897 127.71 154.153Z" fill="#E95537"/>
<path d="M127.723 152.805C127.433 152.272 126.962 151.993 126.469 152.059C125.416 153.094 124.211 153.934 122.739 154.306C120.529 154.861 119.049 153.044 117.56 151.74C116.342 150.672 114.997 149.861 113.325 150.055C112.582 150.142 111.857 150.345 111.21 150.71C111.263 150.694 111.311 150.679 111.362 150.664C112.379 150.36 113.479 150.163 114.513 150.516C116.014 151.03 116.991 152.296 118.019 153.431C118.622 154.094 119.3 154.853 120.174 155.151C120.901 155.398 121.669 155.411 122.424 155.506C122.519 155.517 122.548 155.622 122.504 155.694C122.197 156.187 121.806 156.647 121.377 157.053C121.618 157.093 121.868 157.116 122.123 157.121C124.158 157.159 126.64 155.895 127.708 154.153C127.767 154.056 127.833 153.95 127.898 153.838C127.924 153.479 127.894 153.12 127.723 152.805Z" fill="#ED7E3B"/>
<path d="M121.114 156.534C117.646 155.606 115.935 150.324 111.78 151.453C111.759 151.457 111.74 151.506 111.773 151.497C113.729 151.087 115.51 152.315 116.762 153.708C117.973 155.054 119.276 156.164 121.078 156.591C121.105 156.599 121.143 156.542 121.114 156.534Z" fill="#ED7E3B"/>
<path d="M142.292 160.232C142.199 159.696 142.034 159.176 141.795 158.709C140.879 156.912 139.203 155.663 137.672 154.422C134.802 152.095 132.241 149.8 131.833 145.905C131.757 145.191 131.609 144.567 131.142 144.009C130.294 142.995 128.583 142.969 127.401 143.204C126.136 143.456 125.362 144.257 125.381 145.573C125.4 147.04 126.441 148.15 126.301 149.707C126.048 152.565 123.958 154.993 122.294 157.178C120.304 159.795 118.145 162.988 119.957 166.3C121.224 168.615 123.815 168.743 126.158 168.646C130.856 168.45 137.327 168.226 140.905 164.544C142.121 163.299 142.584 161.915 142.292 160.232Z" fill="#00BBC4"/>
<path opacity="0.5" d="M142.292 160.232C142.199 159.696 142.034 159.176 141.795 158.709C140.879 156.912 139.203 155.663 137.672 154.422C134.802 152.095 132.241 149.8 131.833 145.905C131.757 145.191 131.609 144.567 131.142 144.009C130.294 142.995 128.583 142.969 127.401 143.204C126.136 143.456 125.362 144.257 125.381 145.573C125.4 147.04 126.441 148.15 126.301 149.707C126.048 152.565 123.958 154.993 122.294 157.178C120.304 159.795 118.145 162.988 119.957 166.3C121.224 168.615 123.815 168.743 126.158 168.646C130.856 168.45 137.327 168.226 140.905 164.544C142.121 163.299 142.584 161.915 142.292 160.232ZM134.608 164.295C133.341 166.311 130.674 167.025 128.45 167.321C126.337 167.602 123.628 167.636 121.907 166.165C118.97 163.654 120.953 159.996 122.757 157.508C124.119 155.629 125.959 153.036 128.513 152.897C131.666 152.723 133.732 156.096 134.618 158.66C135.221 160.406 135.661 162.619 134.608 164.295Z" fill="#00BBC4"/>
<path d="M140.798 138.626C140.918 138.69 141.062 138.707 141.202 138.662C143.2 138.013 144.777 136.489 145.765 134.256C146.497 132.596 146.647 131.14 146.653 131.079C146.681 130.796 146.473 130.542 146.188 130.515C145.904 130.487 145.651 130.694 145.621 130.978C145.615 131.049 145.027 136.331 140.878 137.679C140.607 137.768 140.457 138.06 140.546 138.332C140.595 138.461 140.686 138.565 140.798 138.626Z" fill="#F0983E"/>
<path d="M146.349 130.635C146.299 130.608 146.241 130.591 146.184 130.584C145.939 130.561 145.721 130.739 145.698 130.982C145.692 131.037 145.091 136.386 140.904 137.745C140.672 137.821 140.545 138.072 140.619 138.305C140.693 138.531 140.953 138.662 141.179 138.59C143.158 137.946 144.721 136.437 145.698 134.222C146.428 132.571 146.576 131.127 146.58 131.068C146.601 130.891 146.508 130.72 146.349 130.635Z" fill="#EA602E"/>
<path d="M140.798 138.626C140.918 138.69 141.062 138.707 141.202 138.662C143.2 138.013 144.777 136.489 145.765 134.256C146.497 132.596 146.647 131.14 146.653 131.079C146.681 130.796 146.473 130.542 146.188 130.515C145.904 130.487 145.651 130.694 145.621 130.978C145.615 131.049 145.027 136.331 140.878 137.679C140.607 137.768 140.457 138.06 140.546 138.332C140.595 138.461 140.686 138.565 140.798 138.626Z" fill="#ED7E3B"/>
<path d="M145.271 132.592C145.592 132.723 145.93 132.808 146.275 132.867C146.575 131.857 146.651 131.121 146.656 131.079C146.683 130.796 146.476 130.542 146.19 130.515C145.907 130.487 145.653 130.694 145.624 130.978C145.624 131.001 145.548 131.673 145.271 132.592Z" fill="#ED7E3B"/>
<path d="M143.51 135.919C142.853 136.671 141.996 137.316 140.882 137.677C140.611 137.766 140.461 138.058 140.55 138.33C140.594 138.463 140.685 138.565 140.797 138.626C140.918 138.689 141.062 138.706 141.201 138.662C142.233 138.326 143.153 137.755 143.938 136.975C143.828 136.608 143.699 136.248 143.51 135.919Z" fill="#ED7E3B"/>
<path d="M144.206 128.387C143.559 129.596 144.017 131.1 145.227 131.747C146.437 132.394 147.942 131.935 148.589 130.726C149.234 129.515 148.777 128.013 147.568 127.366C146.356 126.719 144.851 127.178 144.206 128.387Z" fill="#F0983E"/>
<path d="M145.192 131.811C143.949 131.147 143.475 129.596 144.139 128.353C144.803 127.11 146.355 126.637 147.601 127.3C148.844 127.964 149.318 129.515 148.654 130.758C147.988 132.003 146.436 132.476 145.192 131.811ZM147.531 127.431C146.358 126.806 144.894 127.25 144.268 128.423C143.642 129.596 144.087 131.058 145.26 131.684C146.434 132.309 147.897 131.865 148.523 130.693C149.149 129.517 148.705 128.057 147.531 127.431Z" fill="#EA602E"/>
<path d="M144.64 128.638C144.124 129.604 144.49 130.804 145.457 131.322C146.423 131.838 147.624 131.472 148.142 130.506C148.658 129.54 148.292 128.34 147.326 127.822C146.357 127.307 145.156 127.67 144.64 128.638Z" fill="white"/>
<path d="M145.42 131.386C144.42 130.853 144.039 129.604 144.574 128.602C145.109 127.602 146.357 127.222 147.359 127.757C148.36 128.291 148.74 129.54 148.205 130.54C147.67 131.54 146.423 131.918 145.42 131.386ZM147.29 127.886C146.359 127.391 145.2 127.742 144.703 128.672C144.206 129.6 144.56 130.76 145.49 131.257C146.418 131.751 147.579 131.4 148.074 130.47C148.571 129.54 148.218 128.382 147.29 127.886Z" fill="#EA602E"/>
<path d="M147.381 130.119C147.085 130.673 146.396 130.885 145.842 130.589C145.288 130.293 145.076 129.604 145.372 129.05C145.668 128.494 146.358 128.285 146.914 128.581C147.468 128.875 147.677 129.566 147.381 130.119Z" fill="#5D1C00"/>
<path d="M147.171 129.967C146.942 130.397 146.407 130.557 145.98 130.329C145.551 130.101 145.39 129.568 145.618 129.139C145.847 128.71 146.38 128.549 146.809 128.778C147.238 129.006 147.399 129.538 147.171 129.967Z" fill="#833723"/>
<path d="M146.957 129.853C146.792 130.164 146.405 130.282 146.094 130.115C145.783 129.948 145.665 129.564 145.832 129.253C145.997 128.94 146.384 128.824 146.694 128.991C147.005 129.156 147.124 129.543 146.957 129.853Z" fill="#2C0000"/>
<path d="M146.655 129.194C146.554 129.382 146.319 129.454 146.131 129.352C145.94 129.251 145.871 129.016 145.97 128.828C146.071 128.64 146.306 128.568 146.494 128.667C146.685 128.771 146.757 129.006 146.655 129.194Z" fill="white"/>
<path d="M144.64 128.638C144.124 129.604 144.49 130.804 145.457 131.322C146.423 131.838 147.624 131.472 148.142 130.506C148.658 129.54 148.292 128.34 147.326 127.822C146.357 127.306 145.156 127.67 144.64 128.638ZM145.55 128.219C146.104 127.613 147.097 127.906 147.62 128.393C148.087 128.826 148.22 129.566 147.918 130.151C147.533 130.895 146.41 130.711 145.892 130.263C145.332 129.781 145.004 128.815 145.55 128.219Z" fill="#CBCCCE"/>
<path d="M115.443 142.193C115.346 142.288 115.213 142.345 115.065 142.339C112.963 142.267 111.026 141.238 109.461 139.363C108.3 137.972 107.752 136.613 107.729 136.556C107.623 136.29 107.754 135.99 108.019 135.884C108.285 135.779 108.585 135.908 108.691 136.174C108.719 136.239 110.742 141.155 115.103 141.305C115.388 141.316 115.61 141.555 115.602 141.84C115.597 141.98 115.536 142.104 115.443 142.193Z" fill="#F0983E"/>
<path d="M107.798 136.529C107.819 136.586 108.361 137.933 109.517 139.317C111.069 141.175 112.987 142.193 115.068 142.267C115.305 142.276 115.519 142.077 115.527 141.838C115.535 141.593 115.343 141.388 115.098 141.38C110.697 141.228 108.644 136.252 108.623 136.202C108.532 135.976 108.274 135.864 108.045 135.954C107.991 135.976 107.942 136.007 107.9 136.047C107.771 136.172 107.73 136.362 107.798 136.529Z" fill="#EA602E"/>
<path d="M115.443 142.193C115.346 142.288 115.213 142.345 115.065 142.339C112.963 142.267 111.026 141.238 109.461 139.363C108.3 137.972 107.752 136.613 107.729 136.556C107.623 136.29 107.754 135.99 108.019 135.884C108.285 135.779 108.585 135.908 108.691 136.174C108.719 136.239 110.742 141.155 115.103 141.305C115.388 141.316 115.61 141.555 115.602 141.84C115.597 141.98 115.536 142.104 115.443 142.193Z" fill="#ED7E3B"/>
<path d="M109.48 137.63C109.207 137.846 108.907 138.019 108.592 138.171C108.025 137.284 107.748 136.597 107.731 136.557C107.625 136.29 107.756 135.99 108.021 135.885C108.287 135.779 108.587 135.908 108.693 136.174C108.702 136.197 108.96 136.823 109.48 137.63Z" fill="#ED7E3B"/>
<path d="M112.092 140.342C112.932 140.883 113.934 141.265 115.103 141.306C115.389 141.316 115.611 141.555 115.602 141.84C115.598 141.98 115.539 142.102 115.446 142.193C115.349 142.288 115.215 142.345 115.067 142.339C113.983 142.301 112.942 142.007 111.972 141.475C111.976 141.09 112.001 140.712 112.092 140.342Z" fill="#ED7E3B"/>
<path d="M109.339 133.294C110.295 134.278 110.27 135.849 109.287 136.804C108.301 137.759 106.73 137.734 105.774 136.751C104.818 135.766 104.844 134.194 105.827 133.239C106.81 132.285 108.384 132.309 109.339 133.294Z" fill="#F0983E"/>
<path d="M105.721 136.802C104.739 135.79 104.763 134.169 105.776 133.188C106.788 132.208 108.41 132.231 109.394 133.243C110.375 134.256 110.352 135.877 109.337 136.857C108.326 137.84 106.704 137.815 105.721 136.802ZM105.826 136.701C106.753 137.654 108.281 137.677 109.237 136.752C110.191 135.826 110.214 134.298 109.288 133.345C108.364 132.391 106.833 132.368 105.879 133.292C104.923 134.22 104.9 135.748 105.826 136.701Z" fill="#EA602E"/>
<path d="M108.994 133.655C109.758 134.441 109.739 135.697 108.952 136.46C108.165 137.223 106.909 137.204 106.146 136.415C105.383 135.629 105.402 134.374 106.19 133.611C106.975 132.85 108.229 132.869 108.994 133.655Z" fill="white"/>
<path d="M106.094 136.468C105.303 135.654 105.324 134.35 106.138 133.56C106.952 132.771 108.257 132.79 109.048 133.604C109.839 134.418 109.817 135.724 109.003 136.512C108.189 137.301 106.882 137.282 106.094 136.468ZM106.199 136.364C106.933 137.121 108.145 137.138 108.902 136.407C109.659 135.673 109.676 134.462 108.942 133.706C108.208 132.949 106.997 132.932 106.242 133.665C105.485 134.399 105.466 135.61 106.199 136.364Z" fill="#EA602E"/>
<path d="M106.767 135.836C107.205 136.286 107.926 136.299 108.376 135.862C108.829 135.424 108.839 134.703 108.401 134.253C107.964 133.801 107.243 133.79 106.792 134.228C106.342 134.665 106.329 135.386 106.767 135.836Z" fill="#5D1C00"/>
<path d="M106.929 135.631C107.267 135.98 107.825 135.988 108.174 135.65C108.523 135.312 108.532 134.756 108.193 134.407C107.855 134.059 107.299 134.05 106.95 134.388C106.599 134.726 106.593 135.282 106.929 135.631Z" fill="#833723"/>
<path d="M107.104 135.463C107.349 135.716 107.753 135.723 108.007 135.475C108.261 135.23 108.267 134.826 108.02 134.575C107.774 134.321 107.37 134.315 107.117 134.56C106.865 134.807 106.859 135.211 107.104 135.463Z" fill="#2C0000"/>
<path d="M107.21 134.748C107.36 134.902 107.605 134.904 107.757 134.757C107.912 134.609 107.916 134.363 107.766 134.209C107.616 134.055 107.37 134.053 107.218 134.201C107.064 134.349 107.062 134.594 107.21 134.748Z" fill="white"/>
<path d="M106.188 133.613C105.401 134.375 105.382 135.631 106.143 136.417C106.907 137.203 108.163 137.222 108.95 136.462C109.736 135.699 109.755 134.443 108.992 133.657C108.228 132.869 106.975 132.85 106.188 133.613ZM108.241 135.561C107.867 136.134 106.839 136.622 106.262 136.013C105.809 135.534 105.733 134.788 106.063 134.24C106.429 133.629 107.304 133.071 108.004 133.503C108.692 133.927 108.643 134.944 108.241 135.561Z" fill="#CBCCCE"/>
<path d="M143.124 138.421C142.121 135.272 137.226 135.181 134.593 135.3C131.912 135.418 121.183 137.624 118.505 138.445C116.11 139.178 112.424 140.647 113.134 143.868C113.506 145.55 115.564 146.909 117.057 147.465C118.844 148.131 120.846 148.192 122.728 148.05C127.989 147.659 133.802 146.725 138.581 144.392C139.825 143.785 141.013 142.989 142.001 142.012C143.075 140.951 143.494 139.586 143.124 138.421Z" fill="#00BBC4"/>
<path d="M143.124 138.421C142.121 135.272 137.226 135.181 134.593 135.3C131.912 135.418 121.183 137.624 118.505 138.445C116.11 139.178 112.424 140.647 113.134 143.868C113.506 145.55 115.564 146.909 117.057 147.465C118.844 148.131 120.846 148.192 122.728 148.05C127.989 147.659 133.802 146.725 138.581 144.392C139.825 143.785 141.013 142.989 142.001 142.012C143.075 140.951 143.494 139.586 143.124 138.421ZM138.302 141.205C136.486 143.194 133.978 144.377 131.462 145.229C128.33 146.288 125.031 147.095 121.701 146.799C119.643 146.615 117.338 146.349 115.545 145.237C114.809 144.781 114.054 144.094 113.877 143.2C113.654 142.092 114.046 141.137 115.004 140.524C116.319 139.681 117.92 139.165 119.391 138.66C120.466 138.292 121.553 137.969 122.654 137.707C124.302 137.259 131.092 136.05 132.762 135.872C134.122 135.724 135.511 135.879 136.837 136.295C137.784 136.591 138.941 137.155 139.292 138.168C139.69 139.311 139.064 140.374 138.302 141.205Z" fill="#00BBC4"/>
<path d="M139.192 140.025C138.817 139.668 138.092 140.008 137.733 140.164C136.73 140.6 135.834 141.261 134.941 141.908C132.361 143.779 129.371 145 126.193 145.04C121.442 145.102 121.761 143.948 119.608 144.222C119.194 144.275 118.724 144.522 118.803 145.076C118.885 145.655 119.581 145.996 119.993 146.226C121.281 146.947 122.793 147.128 124.22 147.219C126.525 147.367 129.295 146.826 131.471 146.146C133.637 145.469 135.451 144.63 137.316 143.252C137.931 142.798 138.629 141.982 139.12 141.363C139.437 140.963 139.627 140.439 139.192 140.025Z" fill="#535CA9"/>
<path d="M138.852 140.534C138.498 140.234 137.798 140.536 137.452 140.676C136.485 141.065 135.616 141.646 134.749 142.217C132.25 143.863 129.368 144.956 126.32 145.036C121.765 145.154 122.087 144.159 120.019 144.425C119.619 144.476 119.167 144.698 119.234 145.171C119.304 145.672 119.966 145.953 120.359 146.146C121.582 146.748 123.03 146.885 124.396 146.942C126.604 147.037 129.266 146.532 131.362 145.915C133.449 145.302 135.197 144.554 137.005 143.341C137.602 142.942 138.281 142.229 138.761 141.688C139.074 141.337 139.264 140.885 138.852 140.534Z" fill="#535CA9"/>
<path d="M131.145 144.915C129.961 144.955 128.84 145.141 127.76 145.655C127.115 145.961 126.172 146.344 125.637 146.938C127.553 146.851 129.65 146.422 131.365 145.915C132.249 145.655 133.074 145.37 133.867 145.038C132.949 144.858 131.942 144.888 131.145 144.915Z" fill="#2E3192"/>
<path d="M121.212 145.615C121.848 146.006 122.248 145.349 122.489 144.738C121.704 144.546 121.288 144.343 120.461 144.383C120.617 144.867 120.816 145.372 121.212 145.615Z" fill="white"/>
<path d="M136.514 142.375C136.813 141.99 136.891 141.441 136.876 140.936C136.295 141.223 135.743 141.568 135.199 141.921C135.578 142.356 136.104 142.908 136.514 142.375Z" fill="white"/>
<path d="M123.819 145.492C124.148 145.602 124.309 145.308 124.44 145.012C124.013 144.987 123.654 144.949 123.343 144.902C123.451 145.169 123.599 145.418 123.819 145.492Z" fill="white"/>
<path d="M133.724 143.482C133.869 143.261 133.924 142.99 133.939 142.719C133.561 142.944 133.172 143.157 132.778 143.354C133.013 143.698 133.427 143.935 133.724 143.482Z" fill="white"/>
<path d="M127.42 142.567C127.272 142.388 127.037 142.462 126.908 142.624C126.764 142.804 126.688 143.113 126.849 143.307C126.891 143.356 126.94 143.383 126.993 143.392C127.033 143.428 127.077 143.453 127.124 143.461C127.335 143.499 127.509 143.29 127.559 143.106C127.614 142.914 127.545 142.717 127.42 142.567Z" fill="#2E3192"/>
<path d="M129.141 142.197C128.989 141.982 128.75 142.121 128.631 142.299C128.525 142.457 128.489 142.673 128.563 142.851C128.599 142.933 128.652 142.979 128.711 143.003C128.743 143.039 128.786 143.064 128.849 143.07C129.067 143.098 129.2 142.865 129.232 142.681C129.257 142.529 129.23 142.322 129.141 142.197Z" fill="#2E3192"/>
<path d="M122.396 138.197C122.037 137.907 116.759 139.622 115.401 140.674C115.022 140.966 114.671 141.348 114.483 141.792C114.265 142.304 114.177 142.965 114.597 143.415C114.762 143.591 115.027 143.669 115.213 143.487C115.401 143.305 115.369 143.003 115.367 142.768C115.361 142.369 115.494 142.031 115.752 141.731C116.213 141.194 116.881 140.913 117.49 140.585C118.169 140.22 118.877 139.903 119.599 139.632C120.298 139.37 121.028 139.218 121.732 138.971C121.999 138.878 122.589 138.679 122.46 138.288C122.447 138.25 122.426 138.22 122.396 138.197Z" fill="#00BBC4"/>
<path d="M123.659 137.815C123.522 137.749 123.344 137.798 123.236 137.899C123.205 137.929 123.167 137.973 123.141 138.022C123.088 138.098 123.065 138.199 123.09 138.284C123.126 138.398 123.274 138.39 123.363 138.362C123.496 138.322 123.615 138.233 123.695 138.123C123.769 138.022 123.788 137.878 123.659 137.815Z" fill="#00BBC4"/>
<path d="M123.355 157.895C123.355 157.895 120.766 161.327 120.876 163.639C120.986 165.951 124.355 167.16 128.079 166.822C128.079 166.822 123.173 166.055 122.418 163.842C121.481 161.099 123.355 157.895 123.355 157.895Z" fill="#00BBC4"/>
</svg>
