<svg version="1.2" xmlns="http://www.w3.org/2000/svg" viewBox="0 0 189 184" width="189" height="184"><style>.a{fill:#9d92d2}.b{fill:#407bff}.c{opacity:.7;fill:#9e93d2}.d{opacity:.3;fill:#fff}.e{fill:#5d4bb4}.f{opacity:.3}.g{opacity:.5;fill:#9d92d2}.h{fill:#fff}.i{fill:none;stroke:#407bff;stroke-miterlimit:10;stroke-width:.5}.j{opacity:.2;fill:#5d4bb4}.k{fill:#b5d35b}.l{fill:#597631}.m{fill:#64ad5a}.n{fill:#bad550}.o{fill:#4e8d48}.p{opacity:.5;fill:#64ad5a}.q{opacity:.5;fill:#7eb05f}.r{fill:#00233d}.s{fill:#0d5076}.t{fill:#007b96}.u{fill:#1b4633}.v{fill:#ed7e3b}.w{fill:#00bbc4}.x{fill:#e95537}.y{opacity:.5;fill:#00bbc4}.z{fill:#f0983e}.A{fill:#ea602e}.B{fill:#5d1c00}.C{fill:#833723}.D{fill:#2c0000}.E{fill:#cbccce}.F{fill:#535ca9}.G{fill:#2e3192}</style><path class="a" d="m40 109h108l32 75h-161.6c-5.8 0-9.7-6-7.3-11.3z"/><path class="b" d="m94.3 1.5c-24.3 0-43.9 17.8-43.9 39.8h87.9c0-21.9-19.8-39.8-44-39.8z"/><path class="c" d="m94.3 1.5c-24.3 0-43.9 17.8-43.9 39.8h87.9c0-21.9-19.8-39.8-44-39.8z"/><path class="d" d="m94.3 1.5l-17.8 15.9 14.5-0.9 11.8-14.2c0 0-5.7-0.8-8.5-0.8z"/><path class="e" d="m94.4 61.8c52.1 0 94.3-10.1 94.3-22.7 0-12.5-42.3-22.7-94.4-22.7-52.1 0-94.3 10.2-94.3 22.7 0.1 12.5 42.3 22.7 94.4 22.7z"/><path class="a" d="m94.5 58.6c30.6 0 55.4-4.3 55.4-9.7 0-5.4-24.8-9.8-55.5-9.8-30.6 0-55.5 4.4-55.4 9.8 0 5.4 24.8 9.7 55.5 9.7z"/><path class="a" d="m39.1 49.6l8.3 12.2h94.6l7.9-12.3-56.5-5.9z"/><path class="e" d="m94.4 70.2c26.4 0 47.8-4.4 47.7-9.8 0-5.4-21.4-9.8-47.7-9.8-26.4 0-47.7 4.4-47.7 9.8 0 5.4 21.4 9.8 47.7 9.8z"/><path class="f" d="m94.4 70.2c26.4 0 47.8-4.4 47.7-9.8 0-5.4-21.4-9.8-47.7-9.8-26.4 0-47.7 4.4-47.7 9.8 0 5.4 21.4 9.8 47.7 9.8z"/><path class="f" d="m94.4 69c21 0 37.9-3.5 37.9-7.8 0-4.3-17-7.7-37.9-7.7-20.9 0-37.9 3.4-37.8 7.7 0 4.3 16.9 7.8 37.8 7.8z"/><path class="a" d="m58.7 58.6l3 5.2 66.8-0.7 1.6-4.5c-7.2-4.9-52.7-9.3-71.4 0z"/><path class="b" d="m95 68.9c18.6 0 33.7-2.8 33.6-6.2 0-3.4-15-6.1-33.6-6.1-18.6 0-33.6 2.7-33.6 6.1 0 3.4 15 6.2 33.6 6.2z"/><path class="g" d="m95 68.9c18.6 0 33.7-2.8 33.6-6.2 0-3.4-15-6.1-33.6-6.1-18.6 0-33.6 2.7-33.6 6.1 0 3.4 15 6.2 33.6 6.2z"/><g style="opacity:.3"><path class="h" d="m94.3 16.4c-52.1 0-94.3 10.2-94.3 22.7 0 1.6 0.7 3.2 2.1 4.7 4.3-9.5 16.7-13.7 27.4-16.3 40.3-9.9 83.8-9.9 124.6-1.9 12.4 2.4 25.5 6.1 34.5 14.7q0.1-0.6 0.1-1.2c0-12.5-42.3-22.7-94.4-22.7z"/></g><path class="f" d="m38.9 48.9l-33.7-9.8 33.9 9z"/><path class="f" d="m55.6 22.5l6.7 18.4 1.5-0.2z"/><path class="f" d="m120.5 40.3l3.1-19.3-1.5 19.4z"/><path class="f" d="m149.9 49.5l32.7-13.9-33.4 11.7c0 0 1.7 0.8 0.7 2.2z"/><path class="d" d="m94.3 16.5l10.6-13.8 2.8 0.7-10.3 13.1z"/><path class="h" d="m41.9 39.9c1.5 0 2.7-0.4 2.7-0.8 0-0.4-1.2-0.7-2.7-0.7-1.5 0-2.7 0.3-2.7 0.7 0 0.4 1.2 0.8 2.7 0.8z"/><path class="h" d="m95.6 34.9c0 0.4-1.3 0.7-2.8 0.7-1.5 0-2.7-0.3-2.7-0.7 0-0.5 1.2-0.8 2.7-0.8 1.5 0 2.8 0.3 2.8 0.8z"/><path class="h" d="m156.7 54.7c0 0.4-1.2 0.8-2.7 0.8-1.5 0-2.7-0.4-2.7-0.8 0-0.4 1.2-0.8 2.7-0.8 1.5 0 2.7 0.4 2.7 0.8z"/><path class="h" d="m144.7 39.7c-0.1 0.4-1.3 0.5-2.8 0.1-1.4-0.3-2.5-0.9-2.5-1.3 0.1-0.4 1.4-0.5 2.9-0.1 1.4 0.3 2.5 0.9 2.4 1.3z"/><path class="h" d="m39 53.9c0 0.4-1.2 0.8-2.7 0.8-1.5 0-2.8-0.4-2.8-0.8 0-0.4 1.2-0.7 2.8-0.7 1.5 0 2.7 0.3 2.7 0.7z"/><path class="i" d="m59 13.2c5-5.1 10.5-9.5 17.2-11.5"/><path class="i" d="m77.9 1.2q0.5-0.1 0.9-0.2"/><path class="j" d="m128.9 64c-22.8 6.3-45 6.1-67.7 0l-50 108.7c-2.4 5.3 1.4 11.3 7.3 11.3h161.5z"/><path class="k" d="m76.5 178.3q-1.2 0.2-2.3 0.6-0.9 0.3-1.7 0.7c-0.5 0.2-1.1 0.5-1.6 0.9-0.2 0.2-1 0.8-0.5 1.2 0.4 0.3 1-0.2 1.4-0.4 0.9-0.7 2.1-1.1 3.2-1.3-0.3 0-0.6 0.3-0.9 0.4q-0.5 0.3-0.9 0.6c-0.4 0.2-1.1 0.7-1.1 1.2 0 0.5 0.7 0.3 0.9 0.1 1.4-0.8 5.7-2.6 6.4-2.8 0.7-0.2 1.3-0.3 1.8-0.8 0.6-0.5 0-0.9-0.6-0.9-1.1-0.1-2.2 0.1-3.2 0.3q-0.5 0.1-0.9 0.2z"/><path class="k" d="m88 178.4q-1.1 0.2-2.3 0.6-0.8 0.3-1.7 0.7c-0.4 0.2-1 0.5-1.5 0.9-0.2 0.2-1.1 0.8-0.5 1.1 0.4 0.4 1-0.1 1.3-0.3 1-0.7 2.1-1.1 3.3-1.3-0.3 0-0.7 0.3-0.9 0.4q-0.5 0.3-1 0.5c-0.3 0.3-1.1 0.8-1.1 1.3 0.1 0.4 0.7 0.2 1 0.1 1.4-0.8 5.7-2.6 6.4-2.8 0.6-0.2 1.3-0.3 1.8-0.8 0.6-0.5-0.1-0.9-0.6-0.9-1.1-0.1-2.2 0.1-3.3 0.3q-0.4 0.1-0.9 0.2z"/><path class="l" d="m79.7 122.1c-0.4 0-0.6-0.2-0.7-0.5-0.4-4.1-3.5-5.4-3.6-5.4-0.3-0.2-0.5-0.6-0.3-0.9 0.1-0.3 0.5-0.5 0.8-0.3 0.1 0 3.9 1.5 4.4 6.4 0 0.4-0.2 0.7-0.6 0.7q0 0 0 0z"/><path class="m" d="m76.3 114.9c0 0.7-0.6 1.3-1.3 1.3-0.7 0-1.3-0.6-1.3-1.3 0-0.7 0.6-1.3 1.3-1.3 0.7 0 1.3 0.6 1.3 1.3z"/><path class="n" d="m75 114.7c0 0.3-0.2 0.5-0.5 0.5-0.2 0-0.5-0.2-0.5-0.5 0-0.2 0.3-0.5 0.5-0.5 0.3 0 0.5 0.3 0.5 0.5z"/><path class="l" d="m89.1 122.4q-0.1 0-0.1 0c-0.4-0.1-0.6-0.4-0.5-0.8 0.3-0.9 1.1-3.8-0.5-6.5-0.2-0.3-0.1-0.7 0.2-0.9 0.3-0.1 0.7 0 0.9 0.3 1.9 3.1 1 6.5 0.7 7.5-0.1 0.3-0.4 0.4-0.7 0.4z"/><path class="m" d="m88 115.4c0.7 0 1.3-0.5 1.3-1.2 0-0.8-0.6-1.3-1.3-1.3-0.7 0-1.3 0.5-1.3 1.3 0 0.7 0.6 1.2 1.3 1.2z"/><path class="n" d="m88 114c0 0.2-0.3 0.5-0.5 0.5-0.3 0-0.5-0.3-0.5-0.5 0-0.3 0.2-0.5 0.5-0.5 0.2 0 0.5 0.2 0.5 0.5z"/><path class="o" d="m91.9 176.3c-0.2-1.5-0.5-2.9-0.7-4.4-0.3-2.6-0.3-5 0-7.7 0.1-0.8 0.7-3.3-0.2-3.9-0.6-0.4-1.1-0.2-1.6 0.2-0.4 0.2-0.7 0.6-0.9 0.9q-0.1 0.3-0.2 0.5 0 0.1 0 0.1c-0.3 0.8-0.3 1.7-0.4 2.5-0.1 1.8-0.1 3.4 0 5.2q0.2 1.9 0.6 3.7c0.3 1.6 0.7 3.1 1.2 4.6 0.4 1.1 1.7 1.4 2.3 0.2 0.2-0.6 0-1.3-0.1-1.9z"/><path class="o" d="m91 166q0.1-0.9 0.2-1.8c0.1-0.8 0.7-3.3-0.2-3.9-0.6-0.4-1.1-0.2-1.6 0.2-0.4 0.2-0.7 0.6-0.9 0.9q-0.1 0.3-0.2 0.5 0 0.1 0 0.1c-0.3 0.8-0.3 1.7-0.4 2.5q0 1.2-0.1 2.4c1.1-0.1 2.2-0.4 3.2-0.9z"/><path class="o" d="m80.4 163.9c0.2-0.8 0.6-2.1 0-2.9-0.4-0.5-1-0.4-1.5 0-1 0.9-1 2.6-1.2 3.8q0 0.2-0.1 0.5-0.1 0.4-0.2 0.8c-0.4 2.8-0.2 5.9 0.3 8.7 0.2 1.2 0.4 2.4 1 3.4 0.3 0.5 1.1 0.7 1.4 0.2 0.4-0.4 0.4-1.1 0.3-1.6-0.2-1.3-0.5-2.7-0.6-4.1-0.1-1.4-0.1-2.9 0-4.4 0.1-1.5 0.5-2.9 0.6-4.4z"/><path class="o" d="m80 166.5c0.2-0.9 0.3-1.7 0.4-2.6 0.2-0.8 0.6-2.1 0-2.9-0.4-0.5-1-0.4-1.5 0-1 0.9-1 2.6-1.2 3.8q0 0.1-0.1 0.3 1.1 0.9 2.4 1.4z"/><path class="k" d="m79.9 142.4c-1-0.1-1.8 0.7-2.4 1.6-0.5 0.8-0.8 1.9-1.1 2.9-0.5 1.3-0.9 2.7-1.6 3.9-1 2.1-2.6 3.7-3.8 5.7-0.4 0.6-0.6 1.1-0.3 1.8 0.2 0.5 0.8 0.5 1.3 0.4 1.5-0.6 2.6-2.1 3.6-3.3 1.5-1.8 2.6-3.9 3.6-6.1 0.9-1.8 1.9-3.9 2.1-6 0.1-1.2-0.7-1.2-1.4-0.9z"/><path class="k" d="m79.9 142.4c-0.6-0.1-1.1 0.2-1.5 0.5 0.1 0 0.2 0 0.2 0.1 0.2 1.1-0.4 2.4-0.7 3.4-0.4 1.6-0.9 3.2-1.4 4.7-0.6 1.4-1 2.8-1.4 4.3q0 0.3-0.2 0.8 0.4-0.4 0.7-0.8c1.5-1.8 2.6-3.9 3.6-6 0.9-1.9 1.9-4 2-6.1 0.2-1.2-0.6-1.2-1.3-0.9z"/><path class="m" d="m94.4 154.5c-0.2-5.2-3.5-9.9-5-14.9-0.6-1.9-1.4-4.2-3.6-4.8-2.2-0.5-5 1-5.7 3.1-0.8 2.2-0.3 4.6-1 6.9-0.7 2.5-1.9 4.8-2.8 7.2-1.1 3.3-1.1 8.5 1.8 10.8 3.7 3 10.1 2.2 13.4-0.9 1.2-1.2 2.3-2.7 2.6-4.4q0.4-1.5 0.3-3z"/><path class="m" d="m78.2 161.3c-1.4-1.8-2.1-4.4-1.9-6.6 0.2-1.6 0.5-3.2 1-4.6 0.3-0.9 0.6-1.7 0.8-2.5-0.6 1.4-1.2 2.9-1.7 4.4-1.1 3.3-1.2 8.5 1.7 10.8 1.7 1.4 4 2 6.4 1.9-2.5-0.4-4.7-1.5-6.3-3.4z"/><path class="p" d="m94.4 154.5c-0.2-5.2-3.5-9.9-5-14.9-0.6-1.9-1.4-4.2-3.6-4.8-2.2-0.5-5 1-5.7 3.1-0.8 2.2-0.3 4.6-1 6.9q0 0.2-0.1 0.5c0.9-1.2 2.1-2.1 3.8-2.4 1.6-0.3 3.4 0 4.6 1.1 1.2 1.1 1.8 2.5 2.2 3.9 1.2 3.8 3.2 8.3 1.8 12.3-0.5 1.3-1.5 2.5-2.5 3.4 1-0.4 1.9-1 2.6-1.7 1.2-1.2 2.3-2.7 2.6-4.4q0.4-1.5 0.3-3z"/><path class="m" d="m90.6 121.6c-1.9-1.6-4.5-2.4-7-2.2-1 0.1-2.1 0.4-3 0.8-1.2 0.5-2.2 1.4-2.9 2.4-0.6 1-0.9 2.2-1.1 3.4-0.2 1.9-0.6 3.5-2 4.9-1.6 1.7-4.1 3.3-3.7 6 0.4 2.9 2.7 4.3 5.4 4.8 5.6 1.1 12.8-0.2 16.2-5.2 3.1-4.5 2.3-11.4-1.9-14.9z"/><path class="k" d="m71.1 137.2c-0.3-1.6 0.6-2.8 1.8-3.8 0.9-0.7 2-1.4 2.5-2.5 0.5-1 0.8-2.1 0.9-3.2q0.1-0.1 0.1-0.2c-0.3 1.3-0.8 2.4-1.8 3.4-1.6 1.7-4.1 3.3-3.7 6q0.2 1.4 0.9 2.3c-0.3-0.6-0.6-1.3-0.7-2z"/><path class="m" d="m90.6 121.6c-1.9-1.6-4.5-2.4-7-2.2-1 0.1-2.1 0.4-3 0.8-1.2 0.5-2.2 1.4-2.9 2.4q-0.1 0.3-0.2 0.5 0.6-0.7 1.4-1.3c1.8-1.3 4.1-1.8 6.3-1.4 4.1 0.8 7.2 4 7.3 8.3 0.1 4-1.3 7.7-4.5 10-2.1 1.6-4.3 2.7-7.9 3.1-2.3 0.2-4.5-0.6-6.6-1.1 0.8 0.5 1.8 0.8 2.8 1 5.6 1.1 12.8-0.2 16.2-5.2 3.1-4.5 2.3-11.4-1.9-14.9z"/><path class="q" d="m85 131.8c0 0-1.8-1.4 0-4.8 1.7-3.4 6-3.7 5.5 0.8-0.5 4.5-4.3 4.8-5.5 4z"/><path class="r" d="m85.1 131.4c0 0-1.8-1.3-0.1-4.5 1.7-3.3 6-3.5 5.5 0.8-0.5 4.2-4.2 4.5-5.4 3.7z"/><path class="s" d="m85.5 130c0 0-1.2-0.8-0.1-3 1.2-2.2 4-2.4 3.7 0.5-0.3 2.9-2.8 3.1-3.6 2.5z"/><path class="t" d="m86.2 127c0 0-0.3-0.2 0-0.7 0.4-0.5 1-0.4 0.9 0.2-0.2 0.7-0.8 0.7-0.9 0.5z"/><path class="q" d="m81.7 131.4c0 0 1.6-1.2 0.1-4.2-1.6-3-5.3-3.3-4.9 0.7 0.5 3.9 3.8 4.2 4.8 3.5z"/><path class="r" d="m81.7 131.1c0 0 1.5-1.2 0-4-1.5-2.9-5.2-3.1-4.8 0.6 0.4 3.8 3.7 4.1 4.8 3.4z"/><path class="s" d="m80.5 130.1c0 0 1.1-0.8 0.1-2.7-1-1.9-3.5-2.1-3.3 0.5 0.3 2.5 2.5 2.7 3.2 2.2z"/><path class="t" d="m78.4 127.7c0 0 0.2-0.2 0-0.7-0.3-0.4-0.9-0.3-0.8 0.2 0.2 0.6 0.7 0.6 0.8 0.5z"/><path class="u" d="m76.6 136.2c0 0-0.6-1.2-0.8-0.7-0.2 0.4 1 1.3 0.8 0.7z"/><path class="u" d="m77.1 136.2c0 0 0.6-1.2 0.8-0.7 0.2 0.4-1 1.3-0.8 0.7z"/><path class="k" d="m89.1 141.7c-0.4 0.5-0.4 1.3 0 2.1 1 2 2.5 3.6 3.7 5.4 1 1.8 1.8 3.7 2.5 5.6 0.3 0.7 0.6 1.4 0.8 2.1 0.1 0.7 0.5 2.5 1.6 2q0.1 0 0.1 0c0.2-0.2 0.4-0.4 0.5-0.6 0.5-1.8-0.6-4.4-1.2-5.9-1.1-3.1-2.7-6.1-4.6-8.9-0.4-0.6-1-1.3-1.6-1.8-0.9-0.6-1.5-0.5-1.8 0z"/><path class="k" d="m89.1 141.7c-0.4 0.5-0.4 1.3 0 2.1 1 2 2.5 3.6 3.7 5.4 1 1.8 1.8 3.7 2.5 5.6 0.3 0.7 0.6 1.4 0.8 2.1 0.1 0.7 0.5 2.5 1.6 2q0.1 0 0.1 0c0.2-0.2 0.4-0.4 0.5-0.6 0.5-1.8-0.6-4.4-1.2-5.9-1.1-3.1-2.7-6.1-4.6-8.9-0.4-0.6-1-1.3-1.6-1.8-0.9-0.6-1.5-0.5-1.8 0z"/><path class="k" d="m89.3 141.6c1.3-0.1 2.4 2.1 3 3 2 2.8 3.7 5.8 5.2 8.9q-0.2-0.6-0.4-1.1c-1.1-3.1-2.7-6.1-4.6-8.9-0.4-0.6-1-1.3-1.6-1.8-0.9-0.6-1.5-0.5-1.8 0q0.1 0 0.2-0.1z"/><path class="k" d="m100.8 159.8q-0.1-0.1-0.1-0.2c-0.4-1.1-0.9-2.5-2.1-2.9-0.3-0.1-0.7-0.1-1 0-1.3 0.4-1.4 1.9-1.6 3-0.1 0.5-0.2 1-0.2 1.5 0 0.3 0.1 0.6 0.2 0.8 0.4 0.5 0.9 0.2 0.9-0.3 0.1-0.5-0.1-1.1 0.1-1.6 0.2-0.4 0.6-0.2 0.8 0 0.5 0.5 0.4 1.3 0.5 1.9 0 0.5 0.6 0.9 1 0.3 0.3-0.4 0.1-1.1 0-1.5-0.1-0.4-0.3-0.7-0.3-1-0.1-0.3 0.1-0.7 0.4-0.3 0.3 0.3 0.4 0.6 0.5 1 0 0.3 0 0.7 0.2 0.9 0.3 0.3 0.7 0.1 0.8-0.1 0.2-0.5 0-1-0.1-1.5z"/><path class="k" d="m67.9 157.7q0.1-0.1 0.2-0.1c1-0.6 2.2-1.6 3.4-1.1 0.3 0.1 0.6 0.3 0.8 0.6 0.8 1.1 0 2.3-0.6 3.4-0.2 0.4-0.4 0.9-0.7 1.2-0.1 0.3-0.4 0.5-0.6 0.6-0.6 0.2-0.9-0.4-0.6-0.8 0.3-0.5 0.8-0.8 0.9-1.3 0.1-0.5-0.3-0.5-0.6-0.5-0.7 0.1-1.1 0.8-1.5 1.2-0.4 0.4-1.1 0.3-1-0.3 0-0.5 0.5-1 0.9-1.3 0.3-0.2 0.6-0.3 0.8-0.5 0.2-0.3 0.3-0.7-0.1-0.6-0.4 0.1-0.7 0.3-1 0.6-0.2 0.2-0.5 0.5-0.8 0.6-0.3 0-0.5-0.4-0.5-0.6 0.1-0.5 0.6-0.8 1-1.1z"/><path class="k" d="m91.6 159c-0.3-0.2-0.7-0.2-1 0-0.4 0.1-0.6 0.5-0.6 0.9-0.2 0.3-0.2 0.7 0 1 0.2 0.2 0.6 0.1 0.8 0 0.4-0.2 0.7-0.6 0.9-1 0.1-0.3 0.2-0.7-0.1-0.9z"/><path class="k" d="m92.7 157.7q-0.1 0-0.2-0.1c-0.1-0.1-0.4 0-0.5 0.1-0.2 0.1-0.3 0.4-0.2 0.6 0 0.2 0.2 0.2 0.4 0.2q0.2 0 0.4-0.2 0.1-0.1 0.2-0.2 0 0 0 0c0.1-0.1 0.1-0.3-0.1-0.4z"/><path class="k" d="m91.2 156.5c-0.3-0.2-0.8 0.1-0.9 0.4q-0.1 0.2-0.1 0.4-0.1 0.2 0 0.3c0.1 0.3 0.3 0.4 0.5 0.4 0.4 0 0.7-0.3 0.8-0.6 0.2-0.4 0-0.7-0.3-0.9z"/><path class="k" d="m93.1 158.9q0-0.1-0.1 0c0-0.1-0.2-0.1-0.2 0-0.1 0.1-0.2 0.2 0 0.3 0.1 0.1 0.3-0.1 0.3-0.2 0.1 0 0.1-0.1 0-0.1z"/><path class="k" d="m89 160.7c-0.3-0.4-0.7-0.1-1 0.1-0.3 0.2-0.6 0.7-0.4 1.1q0.1 0.1 0.3 0.1 0 0 0 0c0.4 0.3 0.8-0.1 1-0.3 0.2-0.3 0.3-0.7 0.1-1z"/><path class="k" d="m87.1 159.9q-0.1 0-0.2 0 0 0-0.1 0.1 0 0-0.1 0c-0.1 0.1-0.3 0.3-0.1 0.4 0.2 0.3 0.6-0.1 0.7-0.3 0-0.1 0-0.2-0.2-0.2z"/><path class="k" d="m86.7 163.1c0-0.3-0.3-0.2-0.4-0.1-0.1 0-0.2 0.2-0.2 0.3q-0.1 0.1-0.1 0.1c0 0.2 0.1 0.3 0.2 0.3 0.2 0 0.3-0.1 0.4-0.2 0.1-0.1 0.2-0.3 0.1-0.4z"/><path class="k" d="m91.8 149.9c-0.3 0.2-0.5 0.5-0.5 0.9 0 0.4 0.3 0.7 0.7 0.9 0.2 0.2 0.6 0.5 0.8 0.4 0.4-0.1 0.4-0.5 0.4-0.8 0-0.5-0.2-0.9-0.5-1.2-0.3-0.2-0.6-0.4-0.9-0.2z"/><path class="k" d="m91 148.3q-0.1 0-0.2 0.1c-0.1 0.1-0.1 0.4-0.1 0.6 0.1 0.2 0.2 0.4 0.5 0.4 0.2 0 0.3-0.2 0.3-0.3q0.1-0.2 0-0.4 0-0.2-0.1-0.3 0 0 0 0c-0.1-0.1-0.3-0.2-0.4-0.1z"/><path class="k" d="m89.3 149.2c-0.3 0.3-0.2 0.8 0 1.1q0.2 0.1 0.4 0.2 0.1 0.1 0.3 0.1c0.2 0 0.4-0.1 0.5-0.3 0.2-0.4 0-0.8-0.2-1.1-0.3-0.2-0.7-0.2-1 0z"/><path class="k" d="m92.2 148.4q0 0 0 0.1c-0.1 0-0.1 0.1-0.1 0.2 0.1 0.1 0.2 0.2 0.3 0.2 0.2-0.1 0.1-0.4 0-0.5 0 0-0.1-0.1-0.2 0z"/><path class="k" d="m92.3 152.9c-0.4 0.1-0.4 0.6-0.3 1 0.1 0.3 0.5 0.7 0.9 0.7q0.1 0 0.2-0.2 0 0 0 0c0.4-0.2 0.2-0.8 0.1-1.1-0.2-0.3-0.5-0.5-0.9-0.4z"/><path class="k" d="m90.8 154.3q0 0.1 0 0.2 0 0 0 0.1 0 0.1 0 0.1c0 0.1 0.1 0.4 0.3 0.3 0.3-0.1 0.1-0.6 0-0.8-0.1 0-0.2 0-0.3 0.1z"/><path class="k" d="m93.6 155.9c-0.2 0-0.3 0.2-0.3 0.4 0 0.1 0.1 0.2 0.2 0.3q0.1 0.1 0.1 0.1c0.1 0.1 0.3 0.1 0.4-0.1 0.1-0.1 0-0.3 0-0.4-0.1-0.2-0.3-0.3-0.4-0.3z"/><path class="v" d="m123.6 175.1q-1.2 0.3-2.4 0.8-1 0.4-1.9 0.9c-0.5 0.2-1.2 0.6-1.7 1.1-0.2 0.2-1.1 0.9-0.5 1.3 0.5 0.3 1.1-0.2 1.5-0.5 1-0.8 2.3-1.3 3.5-1.6-0.3 0-0.7 0.4-1 0.5q-0.5 0.3-1 0.6c-0.4 0.3-1.2 0.9-1.1 1.5 0 0.5 0.8 0.2 1 0 1.9-1.1 3.9-2 5.8-2.9 0.9-0.4 1.8-0.5 2.6-1 0.8-0.5 1-1.4-0.2-1.5-1.2 0-2.4 0.3-3.6 0.6q-0.5 0.1-1 0.2z"/><path class="v" d="m121.9 177.1c0.2-0.1 0.4-0.3 0-0.2-0.7 0.1-1.4 0.5-2.1 0.8-0.6 0.3-1.1 0.7-1.7 1-0.3 0.1-0.7 0.3-1 0.1q-0.1-0.1-0.1-0.2c-0.1 0.2-0.1 0.4 0.1 0.6 0.5 0.3 1.1-0.2 1.5-0.5 0.9-0.7 2.1-1.2 3.2-1.6q0 0 0.1 0z"/><path class="v" d="m128.2 174.3c-1.2 0-2.4 0.3-3.6 0.6q-0.5 0.1-1 0.2-1.2 0.3-2.4 0.8-0.2 0.1-0.4 0.1c0.6-0.1 1.3-0.3 2-0.4 0.6-0.1 2.2 0.2 1.4 1.1-0.3 0.4-0.8 0.6-1.2 0.9-0.7 0.3-1.2 0.8-1.8 1.3-0.4 0.3-1.2 0.9-2 1.1 0.3 0 0.7-0.2 0.8-0.3 1.9-1.1 3.9-2 5.8-2.9 0.9-0.4 1.8-0.5 2.6-1 0.8-0.5 1-1.4-0.2-1.5z"/><path class="w" d="m127.9 165.8c-0.5-0.5-0.8-0.7-1.6-0.5-0.5 0-1 0.3-1.3 0.7-1.4 2 1.1 8.8 1.6 9.2 0.6 0.5 1.4 0.3 1.6-0.4 0.2-0.6-0.1-1.3-0.2-1.8-0.1-1.1 0-2.1 0.1-3.1 0.3-1.3 0.8-2.9-0.2-4.1z"/><path class="w" d="m127.9 165.8c-0.5-0.5-0.8-0.7-1.6-0.5-0.5 0-1 0.3-1.3 0.7-0.5 0.7-0.5 2.2-0.2 3.7q0-0.1 0.1-0.2c0.5-0.7 1.8-0.9 2.3 0 0.4 0.6 0.2 1.4 0.3 2.1 0 0.6 0.1 1.1 0.3 1.6 0.1 0.4 0.3 0.7 0.3 1.1 0 0.3 0 0.7-0.2 0.9q0.2-0.1 0.3-0.4c0.2-0.6-0.1-1.3-0.2-1.8-0.1-1.1 0-2.1 0.1-3.1 0.3-1.3 0.8-2.9-0.2-4.1z"/><path class="w" d="m125.7 171.8c-0.2-0.7-0.3-1.5-0.6-2.2 0 0 0 0 0 0 0.3 1.5 0.5 3.2 1.2 4.6 0.1 0 0.1-0.1 0.1-0.1q-0.4-1.1-0.7-2.3z"/><path class="v" d="m139.4 172.8c-1.2 0-2.5 0.1-3.6 0.5-1.2 0.3-0.7 1.2 0.2 1.4 0.9 0.3 1.9 0.1 2.8 0.3 2.1 0.3 4.3 0.6 6.4 1.2 0.2 0.1 1 0.2 0.9-0.3-0.1-0.6-1-0.9-1.5-1.1q-0.5-0.2-1.1-0.3c-0.3-0.1-0.8-0.3-1.1-0.3 1.3 0 2.7 0.1 3.9 0.6 0.4 0.1 1.1 0.5 1.5 0 0.5-0.5-0.6-0.9-0.9-1-0.6-0.4-1.3-0.5-1.9-0.7q-1-0.2-2-0.3-1.3-0.1-2.6 0-0.5 0-1 0z"/><path class="v" d="m142.6 174.2c-0.2 0-0.5-0.2-0.1-0.2 0.8-0.1 1.6 0.1 2.3 0.2 0.7 0.1 1.3 0.3 1.9 0.4 0.3 0.1 0.8 0.1 1-0.1q0.1-0.1 0.1-0.2c0.1 0.1 0.2 0.3 0 0.5-0.4 0.5-1.1 0.1-1.5 0-1.1-0.4-2.4-0.6-3.6-0.6q0 0-0.1 0z"/><path class="v" d="m135.8 173.3c1.1-0.4 2.4-0.5 3.6-0.5q0.5 0 1 0 1.3-0.1 2.6 0 0.2 0 0.4 0.1c-0.7 0-1.4 0-2.1 0.1-0.6 0.1-2.1 0.8-1 1.4 0.4 0.3 0.9 0.4 1.4 0.5 0.7 0.2 1.4 0.5 2.1 0.8 0.5 0.2 1.4 0.5 2.2 0.5-0.3 0.1-0.7 0.1-0.8 0-2.1-0.6-4.3-0.9-6.4-1.2-0.9-0.2-1.9 0-2.8-0.3-0.9-0.2-1.4-1.1-0.2-1.4z"/><path class="w" d="m134.6 169c0.5 0.9 0.8 1.9 1 2.9 0.1 0.5 0 1.3 0.3 1.8 0.4 0.6 1.3 0.6 1.7 0 0.3-0.5 0.9-7.8-1.1-9.3-0.3-0.4-0.9-0.4-1.4-0.4-0.7 0.1-1.1 0.3-1.4 1-0.6 1.4 0.4 2.7 0.9 4z"/><path class="w" d="m133.7 165c0.3-0.7 0.7-0.9 1.4-1 0.5 0 1.1 0 1.4 0.4 0.8 0.5 1.2 1.9 1.3 3.4q-0.1 0-0.2-0.1c-0.7-0.6-1.9-0.4-2.2 0.6-0.2 0.7 0.2 1.4 0.4 2.1q0.1 0.9 0.1 1.7c0 0.3-0.1 0.7 0 1.1 0 0.3 0.2 0.6 0.4 0.9q-0.2-0.1-0.4-0.4c-0.3-0.5-0.2-1.3-0.3-1.8-0.2-1-0.5-2-1-2.9-0.5-1.3-1.5-2.6-0.9-4z"/><path class="w" d="m137.5 170.2c0-0.8-0.1-1.6-0.1-2.3 0-0.1 0.1 0 0.1 0 0.1 1.5 0.4 3.2 0 4.7 0 0 0 0 0 0q0-1.2 0-2.4z"/><path class="x" d="m146 145.2c-0.2-1.2-2-1.3-3-1.2-1.4 0.2-2.5 1.1-3.3 2.1-1.1 1.4-1.5 3.3-3.1 4.1-0.9 0.5-2.4 0.8-3.5 0.4-0.8-0.1-1.3 0.8-0.9 1.5q0 0.1 0 0.1c1.1 1 3.1 1 4.4 0.7 1.8-0.5 3.2-2.1 4.1-3.7 0.5-1.1 1-2.3 1.9-3.2 0.6-0.5 1.3-0.7 2.1-0.7 0.3 0 0.7 0.2 1 0.1 0.1 0 0.4-0.1 0.3-0.2z"/><path class="v" d="m146 145.2q0-0.4-0.3-0.6 0 0 0 0c-0.4 0.5-1.4 0.2-2 0.2-2.1 0.2-3.1 1.9-4 3.6-0.8 1.2-1.6 2.6-3.1 2.9-0.6 0.1-1.9-0.1-2.1-0.5-0.5 0-0.9 0-1.4-0.2-0.8-0.1-1.3 0.8-0.9 1.5q0 0.1 0 0.1c1.1 1 3.1 1 4.4 0.7 1.8-0.5 3.2-2.1 4.1-3.7 0.5-1.1 1-2.3 1.9-3.2 0.6-0.5 1.3-0.7 2.1-0.7 0.3 0 0.7 0.2 1 0.1 0.1 0 0.4-0.1 0.3-0.2z"/><path class="v" d="m144.5 144.3c-1.7-0.3-3.2 0.5-4.3 1.7-1.5 1.5-1.8 3.7-3.8 4.7 0 0.1 0 0.1 0.1 0.1 1.4-0.6 2-1.9 2.8-3.2 1.1-1.8 2.8-3.5 5.1-3.3 0.1 0 0.1 0 0.1 0z"/><path class="x" d="m126.7 154.2q0.1-0.2 0.2-0.4c0-0.3 0-0.7-0.2-1-0.3-0.5-0.7-0.8-1.2-0.7-1.1 1-2.3 1.8-3.8 2.2-2.2 0.6-3.6-1.3-5.1-2.6-1.3-1-2.6-1.8-4.3-1.6-0.8 0.1-1.6 0.3-2.3 0.8-0.6 0.3-1.3 0.9-1.5 1.6 0 0 0 0.3 0.2 0.3 1-0.3 1.8-1.1 3-1.1 1.3 0 2.6 1 3.5 1.9 1.6 1.7 3.4 3.5 5.9 3.5 2.1 0.1 4.5-1.2 5.6-2.9z"/><path class="v" d="m126.7 152.8c-0.3-0.5-0.7-0.8-1.2-0.7-1.1 1-2.3 1.8-3.8 2.2-2.2 0.6-3.7-1.3-5.1-2.6-1.3-1-2.6-1.8-4.3-1.6-0.7 0-1.4 0.2-2.1 0.6q0.1 0 0.2 0c1-0.3 2.1-0.5 3.1-0.2 1.5 0.5 2.5 1.8 3.5 2.9 0.6 0.7 1.3 1.5 2.2 1.8 0.7 0.2 1.5 0.2 2.2 0.3 0.1 0 0.1 0.1 0.1 0.2q-0.5 0.7-1.1 1.4 0.3 0 0.7 0c2.1 0.1 4.5-1.2 5.6-2.9q0.1-0.2 0.2-0.4c0-0.3 0-0.7-0.2-1z"/><path class="v" d="m120.1 156.5c-3.5-0.9-5.2-6.2-9.3-5 0 0-0.1 0 0 0 1.9-0.4 3.7 0.8 5 2.2 1.2 1.4 2.5 2.5 4.3 2.9 0 0 0-0.1 0-0.1z"/><path class="w" d="m141.3 160.2q-0.1-0.8-0.5-1.5c-0.9-1.8-2.6-3-4.1-4.3-2.9-2.3-5.5-4.6-5.9-8.5 0-0.7-0.2-1.3-0.7-1.9-0.8-1-2.5-1-3.7-0.8-1.3 0.3-2 1.1-2 2.4 0 1.4 1 2.6 0.9 4.1-0.3 2.9-2.3 5.3-4 7.5-2 2.6-4.2 5.8-2.3 9.1 1.2 2.3 3.8 2.4 6.2 2.3 4.7-0.1 11.1-0.4 14.7-4.1 1.2-1.2 1.7-2.6 1.4-4.3z"/><path class="y" d="m141.3 160.2q-0.1-0.8-0.5-1.5c-0.9-1.8-2.6-3-4.1-4.3-2.9-2.3-5.5-4.6-5.9-8.5 0-0.7-0.2-1.3-0.7-1.9-0.8-1-2.5-1-3.7-0.8-1.3 0.3-2 1.1-2 2.4 0 1.4 1 2.6 0.9 4.1-0.3 2.9-2.3 5.3-4 7.5-2 2.6-4.2 5.8-2.3 9.1 1.2 2.3 3.8 2.4 6.2 2.3 4.7-0.1 11.1-0.4 14.7-4.1 1.2-1.2 1.7-2.6 1.4-4.3zm-7.7 4.1c-1.3 2-3.9 2.7-6.2 3-2.1 0.3-4.8 0.3-6.5-1.1-2.9-2.5-0.9-6.2 0.9-8.7 1.3-1.9 3.2-4.5 5.7-4.6 3.2-0.2 5.2 3.2 6.1 5.8 0.6 1.7 1.1 3.9 0 5.6z"/><path class="z" d="m139.8 138.6q0.2 0.1 0.4 0.1c2-0.7 3.6-2.2 4.6-4.4 0.7-1.7 0.8-3.2 0.9-3.2 0-0.3-0.2-0.6-0.5-0.6-0.3 0-0.5 0.2-0.6 0.5 0 0-0.6 5.3-4.7 6.7-0.3 0.1-0.4 0.4-0.4 0.6q0.1 0.2 0.3 0.3z"/><path class="A" d="m145.3 130.6q0 0-0.1 0c-0.3 0-0.5 0.1-0.5 0.4 0 0-0.6 5.4-4.8 6.7-0.2 0.1-0.4 0.4-0.3 0.6 0.1 0.2 0.4 0.4 0.6 0.3 2-0.7 3.5-2.2 4.5-4.4 0.7-1.6 0.9-3.1 0.9-3.1 0-0.2-0.1-0.4-0.3-0.5z"/><path class="v" d="m139.8 138.6q0.2 0.1 0.4 0.1c2-0.7 3.6-2.2 4.6-4.4 0.7-1.7 0.8-3.2 0.9-3.2 0-0.3-0.2-0.6-0.5-0.6-0.3 0-0.5 0.2-0.6 0.5 0 0-0.6 5.3-4.7 6.7-0.3 0.1-0.4 0.4-0.4 0.6q0.1 0.2 0.3 0.3z"/><path class="v" d="m144.3 132.6q0.5 0.2 1 0.3c0.3-1 0.4-1.8 0.4-1.8 0-0.3-0.2-0.6-0.5-0.6-0.3 0-0.5 0.2-0.6 0.5 0 0-0.1 0.7-0.3 1.6z"/><path class="v" d="m142.5 135.9c-0.6 0.8-1.5 1.4-2.6 1.8-0.3 0.1-0.4 0.4-0.3 0.6q0 0.2 0.2 0.3 0.2 0.1 0.4 0.1 1.6-0.5 2.7-1.7-0.1-0.6-0.4-1.1z"/><path class="z" d="m143.2 128.4c-0.6 1.2-0.2 2.7 1 3.3 1.2 0.7 2.7 0.2 3.4-1 0.6-1.2 0.2-2.7-1-3.3-1.2-0.7-2.7-0.2-3.4 1z"/><path class="A" d="m144.2 131.8c-1.3-0.7-1.7-2.2-1.1-3.4 0.7-1.3 2.3-1.8 3.5-1.1 1.2 0.7 1.7 2.2 1.1 3.5-0.7 1.2-2.3 1.7-3.5 1zm2.3-4.4c-1.1-0.6-2.6-0.2-3.2 1-0.7 1.2-0.2 2.7 1 3.3 1.1 0.6 2.6 0.2 3.2-1 0.6-1.2 0.2-2.6-1-3.3z"/><path class="h" d="m143.6 128.6c-0.5 1-0.1 2.2 0.9 2.7 0.9 0.5 2.1 0.2 2.6-0.8 0.6-1 0.2-2.2-0.8-2.7-0.9-0.5-2.1-0.1-2.7 0.8z"/><path class="A" d="m144.4 131.4c-1-0.5-1.4-1.8-0.8-2.8 0.5-1 1.8-1.4 2.8-0.8 1 0.5 1.3 1.7 0.8 2.7-0.5 1-1.8 1.4-2.8 0.9zm1.9-3.5c-0.9-0.5-2.1-0.2-2.6 0.8-0.5 0.9-0.1 2.1 0.8 2.6 0.9 0.5 2.1 0.1 2.6-0.8 0.5-1 0.1-2.1-0.8-2.6z"/><path class="B" d="m146.4 130.1c-0.3 0.6-1 0.8-1.6 0.5-0.5-0.3-0.7-1-0.4-1.5 0.3-0.6 1-0.8 1.5-0.5 0.6 0.3 0.8 1 0.5 1.5z"/><path class="C" d="m146.2 130c-0.3 0.4-0.8 0.6-1.2 0.3-0.4-0.2-0.6-0.7-0.4-1.2 0.2-0.4 0.8-0.6 1.2-0.3 0.4 0.2 0.6 0.7 0.4 1.2z"/><path class="D" d="m146 129.9c-0.2 0.3-0.6 0.4-0.9 0.2-0.3-0.2-0.4-0.5-0.3-0.8 0.2-0.4 0.6-0.5 0.9-0.3 0.3 0.2 0.4 0.5 0.3 0.9z"/><path class="h" d="m145.7 129.2c-0.1 0.2-0.4 0.3-0.6 0.2-0.2-0.1-0.2-0.4-0.1-0.6 0.1-0.2 0.3-0.2 0.5-0.1 0.2 0.1 0.3 0.3 0.2 0.5z"/><path class="E" d="m143.6 128.6c-0.5 1-0.1 2.2 0.9 2.7 0.9 0.5 2.1 0.2 2.6-0.8 0.6-1 0.2-2.2-0.8-2.7-0.9-0.5-2.1-0.1-2.7 0.8zm1-0.4c0.5-0.6 1.5-0.3 2 0.2 0.5 0.4 0.6 1.2 0.3 1.8-0.4 0.7-1.5 0.5-2 0.1-0.6-0.5-0.9-1.5-0.3-2.1z"/><path class="z" d="m114.4 142.2q-0.1 0.1-0.3 0.1c-2.1 0-4.1-1.1-5.6-2.9-1.2-1.4-1.7-2.8-1.8-2.8-0.1-0.3 0.1-0.6 0.3-0.7 0.3-0.1 0.6 0 0.7 0.3 0 0 2 5 6.4 5.1 0.3 0 0.5 0.3 0.5 0.5q0 0.3-0.2 0.4z"/><path class="A" d="m106.8 136.5c0 0.1 0.6 1.4 1.7 2.8 1.6 1.9 3.5 2.9 5.6 3 0.2 0 0.4-0.2 0.4-0.5 0-0.2-0.2-0.4-0.4-0.4-4.4-0.2-6.5-5.1-6.5-5.2-0.1-0.2-0.3-0.3-0.6-0.2q0 0-0.1 0c-0.1 0.2-0.2 0.4-0.1 0.5z"/><path class="v" d="m114.4 142.2q-0.1 0.1-0.3 0.1c-2.1 0-4.1-1.1-5.6-2.9-1.2-1.4-1.7-2.8-1.8-2.8-0.1-0.3 0.1-0.6 0.3-0.7 0.3-0.1 0.6 0 0.7 0.3 0 0 2 5 6.4 5.1 0.3 0 0.5 0.3 0.5 0.5q0 0.3-0.2 0.4z"/><path class="v" d="m108.5 137.6q-0.4 0.3-0.9 0.6c-0.6-0.9-0.9-1.6-0.9-1.6-0.1-0.3 0.1-0.6 0.3-0.7 0.3-0.1 0.6 0 0.7 0.3 0 0 0.3 0.6 0.8 1.4z"/><path class="v" d="m111.1 140.3c0.8 0.6 1.8 1 3 1 0.3 0 0.5 0.3 0.5 0.5q0 0.3-0.2 0.4-0.1 0.1-0.3 0.1-1.7 0-3.1-0.8 0-0.6 0.1-1.2z"/><path class="z" d="m108.3 133.3c1 1 1 2.5 0 3.5-1 1-2.6 0.9-3.5 0-1-1-1-2.6 0-3.6 1-0.9 2.6-0.9 3.5 0.1z"/><path class="A" d="m104.7 136.8c-1-1-0.9-2.6 0.1-3.6 1-1 2.6-1 3.6 0 1 1.1 1 2.7-0.1 3.7-1 0.9-2.6 0.9-3.6-0.1zm0.1-0.1c1 1 2.5 1 3.4 0.1 1-1 1-2.5 0.1-3.5-0.9-0.9-2.5-0.9-3.4 0-1 0.9-1 2.4-0.1 3.4z"/><path class="h" d="m108 133.7c0.8 0.7 0.7 2 0 2.8-0.8 0.7-2.1 0.7-2.9-0.1-0.7-0.8-0.7-2 0.1-2.8 0.8-0.7 2-0.7 2.8 0.1z"/><path class="A" d="m105.1 136.5c-0.8-0.8-0.8-2.1 0-2.9 0.9-0.8 2.2-0.8 2.9 0 0.8 0.8 0.8 2.1 0 2.9-0.8 0.8-2.1 0.8-2.9 0zm0.1-0.1c0.7 0.7 1.9 0.7 2.7 0 0.8-0.7 0.8-1.9 0-2.7-0.7-0.8-1.9-0.8-2.7 0-0.7 0.7-0.7 1.9 0 2.7z"/><path class="B" d="m105.8 135.8c0.4 0.5 1.1 0.5 1.6 0.1 0.4-0.5 0.4-1.2 0-1.6-0.4-0.5-1.2-0.5-1.6-0.1-0.5 0.5-0.5 1.2 0 1.6z"/><path class="C" d="m105.9 135.6c0.4 0.4 0.9 0.4 1.3 0.1 0.3-0.4 0.3-0.9 0-1.3-0.3-0.3-0.9-0.3-1.3 0-0.3 0.3-0.3 0.9 0 1.2z"/><path class="D" d="m106.1 135.5c0.2 0.2 0.7 0.2 0.9 0 0.3-0.3 0.3-0.7 0-0.9-0.2-0.3-0.6-0.3-0.9 0-0.2 0.2-0.2 0.6 0 0.9z"/><path class="h" d="m106.2 134.7c0.2 0.2 0.4 0.2 0.6 0.1 0.1-0.2 0.1-0.4 0-0.6-0.2-0.1-0.4-0.1-0.6 0-0.1 0.1-0.1 0.4 0 0.5z"/><path class="E" d="m105.2 133.6c-0.8 0.8-0.8 2-0.1 2.8 0.8 0.8 2.1 0.8 2.9 0.1 0.7-0.8 0.8-2.1 0-2.8-0.8-0.8-2-0.8-2.8-0.1zm2 2c-0.3 0.5-1.4 1-1.9 0.4-0.5-0.5-0.6-1.2-0.2-1.8 0.3-0.6 1.2-1.1 1.9-0.7 0.7 0.4 0.6 1.4 0.2 2.1z"/><path class="w" d="m142.1 138.4c-1-3.1-5.9-3.2-8.5-3.1-2.7 0.1-13.4 2.3-16.1 3.1-2.4 0.8-6.1 2.2-5.4 5.5 0.4 1.7 2.5 3 4 3.6 1.7 0.6 3.7 0.7 5.6 0.6 5.3-0.4 11.1-1.4 15.9-3.7 1.2-0.6 2.4-1.4 3.4-2.4 1.1-1 1.5-2.4 1.1-3.6z"/><path class="w" d="m142.1 138.4c-1-3.1-5.9-3.2-8.5-3.1-2.7 0.1-13.4 2.3-16.1 3.1-2.4 0.8-6.1 2.2-5.4 5.5 0.4 1.7 2.5 3 4 3.6 1.7 0.6 3.7 0.7 5.6 0.6 5.3-0.4 11.1-1.4 15.9-3.7 1.2-0.6 2.4-1.4 3.4-2.4 1.1-1 1.5-2.4 1.1-3.6zm-4.8 2.8c-1.8 2-4.3 3.2-6.8 4-3.2 1.1-6.5 1.9-9.8 1.6-2.1-0.2-4.4-0.5-6.2-1.6-0.7-0.4-1.4-1.1-1.6-2-0.2-1.1 0.1-2.1 1.1-2.7 1.3-0.8 2.9-1.3 4.4-1.8q1.6-0.6 3.3-1c1.6-0.4 8.4-1.6 10.1-1.8 1.3-0.2 2.7 0 4 0.4 1 0.3 2.1 0.9 2.5 1.9 0.4 1.1-0.2 2.2-1 3z"/><path class="F" d="m138.2 140c-0.4-0.3-1.1 0-1.5 0.2-1 0.4-1.9 1.1-2.8 1.7-2.5 1.9-5.5 3.1-8.7 3.1-4.8 0.1-4.4-1.1-6.6-0.8-0.4 0.1-0.9 0.3-0.8 0.9 0.1 0.6 0.8 0.9 1.2 1.1 1.3 0.7 2.8 0.9 4.2 1 2.3 0.2 5.1-0.4 7.3-1.1 2.1-0.6 4-1.5 5.8-2.8 0.6-0.5 1.3-1.3 1.8-1.9 0.3-0.4 0.5-1 0.1-1.4z"/><path class="F" d="m137.9 140.5c-0.4-0.3-1.1 0-1.4 0.2-1 0.4-1.9 0.9-2.8 1.5-2.5 1.7-5.3 2.8-8.4 2.8-4.5 0.2-4.2-0.8-6.3-0.6-0.4 0.1-0.8 0.3-0.8 0.8 0.1 0.5 0.8 0.8 1.2 0.9 1.2 0.6 2.6 0.8 4 0.8 2.2 0.1 4.9-0.4 7-1 2-0.6 3.8-1.3 5.6-2.6 0.6-0.4 1.3-1.1 1.8-1.6 0.3-0.4 0.5-0.8 0.1-1.2z"/><path class="G" d="m130.1 144.9c-1.1 0.1-2.3 0.2-3.3 0.8-0.7 0.3-1.6 0.6-2.2 1.2 2 0 4.1-0.5 5.8-1q1.3-0.4 2.5-0.9c-1-0.1-2-0.1-2.8-0.1z"/><path class="h" d="m120.2 145.6c0.6 0.4 1-0.3 1.3-0.9-0.8-0.2-1.2-0.4-2-0.3 0.1 0.5 0.3 1 0.7 1.2z"/><path class="h" d="m135.5 142.4c0.3-0.4 0.4-1 0.4-1.5q-0.9 0.5-1.7 1c0.4 0.5 0.9 1 1.3 0.5z"/><path class="h" d="m122.8 145.5c0.3 0.1 0.5-0.2 0.6-0.5q-0.6 0-1.1-0.1c0.2 0.3 0.3 0.5 0.5 0.6z"/><path class="h" d="m132.7 143.5c0.2-0.2 0.2-0.5 0.2-0.8q-0.5 0.4-1.1 0.7c0.2 0.3 0.6 0.5 0.9 0.1z"/><path class="G" d="m126.4 142.6c-0.1-0.2-0.4-0.1-0.5 0-0.1 0.2-0.2 0.5-0.1 0.7q0.1 0.1 0.2 0.1 0.1 0 0.1 0.1c0.2 0 0.4-0.2 0.5-0.4 0-0.2-0.1-0.4-0.2-0.5z"/><path class="G" d="m128.1 142.2c-0.1-0.2-0.3-0.1-0.5 0.1-0.1 0.2-0.1 0.4 0 0.6q0 0.1 0.1 0.1 0.1 0.1 0.1 0.1c0.3 0 0.4-0.2 0.4-0.4 0.1-0.2 0-0.4-0.1-0.5z"/><path class="w" d="m121.4 138.2c-0.4-0.3-5.6 1.4-7 2.5-0.4 0.3-0.7 0.6-0.9 1.1-0.2 0.5-0.3 1.2 0.1 1.6 0.2 0.2 0.4 0.3 0.6 0.1 0.2-0.2 0.2-0.5 0.2-0.7q0-0.6 0.4-1.1c0.4-0.5 1.1-0.8 1.7-1.1q1-0.6 2.1-1c0.7-0.2 1.4-0.4 2.1-0.6 0.3-0.1 0.9-0.3 0.8-0.7q-0.1-0.1-0.1-0.1z"/><path class="w" d="m122.7 137.8c-0.2-0.1-0.4 0-0.5 0.1q0 0-0.1 0.1 0 0.1 0 0.3c0 0.1 0.2 0.1 0.3 0.1q0.2-0.1 0.3-0.3c0.1-0.1 0.1-0.2 0-0.3z"/><path class="w" d="m122.4 157.9c0 0-2.6 3.4-2.5 5.7 0.1 2.4 3.5 3.6 7.2 3.2 0 0-4.9-0.7-5.7-3-0.9-2.7 1-5.9 1-5.9z"/></svg>