<svg width="51" height="92" viewBox="0 0 51 92" fill="none" xmlns="http://www.w3.org/2000/svg">
<path d="M43.5736 24.7209C43.5736 24.7209 49.0239 32.3975 49.8299 39.8436C49.8299 39.8436 50.1503 42.9844 48.579 43.2332C47.0078 43.4841 44.3041 43.1251 43.3185 40.0109C42.3023 36.8109 39.3659 31.8856 37.0928 29.2221L43.5736 24.7209Z" fill="#EBEBEC"/>
<path d="M49.7762 39.3855C49.4192 38.9347 48.9478 38.5391 48.6029 38.2984C48.1254 37.9639 47.6112 37.7376 47.0684 37.6254C45.5299 37.5907 44.0341 38.2128 43.1689 39.569C43.222 39.7199 43.273 39.8688 43.3179 40.0136C44.3055 43.1279 47.0093 43.4848 48.5784 43.236C50.1497 42.9872 49.8293 39.8464 49.8293 39.8464C49.815 39.6914 49.7967 39.5384 49.7762 39.3855Z" fill="#E04DB0"/>
<path d="M45.259 33.389C44.8896 32.5019 44.4162 31.6779 43.9102 30.8723C44.4713 29.7506 44.8794 28.5657 45.2304 27.3542C46.7424 29.9566 48.8503 34.162 49.6257 38.4531C48.5871 37.8698 47.4832 37.5027 46.3262 37.1988C46.1221 35.8915 45.7671 34.6066 45.259 33.389Z" fill="#D9D9DB"/>
<path d="M41.1303 35.2109C41.0508 35.0681 40.9732 34.9254 40.8916 34.7826C42.5098 32.9165 44.6503 31.4746 46.9459 30.5874C47.0745 30.8546 47.203 31.1319 47.3295 31.4114C44.9992 32.0517 42.7893 33.4427 41.1303 35.2109Z" fill="#E04DB0"/>
<path opacity="0.8" d="M43.5736 24.7209C43.5736 24.7209 44.0531 25.3981 44.7489 26.5442C44.6551 27.8413 44.3082 29.118 43.6674 30.252C43.2879 30.923 42.7063 31.7204 42.6553 32.5158C42.6063 33.2663 45.3162 38.5567 45.508 40.7675C45.5672 41.4487 45.5937 42.138 45.6039 42.8253C44.6571 42.3624 43.7899 41.5038 43.3185 40.0129C42.3023 36.813 39.3659 31.8877 37.0928 29.2241L43.5736 24.7209Z" fill="#D9D9DB"/>
<path d="M49.1428 48.3836C48.6183 47.8227 47.9205 47.3536 47.1757 47.1436C46.386 46.9192 45.4453 46.7479 44.6515 47.0701C44.272 47.2231 43.9781 47.5066 43.6822 47.7779C43.4149 45.151 43.3721 40.4133 43.3721 40.4133C43.3721 40.4133 44.2413 37.6947 46.992 38.4248C46.992 38.4248 49.4631 38.8042 49.8263 41.1618C50.0732 42.7648 49.9324 46.2584 49.3795 48.6548C49.3019 48.5569 49.2183 48.4651 49.1428 48.3836Z" fill="#D9D9DB"/>
<path d="M49.1428 48.3836C48.6183 47.8227 47.9205 47.3536 47.1757 47.1436C46.386 46.9192 45.4453 46.7479 44.6515 47.0701C44.272 47.2231 43.9781 47.5066 43.6822 47.7779C43.4149 45.151 43.3721 40.4133 43.3721 40.4133C43.3721 40.4133 44.2413 37.6947 46.992 38.4248C46.992 38.4248 49.4631 38.8042 49.8263 41.1618C50.0732 42.7648 49.9324 46.2584 49.3795 48.6548C49.3019 48.5569 49.2183 48.4651 49.1428 48.3836Z" fill="#D9D9DB"/>
<path d="M43.374 40.4131C43.374 40.4131 43.9168 38.7203 45.4982 38.3655C45.4493 38.4083 45.3982 38.4511 45.3493 38.5001C44.6779 39.1731 44.4045 39.9583 44.4351 40.8965C44.48 42.3853 44.6147 46.5193 44.582 47.1005C44.2351 47.2596 43.9597 47.5227 43.6821 47.7776C43.4148 45.1508 43.374 40.4131 43.374 40.4131Z" fill="#D9D9DB"/>
<path d="M47.1783 47.1414C46.9559 47.0802 46.7212 47.019 46.4804 46.9742L46.1172 39.2731C46.1172 39.2731 46.5028 38.7898 47.8353 39.2262C47.8353 39.2262 49.5372 39.7259 49.729 42.0183C49.884 43.8721 49.4902 46.7478 49.1107 48.3508C48.5883 47.8042 47.9068 47.3494 47.1783 47.1414Z" fill="#EBEBEC"/>
<path d="M43.6603 47.5673C44.6989 46.8718 45.4355 46.2274 46.9802 46.8209C47.7107 47.1023 48.4249 47.5143 49.0289 48.0119C49.7574 48.6135 50.039 49.4273 50.341 50.2941C50.6696 51.2343 50.9511 52.2316 50.8736 53.2391C50.8267 53.8346 50.6512 54.4118 50.4186 54.9583C50.2655 55.3173 50.0349 56.0556 49.5697 56.1127C49.3575 56.1392 49.235 56.0046 49.1697 55.817C49.0881 55.9556 49.0004 56.0882 48.9086 56.2106C48.6249 56.5879 48.2107 56.7143 47.8332 56.4043C47.7434 56.3289 47.6904 56.2351 47.6618 56.131C47.5475 56.2595 47.4251 56.3697 47.2986 56.4451C46.7109 56.7878 46.3354 56.4696 46.4089 55.8394C46.4905 55.1501 46.7721 54.6055 47.0455 53.9855C47.1761 53.6918 47.219 53.3839 47.2149 53.0718C47.1965 53.131 47.1782 53.1901 47.1578 53.2472C46.8578 54.116 46.2599 55.4233 45.3131 55.6926C44.4091 55.9495 44.4622 54.7177 44.6377 54.2262C44.8744 53.5593 45.2968 52.9637 45.562 52.303C45.7702 51.7809 45.9763 51.1812 45.9151 50.6122C45.8702 50.2003 45.5029 49.2356 44.9866 49.8536C44.8254 50.0493 44.756 50.3267 44.7173 50.5694C44.6316 51.1201 45.0274 52.7578 44.2316 52.9495C43.8255 53.0494 43.495 52.6028 43.3317 52.2948C42.8522 51.3872 42.8624 50.2186 43.0277 49.2315C43.1154 48.7257 43.4399 48.0547 43.6603 47.5673Z" fill="#EBEBEC"/>
<path opacity="0.7" d="M48.8011 49.8315C48.2604 49.5439 47.6931 49.3032 47.0891 49.187C47.0565 48.7934 46.9606 48.3814 46.9116 48.0653C46.8422 47.6288 46.7055 47.2168 46.5137 46.8293C46.6422 46.864 46.7749 46.9048 46.9157 46.9578C47.6462 47.2393 48.3604 47.6513 48.9644 48.1509C49.6949 48.7526 49.9744 49.5663 50.2764 50.4311C50.3479 50.635 50.4132 50.841 50.4785 51.049C49.9724 50.5412 49.3419 50.119 48.8011 49.8315Z" fill="#EBEBEC"/>
<path d="M37.4493 20.9568C37.4493 20.9568 41.7141 21.6074 44.273 23.7243C46.8338 25.8393 40.5163 34.766 38.188 32.0189C35.8598 29.2717 36.5168 20.7732 37.4493 20.9568Z" fill="#EBEBEC"/>
<path d="M40.2317 32.3004C40.3521 31.864 40.4398 31.4336 40.5153 31.1053C40.7928 29.9183 41.0051 28.7436 41.0336 27.5199C41.0826 25.5008 41.0846 23.4369 40.1541 21.6258C38.6462 21.1384 37.4484 20.9548 37.4484 20.9548C36.5158 20.7713 35.8588 29.2677 38.1871 32.0149C38.7135 32.639 39.4461 32.6614 40.2317 32.3004Z" fill="#D9D9DB"/>
<path d="M42.0533 22.7371C42.0533 22.7371 44.4958 23.3285 44.5815 25.3149C44.6672 27.2994 42.7838 29.7304 41.5615 30.9908C41.5615 30.9908 44.0755 27.9234 44.0796 25.9553C44.0836 23.9873 42.0533 22.7371 42.0533 22.7371Z" fill="#EBEBEC"/>
<path d="M47.4536 50.3414C47.4516 50.3129 47.4964 50.3374 47.4964 50.3557C47.6148 51.5549 47.5332 52.7133 46.9496 53.7922C46.9455 53.7983 46.9312 53.7881 46.9353 53.782C47.3556 52.7052 47.5026 51.4856 47.4536 50.3414Z" fill="#B1B2B4"/>
<path d="M47.5316 56.1766C48.66 54.6408 49.1987 52.6626 48.8416 50.7699C48.8396 50.7557 48.862 50.7679 48.8661 50.7781C49.4191 52.4525 48.8784 54.9876 47.5847 56.2235C47.5642 56.2398 47.5153 56.201 47.5316 56.1766Z" fill="#B1B2B4"/>
<path d="M43.0304 49.2315C43.1161 48.7257 43.4405 48.0547 43.6609 47.5673C44.6996 46.8718 45.4362 46.2274 46.9809 46.8209C46.985 46.8229 46.9911 46.8249 46.9952 46.827C46.0912 46.674 44.8383 46.5129 44.6547 47.5612C44.5894 47.9466 44.6894 48.8562 45.2097 48.9215C46.3075 49.0622 46.5626 50.704 46.2524 51.6055C46.0096 52.3172 45.8933 52.6435 45.675 53.6409C45.5811 54.0651 45.9933 54.4444 46.4055 54.1283C46.8789 53.7632 47.0952 53.1657 47.2584 52.6089C47.4461 51.9726 47.4951 51.2404 47.5155 50.5776C47.742 51.428 47.7012 52.4335 47.4788 53.2758C47.3727 53.6735 47.0217 54.6035 47.4013 54.9604C47.8706 55.405 48.4195 54.4995 48.5542 54.167C48.9072 53.2982 48.9296 52.4457 48.9357 51.5545C49.1582 52.4518 49.1582 53.3716 48.8133 54.2874C48.7562 54.4383 48.2726 55.5641 48.846 55.507C49.4683 55.4458 49.8356 54.3628 49.9846 53.8652C50.1887 53.1881 50.2621 52.5008 50.2662 51.8033C50.4152 52.5518 50.4029 53.3329 50.2111 54.0732C50.0989 54.5056 49.7907 54.9828 49.854 55.4376C49.8764 55.6008 49.9825 55.662 50.107 55.6681C49.9744 55.8965 49.803 56.0841 49.5765 56.1106C49.3643 56.1372 49.2418 56.0026 49.1765 55.8149C49.0949 55.9536 49.0072 56.0862 48.9153 56.2085C48.6317 56.5858 48.2175 56.7123 47.84 56.4023C47.7502 56.3268 47.6971 56.233 47.6686 56.129C47.5543 56.2575 47.4319 56.3676 47.3054 56.4431C46.7177 56.7857 46.3422 56.4676 46.4157 55.8374C46.4973 55.148 46.7789 54.6035 47.0523 53.9835C47.1829 53.6898 47.2258 53.3818 47.2217 53.0698C47.2033 53.1289 47.185 53.1881 47.1646 53.2452C46.8646 54.114 46.2667 55.4213 45.3199 55.6905C44.4159 55.9475 44.469 54.7156 44.6445 54.2241C44.8812 53.5572 45.3036 52.9617 45.5688 52.3009C45.777 51.7788 45.9831 51.1792 45.9219 50.6102C45.877 50.1982 45.5097 49.2335 44.9934 49.8515C44.8322 50.0473 44.7628 50.3247 44.7241 50.5674C44.6383 51.118 45.0342 52.7557 44.2384 52.9474C43.8323 53.0474 43.5018 52.6007 43.3385 52.2928C42.8549 51.3872 42.8651 50.2186 43.0304 49.2315Z" fill="#EBEBEC"/>
<path d="M49.9624 53.9343C50.1318 53.3531 50.2318 52.7208 50.2481 52.0947C50.2583 52.5332 50.2134 52.9778 50.1808 53.351C50.1706 53.4571 50.1583 53.5591 50.1461 53.6631C49.9441 54.4462 49.5972 55.1906 49.1462 55.8392C49.138 55.8514 49.1136 55.831 49.1176 55.8188C49.3809 55.1764 49.7584 54.6216 49.9624 53.9343Z" fill="#B1B2B4"/>
<path d="M8.04462 15.892C7.57529 15.2944 7.06924 14.8722 6.55706 14.5806C5.77961 15.017 5.04297 15.6248 4.52671 16.151C3.5901 17.1054 2.76979 18.3434 2.76367 19.6935C6.42034 25.7222 13.1909 30.2947 13.1909 30.2947L17.6719 23.801C14.605 22.1083 10.1219 18.531 8.04462 15.892Z" fill="#EBEBEC"/>
<path d="M10.059 18.0659C9.88763 19.3467 9.43463 20.5418 8.26744 21.3311C7.23084 22.0307 5.6739 22.5364 4.44141 22.1122C8.16949 26.905 13.1913 30.2966 13.1913 30.2966L17.6723 23.803C15.393 22.5426 12.3342 20.2461 10.059 18.0659Z" fill="#EBEBEC"/>
<path d="M8.04321 15.892C7.57389 15.2944 7.06783 14.8722 6.55566 14.5806C5.77821 15.017 5.04156 15.6248 4.5253 16.151C3.69072 17.0014 2.95204 18.0762 2.79492 19.2571C2.97449 19.7955 3.27445 20.2911 3.71521 20.6623C4.57224 21.3863 5.46192 21.3781 6.50873 21.4985C7.79427 21.6473 11.0755 25.1715 11.0898 26.3952C11.1 27.3069 11.1714 28.1206 11.3346 28.9119C12.4508 29.793 13.1895 30.2927 13.1895 30.2927L17.6705 23.799C14.6036 22.1083 10.1205 18.531 8.04321 15.892Z" fill="#D9D9DB"/>
<path d="M7.15354 21.1905C8.57172 20.7133 10.0001 19.7812 10.3409 18.3312C9.43895 17.4868 8.63905 16.6506 8.04321 15.892C7.57389 15.2944 7.06783 14.8722 6.55566 14.5806C5.77821 15.017 5.04156 15.6248 4.5253 16.151C3.69072 17.0014 2.95204 18.0762 2.79492 19.2571C2.95613 19.7425 3.22344 20.1912 3.5989 20.5481C4.57836 21.3047 6.10673 21.5454 7.15354 21.1905Z" fill="#D9D9DB"/>
<path d="M11.786 19.6179C11.9105 19.724 12.035 19.83 12.1615 19.9361C11.3024 22.2509 9.80668 24.3515 7.97018 25.9892C7.75592 25.7832 7.53963 25.5711 7.32129 25.3529C9.27614 23.9334 10.8535 21.8552 11.786 19.6179Z" fill="#E04DB0"/>
<path d="M20.2478 31.6634C20.2478 31.6634 16.0279 32.5547 12.8875 31.4738C9.74504 30.3928 12.5161 19.8161 15.6626 21.5701C18.8092 23.324 21.1864 31.5084 20.2478 31.6634Z" fill="#EBEBEC"/>
<path d="M15.3123 31.6161C15.3123 31.6161 12.8188 31.922 12.0393 30.0946C11.2598 28.2673 12.1658 25.3284 12.8657 23.7192C12.8657 23.7192 11.5924 27.4759 12.2821 29.3196C12.9718 31.1613 15.3123 31.6161 15.3123 31.6161Z" fill="#EBEBEC"/>
<path opacity="0.5" d="M4.22852 21.3213C4.22852 21.3213 7.51585 25.5838 10.7889 28.0679C10.7889 28.0679 10.9379 27.4785 10.4196 26.7422C9.90329 26.006 6.24458 22.1901 6.24458 22.1901L4.22852 21.3213Z" fill="#EBEBEC"/>
<path d="M15.7625 43.288C15.7625 43.288 14.8096 44.5423 14.8667 46.5776C14.9218 48.611 25.5551 52.3493 28.2915 52.8694C31.0259 53.3895 40.4981 47.8992 40.3981 45.7904C40.3002 43.6796 39.9737 42.7965 38.6922 42.7638C37.4148 42.7312 15.7625 43.288 15.7625 43.288Z" fill="#EBEBEC"/>
<path d="M16.8992 47.6733C16.6992 46.1967 16.738 44.7344 16.7339 43.2639C16.1156 43.2802 15.7606 43.2884 15.7606 43.2884C15.7606 43.2884 14.8076 44.5427 14.8648 46.5781C14.8811 47.1552 15.7483 47.869 17.0461 48.6094C16.991 48.2953 16.9421 47.9833 16.8992 47.6733Z" fill="#EBEBEC"/>
<path d="M38.6946 42.7639C38.562 42.7619 38.209 42.7639 37.6846 42.7721C37.6887 42.8006 37.6927 42.8271 37.6968 42.8557C37.807 43.7062 37.8907 44.5709 37.8866 45.4295C37.8825 46.5614 37.7723 47.6892 37.7213 48.8191C39.3129 47.6648 40.4352 46.5227 40.4005 45.7905C40.3006 43.6796 39.9741 42.7966 38.6946 42.7639Z" fill="#EBEBEC"/>
<path d="M39.6838 22.1899C38.739 19.7221 30.3054 19.7405 30.3054 19.7405L27.518 19.8343L24.7286 19.7935C24.7286 19.7935 16.297 19.9322 15.3992 22.4183C14.5013 24.9044 14.7442 42.7498 15.8461 44.2264C16.6011 45.2379 20.5434 46.4249 24.853 46.9572C25.8203 47.0776 26.712 47.0674 27.6853 47.1122C28.6587 47.051 29.7361 47.0408 30.7013 46.9022C34.9987 46.2903 38.9186 45.0299 39.6552 44.0041C40.7224 42.5051 40.6285 24.6597 39.6838 22.1899Z" fill="#D3D4D5"/>
<path d="M39.0131 22.057C38.1193 19.7259 30.153 19.7422 30.153 19.7422L27.5187 19.8299L24.8843 19.7911C24.8843 19.7911 16.918 19.9237 16.0691 22.2732C15.2203 24.6206 15.4509 41.4789 16.4915 42.8739C17.2057 43.8324 20.9297 44.9521 24.9986 45.4538C25.9128 45.566 26.7555 45.5578 27.6738 45.5986C28.592 45.5395 29.6102 45.5313 30.5224 45.4008C34.5831 44.8216 38.2846 43.6305 38.9804 42.6618C39.9926 41.2484 39.9048 24.3881 39.0131 22.057Z" fill="#EBEBEC"/>
<path opacity="0.5" d="M28.2783 45.5863C24.9277 45.7209 21.4894 44.9847 18.7428 42.9799C17.0247 41.7256 15.8636 40.1512 15.0352 38.3687C15.2004 41.3708 15.4739 43.7304 15.8453 44.228C16.6003 45.2396 20.5426 46.4266 24.8522 46.9589C25.8195 47.0792 26.7112 47.069 27.6845 47.1139C28.6579 47.0527 29.7353 47.0425 30.7005 46.9038C34.9979 46.292 38.9178 45.0316 39.6544 44.0058C39.938 43.6101 40.138 42.0825 40.2645 40.0002C37.573 43.6325 32.7349 45.4089 28.2783 45.5863Z" fill="#D9D9DB"/>
<path d="M27.7063 24.5088C30.0815 24.4333 32.4526 23.9071 34.6728 23.0628C35.9297 22.5855 37.4295 22.0369 38.3621 20.9968C35.7257 19.7282 30.306 19.7405 30.306 19.7405L27.5186 19.8343L24.7292 19.7935C24.7292 19.7935 19.689 19.8771 16.9873 21.0641C19.7645 23.6685 23.9925 24.6271 27.7063 24.5088Z" fill="#C9CACC"/>
<path d="M19.5556 15.3497C19.5719 17.1465 18.1292 18.617 16.3294 18.6353C14.5317 18.6516 13.0605 17.2077 13.0421 15.413L13.0197 13.1287C13.0033 11.3299 14.4481 9.86151 16.2458 9.84315C18.0435 9.82684 19.5168 11.2687 19.5331 13.0676L19.5556 15.3497Z" fill="#EBEBEC"/>
<path d="M19.2278 15.2398C19.2421 16.8592 17.9423 18.1828 16.3221 18.1991C14.7039 18.2134 13.3776 16.9142 13.3633 15.2949L13.3429 13.2391C13.3286 11.6218 14.6284 10.2961 16.2486 10.2819C17.8688 10.2676 19.1931 11.5667 19.2074 13.184L19.2278 15.2398Z" fill="#C7C8CA"/>
<path d="M15.3743 11.9988C15.3784 12.3659 15.0825 12.6658 14.7173 12.6698C14.35 12.6739 14.05 12.3782 14.0459 12.0131C14.0419 11.646 14.3377 11.3462 14.703 11.3421C15.0703 11.336 15.3703 11.6317 15.3743 11.9988Z" fill="#2A416F"/>
<path d="M14.7655 11.7659C14.7655 11.8658 14.6879 11.9474 14.5859 11.9474C14.4859 11.9474 14.4043 11.8679 14.4043 11.7679C14.4043 11.668 14.4839 11.5864 14.5839 11.5864C14.6839 11.5864 14.7655 11.666 14.7655 11.7659Z" fill="white"/>
<path d="M14.4065 12.148C14.4065 12.1949 14.3698 12.2316 14.3249 12.2316C14.2779 12.2316 14.2412 12.1949 14.2412 12.15C14.2412 12.1031 14.2779 12.0664 14.3249 12.0664C14.3698 12.0664 14.4065 12.1031 14.4065 12.148Z" fill="white"/>
<path d="M15.2777 14.7915C15.2817 15.1586 14.9859 15.4584 14.6186 15.4625C14.2513 15.4666 13.9513 15.1709 13.9493 14.8058C13.9452 14.4387 14.239 14.1389 14.6063 14.1348C14.9736 14.1307 15.2736 14.4265 15.2777 14.7915Z" fill="#2A416F"/>
<path d="M14.6688 14.5586C14.6688 14.6586 14.5892 14.7401 14.4892 14.7422C14.3892 14.7422 14.3097 14.6626 14.3076 14.5627C14.3076 14.4628 14.3872 14.3812 14.4872 14.3792C14.5872 14.3792 14.6688 14.4607 14.6688 14.5586Z" fill="white"/>
<path d="M14.3099 14.942C14.3099 14.9889 14.2752 15.0256 14.2283 15.0256C14.1813 15.0256 14.1446 14.9889 14.1426 14.944C14.1426 14.8992 14.1793 14.8604 14.2262 14.8604C14.2732 14.8584 14.3099 14.8971 14.3099 14.942Z" fill="white"/>
<path d="M16.2461 9.84315C15.8951 9.84723 15.5584 9.90638 15.2401 10.0124C14.8034 11.4503 14.7279 12.9697 14.8483 14.4748C14.9197 15.3599 14.983 16.2491 15.1013 17.1302C15.1605 17.5687 15.2095 18.0276 15.2972 18.4762C15.6217 18.5802 15.9665 18.6394 16.3277 18.6353C18.1275 18.617 19.5702 17.1485 19.5538 15.3497L19.5314 13.0655C19.5171 11.2687 18.0459 9.82684 16.2461 9.84315Z" fill="#C9CACC"/>
<path d="M35.3947 15.2005C35.413 16.9973 36.8843 18.4412 38.682 18.4229C40.4797 18.4065 41.9244 16.9361 41.9081 15.1393L41.8857 12.8551C41.8673 11.0583 40.396 9.61439 38.5983 9.63274C36.8006 9.64906 35.3559 11.1195 35.3722 12.9163L35.3947 15.2005Z" fill="#EBEBEC"/>
<path d="M35.7178 15.0843C35.7341 16.7037 37.0584 18.0028 38.6766 17.9885C40.2968 17.9722 41.5966 16.6486 41.5823 15.0313L41.5619 12.9755C41.5456 11.3582 40.2213 10.0591 38.6031 10.0734C36.9829 10.0897 35.6831 11.4133 35.6974 13.0306L35.7178 15.0843Z" fill="#C7C8CA"/>
<path d="M39.5137 11.7706C39.5178 12.1377 39.8177 12.4313 40.183 12.4293C40.5503 12.4252 40.8442 12.1254 40.8421 11.7583C40.838 11.3912 40.5381 11.0975 40.1728 11.1016C39.8035 11.1036 39.5096 11.4034 39.5137 11.7706Z" fill="#2A416F"/>
<path d="M40.1182 11.5258C40.1182 11.6257 40.2019 11.7052 40.2998 11.7052C40.3998 11.7032 40.4794 11.6236 40.4794 11.5237C40.4773 11.4238 40.3978 11.3442 40.2978 11.3442C40.1957 11.3463 40.1162 11.4279 40.1182 11.5258Z" fill="white"/>
<path d="M40.4795 11.9029C40.4795 11.9478 40.5183 11.9845 40.5631 11.9845C40.6101 11.9845 40.6468 11.9458 40.6448 11.9009C40.6448 11.854 40.606 11.8193 40.5611 11.8193C40.5162 11.8193 40.4795 11.856 40.4795 11.9029Z" fill="white"/>
<path d="M39.6592 14.5628C39.6633 14.9299 39.9632 15.2236 40.3305 15.2216C40.6958 15.2175 40.9917 14.9177 40.9876 14.5506C40.9835 14.1835 40.6836 13.8898 40.3183 13.8919C39.951 13.8959 39.6571 14.1937 39.6592 14.5628Z" fill="#2A416F"/>
<path d="M40.2657 14.3177C40.2657 14.4177 40.3473 14.4972 40.4473 14.4972C40.5472 14.4972 40.6268 14.4156 40.6248 14.3157C40.6248 14.2158 40.5432 14.1362 40.4432 14.1362C40.3452 14.1362 40.2636 14.2178 40.2657 14.3177Z" fill="white"/>
<path d="M40.6279 14.6935C40.6279 14.7404 40.6667 14.7771 40.7116 14.7751C40.7565 14.7751 40.7932 14.7363 40.7932 14.6914C40.7932 14.6445 40.7565 14.6099 40.7096 14.6099C40.6647 14.6099 40.6279 14.6486 40.6279 14.6935Z" fill="white"/>
<path d="M38.5983 9.63278C38.9493 9.6287 39.288 9.68376 39.6063 9.7837C40.0716 11.2134 40.1716 12.7307 40.0818 14.2379C40.0287 15.1251 39.9818 16.0163 39.8798 16.8974C39.8288 17.3359 39.79 17.7968 39.7084 18.2455C39.386 18.3576 39.0391 18.4209 38.6799 18.4249C36.8822 18.4433 35.4089 16.9994 35.3926 15.2026L35.3722 12.9184C35.3559 11.1196 36.8006 9.6491 38.5983 9.63278Z" fill="#C9CACC"/>
<path d="M28.8054 0.0920219C28.3034 0.0349167 27.7872 0.00636336 27.2525 0.00840283C26.72 0.0165607 26.2037 0.0553082 25.7038 0.120571C19.1332 0.981228 15.4377 6.54491 15.4908 12.1453C15.552 18.5003 16.3091 21.0925 22.0961 22.8546C23.351 23.238 25.4487 23.6132 27.579 23.5011C29.7114 23.5725 31.5928 23.1584 32.8396 22.7505C38.5919 20.8804 39.302 18.2739 39.2408 11.9189C39.1898 6.32261 35.3902 0.828271 28.8054 0.0920219Z" fill="#EBEBEC"/>
<path d="M16.2363 18.3121C17.0444 20.5024 18.7074 21.822 22.0988 22.854C23.3538 23.2374 25.4514 23.6126 27.5818 23.5005C29.7142 23.5718 31.5955 23.1578 32.8423 22.7499C36.4337 21.5813 38.06 20.1272 38.7599 17.6533C31.5772 15.1753 23.3538 15.6852 16.2363 18.3121Z" fill="#D9D9DB"/>
<path opacity="0.5" d="M17.1412 8.97845C17.584 9.11509 17.6697 8.50325 17.8391 8.17082C18.2329 7.39174 18.6696 6.63102 19.192 5.92944C20.1449 4.64457 21.2835 3.54938 22.6731 2.75398C22.4038 2.25023 22.0549 1.80971 21.6835 1.3855C18.8145 2.90083 16.8759 5.51542 16.0107 8.45634C16.3719 8.66233 16.7474 8.85812 17.1412 8.97845Z" fill="#C9CACC"/>
<path opacity="0.5" d="M35.6511 5.95095C35.9592 6.48733 36.2489 7.02983 36.5203 7.58253C36.5326 7.57233 36.5448 7.56214 36.555 7.55398C37.008 7.17872 37.4753 6.82385 37.9324 6.45674C37.1856 4.95365 36.1347 3.60148 34.794 2.53076C34.4839 2.88155 34.1676 3.22826 33.8574 3.57905C34.5063 4.32345 35.147 5.07194 35.6511 5.95095Z" fill="#C9CACC"/>
<path d="M37.3353 12.5878C37.3843 17.8129 32.9644 22.0897 27.4652 22.1427C21.9638 22.1937 17.4644 18.0006 17.4154 12.7754C17.3665 7.54828 21.7843 3.2715 27.2856 3.21848C32.7869 3.16749 37.2843 7.36064 37.3353 12.5878Z" fill="#C9CACC"/>
<path d="M36.7261 12.0208C36.773 16.9298 32.6185 20.9496 27.4518 20.9986C22.2831 21.0475 18.0571 17.1073 18.0102 12.1962C17.9632 7.28721 22.1178 3.26742 27.2845 3.21847C32.4532 3.16952 36.6792 7.10978 36.7261 12.0208Z" fill="url(#paint0_radial_812_38946)"/>
<path d="M35.6732 8.00458C36.1691 9.16912 36.4058 10.4397 36.2629 11.8123C35.9344 14.9939 33.4735 17.5167 30.4841 18.412C27.7579 19.2278 24.3339 19.2115 21.8158 17.741C17.9918 15.5078 17.6286 10.9129 19.4631 7.36011C18.5285 8.75918 17.9919 10.4173 18.0102 12.1957C18.0572 17.1047 22.2852 21.045 27.4518 20.9981C32.6206 20.9491 36.7731 16.9293 36.7261 12.0203C36.7139 10.5702 36.3323 9.20787 35.6732 8.00458Z" fill="url(#paint1_radial_812_38946)"/>
<path d="M19.3115 13.9543C19.387 14.4744 19.4952 14.9884 19.6482 15.4819C19.7768 15.9 19.9359 16.2997 20.1175 16.6852C20.5297 17.036 20.9623 17.3684 21.4194 17.6825C22.152 18.1862 22.911 18.6716 23.7171 19.0469C22.9417 17.8375 22.4091 16.4588 22.1397 15.0353C21.1807 14.7089 20.2216 14.3908 19.3115 13.9543Z" fill="url(#paint2_radial_812_38946)"/>
<path d="M26.6578 3.99163C24.0174 4.36077 21.4197 5.78432 20.177 8.22761C19.4792 9.59813 19.1629 11.1746 19.2037 12.7348C20.0485 13.0693 20.9443 13.3242 21.8013 13.5812C21.8544 13.5975 21.9095 13.6139 21.9625 13.6281C21.9115 12.8287 21.9401 12.0292 22.0605 11.2501C22.3951 9.08011 23.395 7.00596 25.1499 5.63544C26.111 4.88287 27.2373 4.27307 28.427 3.90393C27.8332 3.88557 27.2414 3.90801 26.6578 3.99163Z" fill="url(#paint3_radial_812_38946)"/>
<path d="M34.1097 26.7238L32.2976 26.7401L22.6948 26.8298L20.8828 26.8461C19.0892 26.8645 18.8076 28.2513 18.6035 29.3547L18.6647 35.7342L18.7117 40.7349L18.7137 40.9185H18.7504C18.9749 41.9811 19.3422 43.2149 21.0379 43.2007L22.8499 43.1843L32.4527 43.0946L34.2647 43.0763C35.9604 43.0599 36.3053 41.8199 36.5093 40.7513H36.5461L36.544 40.5657L36.4971 35.5649L36.4359 29.1854C36.2114 28.0882 35.9033 26.7075 34.1097 26.7238Z" fill="#C6C8D0"/>
<path d="M33.8087 26.9865L32.1048 27.0008L23.0693 27.0864L21.3654 27.1027C19.6758 27.119 19.4126 28.4243 19.2188 29.4624L19.2759 35.4666L19.3208 40.1717V40.345H19.3555C19.5677 41.3444 19.9125 42.5069 21.5083 42.4905L23.2121 42.4742L32.2477 42.3886L33.9536 42.3723C35.5493 42.358 35.8717 41.1914 36.0655 40.1859H36.1002L36.0982 40.0126L36.0533 35.3075L35.9962 29.3033C35.786 28.2713 35.4983 26.9702 33.8087 26.9865Z" fill="#EBEBEC"/>
<path d="M34.4102 37.1338L34.0164 37.1379L31.9269 37.1583L31.533 37.1624C31.1413 37.1665 31.08 37.4683 31.0352 37.709L31.0494 39.0978L31.0596 40.1869V40.2257H31.0678C31.1168 40.4582 31.1964 40.7253 31.5677 40.7233L31.9616 40.7192L34.0511 40.7009L34.447 40.6968C34.8163 40.6927 34.8918 40.4235 34.9367 40.191H34.9448V40.1522L34.9346 39.0632L34.9204 37.6743C34.8673 37.4316 34.8 37.1298 34.4102 37.1338Z" fill="#C7C8CA"/>
<path d="M34.2168 37.3069L33.876 37.311L32.0681 37.3293L31.7273 37.3334C31.3886 37.3375 31.3356 37.5985 31.2988 37.8066L31.309 39.0078L31.3172 39.9501V39.9847H31.3233C31.3662 40.1846 31.4355 40.4171 31.7539 40.415L32.0946 40.411L33.9026 40.3947L34.2433 40.3906C34.5617 40.3865 34.629 40.154 34.6657 39.9541H34.6739V39.9195L34.6657 38.9772L34.6535 37.776C34.6127 37.5639 34.5555 37.3049 34.2168 37.3069Z" fill="#EBEBEC"/>
<path d="M33.966 37.5369L33.6946 37.5389L32.2539 37.5532L31.9825 37.5553C31.7132 37.5593 31.6703 37.6348 31.6377 37.6939L31.6418 38.0407L31.6438 38.3139V38.3241H31.6499C31.6826 38.3813 31.7357 38.4486 31.9907 38.4465L32.2621 38.4445L33.7027 38.4322L33.9741 38.4282C34.2272 38.4241 34.2823 38.3568 34.3129 38.2997H34.319V38.2895L34.3169 38.0182L34.3149 37.6715C34.2802 37.6103 34.2353 37.5349 33.966 37.5369Z" fill="#EBEBEC"/>
<path d="M33.8269 28.1693L33.0596 28.1774L28.9887 28.2162L28.2215 28.2243C28.048 28.2264 27.546 28.2304 27.3726 28.2325L26.6054 28.2406L22.5345 28.2794L21.7672 28.2876C21.0061 28.2937 20.8836 28.6751 20.7959 28.9769L20.8122 30.7206L20.8265 32.0871V32.1381H20.8408C20.9347 32.4277 21.0897 32.7642 21.808 32.7581L22.5773 32.7499L26.6462 32.7112L27.4154 32.703C27.5889 32.701 28.0909 32.6969 28.2643 32.6949L29.0316 32.6887L33.1025 32.65L33.8717 32.6439C34.59 32.6357 34.7369 32.2972 34.8267 32.0055H34.841V31.9545L34.8288 30.5881L34.8104 28.8423C34.7145 28.5405 34.588 28.1631 33.8269 28.1693Z" fill="#EBEBEC"/>
<path d="M30.1719 37.1721L29.7781 37.1762L27.6886 37.1966L27.2948 37.2007C26.903 37.2048 26.8418 37.5086 26.7969 37.7473L26.8112 39.1361L26.8214 40.2252V40.266H26.8295C26.8785 40.4965 26.9581 40.7657 27.3274 40.7616L27.7212 40.7575L29.8108 40.7392L30.2046 40.7351C30.5739 40.731 30.6494 40.4618 30.6943 40.2293H30.7025V40.1885L30.6923 39.1015L30.678 37.7126C30.6311 37.4699 30.5637 37.1701 30.1719 37.1721Z" fill="#C7C8CA"/>
<path d="M29.9806 37.3467L29.6398 37.3508L27.8319 37.3671L27.4911 37.3712C27.1524 37.3752 27.0993 37.6363 27.0605 37.8443L27.0728 39.0456L27.081 39.9878V40.0225H27.0891C27.132 40.2223 27.2013 40.4548 27.5197 40.4508L27.8604 40.4467L29.6684 40.4304L30.0091 40.4263C30.3295 40.4243 30.3948 40.1897 30.4315 39.9898H30.4397V39.9531L30.4295 39.0129L30.4173 37.8117C30.3764 37.6037 30.3193 37.3447 29.9806 37.3467Z" fill="#EBEBEC"/>
<path d="M29.7296 37.5778L29.4582 37.5819L28.0196 37.5941L27.7461 37.5982C27.4788 37.6002 27.4339 37.6777 27.4033 37.7369L27.4074 38.0836L27.4094 38.3548V38.365H27.4156C27.4482 38.4221 27.5013 38.4894 27.7563 38.4874L28.0277 38.4833L29.4684 38.469L29.7398 38.465C29.9928 38.4629 30.0458 38.3956 30.0764 38.3365H30.0826V38.3263L30.0785 38.055L30.0744 37.7083C30.0438 37.6492 29.9989 37.5737 29.7296 37.5778Z" fill="#EBEBEC"/>
<path d="M29.4515 34.9164C29.4556 35.4038 29.0658 35.7995 28.5781 35.8056C28.0925 35.8097 27.6946 35.4201 27.6905 34.9327C27.6844 34.4473 28.0762 34.0476 28.5618 34.0435C29.0495 34.0394 29.4474 34.431 29.4515 34.9164Z" fill="#D9D9DB"/>
<path d="M31.888 34.8937C31.8941 35.3791 31.5023 35.7768 31.0147 35.7809C30.527 35.785 30.1311 35.3955 30.127 34.908C30.1209 34.4226 30.5127 34.0229 30.9983 34.0188C31.486 34.0168 31.8839 34.4063 31.888 34.8937Z" fill="#D9D9DB"/>
<path d="M34.3246 34.8715C34.3307 35.3569 33.9389 35.7545 33.4512 35.7607C32.9656 35.7647 32.5677 35.3752 32.5616 34.8878C32.5575 34.4024 32.9472 34.0026 33.4349 33.9986C33.9226 33.9945 34.3205 34.384 34.3246 34.8715Z" fill="#D9D9DB"/>
<path d="M25.9603 33.6571L20.8916 33.7039L20.9591 41.0072L26.0278 40.9604L25.9603 33.6571Z" fill="#D9D9DB"/>
<path d="M22.6223 34.3208L21.2939 34.3328L21.3059 35.6605L22.6343 35.6485L22.6223 34.3208Z" fill="#EBEBEC"/>
<path d="M24.093 34.3071L22.7646 34.3198L22.7774 35.6475L24.1058 35.6348L24.093 34.3071Z" fill="#EBEBEC"/>
<path d="M25.5667 34.2946L24.2383 34.3074L24.251 35.6351L25.5794 35.6223L25.5667 34.2946Z" fill="#EBEBEC"/>
<path d="M22.637 35.8811L21.3086 35.8938L21.3213 37.2215L22.6497 37.2088L22.637 35.8811Z" fill="#EBEBEC"/>
<path d="M24.1007 35.8519L22.7725 35.8655L22.786 37.193L24.1143 37.1795L24.1007 35.8519Z" fill="#EBEBEC"/>
<path d="M25.5888 37.1765L24.2583 37.1887L24.2461 35.861L25.5765 35.8508L25.5888 37.1765Z" fill="#EBEBEC"/>
<path d="M22.6507 37.4678L21.3223 37.4797L21.3342 38.8074L22.6626 38.7955L22.6507 37.4678Z" fill="#EBEBEC"/>
<path d="M24.1253 37.4536L22.7969 37.4663L22.8096 38.794L24.1379 38.7813L24.1253 37.4536Z" fill="#EBEBEC"/>
<path d="M25.5979 37.4415L24.2695 37.4534L24.2814 38.7811L25.6098 38.7692L25.5979 37.4415Z" fill="#EBEBEC"/>
<path d="M22.6653 39.0288L21.3369 39.0415L21.3496 40.3692L22.678 40.3565L22.6653 39.0288Z" fill="#EBEBEC"/>
<path d="M24.1389 39.0142L22.8105 39.0269L22.8232 40.3546L24.1516 40.3419L24.1389 39.0142Z" fill="#EBEBEC"/>
<path d="M25.6116 39.0021L24.2832 39.0139L24.2951 40.3416L25.6235 40.3297L25.6116 39.0021Z" fill="#EBEBEC"/>
<path d="M33.7101 28.7103L33.1266 28.7164L30.0372 28.745L29.4536 28.7511C29.3209 28.7511 28.9414 28.7552 28.8087 28.7572L28.2251 28.7633L25.1337 28.7919L24.5501 28.798C23.9726 28.8041 23.8808 29.0917 23.8135 29.3221L23.8257 30.6458L23.8359 31.6839V31.7226H23.8461C23.9175 31.9429 24.0359 32.1978 24.5807 32.1937L25.1643 32.1896L28.2557 32.159L28.8394 32.155C28.9699 32.155 29.3515 32.1489 29.4842 32.1489L30.0678 32.1407L33.1592 32.1121L33.7428 32.106C34.2897 32.0999 34.4019 31.8429 34.4692 31.6206H34.4815V31.5819L34.4713 30.5438L34.457 29.2202C34.3876 28.9917 34.2876 28.7042 33.7101 28.7103Z" fill="url(#paint4_linear_812_38946)"/>
<path d="M28.7995 30.4533C30.1238 30.4125 31.4644 30.3044 32.7459 29.9475C33.1928 29.8231 33.6805 29.6885 34.1212 29.4805L34.1192 29.2969C34.0519 29.0828 33.9621 28.8136 33.4213 28.8197L24.8469 28.8992C24.3062 28.9033 24.2205 29.1746 24.1572 29.3887L24.1593 29.6273C25.4122 30.5655 27.3242 30.4982 28.7995 30.4533Z" fill="#6B6C6F"/>
<path d="M17.7472 43.2842C17.7472 43.2842 16.5739 32.2098 17.286 28.1329C17.286 28.1329 17.5738 26.0078 18.7879 25.6081C20.002 25.2083 26.0971 25.9711 26.0971 25.9711L19.9041 26.2627C19.9041 26.2627 18.2798 26.3851 17.988 28.8794C17.6717 31.5878 17.8921 31.3798 17.7472 43.2842Z" fill="#EBEBEC"/>
<path d="M37.4849 43.0968C37.4849 43.0968 38.4481 32.0021 37.6604 27.9395C37.6604 27.9395 37.3319 25.8205 36.1116 25.4432C34.8893 25.0659 28.8105 25.9428 28.8105 25.9428L35.0077 26.1182C35.0077 26.1182 36.6361 26.208 36.9748 28.6961C37.34 31.4025 37.1156 31.1985 37.4849 43.0968Z" fill="#EBEBEC"/>
<path d="M26.0864 78.0061L17.2528 78.8178C17.1181 79.7723 15.9489 80.7268 13.137 83.5861C10.4476 86.321 11.525 90.0472 11.5291 90.0594C11.574 90.296 11.6495 90.5305 11.7637 90.761C12.7003 92.6454 20.2381 91.8439 20.4728 91.7256C24.0968 90.5366 26.0904 85.9274 26.3251 83.7656C26.5598 81.6037 26.0864 78.0061 26.0864 78.0061Z" fill="#BEBFC1"/>
<path d="M23.9583 88.2815C23.7359 87.4474 23.389 86.6255 22.8646 85.9361C21.6688 84.3637 19.8425 83.4154 17.902 83.14C16.2267 82.9014 14.5004 83.1217 13.0781 84.0904C12.7782 84.2944 12.4986 84.5207 12.2313 84.7594C10.7254 87.2761 11.5253 90.0518 11.5293 90.062C11.5742 90.2986 11.6497 90.5331 11.764 90.7636C12.7006 92.648 20.2384 91.8465 20.4731 91.7282C22.2014 91.1613 23.4176 89.8315 24.244 88.7506C24.1155 88.4875 24.0359 88.5711 23.9583 88.2815Z" fill="#EBEBEC"/>
<path d="M14.2486 82.88C14.2486 82.88 17.5522 80.447 21.8598 83.5225C21.8598 83.5225 23.0087 84.3831 22.2557 85.1887C22.2557 85.1887 22.0231 85.6945 21.4211 85.5314C20.8191 85.3662 19.203 82.9575 16.4442 83.3165C13.6834 83.6775 13.3813 84.2465 13.3813 84.2465C13.3813 84.2465 12.8467 83.8651 14.2486 82.88Z" fill="#D9D9DB"/>
<path d="M16.3812 80.8452C16.3812 80.8452 19.1216 78.8282 22.6946 81.3775C22.6946 81.3775 23.6476 82.0914 23.0232 82.7623C23.0232 82.7623 22.8293 83.1825 22.3314 83.0458C21.8315 82.9092 20.8949 81.298 18.3034 81.349C15.9955 81.3939 15.6609 81.9792 15.6609 81.9792C15.6609 81.9792 15.2181 81.6631 16.3812 80.8452Z" fill="#D9D9DB"/>
<path d="M25.0031 84.202C24.4338 85.1789 23.7849 86.1049 23.0055 86.9227C21.4159 88.5889 19.3549 88.8867 17.1491 89.0009C15.7574 89.0723 14.2556 89.162 12.9353 88.6256C12.366 88.3931 11.9681 88.026 11.7171 87.5733C11.5825 87.3959 11.4865 87.196 11.4212 86.9737C11.1274 88.6726 11.5274 90.0553 11.5294 90.0635C11.5743 90.3001 11.6498 90.5346 11.7641 90.7651C12.7007 92.6495 20.2385 91.848 20.4731 91.7297C24.0972 90.5407 26.0908 85.9315 26.3254 83.7697C26.3907 83.1782 26.4009 82.4787 26.3826 81.7771C26.0295 82.6357 25.5419 83.4332 25.0031 84.202Z" fill="#BEBFC1"/>
<path opacity="0.5" d="M26.0851 78.0061L17.2516 78.8178C17.174 79.3644 16.7557 79.911 15.8865 80.8165C16.5517 81.2305 17.4373 81.4202 18.1474 81.5181C18.831 81.6119 19.5615 81.7465 20.2532 81.7281C20.7532 81.7139 21.2327 81.6221 21.7265 81.567C23.4712 81.3712 22.8162 83.0844 22.2305 83.9797C21.8898 84.4977 21.5204 84.7017 20.9144 84.4794C20.1165 84.1857 19.4064 83.5025 18.4576 83.2577C16.7904 82.8295 14.8335 82.9396 13.4337 84.1857C15.5824 83.4128 18.2678 83.1293 20.0369 84.9036C20.7266 85.595 21.8041 89.4904 19.5044 90.555C18.1984 91.1607 16.7578 90.9547 15.3171 90.9302C14.203 90.9119 12.8338 90.557 12.0012 89.7208C11.7564 89.4741 11.5034 89.1845 11.334 88.8622C11.3911 89.5862 11.5238 90.0553 11.5258 90.0594C11.5707 90.296 11.6462 90.5305 11.7605 90.761C12.6971 92.6454 20.2349 91.8439 20.4695 91.7256C24.0935 90.5366 26.0872 85.9274 26.3218 83.7656C26.5585 81.6037 26.0851 78.0061 26.0851 78.0061Z" fill="#BEBFC1"/>
<path d="M16.8014 77.3843C16.8014 77.3843 14.2813 79.0934 15.9892 80.7107C15.9892 80.7107 19.8499 82.8439 25.5267 80.3068C25.5267 80.3068 27.0245 79.4482 26.5246 77.5862C26.0206 75.7017 24.2453 77.2599 24.2453 77.2599L16.8014 77.3843Z" fill="#CDCED0"/>
<path opacity="0.4" d="M26.522 77.5837C26.018 75.6993 24.2427 77.2574 24.2427 77.2574L16.8008 77.3818C16.8008 77.3818 16.3213 77.7082 15.9213 78.2078C15.6887 79.6538 17.4456 80.4145 18.7373 80.6634C19.882 80.8857 21.1186 80.8999 22.2654 80.6715C23.2551 80.4757 24.1815 80.1005 25.1568 79.8802C25.2487 79.8598 25.316 79.921 25.3262 80.0087C25.3405 80.1412 25.3119 80.2799 25.2507 80.4166C25.3425 80.3778 25.4323 80.3411 25.5241 80.3003C25.5241 80.3064 27.0219 79.4478 26.522 77.5837Z" fill="#CDCED0"/>
<path d="M15.5494 45.7905C15.5494 45.7905 15.0535 47.2467 14.323 50.7607C13.5925 54.2747 12.9762 67.2498 16.7064 79.093C16.7064 79.093 17.8083 79.9517 19.1958 80.0251C20.5855 80.0985 25.2604 79.9313 25.7603 77.9469C26.2602 75.9645 24.5584 66.7298 25.4644 59.765C26.3704 52.8002 27.2785 52.4739 26.097 51.0483C24.9175 49.6206 17.5042 45.1664 15.5494 45.7905Z" fill="#EBEBEC"/>
<path d="M25.3062 61.3255C25.347 60.7973 25.398 60.2752 25.4633 59.7674C25.4857 59.592 25.5082 59.4206 25.5327 59.2534C23.8104 58.6456 22.1005 58.0195 20.2884 57.6973C18.9866 57.4668 17.5378 57.2099 16.2073 57.3526C15.3911 57.4403 14.5872 57.6096 13.7771 57.7116C13.7709 58.2337 13.7709 58.7782 13.7771 59.335C17.7704 58.2806 21.6066 59.7816 25.3062 61.3255Z" fill="#E04DB0"/>
<path d="M20.6488 69.1547C19.3388 69.2628 18.0063 69.2424 16.7085 69.0119C16.1535 68.916 15.6515 68.7631 15.1251 68.5612C14.8924 68.4714 14.6476 68.3715 14.3945 68.2899C14.4823 68.9691 14.5802 69.6564 14.6884 70.3498C16.4453 70.929 18.4552 70.7108 20.2611 70.566C21.7548 70.4477 23.2526 70.2437 24.6871 69.7971C24.9177 69.7257 25.1503 69.6666 25.3849 69.6115C25.3543 69.1608 25.3278 68.6999 25.3033 68.2349C23.7913 68.7223 22.2139 69.0282 20.6488 69.1547Z" fill="#E04DB0"/>
<path d="M25.3067 61.3149C23.2315 59.8261 20.7808 58.994 18.1954 58.7044C17.1078 58.582 16.0079 58.476 14.9122 58.5147C14.5653 58.5269 14.1694 58.5453 13.7715 58.6004C13.7715 59.1633 13.7796 59.7466 13.7939 60.3482C14.6632 59.9301 15.5508 59.5691 16.5405 59.5773C18.026 59.5916 19.5524 59.822 20.891 60.4991C22.9254 61.5291 24.6741 63.8581 23.4417 66.177C22.3908 68.1492 19.6911 68.7345 17.6281 68.5285C16.3977 68.4062 15.2366 68.0023 14.2755 67.3314C14.3347 67.8351 14.3979 68.3389 14.4673 68.8508C16.0855 69.3198 17.8444 69.434 19.4646 69.4381C21.3787 69.4442 23.4743 69.3443 25.3251 68.6835C25.1884 66.2831 25.1231 63.7133 25.3067 61.3149Z" fill="#CDCED0"/>
<path d="M20.4906 65.7943C22.1843 63.8792 20.109 61.8724 18.2011 61.3788C17.0319 61.077 15.7953 60.9424 14.6791 61.4951C14.3975 61.6338 14.1241 61.7888 13.8486 61.9397C13.9037 63.1593 13.9894 64.438 14.1139 65.7555C15.6933 67.3769 18.9908 67.4911 20.4906 65.7943Z" fill="#D9D9DB"/>
<path opacity="0.5" d="M15.312 49.8495C15.312 49.8495 13.8305 57.2467 14.659 64.3502C15.4875 71.4557 17.0485 78.5469 17.0485 78.5469C17.0485 78.5469 16.5363 71.5107 15.9568 65.2496C15.3752 58.9884 17.6708 49.8495 17.6708 49.8495C17.6708 49.8495 18.0259 49.0643 17.6708 48.3485C17.3158 47.6346 15.6935 47.4756 15.312 49.8495Z" fill="#EBEBEC"/>
<path opacity="0.5" d="M25.464 59.7673C26.37 52.8025 27.278 52.4762 26.0966 51.0506C24.9151 49.6209 17.5038 45.1667 15.5489 45.7928C15.5489 45.7928 15.2 46.8146 14.6572 49.211C14.8001 48.8785 14.9715 48.5563 15.1837 48.2524C16.8671 45.8397 19.9708 48.538 21.0931 50.2103C23.1133 53.2226 21.9114 57.2302 21.6196 60.5545C21.2482 64.7987 21.8685 69.1468 22.4134 73.3502C22.6072 74.8512 23.1745 76.8356 22.446 78.2714C21.9706 79.2075 21.0278 79.7643 20.0096 79.9479C19.7566 79.9927 19.4913 80.0192 19.2179 80.0294C20.632 80.0988 25.264 79.9254 25.7619 77.9512C26.2598 75.9648 24.558 66.7321 25.464 59.7673Z" fill="#D9D9DB"/>
<path d="M29.0004 78.0073L37.834 78.819C37.9687 79.7735 39.1379 80.728 41.9518 83.5873C44.6413 86.3223 43.5638 90.0484 43.5598 90.0606C43.5128 90.2972 43.4394 90.5317 43.3251 90.7622C42.3885 92.6467 34.8487 91.8451 34.616 91.7269C30.99 90.5378 28.9984 85.9286 28.7637 83.7668C28.5291 81.6049 29.0004 78.0073 29.0004 78.0073Z" fill="#BEBFC1"/>
<path d="M31.1324 88.2827C31.3549 87.4486 31.7017 86.6267 32.2262 85.9374C33.4219 84.3649 35.2482 83.4166 37.1888 83.1412C38.862 82.9026 40.5883 83.1229 42.0106 84.0916C42.3106 84.2956 42.5901 84.522 42.8574 84.7606C44.3634 87.2773 43.5635 90.053 43.5594 90.0632C43.5125 90.2998 43.439 90.5343 43.3247 90.7648C42.3881 92.6493 34.8483 91.8477 34.6157 91.7295C32.8873 91.1625 31.6711 89.8327 30.8447 88.7518C30.9733 88.4887 31.0549 88.5724 31.1324 88.2827Z" fill="#EBEBEC"/>
<path d="M40.84 82.882C40.84 82.882 37.5364 80.4489 33.2308 83.5244C33.2308 83.5244 32.082 84.3851 32.8349 85.1907C32.8349 85.1907 33.0676 85.6965 33.6695 85.5333C34.2715 85.3681 35.8876 82.9595 38.6464 83.3184C41.4073 83.6794 41.7093 84.2484 41.7093 84.2484C41.7093 84.2484 42.2419 83.8671 40.84 82.882Z" fill="#D9D9DB"/>
<path d="M38.7086 80.8465C38.7086 80.8465 35.9681 78.8294 32.3951 81.3788C32.3951 81.3788 31.4422 82.0926 32.0666 82.7636C32.0666 82.7636 32.2605 83.1837 32.7584 83.0471C33.2583 82.9104 34.1949 81.2992 36.7864 81.3502C39.0943 81.3951 39.4289 81.9804 39.4289 81.9804C39.4289 81.9804 39.8717 81.6643 38.7086 80.8465Z" fill="#D9D9DB"/>
<path d="M30.0857 84.2033C30.653 85.1802 31.3039 86.1061 32.0834 86.9239C33.673 88.5902 35.736 88.8879 37.9398 89.0021C39.3335 89.0735 40.8333 89.1633 42.1535 88.6269C42.7228 88.3944 43.1187 88.0273 43.3717 87.5745C43.5064 87.3971 43.6023 87.1972 43.6696 86.9749C43.9635 88.6738 43.5635 90.0565 43.5615 90.0647C43.5146 90.3013 43.4411 90.5358 43.3268 90.7663C42.3902 92.6507 34.8504 91.8492 34.6178 91.731C30.9917 90.5419 29.0001 85.9327 28.7655 83.7709C28.7002 83.1794 28.69 82.4799 28.7083 81.7783C29.0593 82.6369 29.547 83.4344 30.0857 84.2033Z" fill="#BEBFC1"/>
<path opacity="0.5" d="M29.0005 78.0073L37.8341 78.819C37.9116 79.3656 38.3299 79.9122 39.1992 80.8177C38.534 81.2317 37.6484 81.4214 36.9383 81.5193C36.2547 81.6131 35.5242 81.7477 34.8324 81.7294C34.3325 81.7151 33.8529 81.6233 33.3591 81.5682C31.6145 81.3725 32.2695 83.0856 32.8551 83.9809C33.1959 84.499 33.5652 84.7029 34.1713 84.4806C34.9691 84.1869 35.6792 83.5037 36.6281 83.259C38.2952 82.8307 40.2521 82.9408 41.6519 84.1869C39.5032 83.414 36.8179 83.1305 35.0487 84.9048C34.359 85.5962 33.2816 89.4916 35.5792 90.5562C36.8852 91.1619 38.3279 90.9559 39.7665 90.9315C40.8786 90.9131 42.2498 90.5582 43.0824 89.722C43.3272 89.4753 43.5802 89.1857 43.7496 88.8634C43.6945 89.5875 43.5598 90.0565 43.5578 90.0606C43.5109 90.2972 43.4374 90.5317 43.3231 90.7622C42.3865 92.6467 34.8467 91.8451 34.6141 91.7269C30.988 90.5378 28.9964 85.9286 28.7618 83.7668C28.5291 81.6049 29.0005 78.0073 29.0005 78.0073Z" fill="#BEBFC1"/>
<path d="M38.2866 77.3848C38.2866 77.3848 40.8087 79.0938 39.1007 80.7111C39.1007 80.7111 35.24 82.8444 29.5632 80.3073C29.5632 80.3073 28.0675 79.4487 28.5654 77.5867C29.0694 75.7022 30.8447 77.2604 30.8447 77.2604L38.2866 77.3848Z" fill="#CDCED0"/>
<path opacity="0.4" d="M28.565 77.585C29.069 75.7005 30.8443 77.2587 30.8443 77.2587L38.2862 77.3831C38.2862 77.3831 38.7657 77.7094 39.1657 78.209C39.3983 79.655 37.6394 80.4158 36.3497 80.6646C35.205 80.8869 33.9684 80.9011 32.8216 80.6727C31.832 80.4769 30.9035 80.1017 29.9302 79.8814C29.8383 79.861 29.769 79.9222 29.7608 80.0099C29.7465 80.1425 29.7751 80.2811 29.8363 80.4178C29.7445 80.379 29.6547 80.3423 29.5629 80.3015C29.5629 80.3077 28.0651 79.449 28.565 77.585Z" fill="#CDCED0"/>
<path d="M39.5381 45.7912C39.5381 45.7912 40.036 47.2474 40.7645 50.7614C41.495 54.2754 42.1112 67.2506 38.3811 79.0938C38.3811 79.0938 37.2792 79.9524 35.8896 80.0258C34.5 80.0992 29.8251 79.932 29.3251 77.9476C28.8252 75.9652 30.527 66.7305 29.621 59.7657C28.715 52.8009 27.807 52.4746 28.9885 51.049C30.1699 49.6214 37.5833 45.1672 39.5381 45.7912Z" fill="#EBEBEC"/>
<path d="M29.7801 61.3258C29.7393 60.7975 29.6883 60.2754 29.623 59.7676C29.6005 59.5922 29.5781 59.4209 29.5557 59.2537C31.2779 58.6459 32.9858 58.0198 34.7999 57.6975C36.1017 57.4671 37.5505 57.2101 38.8789 57.3529C39.6951 57.4406 40.4991 57.6098 41.3092 57.7118C41.3154 58.2339 41.3154 58.7785 41.3092 59.3352C37.3159 58.2808 33.4817 59.7819 29.7801 61.3258Z" fill="#E04DB0"/>
<path d="M34.4411 69.1552C35.7511 69.2632 37.0836 69.2428 38.3814 69.0124C38.9364 68.9165 39.4384 68.7636 39.9649 68.5617C40.1975 68.4719 40.4444 68.372 40.6954 68.2904C40.6097 68.9696 40.5117 69.6569 40.4015 70.3503C38.6446 70.9295 36.6347 70.7113 34.8288 70.5665C33.3372 70.4482 31.8374 70.2442 30.4049 69.7976C30.1743 69.7262 29.9417 69.6671 29.707 69.612C29.7356 69.1613 29.7642 68.7004 29.7866 68.2354C31.2966 68.7228 32.874 69.0287 34.4411 69.1552Z" fill="#E04DB0"/>
<path d="M29.7791 61.3159C31.8544 59.8271 34.305 58.995 36.8904 58.7054C37.978 58.583 39.0759 58.4769 40.1716 58.5157C40.5185 58.5279 40.9164 58.5463 41.3123 58.6014C41.3123 59.1642 41.3041 59.7475 41.2899 60.3492C40.4206 59.9311 39.5309 59.5701 38.5433 59.5783C37.0578 59.5925 35.5314 59.823 34.1928 60.5001C32.1584 61.53 30.4076 63.8591 31.6421 66.178C32.691 68.1501 35.3906 68.7355 37.4557 68.5295C38.6861 68.4071 39.8472 68.0033 40.8083 67.3323C40.7512 67.8361 40.6859 68.3398 40.6185 68.8517C39.0004 69.3208 37.2414 69.435 35.6212 69.4391C33.7072 69.4452 31.6115 69.3453 29.7607 68.6845C29.8975 66.284 29.9628 63.7143 29.7791 61.3159Z" fill="#CDCED0"/>
<path d="M34.595 65.7945C32.9013 63.8794 34.9745 61.8726 36.8845 61.3791C38.0537 61.0772 39.2903 60.9426 40.4044 61.4953C40.686 61.634 40.9615 61.789 41.2349 61.9399C41.1819 63.1595 41.0941 64.4383 40.9696 65.7558C39.3923 67.3771 36.0948 67.4914 34.595 65.7945Z" fill="#D9D9DB"/>
<path opacity="0.5" d="M39.7745 49.8497C39.7745 49.8497 41.2559 57.2469 40.4275 64.3504C39.599 71.4559 38.038 78.5472 38.038 78.5472C38.038 78.5472 38.5502 71.511 39.1297 65.2498C39.7092 58.9886 37.4156 49.8497 37.4156 49.8497C37.4156 49.8497 37.0606 49.0646 37.4156 48.3487C37.7707 47.6349 39.3949 47.4758 39.7745 49.8497Z" fill="#EBEBEC"/>
<path opacity="0.5" d="M29.6239 59.768C28.7179 52.8032 27.8099 52.4769 28.9914 51.0513C30.1708 49.6216 37.5841 45.1675 39.539 45.7936C39.539 45.7936 39.8879 46.8153 40.4307 49.2117C40.2879 48.8793 40.1165 48.5571 39.9042 48.2532C38.2208 45.8405 35.1171 48.5387 33.9948 50.2111C31.9726 53.2234 33.1745 57.2309 33.4663 60.5553C33.8397 64.7994 33.2174 69.1476 32.6725 73.3509C32.4787 74.852 31.9114 76.8364 32.6399 78.2722C33.1153 79.2083 34.0601 79.765 35.0763 79.9486C35.3293 79.9935 35.5966 80.02 35.868 80.0302C34.4539 80.0995 29.8219 79.9262 29.324 77.952C28.8281 75.9655 30.53 66.7328 29.6239 59.768Z" fill="#D9D9DB"/>
<path d="M8.5292 20.781C9.38828 19.9693 9.70661 18.9332 9.82292 17.838C9.13321 17.1629 8.52512 16.5042 8.04559 15.8944C7.57627 15.2968 7.07022 14.8747 6.55804 14.583C5.78059 15.0195 5.04395 15.6272 4.52769 16.1534C3.59107 17.1079 2.77077 18.3458 2.76465 19.696C3.17072 20.3649 3.61352 21.0155 4.08285 21.6437C5.40513 22.4615 7.47628 21.7742 8.5292 20.781Z" fill="#E04DB0"/>
<path d="M3.30445 10.2912C3.84928 10.9336 4.59 11.4823 5.39398 11.7515C6.24897 12.037 7.26719 12.2756 8.15483 11.9615C8.57927 11.8126 8.91392 11.519 9.25265 11.2355C9.40977 14.1254 9.52201 17.5395 9.52201 17.5395C9.52201 17.5395 8.9425 21.4308 5.14299 21.3064C5.14299 21.3064 2.45762 20.7639 2.18011 18.1615C1.99238 16.3953 2.32906 12.5754 3.0555 9.9812C3.1412 10.0934 3.22487 10.1974 3.30445 10.2912Z" fill="#D9D9DB"/>
<path d="M6.14744 12.4369V11.9699C5.88625 11.9087 5.63117 11.8312 5.39243 11.7517C4.60478 11.4865 3.88038 10.9542 3.33759 10.3281C3.28046 10.53 3.22129 10.7503 3.16211 10.9828C3.77836 11.8924 5.07411 12.439 6.14744 12.4369Z" fill="#EBEBEC"/>
<path d="M3.01887 11.6042C2.62505 13.348 2.27816 15.6261 2.33529 17.2311C2.42712 19.754 4.26362 20.3862 4.26362 20.3862C5.7022 20.9328 6.14908 20.4229 6.14908 20.4229V12.934C5.03086 12.9279 3.78612 12.4486 3.01887 11.6042Z" fill="#EBEBEC"/>
<path d="M11.1252 4.785C10.5355 4.65855 9.92539 4.97875 9.53973 5.40704C9.39281 5.56816 8.39906 6.85506 8.4664 6.97743C8.00727 6.1596 7.71139 3.545 7.70119 3.19829C7.68895 2.74349 7.74609 2.27645 7.70732 1.82369C7.70732 1.49329 7.62161 1.18738 7.45836 0.901849C6.8564 0.447047 6.43197 0.518426 6.18302 1.11599C6.18098 1.12007 6.1769 1.12211 6.17486 1.12619C6.08508 1.40151 6.02181 1.7054 5.97488 1.99908C5.9157 2.27849 5.8851 2.5783 5.8749 2.88422C5.86469 3.00454 5.85654 3.11468 5.84634 3.20849C5.84226 3.24928 5.84225 3.29414 5.83817 3.33697C5.62595 2.37026 5.63004 1.36684 5.33211 0.412371C5.16683 -0.109734 4.44243 -0.111769 4.15267 0.269612C3.65478 0.928361 3.56908 1.75639 3.59765 2.56402C3.46501 2.21119 3.33237 1.8604 3.23851 1.48718C3.10791 0.97119 2.6141 0.485795 2.06519 0.89369C1.4469 1.35257 1.30406 2.04395 1.46118 2.80467C1.47343 2.86382 1.48976 2.92908 1.50404 2.99231C1.34488 2.80876 1.15103 2.69047 0.908203 2.70474C-0.107991 2.76797 -0.0284075 3.80198 0.0307685 4.5525C0.177688 6.3554 0.77964 8.05428 1.81828 9.53697C2.37535 10.3303 2.95487 11.1543 3.7466 11.7355C5.12397 12.7451 7.59101 13.0571 9.00919 11.968C10.1335 11.1053 10.1825 9.68381 10.4621 8.41118C10.5661 7.93598 10.7233 7.4771 10.8947 7.02434C11.0987 6.48796 11.5252 5.88835 11.5211 5.29691C11.515 4.98487 11.3517 4.83395 11.1252 4.785Z" fill="#D9D9DB"/>
<path opacity="0.6" d="M11.3665 4.91112C10.0789 4.77244 9.30557 6.60797 8.72197 7.43191C7.82617 8.69231 7.62211 9.60599 8.2608 11.0397C8.3914 11.3355 7.95676 11.5965 7.82616 11.2988C7.48947 10.5441 7.05281 9.54888 7.37725 8.71066C7.63028 8.05395 8.0343 7.48698 8.44037 6.91797C7.99757 6.04508 7.7119 3.53856 7.70169 3.20001C7.68945 2.74521 7.74659 2.27817 7.70782 1.82541C7.70782 1.66837 7.68741 1.51745 7.64864 1.3706C7.64252 1.35837 7.63436 1.35225 7.62824 1.33797C7.38133 0.673103 6.85282 1.30126 6.74467 1.65613C6.64673 1.97836 6.38962 2.2904 6.31208 2.61876C6.17944 3.16942 6.07538 4.43593 6.02437 4.20343C5.95703 3.89954 5.89377 3.59567 5.84275 3.28771C5.84071 3.30606 5.83867 3.32237 5.83867 3.33665C5.6387 2.42501 5.62849 1.48277 5.3775 0.577246C4.7735 0.0327069 4.12869 0.773035 4.04503 1.34205C3.97361 1.8356 3.83689 3.19185 3.73282 2.92672C3.67773 2.78396 3.63488 2.63916 3.59815 2.49435C3.59815 2.51679 3.59815 2.54126 3.59815 2.5637C3.46551 2.21087 3.33288 1.86008 3.23901 1.48685C3.17167 1.2258 3.01047 0.970864 2.79826 0.838298C1.58209 1.01369 1.93102 3.47941 1.79838 3.31218C1.70656 3.19593 1.60453 3.08988 1.5025 2.98383C1.5025 2.98791 1.5025 2.99198 1.50454 2.99402C1.34538 2.81047 1.15153 2.69218 0.908705 2.70645C0.816881 2.71053 0.737295 2.72685 0.661794 2.74725C-0.484995 3.62626 1.42701 7.64402 1.87797 8.47205C2.57788 9.76099 3.4696 11.0989 4.76331 11.8637C5.64483 12.3858 6.53042 12.5775 7.45682 12.5959C8.03226 12.5061 8.573 12.3042 9.01172 11.9677C10.1361 11.105 10.185 9.68349 10.4646 8.41086C10.5687 7.93566 10.7258 7.47678 10.8972 7.02402C11.1013 6.48764 11.5277 5.88803 11.5236 5.29659C11.5155 5.11507 11.4563 4.99474 11.3665 4.91112Z" fill="#D9D9DB"/>
<path opacity="0.6" d="M7.46289 3.65955C7.46493 4.97297 7.65471 6.19666 8.09138 7.41422C8.20565 7.24902 8.31992 7.08383 8.43827 6.91863C7.99547 6.04574 7.70979 3.53922 7.69959 3.20067C7.68735 2.74587 7.74449 2.27883 7.70572 1.82607C7.70572 1.67923 7.68531 1.54054 7.65266 1.40186C7.67715 2.14626 7.46289 2.94166 7.46289 3.65955Z" fill="#D9D9DB"/>
<path opacity="0.6" d="M6.44525 6.49411C5.9596 6.08417 5.30865 6.32075 4.79444 6.42477C4.51692 6.48187 4.06188 6.76128 3.79253 6.84897C3.24974 7.02437 2.74777 7.33233 2.53963 7.88911C2.43352 8.17463 2.69675 8.46832 2.98447 8.52746C3.28443 8.58865 3.59459 8.607 3.90067 8.57437C4.46591 8.51727 4.8883 8.32147 5.35559 8.00943C5.75962 7.73818 6.25344 7.38536 6.47177 6.93871C6.57992 6.72253 6.54727 6.58181 6.44525 6.49411Z" fill="#EBEBEC"/>
<path opacity="0.6" d="M10.7457 6.5837C10.1376 7.73804 10.2274 8.93725 9.93357 10.165C9.80909 10.6851 9.62545 11.197 9.36426 11.6355C10.1437 10.7667 10.2152 9.53278 10.46 8.41107C10.5641 7.93587 10.7212 7.47699 10.8926 7.02423C11.0967 6.48785 11.5232 5.88824 11.5191 5.2968C11.5191 5.26009 11.515 5.22746 11.5089 5.19482C11.415 5.67614 11.0293 6.04324 10.7457 6.5837Z" fill="#D9D9DB"/>
<path d="M6.74378 5.99678C6.73358 5.99678 6.72134 5.99271 6.71114 5.99271C6.34588 5.181 6.00511 4.23468 5.84595 3.34547C5.82758 3.43521 5.8133 3.52495 5.80718 3.61468C5.89288 4.42435 6.25202 5.29113 6.60911 5.98047C6.02143 5.93152 5.40315 6.05185 4.85016 6.23336C4.27472 4.98113 3.9421 3.64732 3.54012 2.33594C3.54216 2.38896 3.54828 2.44403 3.55236 2.49705C3.58093 2.78258 3.61767 3.06607 3.69113 3.34344C3.75234 3.57594 3.81968 3.80639 3.87681 4.03889C4.10739 4.79757 4.39511 5.53587 4.76037 6.26192C4.73181 6.27212 4.70527 6.28027 4.6767 6.29047C4.27472 6.43323 3.6095 6.63106 3.07079 6.92271C2.7137 6.1783 2.49128 5.38699 2.26886 4.59159C2.12194 4.06133 1.97298 3.46988 1.60568 3.07014C1.53834 3.02731 1.46693 2.98449 1.39551 2.94778C1.97298 3.476 2.12602 4.45494 2.29947 5.17284C2.44639 5.7806 2.65657 6.421 2.97489 6.97574C2.80553 7.07567 2.65656 7.18784 2.53413 7.3102C3.72989 6.52297 5.30111 6.07836 6.74378 5.99678Z" fill="#C9CACC"/>
<path d="M8.54679 6.77189C7.98564 7.49386 7.43061 8.20563 7.19187 9.103C7.04086 9.66794 7.21023 10.8182 7.71425 11.2037C7.73261 11.2179 7.77139 11.1853 7.7571 11.1649C7.75302 11.1608 7.75301 11.1588 7.74893 11.1547C7.73465 11.1364 7.70812 11.169 7.71016 11.1853C7.62446 10.5714 7.27349 10.0106 7.30002 9.31307C7.33267 8.3484 8.1652 7.56932 8.60392 6.78616C8.62637 6.74129 8.56516 6.74741 8.54679 6.77189Z" fill="#C9CACC"/>
<path d="M6.85166 12.447C5.76404 12.345 5.0172 12.0473 4.16833 11.3559C3.44597 10.7665 2.8583 9.98536 2.33592 9.21444C1.20749 7.55023 0.113758 5.1151 0.474936 3.06339C0.479017 3.03484 0.438203 3.05319 0.434122 3.07155C-0.104583 5.15385 0.946304 7.43602 1.96862 9.20628C2.9338 10.8807 4.76825 12.6265 6.82513 12.5102C6.84961 12.5082 6.89247 12.449 6.85166 12.447Z" fill="#EBEBEC"/>
<defs>
<radialGradient id="paint0_radial_812_38946" cx="0" cy="0" r="1" gradientUnits="userSpaceOnUse" gradientTransform="translate(24.1521 13.1335) rotate(-9.12675) scale(12.1691 12.1337)">
<stop offset="0.1486" stop-color="#7E165C"/>
<stop offset="0.491" stop-color="#E04DB0"/>
<stop offset="0.9801"/>
</radialGradient>
<radialGradient id="paint1_radial_812_38946" cx="0" cy="0" r="1" gradientUnits="userSpaceOnUse" gradientTransform="translate(26.7612 -1.51654) rotate(-0.53828) scale(24.2885 24.2757)">
<stop offset="0.2849" stop-color="#21687E"/>
<stop offset="0.4225" stop-color="#0D3B59"/>
<stop offset="0.5885" stop-color="#05294A"/>
<stop offset="0.7076" stop-color="#031B31"/>
<stop offset="0.8978" stop-color="#01070D"/>
<stop offset="1"/>
</radialGradient>
<radialGradient id="paint2_radial_812_38946" cx="0" cy="0" r="1" gradientUnits="userSpaceOnUse" gradientTransform="translate(16.1706 5.39828) rotate(-0.538281) scale(15.268 15.2599)">
<stop offset="0.2851" stop-color="white"/>
<stop offset="0.6912" stop-color="#6C6C6C"/>
<stop offset="1"/>
</radialGradient>
<radialGradient id="paint3_radial_812_38946" cx="0" cy="0" r="1" gradientUnits="userSpaceOnUse" gradientTransform="translate(16.1717 5.39811) rotate(-0.53828) scale(15.2672 15.2591)">
<stop offset="0.2851" stop-color="white"/>
<stop offset="0.6912" stop-color="#6C6C6C"/>
<stop offset="1"/>
</radialGradient>
<linearGradient id="paint4_linear_812_38946" x1="29.1166" y1="27.0532" x2="29.1752" y2="33.2929" gradientUnits="userSpaceOnUse">
<stop offset="0.1486" stop-color="#21687E"/>
<stop offset="0.491" stop-color="#023F5F"/>
<stop offset="0.9801"/>
</linearGradient>
</defs>
</svg>
