<svg version="1.2" xmlns="http://www.w3.org/2000/svg" viewBox="0 0 58 56" width="58" height="56"><style>.a{fill:#53449c}.b{fill:#53459c}.c{fill:#fff060}.d{fill:#fff}</style><path class="a" d="m48.7 52.7c0.4-1.6 0-3.5-0.4-5.1l0.1-0.1-3.1-13.1 9-10.2q0.9-1.1 1.8-2.3c0.7-0.9 1.7-2.5 0.3-3.4-1.5-0.8-3.4-0.9-5-1l-0.1-0.1-13.2-1-6.6-11.6h-0.1c-0.9-1.5-1.9-3.1-3.3-4-1.3-0.9-2.3 0.7-2.8 1.8q-0.8 1.6-1.5 3.2-0.1 0.4-0.3 0.9l-0.1-0.1-4.5 11-12.6 2.8q-0.2 0-0.3 0l-1.1 0.3c-1.3 0.3-2.6 0.7-3.6 1.5-1.4 1.1-0.2 2.6 0.7 3.5q1.3 1.3 2.7 2.5 0.3 0.3 0.7 0.6l8.8 7.7-1.2 11.6q0 0.5-0.1 0.9-0.1 1.9-0.2 3.8c0 1.2 0.2 3.2 1.9 3 1.7-0.2 3.4-1.2 4.8-2.2l11.1-6.8 13.5 6q0.7 0.3 1.4 0.6c1.1 0.4 2.9 0.9 3.3-0.7z"/><path class="b" d="m49.2 52.1c0.3-1.6-0.4-5.2-0.4-5.2l-3.1-13.1 9-10.2q1-1.1 1.9-2.3c0.7-0.9 1.6-2.5 0.2-3.4-1.4-0.8-5-1.1-5-1.1l-13.2-1-6.7-11.6c0 0-1.9-3.1-3.3-4-1.4-0.9-2.4 0.7-2.9 1.8q-0.7 1.6-1.4 3.2-0.2 0.4-0.3 0.9l-0.1-0.1-4.5 11-12.7 2.8c-0.1 0-1.3 0.3-1.3 0.3-1.3 0.3-2.7 0.7-3.7 1.5-1.3 1.1-0.1 2.6 0.7 3.5q1.4 1.3 2.8 2.5 0.3 0.3 0.6 0.6l8.9 7.7-1.2 11.6q-0.1 0.5-0.1 0.9-0.2 1.9-0.2 3.8c-0.1 1.2 0.1 3.2 1.8 3 1.7-0.2 3.4-1.2 4.9-2.2l11-6.8 13.5 6q0.7 0.3 1.5 0.6c1 0.4 2.9 0.9 3.3-0.7z"/><path class="c" d="m46.9 48.3c0.3-1.4 0-3-0.3-4.4v-0.1l-2.7-11.4 7.9-8.8q0.8-1 1.5-2c0.7-0.8 1.5-2.2 0.2-2.9-1.2-0.7-2.8-0.9-4.2-0.9l-0.1-0.1-11.5-0.9-5.7-10h-0.1c-0.7-1.3-1.6-2.7-2.8-3.5-1.2-0.8-2.1 0.6-2.5 1.6q-0.6 1.4-1.2 2.8-0.2 0.3-0.3 0.7h-0.1l-3.9 9.5-11 2.4q-0.1 0-0.2 0l-0.9 0.2c-1.1 0.3-2.3 0.7-3.2 1.4-1.2 0.9-0.1 2.2 0.6 3q1.2 1.1 2.4 2.2 0.3 0.3 0.6 0.5l7.6 6.6-1 10.1q-0.1 0.4-0.1 0.8-0.1 1.6-0.2 3.2c0 1.1 0.2 2.8 1.6 2.7 1.5-0.2 3-1.1 4.2-1.9h0.1l9.5-5.9 11.7 5.2q0.6 0.3 1.3 0.5c0.9 0.4 2.5 0.8 2.8-0.6z"/><path class="d" d="m51.8 18l-14.1-1.2c0 0-6.4-11.6-7.9-13l6.4 13.4c0 0 0.1 1.2 1.7 1.2 1.6 0 13.9-0.4 13.9-0.4z"/><path class="d" d="m15 32.5l2 1.7-1.3 13 1.9-12.5c0 0 0.3-0.5-0.4-0.9-0.8-0.5-2.2-1.3-2.2-1.3z"/></svg>