<svg width="22" height="21" viewBox="0 0 22 21" fill="none" xmlns="http://www.w3.org/2000/svg">
<path d="M14.1895 11.5901C14.1895 11.5901 14.5352 11.5201 14.54 11.4997C14.5448 11.4792 14.7294 11.2098 14.7294 11.2098C14.7294 11.2098 15.049 11.1754 15.0794 11.1528C15.1099 11.1302 15.2848 10.9817 15.2848 10.9817C15.2848 10.9817 15.1998 10.6488 15.2105 10.6213C15.2211 10.5937 15.1826 10.4369 15.1938 10.4159C15.2051 10.395 15.2999 10.1333 15.2973 10.1002C15.2946 10.0671 15.1413 9.84692 15.1413 9.84692L14.2145 11.2212L14.1895 11.5901Z" fill="#3F1F2F"/>
<path d="M13.6494 10.8499L13.7088 11.0311L13.9474 11.2305L14.1893 11.5898L14.4181 11.1897C14.4181 11.1897 14.6333 11.1011 14.6894 11.0762C14.7454 11.0514 15.0343 10.9163 15.0511 10.8848C15.0679 10.8533 14.9854 10.6704 14.991 10.6199C14.9966 10.5694 15.1366 10.2672 15.1509 10.2058C15.1653 10.1445 15.1436 9.87635 15.1412 9.84653C15.1387 9.8167 14.413 9.46191 14.413 9.46191C14.413 9.46191 14.4233 10.0587 14.4081 10.1101C14.3929 10.1615 14.2721 10.342 14.2185 10.3967C14.1648 10.4514 13.6494 10.8499 13.6494 10.8499Z" fill="#54293D"/>
<g opacity="0.8">
<path d="M22 0C20.7286 0.94398 19.4571 1.88818 18.1856 2.83238C17.8743 3.06354 17.5518 3.30782 17.3762 3.66023C17.2166 3.98029 17.1926 4.3644 17.0008 4.66501C16.5805 5.32387 15.471 5.42832 15.3513 6.20798C15.3338 6.32144 15.3418 6.44016 15.3055 6.54886C15.1883 6.89961 14.7268 6.93657 14.4369 7.15491C13.832 7.61019 14.1419 8.65747 13.7206 9.29688C13.4459 9.71397 12.9033 9.88333 12.6502 10.3147C12.4225 10.703 12.4877 11.197 12.3892 11.6395C12.3046 12.0196 12.0995 12.3574 11.8955 12.6855C11.3898 13.498 10.8581 14.3295 10.6865 15.2794C11.5052 14.8917 11.5464 13.696 12.1181 12.9762C12.5 12.4951 13.1221 12.2316 13.4044 11.6818C13.5471 11.4035 13.5852 11.0824 13.6776 10.7823C13.8295 10.2898 14.1253 9.86079 14.4168 9.44095C15.2353 8.26163 16.0797 7.05593 17.2474 6.25034C15.8477 7.55191 14.7873 9.23982 14.2058 11.0913C14.1119 11.3905 14.0286 11.6974 13.8721 11.967C13.7166 12.2354 13.4955 12.4547 13.2878 12.682C12.5271 13.5141 11.9157 14.4916 11.4938 15.5505C11.0387 16.6931 10.7635 17.9907 9.87192 18.8135C9.37592 19.2713 8.74092 19.5273 8.1206 19.7743C7.56241 19.9964 7.00408 20.2187 6.44589 20.4409C6.09775 20.5795 5.74494 20.7194 5.37416 20.7629C4.8237 20.8276 4.26753 20.6746 3.7615 20.4413C2.4598 19.8407 1.4093 18.681 0.914902 17.2982L0.519399 17.2942C0.308032 17.0393 0.130651 16.7502 0 16.4417C0.00494467 16.43 0.00919242 16.4181 0.0134407 16.4063C0.135386 16.0668 0.189987 15.7016 0.173063 15.3397C0.16401 15.1454 0.135108 14.9453 0.1934 14.7603C0.23435 14.6307 0.316041 14.5162 0.344455 14.3829C0.352255 14.3463 0.355876 14.3097 0.356294 14.273C0.362284 13.7509 0.66558 13.2776 1.14138 13.1031C1.15461 13.0983 1.16792 13.0935 1.18129 13.089C1.37838 13.0221 1.58891 12.9875 1.76727 12.8779C2.49281 12.4326 2.37748 10.998 3.20895 10.8504C3.36537 10.8226 3.53223 10.8531 3.68029 10.794C4.09962 10.6261 4.09467 9.88477 4.52869 9.76353C4.75517 9.70029 5.0095 9.84797 5.22484 9.75136C5.54039 9.60974 5.49283 9.10288 5.74306 8.85882C5.98973 8.61829 6.42612 8.72303 6.68024 8.49128C6.92079 8.27215 6.88667 7.8562 7.1004 7.60904C7.36783 7.3 7.90972 7.37629 8.14992 7.04419C8.29255 6.84731 8.2867 6.55268 8.46527 6.38987C8.72023 6.15734 9.18747 6.33959 9.41555 6.07896C9.55546 5.91918 9.53373 5.6628 9.65477 5.48732C9.85402 5.19852 10.2887 5.28424 10.6023 5.14024C10.9451 4.98277 11.1173 4.55789 11.4603 4.4002C11.6666 4.30554 11.9157 4.31801 12.0995 4.18272C12.2085 4.1024 12.2798 3.98007 12.3602 3.86935C12.6301 3.49728 13.0177 3.23917 13.3967 2.98877C14.4693 2.28071 15.5421 1.57273 16.6146 0.86467C15.5126 1.70239 14.4107 2.54033 13.3087 3.3782C13.0332 3.58761 12.7437 3.8159 12.6253 4.14756C12.5832 4.2652 12.5615 4.39739 12.477 4.48722C12.3197 4.65406 12.0511 4.58303 11.8318 4.63619C11.5368 4.70751 11.3518 4.99768 11.1446 5.22618C11.0162 5.36781 10.8705 5.49135 10.7253 5.61454C10.1498 6.10295 9.57427 6.59122 8.99853 7.07949C8.80144 7.24676 8.60407 7.41432 8.39381 7.56351C8.18725 7.71039 7.96432 7.84331 7.80874 8.04652C7.73158 8.14716 7.67322 8.26263 7.59222 8.3601C7.42522 8.5608 7.17924 8.66677 6.95136 8.7875C6.14935 9.21238 5.47994 9.90034 5.06396 10.7273C5.94516 9.54339 7.55733 9.20359 8.56702 8.13506C8.81529 7.87248 9.03746 7.5584 9.36701 7.42145C9.87471 7.2106 10.5031 7.47944 10.9752 7.1936C11.4106 6.93008 11.5421 6.28859 11.9968 6.06297C12.3221 5.90146 12.7256 6.00202 13.0509 5.84066C13.5099 5.61338 13.6745 4.93832 14.1644 4.79604C14.3597 4.73942 14.5701 4.78279 14.7696 4.74461C15.0025 4.70002 15.2012 4.5491 15.3909 4.40243C16.7951 3.31625 18.1994 2.23014 19.6037 1.14396C19.2501 1.43787 18.9415 1.79006 18.6946 2.18389C19.7448 1.37383 20.8056 0.556994 22 0Z" fill="#FF741F"/>
<path d="M21.8637 0.102539C20.603 1.03867 19.342 1.97494 18.0813 2.91121C17.7725 3.14043 17.4527 3.3827 17.2785 3.73215C17.1202 4.04955 17.0965 4.43041 16.9063 4.7285C16.4895 5.38181 15.3893 5.48547 15.2706 6.25851C15.2533 6.37103 15.2611 6.48874 15.2252 6.5965C15.109 6.9443 14.6514 6.98097 14.3638 7.19751C13.764 7.64897 14.0713 8.68746 13.6536 9.32154C13.3812 9.73511 12.8432 9.9031 12.5921 10.3309C12.3663 10.7159 12.431 11.2058 12.3334 11.6446C12.2495 12.0215 12.0461 12.3565 11.8437 12.6819C11.3423 13.4876 10.8151 14.3121 10.6449 15.254C11.4567 14.8695 11.4976 13.6838 12.0645 12.9701C12.4433 12.4931 13.0601 12.2318 13.3401 11.6865C13.4816 11.4106 13.5193 11.0921 13.611 10.7945C13.7616 10.3061 14.055 9.8807 14.3441 9.46439C15.1557 8.29493 15.9931 7.09933 17.151 6.3005C15.763 7.5912 14.7114 9.26499 14.1349 11.1009C14.0417 11.3977 13.9591 11.7019 13.8039 11.9694C13.6497 12.2355 13.4305 12.4529 13.2245 12.6783C12.4702 13.5034 11.864 14.4728 11.4456 15.5227C10.9942 16.6558 10.7214 17.9426 9.83724 18.7585C9.34542 19.2124 8.71571 19.4663 8.10055 19.7112C7.54703 19.9314 6.99337 20.1519 6.43984 20.3723C6.09462 20.5098 5.7448 20.6484 5.37702 20.6916C4.83122 20.7557 4.27965 20.604 3.77787 20.3727C2.48703 19.7771 1.44538 18.6271 0.955093 17.2558L0.562862 17.2519C0.353236 16.9991 0.177318 16.7124 0.0478516 16.4065C0.0527266 16.3949 0.0569744 16.3832 0.061153 16.3714C0.182054 16.0347 0.236167 15.6726 0.219383 15.3138C0.210399 15.1211 0.181775 14.9227 0.23951 14.7392C0.280111 14.6106 0.361107 14.4971 0.389312 14.365C0.397042 14.3287 0.400663 14.2923 0.401081 14.256C0.40707 13.7382 0.70779 13.2689 1.17955 13.0959C1.19272 13.091 1.20588 13.0864 1.21918 13.0819C1.4146 13.0156 1.62339 12.9813 1.80021 12.8726C2.51963 12.431 2.40527 11.0085 3.22985 10.8621C3.38494 10.8345 3.55042 10.8647 3.69722 10.8061C4.11306 10.6397 4.10812 9.90454 4.53851 9.78431C4.76311 9.72164 5.01529 9.86802 5.22882 9.77228C5.54172 9.63181 5.49457 9.1292 5.74271 8.88715C5.9873 8.64857 6.41999 8.75252 6.6721 8.52264C6.91063 8.30531 6.87678 7.89289 7.08871 7.64782C7.35391 7.34137 7.89121 7.41701 8.12945 7.08773C8.27083 6.89251 8.26512 6.60032 8.44215 6.43896C8.69496 6.20837 9.15829 6.38911 9.38449 6.13064C9.52322 5.97223 9.50163 5.71801 9.6217 5.54397C9.81928 5.25754 10.2504 5.34262 10.5613 5.19984C10.9013 5.04366 11.0719 4.62239 11.4122 4.466C11.6166 4.37213 11.8638 4.38445 12.0459 4.25032C12.1541 4.17064 12.2248 4.04933 12.3045 3.93962C12.5721 3.57071 12.9565 3.31469 13.3323 3.06645C14.3959 2.3643 15.4597 1.66229 16.5233 0.960143C15.4306 1.79088 14.3378 2.62176 13.2451 3.45264C12.9719 3.66026 12.6848 3.88667 12.5673 4.21552C12.5256 4.33215 12.5041 4.46326 12.4202 4.5523C12.2643 4.7177 11.998 4.64731 11.7805 4.70004C11.4879 4.77079 11.3045 5.0585 11.099 5.28513C10.9717 5.42553 10.8272 5.54807 10.6832 5.67025C10.1125 6.15456 9.54175 6.63872 8.97088 7.12296C8.77546 7.28879 8.57977 7.45498 8.37126 7.60294C8.16644 7.74853 7.94532 7.88043 7.79106 8.08192C7.71459 8.18169 7.65672 8.29623 7.57642 8.39283C7.41081 8.5918 7.16685 8.6969 6.94092 8.8167C6.1456 9.23798 5.48183 9.92024 5.06933 10.7402C5.94315 9.56618 7.5418 9.22926 8.54306 8.16973C8.78925 7.90932 9.00954 7.5979 9.33637 7.46211C9.83982 7.25306 10.4629 7.51959 10.9311 7.23613C11.3628 6.97485 11.4933 6.33868 11.9442 6.11501C12.2667 5.95487 12.6668 6.05457 12.9894 5.89457C13.4446 5.66917 13.6078 4.99972 14.0936 4.85867C14.2873 4.80248 14.4959 4.84556 14.6938 4.80767C14.9247 4.76344 15.1218 4.61382 15.3099 4.4683C16.7024 3.39127 18.0949 2.31416 19.4874 1.23713C19.1368 1.52859 18.8308 1.87783 18.5859 2.26835C19.6274 1.46484 20.6794 0.654851 21.8637 0.102539Z" fill="url(#paint0_radial_766_27643)"/>
<path d="M21.7274 0.20459C20.4773 1.13279 19.227 2.06115 17.9769 2.98949C17.6707 3.21677 17.3536 3.45702 17.181 3.80352C17.024 4.11825 17.0005 4.49587 16.8119 4.79144C16.3986 5.4392 15.3077 5.542 15.19 6.30855C15.1728 6.42013 15.1806 6.53683 15.1449 6.64366C15.0297 6.98851 14.5759 7.02489 14.2909 7.23956C13.6961 7.6872 14.0008 8.71698 13.5866 9.34565C13.3166 9.75576 12.783 9.92231 12.5341 10.3465C12.3102 10.7282 12.3744 11.214 12.2775 11.6491C12.1943 12.0229 11.9927 12.355 11.7921 12.6776C11.2949 13.4765 10.7721 14.2941 10.6033 15.2281C11.4083 14.8468 11.4489 13.6711 12.0109 12.9634C12.3865 12.4904 12.9981 12.2313 13.2757 11.6907C13.4159 11.4172 13.4535 11.1013 13.5443 10.8063C13.6936 10.322 13.9845 9.90027 14.2712 9.48742C15.0759 8.32783 15.9062 7.14231 17.0544 6.35026C15.6781 7.63007 14.6354 9.28968 14.0638 11.1101C13.9714 11.4043 13.8896 11.7061 13.7356 11.9712C13.5827 12.2351 13.3654 12.4507 13.1612 12.6741C12.4131 13.4923 11.8121 14.4535 11.3972 15.4946C10.9496 16.6181 10.6791 17.894 9.80243 18.703C9.31472 19.1531 8.69037 19.4048 8.08043 19.6477C7.53158 19.8661 6.98258 20.0846 6.43372 20.3032C6.09142 20.4395 5.74453 20.5769 5.37988 20.6198C4.83868 20.6834 4.29177 20.5329 3.79424 20.3036C2.51434 19.713 1.48146 18.5727 0.995285 17.213L0.606397 17.2091C0.398582 16.9584 0.224125 16.6742 0.0957031 16.3709C0.100509 16.3594 0.104688 16.3478 0.108866 16.3362C0.228722 16.0024 0.282417 15.6432 0.265772 15.2874C0.256858 15.0963 0.228443 14.8997 0.28576 14.7178C0.326013 14.5903 0.406381 14.4777 0.434308 14.3467C0.441969 14.3107 0.445521 14.2747 0.445939 14.2387C0.451859 13.7253 0.750071 13.26 1.21786 13.0884C1.23089 13.0836 1.24398 13.079 1.25714 13.0745C1.45089 13.0088 1.65794 12.9748 1.8333 12.8671C2.54666 12.4291 2.43328 11.0187 3.25082 10.8735C3.40466 10.8461 3.56867 10.8761 3.71429 10.818C4.12665 10.653 4.12171 9.92404 4.54848 9.80475C4.7712 9.74258 5.02122 9.8878 5.23293 9.79279C5.54319 9.65354 5.49646 9.15518 5.74251 8.91516C5.98501 8.67858 6.41408 8.78167 6.66403 8.55374C6.90054 8.33828 6.86697 7.92932 7.07708 7.68627C7.34006 7.38241 7.87283 7.4574 8.10899 7.13093C8.24918 6.93736 8.24347 6.64763 8.41904 6.48763C8.66968 6.25899 9.12912 6.43822 9.35337 6.18191C9.49092 6.02479 9.46953 5.77273 9.58856 5.6002C9.78446 5.31623 10.2119 5.40051 10.5202 5.25896C10.8573 5.10415 11.0266 4.68633 11.3639 4.53131C11.5666 4.43824 11.8117 4.45048 11.9924 4.31743C12.0996 4.23848 12.1697 4.11818 12.2488 4.00933C12.5141 3.64352 12.8953 3.38966 13.2679 3.14351C14.3225 2.44727 15.3773 1.75124 16.4319 1.055C15.3484 1.87875 14.2649 2.70257 13.1814 3.52646C12.9105 3.73234 12.6259 3.95681 12.5094 4.28292C12.468 4.39854 12.4467 4.52857 12.3636 4.61689C12.209 4.78092 11.9449 4.71112 11.7292 4.76342C11.4391 4.83358 11.2572 5.11885 11.0534 5.34353C10.9272 5.48278 10.7839 5.60423 10.6412 5.7254C10.0753 6.20568 9.50937 6.68574 8.94331 7.1658C8.74957 7.33026 8.55547 7.49501 8.34877 7.64175C8.14569 7.78611 7.92645 7.91686 7.77345 8.11669C7.6976 8.2156 7.64022 8.3292 7.56062 8.42501C7.3964 8.62232 7.15453 8.72656 6.93048 8.84528C6.14185 9.26302 5.48365 9.93953 5.0747 10.7526C5.94113 9.58849 7.52635 9.25438 8.51912 8.20378C8.76322 7.9456 8.98169 7.63685 9.30574 7.50214C9.80494 7.29481 10.4227 7.55919 10.887 7.2781C11.3151 7.01905 11.4443 6.38822 11.8914 6.16642C12.2113 6.00757 12.6081 6.10648 12.9279 5.94785C13.3792 5.72439 13.5411 5.06064 14.0228 4.92074C14.2148 4.86506 14.4217 4.90771 14.6179 4.87018C14.8469 4.82638 15.0423 4.67798 15.2287 4.53369C16.6095 3.46573 17.9902 2.39777 19.3711 1.32975C19.0233 1.61876 18.72 1.96505 18.4771 2.35225C19.51 1.55544 20.553 0.752291 21.7274 0.20459Z" fill="url(#paint1_radial_766_27643)"/>
<path d="M21.5762 0.306152C20.3366 1.22643 19.0971 2.14693 17.8576 3.06735C17.554 3.29276 17.2397 3.53084 17.0685 3.87446C16.9128 4.18645 16.8896 4.56091 16.7026 4.85403C16.2928 5.49631 15.2112 5.59817 15.0945 6.35824C15.0775 6.46889 15.0853 6.58458 15.0499 6.69055C14.9357 7.03244 14.4858 7.06846 14.2031 7.2814C13.6134 7.72522 13.9155 8.74621 13.5049 9.36955C13.2371 9.77613 12.7081 9.94131 12.4613 10.3618C12.2394 10.7403 12.303 11.2219 12.207 11.6534C12.1245 12.0239 11.9246 12.3532 11.7256 12.6731C11.2326 13.4652 10.7143 14.2758 10.547 15.2019C11.3451 14.8238 11.3854 13.6582 11.9426 12.9565C12.315 12.4875 12.9215 12.2307 13.1966 11.6946C13.3357 11.4233 13.3729 11.1103 13.4629 10.8177C13.611 10.3376 13.8994 9.91942 14.1836 9.51003C14.9815 8.36031 15.8048 7.18487 16.9431 6.39959C15.5786 7.66846 14.5447 9.31394 13.9779 11.1189C13.8863 11.4106 13.8052 11.7098 13.6525 11.9726C13.5009 12.2343 13.2854 12.4481 13.083 12.6696C12.3413 13.4808 11.7453 14.4338 11.334 15.466C10.8902 16.58 10.622 17.8451 9.75283 18.647C9.2693 19.0933 8.65024 19.3429 8.04546 19.5837C7.50126 19.8003 6.95693 20.017 6.41281 20.2336C6.07337 20.3687 5.72947 20.505 5.36795 20.5475C4.83135 20.6105 4.28918 20.4614 3.79583 20.234C2.52679 19.6484 1.50276 18.5179 1.02076 17.1698L0.635212 17.1659C0.429138 16.9174 0.256214 16.6356 0.128906 16.3348C0.133712 16.3234 0.137821 16.3119 0.141999 16.3004C0.26088 15.9693 0.314087 15.6133 0.297582 15.2606C0.288737 15.0711 0.260601 14.8761 0.31736 14.6957C0.357266 14.5693 0.436938 14.4577 0.464656 14.3278C0.472247 14.2921 0.475799 14.2564 0.476217 14.2206C0.482067 13.7116 0.777772 13.2502 1.2416 13.0801C1.25448 13.0754 1.26743 13.0708 1.28053 13.0664C1.4726 13.0012 1.67791 12.9675 1.85174 12.8606C2.55904 12.4265 2.44663 11.028 3.25721 10.8841C3.40973 10.8569 3.57241 10.8867 3.71671 10.829C4.12552 10.6654 4.12065 9.94268 4.5438 9.82447C4.76464 9.7628 5.0125 9.90681 5.22247 9.81265C5.53008 9.67456 5.4837 9.18046 5.72766 8.94252C5.96814 8.70803 6.39352 8.81018 6.64131 8.5842C6.8758 8.37054 6.84251 7.96511 7.05088 7.72414C7.31163 7.42288 7.83987 7.49723 8.07401 7.17349C8.21302 6.98158 8.20738 6.69437 8.38142 6.53567C8.62997 6.30897 9.08544 6.48668 9.30781 6.23253C9.44417 6.07679 9.423 5.82682 9.54104 5.6558C9.73528 5.37421 10.1591 5.45784 10.4647 5.31744C10.799 5.16393 10.9668 4.74971 11.3013 4.59599C11.5023 4.50371 11.7452 4.51581 11.9244 4.38398C12.0307 4.30567 12.1002 4.18638 12.1786 4.07854C12.4416 3.71583 12.8196 3.46413 13.189 3.22007C14.2346 2.52981 15.2805 1.83962 16.3261 1.14935C15.2519 1.96604 14.1775 2.78287 13.1033 3.59978C12.8347 3.80393 12.5525 4.02646 12.4369 4.34976C12.3959 4.46445 12.3748 4.59332 12.2924 4.68085C12.1391 4.84351 11.8772 4.77428 11.6634 4.82608C11.3758 4.89559 11.1954 5.17848 10.9934 5.40129C10.8682 5.53932 10.7262 5.65983 10.5846 5.77992C10.0236 6.25609 9.46249 6.73204 8.90123 7.20807C8.70909 7.37109 8.51673 7.53447 8.3117 7.67999C8.11036 7.82312 7.89301 7.95279 7.74132 8.15089C7.66611 8.24901 7.60921 8.3616 7.53031 8.45655C7.36748 8.6522 7.1277 8.7555 6.90554 8.87321C6.12365 9.28743 5.47103 9.9581 5.06556 10.7643C5.92461 9.61016 7.49632 9.27886 8.48066 8.23719C8.72267 7.98117 8.93926 7.67509 9.26052 7.54153C9.75547 7.33601 10.3681 7.59808 10.8283 7.31944C11.2527 7.06255 11.3809 6.43712 11.8242 6.21719C12.1414 6.05972 12.5347 6.15776 12.8519 6.0005C13.2993 5.77891 13.4598 5.12078 13.9374 4.98211C14.1278 4.92685 14.3329 4.96921 14.5274 4.93197C14.7545 4.88853 14.9482 4.74143 15.133 4.59836C16.502 3.53948 17.8711 2.48061 19.24 1.42173C18.8952 1.70829 18.5944 2.05162 18.3537 2.43551C19.3777 1.64548 20.4118 0.849171 21.5762 0.306152Z" fill="url(#paint2_radial_766_27643)"/>
<path d="M21.4399 0.408691C20.2111 1.32105 18.9822 2.23362 17.7533 3.14619C17.4524 3.36965 17.1407 3.60571 16.9709 3.94631C16.8167 4.25564 16.7936 4.62685 16.6082 4.91745C16.2019 5.55419 15.1296 5.65525 15.0139 6.4087C14.997 6.51841 15.0047 6.63309 14.9696 6.73812C14.8564 7.07713 14.4104 7.11279 14.1301 7.32386C13.5455 7.76387 13.845 8.77607 13.4379 9.39408C13.1724 9.7972 12.648 9.96087 12.4032 10.3778C12.1832 10.7531 12.2462 11.2306 12.1511 11.6583C12.0693 12.0256 11.871 12.3522 11.6738 12.6693C11.185 13.4545 10.6712 14.2582 10.5053 15.1762C11.2966 14.8015 11.3365 13.6458 11.8889 12.9501C12.2581 12.4851 12.8593 12.2305 13.1322 11.699C13.2701 11.4301 13.3069 11.1197 13.3963 10.8296C13.5431 10.3537 13.829 9.93904 14.1108 9.53318C14.9018 8.39333 15.718 7.22798 16.8465 6.44947C15.4937 7.70746 14.4688 9.33882 13.9068 11.1282C13.816 11.4175 13.7356 11.714 13.5843 11.9747C13.434 12.2341 13.2204 12.446 13.0196 12.6657C12.2843 13.4699 11.6934 14.4147 11.2857 15.438C10.8457 16.5424 10.5798 17.7966 9.71808 18.5918C9.23873 19.0342 8.62496 19.2817 8.02541 19.5204C7.48588 19.7351 6.94628 19.9499 6.40676 20.1647C6.07024 20.2986 5.72927 20.4338 5.37089 20.4759C4.83888 20.5384 4.30137 20.3905 3.81227 20.1651C2.55417 19.5846 1.53891 18.4637 1.06102 17.1272L0.678746 17.1233C0.474413 16.877 0.303021 16.5976 0.176758 16.2994C0.181494 16.2881 0.185603 16.2766 0.189712 16.2652C0.307548 15.9371 0.360337 15.5841 0.343971 15.2344C0.335196 15.0466 0.307269 14.8532 0.36361 14.6744C0.403168 14.5491 0.482143 14.4384 0.509652 14.3096C0.517243 14.2741 0.520656 14.2387 0.521074 14.2033C0.526924 13.6987 0.820052 13.2412 1.27984 13.0726C1.29265 13.0679 1.30547 13.0634 1.31842 13.059C1.50889 12.9943 1.71239 12.9609 1.88476 12.855C2.58599 12.4246 2.4745 11.0381 3.27818 10.8955C3.42937 10.8685 3.59067 10.898 3.73371 10.8409C4.13904 10.6786 4.13416 9.96216 4.55369 9.84496C4.77258 9.78387 5.01842 9.92658 5.22652 9.83322C5.53148 9.69635 5.48552 9.20642 5.72739 8.97056C5.96578 8.73803 6.38754 8.83939 6.63324 8.61535C6.86578 8.40356 6.83277 8.00152 7.03933 7.76271C7.29784 7.46405 7.82149 7.53781 8.05368 7.21681C8.1915 7.02656 8.18593 6.7418 8.35851 6.58447C8.60491 6.35971 9.05647 6.53591 9.27696 6.28393C9.41221 6.12948 9.39118 5.88174 9.50818 5.71209C9.70081 5.43295 10.1209 5.51586 10.4239 5.37669C10.7554 5.22447 10.9217 4.81386 11.2532 4.66142C11.4525 4.56994 11.6934 4.58197 11.871 4.45122C11.9764 4.37357 12.0453 4.25535 12.123 4.14837C12.3838 3.78876 12.7585 3.5393 13.1247 3.29732C14.1614 2.61297 15.1982 1.92876 16.2349 1.2444C15.1698 2.0541 14.1048 2.86394 13.0398 3.67372C12.7735 3.87607 12.4937 4.09672 12.3791 4.41729C12.3385 4.53097 12.3175 4.65876 12.2358 4.74557C12.0839 4.90679 11.8242 4.83813 11.6122 4.88957C11.3271 4.95851 11.1483 5.23888 10.948 5.45982C10.8239 5.59669 10.6831 5.71613 10.5428 5.83513C9.98656 6.3072 9.43025 6.77911 8.8738 7.25103C8.68332 7.41268 8.49257 7.5747 8.28935 7.71884C8.08976 7.86076 7.87421 7.98927 7.72385 8.18572C7.64926 8.28297 7.59292 8.39463 7.51464 8.48878C7.35321 8.6827 7.11545 8.78514 6.89524 8.90184C6.12004 9.31246 5.47305 9.97744 5.07107 10.7767C5.92274 9.63238 7.48094 9.30396 8.45678 8.2713C8.69677 8.01751 8.91141 7.71402 9.22995 7.58161C9.72066 7.37789 10.3279 7.63766 10.7843 7.36139C11.2051 7.10674 11.3322 6.48664 11.7717 6.26866C12.0862 6.11255 12.4761 6.20973 12.7905 6.05384C13.2342 5.83413 13.3932 5.18168 13.8667 5.04416C14.0555 4.98942 14.2588 5.03134 14.4517 4.99446C14.6767 4.95138 14.8688 4.8055 15.0521 4.66373C16.4093 3.61393 17.7665 2.5642 19.1237 1.5144C18.7819 1.79851 18.4837 2.13889 18.2451 2.51946C19.2603 1.73648 20.2856 0.947028 21.4399 0.408691Z" fill="url(#paint3_radial_766_27643)"/>
<path d="M21.2937 0.510742C20.0755 1.41525 18.8571 2.31989 17.639 3.22454C17.3407 3.44605 17.0317 3.68011 16.8635 4.01775C16.7105 4.32441 16.6876 4.69245 16.5038 4.98045C16.1012 5.61172 15.038 5.71185 14.9233 6.45881C14.9066 6.56751 14.9142 6.68126 14.8795 6.78543C14.7673 7.12148 14.325 7.15685 14.0472 7.36612C13.4677 7.80231 13.7646 8.80579 13.361 9.4184C13.0978 9.81799 12.5779 9.98029 12.3353 10.3936C12.1172 10.7656 12.1797 11.239 12.0853 11.663C12.0043 12.0272 11.8077 12.3508 11.6122 12.6652C11.1277 13.4437 10.6184 14.2403 10.4539 15.1505C11.2383 14.779 11.2778 13.6333 11.8255 12.9437C12.1915 12.4827 12.7875 12.2303 13.058 11.7034C13.1947 11.4369 13.2312 11.1291 13.3197 10.8416C13.4652 10.3698 13.7487 9.95875 14.028 9.55642C14.8122 8.42644 15.6213 7.27125 16.7401 6.49944C15.399 7.74655 14.383 9.36379 13.8259 11.1377C13.7359 11.4244 13.6562 11.7184 13.5062 11.9768C13.3571 12.2339 13.1454 12.444 12.9464 12.6618C12.2175 13.4591 11.6318 14.3957 11.2275 15.4102C10.7914 16.505 10.5277 17.7483 9.6735 18.5366C9.19826 18.9753 8.58985 19.2205 7.99552 19.4572C7.46066 19.67 6.92573 19.8829 6.39087 20.0959C6.05728 20.2287 5.7193 20.3627 5.36398 20.4044C4.83657 20.4664 4.30366 20.3198 3.81888 20.0962C2.57164 19.5208 1.56516 18.4096 1.09144 17.0847L0.712515 17.0809C0.509992 16.8366 0.339993 16.5597 0.214844 16.2641C0.219579 16.2528 0.223619 16.2415 0.227728 16.2302C0.344519 15.9049 0.396822 15.555 0.380665 15.2083C0.37196 15.0221 0.344311 14.8304 0.400165 14.6531C0.439374 14.529 0.517653 14.4192 0.544953 14.2915C0.552474 14.2564 0.555886 14.2214 0.556304 14.1862C0.562085 13.686 0.852637 13.2325 1.30852 13.0653C1.3212 13.0606 1.33394 13.0561 1.34675 13.0518C1.53556 12.9876 1.73731 12.9545 1.90815 12.8495C2.60326 12.4229 2.4928 11.0484 3.28945 10.9069C3.43932 10.8803 3.59922 10.9094 3.74109 10.8528C4.14286 10.692 4.13812 9.98173 4.55396 9.86554C4.77097 9.80495 5.01465 9.94643 5.22094 9.85386C5.52326 9.71815 5.47771 9.23254 5.71749 8.99864C5.95379 8.76812 6.37193 8.86854 6.61547 8.64644C6.84599 8.43645 6.81326 8.03794 7.01801 7.80116C7.2743 7.50508 7.79342 7.5782 8.02359 7.25994C8.16023 7.07134 8.15465 6.78903 8.32577 6.63307C8.57001 6.41026 9.01767 6.58495 9.23621 6.33512C9.37028 6.18204 9.34945 5.93639 9.46541 5.76826C9.65637 5.49149 10.0728 5.57368 10.3732 5.43573C10.7017 5.28481 10.8667 4.8778 11.1953 4.72674C11.3929 4.63604 11.6317 4.648 11.8077 4.51833C11.9122 4.4414 11.9806 4.32412 12.0576 4.21808C12.3162 3.86164 12.6876 3.61426 13.0507 3.37438C14.0784 2.69593 15.1062 2.01763 16.1339 1.33925C15.0781 2.14189 14.0222 2.94475 12.9664 3.74753C12.7024 3.94816 12.4251 4.16686 12.3116 4.48462C12.2713 4.59729 12.2505 4.724 12.1695 4.81002C12.0189 4.96987 11.7615 4.90179 11.5514 4.95279C11.2687 5.02116 11.0914 5.29915 10.8929 5.51815C10.7699 5.65379 10.6303 5.77222 10.4912 5.89022C9.93975 6.35817 9.38832 6.82599 8.83667 7.2938C8.64787 7.45401 8.45872 7.61465 8.25731 7.75757C8.05938 7.89826 7.84579 8.02563 7.69675 8.22034C7.62286 8.31673 7.56694 8.42745 7.48935 8.52074C7.32931 8.71301 7.09364 8.81458 6.87531 8.93027C6.10687 9.33736 5.46545 9.99657 5.06688 10.7889C5.91117 9.65454 7.45586 9.32893 8.42327 8.3052C8.66117 8.05358 8.874 7.75275 9.18976 7.6215C9.67615 7.4195 10.2782 7.67704 10.7306 7.40315C11.1478 7.15073 11.2738 6.53603 11.7095 6.31985C12.0211 6.16511 12.4078 6.2615 12.7194 6.10691C13.1591 5.88914 13.3169 5.24231 13.7864 5.10602C13.9735 5.05177 14.175 5.09334 14.3662 5.05674C14.5893 5.01402 14.7797 4.86945 14.9614 4.72883C16.3069 3.68817 17.6524 2.64745 18.9979 1.60679C18.6591 1.88846 18.3634 2.22588 18.1268 2.60315C19.1329 1.82701 20.1493 1.0444 21.2937 0.510742Z" fill="url(#paint4_radial_766_27643)"/>
<path d="M21.1572 0.613525C19.9497 1.5101 18.742 2.40683 17.5345 3.30355C17.2388 3.52312 16.9325 3.75516 16.7658 4.08984C16.6141 4.39384 16.5914 4.75863 16.4093 5.04412C16.0101 5.66984 14.9563 5.76911 14.8426 6.50951C14.826 6.61728 14.8336 6.73001 14.7991 6.83324C14.6879 7.16634 14.2495 7.20143 13.9742 7.4089C13.3997 7.84134 13.694 8.83596 13.2939 9.44323C13.033 9.83937 12.5177 10.0002 12.2773 10.4099C12.061 10.7787 12.1229 11.2478 12.0295 11.6682C11.9491 12.0292 11.7543 12.35 11.5605 12.6617C11.0802 13.4334 10.5752 14.223 10.4123 15.1252C11.1898 14.7569 11.229 13.6213 11.7719 12.9377C12.1347 12.4808 12.7255 12.2305 12.9936 11.7082C13.1291 11.444 13.1653 11.139 13.2531 10.8539C13.3973 10.3862 13.6783 9.97876 13.9552 9.57996C14.7325 8.45985 15.5345 7.31474 16.6435 6.5497C15.3142 7.78594 14.3069 9.38899 13.7548 11.1474C13.6656 11.4316 13.5865 11.7231 13.4379 11.9792C13.2901 12.234 13.0802 12.4424 12.883 12.6582C12.1605 13.4485 11.5798 14.3769 11.1791 15.3826C10.7468 16.4678 10.4855 17.7003 9.63869 18.4816C9.16762 18.9165 8.56451 19.1596 7.97533 19.3942C7.4452 19.6051 6.91487 19.8163 6.38475 20.0273C6.05408 20.159 5.71903 20.2917 5.36684 20.3331C4.84403 20.3946 4.31586 20.2492 3.83525 20.0277C2.59895 19.4573 1.60124 18.3558 1.13163 17.0425L0.755977 17.0387C0.555196 16.7966 0.38673 16.5221 0.262695 16.229C0.267361 16.2179 0.271401 16.2067 0.27544 16.1955C0.391257 15.8729 0.443071 15.5262 0.426983 15.1825C0.418347 14.9979 0.390908 14.8079 0.446275 14.6322C0.485136 14.5091 0.562788 14.4003 0.58981 14.2737C0.597262 14.2389 0.600674 14.2041 0.601022 14.1693C0.606733 13.6734 0.894776 13.2239 1.34662 13.0582C1.35923 13.0536 1.37183 13.0491 1.38451 13.0448C1.57164 12.9813 1.77165 12.9484 1.94103 12.8444C2.63008 12.4214 2.5206 11.059 3.31028 10.9188C3.45883 10.8923 3.61734 10.9213 3.75795 10.8651C4.15624 10.7058 4.1515 10.0016 4.56372 9.88641C4.77885 9.82641 5.02037 9.96666 5.22484 9.87488C5.52452 9.74039 5.47939 9.25896 5.71708 9.02715C5.95136 8.79864 6.36581 8.8982 6.60719 8.67805C6.83569 8.46994 6.80323 8.07488 7.00617 7.84018C7.26023 7.54663 7.77483 7.61917 8.00298 7.30372C8.13843 7.11671 8.13293 6.83692 8.30251 6.68233C8.54466 6.46146 8.98843 6.63456 9.20502 6.38704C9.3379 6.23533 9.31721 5.99178 9.43219 5.82515C9.62148 5.55083 10.0343 5.63231 10.3321 5.49551C10.6578 5.34596 10.8213 4.9424 11.1471 4.79264C11.3429 4.70273 11.5796 4.71455 11.7541 4.58611C11.8577 4.50982 11.9254 4.39362 12.0017 4.28852C12.258 3.93518 12.6262 3.68996 12.9862 3.45224C14.0048 2.77969 15.0237 2.10737 16.0424 1.43483C14.9958 2.23048 13.9492 3.02628 12.9027 3.82207C12.6409 4.02097 12.3661 4.23773 12.2535 4.55275C12.2135 4.66448 12.1929 4.79005 12.1127 4.87534C11.9634 5.03375 11.7083 4.96632 11.4999 5.01682C11.2197 5.08461 11.044 5.36015 10.8471 5.5772C10.7253 5.71169 10.5868 5.82904 10.449 5.94603C9.90236 6.40995 9.35573 6.87366 8.80896 7.33736C8.62176 7.49621 8.43435 7.65541 8.23461 7.7971C8.03842 7.93657 7.82671 8.06285 7.67893 8.25584C7.60566 8.35144 7.55023 8.46108 7.47334 8.55364C7.31469 8.74426 7.08111 8.84489 6.86466 8.95958C6.1029 9.36313 5.46713 10.0165 5.07204 10.8019C5.90902 9.6775 7.44012 9.3547 8.39911 8.33991C8.63492 8.09052 8.84587 7.79228 9.15891 7.66218C9.64105 7.46199 10.2379 7.71729 10.6863 7.44578C11.0999 7.19552 11.2247 6.58623 11.6566 6.37199C11.9655 6.21855 12.3488 6.31414 12.6577 6.16085C13.0936 5.94495 13.25 5.30381 13.7153 5.16867C13.9008 5.11486 14.1006 5.15607 14.2902 5.11983C14.5113 5.07747 14.7001 4.93419 14.8802 4.7948C16.2139 3.76322 17.5476 2.73165 18.8813 1.70007C18.5454 1.97921 18.2524 2.31368 18.0178 2.6877C19.0154 1.91834 20.0229 1.14257 21.1572 0.613525Z" fill="url(#paint5_radial_766_27643)"/>
<path d="M21.0162 0.715576C19.8193 1.60423 18.6222 2.4931 17.4254 3.3819C17.1322 3.59953 16.8286 3.82947 16.6633 4.16128C16.513 4.46261 16.4905 4.82417 16.3099 5.10713C15.9143 5.7273 14.8698 5.8257 14.7571 6.55962C14.7406 6.66645 14.7481 6.77818 14.714 6.88048C14.6038 7.21063 14.1693 7.24542 13.8963 7.45101C13.3268 7.87964 13.6186 8.86547 13.222 9.46742C12.9635 9.86002 12.4527 10.0195 12.2143 10.4256C11.9999 10.7911 12.0614 11.2562 11.9687 11.6728C11.889 12.0306 11.6959 12.3486 11.5039 12.6575C11.0278 13.4223 10.5273 14.205 10.3658 15.0993C11.1365 14.7343 11.1753 13.6086 11.7134 12.9311C12.073 12.4782 12.6586 12.2301 12.9244 11.7125C13.0587 11.4506 13.0946 11.1483 13.1816 10.8657C13.3246 10.4021 13.6031 9.99826 13.8774 9.60299C14.6479 8.49275 15.4429 7.35772 16.5421 6.59938C15.2245 7.82467 14.2262 9.41368 13.6788 11.1566C13.5904 11.4382 13.512 11.7272 13.3647 11.9809C13.2183 12.2336 13.0102 12.44 12.8147 12.654C12.0986 13.4373 11.523 14.3576 11.1258 15.3543C10.6973 16.43 10.4383 17.6516 9.59899 18.4261C9.1321 18.857 8.53428 19.098 7.95033 19.3306C7.42487 19.5396 6.8992 19.7489 6.37374 19.9582C6.046 20.0886 5.71387 20.2202 5.36482 20.2612C4.84668 20.3221 4.3231 20.1781 3.84667 19.9585C2.62123 19.3931 1.63237 18.3013 1.16694 16.9995L0.794629 16.9958C0.595588 16.7558 0.428654 16.4837 0.305664 16.1932C0.310261 16.1822 0.3143 16.1711 0.318269 16.1599C0.433041 15.8403 0.484438 15.4965 0.46849 15.1559C0.459993 14.9729 0.432762 14.7846 0.487641 14.6105C0.526154 14.4884 0.60311 14.3807 0.629853 14.2552C0.637235 14.2207 0.640577 14.1862 0.640995 14.1517C0.646636 13.6602 0.932173 13.2147 1.38005 13.0504C1.39251 13.0459 1.40505 13.0414 1.41766 13.0372C1.60319 12.9742 1.80139 12.9416 1.9693 12.8385C2.65229 12.4192 2.54372 11.0688 3.32651 10.9298C3.4738 10.9036 3.63085 10.9323 3.7702 10.8767C4.16501 10.7187 4.16027 10.0208 4.56887 9.90663C4.78212 9.84713 5.02148 9.98616 5.22421 9.89518C5.52124 9.76183 5.47646 9.28473 5.71206 9.05493C5.94425 8.82844 6.35508 8.92713 6.59437 8.70893C6.82085 8.50262 6.78868 8.11109 6.98988 7.87841C7.24164 7.58745 7.7517 7.65935 7.97783 7.3467C8.11204 7.16135 8.10661 6.88401 8.27472 6.73078C8.51471 6.51186 8.95458 6.68346 9.16929 6.4381C9.30099 6.28768 9.28051 6.04635 9.39452 5.88117C9.58213 5.6093 9.99129 5.68998 10.2865 5.55448C10.6093 5.40623 10.7714 5.00628 11.0943 4.85788C11.2884 4.76877 11.523 4.78051 11.6959 4.65315C11.7986 4.57751 11.8657 4.46239 11.9414 4.35815C12.1955 4.00791 12.5604 3.76486 12.9171 3.52922C13.9268 2.86266 14.9367 2.19624 15.9464 1.5296C14.9091 2.31827 13.8717 3.10701 12.8343 3.89582C12.575 4.09291 12.3025 4.30787 12.1909 4.62009C12.1513 4.73081 12.1309 4.85529 12.0513 4.93979C11.9033 5.09683 11.6505 5.02997 11.444 5.08004C11.1662 5.14718 10.9921 5.42035 10.797 5.63545C10.6762 5.76872 10.539 5.88506 10.4023 6.00104C9.8605 6.46086 9.31867 6.92046 8.77671 7.38013C8.59118 7.5376 8.40537 7.69536 8.20745 7.83584C8.013 7.97408 7.8031 8.09921 7.65664 8.29054C7.584 8.38527 7.52905 8.49397 7.45286 8.58568C7.29561 8.77456 7.06405 8.87433 6.84955 8.98801C6.09454 9.38796 5.46434 10.0356 5.07274 10.8142C5.90233 9.69959 7.41999 9.37967 8.37048 8.37388C8.60421 8.12665 8.81334 7.83109 9.1236 7.70214C9.6015 7.50367 10.193 7.75674 10.6375 7.48761C11.0474 7.23958 11.1712 6.63562 11.5992 6.42325C11.9054 6.27118 12.2853 6.36591 12.5916 6.21399C13.0236 6.00003 13.1786 5.36452 13.6398 5.2306C13.8237 5.17729 14.0217 5.21814 14.2096 5.18219C14.4288 5.14019 14.6159 4.99814 14.7944 4.86004C16.1163 3.83754 17.4383 2.81504 18.7603 1.79254C18.4274 2.06923 18.1369 2.40075 17.9044 2.77146C18.8932 2.00894 19.8918 1.23994 21.0162 0.715576Z" fill="url(#paint6_radial_766_27643)"/>
<path d="M20.8748 0.817627C19.6886 1.69843 18.5022 2.57931 17.316 3.46025C17.0255 3.67593 16.7246 3.90386 16.5608 4.23271C16.4118 4.53138 16.3895 4.88969 16.2106 5.17021C15.8184 5.7849 14.7832 5.88244 14.6715 6.6098C14.6552 6.7157 14.6626 6.82642 14.6288 6.92785C14.5195 7.25512 14.0889 7.28955 13.8183 7.49334C13.2539 7.91815 13.543 8.89527 13.15 9.49181C12.8937 9.88096 12.3875 10.039 12.1513 10.4415C11.9389 10.8038 11.9997 11.2647 11.9079 11.6776C11.8289 12.0322 11.6376 12.3474 11.4472 12.6535C10.9753 13.4117 10.4793 14.1874 10.3192 15.0736C11.083 14.7119 11.1215 13.5962 11.6549 12.9247C12.0112 12.4758 12.5916 12.23 12.855 11.7169C12.9881 11.4574 13.0237 11.1577 13.1099 10.8777C13.2516 10.4182 13.5276 10.0179 13.7997 9.62616C14.5633 8.52578 15.3512 7.40085 16.4407 6.64928C15.1347 7.86369 14.1453 9.4385 13.6028 11.1659C13.5152 11.445 13.4376 11.7314 13.2915 11.9829C13.1464 12.2333 12.9402 12.4379 12.7464 12.65C12.0366 13.4264 11.4662 14.3384 11.0726 15.3263C10.6479 16.3925 10.3912 17.6032 9.55929 18.3708C9.09651 18.7979 8.50406 19.0368 7.92525 19.2672C7.40446 19.4744 6.88353 19.6818 6.36274 19.8892C6.03792 20.0185 5.70872 20.149 5.3628 20.1896C4.84925 20.25 4.33034 20.1072 3.85816 19.8896C2.64365 19.3292 1.66357 18.2472 1.20225 16.957L0.833211 16.9533C0.635981 16.7154 0.470508 16.4458 0.348633 16.1579C0.353229 16.1469 0.357199 16.1359 0.361169 16.1249C0.474896 15.8081 0.525875 15.4674 0.510066 15.1298C0.501639 14.9484 0.474687 14.7618 0.529008 14.5892C0.567242 14.4682 0.643432 14.3614 0.669966 14.2371C0.677279 14.2029 0.680623 14.1687 0.68104 14.1345C0.686682 13.6474 0.969641 13.2058 1.41355 13.043C1.42587 13.0384 1.43834 13.034 1.45081 13.0299C1.63466 12.9674 1.83113 12.9352 1.99751 12.833C2.67444 12.4175 2.56684 11.079 3.34259 10.9413C3.48857 10.9153 3.64422 10.9438 3.78239 10.8886C4.17365 10.732 4.16898 10.0404 4.57395 9.9272C4.78525 9.86821 5.02253 10.006 5.22345 9.9159C5.51783 9.78371 5.47347 9.31085 5.70698 9.08314C5.93708 8.85867 6.34421 8.9565 6.58142 8.74024C6.80588 8.53573 6.77398 8.14773 6.97337 7.91714C7.2229 7.62877 7.72844 7.70002 7.95255 7.39011C8.08557 7.20642 8.08021 6.93152 8.2468 6.77967C8.48463 6.56269 8.92059 6.73277 9.13342 6.48958C9.26393 6.34053 9.24367 6.10129 9.35663 5.93762C9.54258 5.66813 9.94811 5.74816 10.2407 5.61381C10.5606 5.46686 10.7212 5.07051 11.0413 4.92341C11.2337 4.83509 11.4662 4.84668 11.6377 4.72047C11.7394 4.64556 11.806 4.53138 11.8809 4.42815C12.1327 4.081 12.4943 3.84017 12.848 3.60656C13.8487 2.9459 14.8496 2.28539 15.8503 1.62473C14.8222 2.40634 13.7941 3.18816 12.7659 3.96991C12.5089 4.16528 12.2388 4.3783 12.1282 4.6877C12.0889 4.79741 12.0687 4.92074 11.9898 5.00459C11.8431 5.16027 11.5925 5.09399 11.3879 5.14362C11.1127 5.21019 10.94 5.4809 10.7467 5.69413C10.6269 5.82625 10.491 5.94151 10.3555 6.05648C9.81857 6.51219 9.28155 6.96776 8.7444 7.42332C8.56054 7.57936 8.3764 7.73575 8.18022 7.87493C7.98751 8.01194 7.77949 8.13599 7.63428 8.3256C7.56234 8.41946 7.50788 8.52723 7.43232 8.61814C7.27646 8.80536 7.04698 8.90427 6.83436 9.01694C6.08605 9.41336 5.46149 10.0552 5.07336 10.8268C5.89557 9.72218 7.39973 9.40515 8.34179 8.40822C8.57342 8.16322 8.78068 7.87024 9.08816 7.74245C9.5618 7.54579 10.1481 7.79655 10.5886 7.52987C10.9948 7.284 11.1175 6.68544 11.5418 6.47502C11.8453 6.32432 12.2218 6.41818 12.5253 6.26762C12.9535 6.05555 13.1071 5.42572 13.5642 5.29296C13.7464 5.24008 13.9427 5.28057 14.1289 5.24498C14.3461 5.20341 14.5315 5.06258 14.7085 4.92571C16.0187 3.91229 17.3289 2.89893 18.6391 1.88551C18.3091 2.15976 18.0212 2.48832 17.7908 2.85578C18.7707 2.09946 19.7606 1.33738 20.8748 0.817627Z" fill="url(#paint7_radial_766_27643)"/>
<path d="M20.7337 0.918945C19.5581 1.79182 18.3823 2.66485 17.2067 3.53787C16.9188 3.7516 16.6206 3.97752 16.4583 4.30334C16.3107 4.59927 16.2886 4.95442 16.1112 5.23241C15.7226 5.84156 14.6966 5.93823 14.586 6.65904C14.5698 6.76393 14.5772 6.87371 14.5437 6.9742C14.4354 7.29852 14.0086 7.33266 13.7405 7.53458C13.1812 7.95557 13.4677 8.9239 13.0782 9.51511C12.8242 9.90073 12.3225 10.0574 12.0885 10.4562C11.8779 10.8152 11.9382 11.272 11.8472 11.6812C11.7689 12.0326 11.5794 12.345 11.3906 12.6484C10.923 13.3997 10.4315 14.1684 10.2728 15.0468C11.0298 14.6883 11.0679 13.5826 11.5965 12.9172C11.9497 12.4723 12.5248 12.2287 12.7859 11.7203C12.9178 11.463 12.9531 11.1661 13.0385 10.8886C13.1789 10.4332 13.4525 10.0365 13.7221 9.64831C14.4788 8.5578 15.2597 7.44302 16.3393 6.69815C15.0452 7.90169 14.0646 9.46231 13.527 11.1743C13.4402 11.451 13.3632 11.7347 13.2184 11.9841C13.0746 12.2322 12.8703 12.435 12.6782 12.6451C11.9747 13.4145 11.4095 14.3184 11.0194 15.2974C10.5985 16.354 10.344 17.5539 9.51966 18.3145C9.06106 18.7378 8.4739 18.9745 7.90032 19.2029C7.38419 19.4083 6.86793 19.6138 6.3518 19.8194C6.02984 19.9475 5.7037 20.0768 5.36078 20.1171C4.85183 20.1769 4.33758 20.0354 3.86965 19.8197C2.66601 19.2644 1.69476 18.192 1.23756 16.9134L0.871861 16.9098C0.676372 16.6741 0.512363 16.4068 0.391602 16.1215C0.396128 16.1107 0.400098 16.0997 0.403998 16.0888C0.51675 15.7749 0.567241 15.4372 0.551572 15.1026C0.543215 14.9229 0.516472 14.738 0.570376 14.5669C0.608262 14.447 0.683755 14.3411 0.71008 14.2179C0.717323 14.1841 0.720665 14.1502 0.721013 14.1163C0.726585 13.6335 1.00704 13.1959 1.4469 13.0346C1.45916 13.0301 1.47142 13.0257 1.48382 13.0215C1.666 12.9597 1.86072 12.9277 2.02557 12.8264C2.69637 12.4146 2.58975 11.0882 3.35861 10.9517C3.50326 10.9259 3.65752 10.9541 3.79444 10.8995C4.18221 10.7443 4.17754 10.0588 4.5789 9.94669C4.78831 9.88827 5.02343 10.0248 5.22254 9.93545C5.51428 9.80449 5.47033 9.33581 5.70175 9.11012C5.92984 8.88766 6.33328 8.98456 6.56832 8.77025C6.79076 8.5676 6.75915 8.18299 6.95679 7.95449C7.2041 7.66872 7.70511 7.73931 7.9272 7.43222C8.05904 7.25018 8.05367 6.97773 8.2188 6.82725C8.45454 6.61221 8.88654 6.78078 9.09742 6.53975C9.22674 6.392 9.20669 6.15499 9.3186 5.99269C9.50288 5.72565 9.90479 5.80496 10.1947 5.67176C10.5117 5.52618 10.6709 5.13329 10.9881 4.98755C11.1788 4.90003 11.4092 4.91155 11.5791 4.78643C11.6799 4.71215 11.7459 4.59905 11.8202 4.49669C12.0697 4.15271 12.4281 3.91398 12.7785 3.68252C13.7703 3.02777 14.7622 2.37324 15.7539 1.71849C14.735 2.49311 13.7161 3.26787 12.6972 4.04264C12.4424 4.23627 12.1748 4.44734 12.0652 4.75401C12.0263 4.86278 12.0063 4.98496 11.9281 5.06802C11.7827 5.22225 11.5343 5.15662 11.3315 5.20575C11.0587 5.27174 10.8877 5.53994 10.696 5.75129C10.5773 5.88226 10.4426 5.99651 10.3084 6.1104C9.77623 6.562 9.24401 7.01347 8.71173 7.46493C8.52954 7.61959 8.34701 7.77454 8.15264 7.91249C7.96168 8.04828 7.75553 8.17118 7.61165 8.35912C7.54033 8.4522 7.48636 8.55896 7.41149 8.64908C7.2571 8.83465 7.02964 8.93261 6.81897 9.04427C6.07741 9.43709 5.45842 10.0733 5.07378 10.8379C5.88861 9.74318 7.37925 9.42903 8.31289 8.44103C8.54243 8.19819 8.74788 7.90788 9.05257 7.78124C9.52196 7.58631 10.103 7.83491 10.5396 7.57053C10.9421 7.3269 11.0637 6.73374 11.4842 6.52512C11.785 6.37579 12.1581 6.46879 12.4589 6.3196C12.8833 6.10939 13.0355 5.48526 13.4885 5.35365C13.6691 5.30127 13.8636 5.3414 14.0481 5.3061C14.2634 5.2649 14.4471 5.12536 14.6225 4.98971C15.9209 3.98544 17.2194 2.98109 18.5178 1.97682C18.1909 2.24861 17.9055 2.57422 17.6772 2.93837C18.6485 2.18925 19.6293 1.43394 20.7337 0.918945Z" fill="url(#paint8_radial_766_27643)"/>
<path d="M20.6022 1.02246C19.4373 1.88742 18.2722 2.75252 17.1072 3.61761C16.822 3.82948 16.5264 4.0533 16.3655 4.37617C16.2193 4.66943 16.1973 5.02134 16.0216 5.29681C15.6364 5.90048 14.6198 5.99622 14.5102 6.71055C14.4942 6.8145 14.5015 6.92327 14.4682 7.02283C14.3609 7.34419 13.938 7.37805 13.6723 7.57817C13.118 7.99534 13.4019 8.95488 13.016 9.54076C12.7644 9.92292 12.2672 10.0782 12.0353 10.4734C11.8266 10.8291 11.8864 11.2818 11.7962 11.6873C11.7187 12.0355 11.5307 12.345 11.3438 12.6457C10.8804 13.3902 10.3933 14.152 10.236 15.0224C10.9862 14.6671 11.024 13.5715 11.5477 12.912C11.8976 12.4712 12.4676 12.2298 12.7263 11.7259C12.857 11.4711 12.892 11.1768 12.9767 10.9018C13.1158 10.4505 13.3869 10.0575 13.654 9.67273C14.404 8.59217 15.1777 7.4874 16.2476 6.7493C14.9651 7.94189 13.9935 9.48846 13.4607 11.1849C13.3746 11.459 13.2984 11.7402 13.1549 11.9873C13.0124 12.2332 12.8099 12.4341 12.6196 12.6424C11.9226 13.4049 11.3624 14.3005 10.9758 15.2707C10.5588 16.3177 10.3066 17.5067 9.48973 18.2605C9.03524 18.6799 8.45344 18.9145 7.88501 19.1408C7.37355 19.3443 6.86195 19.548 6.3505 19.7516C6.03146 19.8786 5.70825 20.0067 5.36846 20.0466C4.8641 20.1059 4.35452 19.9657 3.89084 19.7519C2.69813 19.2016 1.73566 18.139 1.28263 16.8719L0.920207 16.8683C0.72653 16.6347 0.563983 16.3699 0.444336 16.0872C0.448863 16.0764 0.452762 16.0656 0.456593 16.0548C0.5683 15.7437 0.618305 15.4091 0.602844 15.0776C0.594556 14.8995 0.568092 14.7162 0.621438 14.5466C0.658976 14.4279 0.733843 14.323 0.75989 14.2009C0.767063 14.1673 0.770335 14.1337 0.770753 14.1002C0.776255 13.6218 1.05413 13.1881 1.4901 13.0282C1.50222 13.0238 1.5144 13.0194 1.52666 13.0153C1.70725 12.954 1.90016 12.9223 2.06354 12.822C2.72828 12.4139 2.62263 11.0995 3.38446 10.9643C3.52779 10.9388 3.68065 10.9667 3.81632 10.9126C4.20054 10.7588 4.19601 10.0795 4.59368 9.96844C4.80121 9.91052 5.03424 10.0458 5.23154 9.95735C5.52063 9.82754 5.4771 9.36319 5.70637 9.13951C5.93236 8.91907 6.33218 9.0151 6.56514 8.80273C6.78556 8.60189 6.75429 8.22081 6.95005 7.9944C7.19513 7.71122 7.69161 7.78117 7.91169 7.47688C8.04234 7.2965 8.03704 7.02657 8.20064 6.87738C8.43422 6.6643 8.86232 6.83135 9.07131 6.59248C9.19953 6.4461 9.17961 6.21118 9.29048 6.05039C9.47309 5.78573 9.87138 5.86432 10.1587 5.73242C10.4728 5.58813 10.6306 5.19884 10.9449 5.0544C11.1338 4.96767 11.3622 4.97905 11.5305 4.85515C11.6304 4.78153 11.6957 4.66943 11.7694 4.56808C12.0167 4.22719 12.3718 3.99063 12.7192 3.76126C13.7019 3.11249 14.6848 2.46379 15.6676 1.81502C14.6579 2.58258 13.6483 3.35036 12.6386 4.11806C12.3861 4.3099 12.1209 4.51909 12.0123 4.82295C11.9738 4.93071 11.9539 5.05181 11.8765 5.13415C11.7324 5.28701 11.4863 5.22196 11.2853 5.27066C11.0151 5.336 10.8455 5.60181 10.6556 5.8113C10.538 5.94104 10.4045 6.05428 10.2715 6.16716C9.74414 6.61466 9.2168 7.06209 8.68925 7.50944C8.50867 7.66267 8.3278 7.81625 8.13517 7.95298C7.94595 8.08754 7.74162 8.20936 7.59906 8.39558C7.52837 8.48778 7.47488 8.59361 7.40071 8.68286C7.24771 8.8667 7.02227 8.96381 6.81348 9.07446C6.07861 9.46375 5.46526 10.0941 5.0841 10.8518C5.89155 9.76702 7.36868 9.45568 8.29382 8.47669C8.52127 8.23608 8.72484 7.94837 9.02681 7.82281C9.49196 7.62967 10.0678 7.87597 10.5003 7.61404C10.8992 7.37264 11.0197 6.78482 11.4364 6.57807C11.7345 6.4301 12.1041 6.52224 12.4022 6.37442C12.8228 6.16616 12.9736 5.54764 13.4225 5.41726C13.6014 5.36532 13.7942 5.40508 13.977 5.37014C14.1904 5.3293 14.3725 5.19106 14.5462 5.05656C15.8329 4.06136 17.1196 3.06617 18.4063 2.07097C18.0822 2.34031 17.7996 2.66297 17.5733 3.02381C18.5358 2.28125 19.5078 1.53285 20.6022 1.02246Z" fill="url(#paint9_radial_766_27643)"/>
<path d="M20.4559 1.12378C19.3017 1.98081 18.1472 2.83806 16.9929 3.69523C16.7103 3.90515 16.4174 4.12688 16.2581 4.44687C16.1131 4.73747 16.0914 5.08613 15.9173 5.35908C15.5357 5.95721 14.5283 6.05208 14.4197 6.75992C14.4038 6.86294 14.4111 6.9707 14.3781 7.06939C14.2718 7.3878 13.8528 7.42137 13.5895 7.61962C13.0403 8.03297 13.3217 8.98379 12.9393 9.56427C12.6899 9.9429 12.1973 10.0967 11.9674 10.4884C11.7607 10.8408 11.8199 11.2894 11.7306 11.6912C11.6537 12.0362 11.4675 12.343 11.2823 12.6408C10.8232 13.3785 10.3405 14.1334 10.1846 14.9958C10.9279 14.6438 10.9653 13.5582 11.4843 12.9047C11.8311 12.468 12.3959 12.2287 12.6521 11.7295C12.7817 11.4769 12.8163 11.1853 12.9002 10.9129C13.0381 10.4657 13.3067 10.0763 13.5714 9.69509C14.3144 8.6244 15.0811 7.52972 16.1412 6.79839C14.8704 7.9801 13.9077 9.51248 13.3798 11.1934C13.2945 11.4651 13.2189 11.7437 13.0768 11.9885C12.9356 12.2321 12.7349 12.4312 12.5464 12.6375C11.8556 13.393 11.3007 14.2805 10.9176 15.2418C10.5044 16.2792 10.2545 17.4573 9.44508 18.2042C8.99477 18.6198 8.41826 18.8523 7.85506 19.0765C7.34826 19.2782 6.84133 19.4799 6.33461 19.6818C6.0185 19.8076 5.69821 19.9346 5.36155 19.9741C4.86179 20.0328 4.35688 19.8939 3.89744 19.6822C2.7156 19.1369 1.76198 18.084 1.31306 16.8285L0.953975 16.8249C0.762039 16.5935 0.601024 16.3311 0.482422 16.051C0.486879 16.0404 0.49071 16.0296 0.49461 16.0189C0.605273 15.7107 0.654859 15.3791 0.639468 15.0506C0.63125 14.8742 0.604994 14.6925 0.657923 14.5246C0.695112 14.4068 0.769282 14.3029 0.79512 14.1819C0.802224 14.1487 0.805496 14.1155 0.805845 14.0822C0.811346 13.6082 1.08665 13.1785 1.51857 13.0201C1.53062 13.0157 1.54267 13.0114 1.55479 13.0072C1.7337 12.9465 1.92487 12.9151 2.08679 12.8156C2.74548 12.4113 2.6408 11.1089 3.39567 10.9749C3.53767 10.9496 3.68921 10.9773 3.82362 10.9236C4.20436 10.7713 4.19983 10.0982 4.59388 9.98807C4.79953 9.93065 5.0304 10.0647 5.22589 9.97705C5.51233 9.84846 5.46915 9.38828 5.6964 9.1667C5.9203 8.94828 6.3165 9.04344 6.5473 8.83302C6.7657 8.63405 6.73471 8.25643 6.92873 8.03203C7.17158 7.75145 7.66347 7.82075 7.88159 7.5192C8.01106 7.34047 8.00583 7.073 8.16789 6.92518C8.39932 6.71404 8.82358 6.87958 9.03063 6.64286C9.15766 6.49785 9.13788 6.26503 9.24778 6.10575C9.42871 5.84354 9.82331 5.92141 10.108 5.79066C10.4193 5.64766 10.5756 5.26198 10.887 5.11884C11.0742 5.0329 11.3005 5.0442 11.4673 4.92138C11.5663 4.84848 11.631 4.7374 11.704 4.63691C11.949 4.29912 12.3009 4.06471 12.645 3.83743C13.6188 3.19457 14.5928 2.55185 15.5665 1.90899C14.5661 2.66956 13.5656 3.43028 12.5652 4.19099C12.315 4.3811 12.0522 4.58835 11.9446 4.88947C11.9065 4.99623 11.8868 5.11624 11.81 5.19779C11.6673 5.34929 11.4234 5.28481 11.2243 5.33308C10.9564 5.39784 10.7884 5.66121 10.6003 5.86875C10.4838 5.99726 10.3515 6.10949 10.2197 6.2213C9.69719 6.66476 9.17466 7.10801 8.65198 7.55133C8.47307 7.70318 8.29388 7.85533 8.10299 7.99076C7.91544 8.1241 7.71305 8.24476 7.57182 8.42932C7.50176 8.52066 7.44883 8.62555 7.37528 8.71401C7.22367 8.8962 7.00033 8.99244 6.79342 9.10208C6.06523 9.48784 5.45752 10.1124 5.07985 10.8633C5.87991 9.78838 7.34353 9.47984 8.26024 8.50978C8.48568 8.27134 8.68729 7.98629 8.98655 7.86195C9.44745 7.67055 10.018 7.91461 10.4466 7.65506C10.8419 7.41582 10.9613 6.8334 11.3741 6.6286C11.6695 6.48193 12.0358 6.57327 12.3312 6.42682C12.7478 6.22043 12.8973 5.60761 13.3421 5.47837C13.5194 5.42694 13.7104 5.46634 13.8916 5.43169C14.103 5.39121 14.2834 5.25419 14.4556 5.121C15.7305 4.13487 17.0054 3.14875 18.2804 2.1627C17.9593 2.42953 17.6791 2.74931 17.455 3.10683C18.4084 2.37111 19.3716 1.62948 20.4559 1.12378Z" fill="url(#paint10_radial_766_27643)"/>
<path opacity="0.54" d="M2.87102 12.4278C2.93273 12.2711 3.03823 12.1378 3.14221 12.0072C3.61265 11.4163 4.10837 10.8051 4.78523 10.4955C4.55269 10.7396 4.34544 11.0093 4.16799 11.2987C4.13163 11.3579 4.0957 11.4371 4.16562 11.49C4.17544 11.4974 4.18658 11.503 4.19807 11.5072C4.55827 11.642 4.96122 11.5104 5.28276 11.299C5.59706 11.0923 5.86073 10.8131 6.16542 10.5916C6.57137 10.2963 7.04912 10.1074 7.54199 10.0474C7.36684 10.1477 7.20659 10.2757 7.06848 10.4256C7.01744 10.481 6.96722 10.5443 6.95873 10.6202C6.94494 10.7431 7.04745 10.8511 7.15923 10.895C7.48808 11.0244 7.84354 10.756 8.03116 10.4481C8.21878 10.1402 8.32429 9.77305 8.57403 9.51666C8.71513 9.3718 8.89314 9.27268 9.06843 9.17564C9.60336 8.87935 10.4425 8.38078 10.3319 8.54178C10.2213 8.70286 10.0934 9.03416 10.2544 9.14034C10.3347 9.19336 10.4375 9.19776 10.531 9.17816C10.8239 9.11671 11.0349 8.84996 11.1717 8.57514C11.3086 8.30032 11.3993 7.99761 11.581 7.75218C11.794 7.46446 12.1109 7.28314 12.415 7.10327C13.4986 6.46228 14.536 5.73772 15.5159 4.93774C14.8812 5.57585 14.2433 6.21677 13.5214 6.74639C13.1565 7.01408 12.7325 7.31506 12.6873 7.77545C12.6599 8.05459 12.7828 8.35261 12.6718 8.60871C12.5233 8.9511 12.082 8.98777 11.7359 9.10036C11.2887 9.2458 10.911 9.60448 10.7329 10.0529C10.6578 10.2419 10.6506 10.5222 10.8661 10.5672C10.9004 10.5743 10.9358 10.5732 10.9703 10.5668C11.403 10.4864 11.7679 10.1157 11.8598 9.67234C11.9574 9.86331 11.9239 10.0997 11.7734 10.2494C11.6385 10.3835 11.5428 10.5709 11.4831 10.7573C11.3869 11.0579 11.353 11.381 11.2178 11.665C11.1618 11.7827 11.0794 11.8993 10.9577 11.9362C10.8686 11.9632 10.7735 11.943 10.681 11.9343C10.2355 11.8926 9.77496 12.1504 9.57431 12.5667C9.54646 12.6245 9.53608 12.6906 9.54994 12.7536C9.60231 12.9915 9.92086 12.9531 10.0763 13.1109C10.2354 13.2724 10.1563 13.5475 10.0672 13.7589C9.79864 14.3955 9.51693 15.0516 9.02344 15.5226C8.54986 15.9745 7.9244 16.2134 7.3043 16.3945C6.58962 16.6031 5.85795 16.7496 5.11959 16.8319C4.39558 16.9126 3.57407 16.8971 3.05843 16.3651C2.73368 16.0302 2.59377 15.5407 2.58353 15.0664C2.57309 14.5827 2.72115 14.1318 2.76273 13.6571C2.79727 13.2612 2.72338 12.8027 2.87102 12.4278Z" fill="url(#paint11_radial_766_27643)"/>
<path opacity="0.54" d="M3.83653 11.5146C3.75255 11.666 3.68262 11.8905 3.82316 11.9871C3.89733 12.0381 3.99664 12.0208 4.0807 11.9904C4.40434 11.8731 4.68625 11.5881 5.02841 11.6107C5.19082 11.6215 5.35016 11.7034 5.51006 11.6721C5.7084 11.6334 5.83488 11.4389 5.9548 11.2709C6.07473 11.103 6.24884 10.9306 6.44753 10.9674C6.326 11.0541 6.27927 11.2365 6.34327 11.3741C6.40727 11.5117 6.57428 11.5876 6.71558 11.5434C6.90968 11.4828 7.03796 11.2342 7.24007 11.2513C7.32002 11.258 7.3898 11.3075 7.46522 11.3359C7.74791 11.4425 8.05796 11.2355 8.22893 10.9794C8.3999 10.7233 8.48849 10.415 8.66671 10.1643C8.86498 9.88536 9.17239 9.69201 9.50305 9.63834C9.36808 9.61738 9.26404 9.80043 9.32031 9.92909C9.37658 10.0577 9.53586 10.1109 9.66915 10.0808C9.80252 10.0507 9.91332 9.95639 10.0094 9.85604C10.1053 9.75569 10.1938 9.64504 10.3078 9.56746C10.4999 9.43671 10.7435 9.41351 10.9447 9.2984C11.2108 9.14618 11.3687 8.85637 11.5436 8.59913C11.7185 8.34188 11.9573 8.08687 12.2611 8.07275C11.9865 8.23909 11.8431 8.55915 11.6458 8.81726C11.2554 9.32779 10.6498 9.5975 10.1328 9.96864C9.98512 10.0747 9.83811 10.1971 9.76554 10.3672C9.69297 10.5374 9.72013 10.7663 9.87035 10.8685C9.90413 10.8914 9.94424 10.9074 9.98443 10.9029C10.1063 10.8893 10.1394 10.7214 10.2293 10.6352C10.3681 10.5022 10.6258 10.6309 10.6546 10.8244C10.6834 11.0179 10.5344 11.2039 10.3558 11.2685C10.1544 11.3413 9.92983 11.2928 9.7218 11.3417C9.51371 11.3907 9.31251 11.6299 9.42652 11.8165C9.46928 11.8864 9.55292 11.9582 9.51615 12.0317C9.49233 12.0795 9.43076 12.0888 9.37881 12.0873C9.21598 12.0829 9.05023 12.0321 8.89291 12.0757C8.73558 12.1192 8.60452 12.3227 8.70501 12.4554C8.75759 12.5249 8.84917 12.5442 8.92801 12.578C9.19411 12.6919 9.34099 13.0025 9.35569 13.2999C9.39023 13.9999 8.81156 14.6048 8.16562 14.8163C7.51968 15.0277 6.82221 14.9375 6.15057 14.8453C5.88969 14.8095 5.6288 14.7736 5.36792 14.7378C4.95995 14.6818 4.54683 14.6243 4.16595 14.4632C3.78507 14.3021 3.43372 14.0228 3.26825 13.633C2.97115 12.9339 3.36338 12.0255 3.83653 11.5146Z" fill="url(#paint12_radial_766_27643)"/>
<path opacity="0.54" d="M11.0296 11.3859C11.0894 11.3786 11.1349 11.3291 11.1749 11.2825C11.244 11.2022 11.3181 11.1012 11.289 10.9978C11.2789 10.9618 11.2566 10.9296 11.2523 10.8923C11.2429 10.809 11.3218 10.7485 11.3819 10.6922C11.4486 10.6297 11.5014 10.5513 11.5349 10.4648C11.3829 10.5992 11.2482 10.7545 11.1355 10.9253C11.125 10.9413 11.1144 10.9577 11.0995 10.9694C11.0779 10.9865 11.05 10.9917 11.0235 10.9981C10.9523 11.015 10.6312 11.1258 10.6922 11.2455C10.7124 11.2848 10.9802 11.392 11.0296 11.3859Z" fill="url(#paint13_radial_766_27643)"/>
<path opacity="0.54" d="M12.4602 8.15875C12.538 8.0141 12.468 7.83495 12.4773 7.66969C12.4877 7.48369 12.6016 7.31829 12.7405 7.19979C12.8795 7.08122 13.0439 7.00017 13.1995 6.90638C13.5019 6.7242 13.773 6.49238 14.0426 6.26172C13.6591 6.49505 13.2756 6.72838 12.8921 6.96171C12.7567 7.04419 12.6209 7.12682 12.4943 7.22313C12.4076 7.28912 12.3238 7.36324 12.2681 7.45841C12.2122 7.55357 12.1874 7.67344 12.224 7.77818C12.2492 7.85036 12.3005 7.90922 12.3349 7.97715C12.3693 8.04508 12.3837 8.13477 12.3367 8.19413C12.2805 8.26501 12.1935 8.29555 12.1367 8.37033C12.2528 8.30982 12.391 8.28734 12.4602 8.15875Z" fill="url(#paint14_radial_766_27643)"/>
</g>
<path d="M17.1525 5.62767C17.2431 5.5222 17.3623 5.44887 17.475 5.36963C18.2574 4.81998 18.7856 3.93759 19.5919 3.42627C19.4051 3.69706 19.1717 3.92917 18.9397 4.15962C18.2949 4.80017 17.6501 5.44073 17.0053 6.08129C17.0533 5.96956 17.1013 5.8579 17.1493 5.74617C16.9841 6.13063 16.662 6.58238 16.2656 6.73085C16.3582 6.58814 16.5129 6.47987 16.6348 6.36223C16.8612 6.1436 16.9529 5.8602 17.1525 5.62767Z" fill="url(#paint15_radial_766_27643)"/>
<path d="M0.624023 10.5407L0.878291 10.7009L1.20882 10.4822L0.868819 10.9419L0.689 11.2991C0.689 11.2991 1.69876 10.68 1.77474 10.5433C1.85072 10.4067 2.20437 10.1159 2.24594 9.91221C2.28745 9.70849 2.40905 9.5379 2.24734 9.45189C2.08563 9.36588 1.76304 9.44382 1.547 9.52256C1.3309 9.60123 0.624023 10.5407 0.624023 10.5407Z" fill="#331A28"/>
<path d="M3.38738 10.3042C3.39274 10.3705 3.16654 10.7635 3.13346 10.8332C3.10052 10.9027 2.34935 11.6614 2.34935 11.6614L2.11375 12.2555L1.56217 12.61L0.922848 12.5347C0.922848 12.5347 1.20065 10.8539 1.26041 10.6352C1.26347 10.6237 1.26577 10.6119 1.2673 10.5996C1.52275 10.3066 1.78921 10.024 2.06583 9.7523C1.77465 9.91201 1.48334 10.0718 1.19216 10.2316C1.14146 10.0984 1.08526 9.9829 1.08839 9.94321C1.09473 9.8626 0.615234 9.23493 0.615234 9.23493L0.744074 9.1724L0.978145 9.05887C0.978145 9.05887 1.3921 8.75632 1.44113 8.72527C1.49023 8.69444 2.00239 8.48999 2.00239 8.48999C2.00239 8.48999 2.32685 8.51521 2.34301 8.55389C2.35896 8.59243 2.62172 8.96998 2.62918 9.06254C2.6367 9.15526 3.08506 9.43671 3.11487 9.48742C3.14481 9.53821 3.38209 10.2381 3.38738 10.3042Z" fill="#422032"/>
<path d="M3.02084 10.2795C3.01868 10.3237 2.998 10.3642 2.97738 10.4031C2.50186 11.2937 1.7798 12.0416 0.919498 12.5349C0.817471 12.1287 0.740584 11.7158 0.689466 11.2996C0.87402 11.0604 1.06568 10.8269 1.26395 10.5997C1.5194 10.3068 1.78586 10.0242 2.06248 9.75243C1.7713 9.91214 1.47999 10.0719 1.18881 10.2318C1.00077 10.3349 0.812595 10.4382 0.624559 10.5412C0.612302 10.2863 0.609655 10.0306 0.61648 9.77556C0.61857 9.69574 0.572047 9.29644 0.611883 9.23499C0.631732 9.20452 0.681179 9.186 0.740724 9.17246C0.836065 9.15077 0.956826 9.14184 1.02027 9.11583C1.34857 8.98192 1.61168 8.71689 1.94973 8.60264C2.02327 8.57793 2.10754 8.56208 2.17454 8.60163C2.22405 8.63095 2.25414 8.68505 2.28179 8.73678C2.52826 9.19688 2.76163 9.66447 2.98149 10.1388C3.00211 10.1834 3.02321 10.2302 3.02084 10.2795Z" fill="#54293D"/>
<path d="M6.05027 7.62842C6.05027 7.62842 5.90089 8.05589 5.88731 8.12706C5.87373 8.19823 5.84901 8.49057 5.81223 8.51376C5.77539 8.53696 5.55128 8.69882 5.53331 8.74421C5.51534 8.78959 5.61953 9.12075 5.66118 9.15713C5.70283 9.19351 6.61223 9.55499 6.71871 9.55578C6.82519 9.55658 7.32293 9.25337 7.34613 9.18126C7.36932 9.10922 7.39077 8.7772 7.40678 8.73578C7.4228 8.69436 7.53646 8.66454 7.56919 8.59163C7.60199 8.51873 7.56996 8.32214 7.56996 8.32214L6.05027 7.62842Z" fill="#422032"/>
<path d="M7.5679 8.32187C7.30687 8.51263 7.1242 8.8118 6.83873 8.9602C6.71936 9.02222 6.5876 9.05457 6.45681 9.08288C6.30979 9.11458 6.15811 9.14209 6.00998 9.11609C5.80551 9.08029 5.62151 8.93715 5.53125 8.74394C5.7055 8.64597 5.89346 8.53222 5.9606 8.33945C5.97857 8.28794 5.98672 8.23341 5.9948 8.17924C6.01701 8.02847 6.02384 7.82834 6.04828 7.62815C6.20129 7.64133 6.35513 7.67512 6.49797 7.70293C6.52478 7.60157 6.56378 7.50389 6.61316 7.41211C6.66685 7.31249 6.79855 7.29491 6.87655 7.37552C6.88379 7.38301 6.89103 7.39043 6.89821 7.39785C7.16529 7.6708 7.44038 7.95664 7.5679 8.32187Z" fill="#54293D"/>
<path d="M8.21775 11.8192C8.22039 11.8523 8.02832 11.949 7.985 11.9726C7.94189 11.9964 7.77112 12.118 7.74348 12.0936C7.71562 12.0693 7.44986 12.1324 7.44986 12.1324C7.44986 12.1324 7.32673 12.2833 7.32186 12.3037C7.31712 12.324 7.0749 12.4383 7.05624 12.4467C7.03757 12.4551 6.86242 12.3634 6.84668 12.3609L7.10833 10.7651L7.11272 10.7388C7.11272 10.7388 7.99496 11.3783 8.04991 11.4202C8.1027 11.4605 8.20619 11.7605 8.21684 11.8139C8.21733 11.816 8.21768 11.8178 8.21775 11.8192Z" fill="#422032"/>
<path d="M9.33186 9.5161C9.3359 9.56588 9.33235 9.6591 9.32246 9.67559C9.07676 10.0869 8.65883 10.1684 8.22168 10.0181C8.27907 9.78308 8.23456 9.32132 8.38311 9.12826C8.63731 8.79811 9.09696 9.30518 9.30317 9.46265C9.31229 9.46964 9.32176 9.47706 9.32692 9.48765C9.32914 9.49233 9.33075 9.50256 9.33186 9.5161Z" fill="#422032"/>
<path d="M8.213 11.8139L7.94982 11.637C7.94982 11.637 7.37728 11.0809 7.10449 10.7651L7.10888 10.7388C7.10888 10.7388 7.99112 11.3783 8.04607 11.4202C8.09886 11.4606 8.20228 11.7606 8.213 11.8139Z" fill="#301725"/>
<path d="M6.84398 12.361C7.23656 12.1615 7.60846 11.9183 7.95096 11.6369C7.70422 11.3285 7.42739 10.9691 7.11002 10.7388C6.91091 10.9365 6.82142 11.1961 6.79927 11.4728C6.79342 11.5449 6.71542 12.4262 6.84398 12.361Z" fill="#54293D"/>
<path d="M9.33186 9.5161C9.31271 9.54024 9.29795 9.55695 9.29321 9.55904C9.27455 9.5674 8.93726 9.70326 8.91853 9.71147C8.9 9.71982 8.63842 9.5957 8.63842 9.5957C8.63842 9.5957 8.43994 9.93313 8.42197 9.94797C8.4038 9.96281 8.22168 10.0181 8.22168 10.0181C8.27907 9.78308 8.23456 9.32132 8.38311 9.12826C8.63731 8.79811 9.09696 9.30518 9.30317 9.46265C9.31229 9.46964 9.32176 9.47706 9.32692 9.48765C9.32914 9.49233 9.33075 9.50256 9.33186 9.5161Z" fill="#6D3953"/>
<path d="M13.6539 10.7891C13.6472 10.8087 13.6406 10.8302 13.6473 10.8499C13.653 10.8666 13.667 10.8785 13.6806 10.8894C13.8417 11.0207 14.0029 11.1521 14.164 11.2834C14.296 11.151 14.428 11.0185 14.5599 10.8861C14.683 10.7626 14.8081 10.6362 14.8882 10.4792C14.9191 10.4186 14.9466 10.3607 15.0074 10.1291C15.0198 10.0819 15.0323 10.0337 15.0292 9.98491C15.0201 9.84062 14.8836 9.74401 14.7555 9.68609C14.6262 9.6276 14.5035 9.57494 14.4108 9.46191C14.0706 9.86064 13.826 10.2826 13.6539 10.7891Z" fill="#6D3953"/>
<path d="M10.1702 16.5702C10.1695 16.683 10.2195 16.7883 10.2459 16.8976C10.3144 17.1831 10.2158 17.4896 10.049 17.7279C9.88218 17.9662 9.65312 18.1489 9.42762 18.3279C8.9305 18.7225 8.43332 19.117 7.936 19.5114C7.6958 19.7022 7.45226 19.895 7.17487 20.0207C6.88467 20.1526 6.56417 20.2069 6.24729 20.1983C5.76654 20.1852 5.28824 20.0311 4.8116 20.0967C4.6643 20.1169 4.52007 20.158 4.37229 20.1753C4.14825 20.2013 3.92205 20.1722 3.69828 20.1431C3.42737 20.1077 3.15646 20.0724 2.88548 20.037C2.71666 20.015 2.54576 19.9927 2.3869 19.9293C2.05031 19.7956 1.80016 19.4911 1.63733 19.1583C1.47451 18.8256 1.38578 18.4605 1.27672 18.1051C1.08618 17.484 0.828495 16.8792 0.739979 16.234C0.686214 15.8416 0.705994 15.4223 0.83163 15.0515C0.912277 14.8127 1.03673 14.5942 1.2132 14.4159C1.30102 14.3271 1.40054 14.2494 1.47478 14.1483C1.68183 13.866 1.65718 13.4541 1.86604 13.1734C2.09844 12.8607 2.52048 12.8175 2.77976 12.5399C3.01592 12.2866 3.01578 12.1135 3.38649 12.0203C3.88674 11.8946 4.40697 11.8935 4.92372 11.9381C5.14874 11.9574 5.3732 11.9854 5.59522 12.0157C5.70575 12.0306 5.81578 12.0464 5.9247 12.0617C6.38435 12.1264 6.84859 12.1922 7.28212 12.3628C7.56863 12.4755 7.83634 12.6324 8.09374 12.8054C8.1521 12.8446 8.20991 12.8846 8.26736 12.9251C8.77729 13.2857 9.25783 13.6905 9.70013 14.1364C9.73015 14.1666 9.76002 14.1971 9.78969 14.2278C10.0172 14.4624 10.2378 14.7137 10.3755 15.0134C10.381 15.0252 10.3863 15.037 10.3915 15.0489C10.5278 15.3642 10.56 15.7443 10.4045 16.05C10.3168 16.2215 10.1711 16.3766 10.1702 16.5702Z" fill="#BC4C00"/>
<path d="M10.0763 15.4437C9.9698 15.7198 9.88678 15.9671 9.87641 16.1548C9.86589 16.3427 9.80252 16.8284 9.80252 16.8284C9.80252 16.8284 9.86889 17.0094 9.86067 17.2235C9.85231 17.4376 9.81624 17.6275 9.67779 17.8265C9.5392 18.0255 9.35346 17.9616 9.1081 18.1164C8.86296 18.2714 8.75216 18.4944 8.61371 18.6933C8.47512 18.8923 8.63529 18.9582 8.26187 19.1242C7.88844 19.2904 7.68146 19.2816 7.31033 19.4741C6.93921 19.6668 6.87966 19.8855 6.66836 19.8238C6.45679 19.7624 6.66182 19.7444 6.16436 19.6544C5.98231 19.6215 5.84511 19.5882 5.72971 19.5658C5.52991 19.527 5.39536 19.5206 5.20593 19.6047C5.00737 19.6931 4.88724 19.7627 4.77574 19.7962C4.71933 19.8135 4.66515 19.8212 4.60428 19.8176C4.51562 19.8123 4.2679 19.8209 4.01579 19.8204C3.75212 19.8202 3.48358 19.81 3.38747 19.7637C3.19944 19.6735 2.69341 19.4777 2.50774 19.4139C2.3656 19.3649 2.29226 19.2325 2.25577 19.0542C2.24456 18.9993 2.23676 18.94 2.23174 18.8776C2.21016 18.6127 2.26099 18.288 2.14344 18.1115C2.02588 17.9351 1.87427 17.975 1.78234 17.7963C1.69027 17.6175 1.68602 17.5645 1.66652 17.326C1.64709 17.0877 1.55934 16.9619 1.39052 16.7899C1.39004 16.7894 1.38955 16.7889 1.38906 16.7885C1.2293 16.6261 1.07574 16.5346 1.04593 16.345C1.04419 16.3347 1.04294 16.3243 1.04203 16.3135C1.04071 16.2974 1.03904 16.2798 1.03709 16.261C1.01745 16.0862 0.967999 15.8092 0.945783 15.6886C0.938958 15.6514 0.93457 15.629 0.93457 15.629C0.93457 15.629 0.95219 15.5964 0.982137 15.5408C1.01452 15.4809 1.06132 15.3941 1.11578 15.2929C1.33753 14.881 1.68804 14.2302 1.71847 14.173C1.76312 14.0891 1.90136 13.5701 1.90136 13.5701C1.90136 13.5701 2.05283 13.5302 2.12303 13.444C2.15277 13.4076 2.19191 13.3752 2.22854 13.3416C2.27889 13.2959 2.32423 13.2481 2.33412 13.1855C2.35104 13.0773 2.35104 13.0773 2.35104 13.0773C2.35104 13.0773 2.35843 13.0737 2.37221 13.067C2.41393 13.0459 2.51422 12.9957 2.63853 12.9326C2.8164 12.8424 3.04351 12.7257 3.21922 12.6306C3.35523 12.5569 3.4606 12.4961 3.48811 12.4708C3.58408 12.3825 3.68422 12.347 3.85067 12.1723C4.01698 11.9977 4.07032 12.0197 4.19631 11.9822C4.32222 11.9444 4.61257 12.0257 4.61257 12.0257C4.61257 12.0257 4.81955 12.0343 4.91551 11.9459C5.01134 11.8575 5.0626 11.8531 5.13942 11.8463C5.2163 11.8397 5.15648 11.738 5.32105 11.8572C5.4854 11.9763 6.6153 12.5445 6.76893 12.531C6.7807 12.53 6.7947 12.5282 6.81065 12.5258C7.00418 12.4957 7.48033 12.3742 7.51599 12.5191C7.55471 12.6757 7.7213 12.8212 7.79818 12.8145C7.83147 12.8117 7.93357 12.8079 8.04674 12.8058C8.19299 12.8032 8.35812 12.804 8.4171 12.8138C8.52164 12.8313 8.6587 13.2464 8.76539 13.2904C8.87222 13.3344 9.16681 13.4687 9.36787 13.7178C9.56879 13.9672 9.64784 13.9869 9.77626 14.2959C9.90475 14.605 10.0561 14.5649 10.0501 14.8056C10.0438 15.0463 10.1828 15.1676 10.0763 15.4437Z" fill="url(#paint16_radial_766_27643)"/>
<path opacity="0.77" d="M10.076 15.4436C9.96947 15.7197 9.88646 15.967 9.87608 16.1547C9.86556 16.3426 9.80219 16.8283 9.80219 16.8283C9.80219 16.8283 9.86856 17.0093 9.86034 17.2234C9.85198 17.4375 9.81591 17.6274 9.67746 17.8264C9.53887 18.0254 9.35313 17.9615 9.10778 18.1163C8.86263 18.2713 8.75183 18.4943 8.61338 18.6932C8.47479 18.8922 8.63497 18.9581 8.26154 19.1241C7.88811 19.2903 7.68114 19.2815 7.31001 19.474C6.93888 19.6667 6.87933 19.8854 6.66804 19.8237C6.45646 19.7622 6.66149 19.7443 6.16403 19.6543C5.98198 19.6214 5.84478 19.5881 5.72939 19.5657C5.84841 19.4825 5.98282 19.3864 5.99563 19.3624C6.01813 19.3204 6.02753 19.1195 6.02753 19.1195C6.02753 19.1195 5.49497 19.0722 5.42351 18.985C5.35185 18.8978 5.1299 18.7037 5.10636 18.5723C5.08275 18.4409 5.06882 18.1087 5.0762 18.0413C5.08358 17.974 5.29272 17.689 5.29272 17.689C5.29272 17.689 5.39628 17.5333 5.47191 17.5134C5.54776 17.4936 5.84653 17.521 5.84653 17.521L6.03644 17.4778L6.28082 17.3099L6.43863 17.1895C6.43863 17.1895 6.74388 17.1365 6.70655 17.153C6.66915 17.1695 6.55612 17.3661 6.59665 17.3893C6.63725 17.4124 6.84758 17.621 6.84758 17.621L6.79325 17.7457C6.79325 17.7457 6.93317 17.8803 6.93637 17.9201C6.93958 17.9599 6.98972 18.1023 6.99717 18.195C7.00462 18.2877 7.02719 18.5658 7.01869 18.6199C7.01026 18.6741 6.80328 18.9855 6.69116 19.0351C6.57917 19.0848 6.35401 19.1711 6.47791 19.2671C6.60167 19.3631 6.66038 19.4514 6.73838 19.458C6.81617 19.4645 7.07134 19.4291 7.15561 19.3552C7.23988 19.281 7.31885 19.1409 7.47249 19.1277C7.62612 19.1143 7.81603 19.0712 7.91632 19.0359C8.01675 19.0004 8.19162 18.9319 8.2472 18.8204C8.30263 18.7089 8.58427 18.3644 8.61825 18.308C8.65238 18.2517 8.81778 18.0639 8.85407 18.0341C8.89035 18.0042 9.141 17.7559 9.14531 17.6487C9.14949 17.5416 9.10875 17.0383 9.10875 17.0383L8.94864 16.9721C8.94864 16.9721 8.64026 17.1456 8.58901 17.1499C8.53782 17.1544 7.95079 17.232 7.93373 17.1801C7.91667 17.1283 7.46078 16.9142 7.46078 16.9142C7.46078 16.9142 7.35611 16.7366 7.37429 16.6417C7.39246 16.5467 7.26307 16.2243 7.26307 16.2243C7.26307 16.2243 6.94494 15.9584 6.96527 15.89C6.98547 15.8215 6.68545 15.6208 6.68545 15.6208L7.1102 15.6106C7.1102 15.6106 7.25527 15.4914 7.23925 15.4527C7.22323 15.414 7.07475 15.1735 7.0962 15.1183C7.11744 15.0631 7.16014 14.7925 7.14398 14.754C7.12796 14.7153 7.02022 14.6579 7.01486 14.5917C7.0095 14.5255 7.05414 14.2815 7.07663 14.2395C7.09892 14.1975 7.10853 13.9966 7.11382 13.9028C7.11912 13.8089 7.30799 13.5925 7.36663 13.5208C7.42541 13.4489 7.67605 13.0405 7.7122 13.0106C7.74848 12.9807 7.9641 12.9355 8.00149 12.9189C8.03061 12.9059 8.00957 12.8564 8.04614 12.8057C8.19239 12.8031 8.35751 12.8039 8.4165 12.8137C8.52103 12.8312 8.65809 13.2463 8.76478 13.2902C8.87162 13.3343 9.16621 13.4685 9.36727 13.7177C9.56819 13.967 9.64723 13.9868 9.77565 14.2957C9.90415 14.6049 10.0555 14.5648 10.0495 14.8055C10.0435 15.0462 10.1824 15.1675 10.076 15.4436Z" fill="url(#paint17_radial_766_27643)"/>
<path opacity="0.77" d="M4.77869 19.7962C4.72228 19.8134 4.6681 19.8212 4.60723 19.8175C4.51858 19.8122 4.27086 19.8209 4.01875 19.8204C3.75508 19.8201 3.48654 19.8099 3.39043 19.7637C3.20239 19.6734 2.69636 19.4776 2.51069 19.4139C2.36855 19.3649 2.29522 19.2325 2.25873 19.0542C2.24751 18.9992 2.23971 18.9399 2.2347 18.8775C2.21311 18.6126 2.26395 18.2879 2.14639 18.1115C2.02883 17.9351 1.87722 17.9749 1.78529 17.7963C1.69322 17.6175 1.68897 17.5644 1.66947 17.326C1.65004 17.0877 1.56229 16.9618 1.39348 16.7898C1.39299 16.7894 1.3925 16.7888 1.39202 16.7884C1.23225 16.6261 1.07869 16.5345 1.04888 16.3449C1.04714 16.3347 1.04589 16.3242 1.04498 16.3134C1.04366 16.2974 1.04199 16.2798 1.04004 16.261C1.13517 16.3302 1.25245 16.4205 1.26241 16.4509C1.27947 16.5028 1.44181 16.5955 1.47907 16.5789C1.51647 16.5623 1.80987 16.5235 1.80987 16.5235L2.15036 16.4273L2.45338 16.3477L2.7043 16.5794C2.7043 16.5794 2.94137 16.799 2.97013 16.8366C2.99903 16.8741 3.25741 17.1986 3.25741 17.1986L3.3205 17.6599L3.63759 17.7525C3.63759 17.7525 4.04312 17.6641 4.05266 17.6232C4.0622 17.5824 4.24042 17.2334 4.27657 17.2037C4.31285 17.1738 4.57756 17.0975 4.57756 17.0975L4.34927 17.304C4.34927 17.304 4.2384 17.687 4.24272 17.7401C4.24704 17.7931 4.15748 17.9609 4.09334 17.9665C4.02933 17.972 3.35164 18.044 3.35164 18.044C3.35164 18.044 3.2728 18.3443 3.26542 18.4117C3.25803 18.479 3.14076 18.7827 3.1044 18.8124C3.06812 18.8423 2.57943 19.1781 2.57943 19.1781C2.57943 19.1781 2.73529 19.3513 2.81545 19.3845C2.8954 19.4175 3.13024 19.4506 3.24773 19.467C3.36508 19.4836 3.44733 19.5432 3.58188 19.6116C3.71629 19.6799 3.74094 19.8245 3.94047 19.7405C4.14 19.6566 4.27545 19.5781 4.42066 19.6189C4.53466 19.6513 4.67388 19.6977 4.77869 19.7962Z" fill="url(#paint18_radial_766_27643)"/>
<path opacity="0.77" d="M5.04039 14.5901C4.96518 14.6414 4.88996 14.6927 4.81475 14.7441C4.81935 14.8127 4.82394 14.8815 4.82854 14.9502C4.75757 14.9905 4.68542 15.0317 4.62908 15.0919C4.57274 15.152 4.53353 15.2351 4.54384 15.3182C4.35768 15.3089 4.20078 15.4664 4.01636 15.4944C3.93913 15.5062 3.86029 15.4945 3.78403 15.4772C3.61306 15.4384 3.44814 15.3709 3.29785 15.2781C3.45302 15.4917 3.72978 15.5554 3.95863 15.6792C3.97903 15.6902 4.00027 15.7031 4.01072 15.7242C4.02235 15.7479 4.01775 15.7762 4.01288 15.8023C3.994 15.9035 3.97513 16.0045 3.95633 16.1056C4.05654 16.1299 4.14994 16.1836 4.22285 16.2589C4.15927 16.3718 4.18747 16.5164 4.14701 16.6402C4.1179 16.7293 4.05515 16.8018 3.99198 16.8694C3.82763 17.0454 3.64927 17.2073 3.45921 17.3529C3.61055 17.2577 3.76571 17.1691 3.92422 17.0874C4.05592 17.0195 4.19388 16.9554 4.34076 16.946C4.53353 16.9336 4.71885 17.0162 4.89547 17.0972C4.93753 17.0461 4.97952 16.995 5.02159 16.9439C5.03663 16.9256 5.05383 16.9061 5.07689 16.9031C5.10008 16.9002 5.12153 16.915 5.14131 16.9279C5.23909 16.9916 5.35671 17.0222 5.47197 17.0139C5.49788 17.012 5.52532 17.0086 5.54865 17.0203C5.57038 17.0313 5.58438 17.0533 5.59733 17.0744C5.67345 17.198 5.74964 17.3217 5.82576 17.4453C5.77596 17.3024 5.73376 17.1567 5.69929 17.009C5.69093 16.9731 5.68299 16.9368 5.6832 16.8999C5.68369 16.819 5.72304 16.7444 5.76259 16.6746C5.86378 16.4963 5.98482 16.3136 6.16938 16.2343C6.24766 16.2006 6.34042 16.1828 6.38973 16.1114C6.41404 16.0762 6.42379 16.0327 6.43298 15.9904C6.46327 15.8511 6.4935 15.7118 6.52372 15.5724C6.33534 15.4701 6.14695 15.3677 5.95857 15.2654C5.91581 15.2421 5.87158 15.2177 5.84247 15.1778C5.81928 15.1461 5.80765 15.1072 5.79435 15.0699C5.73669 14.9087 5.63967 14.7627 5.5148 14.6494C5.33686 14.4879 5.09492 14.38 4.99993 14.1558C5.05544 14.2869 5.053 14.4513 5.04039 14.5901Z" fill="url(#paint19_radial_766_27643)"/>
<path d="M6.81297 12.5257C6.81186 12.5357 6.80893 12.5453 6.80357 12.5537C6.7911 12.573 6.76798 12.5811 6.74625 12.587C6.55243 12.6383 6.34678 12.5915 6.15832 12.5216C6.07252 12.4897 5.98832 12.4531 5.9035 12.4185C5.94166 12.4461 5.97356 12.4809 5.99522 12.5255C6.01966 12.5756 6.02753 12.6326 6.04857 12.6844C6.08332 12.7703 6.15115 12.8364 6.20303 12.9128C6.35506 13.1368 6.35959 13.4304 6.35841 13.7041C6.22476 13.7871 6.09105 13.8698 5.9574 13.9528C5.92182 13.9749 5.88588 13.997 5.84611 14.0088C5.7943 14.0241 5.73935 14.0208 5.68559 14.0174C5.59561 14.0115 5.50542 14.0058 5.41537 14.0001C5.38598 13.9982 5.3561 13.9962 5.32734 14.0027C5.24328 14.0213 5.18889 14.1032 5.14313 14.1784C5.1345 14.0518 5.07509 13.9296 4.9817 13.8471C4.90565 13.7797 4.80787 13.7373 4.74659 13.6552C4.68607 13.574 4.67026 13.466 4.61782 13.379C4.54866 13.2642 4.42553 13.1994 4.32016 13.1192C4.14382 12.9853 4.00746 12.796 3.93378 12.583C4.0675 12.4478 4.20107 12.3127 4.33479 12.1775C4.10879 12.0799 3.85146 12.2103 3.66245 12.3712C3.53403 12.4807 3.39056 12.603 3.22168 12.6306C3.35769 12.5569 3.46306 12.4961 3.49057 12.4708C3.58654 12.3825 3.68669 12.347 3.85313 12.1723C4.01944 11.9977 4.07279 12.0197 4.19877 11.9822C4.32469 11.9444 4.61503 12.0257 4.61503 12.0257C4.61503 12.0257 4.82201 12.0343 4.91798 11.9459C5.01381 11.8575 5.06506 11.8531 5.14188 11.8463C5.21877 11.8397 5.15894 11.738 5.32351 11.8572C5.48787 11.9763 6.61776 12.5445 6.77139 12.531C6.78302 12.5299 6.79702 12.5281 6.81297 12.5257Z" fill="url(#paint20_radial_766_27643)"/>
<path d="M3.07903 14.4936C3.08948 14.5938 3.05438 14.6927 3.01837 14.7863C2.91328 15.0594 2.79064 15.3337 2.58735 15.539C2.56687 15.5596 2.54487 15.5798 2.51778 15.5889C2.48254 15.6005 2.44451 15.5914 2.40864 15.5823C2.33789 15.5641 2.26727 15.546 2.19651 15.528C2.1431 15.5143 2.08745 15.5006 2.03383 15.5132C1.90373 15.5438 1.82559 15.7176 1.69216 15.7124C1.62175 15.7098 1.5645 15.6557 1.50203 15.6218C1.34735 15.5378 1.15096 15.5745 0.982422 15.541C1.01481 15.481 1.06161 15.3942 1.11607 15.2931C1.33781 14.8812 1.68833 14.2304 1.71876 14.1732C1.7634 14.0893 1.90164 13.5702 1.90164 13.5702C1.90164 13.5702 2.05312 13.5304 2.12332 13.4442C2.15305 13.4078 2.19219 13.3754 2.22883 13.3418C2.27918 13.2961 2.32452 13.2482 2.33441 13.1856C2.35133 13.0775 2.35133 13.0775 2.35133 13.0775C2.35133 13.0775 2.35871 13.0738 2.3725 13.0671C2.37891 13.0785 2.38573 13.0898 2.39311 13.1008C2.46443 13.2057 2.56625 13.2403 2.67238 13.2956C2.62315 13.4157 2.66911 13.5799 2.80276 13.6169C2.82511 13.6231 2.85004 13.6263 2.8669 13.6429C2.91509 13.6903 2.84768 13.7684 2.84524 13.8371C2.84162 13.9363 2.977 13.9991 2.96739 14.0979C2.96071 14.1654 2.88542 14.2187 2.9004 14.2848C2.99769 14.2922 3.06851 14.3933 3.07903 14.4936Z" fill="url(#paint21_radial_766_27643)"/>
<path d="M2.91753 14.6323C2.86189 14.8999 2.71466 15.1459 2.50803 15.3166C2.46659 15.3508 2.42105 15.3828 2.36895 15.3933C2.25362 15.4163 2.14428 15.329 2.02707 15.3209C1.89837 15.3121 1.782 15.3988 1.65476 15.4202C1.52878 15.4414 1.35906 15.402 1.19839 15.3318C1.17067 15.3197 1.14316 15.3066 1.11621 15.2929C1.33795 14.881 1.68847 14.2302 1.7189 14.173C1.76354 14.0891 1.90179 13.5701 1.90179 13.5701C1.90179 13.5701 2.05326 13.5302 2.12346 13.444C2.14979 13.4117 2.18349 13.3827 2.21629 13.3531C2.22054 13.3493 2.22472 13.3454 2.22897 13.3416C2.32884 13.4179 2.42871 13.4941 2.52844 13.5704C2.65442 13.6665 2.79329 13.7884 2.79015 13.9503C2.78716 14.105 2.65846 14.2837 2.76473 14.3923C2.8084 14.437 2.88104 14.4487 2.91147 14.5039C2.93237 14.5421 2.92631 14.5895 2.91753 14.6323Z" fill="#FFF066"/>
<path d="M3.05495 18.2818C3.0397 18.4458 2.99555 18.6011 2.89589 18.7285C2.75688 18.9063 2.53583 18.9918 2.31966 19.0398C2.298 19.0445 2.2762 19.0492 2.2544 19.0534C2.24319 18.9984 2.23539 18.9391 2.23038 18.8767C2.20879 18.6119 2.25963 18.2871 2.14207 18.1107C2.02451 17.9343 1.8729 17.9741 1.78097 17.7954C1.6889 17.6167 1.68465 17.5636 1.66515 17.3252C1.64572 17.0869 1.55797 16.961 1.38916 16.789C1.38867 16.7886 1.38818 16.788 1.3877 16.7876C1.40692 16.7657 1.42649 16.7464 1.44599 16.7317C1.57608 16.6342 1.69294 16.6994 1.83501 16.6564C1.86963 16.6457 1.90069 16.6264 1.93161 16.6069C1.94902 16.5959 1.96629 16.5848 1.98433 16.5751C2.06658 16.5305 2.16192 16.5148 2.25447 16.5227C2.52197 16.5449 2.7472 16.7571 2.8665 17.006C2.9858 17.2546 3.01769 17.5372 3.04388 17.8134C3.05836 17.9665 3.06937 18.128 3.05495 18.2818Z" fill="#FFF066"/>
<path d="M6.77385 18.2627C6.78833 18.3595 6.82434 18.4559 6.7962 18.5479C6.76814 18.6394 6.68289 18.6995 6.59654 18.7353C6.51032 18.7709 6.41728 18.79 6.33614 18.8367C6.28899 18.864 6.24658 18.9003 6.19658 18.9216C5.76555 19.1061 4.91577 18.6671 5.36253 18.1197C5.38551 18.0929 5.41358 18.0691 5.42681 18.0358C5.45724 17.9589 5.3961 17.8662 5.42897 17.7903C5.45885 17.7212 5.5452 17.7076 5.61185 17.6763C5.61429 17.6752 5.61666 17.674 5.6191 17.6728C5.67857 17.6428 5.72934 17.5941 5.79216 17.5728C5.89356 17.5385 6.00673 17.5816 6.10994 17.554C6.17896 17.5357 6.23641 17.4879 6.30007 17.4552C6.36393 17.4223 6.44569 17.4066 6.50273 17.4507C6.60079 17.5267 6.54848 17.7088 6.63916 17.7941C6.6675 17.8206 6.70602 17.8334 6.73408 17.8601C6.81842 17.9402 6.76681 18.0821 6.76842 18.2006C6.76856 18.2213 6.77071 18.2421 6.77385 18.2627Z" fill="#FFF066"/>
<path d="M6.10572 15.9644C6.07877 16.0187 6.04291 16.0687 6.00161 16.1096C5.85194 16.2573 5.64949 16.3345 5.48736 16.4676C5.41061 16.5307 5.34014 16.608 5.24674 16.6384C4.97061 16.7285 4.46298 16.4344 4.35698 16.1562C4.3136 16.0422 4.29006 15.8002 4.33024 15.6873C4.39605 15.5022 4.61884 15.5449 4.70764 15.3442C4.72226 15.3113 4.73264 15.2753 4.75569 15.248C4.78459 15.2142 4.82826 15.1994 4.86851 15.1815C4.95508 15.1431 5.03329 15.0846 5.09562 15.0117C5.11345 14.9909 5.12995 14.969 5.14514 14.946C5.25775 15.1035 5.5178 14.9879 5.67811 15.0918C5.78648 15.1619 5.8181 15.3119 5.91051 15.4031C5.96302 15.455 6.03288 15.4855 6.08351 15.5391C6.18825 15.6501 6.1769 15.8218 6.10572 15.9644Z" fill="#FFF066"/>
<path d="M6.08174 13.2923C6.09107 13.4713 6.05235 13.6722 5.91077 13.7756C5.80756 13.851 5.67196 13.8577 5.54577 13.8488C5.30383 13.8317 5.04399 13.7524 4.90735 13.5449C4.815 13.4045 4.78415 13.2137 4.64869 13.1174C4.4422 12.9708 4.07678 12.8144 4.32847 12.4749C4.41838 12.3535 4.61408 12.3051 4.79118 12.2749C4.87468 12.2607 4.95415 12.2506 5.01641 12.2388C4.99315 12.3895 5.30752 12.4265 5.42292 12.4472C5.50913 12.4624 5.60016 12.4058 5.68241 12.4366C5.72078 12.451 5.75059 12.4825 5.7774 12.5144C5.91898 12.6827 6.01648 12.89 6.05897 13.1086C6.07108 13.1693 6.07854 13.2307 6.08174 13.2923Z" fill="#FFF066"/>
<path d="M9.32757 16.1567C9.29205 16.2308 9.2534 16.3029 9.21405 16.3715C9.20088 16.3946 9.18751 16.4178 9.17386 16.4408C9.10234 16.5616 9.02267 16.678 8.91437 16.7638C8.68267 16.9466 8.36189 16.9542 8.07601 16.8944C8.00372 16.8795 7.92802 16.855 7.8583 16.8211C7.70739 16.7477 7.58419 16.6296 7.58252 16.4646C7.58175 16.3861 7.60982 16.3037 7.6094 16.2273C7.60926 16.1947 7.60376 16.1635 7.58892 16.1337C7.5594 16.0753 7.49874 16.0401 7.46287 15.9854C7.36175 15.832 7.49344 15.6107 7.42143 15.4406C7.39295 15.3734 7.3357 15.3229 7.30534 15.2568C7.25582 15.1489 7.28591 15.0226 7.29148 14.9033C7.29691 14.7842 7.25666 14.6395 7.14453 14.6107C7.24231 14.5723 7.36022 14.462 7.28946 14.3821C7.26745 14.3571 7.23165 14.3471 7.21424 14.3182C7.18492 14.2699 7.22706 14.2105 7.27539 14.1793C7.27887 14.177 7.28242 14.175 7.28598 14.1729C7.33821 14.1443 7.40298 14.12 7.42039 14.0613C7.44065 13.9923 7.38034 13.923 7.38626 13.8511C7.38898 13.8153 7.40799 13.7833 7.42652 13.753C7.54087 13.5648 7.67653 13.1778 7.91757 13.1419C7.98136 13.1324 8.03889 13.1415 8.09161 13.1634C8.2887 13.2448 8.4197 13.5033 8.56532 13.636C8.58559 13.6544 8.60697 13.6719 8.62946 13.6888C8.84682 13.8527 9.14747 13.9559 9.18131 14.2244C9.19301 14.3163 9.16697 14.4084 9.1598 14.5011C9.14991 14.6269 9.17609 14.7556 9.23417 14.8667C9.28759 14.9697 9.36698 15.0563 9.42054 15.159C9.45146 15.2182 9.47298 15.2795 9.48621 15.3422C9.542 15.6059 9.45376 15.8945 9.32757 16.1567Z" fill="#FFF066"/>
<path d="M7.61553 16.226C7.61351 16.2264 7.61128 16.2266 7.60926 16.2269C7.60912 16.1944 7.60376 16.163 7.58893 16.1333C7.55933 16.0748 7.49867 16.0395 7.46273 15.9849C7.36168 15.8314 7.4933 15.6102 7.42129 15.4401C7.39288 15.3729 7.33556 15.3226 7.3052 15.2563C7.25575 15.1484 7.28577 15.0221 7.29141 14.9029C7.29691 14.7838 7.25652 14.639 7.14453 14.6103C7.24231 14.5718 7.36008 14.4616 7.28946 14.3817C7.26745 14.3567 7.23159 14.3465 7.21417 14.3178C7.18479 14.2694 7.22706 14.2099 7.27539 14.179C7.31147 14.1849 7.34559 14.1913 7.37554 14.195C7.44657 14.2037 7.55167 14.1979 7.61323 14.2425C7.71533 14.3161 7.65509 14.4004 7.70732 14.4967C7.74367 14.5637 7.83734 14.567 7.8918 14.619C7.91597 14.6419 7.93094 14.673 7.94543 14.7034C7.98847 14.7941 8.03151 14.8848 8.07448 14.9753C8.1366 15.1059 8.19928 15.2389 8.22156 15.3826C8.28139 15.7681 7.98979 16.1743 7.61553 16.226Z" fill="#EFDC54"/>
<path d="M9.3248 16.1565C9.28914 16.2305 9.25056 16.3025 9.21128 16.3712C9.12882 16.5157 9.04038 16.6614 8.91154 16.7634C8.67984 16.9463 8.35906 16.9538 8.07324 16.8941C8.00095 16.8791 7.92518 16.8546 7.85547 16.8209C7.86877 16.7755 7.9038 16.7321 7.97066 16.6936C7.99267 16.681 8.01704 16.6715 8.03501 16.6532C8.08132 16.6065 8.07275 16.5165 8.12749 16.4808C8.14881 16.4671 8.17527 16.4652 8.1993 16.4567C8.31511 16.4162 8.34464 16.2386 8.46185 16.2028C8.53797 16.1794 8.62579 16.2267 8.69711 16.1903C8.72977 16.1737 8.75247 16.1422 8.77817 16.1153C8.86098 16.0292 8.98627 15.989 9.10159 16.0115C9.19011 16.0287 9.2709 16.0823 9.3248 16.1565Z" fill="#EFDC54"/>
<path d="M9.48801 15.342C9.38041 15.4303 9.20853 15.4216 9.06416 15.4C8.9193 15.3781 8.76525 15.3503 8.65842 15.247C8.59985 15.1905 8.56085 15.116 8.52679 15.041C8.44594 14.8634 8.38681 14.675 8.35136 14.4822C8.33855 14.4118 8.33318 14.3269 8.38618 14.2807C8.41585 14.2547 8.46209 14.2424 8.47212 14.2036C8.49455 14.1165 8.41641 14.0193 8.44775 13.9144C8.47317 13.8295 8.53647 13.7454 8.61071 13.7001C8.61761 13.6958 8.6245 13.692 8.63133 13.6885C8.84868 13.8524 9.14926 13.9557 9.18318 14.2241C9.19481 14.3161 9.16883 14.4082 9.16159 14.5007C9.15177 14.6266 9.17796 14.7553 9.23597 14.8664C9.28945 14.9694 9.36878 15.056 9.4224 15.1588C9.45333 15.218 9.47478 15.2793 9.48801 15.342Z" fill="#EFDC54"/>
<path d="M6.08174 13.2925C6.09107 13.4715 6.05235 13.6725 5.91077 13.7758C5.80756 13.8513 5.67196 13.858 5.54577 13.849C5.30383 13.832 5.04399 13.7526 4.90735 13.5451C4.815 13.4047 4.78415 13.2139 4.64869 13.1176C4.4422 12.971 4.07678 12.8146 4.32847 12.4751C4.41838 12.3537 4.61408 12.3053 4.79118 12.2751C4.7182 12.3388 4.64556 12.4037 4.58803 12.4823C4.52793 12.5647 4.48517 12.6645 4.48747 12.7676C4.48802 12.7905 4.49095 12.8141 4.50244 12.8337C4.51477 12.8548 4.53559 12.8691 4.556 12.882C4.67181 12.9562 4.79473 13.0183 4.92239 13.067C4.94356 13.0751 4.96599 13.0836 4.98075 13.1012C4.99447 13.1174 4.9999 13.1393 5.00443 13.1603C5.03403 13.2959 5.05604 13.4509 5.16579 13.5312C5.26364 13.6027 5.39555 13.5872 5.51213 13.615C5.54201 13.6222 5.57223 13.6325 5.60266 13.6292C5.6308 13.6264 5.65657 13.6122 5.68143 13.5984C5.7845 13.5412 5.88778 13.4841 5.99099 13.4268C6.00158 13.3185 6.02442 13.2116 6.05897 13.1088C6.07108 13.1695 6.07854 13.2309 6.08174 13.2925Z" fill="#DDCA3E"/>
<path d="M2.92129 14.6322C2.86565 14.8997 2.71842 15.1457 2.51179 15.3165C2.47035 15.3506 2.4248 15.3827 2.37271 15.3932C2.25738 15.4162 2.14804 15.3289 2.03083 15.3207C1.90213 15.312 1.78576 15.3987 1.65852 15.4201C1.53254 15.4412 1.36282 15.4018 1.20215 15.3317C1.29317 15.341 1.38441 15.3504 1.47543 15.3598C1.53637 15.3662 1.59925 15.3724 1.6581 15.3547C1.78694 15.3163 1.87455 15.172 2.00799 15.1588C2.12443 15.1475 2.25334 15.2398 2.3498 15.1715C2.37821 15.1514 2.39723 15.1206 2.41554 15.0906C2.50657 14.9409 2.59759 14.7912 2.68861 14.6415C2.70219 14.6191 2.71633 14.5952 2.71563 14.5686C2.71459 14.5248 2.67552 14.4944 2.64662 14.4624C2.57516 14.383 2.55657 14.2644 2.57314 14.1574C2.58986 14.0502 2.63729 13.9511 2.68409 13.854C2.51646 13.7604 2.31881 13.5658 2.22005 13.3531C2.2243 13.3493 2.22848 13.3454 2.23273 13.3416C2.3326 13.4179 2.43247 13.4941 2.53219 13.5704C2.65818 13.6665 2.79705 13.7884 2.79391 13.9503C2.79092 14.105 2.66222 14.2837 2.76849 14.3923C2.81216 14.437 2.8848 14.4487 2.91523 14.5039C2.93612 14.5419 2.93007 14.5894 2.92129 14.6322Z" fill="#DDCA3E"/>
<path d="M9.17484 16.44C9.10332 16.5608 9.02365 16.6773 8.91535 16.763C8.68365 16.9459 8.36287 16.9535 8.07699 16.8937C8.0047 16.8787 7.92899 16.8542 7.85928 16.8204C7.70836 16.747 7.58517 16.6289 7.58349 16.4639C7.58273 16.3853 7.61079 16.303 7.61038 16.2266C7.61024 16.194 7.60473 16.1627 7.5899 16.133C7.56037 16.0746 7.49971 16.0393 7.46385 15.9847C7.36272 15.8312 7.49442 15.61 7.42241 15.4398C7.39392 15.3726 7.33668 15.3222 7.30631 15.2561C7.2568 15.1482 7.28688 15.0219 7.29245 14.9025C7.29789 14.7834 7.25763 14.6388 7.14551 14.61C7.24329 14.5716 7.36119 14.4612 7.29044 14.3813C7.26843 14.3563 7.23263 14.3463 7.21522 14.3175C7.1859 14.2692 7.22803 14.2097 7.27637 14.1786C7.27985 14.1763 7.2834 14.1742 7.28695 14.1722C7.33919 14.1435 7.40395 14.1193 7.42136 14.0606C7.44163 13.9916 7.38132 13.9222 7.38724 13.8503C7.38996 13.8146 7.40897 13.7826 7.42749 13.7522C7.54185 13.5641 7.67751 13.1771 7.91855 13.1412C7.98234 13.1317 8.03987 13.1408 8.09259 13.1627C8.00435 13.2194 7.91952 13.2812 7.834 13.3434C7.78964 13.3757 7.74332 13.41 7.71902 13.46C7.69555 13.5082 7.69541 13.5643 7.69388 13.6182C7.68789 13.8255 7.65362 14.0317 7.59248 14.2293C7.56392 14.3215 7.5291 14.4172 7.54554 14.5125C7.56775 14.6407 7.6796 14.7451 7.67466 14.8751C7.6709 14.9711 7.6032 15.0532 7.59095 15.1483C7.57709 15.2567 7.63719 15.3605 7.70753 15.4418C7.7778 15.5233 7.86172 15.5943 7.91319 15.6896C7.97614 15.8063 7.98234 15.9538 7.92941 16.0758C7.89243 16.1611 7.82683 16.2503 7.859 16.3378C7.8707 16.3695 7.89389 16.3948 7.91674 16.4193C8.00588 16.5151 8.09962 16.614 8.22073 16.6585C8.32826 16.698 8.44686 16.69 8.55885 16.668C8.77411 16.6261 8.97545 16.536 9.17484 16.44Z" fill="#DDCA3E"/>
<path d="M6.10572 15.9641C6.07877 16.0184 6.0429 16.0684 6.00161 16.1093C5.85194 16.2571 5.64949 16.3342 5.48736 16.4674C5.41061 16.5304 5.34014 16.6078 5.24674 16.6382C4.97061 16.7283 4.46298 16.4341 4.35698 16.1559C4.3136 16.042 4.29006 15.7999 4.33024 15.687C4.39605 15.5019 4.61884 15.5446 4.70764 15.3439C4.72226 15.311 4.73264 15.275 4.75569 15.2478C4.78459 15.2139 4.82826 15.1991 4.86851 15.1813C4.95508 15.1429 5.03329 15.0843 5.09562 15.0115C5.06261 15.1205 4.9892 15.2269 4.91183 15.3025C4.86433 15.3488 4.8089 15.3874 4.77018 15.4418C4.73145 15.4961 4.71321 15.5743 4.74928 15.6306C4.67247 15.6787 4.59878 15.7321 4.52893 15.7905C4.54822 15.9869 4.58005 16.2069 4.7334 16.3244C4.90995 16.4594 5.15482 16.3937 5.37412 16.3845C5.42921 16.3822 5.48548 16.3837 5.53799 16.3665C5.6052 16.3443 5.65952 16.2937 5.71349 16.2468C5.83565 16.1404 5.96706 16.0458 6.10572 15.9641Z" fill="#DDCA3E"/>
<path d="M3.05495 18.2826C3.0397 18.4466 2.99555 18.6019 2.89589 18.7292C2.75688 18.9071 2.53583 18.9926 2.31966 19.0405C2.298 19.0453 2.2762 19.05 2.2544 19.0541C2.24319 18.9992 2.23539 18.9399 2.23038 18.8775C2.20879 18.6126 2.25963 18.2879 2.14207 18.1114C2.02451 17.935 1.8729 17.9749 1.78097 17.7962C1.6889 17.6174 1.68465 17.5644 1.66515 17.326C1.64572 17.0877 1.55797 16.9618 1.38916 16.7898C1.38867 16.7893 1.38818 16.7888 1.3877 16.7884C1.40692 16.7664 1.42649 16.7471 1.44599 16.7324C1.57608 16.635 1.69294 16.7002 1.83501 16.6572C1.86963 16.6465 1.90069 16.6272 1.93161 16.6077C2.07257 16.8356 2.18762 17.1289 2.24054 17.2336C2.32426 17.3989 2.40908 17.5683 2.43541 17.7529C2.45052 17.8592 2.44578 17.9686 2.47106 18.0728C2.5024 18.2024 2.5779 18.3152 2.65179 18.4249C2.66237 18.4405 2.67498 18.4576 2.69323 18.4606C2.70597 18.4627 2.71851 18.4574 2.73035 18.4522C2.84184 18.4026 2.95028 18.3458 3.05495 18.2826Z" fill="#DDCA3E"/>
<path d="M6.7962 18.5481C6.76814 18.6397 6.68289 18.6998 6.59654 18.7356C6.51032 18.7712 6.41728 18.7903 6.33614 18.837C6.28899 18.8643 6.24658 18.9005 6.19658 18.9219C5.76555 19.1064 4.91577 18.6674 5.36253 18.1199C5.38551 18.0932 5.41358 18.0694 5.42681 18.0361C5.45724 17.9592 5.3961 17.8665 5.42897 17.7906C5.45885 17.7215 5.5452 17.7079 5.61185 17.6766C5.61429 17.6755 5.61666 17.6742 5.6191 17.6731C5.58017 17.7273 5.54137 17.781 5.50927 17.8348C5.55419 17.8936 5.59932 17.9524 5.64445 18.0111C5.53775 18.1373 5.44241 18.2737 5.35995 18.4182C5.48308 18.4806 5.60621 18.5431 5.72934 18.6057C5.76402 18.6233 5.80066 18.6414 5.83924 18.6394C5.87545 18.6375 5.90832 18.6182 5.93973 18.5994C6.02024 18.5511 6.10082 18.5029 6.18125 18.4545C6.18641 18.5551 6.20298 18.655 6.23042 18.7516C6.38747 18.5629 6.63303 18.4606 6.77399 18.263C6.78833 18.3598 6.82434 18.4561 6.7962 18.5481Z" fill="#DDCA3E"/>
<path d="M10.1702 16.5702C10.1695 16.683 10.2195 16.7883 10.2459 16.8976C10.3144 17.1831 10.2158 17.4896 10.049 17.7279C9.88218 17.9662 9.65312 18.1489 9.42762 18.3279C8.9305 18.7225 8.43332 19.117 7.936 19.5115C7.6958 19.7022 7.45226 19.8951 7.17487 20.0208C6.88467 20.1526 6.56417 20.2069 6.24729 20.1983C5.76654 20.1852 5.28824 20.0311 4.8116 20.0967C4.6643 20.1169 4.52007 20.158 4.37229 20.1753C4.14825 20.2014 3.92205 20.1722 3.69828 20.1431C3.42737 20.1077 3.15646 20.0724 2.88548 20.037C2.71666 20.015 2.54576 19.9927 2.3869 19.9293C2.05031 19.7956 1.80016 19.4911 1.63733 19.1583C1.47451 18.8256 1.38578 18.4605 1.27672 18.1051C1.08618 17.484 0.828495 16.8792 0.739979 16.234C0.686214 15.8416 0.705994 15.4223 0.83163 15.0515C0.923977 15.1543 0.995639 15.2732 1.05713 15.4001C1.08179 15.4511 1.10477 15.5036 1.12671 15.5569C1.25311 15.8627 1.34622 16.1951 1.53342 16.4574C1.55662 16.49 1.58113 16.5218 1.60648 16.5528C1.63991 16.5943 1.67494 16.6346 1.71094 16.6745C1.92391 16.911 2.16383 17.1274 2.27714 17.4251C2.35647 17.6337 2.36803 17.8714 2.46971 18.0664C2.47953 18.0851 2.49018 18.1038 2.50174 18.1216C2.58497 18.2503 2.70747 18.3382 2.84592 18.3981C2.90351 18.423 2.96382 18.4428 3.02532 18.459C3.09545 18.4771 3.16711 18.4905 3.23794 18.4998C3.24971 18.5014 3.26141 18.5029 3.27318 18.5043C3.56603 18.5384 3.87128 18.5317 4.14031 18.6559C4.45342 18.8 4.70421 19.1144 5.04637 19.1326C5.19951 19.1408 5.34214 19.0874 5.48372 19.0226C5.55594 18.9895 5.62775 18.9534 5.70059 18.9207C5.78751 18.8821 5.87588 18.8485 5.9676 18.8313C6.09721 18.807 6.22925 18.8164 6.3613 18.8246C6.4159 18.8279 6.4705 18.8311 6.52496 18.8317C6.65909 18.8331 6.79316 18.8175 6.92401 18.7864C7.25322 18.7085 7.56118 18.5325 7.79581 18.2808C7.86071 18.2112 7.92137 18.1353 8.0016 18.0861C8.09374 18.0296 8.2028 18.0137 8.30546 17.9825C8.66635 17.8732 8.92681 17.5873 9.12369 17.2462C9.24139 17.0417 9.33652 16.8176 9.41661 16.5999C9.59553 16.1136 9.76845 15.5843 10.1151 15.2253C10.1829 15.1551 10.2574 15.0913 10.3399 15.0356C10.3513 15.0278 10.3631 15.0203 10.3753 15.0134C10.3808 15.0252 10.386 15.037 10.3912 15.0489C10.5275 15.3642 10.5597 15.7443 10.4042 16.05C10.3168 16.2215 10.1711 16.3766 10.1702 16.5702Z" fill="#A89486"/>
<defs>
<radialGradient id="paint0_radial_766_27643" cx="0" cy="0" r="1" gradientUnits="userSpaceOnUse" gradientTransform="translate(20.0455 1.54625) rotate(-4.94778) scale(24.1422 24.9601)">
<stop stop-color="#FF7C20"/>
<stop offset="0.3703" stop-color="#FF7820"/>
<stop offset="0.8703" stop-color="#FF741F"/>
<stop offset="1" stop-color="#FF741C"/>
</radialGradient>
<radialGradient id="paint1_radial_766_27643" cx="0" cy="0" r="1" gradientUnits="userSpaceOnUse" gradientTransform="translate(19.9246 1.63612) rotate(-4.94778) scale(23.9383 24.7493)">
<stop stop-color="#FF8320"/>
<stop offset="0.3703" stop-color="#FF7C20"/>
<stop offset="0.8703" stop-color="#FF741F"/>
<stop offset="1" stop-color="#FE7519"/>
</radialGradient>
<radialGradient id="paint2_radial_766_27643" cx="0" cy="0" r="1" gradientUnits="userSpaceOnUse" gradientTransform="translate(19.7887 1.72552) rotate(-4.94778) scale(23.7345 24.5385)">
<stop stop-color="#FF8B21"/>
<stop offset="0.3703" stop-color="#FF7F21"/>
<stop offset="0.8703" stop-color="#FF741F"/>
<stop offset="1" stop-color="#FE7517"/>
</radialGradient>
<radialGradient id="paint3_radial_766_27643" cx="0" cy="0" r="1" gradientUnits="userSpaceOnUse" gradientTransform="translate(19.6678 1.8158) rotate(-4.94778) scale(23.5306 24.3277)">
<stop stop-color="#FF9322"/>
<stop offset="0.3703" stop-color="#FF8321"/>
<stop offset="0.8703" stop-color="#FF741F"/>
<stop offset="1" stop-color="#FE7514"/>
</radialGradient>
<radialGradient id="paint4_radial_766_27643" cx="0" cy="0" r="1" gradientUnits="userSpaceOnUse" gradientTransform="translate(19.5369 1.90568) rotate(-4.94778) scale(23.3267 24.117)">
<stop stop-color="#FF9A23"/>
<stop offset="0.3703" stop-color="#FF8722"/>
<stop offset="0.8703" stop-color="#FF741F"/>
<stop offset="1" stop-color="#FE7611"/>
</radialGradient>
<radialGradient id="paint5_radial_766_27643" cx="0" cy="0" r="1" gradientUnits="userSpaceOnUse" gradientTransform="translate(19.4158 1.99628) rotate(-4.94778) scale(23.1228 23.9062)">
<stop stop-color="#FFA223"/>
<stop offset="0.3703" stop-color="#FF8B22"/>
<stop offset="0.8703" stop-color="#FF741F"/>
<stop offset="1" stop-color="#FD760E"/>
</radialGradient>
<radialGradient id="paint6_radial_766_27643" cx="0" cy="0" r="1" gradientUnits="userSpaceOnUse" gradientTransform="translate(19.2901 2.08617) rotate(-4.94778) scale(22.919 23.6954)">
<stop stop-color="#FFA924"/>
<stop offset="0.3703" stop-color="#FF8F23"/>
<stop offset="0.8703" stop-color="#FF741F"/>
<stop offset="1" stop-color="#FD770B"/>
</radialGradient>
<radialGradient id="paint7_radial_766_27643" cx="0" cy="0" r="1" gradientUnits="userSpaceOnUse" gradientTransform="translate(19.1642 2.17604) rotate(-4.94778) scale(22.7151 23.4846)">
<stop stop-color="#FFB125"/>
<stop offset="0.3703" stop-color="#FF9323"/>
<stop offset="0.8703" stop-color="#FF741F"/>
<stop offset="1" stop-color="#FD7708"/>
</radialGradient>
<radialGradient id="paint8_radial_766_27643" cx="0" cy="0" r="1" gradientUnits="userSpaceOnUse" gradientTransform="translate(19.0383 2.26511) rotate(-4.94778) scale(22.5112 23.2738)">
<stop stop-color="#FFB926"/>
<stop offset="0.3703" stop-color="#FF9624"/>
<stop offset="0.8703" stop-color="#FF741F"/>
<stop offset="1" stop-color="#FD7706"/>
</radialGradient>
<radialGradient id="paint9_radial_766_27643" cx="0" cy="0" r="1" gradientUnits="userSpaceOnUse" gradientTransform="translate(18.9222 2.35646) rotate(-4.94778) scale(22.3073 23.0631)">
<stop stop-color="#FFC026"/>
<stop offset="0.3703" stop-color="#FF9A24"/>
<stop offset="0.8703" stop-color="#FF741F"/>
<stop offset="1" stop-color="#FC7803"/>
</radialGradient>
<radialGradient id="paint10_radial_766_27643" cx="0" cy="0" r="1" gradientUnits="userSpaceOnUse" gradientTransform="translate(18.7913 2.44559) rotate(-4.94778) scale(22.1035 22.8523)">
<stop offset="0.0352" stop-color="#FFE000"/>
<stop offset="0.3703" stop-color="#FF9E25"/>
<stop offset="0.8703" stop-color="#FF741F"/>
<stop offset="1" stop-color="#FC7800"/>
</radialGradient>
<radialGradient id="paint11_radial_766_27643" cx="0" cy="0" r="1" gradientUnits="userSpaceOnUse" gradientTransform="translate(9.12708 10.9889) rotate(-4.94778) scale(6.12669 6.33425)">
<stop stop-color="#FFC827"/>
<stop offset="0.3703" stop-color="#FF9E25"/>
<stop offset="0.8703" stop-color="#FF741F"/>
<stop offset="1" stop-color="#FC7800"/>
</radialGradient>
<radialGradient id="paint12_radial_766_27643" cx="0" cy="0" r="1" gradientUnits="userSpaceOnUse" gradientTransform="translate(7.7994 11.686) rotate(-4.94778) scale(4.0079 4.14368)">
<stop stop-color="#FFC827"/>
<stop offset="0.3703" stop-color="#FF9E25"/>
<stop offset="0.8703" stop-color="#FF741F"/>
<stop offset="1" stop-color="#FC7800"/>
</radialGradient>
<radialGradient id="paint13_radial_766_27643" cx="0" cy="0" r="1" gradientUnits="userSpaceOnUse" gradientTransform="translate(11.1178 10.9397) rotate(-4.94778) scale(0.438677 0.453539)">
<stop stop-color="#FFC827"/>
<stop offset="0.3703" stop-color="#FF9E25"/>
<stop offset="0.8703" stop-color="#FF741F"/>
<stop offset="1" stop-color="#FC7800"/>
</radialGradient>
<radialGradient id="paint14_radial_766_27643" cx="0" cy="0" r="1" gradientUnits="userSpaceOnUse" gradientTransform="translate(13.0896 7.31605) rotate(-4.94778) scale(0.986908 1.02034)">
<stop stop-color="#FFC827"/>
<stop offset="0.3703" stop-color="#FF9E25"/>
<stop offset="0.8703" stop-color="#FF741F"/>
<stop offset="1" stop-color="#FC7800"/>
</radialGradient>
<radialGradient id="paint15_radial_766_27643" cx="0" cy="0" r="1" gradientUnits="userSpaceOnUse" gradientTransform="translate(17.9287 5.07854) rotate(-4.94778) scale(1.63098 1.68624)">
<stop stop-color="#FFC827"/>
<stop offset="0.3703" stop-color="#FF9E25"/>
<stop offset="0.8703" stop-color="#FF741F"/>
<stop offset="1" stop-color="#FC7800"/>
</radialGradient>
<radialGradient id="paint16_radial_766_27643" cx="0" cy="0" r="1" gradientUnits="userSpaceOnUse" gradientTransform="translate(5.56017 15.8533) rotate(-4.94778) scale(4.27651 4.42139)">
<stop stop-color="#FFC827"/>
<stop offset="0.3703" stop-color="#FF9E25"/>
<stop offset="0.8703" stop-color="#FF741F"/>
<stop offset="0.9973" stop-color="#FF9589"/>
</radialGradient>
<radialGradient id="paint17_radial_766_27643" cx="0" cy="0" r="1" gradientUnits="userSpaceOnUse" gradientTransform="translate(7.56073 16.3059) rotate(-4.94778) scale(3.0037 3.10545)">
<stop stop-color="#FFC827"/>
<stop offset="0.3703" stop-color="#FF9E25"/>
<stop offset="0.8703" stop-color="#FF741F"/>
<stop offset="0.9973" stop-color="#FF9589"/>
</radialGradient>
<radialGradient id="paint18_radial_766_27643" cx="0" cy="0" r="1" gradientUnits="userSpaceOnUse" gradientTransform="translate(2.91832 18.0337) rotate(-4.94777) scale(1.79832 1.85924)">
<stop stop-color="#FFC827"/>
<stop offset="0.3703" stop-color="#FF9E25"/>
<stop offset="0.8703" stop-color="#FF741F"/>
<stop offset="0.9973" stop-color="#FF9589"/>
</radialGradient>
<radialGradient id="paint19_radial_766_27643" cx="0" cy="0" r="1" gradientUnits="userSpaceOnUse" gradientTransform="translate(4.94123 15.8415) rotate(-4.94778) scale(1.60928 1.66379)">
<stop stop-color="#FFC827"/>
<stop offset="0.3703" stop-color="#FF9E25"/>
<stop offset="0.8703" stop-color="#FF741F"/>
<stop offset="0.9973" stop-color="#FF9589"/>
</radialGradient>
<radialGradient id="paint20_radial_766_27643" cx="0" cy="0" r="1" gradientUnits="userSpaceOnUse" gradientTransform="translate(5.05143 12.9999) rotate(-4.94778) scale(1.50426 1.55522)">
<stop stop-color="#FFC827"/>
<stop offset="0.3703" stop-color="#FF9E25"/>
<stop offset="0.8703" stop-color="#FF741F"/>
<stop offset="0.9973" stop-color="#FF9589"/>
</radialGradient>
<radialGradient id="paint21_radial_766_27643" cx="0" cy="0" r="1" gradientUnits="userSpaceOnUse" gradientTransform="translate(1.9804 14.3949) rotate(-4.94778) scale(1.16964 1.20927)">
<stop stop-color="#FFC827"/>
<stop offset="0.3703" stop-color="#FF9E25"/>
<stop offset="0.8703" stop-color="#FF741F"/>
<stop offset="0.9973" stop-color="#FF9589"/>
</radialGradient>
</defs>
</svg>
