<svg width="787" height="130" viewBox="0 0 787 130" fill="none" xmlns="http://www.w3.org/2000/svg">
<path d="M19.6918 7.88362C20.931 6.52449 23.0703 6.52449 24.3094 7.88362L27.0243 10.8613C27.4599 11.339 28.0329 11.6699 28.6645 11.8082L32.6006 12.6705C34.3973 13.0641 35.4669 14.9168 34.9094 16.6695L33.6881 20.5095C33.4922 21.1256 33.4922 21.7873 33.6881 22.4034L34.9094 26.2434C35.4669 27.9961 34.3973 29.8487 32.6006 30.2423L28.6645 31.1046C28.0329 31.243 27.4599 31.5738 27.0243 32.0516L24.3094 35.0293C23.0703 36.3884 20.931 36.3884 19.6918 35.0293L16.977 32.0516C16.5414 31.5738 15.9683 31.243 15.3368 31.1046L11.4006 30.2423C9.604 29.8487 8.53437 27.9961 9.09182 26.2434L10.3131 22.4034C10.5091 21.7873 10.5091 21.1256 10.3131 20.5095L9.09182 16.6695C8.53437 14.9168 9.604 13.0641 11.4006 12.6705L15.3368 11.8082C15.9683 11.6699 16.5414 11.339 16.977 10.8613L19.6918 7.88362Z" fill="#493495" fill-opacity="0.75"/>
<path d="M13.2141 11.4003C13.6077 9.60372 15.4604 8.53409 17.2131 9.09155L21.053 10.3128C21.6691 10.5088 22.3309 10.5088 22.947 10.3128L26.7869 9.09155C28.5396 8.53409 30.3923 9.60372 30.7859 11.4003L31.6482 15.3365C31.7865 15.968 32.1174 16.5411 32.5952 16.9767L35.5728 19.6915C36.9319 20.9307 36.9319 23.07 35.5728 24.3092L32.5952 27.024C32.1174 27.4596 31.7865 28.0327 31.6482 28.6642L30.7859 32.6004C30.3923 34.397 28.5396 35.4666 26.7869 34.9092L22.947 33.6879C22.3309 33.4919 21.6691 33.4919 21.053 33.6879L17.2131 34.9092C15.4604 35.4666 13.6077 34.397 13.2141 32.6004L12.3518 28.6642C12.2135 28.0327 11.8826 27.4596 11.4048 27.024L8.42718 24.3092C7.06806 23.07 7.06806 20.9307 8.42718 19.6916L11.4048 16.9767C11.8826 16.5411 12.2135 15.968 12.3518 15.3365L13.2141 11.4003Z" fill="#493495" fill-opacity="0.55"/>
<path d="M35 27.5L275 97.5L530.5 33.5L758 99" stroke="#55449E" stroke-width="2" stroke-dasharray="4 4"/>
<path d="M272.692 93.8836C273.931 92.5245 276.07 92.5245 277.309 93.8836L280.024 96.8613C280.46 97.339 281.033 97.6699 281.664 97.8082L285.601 98.6705C287.397 99.0641 288.467 100.917 287.909 102.67L286.688 106.509C286.492 107.126 286.492 107.787 286.688 108.403L287.909 112.243C288.467 113.996 287.397 115.849 285.601 116.242L281.664 117.105C281.033 117.243 280.46 117.574 280.024 118.052L277.309 121.029C276.07 122.388 273.931 122.388 272.692 121.029L269.977 118.052C269.541 117.574 268.968 117.243 268.337 117.105L264.401 116.242C262.604 115.849 261.534 113.996 262.092 112.243L263.313 108.403C263.509 107.787 263.509 107.126 263.313 106.509L262.092 102.67C261.534 100.917 262.604 99.0641 264.401 98.6705L268.337 97.8082C268.968 97.6699 269.541 97.339 269.977 96.8613L272.692 93.8836Z" fill="#493495" fill-opacity="0.75"/>
<path d="M266.214 97.4003C266.608 95.6037 268.46 94.5341 270.213 95.0915L274.053 96.3128C274.669 96.5088 275.331 96.5088 275.947 96.3128L279.787 95.0915C281.54 94.5341 283.392 95.6037 283.786 97.4003L284.648 101.337C284.787 101.968 285.117 102.541 285.595 102.977L288.573 105.692C289.932 106.931 289.932 109.07 288.573 110.309L285.595 113.024C285.117 113.46 284.787 114.033 284.648 114.664L283.786 118.6C283.392 120.397 281.54 121.467 279.787 120.909L275.947 119.688C275.331 119.492 274.669 119.492 274.053 119.688L270.213 120.909C268.46 121.467 266.608 120.397 266.214 118.6L265.352 114.664C265.213 114.033 264.883 113.46 264.405 113.024L261.427 110.309C260.068 109.07 260.068 106.931 261.427 105.692L264.405 102.977C264.883 102.541 265.213 101.968 265.352 101.337L266.214 97.4003Z" fill="#493495" fill-opacity="0.55"/>
<path d="M762.692 93.8836C763.931 92.5245 766.07 92.5245 767.309 93.8836L770.024 96.8613C770.46 97.339 771.033 97.6699 771.664 97.8082L775.601 98.6705C777.397 99.0641 778.467 100.917 777.909 102.67L776.688 106.509C776.492 107.126 776.492 107.787 776.688 108.403L777.909 112.243C778.467 113.996 777.397 115.849 775.601 116.242L771.664 117.105C771.033 117.243 770.46 117.574 770.024 118.052L767.309 121.029C766.07 122.388 763.931 122.388 762.692 121.029L759.977 118.052C759.541 117.574 758.968 117.243 758.337 117.105L754.401 116.242C752.604 115.849 751.534 113.996 752.092 112.243L753.313 108.403C753.509 107.787 753.509 107.126 753.313 106.509L752.092 102.67C751.534 100.917 752.604 99.0641 754.401 98.6705L758.337 97.8082C758.968 97.6699 759.541 97.339 759.977 96.8613L762.692 93.8836Z" fill="#493495" fill-opacity="0.75"/>
<path d="M756.214 97.4003C756.608 95.6037 758.46 94.5341 760.213 95.0915L764.053 96.3128C764.669 96.5088 765.331 96.5088 765.947 96.3128L769.787 95.0915C771.54 94.5341 773.392 95.6037 773.786 97.4003L774.648 101.337C774.787 101.968 775.117 102.541 775.595 102.977L778.573 105.692C779.932 106.931 779.932 109.07 778.573 110.309L775.595 113.024C775.117 113.46 774.787 114.033 774.648 114.664L773.786 118.6C773.392 120.397 771.54 121.467 769.787 120.909L765.947 119.688C765.331 119.492 764.669 119.492 764.053 119.688L760.213 120.909C758.46 121.467 756.608 120.397 756.214 118.6L755.352 114.664C755.213 114.033 754.883 113.46 754.405 113.024L751.427 110.309C750.068 109.07 750.068 106.931 751.427 105.692L754.405 102.977C754.883 102.541 755.213 101.968 755.352 101.337L756.214 97.4003Z" fill="#493495" fill-opacity="0.55"/>
<path d="M527.692 7.88362C528.931 6.52449 531.07 6.52449 532.309 7.88362L535.024 10.8613C535.46 11.339 536.033 11.6699 536.664 11.8082L540.601 12.6705C542.397 13.0641 543.467 14.9168 542.909 16.6695L541.688 20.5095C541.492 21.1256 541.492 21.7873 541.688 22.4034L542.909 26.2434C543.467 27.9961 542.397 29.8487 540.601 30.2423L536.664 31.1046C536.033 31.243 535.46 31.5738 535.024 32.0516L532.309 35.0293C531.07 36.3884 528.931 36.3884 527.692 35.0293L524.977 32.0516C524.541 31.5738 523.968 31.243 523.337 31.1046L519.401 30.2423C517.604 29.8487 516.534 27.9961 517.092 26.2434L518.313 22.4034C518.509 21.7873 518.509 21.1256 518.313 20.5095L517.092 16.6695C516.534 14.9168 517.604 13.0641 519.401 12.6705L523.337 11.8082C523.968 11.6699 524.541 11.339 524.977 10.8613L527.692 7.88362Z" fill="#493495" fill-opacity="0.75"/>
<path d="M521.214 11.4003C521.608 9.60372 523.46 8.53409 525.213 9.09155L529.053 10.3128C529.669 10.5088 530.331 10.5088 530.947 10.3128L534.787 9.09155C536.54 8.53409 538.392 9.60372 538.786 11.4003L539.648 15.3365C539.787 15.968 540.117 16.5411 540.595 16.9767L543.573 19.6915C544.932 20.9307 544.932 23.07 543.573 24.3092L540.595 27.024C540.117 27.4596 539.787 28.0327 539.648 28.6642L538.786 32.6004C538.392 34.397 536.54 35.4666 534.787 34.9092L530.947 33.6879C530.331 33.4919 529.669 33.4919 529.053 33.6879L525.213 34.9092C523.46 35.4666 521.608 34.397 521.214 32.6004L520.352 28.6642C520.213 28.0327 519.883 27.4596 519.405 27.024L516.427 24.3092C515.068 23.07 515.068 20.9307 516.427 19.6916L519.405 16.9767C519.883 16.5411 520.213 15.968 520.352 15.3365L521.214 11.4003Z" fill="#493495" fill-opacity="0.55"/>
</svg>
