<svg version="1.2" xmlns="http://www.w3.org/2000/svg" viewBox="0 0 30 30" width="30" height="30"><style>.a{opacity:.75;fill:#493495}.b{opacity:.55;fill:#493495}</style><path class="a" d="m12.7 1.9c1.2-1.4 3.4-1.4 4.6 0l2.7 3c0.5 0.4 1 0.8 1.7 0.9l3.9 0.9c1.8 0.4 2.9 2.2 2.3 4l-1.2 3.8c-0.2 0.6-0.2 1.3 0 1.9l1.2 3.8c0.6 1.8-0.5 3.6-2.3 4l-3.9 0.9c-0.7 0.1-1.2 0.5-1.7 1l-2.7 2.9c-1.2 1.4-3.4 1.4-4.6 0l-2.7-2.9c-0.5-0.5-1-0.9-1.7-1l-3.9-0.9c-1.8-0.4-2.9-2.2-2.3-4l1.2-3.8c0.2-0.6 0.2-1.3 0-1.9l-1.2-3.8c-0.6-1.8 0.5-3.6 2.3-4l3.9-0.9c0.7-0.1 1.2-0.5 1.7-0.9z"/><path class="b" d="m6.2 5.4c0.4-1.8 2.3-2.9 4-2.3l3.9 1.2c0.6 0.2 1.2 0.2 1.8 0l3.9-1.2c1.7-0.6 3.6 0.5 4 2.3l0.8 3.9c0.2 0.7 0.5 1.2 1 1.7l3 2.7c1.3 1.2 1.3 3.4 0 4.6l-3 2.7c-0.5 0.5-0.8 1-1 1.7l-0.8 3.9c-0.4 1.8-2.3 2.9-4 2.3l-3.9-1.2c-0.6-0.2-1.2-0.2-1.8 0l-3.9 1.2c-1.7 0.6-3.6-0.5-4-2.3l-0.8-3.9c-0.2-0.7-0.5-1.2-1-1.7l-3-2.7c-1.3-1.2-1.3-3.4 0-4.6l3-2.7c0.5-0.5 0.8-1 1-1.7z"/></svg>