<svg width="84" height="83" viewBox="0 0 84 83" fill="none" xmlns="http://www.w3.org/2000/svg">
<path d="M50.5084 27.7441C50.5084 27.7441 49.891 26.8223 49.6664 26.1628C49.6298 26.0583 49.6038 25.9598 49.5919 25.8732C49.5021 25.24 50.054 24.1528 50.054 24.1528C50.054 24.1528 50.2114 24.2271 50.4379 24.3598C50.6838 24.5041 51.011 24.7155 51.3046 24.9709C51.8681 25.4614 50.5084 27.7441 50.5084 27.7441Z" fill="#E4B69D"/>
<path d="M50.508 27.7442C50.508 27.7442 49.8906 26.8224 49.666 26.1629C49.814 25.582 50.1033 24.9546 50.4375 24.3601C50.6834 24.5044 51.0106 24.7158 51.3042 24.9712C51.8676 25.4614 50.508 27.7442 50.508 27.7442Z" fill="#E4B69D"/>
<path d="M53.3863 23.4008L52.0527 25.4498C52.0527 25.4498 51.1286 24.8711 50.4169 24.3977C50.2863 24.311 50.1634 24.2278 50.0541 24.1528C50.0541 24.1528 49.7692 24.7447 49.6471 25.206C49.6141 25.3297 49.5936 25.4445 49.5931 25.5359C49.5931 25.5359 47.9683 24.5985 47.7714 23.4403C47.576 22.2826 48.5897 21.2045 49.6797 21.4894C50.1731 21.6165 50.9798 22.022 51.7149 22.4256C52.6028 22.9138 53.3863 23.4008 53.3863 23.4008Z" fill="#0071BC"/>
<path opacity="0.3" d="M53.3854 23.401L52.0518 25.4499C52.0518 25.4499 51.1277 24.8712 50.416 24.3978C50.8389 23.6398 51.3365 22.9297 51.714 22.426C52.6019 22.9139 53.3854 23.401 53.3854 23.401Z" fill="#0071BC"/>
<path d="M52.9254 27.0878L50.7272 28.5962L50.4555 28.2126C50.4555 28.2126 50.2586 27.8492 50.1682 27.3074C50.0774 26.7645 50.0951 26.0431 50.5268 25.3293C51.109 24.3659 51.7124 23.2443 52.2332 22.6166C52.4834 22.3138 52.7132 22.1272 52.9146 22.1248C53.5347 22.119 54.0684 22.9405 54.0684 22.9405C54.0684 22.9405 55.086 22.4118 55.7518 23.2843C56.4188 24.1574 52.9254 27.0878 52.9254 27.0878Z" fill="#E4B69D"/>
<path d="M52.9251 27.0881L50.7269 28.5965L50.4552 28.2128C50.4552 28.2128 50.2583 27.8495 50.168 27.3077C50.9436 26.7332 53.1092 25.0863 54.229 23.8101C54.229 23.8101 53.8324 23.5018 53.5976 23.6808C53.5976 23.6808 53.0173 22.4673 52.2329 22.6166C52.4831 22.3138 52.7129 22.1272 52.9143 22.1248C53.5344 22.119 54.0681 22.9405 54.0681 22.9405C54.0681 22.9405 55.0857 22.4118 55.7516 23.2843C56.4185 24.1577 52.9251 27.0881 52.9251 27.0881Z" fill="#E4B69D"/>
<path opacity="0.5" d="M50.0536 24.1528C50.0536 24.1528 49.7687 24.7447 49.6465 25.206C48.0436 24.167 48.5652 23.271 48.829 23.404C49.096 23.5396 50.0536 24.1528 50.0536 24.1528Z" fill="#0071BC"/>
<path d="M57.6564 21.4535L56.4137 22.6422L55.4408 23.574L54.8174 23.168L51.9749 21.3134C51.884 21.2534 51.8625 21.1507 51.8927 21.0672C51.9199 20.9898 51.9899 20.929 52.0881 20.9292C52.8969 20.9274 54.3979 20.9764 56.4182 21.2597C56.8121 21.3142 57.2257 21.3787 57.6564 21.4535Z" fill="#E6E6E6"/>
<path d="M57.6553 21.4535L56.4126 22.6422C54.7322 21.6257 52.7842 21.2128 51.8916 21.0672C51.9187 20.9898 51.9888 20.929 52.087 20.9292C53.0532 20.9271 55.0082 20.9967 57.6553 21.4535Z" fill="#E6E6E6"/>
<path d="M57.6574 21.4528L56.4147 22.6416L55.4418 23.5733L54.8184 23.1673C55.2554 22.7358 55.9321 22.0136 56.4192 21.2593C56.813 21.3135 57.2267 21.378 57.6574 21.4528Z" fill="#E6E6E6"/>
<path d="M56.1427 7.04821C56.1822 7.13035 56.2119 7.2125 56.2298 7.29543C56.332 7.74039 56.1374 8.19115 55.7662 8.61794C55.5279 8.89255 54.8436 9.29249 54.2659 9.60054C53.7796 9.86225 53.3687 10.0581 53.3687 10.0581L51.9219 7.89231C51.9219 7.89231 52.1707 7.60559 52.5303 7.26594C52.9782 6.8431 53.5972 6.33706 54.1174 6.20225C54.218 6.17487 54.3157 6.16329 54.4068 6.16803C55.3512 6.21831 55.8873 6.52478 56.1427 7.04821Z" fill="#D5938A"/>
<path d="M56.8495 7.83991C56.7845 8.02342 56.6955 8.21325 56.582 8.40598C55.7924 9.74112 54.9438 9.78378 54.4904 9.72849C54.4188 9.72006 54.3411 9.67399 54.2653 9.60053C53.9401 9.29116 53.6184 8.48707 53.6942 7.8694C53.6942 7.8694 53.6955 7.86729 53.695 7.86624C53.715 7.70773 53.7611 7.56056 53.8406 7.43865C54.1821 6.91418 54.83 7.23223 55.1786 7.7051C55.3019 7.87203 55.3874 8.05844 55.409 8.23274C55.4256 8.21009 55.6318 7.91231 55.5394 7.51527C55.512 7.401 55.4606 7.27936 55.3727 7.15404C55.0939 6.7541 54.443 6.6809 53.8114 6.95736C53.5257 7.08321 53.2429 7.28068 53.0002 7.5524C52.56 8.04633 52.4994 7.67798 52.5302 7.26593C52.5536 6.94946 52.6303 6.60692 52.6303 6.60692L53.7529 5.5556C53.7529 5.5556 54.1581 5.43344 54.7008 5.405C55.0717 5.38683 55.5072 5.4129 55.9198 5.55402C56.7897 5.84996 57.2342 6.74831 56.8495 7.83991Z" fill="#E4B69D"/>
<path d="M56.8501 7.83969C56.7851 8.02321 56.6961 8.21304 56.5826 8.40577C55.793 9.74091 54.9444 9.78356 54.4911 9.72827C54.4194 9.71985 54.3418 9.67377 54.2659 9.60031C53.7796 9.86202 53.3687 10.0579 53.3687 10.0579L51.9219 7.89209C51.9219 7.89209 52.1707 7.60536 52.5303 7.26572C52.5538 6.94924 52.6304 6.6067 52.6304 6.6067L53.7531 5.55539C53.7531 5.55539 54.1583 5.43322 54.7009 5.40479C54.4518 5.67097 54.2617 5.94084 54.1174 6.20203C53.974 6.46268 53.8765 6.71702 53.8115 6.95714C53.7188 7.29574 53.6917 7.60615 53.6954 7.86602C53.6959 7.86707 53.6946 7.86918 53.6946 7.86918C53.7036 8.34389 53.8136 8.64878 53.8136 8.64878C53.8136 8.64878 54.4787 8.10351 55.179 7.70489C55.2991 7.63538 55.4213 7.5714 55.5397 7.51505C55.7886 7.39657 56.0292 7.31232 56.2298 7.29521C56.4062 7.27915 56.5524 7.31496 56.6485 7.42422C56.7604 7.55007 56.822 7.69304 56.8501 7.83969Z" fill="#E4B69D"/>
<path d="M56.1311 2.34008C55.2154 3.6589 54.049 5.54854 53.4669 6.50507C53.2236 6.90422 53.1425 7.38051 53.2428 7.83784C53.3497 8.32835 53.5095 8.92945 53.6851 9.17483C53.6851 9.17483 55.7154 7.46924 56.2633 7.65802C57.2361 7.99292 56.3844 9.29173 55.3223 10.0784C54.2602 10.8649 52.8268 11.8464 52.8268 11.8464L52.4619 12.3011L51.2099 13.8585L49.5117 11.7756L50.6794 10.2067L50.8479 9.98024C50.8479 9.98024 51.1125 7.52585 51.6036 6.72597C52.5964 5.10858 55.5932 0.285369 56.3923 0.0452486C57.1914 -0.193819 57.4062 0.506268 56.1311 2.34008Z" fill="#E4B69D"/>
<path d="M52.459 12.301L51.2067 13.8584L49.5088 11.7752L50.6762 10.2065L52.459 12.301Z" fill="#E4B69D"/>
<path d="M51.1825 14.9227L50.513 15.82L46.953 20.5866L46.7629 21.1351L46.0484 22.031L43.4128 26.18L41.5153 29.1657L37.2811 28.8318L36.7476 28.5138L36.7432 28.5109L36.7587 28.489L38.3016 26.368L43.8844 18.6917L43.9112 17.9564L44.4494 17.8173L48.1449 12.9165L48.4862 12.4639L51.1825 14.9227Z" fill="white"/>
<path opacity="0.7" d="M43.4149 26.1799L41.5177 29.1659L37.2834 28.8318L36.75 28.5137L36.7611 28.489L38.3042 26.3679L38.9703 26.592C38.9698 26.592 41.3023 26.1797 43.4149 26.1799Z" fill="#9EBECA"/>
<path d="M32.4379 35.2731C32.4379 35.2731 31.6686 34.45 31.0977 33.573C30.6573 32.8945 30.3337 32.1839 30.5762 31.7947C30.6886 31.6139 30.8142 31.4277 30.9698 31.2769C31.5867 30.6797 32.6759 30.6271 35.2727 33.5999C35.2956 33.6259 35.3185 33.6517 35.3412 33.6778C35.3665 33.7078 35.3928 33.737 35.4186 33.7655C36.159 34.613 36.7988 35.3376 37.3435 35.9505C39.1181 37.9465 39.894 38.7627 39.894 38.7627L33.5453 37.0761L32.4379 35.2731Z" fill="#0071BC"/>
<path opacity="0.5" d="M35.4176 33.7652L35.8454 36.8346L33.3755 36.3518C33.3755 36.3518 32.9882 33.5888 32.1478 32.2771C31.8007 31.7371 31.3634 31.4385 30.9688 31.2769C31.5856 30.6797 32.6749 30.6271 35.2717 33.5999C35.3199 33.6554 35.3689 33.7107 35.4176 33.7652Z" fill="#0071BC"/>
<path opacity="0.3" d="M33.4745 36.9613L32.4368 35.2728C32.4368 35.2728 31.6675 34.4498 31.0967 33.5728C31.7049 33.7273 33.4629 34.0891 35.3404 33.6775C35.3657 33.7076 35.392 33.7368 35.4178 33.7652C36.1582 34.6127 36.798 35.3373 37.3427 35.9503L33.4745 36.9613Z" fill="#0071BC"/>
<path d="M49.2184 28.7887C49.2184 28.7887 48.7132 29.2553 47.3382 30.3029C46.5655 30.8908 45.5189 31.6623 44.1332 32.6383C42.2438 33.9692 39.7429 35.0769 37.6868 35.8602C36.8248 36.1885 36.0405 36.4592 35.4117 36.6664C35.4107 36.6669 35.4107 36.6669 35.4107 36.6669C34.4823 36.9726 33.8933 37.1371 33.8933 37.1371C33.8933 37.1371 33.8754 36.9012 33.847 36.5363C33.7933 35.8765 33.708 34.7923 33.6356 33.9176C33.6114 33.6222 33.5879 33.3507 33.5684 33.1283C33.4858 32.1857 33.6611 31.1146 33.7514 30.651C33.7791 30.503 33.7996 30.4172 33.7996 30.4172L34.0379 30.017L34.0877 29.934L34.1732 29.7903L36.8777 27.8261L37.8695 27.105C37.8695 27.105 41.1059 27.1513 42.9755 27.1063C44.1814 27.0771 46.4317 27.7861 47.8746 28.2929C48.6679 28.571 49.2184 28.7887 49.2184 28.7887Z" fill="white"/>
<path opacity="0.7" d="M37.3888 35.4723C37.5302 35.6171 37.6286 35.7458 37.6866 35.8604C36.8245 36.1887 36.0402 36.4594 35.4115 36.6666C35.4104 36.6671 35.4104 36.6671 35.4104 36.6671C34.9049 36.6439 34.3659 36.5955 33.847 36.5365C33.7759 35.6529 33.6461 34.0094 33.5684 33.1285C33.4858 32.1859 33.6611 31.1148 33.7514 30.6512C33.7791 30.5032 33.7996 30.4174 33.7996 30.4174L34.0379 30.0172L34.0877 29.9342L34.7777 29.7642C34.7777 29.7642 35.1721 33.2127 37.3888 35.4723Z" fill="#9EBECA"/>
<path opacity="0.5" d="M34.8525 32.1327C34.8525 32.1327 34.9863 30.4982 36.55 30.1238C38.1137 29.7494 46.9349 30.7444 46.9349 30.7444L43.4595 34.2946L34.8525 32.1327Z" fill="#9EBECA"/>
<path opacity="0.5" d="M49.2189 28.7887C49.2189 28.7887 48.7137 29.2553 47.3388 30.3029C45.9728 29.8358 43.8973 29.1436 42.3784 28.7153C39.9163 28.0207 37.3382 28.2598 37.3382 28.2598L36.7666 28.0591L36.8788 27.8261L37.8706 27.105C37.8706 27.105 41.1069 27.1513 42.9766 27.1063C44.8454 27.0607 49.2189 28.7887 49.2189 28.7887Z" fill="#9EBECA"/>
<path d="M37.1966 34.9359C37.1966 34.9359 34.8406 33.7967 34.7701 32.8396C34.6995 31.8825 34.9739 30.1962 37.517 30.4616C40.0601 30.727 45.0887 31.5002 45.0887 31.5002C45.0887 31.5002 41.9819 33.6856 40.5317 34.3009C39.0815 34.9162 37.6989 35.2482 37.6989 35.2482L37.1966 34.9359Z" fill="white"/>
<path d="M38.4436 27.2206L36.2299 28.1672L35.7012 27.9223L36.2744 27.3934L36.9887 26.7349L37.49 26.9015L38.4436 27.2206Z" fill="white"/>
<path opacity="0.7" d="M38.4436 27.2205L36.2299 28.167L35.7012 27.9221L36.2744 27.3932L36.8365 27.1786L37.0137 27.2423L37.49 26.9014L38.4436 27.2205Z" fill="#9EBECA"/>
<path d="M36.2215 28.0157L35.0291 29.1623L34.0836 29.364C33.6973 29.0204 33.2964 28.7026 32.9135 28.419C31.7959 27.5881 30.833 27.0497 30.833 27.0497L32.1218 25.9473L34.0586 26.0679L35.6341 27.4867L36.2215 28.0157Z" fill="#E4B69D"/>
<path d="M35.6341 27.4867C34.6512 28.2316 33.5904 28.4003 32.9135 28.419C31.7959 27.5881 30.833 27.0497 30.833 27.0497L32.1218 25.9473L34.0586 26.0679L35.6341 27.4867Z" fill="#E4B69D"/>
<path opacity="0.5" d="M51.1831 14.9227L50.5135 15.82L48.1455 12.9165L48.4867 12.4639L51.1831 14.9227Z" fill="#9EBECA"/>
<path d="M48.207 12.5489L51.2704 15.5694L52.8188 13.4302L49.8647 10.4194L48.207 12.5489Z" fill="white"/>
<path opacity="0.7" d="M40.0325 29.296L33.752 30.6527C33.7796 30.5048 33.8001 30.4189 33.8001 30.4189L34.0384 30.0187L38.3464 27.5728L40.0325 29.296Z" fill="#9EBECA"/>
<path d="M37.7439 16.6828C38.0161 18.7012 35.741 17.2321 34.111 15.9541C33.2308 15.2637 32.5381 14.6281 32.5381 14.6281L35.3835 12.0139C35.3835 12.0139 36.2176 12.6853 36.9098 14.0223C37.2744 14.725 37.5993 15.6115 37.7439 16.6828Z" fill="#07558D"/>
<path opacity="0.5" d="M36.9098 14.0223C35.9906 14.7929 35.0388 15.4301 34.111 15.9541C33.2308 15.2637 32.5381 14.6281 32.5381 14.6281L35.3835 12.0139C35.3835 12.0139 36.2176 12.6853 36.9098 14.0223Z" fill="#0071BC"/>
<path d="M38.8487 18.1756C40.2146 21.7914 38.9938 25.6028 36.1215 26.6878C35.8037 26.8079 35.4788 26.8892 35.1518 26.9348C32.5153 27.2999 29.6625 25.32 28.4479 22.1044C27.954 20.7969 27.7984 19.4634 27.9372 18.2436C27.9709 17.9505 28.0206 17.663 28.0867 17.3855C28.5098 15.6183 29.5906 14.191 31.1754 13.5925C31.5943 13.4343 32.0258 13.3456 32.4608 13.3158C32.9644 12.9722 33.6369 12.6039 34.4646 12.3503C34.4646 12.3503 35.5086 12.8482 36.2545 14.547C36.2632 14.5665 36.2721 14.5867 36.2806 14.6062C37.3648 15.4551 38.2842 16.6812 38.8487 18.1756Z" fill="#E4B69D"/>
<path d="M36.2536 14.5467C32.7439 17.2183 28.9591 18.0572 27.9365 18.2438C28.1809 16.0896 29.3404 14.2855 31.1747 13.5925C31.5936 13.4343 32.0252 13.3456 32.4601 13.3158C32.9638 12.9722 33.6362 12.6039 34.464 12.3503C34.464 12.3503 35.5077 12.8482 36.2536 14.5467Z" fill="#E4B69D"/>
<path d="M32.959 27.0336C32.959 27.0336 35.5253 28.4051 37.7053 25.7527C37.7053 25.7527 35.5985 27.2434 33.7941 26.2427L32.959 27.0336Z" fill="#333333"/>
<path d="M33.2213 17.961C33.6043 18.4123 33.7318 18.9333 33.5061 19.1248C33.2805 19.3162 32.7871 19.1058 32.4043 18.6545C32.0214 18.2032 31.8938 17.6822 32.1191 17.4908C32.3448 17.2991 32.8382 17.5097 33.2213 17.961Z" fill="#231F20"/>
<path d="M36.1491 15.6781C36.3839 16.0236 36.4342 16.3985 36.2618 16.5159C36.089 16.6334 35.7586 16.4485 35.5238 16.1034C35.2889 15.7579 35.2386 15.3827 35.4111 15.2653C35.584 15.1479 35.9142 15.3327 36.1491 15.6781Z" fill="#231F20"/>
<path d="M30.8604 17.5057C30.8604 17.5057 30.8896 16.6355 31.9512 16.4136" stroke="#231F20" stroke-width="3.34868" stroke-miterlimit="10" stroke-linecap="round"/>
<path d="M34.3623 15.11C34.3623 15.11 34.4194 14.4084 35.1601 14.3792" stroke="#231F20" stroke-width="3.34868" stroke-miterlimit="10" stroke-linecap="round"/>
<path d="M38.3673 21.9139C38.2191 22.1169 38.0292 22.3067 37.7886 22.4781C36.8034 23.1832 35.8503 22.9452 35.1567 22.55C34.9056 22.4073 34.6889 22.243 34.5185 22.0948C34.2402 21.8567 34.0791 21.6601 34.0791 21.6601C36.2225 21.46 37.4542 20.0761 38.0211 19.2149C38.2873 18.8115 38.4068 18.5227 38.4068 18.5227C38.4068 18.5227 39.4007 20.5019 38.3673 21.9139Z" fill="#6A4642"/>
<path d="M38.3665 21.9139C38.2183 22.1158 38.0285 22.3067 37.7881 22.4781C36.8021 23.1824 35.849 22.9454 35.1562 22.5497C35.3513 22.2869 35.7621 21.8881 36.4124 21.986C36.4124 21.986 37.1417 20.8657 38.3665 21.9139Z" fill="#F28FB3"/>
<path d="M38.2178 19.6551C36.984 21.5387 35.1533 21.9913 34.5185 22.0942C34.2402 21.8562 34.0791 21.6595 34.0791 21.6595C36.2225 21.4594 37.4542 20.0756 38.0211 19.2144L38.2178 19.6551Z" fill="white"/>
<path d="M36.9127 17.6616C37.1984 17.9642 37.0046 18.6113 36.4796 19.1071C35.9549 19.6029 35.2977 19.7595 35.0118 19.457C34.7261 19.1545 34.9199 18.5073 35.4449 18.0116C35.9699 17.5158 36.627 17.3591 36.9127 17.6616Z" fill="#D5938A"/>
<path d="M35.1509 26.9342C32.5143 27.2994 29.6615 25.3194 28.447 22.1039C27.953 20.7964 27.7974 19.4628 27.9362 18.243C27.9699 17.95 28.0197 17.6624 28.0857 17.3849L28.8674 17.302C28.8674 17.302 28.3835 17.7675 29.3806 18.9931C30.3777 20.2187 34.8655 25.5293 35.2246 26.1475C35.3549 26.3734 35.2886 26.6599 35.1509 26.9342Z" fill="#E4B69D"/>
<path d="M28.8634 18.9404C29.1949 19.8179 33.5034 25.0629 34.1437 25.7169C34.1882 25.7617 34.2264 25.8062 34.259 25.8494C34.3085 25.9128 34.3451 25.9744 34.3704 26.0347C34.3788 26.0547 34.3859 26.0747 34.3917 26.0945C34.3951 26.1071 34.3983 26.1184 34.4017 26.1308C34.4359 26.2748 34.4022 26.412 34.3119 26.5455C34.3051 26.5568 34.2964 26.5676 34.2885 26.5795C34.2811 26.5897 34.2727 26.6005 34.2635 26.6129C34.2459 26.6358 34.2266 26.6582 34.2048 26.6803C34.184 26.7019 34.1624 26.724 34.1382 26.7469C34.1258 26.7577 34.1142 26.7698 34.1018 26.7806C34.0513 26.8262 33.9952 26.8712 33.9346 26.9167C33.9044 26.9394 33.8728 26.9626 33.8404 26.9863C33.8077 27.0099 33.7727 27.0331 33.7374 27.0565C33.7203 27.0681 33.7024 27.08 33.6829 27.0921C33.6466 27.1158 33.6092 27.14 33.5708 27.1645C33.4394 27.2456 33.2956 27.3312 33.1408 27.4199C32.9705 27.5181 32.7188 27.5768 32.4139 27.6079C32.1817 27.6316 31.9176 27.6382 31.638 27.6332C29.4237 27.4202 27.2215 26.3043 25.5902 24.4073C25.4054 24.1943 25.2292 23.9705 25.0607 23.7378C22.1753 19.7421 22.7435 14.4031 26.3311 11.8113C28.1978 10.4627 30.5158 10.1252 32.7153 10.6752C33.9654 10.9872 35.1768 11.5862 36.2466 12.449C30.1496 14.2751 28.5464 18.1015 28.8634 18.9404Z" fill="#1A2A6C"/>
<path d="M37.5031 11.8258C36.5666 12.6896 33.7849 15.0498 29.1721 17.2495C28.9985 17.3327 28.8269 17.1537 28.9272 16.9939C28.9519 16.9531 28.9791 16.9115 29.0072 16.8667C29.7663 15.669 31.5367 13.1267 33.4273 12.1612C33.4273 12.1612 35.4852 11.6275 37.1929 11.508C37.2506 11.5038 37.308 11.4998 37.3648 11.4972C37.5484 11.4869 37.6379 11.7007 37.5031 11.8258Z" fill="#29ABE2"/>
<path opacity="0.3" d="M37.5031 11.826C36.5666 12.6899 33.7849 15.05 29.1721 17.2498C28.9985 17.333 28.8269 17.154 28.9272 16.9941C28.9519 16.9533 28.9791 16.9117 29.0072 16.867C30.0483 16.3693 32.8865 14.9278 35.8562 12.6828C36.5502 12.158 36.9697 11.7784 37.1932 11.508C37.2508 11.5037 37.3082 11.4998 37.3651 11.4972C37.5484 11.4872 37.6379 11.701 37.5031 11.826Z" fill="white"/>
<path opacity="0.7" d="M49.2176 28.789C49.2176 28.789 48.7123 29.2556 47.3374 30.3032C46.5647 30.8911 45.5181 31.6626 44.1324 32.6386C42.243 33.9695 39.742 35.0772 37.686 35.8605C36.824 36.1888 36.0397 36.4595 35.4109 36.6667C35.4099 36.6672 35.4099 36.6672 35.4099 36.6672C34.4815 36.9729 33.8925 37.1374 33.8925 37.1374C33.8925 37.1374 33.8746 36.9015 33.8462 36.5366C33.7925 35.8768 33.7072 34.7926 33.6348 33.9179C35.4873 33.915 40.5951 33.3645 47.8738 28.2927C48.667 28.5713 49.2176 28.789 49.2176 28.789Z" fill="#9EBECA"/>
<path d="M16.6199 72.139L17.7765 70.7841L18.9337 69.4305C18.9337 69.4305 17.8876 70.3944 16.0751 71.3478C14.2613 72.3017 11.6805 73.2437 8.61138 73.1998L9.96679 72.0731L11.323 70.9478C11.323 70.9478 10.0934 71.2425 8.26041 71.5471C6.42633 71.8525 1.50781 72.2158 1.50781 72.2158C1.50781 72.2158 4.05409 67.9921 5.15491 66.4938C6.25467 64.9962 7.07297 64.0323 7.07297 64.0323L5.45637 64.7339L3.83898 65.4343C5.18624 62.6761 7.19251 60.7991 8.86282 59.6121C10.5321 58.4258 11.8646 57.9281 11.8646 57.9281L10.1342 58.3491L8.40312 58.7688C10.6882 56.4495 12.7879 55.4803 14.4322 55.1275C14.6805 55.0733 14.9188 55.0341 15.1447 55.0056C16.2168 54.8735 17.0348 54.999 17.5016 55.1128L23.9912 65.6728C23.8817 66.1407 23.6244 66.9274 23.022 67.8242C22.7464 68.2352 22.398 68.6685 21.9589 69.1059C20.8544 70.2048 19.174 71.322 16.6199 72.139Z" fill="#FCEE21"/>
<path d="M23.2817 64.5141L18.2174 56.2731C17.893 56.1599 17.329 56.0164 16.6079 56.0485C15.4465 56.1001 13.8791 56.607 12.2546 58.4271L13.406 58.2217L14.5574 58.0164C14.5574 58.0164 13.6817 58.3033 12.6193 59.0819C11.5569 59.8602 10.3081 61.13 9.56196 63.0955L10.6185 62.6745L11.6751 62.2535C11.6751 62.2535 11.178 62.9185 10.5217 63.9628C9.86527 65.007 8.39453 67.9864 8.39453 67.9864C8.39453 67.9864 11.717 68.0201 12.9452 67.906C14.1735 67.7923 14.9913 67.6491 14.9913 67.6491L14.1385 68.4016L13.2857 69.154C15.3762 69.3763 17.0731 68.8355 18.2474 68.2394C19.4216 67.6433 20.0736 66.9916 20.0736 66.9916L19.3703 67.9261L18.6671 68.8605C21.0248 68.2333 22.1849 67.0638 22.7557 66.0512C23.1096 65.4224 23.2365 64.8548 23.2817 64.5141Z" fill="#FBB03B"/>
<path d="M20.4758 63.4335L17.9127 59.2627C17.7526 59.203 17.4748 59.1255 17.122 59.1345C16.5535 59.1487 15.7905 59.3865 15.0125 60.2806L15.5746 60.1892L16.1368 60.0979C16.1368 60.0979 15.7105 60.2327 15.1976 60.6113C14.6847 60.9899 14.0855 61.6126 13.7395 62.5878L14.2529 62.3877L14.7663 62.1876C14.7663 62.1876 14.5294 62.5151 14.2182 63.0309C13.907 63.5467 13.2158 65.0217 13.2158 65.0217C13.2158 65.0217 14.844 65.0714 15.4446 65.0267C16.0451 64.9819 16.4445 64.9185 16.4445 64.9185L16.0341 65.2863L15.6236 65.6541C16.6502 65.786 17.4761 65.5325 18.0456 65.246C18.6151 64.9595 18.9279 64.6402 18.9279 64.6402L18.5925 65.1004L18.257 65.5606C19.406 65.2705 19.9629 64.6973 20.2325 64.1965C20.4005 63.8861 20.4571 63.6033 20.4758 63.4335Z" fill="#F7931E"/>
<path opacity="0.5" d="M21.9603 69.1064C18.6457 64.2129 15.6342 57.7983 14.4336 55.1278C14.6819 55.0735 14.9202 55.0343 15.1461 55.0059C16.2182 54.8737 17.0362 54.9993 17.503 55.113L23.9926 65.6731C23.8831 66.1409 23.6258 66.9276 23.0234 67.8244C22.7478 68.2357 22.3994 68.6691 21.9603 69.1064Z" fill="#F7931E"/>
<path opacity="0.5" d="M20.5211 82.7462C19.8092 83.1527 19.1231 82.9802 18.8174 82.55C38.601 70.1351 38.7698 61.8352 38.7698 61.8352L38.8253 59.529C42.3813 58.7215 44.8942 58.6691 45.3244 58.667C45.3339 58.6907 45.3444 58.7133 45.3549 58.7362C43.657 62.1795 39.3537 70.1662 34.2622 74.0271C30.3108 77.0254 24.5255 80.4685 20.5211 82.7462Z" fill="#0071BC"/>
<path opacity="0.5" d="M38.9951 69.1506C35.3261 70.1482 29.2702 71.5097 25.166 70.9447C26.3363 68.4832 27.1467 66.1154 27.182 64.2342C31.4052 61.6579 35.5554 60.2746 38.825 59.5292C40.8355 59.0724 42.5131 58.8581 43.669 58.7554L42.9655 63.1847C41.8602 65.083 40.5108 67.1917 38.9951 69.1506Z" fill="#0071BC"/>
<path d="M83.9336 22.7994C83.4857 24.217 82.6874 26.5374 81.4713 29.3791C81.2161 29.972 80.9436 30.5905 80.6511 31.2284C80.3536 31.8803 80.0342 32.5528 79.6946 33.2415C75.7408 41.2761 69.0034 51.5439 58.4471 58.0313C47.6582 64.6615 36.7241 68.515 28.2511 69.2075C27.368 69.2796 26.5124 69.317 25.6877 69.3202C24.3876 69.3244 23.1838 68.6404 22.5035 67.5335L15.1711 55.602C15.0703 55.4377 14.9818 55.2671 14.9097 55.0936C14.4858 54.0915 14.5126 52.9409 15.0155 51.9543C15.178 51.635 15.3504 51.3138 15.5305 50.9894C15.7643 50.5684 16.0134 50.145 16.2741 49.7182C19.111 45.0951 23.5469 40.1603 29.1903 35.4724C29.2414 35.43 29.2927 35.3873 29.3438 35.345C29.9351 34.8547 30.5394 34.3674 31.1584 33.8834C32.989 34.846 36.6195 34.355 40.8722 32.6644C42.1078 32.1742 43.3961 31.5825 44.707 30.8956C45.6367 30.4098 46.5777 29.8756 47.5203 29.2967C51.6015 26.7886 54.9092 23.924 56.9092 21.3632C57.6672 21.2134 58.4215 21.0783 59.1682 20.9575C59.52 20.9014 59.8704 20.8474 60.2193 20.7974C64.9596 20.1113 69.4289 19.9862 73.2037 20.1047C73.4159 20.111 73.6234 20.1186 73.8285 20.1265C74.5296 20.1536 75.2039 20.1892 75.8487 20.2303C78.9334 20.429 81.3641 20.765 82.8312 21.0059C83.199 21.0654 83.5065 21.2629 83.7127 21.5336C83.9773 21.8785 84.0778 22.345 83.9336 22.7994Z" fill="#1A2A6C"/>
<path opacity="0.5" d="M60.219 20.7969C58.1192 24.8523 52.418 30.4409 44.0698 34.2189C35.446 38.1208 30.636 36.0777 29.3438 35.3444C29.9351 34.8542 30.5393 34.3668 31.1583 33.8829C33.8963 35.3228 40.6644 33.5093 47.52 29.2961C51.6012 26.788 54.909 23.9234 56.9089 21.3627C57.6669 21.2129 58.4212 21.0778 59.1679 20.957C59.52 20.9009 59.8704 20.8469 60.219 20.7969Z" fill="#5991A6"/>
<path opacity="0.5" d="M44.6851 32.2296C43.8802 34.2875 38.4201 39.0227 38.4201 39.0227L34.4766 39.1931L35.4205 37.5094L40.8708 32.6643C42.1064 32.174 43.3947 31.5824 44.7056 30.8955C44.8934 31.1538 44.9439 31.5685 44.6851 32.2296Z" fill="#5991A6"/>
<path d="M28.2508 69.2068C27.3683 69.2794 26.5123 69.3168 25.6872 69.3197C24.3878 69.3239 23.1835 68.6396 22.5034 67.533L15.1713 55.6018C14.4913 54.4952 14.4249 53.1116 15.0155 51.9541C15.3909 51.2193 15.8109 50.4726 16.2743 49.718L28.2508 69.2068Z" fill="#CCCCCC"/>
<path opacity="0.5" d="M83.9335 22.7991C83.4856 24.2167 82.6874 26.5371 81.4712 29.3788C81.2161 29.9717 80.9436 30.5902 80.6511 31.2281C80.3536 31.88 80.0342 32.5525 79.6945 33.2412C75.7407 41.2758 69.0034 51.5436 58.447 58.031C47.6582 64.6612 36.724 68.5147 28.2511 69.2072C27.368 69.2793 26.5123 69.3167 25.6877 69.3199C24.3876 69.3241 23.1838 68.6401 22.5035 67.5332L20.0625 63.5609C30.2795 61.0075 61.9156 51.037 83.7126 21.5327C83.9772 21.8782 84.0778 22.3447 83.9335 22.7991Z" fill="#5991A6"/>
<path opacity="0.5" d="M20.2288 52.9168C20.2288 52.9168 17.5161 54.4252 14.9098 55.0927C14.4859 54.0911 14.5125 52.9403 15.0151 51.9545C15.1781 51.6351 15.35 51.3137 15.5301 50.9888C17.4019 51.379 19.4366 51.9932 20.2288 52.9168Z" fill="#5991A6"/>
<path d="M20.2285 52.9166C16.0072 50.8801 6.92183 51.7621 1.26689 52.5902C0.588652 52.6892 0.148956 52.3585 0.0320557 51.904C-0.0845818 51.4559 0.112096 50.888 0.703972 50.4967C4.54511 47.9531 10.2301 44.3473 14.6902 42.1763C20.4747 39.3588 29.6285 39.1445 33.4209 39.1879C33.4209 39.1879 30.9734 44.1451 25.4327 49.0421C23.9309 50.3722 22.1998 51.6968 20.2285 52.9166Z" fill="#1A2A6C"/>
<path opacity="0.5" d="M20.2287 52.9169C16.0073 50.8804 6.922 51.7624 1.26706 52.5904C0.588822 52.6894 0.149127 52.3587 0.0322266 51.9043C9.6768 47.0237 20.8537 48.2388 25.4326 49.0423C23.9311 50.3725 22.1999 51.6971 20.2287 52.9169Z" fill="#0071BC"/>
<path opacity="0.5" d="M79.6945 33.2421C76.2032 27.3642 74.0806 22.3424 73.2041 20.1047C73.4153 20.1113 73.6233 20.1182 73.8286 20.1266C74.529 20.1537 75.2038 20.1898 75.8486 20.2303L81.4709 29.3794C81.2157 29.9731 80.943 30.5913 80.651 31.2282C80.3532 31.8806 80.0344 32.5533 79.6945 33.2421Z" fill="#5991A6"/>
<path d="M80.6515 31.2278L73.8291 20.1262C77.8732 20.2845 81.0577 20.7152 82.8313 21.0051C83.6701 21.1423 84.1906 21.9895 83.9342 22.7997C83.3913 24.5126 82.3373 27.5484 80.6515 31.2278Z" fill="#CCCCCC"/>
<path d="M59.1671 20.957C57.0218 24.3906 53.2544 28.0222 48.4299 30.9871C41.0746 35.5072 33.4476 37.1338 29.1895 35.4719C29.8298 34.9377 30.4859 34.409 31.1575 33.883C33.8955 35.3229 40.6636 33.5094 47.5192 29.2962C51.6004 26.7881 54.9082 23.9235 56.9081 21.3628C57.6659 21.2129 58.4204 21.0779 59.1671 20.957Z" fill="#CCCCCC"/>
<path d="M78.576 22.9572C77.6082 22.8532 76.861 22.4199 76.9073 21.9897C76.9537 21.5594 77.7756 21.2948 78.7438 21.3988C79.7116 21.5028 80.4588 21.9362 80.4125 22.3664C80.3662 22.7969 79.5439 23.0615 78.576 22.9572Z" fill="white"/>
<path d="M38.5711 27.1808C38.5711 27.1808 41.0232 26.4557 42.437 27.3345C43.8509 28.2134 46.7105 30.7334 40.6053 35.842L38.078 38.016L34.5352 38.2384L35.6765 35.6053C35.6765 35.6053 37.6088 34.6709 39.4521 32.6182C41.283 30.5793 42.7035 28.0675 38.5538 28.0881L38.5711 27.1808Z" fill="#1A1A1A"/>
<path d="M36.8926 28.0681L37.1306 27.4733L37.9368 26.9607L38.8657 27.0971C38.8657 27.0971 38.8354 27.8056 38.5676 28.2116L37.8552 28.5115L36.8926 28.0681Z" fill="#333333"/>
<path d="M33.3721 28.7666L33.5253 29.9141L33.8004 30.4177L38.8253 28.9683L36.8288 27.4873L33.8397 29.1345L33.3721 28.7666Z" fill="white"/>
</svg>
