<svg width="22" height="22" viewBox="0 0 22 22" fill="none" xmlns="http://www.w3.org/2000/svg">
<path d="M16.05 16.6934C16.1544 16.2467 16.0535 15.7309 15.9499 15.2906L15.9636 15.2681L15.1025 11.6528L17.5865 8.86413C17.7596 8.65591 17.9286 8.44498 18.0923 8.22915C18.284 7.97496 18.5505 7.52512 18.1557 7.29933C17.7596 7.07368 17.2404 7.02672 16.7931 7.00449L16.7773 6.98691L13.1404 6.69949L11.3146 3.51615L11.2825 3.50793C11.0569 3.11741 10.7777 2.67351 10.3967 2.42225C10.0174 2.17157 9.74351 2.61748 9.60795 2.90623C9.46841 3.20282 9.34005 3.50303 9.21679 3.80712C9.18694 3.88147 9.15473 3.9543 9.12825 4.0298L9.10548 4.02468L7.8642 7.05124L4.37942 7.80229L4.37816 7.80428C4.35315 7.80899 4.32782 7.81416 4.3025 7.81933L4.01252 7.8818C3.65476 7.96705 3.28983 8.09015 3.00903 8.30604C2.63205 8.59596 2.97177 9.02386 3.20646 9.25917C3.44766 9.5011 3.69601 9.7336 3.95028 9.96248C4.01193 10.0178 4.07193 10.0756 4.13617 10.1279L4.13514 10.1296L6.56615 12.2234L6.23534 15.4296L6.23671 15.4301C6.22566 15.5129 6.2216 15.5958 6.21477 15.6791C6.18691 16.0218 6.16577 16.3625 6.15644 16.7058C6.14735 17.0396 6.1934 17.5857 6.66443 17.5336C7.13731 17.4816 7.60569 17.2016 7.99913 16.9449L8.00358 16.9459L11.0398 15.0674L14.7477 16.7289C14.8806 16.7851 15.0134 16.8389 15.1481 16.8916C15.4434 17.0064 15.9464 17.1387 16.05 16.6934Z" fill="#ED9335"/>
<path d="M16.1749 16.5283C16.2795 16.0814 16.089 15.1034 16.089 15.1034L15.2274 11.4881L17.7114 8.69936C17.8848 8.49129 18.0538 8.28091 18.2173 8.0643C18.4091 7.81011 18.6756 7.35988 18.2807 7.13479C17.8848 6.90898 16.9023 6.82222 16.9023 6.82222L13.2651 6.53455L11.4398 3.35161C11.4398 3.35161 10.9028 2.50873 10.5217 2.25763C10.1421 2.00717 9.86831 2.45286 9.73298 2.74168C9.59353 3.0382 9.46486 3.33856 9.34167 3.64273C9.31191 3.71622 9.27946 3.78975 9.25306 3.86486L9.23075 3.86037L7.98931 6.88693L4.50446 7.63774L4.5032 7.63959C4.47849 7.64476 4.1374 7.7171 4.1374 7.7171C3.77972 7.80212 3.41472 7.92514 3.13399 8.14127C2.75717 8.43118 3.09689 8.85893 3.33143 9.09423C3.57285 9.33671 3.82135 9.56922 4.07524 9.79785C4.13658 9.853 4.19689 9.91069 4.26128 9.96332L4.26025 9.96524L6.69112 12.0585L6.36015 15.2645L6.36153 15.2652C6.35055 15.3477 6.34656 15.4315 6.33981 15.5148C6.3118 15.8566 6.29066 16.1976 6.28125 16.5412C6.27216 16.8747 6.31821 17.421 6.78924 17.369C7.26181 17.3166 7.73051 17.0365 8.12402 16.7801L8.12854 16.781L11.1643 14.9022L14.8724 16.5639C15.0048 16.6197 15.1383 16.6745 15.2726 16.7264C15.5683 16.8411 16.071 16.9739 16.1749 16.5283Z" fill="#F8CB36"/>
<path d="M15.5579 15.4813C15.6486 15.0943 15.561 14.6471 15.4711 14.266L15.4834 14.2465L14.7369 11.1145L16.8896 8.69792C17.0396 8.51742 17.1861 8.33492 17.3276 8.14744C17.4938 7.92699 17.7247 7.53727 17.3829 7.34219C17.0394 7.14599 16.5899 7.10633 16.2019 7.08688L16.1883 7.07143L13.0365 6.82177L11.4549 4.06358L11.4271 4.05714C11.2317 3.71868 10.99 3.33387 10.6597 3.116C10.331 2.89923 10.0938 3.28504 9.97614 3.53511C9.8554 3.79289 9.74417 4.053 9.63734 4.31661C9.61106 4.37999 9.58339 4.44397 9.56047 4.50881L9.54106 4.50484L8.46554 7.12778L5.44621 7.77798L5.44487 7.77974C5.42341 7.78373 5.40133 7.78818 5.37925 7.79247L5.12789 7.84627C4.81779 7.92013 4.50161 8.02727 4.2586 8.21437C3.9319 8.46576 4.22631 8.83599 4.42981 9.04018C4.6386 9.24974 4.85384 9.45133 5.07413 9.6492C5.12736 9.69745 5.17933 9.74755 5.23545 9.79313L5.23427 9.79443L7.34075 11.6085L7.0539 14.3864L7.0552 14.3869C7.04548 14.4587 7.04199 14.531 7.03635 14.6028C7.01208 14.8994 6.99384 15.1951 6.9858 15.4926C6.97767 15.7816 7.01731 16.2548 7.42589 16.2099C7.8354 16.1646 8.24154 15.9215 8.58223 15.6997L8.58614 15.7003L11.2165 14.0725L14.4296 15.512C14.5445 15.5609 14.6601 15.6079 14.7767 15.6532C15.0326 15.7523 15.4681 15.8672 15.5579 15.4813Z" fill="#FFF060"/>
<path d="M16.895 7.16184L13.0341 6.82176C13.0341 6.82176 11.2555 3.61615 10.8577 3.25032L12.6005 6.93214C12.6005 6.93214 12.6521 7.26191 13.0802 7.26487C13.5079 7.26759 16.895 7.16184 16.895 7.16184Z" fill="white"/>
<path d="M6.77759 11.1383L7.3394 11.6084L6.98701 15.1679L7.49872 11.7328C7.49872 11.7328 7.5826 11.6154 7.37608 11.4832C7.16971 11.3508 6.77759 11.1383 6.77759 11.1383Z" fill="white"/>
</svg>
