<svg width="149" height="145" viewBox="0 0 149 145" fill="none" xmlns="http://www.w3.org/2000/svg">
<g opacity="0.4" filter="url(#filter0_d_766_27433)">
<path d="M50.0129 69.5933L57.2399 92.3123C58.2966 95.6341 61.3881 97.8933 64.8804 97.8957L131 97.9426L84.7006 49.6332" fill="#407BFF"/>
</g>
<path d="M63.848 73.4884C68.3465 80.4392 72.845 87.3899 77.3435 94.341" stroke="#407BFF" stroke-width="0.5" stroke-miterlimit="10" stroke-linecap="round" stroke-linejoin="round"/>
<path d="M57.7631 82.952C57.6255 82.4728 57.7439 82.8847 57.6061 82.4052" stroke="#407BFF" stroke-width="0.5" stroke-miterlimit="10" stroke-linecap="round" stroke-linejoin="round"/>
<path d="M83.8359 70.1047C87.2083 74.0934 90.5806 78.0824 93.9532 82.0713" stroke="#407BFF" stroke-width="0.5" stroke-miterlimit="10" stroke-linecap="round" stroke-linejoin="round"/>
<path d="M89.9046 74.6515C86.8782 71.1038 83.8515 67.556 80.8249 64.0082" stroke="#407BFF" stroke-width="0.5" stroke-miterlimit="10" stroke-linecap="round" stroke-linejoin="round"/>
<path d="M48.819 28.2857C36.2979 35.4913 31.4654 50.5139 38.0252 61.8391L83.3683 35.7449C76.8083 24.4194 61.3401 21.08 48.819 28.2857Z" fill="#407BFF"/>
<path opacity="0.3" d="M48.819 28.2857C36.2979 35.4913 31.4654 50.5139 38.0252 61.8391L83.3683 35.7449C76.8083 24.4194 61.3401 21.08 48.819 28.2857Z" fill="white"/>
<path opacity="0.3" d="M48.8225 28.2924L44.3649 41.7486L51.5598 36.9642L53.4594 26.1433C53.4594 26.1433 50.2374 27.4216 48.8225 28.2924Z" fill="white"/>
<path d="M66.7984 59.3304C93.6706 43.8645 112.425 26.0957 108.688 19.6426C104.95 13.1895 80.1361 20.4958 53.2639 35.9617C26.3917 51.4275 7.63723 69.1964 11.3747 75.6495C15.1122 82.1026 39.9262 74.7963 66.7984 59.3304Z" fill="#407BFF"/>
<path opacity="0.3" d="M66.7984 59.3304C93.6706 43.8645 112.425 26.0957 108.688 19.6426C104.95 13.1895 80.1361 20.4958 53.2639 35.9617C26.3917 51.4275 7.63723 69.1964 11.3747 75.6495C15.1122 82.1026 39.9262 74.7963 66.7984 59.3304Z" fill="black"/>
<path d="M65.8811 57.6835C81.6863 48.5866 93.1947 38.9604 91.586 36.1826C89.9772 33.4048 75.8605 38.5274 60.0553 47.6242C44.2501 56.721 32.7416 66.3473 34.3504 69.1251C35.9591 71.9029 50.0759 66.7803 65.8811 57.6835Z" fill="#407BFF"/>
<path d="M34.6761 69.4765L42.5374 73.2849L91.3127 45.2116L91.7857 36.5278L60.8611 50.243L34.6761 69.4765Z" fill="#407BFF"/>
<path d="M69.2872 63.6309C82.8811 55.807 92.597 47.2127 90.9883 44.435C89.3796 41.6574 77.0554 45.7482 63.4615 53.5721C49.8677 61.396 40.1518 69.9903 41.7605 72.7679C43.3692 75.5456 55.6933 71.4548 69.2872 63.6309Z" fill="#407BFF"/>
<path opacity="0.3" d="M69.2872 63.6309C82.8811 55.807 92.597 47.2127 90.9883 44.435C89.3796 41.6574 77.0554 45.7482 63.4615 53.5721C49.8677 61.396 40.1518 69.9903 41.7605 72.7679C43.3692 75.5456 55.6933 71.4548 69.2872 63.6309Z" fill="black"/>
<path opacity="0.3" d="M68.9329 63.0179C79.7201 56.8094 87.43 49.9896 86.1534 47.7855C84.8769 45.5814 75.0974 48.8276 64.3102 55.0361C53.523 61.2446 45.8132 68.0644 47.0897 70.2685C48.3662 72.4726 58.1458 69.2264 68.9329 63.0179Z" fill="black"/>
<path d="M47.4367 68.2917L50.5253 70.0653L84.762 49.8514L84.2616 47.096C79.066 46.6965 54.3216 57.938 47.4367 68.2917Z" fill="#407BFF"/>
<path d="M69.1999 62.7899C78.7831 57.2741 85.733 51.3887 84.7227 49.6444C83.7125 47.9001 75.1248 50.9574 65.5415 56.4731C55.9582 61.9888 49.0084 67.8743 50.0186 69.6186C51.0288 71.3629 59.6166 68.3056 69.1999 62.7899Z" fill="#407BFF"/>
<path opacity="0.3" d="M69.1999 62.7899C78.7831 57.2741 85.733 51.3887 84.7227 49.6444C83.7125 47.9001 75.1248 50.9574 65.5415 56.4731C55.9582 61.9888 49.0084 67.8743 50.0186 69.6186C51.0288 71.3629 59.6166 68.3056 69.1999 62.7899Z" fill="white"/>
<g opacity="0.3">
<path d="M53.2677 35.9647C26.3938 51.4325 7.63863 69.2037 11.3767 75.6582C11.8582 76.4896 12.6917 77.091 13.832 77.4775C13.2481 71.2555 18.392 65.4104 23.1141 60.8943C40.9761 43.8105 63.41 30.9074 86.8264 22.9098C93.9493 20.4769 101.79 18.5395 108.98 20.2819C108.907 20.059 108.812 19.8464 108.695 19.6451C104.957 13.1904 80.1413 20.4972 53.2677 35.9647Z" fill="white"/>
</g>
<path opacity="0.3" d="M34.3472 69.1354L14.0381 74.1184L34.2049 68.6777L34.3472 69.1354Z" fill="black"/>
<path opacity="0.3" d="M35.0928 50.5769L44.0076 58.1158L44.731 57.5711L35.0928 50.5769Z" fill="black"/>
<path opacity="0.3" d="M73.8526 40.4749L69.707 29.607L74.7133 40.0623L73.8526 40.4749Z" fill="black"/>
<path opacity="0.3" d="M91.795 36.5242L104.499 19.638L90.7557 35.5814C90.7557 35.5814 91.8529 35.4657 91.795 36.5242Z" fill="black"/>
<path opacity="0.3" d="M53.2764 35.9734L54.6388 25.746L56.2907 25.2862L54.8678 35.1073L53.2764 35.9734Z" fill="white"/>
<path d="M33.1906 63.6139C33.9647 63.1684 34.4917 62.6336 34.3677 62.4195C34.2437 62.2054 33.5156 62.393 32.7415 62.8386C31.9674 63.2841 31.4404 63.8188 31.5644 64.0329C31.6884 64.247 32.4165 64.0594 33.1906 63.6139Z" fill="white"/>
<path d="M59.3871 45.095C59.5111 45.3091 58.984 45.8436 58.2098 46.2891C57.4356 46.7347 56.7076 46.9223 56.5837 46.7084C56.4597 46.4943 56.9868 45.9599 57.761 45.5144C58.535 45.0689 59.2632 44.8812 59.3871 45.095Z" fill="white"/>
<path d="M96.8099 37.1746C96.9339 37.3887 96.4068 37.9232 95.6326 38.3687C94.8584 38.8143 94.1304 39.0018 94.0066 38.788C93.8826 38.5739 94.4097 38.0395 95.1839 37.5939C95.9579 37.1481 96.6859 36.9605 96.8099 37.1746Z" fill="white"/>
<path d="M86.198 33.0066C86.2698 33.243 85.6347 33.6439 84.7791 33.902C83.9234 34.1601 83.1715 34.1775 83.0996 33.941C83.0278 33.7046 83.6629 33.3037 84.5185 33.0456C85.3743 32.7878 86.1261 32.7701 86.198 33.0066Z" fill="white"/>
<path d="M35.8588 71.7323C35.9828 71.9464 35.4557 72.4808 34.6815 72.9263C33.9073 73.3719 33.1793 73.5595 33.0554 73.3456C32.9314 73.1316 33.4585 72.5971 34.2327 72.1516C35.0065 71.7059 35.7348 71.5182 35.8588 71.7323Z" fill="white"/>
<path d="M34.1039 44.8096C35.147 40.6904 36.6821 36.7508 39.568 33.7293" stroke="#407BFF" stroke-width="0.5" stroke-miterlimit="10"/>
<path d="M40.306 32.9726C40.427 32.8547 40.548 32.7368 40.6687 32.6191" stroke="#407BFF" stroke-width="0.5" stroke-miterlimit="10"/>
<defs>
<filter id="filter0_d_766_27433" x="34.0127" y="37.6331" width="112.987" height="80.3096" filterUnits="userSpaceOnUse" color-interpolation-filters="sRGB">
<feFlood flood-opacity="0" result="BackgroundImageFix"/>
<feColorMatrix in="SourceAlpha" type="matrix" values="0 0 0 0 0 0 0 0 0 0 0 0 0 0 0 0 0 0 127 0" result="hardAlpha"/>
<feOffset dy="4"/>
<feGaussianBlur stdDeviation="8"/>
<feComposite in2="hardAlpha" operator="out"/>
<feColorMatrix type="matrix" values="0 0 0 0 0.720238 0 0 0 0 0.702381 0 0 0 0 0.797619 0 0 0 1 0"/>
<feBlend mode="normal" in2="BackgroundImageFix" result="effect1_dropShadow_766_27433"/>
<feBlend mode="normal" in="SourceGraphic" in2="effect1_dropShadow_766_27433" result="shape"/>
</filter>
</defs>
</svg>
