<svg version="1.2" xmlns="http://www.w3.org/2000/svg" viewBox="0 0 121 81" width="121" height="81"><style>.a{fill:#407bff}.b{fill:none;stroke:#6897ff;stroke-linecap:round;stroke-linejoin:round;stroke-width:.5}.c{fill:none;stroke:#407bff;stroke-linecap:round;stroke-linejoin:round;stroke-width:.5}.d{opacity:.3;fill:#fff}.e{opacity:.3}.f{fill:#fff}.g{fill:none;stroke:#407bff;stroke-miterlimit:10;stroke-width:.5}</style><g style="opacity:.7"><path class="a" d="m40 52.6l7.2 22.7c1.1 3.3 4.2 5.6 7.7 5.6h66.1l-46.3-48.3"/></g><path class="b" d="m53.8 56.5q6.8 10.4 13.5 20.8"/><path class="c" d="m47.8 65.9c-0.2-0.4-0.1 0-0.2-0.5"/><path class="b" d="m73.8 53.1q5.1 6 10.1 12"/><path class="b" d="m79.9 57.6q-4.5-5.3-9.1-10.6"/><path class="a" d="m38.8 11.3c-12.5 7.2-17.3 22.2-10.8 33.5l45.4-26.1c-6.6-11.3-22.1-14.6-34.6-7.4z"/><path class="d" d="m38.8 11.3c-12.5 7.2-17.3 22.2-10.8 33.5l45.4-26.1c-6.6-11.3-22.1-14.6-34.6-7.4z"/><path class="d" d="m38.8 11.3l-4.4 13.4 7.2-4.7 1.9-10.9c0 0-3.3 1.3-4.7 2.2z"/><path class="a" d="m56.8 42.3c26.9-15.4 45.6-33.2 41.9-39.7-3.8-6.4-28.6 0.9-55.4 16.4-26.9 15.4-45.7 33.2-41.9 39.6 3.7 6.5 28.5-0.8 55.4-16.3z"/><path class="e" d="m56.8 42.3c26.9-15.4 45.6-33.2 41.9-39.7-3.8-6.4-28.6 0.9-55.4 16.4-26.9 15.4-45.7 33.2-41.9 39.6 3.7 6.5 28.5-0.8 55.4-16.3z"/><path class="a" d="m55.9 40.7c15.8-9.1 27.3-18.7 25.7-21.5-1.6-2.8-15.7 2.3-31.6 11.4-15.8 9.1-27.3 18.7-25.7 21.5 1.7 2.8 15.8-2.3 31.6-11.4z"/><path class="a" d="m24.7 52.5l7.8 3.8 48.8-28.1 0.5-8.7-30.9 13.7z"/><path class="a" d="m59.3 46.6c13.6-7.8 23.3-16.4 21.7-19.2-1.6-2.7-14 1.3-27.5 9.2-13.6 7.8-23.4 16.4-21.7 19.2 1.6 2.7 13.9-1.3 27.5-9.2z"/><path class="e" d="m59.3 46.6c13.6-7.8 23.3-16.4 21.7-19.2-1.6-2.7-14 1.3-27.5 9.2-13.6 7.8-23.4 16.4-21.7 19.2 1.6 2.7 13.9-1.3 27.5-9.2z"/><path class="e" d="m58.9 46c10.8-6.2 18.5-13 17.2-15.2-1.2-2.2-11 1-21.8 7.2-10.8 6.2-18.5 13.1-17.2 15.3 1.3 2.2 11-1.1 21.8-7.3z"/><path class="a" d="m37.4 51.3l3.1 1.8 34.3-20.3-0.5-2.7c-5.2-0.4-30 10.8-36.9 21.2z"/><path class="a" d="m59.2 45.8c9.6-5.5 16.5-11.4 15.5-13.2-1-1.7-9.6 1.4-19.2 6.9-9.5 5.5-16.5 11.4-15.5 13.1 1 1.8 9.6-1.3 19.2-6.8z"/><path class="d" d="m59.2 45.8c9.6-5.5 16.5-11.4 15.5-13.2-1-1.7-9.6 1.4-19.2 6.9-9.5 5.5-16.5 11.4-15.5 13.1 1 1.8 9.6-1.3 19.2-6.8z"/><g style="opacity:.3"><path class="f" d="m43.3 19c-26.9 15.4-45.7 33.2-41.9 39.7q0.7 1.2 2.4 1.8c-0.6-6.2 4.6-12.1 9.3-16.6 17.9-17.1 40.3-30 63.7-38 7.1-2.4 15-4.4 22.2-2.6q-0.1-0.4-0.3-0.7c-3.8-6.4-28.6 0.9-55.4 16.4z"/></g><path class="e" d="m24.3 52.1l-20.3 5 20.2-5.4z"/><path class="e" d="m25.1 33.6l8.9 7.5 0.7-0.5z"/><path class="e" d="m63.8 23.5l-4.1-10.9 5 10.5z"/><path class="e" d="m81.8 19.5l12.7-16.9-13.8 16c0 0 1.1-0.1 1.1 0.9z"/><path class="d" d="m43.3 19l1.3-10.3 1.7-0.4-1.4 9.8z"/><path class="f" d="m23.2 46.6c0.8-0.4 1.3-1 1.2-1.2-0.2-0.2-0.9 0-1.7 0.4-0.7 0.5-1.3 1-1.1 1.2 0.1 0.2 0.8 0.1 1.6-0.4z"/><path class="f" d="m49.4 28.1c0.1 0.2-0.4 0.7-1.2 1.2-0.8 0.4-1.5 0.6-1.6 0.4-0.1-0.2 0.4-0.7 1.2-1.2 0.7-0.4 1.5-0.6 1.6-0.4z"/><path class="f" d="m86.8 20.2c0.1 0.2-0.4 0.7-1.2 1.2-0.7 0.4-1.5 0.6-1.6 0.4-0.1-0.2 0.4-0.8 1.2-1.2 0.8-0.5 1.5-0.6 1.6-0.4z"/><path class="f" d="m76.2 16c0.1 0.2-0.6 0.6-1.4 0.9-0.9 0.3-1.6 0.3-1.7 0-0.1-0.2 0.6-0.6 1.4-0.9 0.9-0.2 1.6-0.2 1.7 0z"/><path class="f" d="m25.9 54.7c0.1 0.2-0.5 0.8-1.2 1.2-0.8 0.5-1.5 0.7-1.7 0.4-0.1-0.2 0.5-0.7 1.2-1.2 0.8-0.4 1.5-0.6 1.7-0.4z"/><path class="g" d="m24.1 27.8c1-4.1 2.6-8.1 5.5-11.1"/><path class="g" d="m30.3 16q0.2-0.2 0.4-0.4"/></svg>