<svg width="108" height="328" viewBox="0 0 108 328" fill="none" xmlns="http://www.w3.org/2000/svg">
<path d="M66.3133 333.778C66.3133 325.778 63.4911 318.439 58.7915 312.696C72.1379 309.579 82.063 297.861 82.063 283.873C82.063 279.09 80.896 274.575 78.8356 270.575C91.598 267.545 101.123 255.691 101.123 241.517C101.123 237.544 100.369 233.756 99.0105 230.29C104.085 224.501 107.167 216.922 107.167 208.62C107.167 198.094 102.217 188.729 94.5242 182.708C95.0821 180.004 95.3765 177.202 95.3765 174.333C95.3765 160.338 88.4013 147.974 77.7396 140.522C80.4898 135.587 82.063 129.907 82.063 123.857C82.063 113.902 77.8159 104.941 71.0398 98.6773C71.9233 95.7967 72.4014 92.7387 72.4014 89.5685C72.4014 77.7376 65.7779 67.4557 56.0387 62.222C58.7906 57.5886 60.3759 52.1815 60.3759 46.402C60.3759 42.2789 59.5648 38.3474 58.1048 34.7484C62.9583 29.0162 65.891 21.6062 65.891 13.507C65.891 9.05144 65.0006 4.80524 63.3953 0.929686L51.033 0.929685L30.369 0.929684L30.369 347.735L51.033 347.735L63.2484 347.735C65.2104 343.488 66.3133 338.763 66.3133 333.778Z" fill="#EAEAEA"/>
<path d="M51.2 333.778C51.2 325.778 48.3779 318.439 43.6778 312.696C57.0242 309.579 66.9493 297.861 66.9493 283.873C66.9493 279.09 65.7827 274.575 63.7218 270.575C76.4839 267.545 86.0102 255.691 86.0102 241.517C86.0102 237.544 85.2559 233.756 83.8968 230.29C88.971 224.501 92.0537 216.922 92.0537 208.62C92.0537 198.094 87.103 188.729 79.4109 182.708C79.9688 180.004 80.2628 177.202 80.2628 174.333C80.2628 160.338 73.2876 147.974 62.6259 140.522C65.3761 135.587 66.9493 129.907 66.9493 123.857C66.9493 113.902 62.7023 104.941 55.9261 98.6773C56.81 95.7967 57.2877 92.7387 57.2877 89.5685C57.2877 77.7376 50.6642 67.4557 40.9254 62.222C43.6774 57.5886 45.2622 52.1815 45.2622 46.402C45.2622 42.2789 44.4512 38.3474 42.9915 34.7484C47.8447 29.0162 50.7778 21.6062 50.7778 13.507C50.7778 9.05144 49.8869 4.80524 48.2816 0.929686L35.9197 0.929685L15.2553 0.929684L15.2553 347.735L35.9197 347.735L48.1351 347.735C50.0967 343.488 51.2 338.763 51.2 333.778Z" fill="#F4F4F4"/>
<path d="M36.0863 333.778C36.0863 325.778 33.2641 318.439 28.5649 312.696C41.9113 309.579 51.8365 297.861 51.8365 283.873C51.8365 279.09 50.6694 274.575 48.609 270.575C61.371 267.545 70.8969 255.691 70.8969 241.517C70.8969 237.544 70.1426 233.756 68.784 230.29C73.8582 224.501 76.9404 216.922 76.9404 208.62C76.9404 198.094 71.9902 188.729 64.2976 182.708C64.8555 180.004 65.1499 177.202 65.1499 174.333C65.1499 160.338 58.1748 147.974 47.5131 140.522C50.2633 135.587 51.8365 129.907 51.8365 123.857C51.8365 113.902 47.5894 104.941 40.8132 98.6773C41.6967 95.7967 42.1749 92.7387 42.1749 89.5685C42.1749 77.7376 35.5513 67.4557 25.8122 62.222C28.5641 57.5886 30.1494 52.1815 30.1494 46.402C30.1494 42.2789 29.3383 38.3474 27.8783 34.7484C32.7318 29.0162 35.6645 21.6062 35.6645 13.507C35.6645 9.05144 34.7741 4.80524 33.1688 0.929686L20.8065 0.929685L0.14203 0.929684L0.142015 347.735L20.806 347.735L33.0214 347.735C34.9834 343.488 36.0863 338.763 36.0863 333.778Z" fill="white"/>
</svg>
