<svg version="1.2" xmlns="http://www.w3.org/2000/svg" viewBox="0 0 191 57" width="191" height="57"><defs><linearGradient id="P" gradientUnits="userSpaceOnUse"/><linearGradient id="g1" x2="1" href="#P" gradientTransform="matrix(-10.124,13.964,-13.964,-10.124,165.124,23.202)"><stop stop-color="#0b1e44"/><stop offset=".5" stop-color="#1a2a6c"/><stop offset="1" stop-color="#1b4965"/></linearGradient></defs><style>.a{fill:#fff}.b{fill:url(#g1)}</style><path class="a" d="m103.4 34.2c17.9 7.9 29.6 12.9 50.6 13.1 23.7 0.2 37-16.8 37-16.8 0 0-13-17.3-36.7-17.5-20.9-0.2-32.7 4.5-50.8 12.1z"/><path class="a" d="m129.6 12.8c-4.8 0.7-12.9 3.5-16.4 5.4 0 0-2.5-9.6-7-9.5l14.5-6c0 0-11 5.7 8.9 10.1z"/><path class="a" d="m129.2 46.7c-4.7-0.8-12.8-3.7-16.3-5.7 0 0-2.6 9.6-7.1 9.4l14.3 6.2c0 0-10.8-5.9 9.1-9.9z"/><path class="b" d="m160 38.8c-4.8 0-8.6-3.9-8.6-8.7 0.1-4.8 4-8.6 8.7-8.5 4.8 0 8.6 3.9 8.6 8.7-0.1 4.7-4 8.5-8.7 8.5z"/><path class="a" d="m106.1 27.6c0 0-42.6 3.3-105.5-27.2l5.5 54.9c0 0 22.6-21.1 99.1-23.6z"/></svg>