<svg width="70" height="83" viewBox="0 0 70 83" fill="none" xmlns="http://www.w3.org/2000/svg">
<path d="M48.1087 26.9616C46.2627 27.325 38.887 37.208 38.887 37.208L38.627 37.892C38.627 37.892 51.9711 36.4081 52.4543 35.8378C53.7591 34.2978 49.6254 26.6632 48.1087 26.9616ZM38.9804 37.4186C41.4154 34.3063 46.9633 29.7615 48.1624 28.7965C49.233 29.8888 50.8456 33.1121 51.0584 34.5685C49.5251 34.8841 42.8738 36.9479 38.9804 37.4186Z" fill="white"/>
<path d="M30.2345 28.649C26.6042 26.2806 25.6076 26.2989 24.5499 26.899C23.4922 27.4989 19.5915 33.0949 21.335 34.8403C23.0782 36.5857 36.9068 37.8303 36.9068 37.8303L37.2186 36.9847C37.2186 36.9847 33.8646 31.0169 30.2345 28.649ZM23.7379 34.2245C22.9317 33.4205 24.9388 30.07 25.854 29.357C26.0873 29.2254 35.3908 35.1456 36.6889 37.167C31.4965 36.6053 24.4891 34.8919 23.7379 34.2245Z" fill="white"/>
<path d="M37.0154 40.4525H37.7935C38.5649 40.4525 39.1899 39.8276 39.1899 39.0565V36.7674C39.1899 35.9961 38.565 35.3711 37.7935 35.3711H37.0154C36.2443 35.3711 35.6191 35.996 35.6191 36.7674V39.0565C35.6191 39.8275 36.2443 40.4525 37.0154 40.4525Z" fill="#F9E05C"/>
<path d="M66.5145 37.9345L3.25371 37.7451C1.57036 37.7401 0.279118 39.2383 0.531641 40.9035L1.51051 47.3589L4.68132 47.3524L6.59227 79.8381C6.69451 81.5765 8.13335 82.9339 9.87388 82.9339H60.3661L62.4663 47.2325L65.4533 47.2264L66.5145 37.9345Z" fill="#2DA981"/>
<path d="M61.4455 82.9339H22.6887L20.6133 38.6074H66.6605L64.7294 79.852C64.6487 81.5765 63.2024 82.9339 61.4455 82.9339Z" fill="#54C295"/>
<path d="M68.5649 47.248L18.5766 47.3806L17.4355 37.7627L66.4048 37.9503C68.0131 37.9563 69.2716 39.3377 69.1284 40.9395L68.5649 47.248Z" fill="#54C295"/>
<path d="M18.5742 47.3806L66.2525 47.248L20.0864 49.7686L18.5742 47.3806Z" fill="#2DA981"/>
<path d="M38.6586 37.8379H37.332V47.3371H38.6586V37.8379Z" fill="white"/>
<path d="M42.8378 47.293H41.1797V83.0009H42.8378V47.293Z" fill="white"/>
<path d="M2.80991 19.2075C7.22501 20.9211 10.8613 22.0743 14.488 23.0382C15.6839 23.3557 17.6644 24.2609 18.765 23.455C19.3372 23.0361 19.5773 22.4059 19.241 21.7351C18.6242 20.507 16.7192 20.4192 15.514 20.0981C11.841 19.1195 7.731 17.838 3.65281 16.302C2.88801 16.014 1.9936 16.5922 1.77851 17.3333C1.53362 18.1766 2.04621 18.9111 2.80991 19.2075Z" fill="#FFD19D"/>
<path d="M31.0732 12.4229C29.7704 2.44668 29.8556 2.42088 29.3026 1.47945C28.7358 0.514577 27.1846 0.64654 26.8782 1.76351C26.5758 2.8675 26.6449 2.69087 28.0547 13.1827C28.167 14.0171 29.1941 14.5008 29.9438 14.312C30.8389 14.0868 31.1827 13.2601 31.0732 12.4229Z" fill="#FFD19D"/>
<path d="M47.1158 13.7035C48.1028 12.3715 48.9364 10.9495 49.6181 9.43768C50.2514 8.03327 51.4118 5.96527 50.324 4.574C50.0903 4.27539 49.5403 4.13273 49.1874 4.25432C47.7121 4.76337 47.4307 6.83216 46.8413 8.12544C46.1978 9.53606 45.403 10.8782 44.5303 12.1579C44.0717 12.8302 44.3811 13.8238 45.0503 14.2235C45.8059 14.6755 46.6299 14.3592 47.1158 13.7035Z" fill="#FFD19D"/>
<path d="M69.3211 21.286C69.7678 20.6733 69.3926 19.8789 68.8683 19.4873C67.7883 18.6815 65.8831 19.425 64.7048 19.7499C63.3324 20.1283 62.0085 20.64 60.7156 21.2332C59.9695 21.5756 59.7637 22.6337 60.143 23.3038C60.5871 24.0886 61.4534 24.1929 62.2134 23.8764C67.1774 21.8093 68.2188 22.7983 69.3211 21.286Z" fill="#FFD19D"/>
</svg>
