<svg width="202" height="158" viewBox="0 0 202 158" fill="none" xmlns="http://www.w3.org/2000/svg">
<g clip-path="url(#clip0_2159_12032)">
<rect y="108" width="63" height="50" fill="white"/>
<g clip-path="url(#clip1_2159_12032)">
<mask id="mask0_2159_12032" style="mask-type:luminance" maskUnits="userSpaceOnUse" x="-55" y="-226" width="504" height="503">
<path d="M448.121 -41.9906L129.606 -225.758L-54.1607 92.757L264.354 276.524L448.121 -41.9906Z" fill="white"/>
</mask>
<g mask="url(#mask0_2159_12032)">
<path d="M-44.4276 10.1345C-54.6373 19.3049 -55.0476 35.0865 -46.2394 44.8928C-46.056 45.0971 -45.8548 45.2723 -45.6638 45.4699C-51.7926 54.5901 -51.4377 66.7555 -44.0358 74.9962C-38.2496 81.4382 -30.3935 85.9123 -22.2578 84.2299C-27.1072 95.6614 -24.6964 107.018 -16.1247 116.561C-4.69861 129.282 14.1006 134.144 27.927 123.389C27.5634 129.496 30.0164 133.891 33.4701 137.801C42.1971 147.679 58.8314 147.13 69.0401 137.961C79.2507 128.789 80.3843 113.407 71.5761 103.6C70.4176 102.31 69.1402 101.192 67.7795 100.223C79.4672 87.6114 80.1753 68.3578 68.9084 55.814C59.5901 45.4396 44.8303 42.7206 32.2057 47.9005C38.3462 36.0022 37.1095 21.3661 27.9457 11.1639C16.9331 -1.09681 -1.67569 -2.66 -15.3894 6.87096C-24.1568 2.0935 -36.3 2.83433 -44.4276 10.1345Z" fill="#219EBC"/>
</g>
<mask id="mask1_2159_12032" style="mask-type:luminance" maskUnits="userSpaceOnUse" x="-55" y="-226" width="504" height="503">
<path d="M448.121 -41.9906L129.606 -225.758L-54.1607 92.757L264.354 276.524L448.121 -41.9906Z" fill="white"/>
</mask>
<g mask="url(#mask1_2159_12032)">
<path d="M52.3741 98.9622C59.2323 87.0753 74.5871 83.4068 86.0045 89.9941C86.2421 90.1312 86.4553 90.2918 86.6882 90.4378C94.3422 82.5538 106.317 80.3826 115.912 85.9181C123.412 90.2454 129.416 97.005 129.454 105.313C139.634 98.202 151.244 98.2095 162.355 104.62C177.165 113.165 185.814 130.55 178.154 146.304C184.054 144.684 188.861 146.174 193.401 148.743C204.872 155.236 207.779 171.624 200.921 183.51C194.062 195.398 179.247 199.691 167.83 193.104C166.328 192.238 164.97 191.219 163.74 190.089C153.821 204.134 135.131 208.813 120.527 200.387C108.448 193.418 102.732 179.541 105.186 166.117C94.8171 174.588 80.2421 176.408 68.3638 169.555C54.0889 161.319 48.7073 143.437 55.1928 128.047C48.7036 120.459 46.9146 108.425 52.3741 98.9622Z" fill="#219EBC"/>
</g>
<mask id="mask2_2159_12032" style="mask-type:luminance" maskUnits="userSpaceOnUse" x="-55" y="-226" width="504" height="503">
<path d="M448.121 -41.9906L129.606 -225.758L-54.1607 92.757L264.354 276.524L448.121 -41.9906Z" fill="white"/>
</mask>
<g mask="url(#mask2_2159_12032)">
<path d="M335.444 230.548C331.928 243.814 318.063 251.364 305.322 247.986C305.057 247.916 304.809 247.817 304.546 247.737C299.216 257.346 288.224 262.568 277.516 259.73C269.146 257.511 261.586 252.554 259.38 244.544C251.41 254.066 240.201 257.09 227.802 253.804C211.274 249.422 198.386 234.898 201.667 217.691C196.394 220.795 191.365 220.612 186.311 219.317C173.543 216.045 166.458 200.985 169.974 187.72C173.491 174.454 186.671 166.441 199.412 169.819C201.088 170.263 202.665 170.891 204.148 171.661C210.055 155.513 226.875 146.117 243.173 150.437C256.652 154.01 265.793 165.914 266.929 179.513C274.727 168.628 288.321 163.066 301.577 166.58C317.507 170.803 327.371 186.659 325.129 203.208C333.374 208.839 338.244 219.988 335.444 230.548Z" fill="#219EBC"/>
</g>
<mask id="mask3_2159_12032" style="mask-type:luminance" maskUnits="userSpaceOnUse" x="-55" y="-226" width="504" height="503">
<path d="M448.121 -41.9906L129.606 -225.758L-54.1607 92.757L264.354 276.524L448.121 -41.9906Z" fill="white"/>
</mask>
<g mask="url(#mask3_2159_12032)">
<path d="M-56.619 32.2492C-66.8287 41.4196 -67.239 57.2012 -58.4308 67.0077C-58.2474 67.2118 -58.0462 67.387 -57.8553 67.5847C-63.984 76.705 -63.6291 88.8703 -56.2273 97.111C-50.441 103.553 -42.585 108.027 -34.4492 106.345C-39.2986 117.776 -36.8878 129.133 -28.3161 138.676C-16.8901 151.397 1.90912 156.259 15.7356 145.503C15.372 151.611 17.825 156.006 21.2786 159.915C30.0056 169.794 46.64 169.245 56.8487 160.076C67.0593 150.904 68.1928 135.521 59.3847 125.715C58.2261 124.425 56.9488 123.307 55.5881 122.338C67.2758 109.726 67.9839 90.4725 56.717 77.9287C47.3987 67.5544 32.6389 64.8353 20.0143 70.0152C26.1548 58.1169 24.9181 43.4809 15.7543 33.2786C4.7417 21.0179 -13.8671 19.4547 -27.5808 28.9857C-36.3482 24.2082 -48.4915 24.9491 -56.619 32.2492Z" fill="white"/>
</g>
<mask id="mask4_2159_12032" style="mask-type:luminance" maskUnits="userSpaceOnUse" x="-55" y="-226" width="504" height="503">
<path d="M448.121 -41.9906L129.606 -225.758L-54.1607 92.757L264.354 276.524L448.121 -41.9906Z" fill="white"/>
</mask>
<g mask="url(#mask4_2159_12032)">
<path d="M40.1827 121.08C47.0409 109.193 62.3956 105.525 73.8131 112.112C74.0507 112.249 74.2638 112.41 74.4968 112.555C82.1508 104.671 94.126 102.5 103.721 108.036C111.221 112.363 117.224 119.123 117.263 127.431C127.443 120.32 139.052 120.327 150.163 126.738C164.974 135.283 173.622 152.668 165.962 168.422C171.862 166.802 176.67 168.292 181.209 170.861C192.681 177.354 195.587 193.742 188.73 205.627C181.871 217.515 167.056 221.809 155.639 215.222C154.137 214.355 152.778 213.337 151.549 212.207C141.63 226.252 122.94 230.93 108.335 222.504C96.2566 215.536 90.5409 201.658 92.9951 188.235C82.6257 196.705 68.0507 198.526 56.1724 191.672C41.8975 183.436 36.5159 165.554 43.0014 150.165C36.5122 142.576 34.7232 130.543 40.1827 121.08Z" fill="white"/>
</g>
<mask id="mask5_2159_12032" style="mask-type:luminance" maskUnits="userSpaceOnUse" x="-55" y="-226" width="504" height="503">
<path d="M448.117 -41.9853L129.603 -225.752L-54.1646 92.7624L264.35 276.53L448.117 -41.9853Z" fill="white"/>
</mask>
<g mask="url(#mask5_2159_12032)">
<path d="M323.249 252.666C319.732 265.932 305.868 273.482 293.127 270.105C292.862 270.034 292.614 269.935 292.351 269.855C287.021 279.464 276.028 284.687 265.321 281.848C256.951 279.629 249.391 274.672 247.185 266.662C239.215 276.185 228.006 279.209 215.607 275.922C199.078 271.54 186.19 257.016 189.471 239.809C184.199 242.913 179.169 242.73 174.116 241.435C161.347 238.163 154.263 223.103 157.779 209.839C161.296 196.572 174.476 188.559 187.217 191.937C188.893 192.381 190.47 193.009 191.952 193.78C197.86 177.631 214.68 168.235 230.978 172.555C244.457 176.129 253.598 188.032 254.734 201.631C262.532 190.746 276.126 185.184 289.382 188.698C305.312 192.921 315.176 208.777 312.934 225.326C321.179 230.957 326.048 242.106 323.249 252.666Z" fill="white"/>
</g>
</g>
</g>
<defs>
<clipPath id="clip0_2159_12032">
<rect width="202" height="158" fill="white"/>
</clipPath>
<clipPath id="clip1_2159_12032">
<rect width="256.775" height="343.68" fill="white" transform="translate(117.626 -205) rotate(30)"/>
</clipPath>
</defs>
</svg>
