<svg width="18" height="20" viewBox="0 0 18 20" fill="none" xmlns="http://www.w3.org/2000/svg">
<path d="M15.875 6.875H13.125V4.8125C13.125 3.71848 12.6904 2.66927 11.9168 1.89568C11.1432 1.1221 10.094 0.6875 9 0.6875C7.90598 0.6875 6.85677 1.1221 6.08318 1.89568C5.3096 2.66927 4.875 3.71848 4.875 4.8125V6.875H2.125C1.76033 6.875 1.41059 7.01987 1.15273 7.27773C0.894866 7.53559 0.75 7.88533 0.75 8.25V17.875C0.75 18.2397 0.894866 18.5894 1.15273 18.8473C1.41059 19.1051 1.76033 19.25 2.125 19.25H15.875C16.2397 19.25 16.5894 19.1051 16.8473 18.8473C17.1051 18.5894 17.25 18.2397 17.25 17.875V8.25C17.25 7.88533 17.1051 7.53559 16.8473 7.27773C16.5894 7.01987 16.2397 6.875 15.875 6.875ZM9.6875 13.6323V15.8125C9.6875 15.9948 9.61507 16.1697 9.48614 16.2986C9.35721 16.4276 9.18234 16.5 9 16.5C8.81766 16.5 8.6428 16.4276 8.51386 16.2986C8.38493 16.1697 8.3125 15.9948 8.3125 15.8125V13.6323C7.85379 13.4701 7.46718 13.151 7.221 12.7313C6.97483 12.3117 6.88493 11.8185 6.9672 11.3389C7.04948 10.8594 7.29862 10.4244 7.67061 10.1108C8.04259 9.79722 8.51346 9.62522 9 9.62522C9.48654 9.62522 9.95741 9.79722 10.3294 10.1108C10.7014 10.4244 10.9505 10.8594 11.0328 11.3389C11.1151 11.8185 11.0252 12.3117 10.779 12.7313C10.5328 13.151 10.1462 13.4701 9.6875 13.6323ZM11.75 6.875H6.25V4.8125C6.25 4.08315 6.53973 3.38368 7.05546 2.86796C7.57118 2.35223 8.27065 2.0625 9 2.0625C9.72935 2.0625 10.4288 2.35223 10.9445 2.86796C11.4603 3.38368 11.75 4.08315 11.75 4.8125V6.875Z" fill="white"/>
</svg>
