<svg width="119" height="34" viewBox="0 0 119 34" fill="none" xmlns="http://www.w3.org/2000/svg">
<path d="M101.191 33.0608C100.96 32.9649 100.762 32.8025 100.622 32.5941C100.483 32.3857 100.409 32.1406 100.409 31.89V23.5555H2.53491C1.86261 23.5555 1.21784 23.2884 0.742457 22.813C0.26707 22.3376 0 21.6929 0 21.0206V12.3405C0 11.6682 0.26707 11.0234 0.742457 10.548C1.21784 10.0726 1.86261 9.80557 2.53491 9.80557H100.409V1.47109C100.409 1.22026 100.483 0.975022 100.622 0.766407C100.761 0.557792 100.959 0.395185 101.191 0.299172C101.423 0.20316 101.678 0.178058 101.924 0.227046C102.17 0.276033 102.396 0.396907 102.573 0.574365L117.782 15.7838C117.9 15.9015 117.994 16.0413 118.057 16.1952C118.121 16.349 118.154 16.514 118.154 16.6805C118.154 16.8471 118.121 17.012 118.057 17.1659C117.994 17.3198 117.9 17.4595 117.782 17.5772L102.573 32.7867C102.396 32.9639 102.17 33.0845 101.924 33.1333C101.678 33.1821 101.423 33.1568 101.191 33.0608Z" fill="#219EBC"/>
</svg>
