<svg width="102" height="98" viewBox="0 0 102 98" fill="none" xmlns="http://www.w3.org/2000/svg">
<path d="M45.4117 92.4004H1.47656V95.3232H45.4117V92.4004Z" fill="#EDBF2F"/>
<path d="M65.4077 97.9996C85.6171 97.9996 102 95.9192 102 93.3528C102 90.7865 85.6171 88.7061 65.4077 88.7061C45.1984 88.7061 28.8154 90.7865 28.8154 93.3528C28.8154 95.9192 45.1984 97.9996 65.4077 97.9996Z" fill="#EDBF2F"/>
<path d="M99.1575 69.9164C99.1575 89.0905 84.6278 95.5771 66.7042 95.5771C48.7807 95.5771 34.251 89.0902 34.251 69.9164C34.251 50.7427 48.7807 23.339 66.7042 23.339C84.6278 23.339 99.1575 50.7427 99.1575 69.9164Z" fill="#67D39D"/>
<path d="M58.1513 25.4219C55.2801 22.6019 52.5342 19.6322 49.9366 16.5595C48.0834 14.3674 46.2545 12.0999 44.792 9.62217C43.9832 8.2515 42.6149 6.56313 43.4481 4.8935C44.4208 2.94443 47.0717 3.33467 48.6653 4.18501C50.3694 5.09424 51.3261 7.37359 53.5508 6.95016C54.4491 6.77913 55.3543 6.50238 55.7509 5.58967C56.7097 3.38365 57.31 1.14632 60.2149 1.01891C63.1425 0.89044 62.9795 4.61728 65.4112 5.22512C66.8742 5.59074 68.1094 3.13393 68.8074 2.22631C70.1473 0.484673 71.9998 -0.976994 74.0634 0.824864C76.6123 3.05042 75.7627 7.89392 75.3053 10.8122C74.7647 14.2606 73.8843 17.6569 72.8822 20.9975C72.7894 21.3072 71.7369 25.4213 71.4489 25.4213C71.4484 25.4219 58.1513 25.4219 58.1513 25.4219Z" fill="#67D39D"/>
<path d="M71.9935 24.1372C71.9624 24.2352 71.9319 24.3302 71.9019 24.4212C82.5233 33.5975 89.8135 51.304 89.8135 64.8846C89.8135 84.0586 75.2835 90.5453 57.3602 90.5453C51.7162 90.5453 46.4093 89.9013 41.7861 88.4211C47.7393 93.551 56.6916 95.5767 66.7043 95.5767C84.6279 95.5767 99.1576 89.0897 99.1576 69.916C99.1576 52.6693 87.4008 28.7682 71.9935 24.1372Z" fill="#49C98F"/>
<path d="M80.0602 62.6915C80.0602 75.3406 70.4749 79.6199 58.6507 79.6199C46.8265 79.6199 37.2412 75.3406 37.2412 62.6915C37.2412 50.0424 46.8265 31.9644 58.6507 31.9644C70.4749 31.9644 80.0602 50.0424 80.0602 62.6915Z" fill="#81E2AF"/>
<path d="M45.6466 4.18488C47.3507 5.0941 48.3073 7.37346 50.5321 6.95003C50.925 6.87535 51.319 6.78033 51.6715 6.62081C50.6041 6.00306 49.8003 4.79058 48.6655 4.18488C47.5244 3.57596 45.8412 3.20338 44.6201 3.75636C44.9887 3.87306 45.3377 4.02027 45.6466 4.18488Z" fill="#49C98F"/>
<path d="M62.3911 5.22546C63.0255 5.38418 63.617 5.0116 64.1405 4.46505C62.9048 3.18726 62.5089 0.918341 60.2138 1.01925C59.5968 1.04628 59.0848 1.1694 58.6504 1.36613C60.1626 2.28606 60.4565 4.7418 62.3911 5.22546Z" fill="#49C98F"/>
<path d="M74.0621 0.825151C72.8078 -0.270096 71.6317 -0.158483 70.6013 0.487637C70.7474 0.584529 70.8946 0.695605 71.0432 0.825151C73.5921 3.05071 72.7428 7.89421 72.2851 10.8125C71.7444 14.2609 70.8641 17.6572 69.862 20.9978C69.7691 21.3075 68.7167 25.4216 68.4287 25.4216C70.18 25.4216 71.4476 25.4216 71.4476 25.4216C71.7359 25.4216 72.788 21.3075 72.8809 20.9978C73.883 17.6572 74.7636 14.2609 75.304 10.8125C75.7614 7.89421 76.6109 3.05071 74.0621 0.825151Z" fill="#49C98F"/>
<path d="M73.733 22.7054C73.6206 21.9611 72.9196 21.4437 72.1752 21.5561L56.1764 23.9704C55.432 24.0828 54.9147 24.7838 55.0271 25.5281C55.1395 26.2725 55.8405 26.7899 56.5848 26.6774L72.5837 24.2632C73.328 24.151 73.8454 23.4501 73.733 22.7054Z" fill="#53A481"/>
<path d="M74.7046 24.768C74.5975 24.0584 73.9294 23.5654 73.2199 23.6724L54.447 26.5053C53.7375 26.6124 53.2445 27.2804 53.3515 27.9903C53.4586 28.6998 54.1269 29.1928 54.8365 29.0858L73.6093 26.2529C74.3186 26.1459 74.8116 25.4775 74.7046 24.768Z" fill="#53A481"/>
<path d="M55.4893 26.359C55.4893 26.359 63.7933 23.8128 73.435 23.6509L55.4893 26.359Z" fill="#3D996F"/>
<path d="M67.5777 49.327L47.9797 46.1606C47.5107 46.0849 47.1922 45.6435 47.268 45.1746L47.5892 43.1867C47.6649 42.7178 48.1065 42.3993 48.5752 42.475L68.1732 45.6411C68.6422 45.7169 68.9607 46.1582 68.8849 46.6272L68.5637 48.615C68.488 49.084 68.0466 49.4025 67.5777 49.327Z" fill="#E27F07"/>
<path d="M66.0029 57.337L46.9501 54.259C46.3308 54.1589 45.9097 53.5757 46.0098 52.9563L46.243 51.5137C46.3431 50.8943 46.9263 50.4733 47.5456 50.5731L66.5984 53.6512C67.2178 53.7513 67.6388 54.3345 67.539 54.9541L67.3059 56.3968C67.2055 57.0161 66.6223 57.4371 66.0029 57.337Z" fill="#E27F07"/>
<path d="M44.6222 61.6732L45.0681 58.6987C45.1117 58.4075 45.3807 58.2054 45.6728 58.2429C49.2524 58.7035 51.9399 58.245 53.4661 56.9084C55.277 55.3222 56.1095 50.9921 54.6737 48.9801C53.0493 46.7037 48.833 46.1649 47.5241 46.0512C47.3121 46.0327 47.1609 45.8384 47.1949 45.6283L47.6826 42.6105C47.9751 42.619 54.6938 42.5802 57.7132 46.8116C59.1663 48.8482 59.4763 51.3505 58.6359 54.2516C58.5641 55.5926 57.9381 57.9552 55.9258 59.7174C53.4709 61.8675 49.7229 62.5979 44.7839 61.8897C44.6795 61.8753 44.6067 61.7776 44.6222 61.6732Z" fill="#E27F07"/>
<path d="M53.8893 73.9915L44.7556 61.9114C44.6742 61.8038 44.6817 61.6537 44.773 61.5547L47.3757 58.729C47.4932 58.6016 47.6971 58.611 47.8021 58.7488L59.8749 74.5758C60.028 74.7766 59.8567 75.0611 59.6078 75.0196L54.066 74.0981C53.9956 74.0866 53.9324 74.0483 53.8893 73.9915Z" fill="#E27F07"/>
<path d="M64.3799 27.6455C64.3799 27.6455 70.1543 43.7164 67.6745 48.2446L70.4715 45.9805C70.4715 45.9805 69.7515 38.0838 65.8557 27.4229L64.3799 27.6455Z" fill="#53A481"/>
<path d="M64.3799 27.6454C64.3799 27.6454 73.9277 35.522 74.2513 41.3443L75.816 39.0802C75.816 39.0802 74.0645 34.7415 65.856 27.423L64.3799 27.6454Z" fill="#53A481"/>
<path d="M64.3799 27.6455C64.3799 27.6455 65.4283 29.1626 66.7039 29.7458L64.3799 27.6455Z" fill="#3D996F"/>
<path d="M42.8878 65.0435H6.50586V65.5657H42.8878V65.0435Z" fill="#53A481" stroke="#48826A" stroke-miterlimit="10"/>
<path d="M42.8878 65.5654H6.50586V66.0876H42.8878V65.5654Z" fill="#53A481" stroke="#48826A" stroke-miterlimit="10"/>
<path d="M42.8878 66.0874H6.50586V66.6096H42.8878V66.0874Z" fill="#53A481" stroke="#48826A" stroke-miterlimit="10"/>
<path d="M42.8878 66.6096H6.50586V67.1318H42.8878V66.6096Z" fill="#53A481" stroke="#48826A" stroke-miterlimit="10"/>
<path d="M42.8878 67.1316H6.50586V67.6538H42.8878V67.1316Z" fill="#53A481" stroke="#48826A" stroke-miterlimit="10"/>
<path d="M42.8878 67.6541H6.50586V68.1762H42.8878V67.6541Z" fill="#53A481" stroke="#48826A" stroke-miterlimit="10"/>
<path d="M42.8878 68.1758H6.50586V68.698H42.8878V68.1758Z" fill="#53A481" stroke="#48826A" stroke-miterlimit="10"/>
<path d="M42.8878 68.6982H6.50586V69.2204H42.8878V68.6982Z" fill="#53A481" stroke="#48826A" stroke-miterlimit="10"/>
<path d="M42.8878 69.2202H6.50586V69.7424H42.8878V69.2202Z" fill="#53A481" stroke="#48826A" stroke-miterlimit="10"/>
<path d="M42.8878 69.7419H6.50586V70.2641H42.8878V69.7419Z" fill="#53A481" stroke="#48826A" stroke-miterlimit="10"/>
<path d="M42.8878 70.2644H6.50586V70.7866H42.8878V70.2644Z" fill="#53A481" stroke="#48826A" stroke-miterlimit="10"/>
<path d="M42.8878 70.7866H6.50586V71.3088H42.8878V70.7866Z" fill="#53A481" stroke="#48826A" stroke-miterlimit="10"/>
<path d="M42.8878 71.3086H6.50586V71.8308H42.8878V71.3086Z" fill="#53A481" stroke="#48826A" stroke-miterlimit="10"/>
<path d="M42.8878 71.8308H6.50586V72.353H42.8878V71.8308Z" fill="#53A481" stroke="#48826A" stroke-miterlimit="10"/>
<path d="M42.8878 72.3525H6.50586V72.8747H42.8878V72.3525Z" fill="#53A481" stroke="#48826A" stroke-miterlimit="10"/>
<path d="M42.8878 72.8748H6.50586V73.397H42.8878V72.8748Z" fill="#53A481" stroke="#48826A" stroke-miterlimit="10"/>
<path d="M42.8878 73.397H6.50586V73.9192H42.8878V73.397Z" fill="#53A481" stroke="#48826A" stroke-miterlimit="10"/>
<path d="M42.8878 73.9189H6.50586V74.4411H42.8878V73.9189Z" fill="#53A481" stroke="#48826A" stroke-miterlimit="10"/>
<path d="M29.9449 65.0435H19.8818V74.4676H29.9449V65.0435Z" fill="#F5F8A9"/>
<path d="M26.4787 67.8482L23.3447 67.8667C23.1635 67.8677 23.0157 67.7219 23.0147 67.5407C23.0136 67.3595 23.1595 67.2117 23.3407 67.2106L26.4744 67.1919C26.6556 67.1908 26.8033 67.3367 26.8044 67.5179C26.8057 67.6994 26.6596 67.8471 26.4787 67.8482Z" fill="#BC6E00"/>
<path d="M26.4865 69.2815L23.3525 69.3C23.1713 69.3011 23.0235 69.1552 23.0225 68.974C23.0214 68.7928 23.1673 68.6451 23.3485 68.644L26.4825 68.6252C26.6637 68.6242 26.8114 68.77 26.8125 68.9513C26.8135 69.1327 26.6677 69.2805 26.4865 69.2815Z" fill="#BC6E00"/>
<path d="M23.0372 70.6534L23.0281 70.125C23.0273 70.0734 23.068 70.0306 23.1197 70.0284C23.7532 70.0043 24.2055 69.8467 24.4312 69.5707C24.6988 69.2434 24.7173 68.4688 24.41 68.1621C24.0623 67.8149 23.3164 67.8438 23.0862 67.8623C23.049 67.8652 23.0172 67.836 23.0169 67.7986L23.0137 67.2614C23.0645 67.2544 24.2275 67.0524 24.8736 67.6979C25.1846 68.0087 25.311 68.4332 25.2497 68.9602C25.2762 69.1947 25.2363 69.6221 24.9389 69.9861C24.576 70.4299 23.9478 70.6654 23.0715 70.686C23.053 70.6866 23.0375 70.6719 23.0372 70.6534Z" fill="#BC6E00"/>
<path d="M24.9996 72.5184L23.0661 70.6905C23.0489 70.6742 23.0457 70.648 23.0588 70.6282L23.4277 70.0629C23.4443 70.0375 23.4799 70.0332 23.5021 70.0541L26.0536 72.4456C26.086 72.4758 26.0646 72.5302 26.0202 72.5302L25.0331 72.5315C25.0208 72.5318 25.0087 72.5269 24.9996 72.5184Z" fill="#BC6E00"/>
<path d="M37.6426 74.6362H1.26074V75.1584H37.6426V74.6362Z" fill="#53A481" stroke="#48826A" stroke-miterlimit="10"/>
<path d="M37.6426 75.1584H1.26074V75.6806H37.6426V75.1584Z" fill="#53A481" stroke="#48826A" stroke-miterlimit="10"/>
<path d="M37.6426 75.6802H1.26074V76.2024H37.6426V75.6802Z" fill="#53A481" stroke="#48826A" stroke-miterlimit="10"/>
<path d="M37.6426 76.2026H1.26074V76.7248H37.6426V76.2026Z" fill="#53A481" stroke="#48826A" stroke-miterlimit="10"/>
<path d="M37.6426 76.7244H1.26074V77.2466H37.6426V76.7244Z" fill="#53A481" stroke="#48826A" stroke-miterlimit="10"/>
<path d="M37.6426 77.2468H1.26074V77.769H37.6426V77.2468Z" fill="#53A481" stroke="#48826A" stroke-miterlimit="10"/>
<path d="M37.6426 77.7688H1.26074V78.291H37.6426V77.7688Z" fill="#53A481" stroke="#48826A" stroke-miterlimit="10"/>
<path d="M37.6426 78.291H1.26074V78.8132H37.6426V78.291Z" fill="#53A481" stroke="#48826A" stroke-miterlimit="10"/>
<path d="M37.6426 78.813H1.26074V79.3352H37.6426V78.813Z" fill="#53A481" stroke="#48826A" stroke-miterlimit="10"/>
<path d="M37.6426 79.3347H1.26074V79.8569H37.6426V79.3347Z" fill="#53A481" stroke="#48826A" stroke-miterlimit="10"/>
<path d="M37.6426 79.8569H1.26074V80.3791H37.6426V79.8569Z" fill="#53A481" stroke="#48826A" stroke-miterlimit="10"/>
<path d="M37.6426 80.3794H1.26074V80.9016H37.6426V80.3794Z" fill="#53A481" stroke="#48826A" stroke-miterlimit="10"/>
<path d="M37.6426 80.9014H1.26074V81.4236H37.6426V80.9014Z" fill="#53A481" stroke="#48826A" stroke-miterlimit="10"/>
<path d="M37.6426 81.4236H1.26074V81.9458H37.6426V81.4236Z" fill="#53A481" stroke="#48826A" stroke-miterlimit="10"/>
<path d="M37.6426 81.9456H1.26074V82.4677H37.6426V81.9456Z" fill="#53A481" stroke="#48826A" stroke-miterlimit="10"/>
<path d="M37.6426 82.4675H1.26074V82.9897H37.6426V82.4675Z" fill="#53A481" stroke="#48826A" stroke-miterlimit="10"/>
<path d="M37.6426 82.9897H1.26074V83.5119H37.6426V82.9897Z" fill="#53A481" stroke="#48826A" stroke-miterlimit="10"/>
<path d="M37.6426 83.512H1.26074V84.0342H37.6426V83.512Z" fill="#53A481" stroke="#48826A" stroke-miterlimit="10"/>
<path d="M24.6988 74.6362H14.6357V84.0604H24.6988V74.6362Z" fill="#F5F8A9"/>
<path d="M21.2316 77.4412L18.0976 77.4597C17.9164 77.4607 17.7687 77.3149 17.7676 77.1337C17.7665 76.9524 17.9124 76.805 18.0936 76.8039L21.2276 76.7852C21.4088 76.7841 21.5565 76.93 21.5576 77.1112C21.5587 77.2924 21.4125 77.4401 21.2316 77.4412Z" fill="#BC6E00"/>
<path d="M21.2413 78.8748L18.1074 78.8933C17.9262 78.8943 17.7784 78.7484 17.7773 78.5672C17.7763 78.386 17.9221 78.2386 18.1034 78.2372L21.2373 78.2188C21.4185 78.2177 21.5663 78.3636 21.5674 78.5448C21.5684 78.726 21.4223 78.8737 21.2413 78.8748Z" fill="#BC6E00"/>
<path d="M17.7902 80.2464L17.7811 79.718C17.7803 79.6664 17.8209 79.6236 17.8726 79.6214C18.5061 79.5973 18.9585 79.4397 19.1841 79.1637C19.4518 78.8364 19.4702 78.0618 19.163 77.755C18.8153 77.4079 18.0691 77.4368 17.8391 77.4553C17.8019 77.4582 17.7701 77.429 17.7698 77.3916L17.7666 76.8547C17.8175 76.8477 18.9804 76.6456 19.6265 77.2912C19.9376 77.6019 20.0639 78.0264 20.0026 78.5535C20.0291 78.7879 19.9892 79.2154 19.6918 79.5791C19.3289 80.0229 18.7007 80.2584 17.8244 80.2793C17.8059 80.2796 17.7904 80.2649 17.7902 80.2464Z" fill="#BC6E00"/>
<path d="M19.7526 82.1117L17.8191 80.2839C17.8019 80.2675 17.7987 80.2413 17.8116 80.2215L18.1804 79.6562C18.197 79.6308 18.2326 79.6265 18.2548 79.6471L20.8064 82.0386C20.8387 82.0689 20.8173 82.1232 20.7729 82.1232L19.7858 82.1245C19.774 82.1251 19.762 82.1202 19.7526 82.1117Z" fill="#BC6E00"/>
<path d="M44.1807 84.0337H7.79883V84.5559H44.1807V84.0337Z" fill="#53A481" stroke="#48826A" stroke-miterlimit="10"/>
<path d="M44.1807 84.5554H7.79883V85.0776H44.1807V84.5554Z" fill="#53A481" stroke="#48826A" stroke-miterlimit="10"/>
<path d="M44.1807 85.0774H7.79883V85.5996H44.1807V85.0774Z" fill="#53A481" stroke="#48826A" stroke-miterlimit="10"/>
<path d="M44.1807 85.5996H7.79883V86.1218H44.1807V85.5996Z" fill="#53A481" stroke="#48826A" stroke-miterlimit="10"/>
<path d="M44.1807 86.1218H7.79883V86.644H44.1807V86.1218Z" fill="#53A481" stroke="#48826A" stroke-miterlimit="10"/>
<path d="M44.1807 86.6438H7.79883V87.166H44.1807V86.6438Z" fill="#53A481" stroke="#48826A" stroke-miterlimit="10"/>
<path d="M44.1807 87.166H7.79883V87.6882H44.1807V87.166Z" fill="#53A481" stroke="#48826A" stroke-miterlimit="10"/>
<path d="M44.1807 87.6877H7.79883V88.2099H44.1807V87.6877Z" fill="#53A481" stroke="#48826A" stroke-miterlimit="10"/>
<path d="M44.1807 88.21H7.79883V88.7322H44.1807V88.21Z" fill="#53A481" stroke="#48826A" stroke-miterlimit="10"/>
<path d="M44.1807 88.7324H7.79883V89.2546H44.1807V88.7324Z" fill="#53A481" stroke="#48826A" stroke-miterlimit="10"/>
<path d="M44.1807 89.2542H7.79883V89.7764H44.1807V89.2542Z" fill="#53A481" stroke="#48826A" stroke-miterlimit="10"/>
<path d="M44.1807 89.7761H7.79883V90.2983H44.1807V89.7761Z" fill="#53A481" stroke="#48826A" stroke-miterlimit="10"/>
<path d="M44.1807 90.2986H7.79883V90.8208H44.1807V90.2986Z" fill="#53A481" stroke="#48826A" stroke-miterlimit="10"/>
<path d="M44.1807 90.8206H7.79883V91.3427H44.1807V90.8206Z" fill="#53A481" stroke="#48826A" stroke-miterlimit="10"/>
<path d="M44.1807 91.3425H7.79883V91.8647H44.1807V91.3425Z" fill="#53A481" stroke="#48826A" stroke-miterlimit="10"/>
<path d="M44.1807 91.8645H7.79883V92.3867H44.1807V91.8645Z" fill="#53A481" stroke="#48826A" stroke-miterlimit="10"/>
<path d="M44.1807 92.3867H7.79883V92.9089H44.1807V92.3867Z" fill="#53A481" stroke="#48826A" stroke-miterlimit="10"/>
<path d="M44.1807 92.9089H7.79883V93.4311H44.1807V92.9089Z" fill="#53A481" stroke="#48826A" stroke-miterlimit="10"/>
<path d="M31.2359 84.0337H21.1729V93.4578H31.2359V84.0337Z" fill="#F5F8A9"/>
<path d="M27.7697 86.8387L24.6357 86.8571C24.4545 86.8582 24.3067 86.7123 24.3057 86.5311C24.3046 86.3499 24.4505 86.2022 24.6317 86.2011L27.7657 86.1824C27.9469 86.1813 28.0946 86.3272 28.0957 86.5084C28.0967 86.6901 27.9509 86.8376 27.7697 86.8387Z" fill="#BC6E00"/>
<path d="M27.7785 88.272L24.6445 88.2907C24.4633 88.2918 24.3155 88.1459 24.3145 87.9647C24.3134 87.7835 24.4593 87.636 24.6405 87.635L27.7744 87.6162C27.9556 87.6151 28.1034 87.761 28.1045 87.9422C28.1055 88.1234 27.9597 88.2709 27.7785 88.272Z" fill="#BC6E00"/>
<path d="M24.3282 89.6434L24.3191 89.115C24.3183 89.0634 24.359 89.0206 24.4107 89.0184C25.0442 88.9943 25.4966 88.8367 25.7222 88.5607C25.9898 88.2334 26.0083 87.4588 25.701 87.152C25.3534 86.8049 24.6074 86.8341 24.3772 86.8523C24.34 86.8552 24.3082 86.826 24.3079 86.7886L24.3047 86.2514C24.3555 86.2444 25.5185 86.0423 26.1646 86.6879C26.4756 86.9987 26.602 87.4232 26.5407 87.9502C26.5672 88.1847 26.5273 88.6121 26.2299 88.9759C25.867 89.4196 25.2388 89.6552 24.3625 89.676C24.344 89.6768 24.3288 89.6619 24.3282 89.6434Z" fill="#BC6E00"/>
<path d="M26.2907 91.5084L24.3571 89.6805C24.34 89.6642 24.3368 89.638 24.3496 89.6182L24.7185 89.0529C24.7351 89.0275 24.7707 89.0232 24.7929 89.0441L27.3444 91.4356C27.3768 91.4658 27.3554 91.5201 27.311 91.5201L26.3239 91.5215C26.3118 91.5217 26.2998 91.5172 26.2907 91.5084Z" fill="#BC6E00"/>
</svg>
