<svg version="1.2" xmlns="http://www.w3.org/2000/svg" viewBox="0 0 159 239" width="159" height="239"><style>.a{fill:#219ebc}.b{fill:#fff}.c{fill:#fb8500}.d{fill:#ffb703}.e{fill:#fff;stroke:#fb8500;stroke-miterlimit:10;stroke-width:2.3}.f{fill:#fb8500;stroke:#fb8500;stroke-miterlimit:10;stroke-width:2.3}.g{fill:#459ebd;stroke:#023047;stroke-miterlimit:10;stroke-width:2.3}</style><path class="a" d="m37.2 239l-37-21.7 52.1-68.5 10.2-13.3 34.3-44.7 1.7 0.6q0 0 0 0l1.3 0.4-0.1 0.2-0.7 1.8-56.7 133.4z"/><path class="b" d="m33.6 236.9l-29.8-17.2 33.6-44.2 9.8-12.7 32.8-42.7 1.5 0.5q0 0 0 0l0.1 0.1 1.2 0.4-0.1 0.1-0.7 1.8z"/><path class="c" d="m70.5 141.2c5.3-3.7 4.9-10.6 4.6-15.8-0.1-3-0.4-6.1 0.7-9.2 0.6-1.5 1.4-2.9 2.5-4.1 0.3-0.4 2.7-3 3.4-2.6-1.6-1-5.1 3-6.3 4.4-1.3 1.6-3.5 4.9-3.5 7-1-1.8-0.3-5.9 0-8 0.5-3.2 1.5-7.6 2.9-10.8 3.1-7 9.8-11.6 16.4-12.1 13.2-1.1 22.4 14.3 13.7 28-2.3 3.7-5.6 6.5-9.3 8-3.5 1.6-8.7 2.6-9.6 7.6-1.4-2.4 0.8-8.6 2.9-11.1 1-1.2 2.1-2.3 3.4-3.1 1.2-0.7 2.1-1.1 3.2-1.6-1.4 0-0.7-0.1-2.2 0.2-1.2 0.3-3 1.3-4.3 2.2-2.3 1.5-5.8 6.2-6.9 8.8-2.4 5.7-5.4 11.5-11.6 12.2z"/><path class="d" d="m80.7 127c0.3-4.2 4.4-6.2 7.4-7.8 1.8-0.9 3.6-1.8 5-3.4q1-1.3 1.5-2.8c0.2-0.3 0.8-2.5 0.4-2.7 1.1 0.6 0 3.8-0.5 5-0.4 1.3-1.6 3.5-2.8 4.3 1.4-0.1 3.5-1.8 4.5-2.7 1.7-1.3 3.9-3.3 5.2-5.2 3-4 3.4-9.3 1.6-13.2-3.7-7.9-15.5-8.1-20.5 1.4-1.3 2.5-1.8 5.3-1.5 7.9 0.3 2.5 1.4 5.8-1.1 7.9 1.8 0 4.6-3.3 5.3-5.3 0.4-0.9 0.7-1.9 0.7-2.9 0-0.9-0.1-1.6-0.1-2.3 0.4 0.7 0.2 0.3 0.6 1.3 0.2 0.7 0.2 2.1 0.1 3.1-0.1 1.8-1.6 5.3-2.7 6.8-2.4 3.2-4.7 6.8-3.1 10.6z"/><path class="b" d="m130.3 36.7c0.9-0.3 1.5-0.9 1.4-1.4-0.2-0.6-1-0.8-2-0.5-0.9 0.2-1.5 0.8-1.4 1.4 0.2 0.5 1 0.7 2 0.5z"/><path class="c" d="m129.1 71.8c0 0 3.9 9.2 3.8 17.7-0.2 10.9-7.2 27.6-9.3 27.6-2.1 0-0.8-7.4-2.3-12.9-2.3-9-7.3-11-7.3-11z"/><path class="d" d="m110.3 100.3l-21.5-12.9-2.2 3.6 21.5 13z"/><path class="c" d="m105.1 57.1c0 0-9.8 1.6-17 6.2-9.1 5.9-19.5 20.7-18.4 22.5 1.1 1.7 6.7-3.2 12-4.9 8.9-2.8 13.3 0.3 13.3 0.3z"/><path class="e" d="m107.7 37.2c-16 26.6-19.4 46.1-20.3 49.7l24.1 14.5c2.8-2.5 18.5-14.5 34.5-41.1 7.1-11.7 10.4-24.8 11.3-36.1l-23-13.9c-9.5 6.1-19.5 15.1-26.6 26.9z"/><path class="f" d="m151.5 2c-4.8 1.5-10.9 4.3-17.2 8.3l2.6 2.6c4.6 4.5 10.3 8 16.5 10l3.9 1.3c0.7-7.5 0.3-14.1-0.6-19-0.4-2.5-2.9-3.9-5.2-3.2z"/><path class="c" d="m110.9 75.3c-1.6-1-4.1 0.7-6 3.8-1.9 3.2-12.8 22.1-10.5 23.5q0 0 0 0 0 0 0 0c2.4 1.4 14-17 15.9-20.2 1.9-3.1 2.2-6.1 0.6-7.1z"/><path class="g" d="m136.5 32.7c-4.6-2.7-10.5-1.2-13.2 3.3-2.8 4.6-1.3 10.5 3.2 13.2 4.6 2.8 10.5 1.3 13.3-3.2 2.7-4.6 1.3-10.5-3.3-13.3z"/></svg>