<svg width="99" height="103" viewBox="0 0 99 103" fill="none" xmlns="http://www.w3.org/2000/svg">
<path fill-rule="evenodd" clip-rule="evenodd" d="M10.3685 68.083L2.72656 59.3506L23.468 60.441L10.3685 68.083Z" fill="url(#paint0_linear_2202_11895)"/>
<path fill-rule="evenodd" clip-rule="evenodd" d="M85.077 66.6663L85.0682 66.6752L78.5308 78.5404L66.8379 80.5685L59.6683 88.191L59.7518 88.2105L56.7877 91.2545C56.7877 91.2545 53.71 92.9097 53.2287 93.0553C52.7474 93.1992 49.7496 102.507 49.7496 102.507L42.12 101.953L40.749 99.8395L40.3068 98.7118L25.5858 94.8899L14.5447 92.0217L13.8272 89.4501L13.5892 89.443L12.0778 89.3968L9.06937 82.8791L8.64491 81.9609L6.90625 76.3311L31.4252 66.8421H31.4607L31.4696 66.7906H32.6027L66.2163 66.7604V66.7675L66.2465 66.7604L66.2554 66.7586L66.8095 66.6396L66.9178 66.6414L83.7309 66.6769L85.077 66.6663Z" fill="url(#paint1_linear_2202_11895)"/>
<path fill-rule="evenodd" clip-rule="evenodd" d="M85.077 65.8926L85.0682 65.9015L78.5308 77.7667L66.8379 79.7948L59.6683 87.4172L56.7877 90.479C56.7877 90.479 53.71 92.1342 53.2287 92.2798C52.7474 92.4237 49.7496 101.732 49.7496 101.732L42.12 101.177L40.749 99.064L40.3068 97.9363L25.5858 94.1144L14.5447 91.2462L13.8272 88.6746L13.5892 88.6675L12.0778 88.6214L9.06937 82.1036L8.64491 81.1854L6.90625 75.5556L31.4252 66.0666H31.4607L32.5991 66.0577L32.6062 66.0595L66.1666 66.0009H66.2128L66.2483 65.9991L66.8965 65.9956L83.8836 65.9015L85.077 65.8926Z" fill="url(#paint2_linear_2202_11895)"/>
<path opacity="0.4" fill-rule="evenodd" clip-rule="evenodd" d="M31.427 66.0627L31.1695 66.7163L29.8251 75.0491L29.152 79.2138L8.64492 81.1815L6.90625 75.5517L31.427 66.0627Z" fill="#B33051"/>
<path opacity="0.4" fill-rule="evenodd" clip-rule="evenodd" d="M23.5196 82.7567L23.056 87.4168L13.9365 88.4167L12.0788 88.6174L9.07031 82.0996L23.5196 82.7567Z" fill="#B33051"/>
<path opacity="0.4" fill-rule="evenodd" clip-rule="evenodd" d="M66.2152 65.9814V65.9868L66.2134 65.9974L61.3295 79.2532L61.278 79.2958L50.0042 88.355L32.8982 85.0677L32.6051 66.056L32.6033 66.0205L32.6016 66.0116H32.6033L66.2152 65.9814Z" fill="#B33051"/>
<path opacity="0.4" fill-rule="evenodd" clip-rule="evenodd" d="M66.9174 65.8602L66.8979 65.9792L66.255 65.9809H66.2461L66.255 65.9792L66.8091 65.8584L66.9174 65.8602Z" fill="#B33051"/>
<path opacity="0.4" fill-rule="evenodd" clip-rule="evenodd" d="M85.0754 65.8926L85.0665 65.9015L78.5292 77.7667L62.1797 79.2816L66.8966 65.992V65.9796L83.7292 65.8979L85.0754 65.8926Z" fill="#B33051"/>
<path opacity="0.4" fill-rule="evenodd" clip-rule="evenodd" d="M59.7506 87.4362L56.7865 90.4784L50.7305 88.857L55.847 86.5713L59.6671 87.4166L59.7506 87.4362Z" fill="#B33051"/>
<path opacity="0.5" fill-rule="evenodd" clip-rule="evenodd" d="M32.6058 66.011V66.0199L32.6023 66.0536L31.5722 79.9789H31.5704L8.76174 81.3802L8.64453 81.1813L29.0841 79.1069L29.8247 75.0489L31.4621 66.0625L31.471 66.011H32.6058Z" fill="url(#paint3_linear_2202_11895)"/>
<path opacity="0.5" fill-rule="evenodd" clip-rule="evenodd" d="M24.2723 87.6141L14.1297 89.3172L14.5453 91.2424L13.8278 88.6726L13.5898 88.6655L13.9362 88.4168L13.9433 88.4097L23.0557 87.417L23.5193 82.7568L24.56 83.4264L24.2723 87.6141Z" fill="url(#paint4_linear_2202_11895)"/>
<path opacity="0.5" fill-rule="evenodd" clip-rule="evenodd" d="M40.7495 99.0619L40.3072 97.9342L25.5863 94.1123L23.9862 91.7485L23.9844 91.7467L32.7363 92.0167H32.7381L32.2657 87.1381L32.0206 84.6092L31.5731 80.0059L32.612 86.346L33.5781 92.2582L39.8704 96.6466L40.7495 99.0619Z" fill="url(#paint5_linear_2202_11895)"/>
<path opacity="0.5" fill-rule="evenodd" clip-rule="evenodd" d="M85.0673 65.9014L78.5299 77.7666L66.837 79.7947L59.6674 87.4172L59.7509 87.4367L56.7868 90.4807C56.7868 90.4807 53.7091 92.1359 53.2278 92.2815C52.7465 92.4254 49.7487 101.733 49.7487 101.733L42.1192 101.179L40.7481 99.0657L48.9442 100.275L49.4237 95.0858L35.9974 89.678L33.2926 87.8985L33.2891 87.8949L36.3704 88.6603H36.3721L39.0059 89.3139L50.3135 92.1217L50.3454 92.1235H50.3525L50.0062 88.3584L61.28 79.2975L61.3315 79.2566L66.1692 66.0008L66.2172 65.9902L66.2474 65.9831L66.2563 65.9813L66.8104 65.8623L66.9187 65.8641L83.7318 65.8996L83.8863 65.9014H85.0673Z" fill="url(#paint6_linear_2202_11895)"/>
<path opacity="0.5" fill-rule="evenodd" clip-rule="evenodd" d="M49.7506 101.731L42.121 101.175L40.75 99.0618L48.9479 100.271L49.7506 101.731Z" fill="url(#paint7_linear_2202_11895)"/>
<path opacity="0.5" fill-rule="evenodd" clip-rule="evenodd" d="M85.078 65.8917L85.0691 65.9006L78.5318 77.7658L66.8388 79.7939L59.6693 87.4164L59.7527 87.4359L56.7887 90.4799C56.7887 90.4799 53.7109 92.1351 53.2296 92.2807C52.7483 92.4246 49.7505 101.732 49.7505 101.732L42.121 101.178L40.7499 99.0649L40.3077 97.9372L25.5868 94.1153L14.5456 91.2471L13.8281 88.6755L13.5901 88.6684L12.0788 88.6223L9.07031 82.1045L23.5213 82.7616L24.562 83.4329L24.3365 87.7289V87.7396L24.3347 87.7627V87.7769L24.2122 90.1514L32.204 92.1085L32.2662 87.1464L32.4491 87.0772L32.6125 86.3526L32.8984 85.0739L50.2141 88.2866L59.2626 80.8968L42.0979 79.5844L61.2801 79.3002H61.2836L62.1823 79.286L66.251 66L66.2563 65.9858V65.9823L66.8104 65.8633L66.9188 65.8651L83.7318 65.9006L85.078 65.8917Z" fill="url(#paint8_linear_2202_11895)"/>
<path opacity="0.6" fill-rule="evenodd" clip-rule="evenodd" d="M85.077 65.8919L85.0682 65.9008L78.5308 77.766L66.8379 79.7941L59.6683 87.4165L59.7518 87.4361L56.7877 90.4801C56.7877 90.4801 53.71 92.1353 53.2287 92.2809C52.7474 92.4248 49.7496 101.733 49.7496 101.733L42.12 101.178L40.749 99.0651L40.3068 97.9374L25.5858 94.1155L14.5447 91.2473L13.8272 88.6757L13.5892 88.6686L12.0778 88.6224L9.06937 82.1046L8.64491 81.1865L6.90625 75.5567L31.4252 66.0677H31.4607L31.4696 66.0162H32.6027L66.2163 65.986V65.9931L66.2465 65.986L66.2554 65.9842L66.8095 65.8652L66.9178 65.867L83.7309 65.9025L85.077 65.8919Z" fill="url(#paint9_linear_2202_11895)"/>
<path opacity="0.4" fill-rule="evenodd" clip-rule="evenodd" d="M23.9844 91.7482L24.9683 80.5188L31.5713 79.9807L32.7381 92.0182L23.9844 91.7482Z" fill="#B33051"/>
<path opacity="0.8" d="M15.7656 75.7533L28.9131 76.1937L28.2968 79.0175L30.856 79.8114L42.0623 79.6356L53.004 77.1652L54.9452 74.7818L60.7153 79.0992L77.9137 77.6109L83.183 68.3404L84.8595 65.3408L48.1503 66.5751L15.7656 75.7533Z" fill="url(#paint10_linear_2202_11895)"/>
<path fill-rule="evenodd" clip-rule="evenodd" d="M98.2498 60.9886L94.975 66.4461L87.8782 70.268L79.2115 70.3816H79.1618L79.1458 70.3656L72.9779 68.9413L73.7149 70.3603L73.7646 70.4527L45.85 70.8132L34.388 76.2707L2.72966 74.6333L0 66.4461L21.8337 61.5338L2.72966 59.3511L14.9447 58.0618L23.4711 57.1667L23.7713 54.897L24.5634 48.9795L44.7578 52.8014L45.7026 53.9806L46.9423 55.5292L52.6573 56.1366L98.2498 60.9886Z" fill="url(#paint11_linear_2202_11895)"/>
<path opacity="0.3" fill-rule="evenodd" clip-rule="evenodd" d="M98.2498 60.9883L94.975 66.4458L87.8782 70.2677L46.1555 70.8076L45.85 70.8129L34.7378 76.1017L34.388 76.2704L2.72966 74.633L0 66.4458L32.3794 71.1237L32.5108 71.0864L44.6442 67.641L86.4823 65.3714L86.7878 65.3554L98.2498 60.9883Z" fill="url(#paint12_linear_2202_11895)"/>
<path opacity="0.5" fill-rule="evenodd" clip-rule="evenodd" d="M44.6412 67.6416L46.1525 70.8081L45.8471 70.8135L34.7349 76.1023L32.5078 71.087L44.6412 67.6416Z" fill="url(#paint13_linear_2202_11895)"/>
<path opacity="0.5" fill-rule="evenodd" clip-rule="evenodd" d="M98.248 60.9883L94.9731 66.4458L87.8764 70.2677L86.4805 65.3714L86.7859 65.3554L98.248 60.9883Z" fill="url(#paint14_linear_2202_11895)"/>
<path fill-rule="evenodd" clip-rule="evenodd" d="M83.3164 65.6224L87.0086 66.7377L90.0633 63.7168L83.3164 65.6224Z" fill="url(#paint15_linear_2202_11895)"/>
<path fill-rule="evenodd" clip-rule="evenodd" d="M46.9399 55.5292L44.1232 56.1686L34.9308 58.2589L27.9122 57.5876L23.4688 57.1667L23.7689 54.897L24.561 48.9795L34.9148 54.4335L34.9308 54.4388L34.9912 54.4282L44.4553 52.7303L45.5688 53.9859L46.9399 55.5292Z" fill="url(#paint16_linear_2202_11895)"/>
<path opacity="0.5" fill-rule="evenodd" clip-rule="evenodd" d="M46.9388 55.5294L34.9297 58.259V54.4389L44.4542 52.7305L46.9388 55.5294Z" fill="url(#paint17_linear_2202_11895)"/>
<path opacity="0.3" fill-rule="evenodd" clip-rule="evenodd" d="M79.1425 70.268H79.0555L73.5855 70.2733L63.9029 70.2893V65.8299C63.9029 65.8299 41.2345 61.2621 14.9414 58.0636L23.4678 57.1685L27.9113 57.5894C32.321 59.0954 50.6773 63.7183 56.1739 63.7183C62.4395 63.7183 45.7384 56.0763 45.7384 56.0763L44.1223 56.1686L46.9389 55.5293L52.654 56.1349L66.8297 62.7291L73.5056 65.8299L78.8228 70.0158L79.1425 70.268Z" fill="url(#paint18_linear_2202_11895)"/>
<path opacity="0.75" fill-rule="evenodd" clip-rule="evenodd" d="M72.9747 68.9408L73.7118 70.3598H73.6247L73.5857 70.2728L71.6747 66.1792L66.8281 62.7285L73.504 65.8293L78.8212 70.0153L79.0556 70.2675L79.1426 70.3652L72.9747 68.9408Z" fill="url(#paint19_linear_2202_11895)"/>
<path fill-rule="evenodd" clip-rule="evenodd" d="M79.2102 70.3812H79.1605L79.1445 70.3652L79.2102 70.3812Z" fill="url(#paint20_linear_2202_11895)"/>
<path fill-rule="evenodd" clip-rule="evenodd" d="M62.6394 70.322L56.9619 73.852L51.6719 72.1095L55.1544 65.8645L59.4719 64.6895L62.6394 70.322Z" fill="url(#paint21_linear_2202_11895)"/>
<path opacity="0.3" fill-rule="evenodd" clip-rule="evenodd" d="M62.6394 70.322L56.9619 73.852L51.6719 72.1095L56.6719 70.9344L59.4719 64.6895L62.6394 70.322Z" fill="url(#paint22_linear_2202_11895)"/>
<path opacity="0.5" fill-rule="evenodd" clip-rule="evenodd" d="M56.9619 73.852L56.6719 70.9344L59.4719 64.6895L61.5419 68.412L67.6944 70.3445L65.3294 73.5645L56.9619 73.852Z" fill="url(#paint23_linear_2202_11895)"/>
<path d="M19.5 0H75L65.4311 62H28.5689L19.5 0Z" fill="url(#paint24_linear_2202_11895)" fill-opacity="0.5"/>
<defs>
<linearGradient id="paint0_linear_2202_11895" x1="2.82481" y1="40.9238" x2="18.2937" y2="69.4926" gradientUnits="userSpaceOnUse">
<stop stop-color="#41FCF4"/>
<stop offset="1" stop-color="#0788F7"/>
</linearGradient>
<linearGradient id="paint1_linear_2202_11895" x1="48.1875" y1="113.448" x2="46.3294" y2="77.9579" gradientUnits="userSpaceOnUse">
<stop stop-color="#41FCF4"/>
<stop offset="1" stop-color="#0788F7"/>
</linearGradient>
<linearGradient id="paint2_linear_2202_11895" x1="45.4959" y1="68.2193" x2="52.4119" y2="103.174" gradientUnits="userSpaceOnUse">
<stop stop-color="#481639"/>
<stop offset="1" stop-color="#641925"/>
</linearGradient>
<linearGradient id="paint3_linear_2202_11895" x1="8.64515" y1="73.6958" x2="32.605" y2="73.6958" gradientUnits="userSpaceOnUse">
<stop stop-color="#4C3A71"/>
<stop offset="1" stop-color="#3E2550"/>
</linearGradient>
<linearGradient id="paint4_linear_2202_11895" x1="13.5902" y1="86.9997" x2="24.5601" y2="86.9997" gradientUnits="userSpaceOnUse">
<stop stop-color="#4C3A71"/>
<stop offset="1" stop-color="#3E2550"/>
</linearGradient>
<linearGradient id="paint5_linear_2202_11895" x1="23.9844" y1="89.534" x2="40.7503" y2="89.534" gradientUnits="userSpaceOnUse">
<stop stop-color="#4C3A71"/>
<stop offset="1" stop-color="#3E2550"/>
</linearGradient>
<linearGradient id="paint6_linear_2202_11895" x1="33.2888" y1="83.7952" x2="85.0674" y2="83.7952" gradientUnits="userSpaceOnUse">
<stop stop-color="#4C3A71"/>
<stop offset="1" stop-color="#3E2550"/>
</linearGradient>
<linearGradient id="paint7_linear_2202_11895" x1="40.7508" y1="100.397" x2="49.7507" y2="100.397" gradientUnits="userSpaceOnUse">
<stop stop-color="#4C3A71"/>
<stop offset="1" stop-color="#3E2550"/>
</linearGradient>
<linearGradient id="paint8_linear_2202_11895" x1="9.06978" y1="83.7944" x2="85.0778" y2="83.7944" gradientUnits="userSpaceOnUse">
<stop stop-color="#4C3A71"/>
<stop offset="1" stop-color="#3E2550"/>
</linearGradient>
<linearGradient id="paint9_linear_2202_11895" x1="48.1875" y1="112.673" x2="46.3294" y2="77.1831" gradientUnits="userSpaceOnUse">
<stop stop-color="#2945FE"/>
<stop offset="1"/>
</linearGradient>
<linearGradient id="paint10_linear_2202_11895" x1="45.9407" y1="90.3882" x2="48.235" y2="79.9756" gradientUnits="userSpaceOnUse">
<stop stop-color="#D91221"/>
<stop offset="1" stop-color="#67008A"/>
</linearGradient>
<linearGradient id="paint11_linear_2202_11895" x1="0.000816943" y1="62.6257" x2="98.2496" y2="62.6257" gradientUnits="userSpaceOnUse">
<stop stop-color="#4A9BDF"/>
<stop offset="1" stop-color="#2432AD"/>
</linearGradient>
<linearGradient id="paint12_linear_2202_11895" x1="43.5975" y1="56.1289" x2="53.0862" y2="72.2115" gradientUnits="userSpaceOnUse">
<stop stop-color="#E46AD4"/>
<stop offset="1" stop-color="#B53887"/>
</linearGradient>
<linearGradient id="paint13_linear_2202_11895" x1="38.4247" y1="69.7317" x2="39.7409" y2="71.9626" gradientUnits="userSpaceOnUse">
<stop stop-color="#E46AD4"/>
<stop offset="1" stop-color="#B53887"/>
</linearGradient>
<linearGradient id="paint14_linear_2202_11895" x1="91.9827" y1="63.7973" x2="93.0133" y2="65.5442" gradientUnits="userSpaceOnUse">
<stop stop-color="#E46AD4"/>
<stop offset="1" stop-color="#B53887"/>
</linearGradient>
<linearGradient id="paint15_linear_2202_11895" x1="79.6471" y1="49.9425" x2="94.1402" y2="80.2526" gradientUnits="userSpaceOnUse">
<stop stop-color="#41FCF4"/>
<stop offset="1" stop-color="#0788F7"/>
</linearGradient>
<linearGradient id="paint16_linear_2202_11895" x1="-10.2748" y1="-38.7638" x2="76.5152" y2="142.744" gradientUnits="userSpaceOnUse">
<stop stop-color="#41FCF4"/>
<stop offset="1" stop-color="#0788F7"/>
</linearGradient>
<linearGradient id="paint17_linear_2202_11895" x1="22.7661" y1="18.8985" x2="57.1462" y2="90.7994" gradientUnits="userSpaceOnUse">
<stop stop-color="#E46AD4"/>
<stop offset="1" stop-color="#B53887"/>
</linearGradient>
<linearGradient id="paint18_linear_2202_11895" x1="38.6939" y1="46.7055" x2="55.3907" y2="81.6244" gradientUnits="userSpaceOnUse">
<stop stop-color="#41FCF4"/>
<stop offset="1" stop-color="#0788F7"/>
</linearGradient>
<linearGradient id="paint19_linear_2202_11895" x1="73.5465" y1="70.0772" x2="72.2608" y2="61.9847" gradientUnits="userSpaceOnUse">
<stop stop-color="#41FCF4"/>
<stop offset="1" stop-color="#0788F7"/>
</linearGradient>
<linearGradient id="paint20_linear_2202_11895" x1="79.1788" y1="70.3831" x2="79.1752" y2="70.3605" gradientUnits="userSpaceOnUse">
<stop stop-color="#41FCF4"/>
<stop offset="1" stop-color="#0788F7"/>
</linearGradient>
<linearGradient id="paint21_linear_2202_11895" x1="40.9732" y1="75.6366" x2="67.2245" y2="65.5805" gradientUnits="userSpaceOnUse">
<stop stop-color="#3EF2EB"/>
<stop offset="1" stop-color="#0184EB"/>
</linearGradient>
<linearGradient id="paint22_linear_2202_11895" x1="41.0532" y1="75.8457" x2="67.3046" y2="65.7895" gradientUnits="userSpaceOnUse">
<stop stop-color="#E46AD4"/>
<stop offset="1" stop-color="#B53887"/>
</linearGradient>
<linearGradient id="paint23_linear_2202_11895" x1="45.1893" y1="75.7202" x2="72.395" y2="65.2985" gradientUnits="userSpaceOnUse">
<stop stop-color="#4C3A71"/>
<stop offset="1" stop-color="#3E2550"/>
</linearGradient>
<linearGradient id="paint24_linear_2202_11895" x1="50.875" y1="0" x2="50.875" y2="62" gradientUnits="userSpaceOnUse">
<stop stop-color="white" stop-opacity="0"/>
<stop offset="1" stop-color="#151E36"/>
</linearGradient>
</defs>
</svg>
