<svg version="1.2" xmlns="http://www.w3.org/2000/svg" viewBox="0 0 202 256" width="202" height="256"><defs><clipPath clipPathUnits="userSpaceOnUse" id="cp1"><path d="m117.63-107l222.37 128.39-171.84 297.63-222.37-128.38z"/></clipPath><clipPath clipPathUnits="userSpaceOnUse" id="cp2"><path d="m448.12 56.01l-318.51-183.77-183.77 318.52 318.51 183.76z"/></clipPath><clipPath clipPathUnits="userSpaceOnUse" id="cp3"><path d="m448.12 56.01l-318.51-183.77-183.77 318.52 318.51 183.76z"/></clipPath><clipPath clipPathUnits="userSpaceOnUse" id="cp4"><path d="m448.12 56.01l-318.51-183.77-183.77 318.52 318.51 183.76z"/></clipPath><clipPath clipPathUnits="userSpaceOnUse" id="cp5"><path d="m448.12 56.01l-318.51-183.77-183.77 318.52 318.51 183.76z"/></clipPath><clipPath clipPathUnits="userSpaceOnUse" id="cp6"><path d="m448.12 56.01l-318.51-183.77-183.77 318.52 318.51 183.76z"/></clipPath><clipPath clipPathUnits="userSpaceOnUse" id="cp7"><path d="m448.12 56.01l-318.52-183.76-183.76 318.51 318.51 183.77z"/></clipPath></defs><style>.a{fill:#fff}.b{fill:#219ebc}.c{fill:#fb8500}.d{fill:#ffb703}.e{fill:#fff;stroke:#fb8500;stroke-miterlimit:10;stroke-width:2.3}.f{fill:#fb8500;stroke:#fb8500;stroke-miterlimit:10;stroke-width:2.3}.g{fill:#459ebd;stroke:#023047;stroke-miterlimit:10;stroke-width:2.3}</style><path fill-rule="evenodd" class="a" d="m0 206h63v50h-63z"/><g clip-path="url(#cp1)"><g clip-path="url(#cp2)"><path class="b" d="m-44.4 108.1c-10.2 9.2-10.6 25-1.8 34.8q0.2 0.3 0.5 0.6c-6.1 9.1-5.7 21.3 1.7 29.5 5.8 6.4 13.6 10.9 21.7 9.2-4.8 11.5-2.4 22.8 6.2 32.4 11.4 12.7 30.2 17.5 44 6.8-0.3 6.1 2.1 10.5 5.6 14.4 8.7 9.9 25.3 9.3 35.5 0.2 10.3-9.2 11.4-24.6 2.6-34.4q-1.8-1.9-3.8-3.4c11.7-12.6 12.4-31.8 1.1-44.4-9.3-10.4-24.1-13.1-36.7-7.9 6.1-11.9 4.9-26.5-4.3-36.7-11-12.3-29.6-13.9-43.3-4.3-8.8-4.8-20.9-4.1-29 3.2z"/></g><g clip-path="url(#cp3)"><path class="b" d="m52.4 197c6.8-11.9 22.2-15.6 33.6-9q0.3 0.2 0.7 0.4c7.6-7.8 19.6-10 29.2-4.5 7.5 4.3 13.5 11.1 13.6 19.4 10.1-7.1 21.7-7.1 32.9-0.7 14.8 8.6 23.4 26 15.8 41.7 5.9-1.6 10.7-0.1 15.2 2.4 11.5 6.5 14.4 22.9 7.5 34.8-6.8 11.9-21.7 16.2-33.1 9.6q-2.2-1.3-4.1-3c-9.9 14-28.6 18.7-43.2 10.3-12.1-7-17.8-20.9-15.3-34.3-10.4 8.5-25 10.3-36.8 3.5-14.3-8.3-19.7-26.2-13.2-41.6-6.5-7.5-8.3-19.6-2.8-29z"/></g><g clip-path="url(#cp4)"><path class="b" d="m335.4 328.5c-3.5 13.3-17.3 20.9-30.1 17.5q-0.4-0.1-0.8-0.3c-5.3 9.6-16.3 14.9-27 12-8.4-2.2-15.9-7.1-18.1-15.2-8 9.6-19.2 12.6-31.6 9.3-16.5-4.4-29.4-18.9-26.1-36.1-5.3 3.1-10.3 2.9-15.4 1.6-12.8-3.3-19.8-18.3-16.3-31.6 3.5-13.2 16.7-21.3 29.4-17.9q2.5 0.7 4.7 1.9c6-16.2 22.8-25.6 39.1-21.3 13.5 3.6 22.6 15.5 23.7 29.1 7.8-10.9 21.4-16.4 34.7-12.9 15.9 4.2 25.8 20.1 23.5 36.6 8.3 5.6 13.1 16.8 10.3 27.3z"/></g><path class="b" d="m31.7 239.2l-37.1-21.7 52.1-68.5 10.2-13.3 34.4-44.7 1.6 0.6q0 0 0 0l1.3 0.4-0.1 0.2-0.7 1.8-56.7 133.4z"/><path class="a" d="m28 237.1l-29.8-17.2 33.6-44.2 9.8-12.7 32.8-42.7 1.6 0.5q0 0 0 0l1.2 0.5v0.1l-0.8 1.8z"/><g clip-path="url(#cp5)"><path class="a" d="m-56.6 130.2c-10.2 9.2-10.6 25-1.8 34.8q0.3 0.3 0.5 0.6c-6.1 9.1-5.7 21.3 1.7 29.5 5.8 6.5 13.6 10.9 21.8 9.2-4.9 11.5-2.5 22.8 6.1 32.4 11.4 12.7 30.2 17.6 44 6.8-0.3 6.1 2.1 10.5 5.6 14.4 8.7 9.9 25.3 9.3 35.5 0.2 10.3-9.2 11.4-24.6 2.6-34.4q-1.8-1.9-3.8-3.4c11.7-12.6 12.4-31.8 1.1-44.4-9.3-10.3-24.1-13.1-36.7-7.9 6.2-11.9 4.9-26.5-4.2-36.7-11.1-12.3-29.7-13.8-43.4-4.3-8.7-4.8-20.9-4.1-29 3.2z"/></g><g clip-path="url(#cp6)"><path class="a" d="m40.2 219.1c6.8-11.9 22.2-15.6 33.6-9q0.4 0.2 0.7 0.5c7.7-7.9 19.6-10.1 29.2-4.6 7.5 4.4 13.5 11.1 13.6 19.4 10.1-7.1 21.8-7.1 32.9-0.7 14.8 8.6 23.4 26 15.8 41.7 5.9-1.6 10.7-0.1 15.2 2.5 11.5 6.5 14.4 22.8 7.5 34.7-6.8 11.9-21.6 16.2-33.1 9.6q-2.2-1.3-4.1-3c-9.9 14.1-28.6 18.7-43.2 10.3-12-7-17.8-20.8-15.3-34.3-10.4 8.5-24.9 10.3-36.8 3.5-14.3-8.3-19.7-26.1-13.2-41.5-6.5-7.6-8.3-19.7-2.8-29.1z"/></g><g clip-path="url(#cp7)"><path class="a" d="m323.2 350.7c-3.5 13.2-17.3 20.8-30.1 17.4q-0.4-0.1-0.7-0.2c-5.4 9.6-16.4 14.8-27.1 11.9-8.3-2.2-15.9-7.1-18.1-15.1-8 9.5-19.2 12.5-31.6 9.2-16.5-4.4-29.4-18.9-26.1-36.1-5.3 3.1-10.3 2.9-15.4 1.6-12.8-3.2-19.8-18.3-16.3-31.6 3.5-13.2 16.7-21.2 29.4-17.9q2.5 0.7 4.8 1.9c5.9-16.2 22.7-25.6 39-21.2 13.5 3.5 22.6 15.4 23.7 29 7.8-10.9 21.4-16.4 34.7-12.9 15.9 4.2 25.8 20.1 23.5 36.6 8.3 5.7 13.1 16.8 10.3 27.4z"/></g><path class="c" d="m64.9 141.4c5.3-3.7 4.9-10.6 4.6-15.8-0.1-3-0.4-6.1 0.8-9.2 0.5-1.5 1.3-2.9 2.4-4.1 0.3-0.4 2.7-3 3.4-2.6-1.6-1-5.1 3-6.3 4.4-1.3 1.6-3.4 4.9-3.5 7-1-1.8-0.3-5.9 0-8 0.5-3.2 1.5-7.6 2.9-10.8 3.2-7 9.8-11.6 16.4-12.2 13.2-1.1 22.4 14.4 13.7 28.1-2.3 3.7-5.6 6.5-9.3 8-3.5 1.5-8.7 2.6-9.6 7.6-1.4-2.4 0.9-8.6 3-11.1 0.9-1.2 2.1-2.3 3.3-3.1 1.2-0.7 2.1-1.1 3.2-1.6-1.4 0-0.7-0.1-2.2 0.2-1.2 0.3-2.9 1.3-4.3 2.2-2.3 1.5-5.7 6.2-6.8 8.8-2.5 5.7-5.5 11.5-11.7 12.2z"/><path class="d" d="m75.1 127.2c0.3-4.2 4.4-6.2 7.4-7.8 1.8-0.9 3.6-1.8 5-3.4 0.7-0.8 1.2-1.8 1.6-2.8 0.1-0.3 0.7-2.5 0.3-2.7 1.1 0.6 0 3.8-0.4 5-0.5 1.2-1.7 3.5-2.9 4.3 1.4-0.1 3.5-1.8 4.6-2.7 1.6-1.3 3.8-3.3 5.1-5.2 3-4.1 3.4-9.3 1.6-13.2-3.7-7.9-15.5-8.1-20.5 1.4-1.3 2.5-1.8 5.3-1.4 7.9 0.2 2.5 1.4 5.8-1.2 7.9 1.8 0 4.6-3.3 5.4-5.3 0.3-0.9 0.6-2 0.6-2.9 0-0.9-0.1-1.6-0.1-2.3 0.4 0.7 0.2 0.3 0.6 1.3 0.2 0.7 0.2 2.1 0.1 3.1-0.1 1.8-1.6 5.3-2.7 6.8-2.4 3.2-4.7 6.8-3.1 10.6z"/><path class="a" d="m124.7 36.9c0.9-0.3 1.5-0.9 1.4-1.4-0.2-0.6-1-0.8-1.9-0.6-1 0.3-1.6 0.9-1.5 1.5 0.2 0.5 1 0.7 2 0.5z"/><path class="c" d="m123.5 72c0 0 3.9 9.2 3.8 17.7-0.2 10.9-7.2 27.6-9.3 27.6-2.1 0-0.8-7.4-2.3-12.9-2.3-9-7.3-11-7.3-11z"/><path class="d" d="m104.7 100.5l-21.5-12.9-2.2 3.6 21.5 13z"/><path class="c" d="m99.5 57.2c0 0-9.8 1.6-17 6.3-9.1 5.9-19.5 20.7-18.4 22.5 1.1 1.7 6.7-3.3 12.1-4.9 8.8-2.8 13.2 0.3 13.2 0.3z"/><path class="e" d="m102.1 37.4c-16 26.5-19.4 46.1-20.3 49.7l24.1 14.5c2.8-2.5 18.5-14.5 34.5-41.1 7.1-11.8 10.4-24.8 11.4-36.1l-23.1-13.9c-9.5 6.1-19.5 15.1-26.6 26.9z"/><path class="f" d="m145.9 2.2c-4.8 1.5-10.9 4.3-17.2 8.3l2.6 2.5c4.6 4.6 10.3 8.1 16.5 10.1l4 1.3c0.6-7.5 0.3-14.1-0.7-19.1-0.4-2.4-2.9-3.8-5.2-3.1z"/><path class="c" d="m105.3 75.5c-1.6-1-4.1 0.7-6 3.8-1.9 3.2-12.8 22-10.5 23.5q0 0 0 0 0 0 0.1 0c2.3 1.4 13.9-17.1 15.8-20.2 1.9-3.1 2.2-6.1 0.6-7.1z"/><path class="g" d="m130.9 32.9c-4.5-2.7-10.5-1.2-13.2 3.3-2.8 4.6-1.3 10.5 3.3 13.2 4.5 2.8 10.4 1.3 13.2-3.2 2.7-4.6 1.3-10.5-3.3-13.3z"/></g></svg>