<svg width="109" height="94" viewBox="0 0 109 94" fill="none" xmlns="http://www.w3.org/2000/svg">
<path d="M22.4833 33.5536C17.9814 35.2989 17.4593 41.508 17.4643 45.6347C17.4706 50.845 15.6755 52.9702 11.4665 56.1872C0.154345 64.8334 -6.77484 86.016 11.0391 92.1491C19.8663 95.1882 27.2257 93.4952 33.9233 87.7394C40.1015 82.4302 46.6576 83.2002 54.0106 81.1499C56.5234 80.4491 60.0862 78.7844 62.0847 77.0927C64.3323 75.1899 64.8614 71.944 66.8175 69.7125C69.2108 66.982 83.4115 61.4466 81.902 57.1463C80.905 54.3059 75.4727 58.7768 73.9414 55.922C71.875 52.0694 82.6687 47.489 84.6104 46.061C90.4494 41.7666 94.0511 35.2694 99.9886 31.0739C104.595 27.8188 108.653 26.0882 108.322 20.0449C103.61 18.8185 98.0392 26.5655 94.5453 28.8716C90.1431 31.7773 83.1153 33.8656 77.9569 32.4053C77.3617 28.8484 86.4026 23.4993 88.4254 20.8569C91.3703 17.0099 94.5445 13.4671 97.3619 9.5238C98.831 7.46769 104.525 2.74193 101.195 0.825563C97.2734 -1.43197 92.6795 6.32466 89.1641 6.31322C89.2478 5.0467 89.6836 3.77603 89.6519 2.4795C84.9102 1.59376 77.0418 9.09444 72.8155 11.2043C67.1107 14.0523 59.8971 18.0423 53.4322 17.7093C53.4974 15.535 57.2728 13.4276 56.7348 11.1731C56.1233 8.61037 53.5109 10.8031 51.8907 11.8876C45.7201 16.0187 39.9885 20.8958 33.518 24.5048C30.4709 26.2043 28.1789 28.6006 25.5401 30.6376C24.2408 31.6407 23.0838 32.0631 22.4833 33.5536Z" fill="#7F5F2F"/>
<path d="M26.511 32.1103C21.4201 36.3018 18.7886 40.801 19.6529 47.4088C20.1514 51.2203 19.1749 54.2041 15.9546 56.4571C11.9628 59.2501 7.93875 60.7762 6.00797 65.7163C5.51229 66.9847 5.41272 68.4035 4.9257 69.6513C4.51391 70.7067 3.80202 71.1359 3.21081 72.0314C1.3025 74.9217 3.70634 77.5049 5.80889 79.4157C8.54161 81.8988 12.1001 82.575 15.4523 83.8011C18.1817 84.7992 20.9181 86.3293 23.9364 86.1619C26.8259 86.0016 29.8159 84.8753 32.4986 83.816C35.0588 82.8051 36.8749 80.773 39.314 79.7607C41.605 78.8098 43.8554 79.3197 46.2487 79.3056C48.5104 79.2922 50.9172 78.2667 52.9973 77.4118C56.201 76.095 59.7932 74.7963 62.4245 72.4602C65.7058 69.5472 64.7414 65.7218 66.8097 62.3826C68.0243 60.4218 69.0743 59.0329 69.6732 56.7847C70.216 54.7468 70.4762 52.8767 72.0919 51.4313C75.0984 48.7414 81.2786 45.9778 81.3979 41.355C78.5439 40.1894 74.7975 43.1125 71.659 42.778C69.878 42.5882 67.5527 41.7752 67.0171 39.8595C66.3987 37.6474 68.473 36.1011 69.9196 34.7918C72.76 32.2208 74.8948 29.3722 77.4137 26.5219C78.9448 24.7892 80.3251 23.0098 81.6865 21.142C82.802 19.6114 84.5279 17.9011 84.6095 15.894C81.7578 14.6779 76.3264 19.9666 74.1077 21.3398C69.5619 24.153 65.2927 24.8287 60.1437 25.4709C56.74 25.8954 54.115 27.8004 50.6802 28.1637C47.9596 28.4515 45.4107 29.7301 42.7434 29.8938C41.5857 29.9649 40.3389 29.9604 39.2307 29.6262C38.2866 29.3414 37.5955 28.6591 36.5542 28.7464C34.6694 28.9046 33.0424 30.9811 31.2038 31.4759C29.6492 31.8943 27.9388 31.5469 26.511 32.1103Z" fill="#B78748"/>
<path d="M63.9399 63.5402C63.1742 70.8866 56.9072 77.0209 49.3926 77.7913C46.2731 78.1112 43.7807 76.0812 40.7179 76.6751C39.3318 76.9434 38.1439 77.6045 37.0473 78.438C35.1177 79.9019 33.4727 81.8975 31.5384 83.2138C28.1514 85.5169 22.7906 85.6923 17.9329 84.3434C16.6949 84.0004 15.4896 83.5588 14.3575 83.0261C11.6564 81.7596 9.37473 79.9843 8.07228 77.8392C4.89016 72.5957 8.23774 63.1561 12.9647 59.7848C15.0492 58.2988 19.7011 57.725 21.0919 55.4783C22.3452 53.4558 21.1486 49.3142 21.1323 47.0139C21.0679 38.1645 26.0863 31.3067 35.5852 32.7332C37.8217 31.1802 39.6369 33.0648 41.9465 33.8819C41.9821 33.8943 42.0187 33.9067 42.0541 33.9192C44.6792 34.8331 47.5457 35.3226 50.2516 36.4322C50.6614 36.5998 51.0626 36.7818 51.4541 36.9792C51.8302 37.167 52.1976 37.3663 52.5574 37.579C61.0157 42.5551 64.9346 54.0019 63.9399 63.5402Z" fill="#3C2051"/>
<path d="M51.1944 58.775C49.5274 61.379 52.5536 64.1362 51.0261 66.9481C49.5689 69.6287 45.7413 72.1024 42.6467 71.4184C39.3915 70.6979 38.8183 70.4756 36.3182 72.7146C33.8806 74.896 31.1584 75.4268 29.2558 78.0615C28.8883 78.5703 28.4843 79.0512 28.0485 79.5014C25.4416 82.2003 21.7094 83.8471 17.9329 84.3434C16.6949 84.0004 15.4896 83.5588 14.3575 83.0262C11.6564 81.7596 9.37473 79.9843 8.07228 77.8392C4.89016 72.5957 8.23774 63.1561 12.9647 59.7848C15.0492 58.2988 19.7011 57.725 21.0919 55.4783C22.3452 53.4558 21.1486 49.3142 21.1323 47.0139C21.0679 38.1645 26.0863 31.3067 35.5852 32.7332C37.8217 31.1802 39.6368 33.0648 41.9465 33.8819C41.9821 33.8943 42.0187 33.9067 42.0541 33.9192C44.6792 34.8331 47.5457 35.3226 50.2516 36.4321C50.6614 36.5997 51.0626 36.7818 51.4541 36.9792C51.5088 37.2416 51.5483 37.5148 51.5829 37.8059C51.6425 38.3003 51.6906 38.8473 51.782 39.4872C52.389 43.7342 56.5684 47.0913 56.8196 51.3201C57.0545 55.281 52.9346 56.0552 51.1944 58.775Z" fill="#4B266B"/>
<path d="M52.5573 37.5796C52.2513 37.6821 51.9243 37.7558 51.5829 37.8067C49.2888 38.1525 46.323 37.4628 44.3127 37.3766C41.0297 37.2356 37.409 37.1514 34.2172 37.9629C31.2516 38.7168 27.8762 40.2173 25.9571 42.6948C24.3401 44.7824 24.5864 46.4274 24.9924 48.8963C25.6167 52.6844 27.1442 56.576 23.5601 59.1991C22.3577 60.0785 19.6864 60.9216 21.617 62.6021C23.131 63.9203 26.166 63.0427 27.8897 62.9202C29.6414 62.7947 33.1534 63.0639 33.7007 65.1822C34.3057 67.5294 30.0675 68.2269 28.3746 68.6887C25.939 69.3536 23.4621 68.5181 20.9898 68.8976C18.1166 69.3392 16.1265 71.7047 15.833 74.5731C15.4627 78.2098 20.076 77.7815 22.4501 78.3181C24.2382 78.7234 26.1861 79.2551 28.0485 79.5022C28.4593 79.5568 28.8661 79.5981 29.2664 79.6211C30.5101 79.6911 32.2167 79.5234 33.4507 79.3184C34.5205 79.1422 35.8305 78.0797 36.9376 78.4025C36.9752 78.4129 37.0117 78.4255 37.0473 78.4389C35.1177 79.9029 33.4727 81.8985 31.5384 83.2148C28.1514 85.5179 22.7906 85.6933 17.9329 84.3444C16.6949 84.0014 15.4896 83.5597 14.3575 83.0271C11.6564 81.7606 9.37473 79.9853 8.07228 77.8402C4.89016 72.5967 8.23774 63.1571 12.9647 59.7857C15.0492 58.2997 19.7011 57.726 21.0919 55.4792C22.3452 53.4568 21.1486 49.3152 21.1323 47.0149C21.0679 38.1655 26.0863 31.3077 35.5852 32.7342C37.8217 31.1812 39.6369 33.0657 41.9465 33.8828C41.9821 33.8953 42.0187 33.9077 42.0541 33.9201C44.6792 34.8341 47.5457 35.3236 50.2516 36.4331C50.6614 36.6007 51.0626 36.7827 51.4541 36.9802C51.8301 37.1677 52.1976 37.3669 52.5573 37.5796Z" fill="#592491"/>
<path d="M42.0545 33.9195C40.4365 34.2931 39.0187 34.9379 37.2159 35.2684C33.8945 35.8778 29.8976 35.4208 26.9252 37.3723C22.6465 40.1813 23.698 45.7983 22.6503 50.098C21.7633 53.7396 21.596 56.6309 19.4279 59.8279C17.2972 62.9703 13.7198 65.5216 12.0768 69.097C10.1269 73.3402 11.2977 79.1959 14.3575 83.0261C11.6564 81.7596 9.37473 79.9843 8.07229 77.8392C4.89017 72.5957 8.23771 63.1561 12.9646 59.7848C15.0492 58.2988 19.7011 57.725 21.0919 55.4782C22.3452 53.4558 21.1486 49.3142 21.1323 47.0139C21.0679 38.1645 26.0863 31.3067 35.5852 32.7332C37.8218 31.1802 39.6369 33.0648 41.9465 33.8819C41.9824 33.8945 42.0189 33.9071 42.0545 33.9195Z" fill="#6F37B7"/>
<path d="M41.1473 69.9398C39.9804 68.5581 35.6875 69.6504 34.479 70.7083C33.1025 71.9132 31.9213 74.2903 34.3804 74.6923C35.823 74.9282 37.6521 74.1813 39.1137 73.9907C40.114 73.8602 41.4259 73.3997 41.9887 72.4614C42.6751 71.3172 42.1352 70.215 41.1473 69.9398Z" fill="#1B1423"/>
<path d="M56.7157 56.2492C55.213 55.3091 52.3044 56.2585 51.0931 57.3321C49.561 58.69 50.2035 60.9124 50.1241 62.8037C50.0297 65.0523 48.8426 66.3224 47.5959 68.1226C46.6831 69.4407 44.7397 72.2486 46.3449 73.6422C47.9115 75.0023 50.9583 73.9125 52.3748 73.007C54.5785 71.5982 54.6953 69.9801 55.1774 67.5596C55.7291 64.7895 58.9606 63.3285 58.8194 60.3C58.7558 58.935 58.0462 57.0498 56.7157 56.2492Z" fill="#1B1423"/>
<path d="M45.3603 41.3058C44.0881 39.9514 39.4315 40.8406 39.3235 43.0167C39.2153 45.1977 43.1742 45.7565 44.7339 45.5012C47.8508 44.991 47.9973 42.0773 45.3603 41.3058Z" fill="#1B1423"/>
<path d="M23.7551 59.8815C21.2701 60.6362 19.2494 61.2427 17.7463 63.6563C16.9598 64.919 16.8102 66.3393 15.9568 67.5697C15.1801 68.6895 13.2835 70.9 14.3839 72.4241C15.1757 73.5209 17.5622 73.1176 18.4358 72.3101C19.4498 71.3729 18.9873 70.5281 19.2622 69.293C19.5377 68.0558 20.5227 67.0018 21.2651 66.0199C21.9513 65.1121 22.3277 64.6443 23.4018 64.1962C24.2713 63.8335 25.5654 63.6402 26.0403 62.7064C26.754 61.3027 25.3034 59.0167 23.7551 59.8815Z" fill="#1B1423"/>
<path d="M29.0841 42.8409C26.2184 44.0032 24.6286 51.989 28.1408 52.9423C30.9295 53.699 29.4994 48.9736 29.6419 47.7581C29.8016 46.394 31.2399 46.0319 31.4716 44.7997C31.7219 43.4687 30.4025 42.6292 29.2455 42.7224C29.2096 42.8649 29.2454 42.9768 29.0841 42.8409Z" fill="#1B1423"/>
</svg>
