<svg width="32" height="32" viewBox="0 0 32 32" fill="none" xmlns="http://www.w3.org/2000/svg">
<g clip-path="url(#clip0_2301_11898)">
<path d="M29.9993 16.0003C30.0025 16.4105 29.8778 16.8115 29.6426 17.1475C29.4074 17.4835 29.0733 17.7379 28.6868 17.8753L20.7568 20.7591L17.8743 28.6878C17.7323 29.0706 17.4765 29.4007 17.1413 29.6338C16.8061 29.8669 16.4076 29.9918 15.9993 29.9918C15.5911 29.9918 15.1926 29.8669 14.8574 29.6338C14.5222 29.4007 14.2664 29.0706 14.1243 28.6878L11.2418 20.7578L3.31184 17.8753C2.92909 17.7332 2.59898 17.4774 2.36587 17.1423C2.13276 16.8071 2.00781 16.4086 2.00781 16.0003C2.00781 15.592 2.13276 15.1936 2.36587 14.8584C2.59898 14.5232 2.92909 14.2674 3.31184 14.1253L11.2418 11.2428L14.1243 3.31282C14.2664 2.93006 14.5222 2.59996 14.8574 2.36685C15.1926 2.13374 15.5911 2.00879 15.9993 2.00879C16.4076 2.00879 16.8061 2.13374 17.1413 2.36685C17.4765 2.59996 17.7323 2.93006 17.8743 3.31282L20.7581 11.2428L28.6868 14.1253C29.0733 14.2627 29.4074 14.5171 29.6426 14.8532C29.8778 15.1892 30.0025 15.5902 29.9993 16.0003Z" fill="#F9A439"/>
</g>
<defs>
<clipPath id="clip0_2301_11898">
<rect width="32" height="32" fill="white"/>
</clipPath>
</defs>
</svg>
